<svg width="100%" viewBox="0 0 148 147" fill="none" xmlns="http://www.w3.org/2000/svg">
<g filter="url(#filter0_dd_3872_62955)">
<rect x="8" y="4" width="132" height="132" fill="#FBFBFE"/>
<rect x="8.5" y="4.5" width="131" height="131" stroke="#827DFF" stroke-dasharray="4 4"/>
<rect width="100" height="96" transform="translate(24 22)" fill="#FBFBFE"/>
<path d="M79.75 33C81.5449 33 83 34.4551 83 36.25V47.75C83 49.5449 81.5449 51 79.75 51H68.25C66.4551 51 65 49.5449 65 47.75V36.25C65 34.4551 66.4551 33 68.25 33H79.75ZM80.3305 49.4014L74.5247 43.7148C74.2596 43.4553 73.8501 43.4316 73.5588 43.644L73.4752 43.7148L67.6685 49.4011C67.8504 49.4651 68.0461 49.5 68.25 49.5H79.75C79.9535 49.5 80.1489 49.4653 80.3305 49.4014L74.5247 43.7148L80.3305 49.4014ZM79.75 34.5H68.25C67.2835 34.5 66.5 35.2835 66.5 36.25V47.75C66.5 47.9584 66.5364 48.1583 66.6033 48.3437L72.4258 42.643C73.2589 41.8273 74.5675 41.7885 75.4458 42.5266L75.5742 42.6431L81.3964 48.3447C81.4634 48.159 81.5 47.9588 81.5 47.75V36.25C81.5 35.2835 80.7165 34.5 79.75 34.5ZM77.2521 36.5C78.4959 36.5 79.5042 37.5083 79.5042 38.7521C79.5042 39.9959 78.4959 41.0042 77.2521 41.0042C76.0083 41.0042 75 39.9959 75 38.7521C75 37.5083 76.0083 36.5 77.2521 36.5ZM77.2521 38C76.8367 38 76.5 38.3367 76.5 38.7521C76.5 39.1675 76.8367 39.5042 77.2521 39.5042C77.6675 39.5042 78.0042 39.1675 78.0042 38.7521C78.0042 38.3367 77.6675 38 77.2521 38Z" fill="#020057"/>
<path d="M53.041 74.6484C52.4199 74.9766 51.6465 75.1406 50.7207 75.1406C49.5254 75.1406 48.5684 74.7559 47.8496 73.9863C47.1309 73.2168 46.7715 72.207 46.7715 70.957C46.7715 69.6133 47.1758 68.5273 47.9844 67.6992C48.793 66.8711 49.8184 66.457 51.0605 66.457C51.8574 66.457 52.5176 66.5723 53.041 66.8027V67.8516C52.4395 67.5156 51.7754 67.3477 51.0488 67.3477C50.084 67.3477 49.3008 67.6699 48.6992 68.3145C48.1016 68.959 47.8027 69.8203 47.8027 70.8984C47.8027 71.9219 48.082 72.7383 48.6406 73.3477C49.2031 73.9531 49.9395 74.2559 50.8496 74.2559C51.6934 74.2559 52.4238 74.0684 53.041 73.6934V74.6484ZM55.584 75H54.623V66.1172H55.584V75ZM61.8242 75H60.8633V74.0625H60.8398C60.4219 74.7812 59.8066 75.1406 58.9941 75.1406C58.3965 75.1406 57.9277 74.9824 57.5879 74.666C57.252 74.3496 57.084 73.9297 57.084 73.4062C57.084 72.2852 57.7441 71.6328 59.0645 71.4492L60.8633 71.1973C60.8633 70.1777 60.4512 69.668 59.627 69.668C58.9043 69.668 58.252 69.9141 57.6699 70.4062V69.4219C58.2598 69.0469 58.9395 68.8594 59.709 68.8594C61.1191 68.8594 61.8242 69.6055 61.8242 71.0977V75ZM60.8633 71.9648L59.416 72.1641C58.9707 72.2266 58.6348 72.3379 58.4082 72.498C58.1816 72.6543 58.0684 72.9336 58.0684 73.3359C58.0684 73.6289 58.1719 73.8691 58.3789 74.0566C58.5898 74.2402 58.8691 74.332 59.2168 74.332C59.6934 74.332 60.0859 74.166 60.3945 73.834C60.707 73.498 60.8633 73.0742 60.8633 72.5625V71.9648ZM66.7637 69.9727C66.5957 69.8438 66.3535 69.7793 66.0371 69.7793C65.627 69.7793 65.2832 69.9727 65.0059 70.3594C64.7324 70.7461 64.5957 71.2734 64.5957 71.9414V75H63.6348V69H64.5957V70.2363H64.6191C64.7559 69.8145 64.9648 69.4863 65.2461 69.252C65.5273 69.0137 65.8418 68.8945 66.1895 68.8945C66.4395 68.8945 66.6309 68.9219 66.7637 68.9766V69.9727ZM68.2988 67.4766C68.127 67.4766 67.9805 67.418 67.8594 67.3008C67.7383 67.1836 67.6777 67.0352 67.6777 66.8555C67.6777 66.6758 67.7383 66.5273 67.8594 66.4102C67.9805 66.2891 68.127 66.2285 68.2988 66.2285C68.4746 66.2285 68.623 66.2891 68.7441 66.4102C68.8691 66.5273 68.9316 66.6758 68.9316 66.8555C68.9316 67.0273 68.8691 67.1738 68.7441 67.2949C68.623 67.416 68.4746 67.4766 68.2988 67.4766ZM68.7676 75H67.8066V69H68.7676V75ZM73.4961 74.9414C73.2695 75.0664 72.9707 75.1289 72.5996 75.1289C71.5488 75.1289 71.0234 74.543 71.0234 73.3711V69.8203H69.9922V69H71.0234V67.5352L71.9844 67.2246V69H73.4961V69.8203H71.9844V73.2012C71.9844 73.6035 72.0527 73.8906 72.1895 74.0625C72.3262 74.2344 72.5527 74.3203 72.8691 74.3203C73.1113 74.3203 73.3203 74.2539 73.4961 74.1211V74.9414ZM79.5547 69L76.7949 75.9609C76.3027 77.2031 75.6113 77.8242 74.7207 77.8242C74.4707 77.8242 74.2617 77.7988 74.0938 77.748V76.8867C74.3008 76.957 74.4902 76.9922 74.6621 76.9922C75.1465 76.9922 75.5098 76.7031 75.752 76.125L76.2324 74.9883L73.8887 69H74.9551L76.5781 73.6172C76.5977 73.6758 76.6387 73.8281 76.7012 74.0742H76.7363C76.7559 73.9805 76.7949 73.832 76.8535 73.6289L78.5586 69H79.5547ZM88.8652 75H87.5176L84.8691 72.1172H84.8457V75H83.8848V66.1172H84.8457V71.748H84.8691L87.3887 69H88.6484L85.8652 71.8945L88.8652 75ZM94.1445 75H93.1836V74.0625H93.1602C92.7422 74.7812 92.127 75.1406 91.3145 75.1406C90.7168 75.1406 90.248 74.9824 89.9082 74.666C89.5723 74.3496 89.4043 73.9297 89.4043 73.4062C89.4043 72.2852 90.0645 71.6328 91.3848 71.4492L93.1836 71.1973C93.1836 70.1777 92.7715 69.668 91.9473 69.668C91.2246 69.668 90.5723 69.9141 89.9902 70.4062V69.4219C90.5801 69.0469 91.2598 68.8594 92.0293 68.8594C93.4395 68.8594 94.1445 69.6055 94.1445 71.0977V75ZM93.1836 71.9648L91.7363 72.1641C91.291 72.2266 90.9551 72.3379 90.7285 72.498C90.502 72.6543 90.3887 72.9336 90.3887 73.3359C90.3887 73.6289 90.4922 73.8691 90.6992 74.0566C90.9102 74.2402 91.1895 74.332 91.5371 74.332C92.0137 74.332 92.4062 74.166 92.7148 73.834C93.0273 73.498 93.1836 73.0742 93.1836 72.5625V71.9648ZM100.936 75H99.9746V71.5781C99.9746 70.3047 99.5098 69.668 98.5801 69.668C98.0996 69.668 97.7012 69.8496 97.3848 70.2129C97.0723 70.5723 96.916 71.0273 96.916 71.5781V75H95.9551V69H96.916V69.9961H96.9395C97.3926 69.2383 98.0488 68.8594 98.9082 68.8594C99.5645 68.8594 100.066 69.0723 100.414 69.498C100.762 69.9199 100.936 70.5312 100.936 71.332V75ZM38.6211 90.1328H38.5977V91H37.6367V82.1172H38.5977V86.0547H38.6211C39.0938 85.2578 39.7852 84.8594 40.6953 84.8594C41.4648 84.8594 42.0664 85.1289 42.5 85.668C42.9375 86.2031 43.1562 86.9219 43.1562 87.8242C43.1562 88.8281 42.9121 89.6328 42.4238 90.2383C41.9355 90.8398 41.2676 91.1406 40.4199 91.1406C39.627 91.1406 39.0273 90.8047 38.6211 90.1328ZM38.5977 87.7129V88.5508C38.5977 89.0469 38.7578 89.4688 39.0781 89.8164C39.4023 90.1602 39.8125 90.332 40.3086 90.332C40.8906 90.332 41.3457 90.1094 41.6738 89.6641C42.0059 89.2188 42.1719 88.5996 42.1719 87.8066C42.1719 87.1387 42.0176 86.6152 41.709 86.2363C41.4004 85.8574 40.9824 85.668 40.4551 85.668C39.8965 85.668 39.4473 85.8633 39.1074 86.2539C38.7676 86.6406 38.5977 87.127 38.5977 87.7129ZM45.6523 91H44.6914V82.1172H45.6523V91ZM50.1055 91.1406C49.2188 91.1406 48.5098 90.8613 47.9785 90.3027C47.4512 89.7402 47.1875 88.9961 47.1875 88.0703C47.1875 87.0625 47.4629 86.2754 48.0137 85.709C48.5645 85.1426 49.3086 84.8594 50.2461 84.8594C51.1406 84.8594 51.8379 85.1348 52.3379 85.6855C52.8418 86.2363 53.0938 87 53.0938 87.9766C53.0938 88.9336 52.8223 89.7012 52.2793 90.2793C51.7402 90.8535 51.0156 91.1406 50.1055 91.1406ZM50.1758 85.668C49.5586 85.668 49.0703 85.8789 48.7109 86.3008C48.3516 86.7188 48.1719 87.2969 48.1719 88.0352C48.1719 88.7461 48.3535 89.3066 48.7168 89.7168C49.0801 90.127 49.5664 90.332 50.1758 90.332C50.7969 90.332 51.2734 90.1309 51.6055 89.7285C51.9414 89.3262 52.1094 88.7539 52.1094 88.0117C52.1094 87.2617 51.9414 86.6836 51.6055 86.2773C51.2734 85.8711 50.7969 85.668 50.1758 85.668ZM55.6133 90.1328H55.5898V91H54.6289V82.1172H55.5898V86.0547H55.6133C56.0859 85.2578 56.7773 84.8594 57.6875 84.8594C58.457 84.8594 59.0586 85.1289 59.4922 85.668C59.9297 86.2031 60.1484 86.9219 60.1484 87.8242C60.1484 88.8281 59.9043 89.6328 59.416 90.2383C58.9277 90.8398 58.2598 91.1406 57.4121 91.1406C56.6191 91.1406 56.0195 90.8047 55.6133 90.1328ZM55.5898 87.7129V88.5508C55.5898 89.0469 55.75 89.4688 56.0703 89.8164C56.3945 90.1602 56.8047 90.332 57.3008 90.332C57.8828 90.332 58.3379 90.1094 58.666 89.6641C58.998 89.2188 59.1641 88.5996 59.1641 87.8066C59.1641 87.1387 59.0098 86.6152 58.7012 86.2363C58.3926 85.8574 57.9746 85.668 57.4473 85.668C56.8887 85.668 56.4395 85.8633 56.0996 86.2539C55.7598 86.6406 55.5898 87.127 55.5898 87.7129ZM66.8047 90.5195C66.8047 92.7227 65.75 93.8242 63.6406 93.8242C62.8984 93.8242 62.25 93.6836 61.6953 93.4023V92.4414C62.3711 92.8164 63.0156 93.0039 63.6289 93.0039C65.1055 93.0039 65.8438 92.2188 65.8438 90.6484V89.9922H65.8203C65.3633 90.7578 64.6758 91.1406 63.7578 91.1406C63.0117 91.1406 62.4102 90.875 61.9531 90.3438C61.5 89.8086 61.2734 89.0918 61.2734 88.1934C61.2734 87.1738 61.5176 86.3633 62.0059 85.7617C62.498 85.1602 63.1699 84.8594 64.0215 84.8594C64.8301 84.8594 65.4297 85.1836 65.8203 85.832H65.8438V85H66.8047V90.5195ZM65.8438 88.2871V87.4023C65.8438 86.9258 65.6816 86.5176 65.3574 86.1777C65.0371 85.8379 64.6367 85.668 64.1562 85.668C63.5625 85.668 63.0977 85.8848 62.7617 86.3184C62.4258 86.748 62.2578 87.3516 62.2578 88.1289C62.2578 88.7969 62.418 89.332 62.7383 89.7344C63.0625 90.1328 63.4902 90.332 64.0215 90.332C64.5605 90.332 64.998 90.1406 65.334 89.7578C65.6738 89.375 65.8438 88.8848 65.8438 88.2871ZM73.5723 88.2402H69.3359C69.3516 88.9082 69.5312 89.4238 69.875 89.7871C70.2188 90.1504 70.6914 90.332 71.293 90.332C71.9688 90.332 72.5898 90.1094 73.1562 89.6641V90.5664C72.6289 90.9492 71.9316 91.1406 71.0645 91.1406C70.2168 91.1406 69.5508 90.8691 69.0664 90.3262C68.582 89.7793 68.3398 89.0117 68.3398 88.0234C68.3398 87.0898 68.6035 86.3301 69.1309 85.7441C69.6621 85.1543 70.3203 84.8594 71.1055 84.8594C71.8906 84.8594 72.498 85.1133 72.9277 85.6211C73.3574 86.1289 73.5723 86.834 73.5723 87.7363V88.2402ZM72.5879 87.4258C72.584 86.8711 72.4492 86.4395 72.1836 86.1309C71.9219 85.8223 71.5566 85.668 71.0879 85.668C70.6348 85.668 70.25 85.8301 69.9336 86.1543C69.6172 86.4785 69.4219 86.9023 69.3477 87.4258H72.5879ZM80.1523 90.5195C80.1523 92.7227 79.0977 93.8242 76.9883 93.8242C76.2461 93.8242 75.5977 93.6836 75.043 93.4023V92.4414C75.7188 92.8164 76.3633 93.0039 76.9766 93.0039C78.4531 93.0039 79.1914 92.2188 79.1914 90.6484V89.9922H79.168C78.7109 90.7578 78.0234 91.1406 77.1055 91.1406C76.3594 91.1406 75.7578 90.875 75.3008 90.3438C74.8477 89.8086 74.6211 89.0918 74.6211 88.1934C74.6211 87.1738 74.8652 86.3633 75.3535 85.7617C75.8457 85.1602 76.5176 84.8594 77.3691 84.8594C78.1777 84.8594 78.7773 85.1836 79.168 85.832H79.1914V85H80.1523V90.5195ZM79.1914 88.2871V87.4023C79.1914 86.9258 79.0293 86.5176 78.7051 86.1777C78.3848 85.8379 77.9844 85.668 77.5039 85.668C76.9102 85.668 76.4453 85.8848 76.1094 86.3184C75.7734 86.748 75.6055 87.3516 75.6055 88.1289C75.6055 88.7969 75.7656 89.332 76.0859 89.7344C76.4102 90.1328 76.8379 90.332 77.3691 90.332C77.9082 90.332 78.3457 90.1406 78.6816 89.7578C79.0215 89.375 79.1914 88.8848 79.1914 88.2871ZM86.9199 88.2402H82.6836C82.6992 88.9082 82.8789 89.4238 83.2227 89.7871C83.5664 90.1504 84.0391 90.332 84.6406 90.332C85.3164 90.332 85.9375 90.1094 86.5039 89.6641V90.5664C85.9766 90.9492 85.2793 91.1406 84.4121 91.1406C83.5645 91.1406 82.8984 90.8691 82.4141 90.3262C81.9297 89.7793 81.6875 89.0117 81.6875 88.0234C81.6875 87.0898 81.9512 86.3301 82.4785 85.7441C83.0098 85.1543 83.668 84.8594 84.4531 84.8594C85.2383 84.8594 85.8457 85.1133 86.2754 85.6211C86.7051 86.1289 86.9199 86.834 86.9199 87.7363V88.2402ZM85.9355 87.4258C85.9316 86.8711 85.7969 86.4395 85.5312 86.1309C85.2695 85.8223 84.9043 85.668 84.4355 85.668C83.9824 85.668 83.5977 85.8301 83.2812 86.1543C82.9648 86.4785 82.7695 86.9023 82.6953 87.4258H85.9355ZM93.0957 85L90.7051 91H89.7617L87.4883 85H88.543L90.0664 89.3594C90.1797 89.6797 90.25 89.959 90.2773 90.1973H90.3008C90.3398 89.8965 90.4023 89.625 90.4883 89.3828L92.082 85H93.0957ZM98.9551 88.2402H94.7188C94.7344 88.9082 94.9141 89.4238 95.2578 89.7871C95.6016 90.1504 96.0742 90.332 96.6758 90.332C97.3516 90.332 97.9727 90.1094 98.5391 89.6641V90.5664C98.0117 90.9492 97.3145 91.1406 96.4473 91.1406C95.5996 91.1406 94.9336 90.8691 94.4492 90.3262C93.9648 89.7793 93.7227 89.0117 93.7227 88.0234C93.7227 87.0898 93.9863 86.3301 94.5137 85.7441C95.0449 85.1543 95.7031 84.8594 96.4883 84.8594C97.2734 84.8594 97.8809 85.1133 98.3105 85.6211C98.7402 86.1289 98.9551 86.834 98.9551 87.7363V88.2402ZM97.9707 87.4258C97.9668 86.8711 97.832 86.4395 97.5664 86.1309C97.3047 85.8223 96.9395 85.668 96.4707 85.668C96.0176 85.668 95.6328 85.8301 95.3164 86.1543C95 86.4785 94.8047 86.9023 94.7305 87.4258H97.9707ZM105.395 91H104.434V87.5781C104.434 86.3047 103.969 85.668 103.039 85.668C102.559 85.668 102.16 85.8496 101.844 86.2129C101.531 86.5723 101.375 87.0273 101.375 87.5781V91H100.414V85H101.375V85.9961H101.398C101.852 85.2383 102.508 84.8594 103.367 84.8594C104.023 84.8594 104.525 85.0723 104.873 85.498C105.221 85.9199 105.395 86.5312 105.395 87.332V91ZM106.848 90.7832V89.752C107.371 90.1387 107.947 90.332 108.576 90.332C109.42 90.332 109.842 90.0508 109.842 89.4883C109.842 89.3281 109.805 89.1934 109.73 89.084C109.66 88.9707 109.562 88.8711 109.438 88.7852C109.316 88.6992 109.172 88.623 109.004 88.5566C108.84 88.4863 108.662 88.4141 108.471 88.3398C108.205 88.2344 107.971 88.1289 107.768 88.0234C107.568 87.9141 107.4 87.793 107.264 87.6602C107.131 87.5234 107.029 87.3691 106.959 87.1973C106.893 87.0254 106.859 86.8242 106.859 86.5938C106.859 86.3125 106.924 86.0645 107.053 85.8496C107.182 85.6309 107.354 85.4492 107.568 85.3047C107.783 85.1562 108.027 85.0449 108.301 84.9707C108.578 84.8965 108.863 84.8594 109.156 84.8594C109.676 84.8594 110.141 84.9492 110.551 85.1289V86.1016C110.109 85.8125 109.602 85.668 109.027 85.668C108.848 85.668 108.686 85.6895 108.541 85.7324C108.396 85.7715 108.271 85.8281 108.166 85.9023C108.064 85.9766 107.984 86.0664 107.926 86.1719C107.871 86.2734 107.844 86.3867 107.844 86.5117C107.844 86.668 107.871 86.7988 107.926 86.9043C107.984 87.0098 108.068 87.1035 108.178 87.1855C108.287 87.2676 108.42 87.3418 108.576 87.4082C108.732 87.4746 108.91 87.5469 109.109 87.625C109.375 87.7266 109.613 87.832 109.824 87.9414C110.035 88.0469 110.215 88.168 110.363 88.3047C110.512 88.4375 110.625 88.5918 110.703 88.7676C110.785 88.9434 110.826 89.1523 110.826 89.3945C110.826 89.6914 110.76 89.9492 110.627 90.168C110.498 90.3867 110.324 90.5684 110.105 90.7129C109.887 90.8574 109.635 90.9648 109.35 91.0352C109.064 91.1055 108.766 91.1406 108.453 91.1406C107.836 91.1406 107.301 91.0215 106.848 90.7832ZM54.4355 107H53.4746V103.578C53.4746 102.305 53.0098 101.668 52.0801 101.668C51.5996 101.668 51.2012 101.85 50.8848 102.213C50.5723 102.572 50.416 103.027 50.416 103.578V107H49.4551V101H50.416V101.996H50.4395C50.8926 101.238 51.5488 100.859 52.4082 100.859C53.0645 100.859 53.5664 101.072 53.9141 101.498C54.2617 101.92 54.4355 102.531 54.4355 103.332V107ZM56.7441 99.4766C56.5723 99.4766 56.4258 99.418 56.3047 99.3008C56.1836 99.1836 56.123 99.0352 56.123 98.8555C56.123 98.6758 56.1836 98.5273 56.3047 98.4102C56.4258 98.2891 56.5723 98.2285 56.7441 98.2285C56.9199 98.2285 57.0684 98.2891 57.1895 98.4102C57.3145 98.5273 57.377 98.6758 57.377 98.8555C57.377 99.0273 57.3145 99.1738 57.1895 99.2949C57.0684 99.416 56.9199 99.4766 56.7441 99.4766ZM57.2129 107H56.252V101H57.2129V107ZM63.9805 104.24H59.7441C59.7598 104.908 59.9395 105.424 60.2832 105.787C60.627 106.15 61.0996 106.332 61.7012 106.332C62.377 106.332 62.998 106.109 63.5645 105.664V106.566C63.0371 106.949 62.3398 107.141 61.4727 107.141C60.625 107.141 59.959 106.869 59.4746 106.326C58.9902 105.779 58.748 105.012 58.748 104.023C58.748 103.09 59.0117 102.33 59.5391 101.744C60.0703 101.154 60.7285 100.859 61.5137 100.859C62.2988 100.859 62.9062 101.113 63.3359 101.621C63.7656 102.129 63.9805 102.834 63.9805 103.736V104.24ZM62.9961 103.426C62.9922 102.871 62.8574 102.439 62.5918 102.131C62.3301 101.822 61.9648 101.668 61.4961 101.668C61.043 101.668 60.6582 101.83 60.3418 102.154C60.0254 102.479 59.8301 102.902 59.7559 103.426H62.9961ZM68.2227 106.941C67.9961 107.066 67.6973 107.129 67.3262 107.129C66.2754 107.129 65.75 106.543 65.75 105.371V101.82H64.7188V101H65.75V99.5352L66.7109 99.2246V101H68.2227V101.82H66.7109V105.201C66.7109 105.604 66.7793 105.891 66.916 106.062C67.0527 106.234 67.2793 106.32 67.5957 106.32C67.8379 106.32 68.0469 106.254 68.2227 106.121V106.941ZM73.7598 107H72.7988V98.1172H73.7598V107ZM80.5273 104.24H76.291C76.3066 104.908 76.4863 105.424 76.8301 105.787C77.1738 106.15 77.6465 106.332 78.248 106.332C78.9238 106.332 79.5449 106.109 80.1113 105.664V106.566C79.584 106.949 78.8867 107.141 78.0195 107.141C77.1719 107.141 76.5059 106.869 76.0215 106.326C75.5371 105.779 75.2949 105.012 75.2949 104.023C75.2949 103.09 75.5586 102.33 76.0859 101.744C76.6172 101.154 77.2754 100.859 78.0605 100.859C78.8457 100.859 79.4531 101.113 79.8828 101.621C80.3125 102.129 80.5273 102.834 80.5273 103.736V104.24ZM79.543 103.426C79.5391 102.871 79.4043 102.439 79.1387 102.131C78.877 101.822 78.5117 101.668 78.043 101.668C77.5898 101.668 77.2051 101.83 76.8887 102.154C76.5723 102.479 76.377 102.902 76.3027 103.426H79.543ZM86.1699 101.275L82.6191 106.18H86.1348V107H81.207V106.701L84.7578 101.82H81.541V101H86.1699V101.275ZM92.2344 104.24H87.998C88.0137 104.908 88.1934 105.424 88.5371 105.787C88.8809 106.15 89.3535 106.332 89.9551 106.332C90.6309 106.332 91.252 106.109 91.8184 105.664V106.566C91.291 106.949 90.5938 107.141 89.7266 107.141C88.8789 107.141 88.2129 106.869 87.7285 106.326C87.2441 105.779 87.002 105.012 87.002 104.023C87.002 103.09 87.2656 102.33 87.793 101.744C88.3242 101.154 88.9824 100.859 89.7676 100.859C90.5527 100.859 91.1602 101.113 91.5898 101.621C92.0195 102.129 92.2344 102.834 92.2344 103.736V104.24ZM91.25 103.426C91.2461 102.871 91.1113 102.439 90.8457 102.131C90.584 101.822 90.2188 101.668 89.75 101.668C89.2969 101.668 88.9121 101.83 88.5957 102.154C88.2793 102.479 88.084 102.902 88.0098 103.426H91.25ZM98.6738 107H97.7129V103.578C97.7129 102.305 97.248 101.668 96.3184 101.668C95.8379 101.668 95.4395 101.85 95.123 102.213C94.8105 102.572 94.6543 103.027 94.6543 103.578V107H93.6934V101H94.6543V101.996H94.6777C95.1309 101.238 95.7871 100.859 96.6465 100.859C97.3027 100.859 97.8047 101.072 98.1523 101.498C98.5 101.92 98.6738 102.531 98.6738 103.332V107Z" fill="#020057"/>
</g>
<defs>
<filter id="filter0_dd_3872_62955" x="0.8" y="2.38419e-07" width="146.4" height="146.4" filterUnits="userSpaceOnUse" color-interpolation-filters="sRGB">
<feFlood flood-opacity="0" result="BackgroundImageFix"/>
<feColorMatrix in="SourceAlpha" type="matrix" values="0 0 0 0 0 0 0 0 0 0 0 0 0 0 0 0 0 0 127 0" result="hardAlpha"/>
<feOffset dy="3.2"/>
<feGaussianBlur stdDeviation="3.6"/>
<feColorMatrix type="matrix" values="0 0 0 0 0.513726 0 0 0 0 0.494118 0 0 0 0 1 0 0 0 0.12 0"/>
<feBlend mode="normal" in2="BackgroundImageFix" result="effect1_dropShadow_3872_62955"/>
<feColorMatrix in="SourceAlpha" type="matrix" values="0 0 0 0 0 0 0 0 0 0 0 0 0 0 0 0 0 0 127 0" result="hardAlpha"/>
<feOffset dy="0.6"/>
<feGaussianBlur stdDeviation="0.9"/>
<feColorMatrix type="matrix" values="0 0 0 0 0.513726 0 0 0 0 0.494118 0 0 0 0 1 0 0 0 0.1 0"/>
<feBlend mode="normal" in2="effect1_dropShadow_3872_62955" result="effect2_dropShadow_3872_62955"/>
<feBlend mode="normal" in="SourceGraphic" in2="effect2_dropShadow_3872_62955" result="shape"/>
</filter>
</defs>
</svg>
