<svg width="100%" viewBox="0 0 148 147" fill="none" xmlns="http://www.w3.org/2000/svg">
<g filter="url(#filter0_dd_3872_62948)">
<rect x="8" y="4" width="132" height="132" fill="#FBFBFE"/>
<rect x="8.5" y="4.5" width="131" height="131" stroke="#827DFF" stroke-dasharray="4 4"/>
<rect width="100" height="80" transform="translate(24 30)" fill="#FBFBFE"/>
<path d="M79.75 41C81.5449 41 83 42.4551 83 44.25V55.75C83 57.5449 81.5449 59 79.75 59H68.25C66.4551 59 65 57.5449 65 55.75V44.25C65 42.4551 66.4551 41 68.25 41H79.75ZM80.3305 57.4014L74.5247 51.7148C74.2596 51.4553 73.8501 51.4316 73.5588 51.644L73.4752 51.7148L67.6685 57.4011C67.8504 57.4651 68.0461 57.5 68.25 57.5H79.75C79.9535 57.5 80.1489 57.4653 80.3305 57.4014L74.5247 51.7148L80.3305 57.4014ZM79.75 42.5H68.25C67.2835 42.5 66.5 43.2835 66.5 44.25V55.75C66.5 55.9584 66.5364 56.1583 66.6033 56.3437L72.4258 50.643C73.2589 49.8273 74.5675 49.7885 75.4458 50.5266L75.5742 50.6431L81.3964 56.3447C81.4634 56.159 81.5 55.9588 81.5 55.75V44.25C81.5 43.2835 80.7165 42.5 79.75 42.5ZM77.2521 44.5C78.4959 44.5 79.5042 45.5083 79.5042 46.7521C79.5042 47.9959 78.4959 49.0042 77.2521 49.0042C76.0083 49.0042 75 47.9959 75 46.7521C75 45.5083 76.0083 44.5 77.2521 44.5ZM77.2521 46C76.8367 46 76.5 46.3367 76.5 46.7521C76.5 47.1675 76.8367 47.5042 77.2521 47.5042C77.6675 47.5042 78.0042 47.1675 78.0042 46.7521C78.0042 46.3367 77.6675 46 77.2521 46Z" fill="#020057"/>
<path d="M49.8418 82.6484C49.2207 82.9766 48.4473 83.1406 47.5215 83.1406C46.3262 83.1406 45.3691 82.7559 44.6504 81.9863C43.9316 81.2168 43.5723 80.207 43.5723 78.957C43.5723 77.6133 43.9766 76.5273 44.7852 75.6992C45.5938 74.8711 46.6191 74.457 47.8613 74.457C48.6582 74.457 49.3184 74.5723 49.8418 74.8027V75.8516C49.2402 75.5156 48.5762 75.3477 47.8496 75.3477C46.8848 75.3477 46.1016 75.6699 45.5 76.3145C44.9023 76.959 44.6035 77.8203 44.6035 78.8984C44.6035 79.9219 44.8828 80.7383 45.4414 81.3477C46.0039 81.9531 46.7402 82.2559 47.6504 82.2559C48.4941 82.2559 49.2246 82.0684 49.8418 81.6934V82.6484ZM52.3848 83H51.4238V74.1172H52.3848V83ZM58.625 83H57.6641V82.0625H57.6406C57.2227 82.7812 56.6074 83.1406 55.7949 83.1406C55.1973 83.1406 54.7285 82.9824 54.3887 82.666C54.0527 82.3496 53.8848 81.9297 53.8848 81.4062C53.8848 80.2852 54.5449 79.6328 55.8652 79.4492L57.6641 79.1973C57.6641 78.1777 57.252 77.668 56.4277 77.668C55.7051 77.668 55.0527 77.9141 54.4707 78.4062V77.4219C55.0605 77.0469 55.7402 76.8594 56.5098 76.8594C57.9199 76.8594 58.625 77.6055 58.625 79.0977V83ZM57.6641 79.9648L56.2168 80.1641C55.7715 80.2266 55.4355 80.3379 55.209 80.498C54.9824 80.6543 54.8691 80.9336 54.8691 81.3359C54.8691 81.6289 54.9727 81.8691 55.1797 82.0566C55.3906 82.2402 55.6699 82.332 56.0176 82.332C56.4941 82.332 56.8867 82.166 57.1953 81.834C57.5078 81.498 57.6641 81.0742 57.6641 80.5625V79.9648ZM63.5645 77.9727C63.3965 77.8438 63.1543 77.7793 62.8379 77.7793C62.4277 77.7793 62.084 77.9727 61.8066 78.3594C61.5332 78.7461 61.3965 79.2734 61.3965 79.9414V83H60.4355V77H61.3965V78.2363H61.4199C61.5566 77.8145 61.7656 77.4863 62.0469 77.252C62.3281 77.0137 62.6426 76.8945 62.9902 76.8945C63.2402 76.8945 63.4316 76.9219 63.5645 76.9766V77.9727ZM65.0996 75.4766C64.9277 75.4766 64.7812 75.418 64.6602 75.3008C64.5391 75.1836 64.4785 75.0352 64.4785 74.8555C64.4785 74.6758 64.5391 74.5273 64.6602 74.4102C64.7812 74.2891 64.9277 74.2285 65.0996 74.2285C65.2754 74.2285 65.4238 74.2891 65.5449 74.4102C65.6699 74.5273 65.7324 74.6758 65.7324 74.8555C65.7324 75.0273 65.6699 75.1738 65.5449 75.2949C65.4238 75.416 65.2754 75.4766 65.0996 75.4766ZM65.5684 83H64.6074V77H65.5684V83ZM70.2969 82.9414C70.0703 83.0664 69.7715 83.1289 69.4004 83.1289C68.3496 83.1289 67.8242 82.543 67.8242 81.3711V77.8203H66.793V77H67.8242V75.5352L68.7852 75.2246V77H70.2969V77.8203H68.7852V81.2012C68.7852 81.6035 68.8535 81.8906 68.9902 82.0625C69.127 82.2344 69.3535 82.3203 69.6699 82.3203C69.9121 82.3203 70.1211 82.2539 70.2969 82.1211V82.9414ZM76.3555 77L73.5957 83.9609C73.1035 85.2031 72.4121 85.8242 71.5215 85.8242C71.2715 85.8242 71.0625 85.7988 70.8945 85.748V84.8867C71.1016 84.957 71.291 84.9922 71.4629 84.9922C71.9473 84.9922 72.3105 84.7031 72.5527 84.125L73.0332 82.9883L70.6895 77H71.7559L73.3789 81.6172C73.3984 81.6758 73.4395 81.8281 73.502 82.0742H73.5371C73.5566 81.9805 73.5957 81.832 73.6543 81.6289L75.3594 77H76.3555ZM84.7754 82.7246C84.3145 83.002 83.7676 83.1406 83.1348 83.1406C82.2793 83.1406 81.5879 82.8633 81.0605 82.3086C80.5371 81.75 80.2754 81.0273 80.2754 80.1406C80.2754 79.1523 80.5586 78.3594 81.125 77.7617C81.6914 77.1602 82.4473 76.8594 83.3926 76.8594C83.9199 76.8594 84.3848 76.957 84.7871 77.1523V78.1367C84.3418 77.8242 83.8652 77.668 83.3574 77.668C82.7441 77.668 82.2402 77.8887 81.8457 78.3301C81.4551 78.7676 81.2598 79.3438 81.2598 80.0586C81.2598 80.7617 81.4434 81.3164 81.8105 81.7227C82.1816 82.1289 82.6777 82.332 83.2988 82.332C83.8223 82.332 84.3145 82.1582 84.7754 81.8105V82.7246ZM90.5234 83H89.5625V82.0625H89.5391C89.1211 82.7812 88.5059 83.1406 87.6934 83.1406C87.0957 83.1406 86.627 82.9824 86.2871 82.666C85.9512 82.3496 85.7832 81.9297 85.7832 81.4062C85.7832 80.2852 86.4434 79.6328 87.7637 79.4492L89.5625 79.1973C89.5625 78.1777 89.1504 77.668 88.3262 77.668C87.6035 77.668 86.9512 77.9141 86.3691 78.4062V77.4219C86.959 77.0469 87.6387 76.8594 88.4082 76.8594C89.8184 76.8594 90.5234 77.6055 90.5234 79.0977V83ZM89.5625 79.9648L88.1152 80.1641C87.6699 80.2266 87.334 80.3379 87.1074 80.498C86.8809 80.6543 86.7676 80.9336 86.7676 81.3359C86.7676 81.6289 86.8711 81.8691 87.0781 82.0566C87.2891 82.2402 87.5684 82.332 87.916 82.332C88.3926 82.332 88.7852 82.166 89.0938 81.834C89.4062 81.498 89.5625 81.0742 89.5625 80.5625V79.9648ZM97.3145 83H96.3535V79.5781C96.3535 78.3047 95.8887 77.668 94.959 77.668C94.4785 77.668 94.0801 77.8496 93.7637 78.2129C93.4512 78.5723 93.2949 79.0273 93.2949 79.5781V83H92.334V77H93.2949V77.9961H93.3184C93.7715 77.2383 94.4277 76.8594 95.2871 76.8594C95.9434 76.8594 96.4453 77.0723 96.793 77.498C97.1406 77.9199 97.3145 78.5312 97.3145 79.332V83ZM100.314 74.457L99.4941 77.0703H98.8027L99.4531 74.457H100.314ZM104.668 82.9414C104.441 83.0664 104.143 83.1289 103.771 83.1289C102.721 83.1289 102.195 82.543 102.195 81.3711V77.8203H101.164V77H102.195V75.5352L103.156 75.2246V77H104.668V77.8203H103.156V81.2012C103.156 81.6035 103.225 81.8906 103.361 82.0625C103.498 82.2344 103.725 82.3203 104.041 82.3203C104.283 82.3203 104.492 82.2539 104.668 82.1211V82.9414ZM39.3887 93.9727C39.2207 93.8438 38.9785 93.7793 38.6621 93.7793C38.252 93.7793 37.9082 93.9727 37.6309 94.3594C37.3574 94.7461 37.2207 95.2734 37.2207 95.9414V99H36.2598V93H37.2207V94.2363H37.2441C37.3809 93.8145 37.5898 93.4863 37.8711 93.252C38.1523 93.0137 38.4668 92.8945 38.8145 92.8945C39.0645 92.8945 39.2559 92.9219 39.3887 92.9766V93.9727ZM45.2539 96.2402H41.0176C41.0332 96.9082 41.2129 97.4238 41.5566 97.7871C41.9004 98.1504 42.373 98.332 42.9746 98.332C43.6504 98.332 44.2715 98.1094 44.8379 97.6641V98.5664C44.3105 98.9492 43.6133 99.1406 42.7461 99.1406C41.8984 99.1406 41.2324 98.8691 40.748 98.3262C40.2637 97.7793 40.0215 97.0117 40.0215 96.0234C40.0215 95.0898 40.2852 94.3301 40.8125 93.7441C41.3438 93.1543 42.002 92.8594 42.7871 92.8594C43.5723 92.8594 44.1797 93.1133 44.6094 93.6211C45.0391 94.1289 45.2539 94.834 45.2539 95.7363V96.2402ZM44.2695 95.4258C44.2656 94.8711 44.1309 94.4395 43.8652 94.1309C43.6035 93.8223 43.2383 93.668 42.7695 93.668C42.3164 93.668 41.9316 93.8301 41.6152 94.1543C41.2988 94.4785 41.1035 94.9023 41.0293 95.4258H44.2695ZM51.0078 99H50.0469V98.0625H50.0234C49.6055 98.7812 48.9902 99.1406 48.1777 99.1406C47.5801 99.1406 47.1113 98.9824 46.7715 98.666C46.4355 98.3496 46.2676 97.9297 46.2676 97.4062C46.2676 96.2852 46.9277 95.6328 48.248 95.4492L50.0469 95.1973C50.0469 94.1777 49.6348 93.668 48.8105 93.668C48.0879 93.668 47.4355 93.9141 46.8535 94.4062V93.4219C47.4434 93.0469 48.123 92.8594 48.8926 92.8594C50.3027 92.8594 51.0078 93.6055 51.0078 95.0977V99ZM50.0469 95.9648L48.5996 96.1641C48.1543 96.2266 47.8184 96.3379 47.5918 96.498C47.3652 96.6543 47.252 96.9336 47.252 97.3359C47.252 97.6289 47.3555 97.8691 47.5625 98.0566C47.7734 98.2402 48.0527 98.332 48.4004 98.332C48.877 98.332 49.2695 98.166 49.5781 97.834C49.8906 97.498 50.0469 97.0742 50.0469 96.5625V95.9648ZM57.9395 99H56.9785V97.9805H56.9551C56.5098 98.7539 55.8223 99.1406 54.8926 99.1406C54.1387 99.1406 53.5352 98.873 53.082 98.3379C52.6328 97.7988 52.4082 97.0664 52.4082 96.1406C52.4082 95.1484 52.6582 94.3535 53.1582 93.7559C53.6582 93.1582 54.3242 92.8594 55.1562 92.8594C55.9805 92.8594 56.5801 93.1836 56.9551 93.832H56.9785V90.1172H57.9395V99ZM56.9785 96.2871V95.4023C56.9785 94.918 56.8184 94.5078 56.498 94.1719C56.1777 93.8359 55.7715 93.668 55.2793 93.668C54.6934 93.668 54.2324 93.8828 53.8965 94.3125C53.5605 94.7422 53.3926 95.3359 53.3926 96.0938C53.3926 96.7852 53.5527 97.332 53.873 97.7344C54.1973 98.1328 54.6309 98.332 55.1738 98.332C55.709 98.332 56.1426 98.1387 56.4746 97.752C56.8105 97.3652 56.9785 96.877 56.9785 96.2871ZM63.3066 99V90.5977H65.6973C66.4238 90.5977 67 90.7754 67.4258 91.1309C67.8516 91.4863 68.0645 91.9492 68.0645 92.5195C68.0645 92.9961 67.9355 93.4102 67.6777 93.7617C67.4199 94.1133 67.0645 94.3633 66.6113 94.5117V94.5352C67.1777 94.6016 67.6309 94.8164 67.9707 95.1797C68.3105 95.5391 68.4805 96.0078 68.4805 96.5859C68.4805 97.3047 68.2227 97.8867 67.707 98.332C67.1914 98.7773 66.541 99 65.7559 99H63.3066ZM64.291 91.4883V94.2012H65.2988C65.8379 94.2012 66.2617 94.0723 66.5703 93.8145C66.8789 93.5527 67.0332 93.1855 67.0332 92.7129C67.0332 91.8965 66.4961 91.4883 65.4219 91.4883H64.291ZM64.291 95.0859V98.1094H65.627C66.2051 98.1094 66.6523 97.9727 66.9688 97.6992C67.2891 97.4258 67.4492 97.0508 67.4492 96.5742C67.4492 95.582 66.7734 95.0859 65.4219 95.0859H64.291ZM71.0176 99H70.0566V90.1172H71.0176V99ZM75.4707 99.1406C74.584 99.1406 73.875 98.8613 73.3438 98.3027C72.8164 97.7402 72.5527 96.9961 72.5527 96.0703C72.5527 95.0625 72.8281 94.2754 73.3789 93.709C73.9297 93.1426 74.6738 92.8594 75.6113 92.8594C76.5059 92.8594 77.2031 93.1348 77.7031 93.6855C78.207 94.2363 78.459 95 78.459 95.9766C78.459 96.9336 78.1875 97.7012 77.6445 98.2793C77.1055 98.8535 76.3809 99.1406 75.4707 99.1406ZM75.541 93.668C74.9238 93.668 74.4355 93.8789 74.0762 94.3008C73.7168 94.7188 73.5371 95.2969 73.5371 96.0352C73.5371 96.7461 73.7188 97.3066 74.082 97.7168C74.4453 98.127 74.9316 98.332 75.541 98.332C76.1621 98.332 76.6387 98.1309 76.9707 97.7285C77.3066 97.3262 77.4746 96.7539 77.4746 96.0117C77.4746 95.2617 77.3066 94.6836 76.9707 94.2773C76.6387 93.8711 76.1621 93.668 75.541 93.668ZM80.9785 98.1328H80.9551V99H79.9941V90.1172H80.9551V94.0547H80.9785C81.4512 93.2578 82.1426 92.8594 83.0527 92.8594C83.8223 92.8594 84.4238 93.1289 84.8574 93.668C85.2949 94.2031 85.5137 94.9219 85.5137 95.8242C85.5137 96.8281 85.2695 97.6328 84.7812 98.2383C84.293 98.8398 83.625 99.1406 82.7773 99.1406C81.9844 99.1406 81.3848 98.8047 80.9785 98.1328ZM80.9551 95.7129V96.5508C80.9551 97.0469 81.1152 97.4688 81.4355 97.8164C81.7598 98.1602 82.1699 98.332 82.666 98.332C83.248 98.332 83.7031 98.1094 84.0312 97.6641C84.3633 97.2188 84.5293 96.5996 84.5293 95.8066C84.5293 95.1387 84.375 94.6152 84.0664 94.2363C83.7578 93.8574 83.3398 93.668 82.8125 93.668C82.2539 93.668 81.8047 93.8633 81.4648 94.2539C81.125 94.6406 80.9551 95.127 80.9551 95.7129ZM95.4629 99H94.502V97.9805H94.4785C94.0332 98.7539 93.3457 99.1406 92.416 99.1406C91.6621 99.1406 91.0586 98.873 90.6055 98.3379C90.1562 97.7988 89.9316 97.0664 89.9316 96.1406C89.9316 95.1484 90.1816 94.3535 90.6816 93.7559C91.1816 93.1582 91.8477 92.8594 92.6797 92.8594C93.5039 92.8594 94.1035 93.1836 94.4785 93.832H94.502V90.1172H95.4629V99ZM94.502 96.2871V95.4023C94.502 94.918 94.3418 94.5078 94.0215 94.1719C93.7012 93.8359 93.2949 93.668 92.8027 93.668C92.2168 93.668 91.7559 93.8828 91.4199 94.3125C91.084 94.7422 90.916 95.3359 90.916 96.0938C90.916 96.7852 91.0762 97.332 91.3965 97.7344C91.7207 98.1328 92.1543 98.332 92.6973 98.332C93.2324 98.332 93.666 98.1387 93.998 97.752C94.334 97.3652 94.502 96.877 94.502 96.2871ZM101.703 99H100.742V98.0625H100.719C100.301 98.7812 99.6855 99.1406 98.873 99.1406C98.2754 99.1406 97.8066 98.9824 97.4668 98.666C97.1309 98.3496 96.9629 97.9297 96.9629 97.4062C96.9629 96.2852 97.623 95.6328 98.9434 95.4492L100.742 95.1973C100.742 94.1777 100.33 93.668 99.5059 93.668C98.7832 93.668 98.1309 93.9141 97.5488 94.4062V93.4219C98.1387 93.0469 98.8184 92.8594 99.5879 92.8594C100.998 92.8594 101.703 93.6055 101.703 95.0977V99ZM100.742 95.9648L99.2949 96.1641C98.8496 96.2266 98.5137 96.3379 98.2871 96.498C98.0605 96.6543 97.9473 96.9336 97.9473 97.3359C97.9473 97.6289 98.0508 97.8691 98.2578 98.0566C98.4688 98.2402 98.748 98.332 99.0957 98.332C99.5723 98.332 99.9648 98.166 100.273 97.834C100.586 97.498 100.742 97.0742 100.742 96.5625V95.9648ZM106.297 98.9414C106.07 99.0664 105.771 99.1289 105.4 99.1289C104.35 99.1289 103.824 98.543 103.824 97.3711V93.8203H102.793V93H103.824V91.5352L104.785 91.2246V93H106.297V93.8203H104.785V97.2012C104.785 97.6035 104.854 97.8906 104.99 98.0625C105.127 98.2344 105.354 98.3203 105.67 98.3203C105.912 98.3203 106.121 98.2539 106.297 98.1211V98.9414ZM111.875 99H110.914V98.0625H110.891C110.473 98.7812 109.857 99.1406 109.045 99.1406C108.447 99.1406 107.979 98.9824 107.639 98.666C107.303 98.3496 107.135 97.9297 107.135 97.4062C107.135 96.2852 107.795 95.6328 109.115 95.4492L110.914 95.1973C110.914 94.1777 110.502 93.668 109.678 93.668C108.955 93.668 108.303 93.9141 107.721 94.4062V93.4219C108.311 93.0469 108.99 92.8594 109.76 92.8594C111.17 92.8594 111.875 93.6055 111.875 95.0977V99ZM110.914 95.9648L109.467 96.1641C109.021 96.2266 108.686 96.3379 108.459 96.498C108.232 96.6543 108.119 96.9336 108.119 97.3359C108.119 97.6289 108.223 97.8691 108.43 98.0566C108.641 98.2402 108.92 98.332 109.268 98.332C109.744 98.332 110.137 98.166 110.445 97.834C110.758 97.498 110.914 97.0742 110.914 96.5625V95.9648Z" fill="#020057"/>
</g>
<defs>
<filter id="filter0_dd_3872_62948" x="0.8" y="2.38419e-07" width="146.4" height="146.4" filterUnits="userSpaceOnUse" color-interpolation-filters="sRGB">
<feFlood flood-opacity="0" result="BackgroundImageFix"/>
<feColorMatrix in="SourceAlpha" type="matrix" values="0 0 0 0 0 0 0 0 0 0 0 0 0 0 0 0 0 0 127 0" result="hardAlpha"/>
<feOffset dy="3.2"/>
<feGaussianBlur stdDeviation="3.6"/>
<feColorMatrix type="matrix" values="0 0 0 0 0.513726 0 0 0 0 0.494118 0 0 0 0 1 0 0 0 0.12 0"/>
<feBlend mode="normal" in2="BackgroundImageFix" result="effect1_dropShadow_3872_62948"/>
<feColorMatrix in="SourceAlpha" type="matrix" values="0 0 0 0 0 0 0 0 0 0 0 0 0 0 0 0 0 0 127 0" result="hardAlpha"/>
<feOffset dy="0.6"/>
<feGaussianBlur stdDeviation="0.9"/>
<feColorMatrix type="matrix" values="0 0 0 0 0.513726 0 0 0 0 0.494118 0 0 0 0 1 0 0 0 0.1 0"/>
<feBlend mode="normal" in2="effect1_dropShadow_3872_62948" result="effect2_dropShadow_3872_62948"/>
<feBlend mode="normal" in="SourceGraphic" in2="effect2_dropShadow_3872_62948" result="shape"/>
</filter>
</defs>
</svg>
