<svg width="100%" viewBox="0 0 148 147" fill="none" xmlns="http://www.w3.org/2000/svg">
<g filter="url(#filter0_dd_3872_62953)">
<rect x="8" y="4" width="132" height="132" fill="#FBFBFE"/>
<rect x="8.5" y="4.5" width="131" height="131" stroke="#827DFF" stroke-dasharray="4 4"/>
<rect width="100" height="96" transform="translate(24 22)" fill="#FBFBFE"/>
<path d="M79.75 33C81.5449 33 83 34.4551 83 36.25V47.75C83 49.5449 81.5449 51 79.75 51H68.25C66.4551 51 65 49.5449 65 47.75V36.25C65 34.4551 66.4551 33 68.25 33H79.75ZM80.3305 49.4014L74.5247 43.7148C74.2596 43.4553 73.8501 43.4316 73.5588 43.644L73.4752 43.7148L67.6685 49.4011C67.8504 49.4651 68.0461 49.5 68.25 49.5H79.75C79.9535 49.5 80.1489 49.4653 80.3305 49.4014L74.5247 43.7148L80.3305 49.4014ZM79.75 34.5H68.25C67.2835 34.5 66.5 35.2835 66.5 36.25V47.75C66.5 47.9584 66.5364 48.1583 66.6033 48.3437L72.4258 42.643C73.2589 41.8273 74.5675 41.7885 75.4458 42.5266L75.5742 42.6431L81.3964 48.3447C81.4634 48.159 81.5 47.9588 81.5 47.75V36.25C81.5 35.2835 80.7165 34.5 79.75 34.5ZM77.2521 36.5C78.4959 36.5 79.5042 37.5083 79.5042 38.7521C79.5042 39.9959 78.4959 41.0042 77.2521 41.0042C76.0083 41.0042 75 39.9959 75 38.7521C75 37.5083 76.0083 36.5 77.2521 36.5ZM77.2521 38C76.8367 38 76.5 38.3367 76.5 38.7521C76.5 39.1675 76.8367 39.5042 77.2521 39.5042C77.6675 39.5042 78.0042 39.1675 78.0042 38.7521C78.0042 38.3367 77.6675 38 77.2521 38Z" fill="#020057"/>
<path d="M39.1602 74.6484C38.5391 74.9766 37.7656 75.1406 36.8398 75.1406C35.6445 75.1406 34.6875 74.7559 33.9688 73.9863C33.25 73.2168 32.8906 72.207 32.8906 70.957C32.8906 69.6133 33.2949 68.5273 34.1035 67.6992C34.9121 66.8711 35.9375 66.457 37.1797 66.457C37.9766 66.457 38.6367 66.5723 39.1602 66.8027V67.8516C38.5586 67.5156 37.8945 67.3477 37.168 67.3477C36.2031 67.3477 35.4199 67.6699 34.8184 68.3145C34.2207 68.959 33.9219 69.8203 33.9219 70.8984C33.9219 71.9219 34.2012 72.7383 34.7598 73.3477C35.3223 73.9531 36.0586 74.2559 36.9688 74.2559C37.8125 74.2559 38.543 74.0684 39.1602 73.6934V74.6484ZM41.7031 75H40.7422V66.1172H41.7031V75ZM47.9434 75H46.9824V74.0625H46.959C46.541 74.7812 45.9258 75.1406 45.1133 75.1406C44.5156 75.1406 44.0469 74.9824 43.707 74.666C43.3711 74.3496 43.2031 73.9297 43.2031 73.4062C43.2031 72.2852 43.8633 71.6328 45.1836 71.4492L46.9824 71.1973C46.9824 70.1777 46.5703 69.668 45.7461 69.668C45.0234 69.668 44.3711 69.9141 43.7891 70.4062V69.4219C44.3789 69.0469 45.0586 68.8594 45.8281 68.8594C47.2383 68.8594 47.9434 69.6055 47.9434 71.0977V75ZM46.9824 71.9648L45.5352 72.1641C45.0898 72.2266 44.7539 72.3379 44.5273 72.498C44.3008 72.6543 44.1875 72.9336 44.1875 73.3359C44.1875 73.6289 44.291 73.8691 44.498 74.0566C44.709 74.2402 44.9883 74.332 45.3359 74.332C45.8125 74.332 46.2051 74.166 46.5137 73.834C46.8262 73.498 46.9824 73.0742 46.9824 72.5625V71.9648ZM52.8828 69.9727C52.7148 69.8438 52.4727 69.7793 52.1562 69.7793C51.7461 69.7793 51.4023 69.9727 51.125 70.3594C50.8516 70.7461 50.7148 71.2734 50.7148 71.9414V75H49.7539V69H50.7148V70.2363H50.7383C50.875 69.8145 51.084 69.4863 51.3652 69.252C51.6465 69.0137 51.9609 68.8945 52.3086 68.8945C52.5586 68.8945 52.75 68.9219 52.8828 68.9766V69.9727ZM54.418 67.4766C54.2461 67.4766 54.0996 67.418 53.9785 67.3008C53.8574 67.1836 53.7969 67.0352 53.7969 66.8555C53.7969 66.6758 53.8574 66.5273 53.9785 66.4102C54.0996 66.2891 54.2461 66.2285 54.418 66.2285C54.5938 66.2285 54.7422 66.2891 54.8633 66.4102C54.9883 66.5273 55.0508 66.6758 55.0508 66.8555C55.0508 67.0273 54.9883 67.1738 54.8633 67.2949C54.7422 67.416 54.5938 67.4766 54.418 67.4766ZM54.8867 75H53.9258V69H54.8867V75ZM59.6152 74.9414C59.3887 75.0664 59.0898 75.1289 58.7188 75.1289C57.668 75.1289 57.1426 74.543 57.1426 73.3711V69.8203H56.1113V69H57.1426V67.5352L58.1035 67.2246V69H59.6152V69.8203H58.1035V73.2012C58.1035 73.6035 58.1719 73.8906 58.3086 74.0625C58.4453 74.2344 58.6719 74.3203 58.9883 74.3203C59.2305 74.3203 59.4395 74.2539 59.6152 74.1211V74.9414ZM65.6738 69L62.9141 75.9609C62.4219 77.2031 61.7305 77.8242 60.8398 77.8242C60.5898 77.8242 60.3809 77.7988 60.2129 77.748V76.8867C60.4199 76.957 60.6094 76.9922 60.7812 76.9922C61.2656 76.9922 61.6289 76.7031 61.8711 76.125L62.3516 74.9883L60.0078 69H61.0742L62.6973 73.6172C62.7168 73.6758 62.7578 73.8281 62.8203 74.0742H62.8555C62.875 73.9805 62.9141 73.832 62.9727 73.6289L64.6777 69H65.6738ZM73.8193 67.908C74.1633 67.94 74.4993 67.964 74.8273 67.98C75.1553 67.996 75.4993 68.004 75.8593 68.004C76.5793 68.004 77.2953 67.976 78.0073 67.92C78.7193 67.864 79.3793 67.776 79.9873 67.656V68.58C79.3473 68.684 78.6713 68.76 77.9593 68.808C77.2553 68.856 76.5473 68.884 75.8353 68.892C75.4913 68.892 75.1553 68.884 74.8273 68.868C74.5073 68.852 74.1713 68.832 73.8193 68.808V67.908ZM78.0193 65.76C78.0033 65.88 77.9873 66 77.9713 66.12C77.9633 66.24 77.9553 66.36 77.9473 66.48C77.9393 66.624 77.9313 66.808 77.9233 67.032C77.9153 67.256 77.9113 67.496 77.9113 67.752C77.9113 68 77.9113 68.244 77.9113 68.484C77.9113 68.94 77.9193 69.396 77.9353 69.852C77.9513 70.308 77.9713 70.752 77.9953 71.184C78.0193 71.616 78.0393 72.024 78.0553 72.408C78.0793 72.784 78.0913 73.128 78.0913 73.44C78.0913 73.68 78.0553 73.916 77.9833 74.148C77.9193 74.38 77.8073 74.588 77.6473 74.772C77.4953 74.956 77.2833 75.1 77.0113 75.204C76.7473 75.316 76.4153 75.372 76.0153 75.372C75.2073 75.372 74.5873 75.22 74.1553 74.916C73.7313 74.612 73.5193 74.192 73.5193 73.656C73.5193 73.32 73.6153 73.016 73.8073 72.744C74.0073 72.464 74.2873 72.244 74.6473 72.084C75.0153 71.924 75.4633 71.844 75.9913 71.844C76.5033 71.844 76.9713 71.904 77.3953 72.024C77.8273 72.136 78.2233 72.288 78.5833 72.48C78.9513 72.664 79.2873 72.872 79.5913 73.104C79.8953 73.328 80.1753 73.552 80.4313 73.776L79.9033 74.58C79.4873 74.18 79.0673 73.832 78.6433 73.536C78.2273 73.24 77.7953 73.008 77.3473 72.84C76.8993 72.672 76.4233 72.588 75.9193 72.588C75.4633 72.588 75.0913 72.68 74.8033 72.864C74.5233 73.04 74.3833 73.272 74.3833 73.56C74.3833 73.864 74.5193 74.1 74.7913 74.268C75.0633 74.428 75.4153 74.508 75.8473 74.508C76.1913 74.508 76.4553 74.452 76.6393 74.34C76.8313 74.228 76.9633 74.076 77.0353 73.884C77.1153 73.692 77.1553 73.464 77.1553 73.2C77.1553 72.984 77.1473 72.692 77.1313 72.324C77.1153 71.956 77.0953 71.556 77.0713 71.124C77.0473 70.684 77.0273 70.236 77.0113 69.78C76.9953 69.324 76.9873 68.896 76.9873 68.496C76.9873 68.088 76.9873 67.704 76.9873 67.344C76.9873 66.984 76.9873 66.7 76.9873 66.492C76.9873 66.388 76.9833 66.268 76.9753 66.132C76.9673 65.988 76.9553 65.864 76.9393 65.76H78.0193ZM72.0913 65.832C72.0673 65.896 72.0393 65.98 72.0073 66.084C71.9833 66.18 71.9593 66.28 71.9353 66.384C71.9193 66.488 71.9033 66.576 71.8873 66.648C71.8393 66.872 71.7873 67.14 71.7313 67.452C71.6833 67.756 71.6313 68.088 71.5753 68.448C71.5193 68.8 71.4673 69.16 71.4193 69.528C71.3793 69.888 71.3473 70.236 71.3233 70.572C71.2993 70.908 71.2873 71.212 71.2873 71.484C71.2873 71.772 71.2953 72.048 71.3113 72.312C71.3353 72.576 71.3673 72.856 71.4073 73.152C71.4713 72.968 71.5433 72.772 71.6233 72.564C71.7033 72.356 71.7833 72.148 71.8633 71.94C71.9513 71.732 72.0273 71.548 72.0913 71.388L72.5833 71.772C72.4873 72.044 72.3793 72.352 72.2593 72.696C72.1473 73.032 72.0393 73.356 71.9353 73.668C71.8393 73.972 71.7713 74.224 71.7313 74.424C71.7153 74.504 71.6993 74.596 71.6833 74.7C71.6753 74.804 71.6753 74.892 71.6833 74.964C71.6833 75.02 71.6833 75.088 71.6833 75.168C71.6913 75.248 71.6993 75.32 71.7073 75.384L70.8673 75.444C70.7473 75.012 70.6393 74.476 70.5433 73.836C70.4553 73.188 70.4113 72.46 70.4113 71.652C70.4113 71.204 70.4313 70.74 70.4713 70.26C70.5193 69.772 70.5713 69.296 70.6273 68.832C70.6913 68.368 70.7513 67.944 70.8073 67.56C70.8713 67.168 70.9233 66.848 70.9633 66.6C70.9793 66.464 70.9953 66.32 71.0113 66.168C71.0273 66.016 71.0353 65.876 71.0353 65.748L72.0913 65.832ZM85.4258 75V66.5977H87.8164C88.543 66.5977 89.1191 66.7754 89.5449 67.1309C89.9707 67.4863 90.1836 67.9492 90.1836 68.5195C90.1836 68.9961 90.0547 69.4102 89.7969 69.7617C89.5391 70.1133 89.1836 70.3633 88.7305 70.5117V70.5352C89.2969 70.6016 89.75 70.8164 90.0898 71.1797C90.4297 71.5391 90.5996 72.0078 90.5996 72.5859C90.5996 73.3047 90.3418 73.8867 89.8262 74.332C89.3105 74.7773 88.6602 75 87.875 75H85.4258ZM86.4102 67.4883V70.2012H87.418C87.957 70.2012 88.3809 70.0723 88.6895 69.8145C88.998 69.5527 89.1523 69.1855 89.1523 68.7129C89.1523 67.8965 88.6152 67.4883 87.541 67.4883H86.4102ZM86.4102 71.0859V74.1094H87.7461C88.3242 74.1094 88.7715 73.9727 89.0879 73.6992C89.4082 73.4258 89.5684 73.0508 89.5684 72.5742C89.5684 71.582 88.8926 71.0859 87.541 71.0859H86.4102ZM96.6641 75H92.3047V66.5977H93.2891V74.1094H96.6641V75ZM100.93 75.1406C99.7383 75.1406 98.7832 74.748 98.0645 73.9629C97.3496 73.1777 96.9922 72.1562 96.9922 70.8984C96.9922 69.5469 97.3574 68.4688 98.0879 67.6641C98.8184 66.8594 99.8125 66.457 101.07 66.457C102.23 66.457 103.164 66.8477 103.871 67.6289C104.582 68.4102 104.938 69.4316 104.938 70.6934C104.938 72.0645 104.574 73.1484 103.848 73.9453C103.121 74.7422 102.148 75.1406 100.93 75.1406ZM101 67.3477C100.117 67.3477 99.4004 67.666 98.8496 68.3027C98.2988 68.9395 98.0234 69.7754 98.0234 70.8105C98.0234 71.8457 98.291 72.6797 98.8262 73.3125C99.3652 73.9414 100.066 74.2559 100.93 74.2559C101.852 74.2559 102.578 73.9551 103.109 73.3535C103.641 72.752 103.906 71.9102 103.906 70.8281C103.906 69.7188 103.648 68.8613 103.133 68.2559C102.617 67.6504 101.906 67.3477 101 67.3477ZM106.59 75V66.5977H108.98C109.707 66.5977 110.283 66.7754 110.709 67.1309C111.135 67.4863 111.348 67.9492 111.348 68.5195C111.348 68.9961 111.219 69.4102 110.961 69.7617C110.703 70.1133 110.348 70.3633 109.895 70.5117V70.5352C110.461 70.6016 110.914 70.8164 111.254 71.1797C111.594 71.5391 111.764 72.0078 111.764 72.5859C111.764 73.3047 111.506 73.8867 110.99 74.332C110.475 74.7773 109.824 75 109.039 75H106.59ZM107.574 67.4883V70.2012H108.582C109.121 70.2012 109.545 70.0723 109.854 69.8145C110.162 69.5527 110.316 69.1855 110.316 68.7129C110.316 67.8965 109.779 67.4883 108.705 67.4883H107.574ZM107.574 71.0859V74.1094H108.91C109.488 74.1094 109.936 73.9727 110.252 73.6992C110.572 73.4258 110.732 73.0508 110.732 72.5742C110.732 71.582 110.057 71.0859 108.705 71.0859H107.574ZM34.436 82.228C34.612 82.244 34.788 82.26 34.964 82.276C35.148 82.292 35.336 82.3 35.528 82.3C35.664 82.3 35.872 82.3 36.152 82.3C36.432 82.3 36.744 82.3 37.088 82.3C37.44 82.3 37.788 82.3 38.132 82.3C38.476 82.3 38.784 82.3 39.056 82.3C39.336 82.3 39.544 82.3 39.68 82.3C39.848 82.3 40.032 82.296 40.232 82.288C40.44 82.272 40.628 82.252 40.796 82.228V83.224C40.62 83.208 40.432 83.2 40.232 83.2C40.04 83.192 39.856 83.188 39.68 83.188C39.544 83.188 39.336 83.188 39.056 83.188C38.784 83.188 38.476 83.188 38.132 83.188C37.788 83.188 37.444 83.188 37.1 83.188C36.756 83.188 36.444 83.188 36.164 83.188C35.884 83.188 35.676 83.188 35.54 83.188C35.34 83.188 35.144 83.192 34.952 83.2C34.768 83.2 34.596 83.208 34.436 83.224V82.228ZM33.02 85.24C33.18 85.256 33.344 85.272 33.512 85.288C33.688 85.296 33.868 85.3 34.052 85.3C34.156 85.3 34.36 85.3 34.664 85.3C34.976 85.3 35.352 85.3 35.792 85.3C36.24 85.3 36.72 85.3 37.232 85.3C37.744 85.3 38.256 85.3 38.768 85.3C39.28 85.3 39.756 85.3 40.196 85.3C40.644 85.3 41.02 85.3 41.324 85.3C41.628 85.3 41.824 85.3 41.912 85.3C42.04 85.3 42.192 85.296 42.368 85.288C42.544 85.28 42.704 85.264 42.848 85.24V86.236C42.72 86.228 42.568 86.224 42.392 86.224C42.224 86.216 42.064 86.212 41.912 86.212C41.824 86.212 41.628 86.212 41.324 86.212C41.02 86.212 40.644 86.212 40.196 86.212C39.756 86.212 39.28 86.212 38.768 86.212C38.256 86.212 37.744 86.212 37.232 86.212C36.72 86.212 36.24 86.212 35.792 86.212C35.352 86.212 34.976 86.212 34.664 86.212C34.36 86.212 34.156 86.212 34.052 86.212C33.876 86.212 33.7 86.212 33.524 86.212C33.348 86.212 33.18 86.22 33.02 86.236V85.24ZM38.66 85.732C38.66 86.484 38.604 87.176 38.492 87.808C38.388 88.432 38.204 88.996 37.94 89.5C37.796 89.764 37.6 90.032 37.352 90.304C37.112 90.568 36.84 90.82 36.536 91.06C36.24 91.3 35.92 91.508 35.576 91.684L34.688 91.024C35.152 90.832 35.588 90.572 35.996 90.244C36.404 89.916 36.724 89.564 36.956 89.188C37.26 88.708 37.452 88.18 37.532 87.604C37.612 87.02 37.652 86.396 37.652 85.732H38.66ZM41.42 81.256C41.524 81.392 41.636 81.56 41.756 81.76C41.876 81.952 41.992 82.148 42.104 82.348C42.224 82.548 42.324 82.732 42.404 82.9L41.756 83.188C41.636 82.94 41.484 82.66 41.3 82.348C41.116 82.028 40.944 81.752 40.784 81.52L41.42 81.256ZM42.74 80.776C42.844 80.92 42.96 81.092 43.088 81.292C43.216 81.492 43.34 81.692 43.46 81.892C43.58 82.084 43.676 82.256 43.748 82.408L43.1 82.696C42.972 82.432 42.816 82.148 42.632 81.844C42.456 81.532 42.28 81.264 42.104 81.04L42.74 80.776ZM45.224 85.804C45.344 85.812 45.492 85.824 45.668 85.84C45.844 85.848 46.036 85.856 46.244 85.864C46.46 85.864 46.676 85.864 46.892 85.864C47.02 85.864 47.216 85.864 47.48 85.864C47.752 85.864 48.068 85.864 48.428 85.864C48.788 85.864 49.168 85.864 49.568 85.864C49.976 85.864 50.38 85.864 50.78 85.864C51.188 85.864 51.572 85.864 51.932 85.864C52.3 85.864 52.616 85.864 52.88 85.864C53.144 85.864 53.34 85.864 53.468 85.864C53.772 85.864 54.032 85.856 54.248 85.84C54.464 85.824 54.636 85.812 54.764 85.804V86.98C54.644 86.972 54.464 86.96 54.224 86.944C53.992 86.928 53.744 86.92 53.48 86.92C53.352 86.92 53.152 86.92 52.88 86.92C52.608 86.92 52.292 86.92 51.932 86.92C51.58 86.92 51.2 86.92 50.792 86.92C50.384 86.92 49.976 86.92 49.568 86.92C49.168 86.92 48.788 86.92 48.428 86.92C48.076 86.92 47.764 86.92 47.492 86.92C47.22 86.92 47.02 86.92 46.892 86.92C46.564 86.92 46.252 86.928 45.956 86.944C45.66 86.952 45.416 86.964 45.224 86.98V85.804ZM60.98 85.504C61.364 85.728 61.768 85.976 62.192 86.248C62.616 86.52 63.036 86.804 63.452 87.1C63.876 87.388 64.28 87.672 64.664 87.952C65.048 88.232 65.388 88.496 65.684 88.744L64.976 89.572C64.704 89.324 64.376 89.052 63.992 88.756C63.616 88.452 63.216 88.148 62.792 87.844C62.368 87.532 61.944 87.232 61.52 86.944C61.096 86.656 60.7 86.396 60.332 86.164L60.98 85.504ZM66.476 83.308C66.42 83.396 66.368 83.504 66.32 83.632C66.272 83.752 66.228 83.86 66.188 83.956C66.076 84.364 65.916 84.804 65.708 85.276C65.5 85.748 65.256 86.224 64.976 86.704C64.696 87.176 64.376 87.632 64.016 88.072C63.48 88.736 62.808 89.376 62 89.992C61.2 90.6 60.232 91.112 59.096 91.528L58.232 90.784C58.976 90.552 59.652 90.268 60.26 89.932C60.876 89.588 61.428 89.212 61.916 88.804C62.404 88.396 62.828 87.976 63.188 87.544C63.5 87.176 63.784 86.772 64.04 86.332C64.304 85.892 64.532 85.456 64.724 85.024C64.916 84.584 65.056 84.176 65.144 83.8H60.692L61.076 82.948H64.892C65.052 82.948 65.2 82.94 65.336 82.924C65.472 82.9 65.588 82.868 65.684 82.828L66.476 83.308ZM62.432 81.58C62.328 81.74 62.228 81.908 62.132 82.084C62.036 82.26 61.956 82.404 61.892 82.516C61.652 82.956 61.34 83.44 60.956 83.968C60.58 84.488 60.136 85.008 59.624 85.528C59.12 86.048 58.548 86.532 57.908 86.98L57.104 86.356C57.792 85.932 58.388 85.464 58.892 84.952C59.396 84.44 59.82 83.94 60.164 83.452C60.508 82.964 60.772 82.54 60.956 82.18C61.02 82.076 61.092 81.932 61.172 81.748C61.252 81.556 61.308 81.384 61.34 81.232L62.432 81.58ZM73.52 81.508C73.472 81.748 73.408 82.032 73.328 82.36C73.256 82.68 73.136 83.044 72.968 83.452C72.824 83.812 72.644 84.184 72.428 84.568C72.22 84.952 71.996 85.3 71.756 85.612C71.908 85.516 72.08 85.436 72.272 85.372C72.464 85.3 72.66 85.248 72.86 85.216C73.068 85.184 73.256 85.168 73.424 85.168C73.888 85.168 74.28 85.3 74.6 85.564C74.92 85.82 75.08 86.196 75.08 86.692C75.08 86.844 75.08 87.04 75.08 87.28C75.08 87.512 75.08 87.76 75.08 88.024C75.088 88.28 75.096 88.532 75.104 88.78C75.112 89.028 75.116 89.244 75.116 89.428H74.192C74.2 89.268 74.208 89.08 74.216 88.864C74.224 88.648 74.228 88.42 74.228 88.18C74.236 87.94 74.236 87.712 74.228 87.496C74.228 87.28 74.228 87.096 74.228 86.944C74.228 86.592 74.12 86.336 73.904 86.176C73.696 86.008 73.432 85.924 73.112 85.924C72.736 85.924 72.364 86.008 71.996 86.176C71.636 86.336 71.32 86.544 71.048 86.8C70.872 86.968 70.696 87.16 70.52 87.376C70.352 87.584 70.164 87.808 69.956 88.048L69.14 87.448C69.716 86.888 70.196 86.364 70.58 85.876C70.964 85.388 71.276 84.936 71.516 84.52C71.756 84.096 71.944 83.716 72.08 83.38C72.208 83.044 72.312 82.708 72.392 82.372C72.472 82.028 72.52 81.712 72.536 81.424L73.52 81.508ZM69.416 82.804C69.736 82.844 70.084 82.876 70.46 82.9C70.836 82.924 71.164 82.936 71.444 82.936C71.98 82.936 72.556 82.924 73.172 82.9C73.788 82.868 74.408 82.824 75.032 82.768C75.664 82.712 76.264 82.632 76.832 82.528L76.82 83.416C76.404 83.488 75.96 83.548 75.488 83.596C75.016 83.636 74.536 83.672 74.048 83.704C73.56 83.728 73.088 83.748 72.632 83.764C72.184 83.772 71.768 83.776 71.384 83.776C71.216 83.776 71.02 83.776 70.796 83.776C70.58 83.768 70.352 83.76 70.112 83.752C69.872 83.736 69.64 83.72 69.416 83.704V82.804ZM78.584 85.708C78.48 85.732 78.364 85.768 78.236 85.816C78.116 85.856 77.992 85.9 77.864 85.948C77.744 85.996 77.628 86.044 77.516 86.092C77.1 86.252 76.616 86.448 76.064 86.68C75.512 86.912 74.948 87.18 74.372 87.484C73.972 87.684 73.62 87.896 73.316 88.12C73.012 88.336 72.772 88.564 72.596 88.804C72.42 89.036 72.332 89.292 72.332 89.572C72.332 89.804 72.384 89.992 72.488 90.136C72.6 90.28 72.756 90.392 72.956 90.472C73.156 90.544 73.384 90.592 73.64 90.616C73.904 90.64 74.192 90.652 74.504 90.652C74.968 90.652 75.496 90.628 76.088 90.58C76.688 90.524 77.252 90.452 77.78 90.364L77.756 91.324C77.452 91.364 77.108 91.4 76.724 91.432C76.348 91.464 75.964 91.488 75.572 91.504C75.188 91.528 74.82 91.54 74.468 91.54C73.9 91.54 73.38 91.488 72.908 91.384C72.444 91.28 72.072 91.096 71.792 90.832C71.512 90.568 71.372 90.192 71.372 89.704C71.372 89.344 71.456 89.016 71.624 88.72C71.792 88.416 72.016 88.14 72.296 87.892C72.584 87.644 72.9 87.416 73.244 87.208C73.588 86.992 73.94 86.796 74.3 86.62C74.684 86.412 75.044 86.232 75.38 86.08C75.724 85.928 76.048 85.788 76.352 85.66C76.656 85.532 76.94 85.404 77.204 85.276C77.38 85.196 77.548 85.12 77.708 85.048C77.868 84.976 78.028 84.896 78.188 84.808L78.584 85.708ZM84.788 85.528H91.376V87.652H90.536V86.26H85.604V87.652H84.788V85.528ZM88.628 87.064H89.48V90.676C89.48 90.82 89.496 90.912 89.528 90.952C89.56 90.992 89.64 91.012 89.768 91.012C89.808 91.012 89.88 91.012 89.984 91.012C90.096 91.012 90.208 91.012 90.32 91.012C90.432 91.012 90.512 91.012 90.56 91.012C90.648 91.012 90.712 90.976 90.752 90.904C90.8 90.832 90.832 90.684 90.848 90.46C90.872 90.228 90.888 89.884 90.896 89.428C90.96 89.476 91.036 89.524 91.124 89.572C91.212 89.612 91.304 89.652 91.4 89.692C91.496 89.724 91.584 89.752 91.664 89.776C91.64 90.312 91.592 90.728 91.52 91.024C91.456 91.328 91.356 91.536 91.22 91.648C91.084 91.76 90.896 91.816 90.656 91.816C90.616 91.816 90.548 91.816 90.452 91.816C90.356 91.816 90.252 91.816 90.14 91.816C90.036 91.816 89.936 91.816 89.84 91.816C89.752 91.816 89.688 91.816 89.648 91.816C89.376 91.816 89.164 91.78 89.012 91.708C88.868 91.644 88.768 91.528 88.712 91.36C88.656 91.2 88.628 90.972 88.628 90.676V87.064ZM86.564 87.052H87.416C87.384 87.7 87.328 88.284 87.248 88.804C87.168 89.316 87.036 89.772 86.852 90.172C86.668 90.564 86.408 90.908 86.072 91.204C85.744 91.508 85.312 91.764 84.776 91.972C84.744 91.9 84.696 91.82 84.632 91.732C84.576 91.644 84.512 91.556 84.44 91.468C84.376 91.388 84.312 91.32 84.248 91.264C84.736 91.088 85.128 90.876 85.424 90.628C85.72 90.38 85.944 90.088 86.096 89.752C86.256 89.408 86.368 89.016 86.432 88.576C86.496 88.128 86.54 87.62 86.564 87.052ZM84.836 82H91.328V82.756H84.836V82ZM85.232 83.884H90.968V84.64H85.232V83.884ZM87.572 80.908H88.46V84.28H87.572V80.908ZM80.972 84.556H84.212V85.264H80.972V84.556ZM81.044 81.34H84.176V82.06H81.044V81.34ZM80.972 86.152H84.212V86.872H80.972V86.152ZM80.456 82.912H84.548V83.668H80.456V82.912ZM81.392 87.772H84.224V91.264H81.392V90.52H83.456V88.516H81.392V87.772ZM80.96 87.772H81.728V91.828H80.96V87.772ZM94.676 82.204C94.828 82.212 94.984 82.22 95.144 82.228C95.312 82.236 95.456 82.24 95.576 82.24C95.736 82.24 95.94 82.236 96.188 82.228C96.444 82.22 96.708 82.208 96.98 82.192C97.252 82.176 97.508 82.164 97.748 82.156C97.988 82.14 98.168 82.128 98.288 82.12C98.408 82.104 98.516 82.088 98.612 82.072C98.716 82.048 98.808 82.02 98.888 81.988L99.488 82.48C99.432 82.544 99.376 82.608 99.32 82.672C99.272 82.736 99.224 82.804 99.176 82.876C99.048 83.084 98.896 83.38 98.72 83.764C98.544 84.14 98.356 84.552 98.156 85C97.964 85.44 97.772 85.864 97.58 86.272C97.46 86.544 97.328 86.84 97.184 87.16C97.048 87.472 96.908 87.792 96.764 88.12C96.62 88.44 96.476 88.74 96.332 89.02C96.196 89.3 96.064 89.532 95.936 89.716C95.72 90.02 95.492 90.236 95.252 90.364C95.012 90.484 94.736 90.544 94.424 90.544C93.976 90.544 93.604 90.396 93.308 90.1C93.012 89.804 92.864 89.404 92.864 88.9C92.864 88.452 92.964 88.036 93.164 87.652C93.372 87.26 93.656 86.92 94.016 86.632C94.384 86.344 94.82 86.12 95.324 85.96C95.836 85.8 96.396 85.72 97.004 85.72C97.676 85.72 98.324 85.8 98.948 85.96C99.58 86.112 100.168 86.312 100.712 86.56C101.264 86.8 101.764 87.056 102.212 87.328C102.668 87.592 103.056 87.84 103.376 88.072L102.932 89.104C102.58 88.8 102.184 88.5 101.744 88.204C101.304 87.9 100.824 87.624 100.304 87.376C99.784 87.128 99.232 86.928 98.648 86.776C98.072 86.624 97.476 86.548 96.86 86.548C96.204 86.548 95.64 86.66 95.168 86.884C94.704 87.1 94.348 87.38 94.1 87.724C93.86 88.06 93.74 88.412 93.74 88.78C93.74 89.044 93.812 89.248 93.956 89.392C94.108 89.528 94.276 89.596 94.46 89.596C94.596 89.596 94.72 89.564 94.832 89.5C94.944 89.436 95.06 89.328 95.18 89.176C95.308 89.008 95.436 88.804 95.564 88.564C95.692 88.324 95.82 88.064 95.948 87.784C96.076 87.504 96.2 87.22 96.32 86.932C96.44 86.644 96.56 86.376 96.68 86.128C96.84 85.776 97 85.412 97.16 85.036C97.328 84.66 97.492 84.296 97.652 83.944C97.82 83.592 97.972 83.272 98.108 82.984C97.988 82.992 97.816 83 97.592 83.008C97.376 83.016 97.14 83.028 96.884 83.044C96.628 83.052 96.384 83.064 96.152 83.08C95.928 83.088 95.748 83.096 95.612 83.104C95.484 83.112 95.34 83.124 95.18 83.14C95.02 83.148 94.868 83.16 94.724 83.176L94.676 82.204ZM102.176 84.832C102.136 85.68 102.052 86.452 101.924 87.148C101.796 87.844 101.6 88.472 101.336 89.032C101.072 89.592 100.712 90.096 100.256 90.544C99.8 90.984 99.224 91.376 98.528 91.72L97.736 91.06C98.44 90.764 99.012 90.412 99.452 90.004C99.892 89.588 100.232 89.144 100.472 88.672C100.72 88.192 100.892 87.708 100.988 87.22C101.092 86.732 101.164 86.268 101.204 85.828C101.212 85.644 101.216 85.456 101.216 85.264C101.224 85.072 101.22 84.892 101.204 84.724L102.176 84.832ZM110.132 82.576H114.572V83.452H110.132V82.576ZM104.576 81.664H110.432V82.516H104.576V81.664ZM105.98 84.112H109.088V84.928H105.98V84.112ZM105.98 86.608H109.088V87.424H105.98V86.608ZM114.296 82.576H114.464L114.62 82.54L115.196 82.696C115.004 84.296 114.68 85.684 114.224 86.86C113.768 88.028 113.2 89.02 112.52 89.836C111.848 90.644 111.08 91.296 110.216 91.792C110.144 91.68 110.052 91.548 109.94 91.396C109.828 91.252 109.724 91.136 109.628 91.048C110.42 90.64 111.136 90.056 111.776 89.296C112.416 88.536 112.952 87.612 113.384 86.524C113.824 85.436 114.128 84.188 114.296 82.78V82.576ZM111.224 83.5C111.44 84.652 111.744 85.724 112.136 86.716C112.528 87.708 113.016 88.58 113.6 89.332C114.192 90.076 114.9 90.66 115.724 91.084C115.66 91.14 115.588 91.212 115.508 91.3C115.428 91.388 115.352 91.476 115.28 91.564C115.208 91.66 115.148 91.748 115.1 91.828C114.228 91.34 113.484 90.7 112.868 89.908C112.26 89.108 111.752 88.184 111.344 87.136C110.944 86.08 110.616 84.924 110.36 83.668L111.224 83.5ZM105.5 81.988H106.364V89.776H105.5V81.988ZM108.716 81.988H109.592V91.936H108.716V81.988ZM104.324 89.524C104.724 89.468 105.18 89.408 105.692 89.344C106.204 89.272 106.748 89.196 107.324 89.116C107.908 89.028 108.492 88.94 109.076 88.852L109.124 89.68C108.3 89.816 107.476 89.952 106.652 90.088C105.836 90.216 105.116 90.324 104.492 90.412L104.324 89.524ZM61.8696 106.088C61.5496 106.408 61.2056 106.656 60.8376 106.832C60.4696 107 60.0776 107.084 59.6616 107.084C59.2696 107.084 58.9496 106.956 58.7016 106.7C58.4536 106.444 58.3296 106.068 58.3296 105.572C58.3296 105.236 58.3536 104.872 58.4016 104.48C58.4496 104.088 58.5016 103.688 58.5576 103.28C58.6136 102.864 58.6656 102.472 58.7136 102.104C58.7616 101.728 58.7856 101.392 58.7856 101.096C58.7856 100.752 58.7016 100.504 58.5336 100.352C58.3656 100.192 58.1256 100.112 57.8136 100.112C57.5336 100.112 57.2216 100.196 56.8776 100.364C56.5336 100.524 56.1816 100.744 55.8216 101.024C55.4616 101.296 55.1096 101.604 54.7656 101.948C54.4216 102.284 54.1056 102.62 53.8176 102.956L53.8416 101.768C53.9936 101.608 54.1856 101.42 54.4176 101.204C54.6576 100.988 54.9216 100.764 55.2096 100.532C55.5056 100.3 55.8176 100.084 56.1456 99.884C56.4736 99.684 56.7976 99.524 57.1176 99.404C57.4456 99.284 57.7576 99.224 58.0536 99.224C58.4296 99.224 58.7416 99.292 58.9896 99.428C59.2376 99.556 59.4216 99.744 59.5416 99.992C59.6616 100.232 59.7216 100.512 59.7216 100.832C59.7216 101.128 59.6976 101.472 59.6496 101.864C59.6096 102.248 59.5576 102.648 59.4936 103.064C59.4376 103.48 59.3856 103.884 59.3376 104.276C59.2976 104.668 59.2776 105.016 59.2776 105.32C59.2776 105.52 59.3256 105.692 59.4216 105.836C59.5256 105.98 59.6856 106.052 59.9016 106.052C60.1896 106.052 60.4856 105.968 60.7896 105.8C61.1016 105.624 61.4096 105.376 61.7136 105.056L61.8696 106.088ZM53.8056 100.352C53.7096 100.36 53.5616 100.38 53.3616 100.412C53.1696 100.436 52.9496 100.464 52.7016 100.496C52.4536 100.528 52.2016 100.564 51.9456 100.604C51.6896 100.636 51.4496 100.668 51.2256 100.7L51.1296 99.716C51.2576 99.724 51.3816 99.728 51.5016 99.728C51.6296 99.72 51.7656 99.712 51.9096 99.704C52.0776 99.696 52.2816 99.68 52.5216 99.656C52.7696 99.624 53.0256 99.592 53.2896 99.56C53.5616 99.52 53.8136 99.48 54.0456 99.44C54.2856 99.392 54.4736 99.344 54.6096 99.296L54.9576 99.716C54.8856 99.812 54.8056 99.932 54.7176 100.076C54.6296 100.212 54.5416 100.352 54.4536 100.496C54.3656 100.64 54.2896 100.768 54.2256 100.88L53.8536 102.512C53.7176 102.728 53.5496 102.984 53.3496 103.28C53.1496 103.576 52.9376 103.888 52.7136 104.216C52.4976 104.536 52.2776 104.856 52.0536 105.176C51.8296 105.488 51.6256 105.776 51.4416 106.04L50.8296 105.212C50.9816 105.028 51.1576 104.804 51.3576 104.54C51.5656 104.268 51.7816 103.976 52.0056 103.664C52.2376 103.352 52.4616 103.048 52.6776 102.752C52.9016 102.448 53.0976 102.168 53.2656 101.912C53.4416 101.656 53.5736 101.448 53.6616 101.288L53.7096 100.676L53.8056 100.352ZM53.6976 98.36C53.6976 98.224 53.6936 98.08 53.6856 97.928C53.6856 97.776 53.6736 97.624 53.6496 97.472L54.7776 97.508C54.7456 97.668 54.7056 97.92 54.6576 98.264C54.6096 98.6 54.5616 99 54.5136 99.464C54.4736 99.928 54.4296 100.416 54.3816 100.928C54.3416 101.44 54.3096 101.948 54.2856 102.452C54.2616 102.948 54.2496 103.408 54.2496 103.832C54.2496 104.192 54.2496 104.528 54.2496 104.84C54.2496 105.144 54.2536 105.448 54.2616 105.752C54.2696 106.048 54.2816 106.372 54.2976 106.724C54.3056 106.828 54.3136 106.948 54.3216 107.084C54.3296 107.22 54.3416 107.344 54.3576 107.456H53.3136C53.3296 107.344 53.3376 107.22 53.3376 107.084C53.3456 106.956 53.3496 106.844 53.3496 106.748C53.3576 106.364 53.3616 106.024 53.3616 105.728C53.3616 105.432 53.3616 105.128 53.3616 104.816C53.3696 104.496 53.3776 104.116 53.3856 103.676C53.3856 103.5 53.3936 103.26 53.4096 102.956C53.4256 102.644 53.4456 102.304 53.4696 101.936C53.4936 101.56 53.5176 101.18 53.5416 100.796C53.5656 100.412 53.5896 100.052 53.6136 99.716C53.6376 99.372 53.6576 99.08 53.6736 98.84C53.6896 98.6 53.6976 98.44 53.6976 98.36ZM69.0576 97.472C69.0416 97.576 69.0256 97.692 69.0096 97.82C69.0016 97.948 68.9936 98.1 68.9856 98.276C68.9856 98.396 68.9816 98.576 68.9736 98.816C68.9736 99.056 68.9736 99.328 68.9736 99.632C68.9736 99.928 68.9736 100.228 68.9736 100.532C68.9736 100.836 68.9736 101.116 68.9736 101.372C68.9736 101.772 68.9816 102.192 68.9976 102.632C69.0136 103.072 69.0336 103.5 69.0576 103.916C69.0816 104.332 69.1016 104.712 69.1176 105.056C69.1336 105.4 69.1416 105.672 69.1416 105.872C69.1416 106.152 69.0736 106.42 68.9376 106.676C68.8096 106.932 68.5896 107.14 68.2776 107.3C67.9736 107.468 67.5576 107.552 67.0296 107.552C66.1656 107.552 65.5056 107.4 65.0496 107.096C64.5936 106.8 64.3656 106.364 64.3656 105.788C64.3656 105.42 64.4736 105.1 64.6896 104.828C64.9136 104.556 65.2336 104.344 65.6496 104.192C66.0656 104.032 66.5616 103.952 67.1376 103.952C67.7696 103.952 68.3616 104.028 68.9136 104.18C69.4736 104.324 69.9856 104.508 70.4496 104.732C70.9136 104.956 71.3256 105.192 71.6856 105.44C72.0456 105.68 72.3416 105.896 72.5736 106.088L72.0216 106.94C71.7496 106.684 71.4336 106.428 71.0736 106.172C70.7216 105.916 70.3336 105.68 69.9096 105.464C69.4936 105.248 69.0416 105.076 68.5536 104.948C68.0736 104.812 67.5616 104.744 67.0176 104.744C66.4416 104.744 66.0016 104.84 65.6976 105.032C65.4016 105.224 65.2536 105.46 65.2536 105.74C65.2536 105.916 65.3096 106.08 65.4216 106.232C65.5336 106.376 65.7136 106.492 65.9616 106.58C66.2096 106.668 66.5296 106.712 66.9216 106.712C67.1536 106.712 67.3656 106.684 67.5576 106.628C67.7496 106.564 67.9016 106.456 68.0136 106.304C68.1336 106.152 68.1936 105.94 68.1936 105.668C68.1936 105.436 68.1856 105.136 68.1696 104.768C68.1616 104.392 68.1496 103.996 68.1336 103.58C68.1176 103.156 68.1016 102.748 68.0856 102.356C68.0776 101.964 68.0736 101.636 68.0736 101.372C68.0736 101.1 68.0736 100.824 68.0736 100.544C68.0736 100.256 68.0736 99.972 68.0736 99.692C68.0736 99.412 68.0736 99.144 68.0736 98.888C68.0816 98.632 68.0856 98.4 68.0856 98.192C68.0856 98.096 68.0816 97.972 68.0736 97.82C68.0656 97.668 68.0536 97.552 68.0376 97.472H69.0576ZM64.4616 98.78C64.6616 98.812 64.8936 98.844 65.1576 98.876C65.4216 98.908 65.6976 98.94 65.9856 98.972C66.2816 98.996 66.5616 99.016 66.8256 99.032C67.0976 99.04 67.3336 99.044 67.5336 99.044C68.2936 99.044 69.0696 99.016 69.8616 98.96C70.6616 98.904 71.4496 98.812 72.2256 98.684L72.2136 99.56C71.7736 99.608 71.2936 99.656 70.7736 99.704C70.2536 99.752 69.7176 99.792 69.1656 99.824C68.6216 99.856 68.0816 99.872 67.5456 99.872C67.2656 99.872 66.9336 99.86 66.5496 99.836C66.1656 99.812 65.7856 99.784 65.4096 99.752C65.0416 99.72 64.7296 99.692 64.4736 99.668L64.4616 98.78ZM64.4016 101.324C64.6176 101.356 64.8576 101.388 65.1216 101.42C65.3856 101.452 65.6576 101.476 65.9376 101.492C66.2176 101.508 66.4856 101.524 66.7416 101.54C66.9976 101.548 67.2256 101.552 67.4256 101.552C68.0096 101.552 68.5736 101.54 69.1176 101.516C69.6696 101.484 70.2096 101.444 70.7376 101.396C71.2736 101.34 71.8016 101.272 72.3216 101.192L72.3096 102.092C71.9096 102.148 71.5096 102.196 71.1096 102.236C70.7176 102.268 70.3216 102.296 69.9216 102.32C69.5296 102.344 69.1256 102.364 68.7096 102.38C68.3016 102.388 67.8696 102.392 67.4136 102.392C67.1416 102.392 66.8256 102.384 66.4656 102.368C66.1136 102.352 65.7536 102.332 65.3856 102.308C65.0256 102.284 64.7016 102.256 64.4136 102.224L64.4016 101.324ZM82.6984 97.748C82.6904 97.812 82.6824 97.896 82.6744 98C82.6664 98.104 82.6584 98.212 82.6504 98.324C82.6504 98.428 82.6464 98.524 82.6384 98.612C82.6384 98.86 82.6344 99.116 82.6264 99.38C82.6264 99.644 82.6224 99.9 82.6144 100.148C82.6144 100.388 82.6104 100.612 82.6024 100.82C82.5944 101.124 82.5824 101.46 82.5664 101.828C82.5584 102.188 82.5424 102.532 82.5184 102.86C82.5024 103.188 82.4704 103.456 82.4224 103.664C82.3664 103.928 82.2664 104.108 82.1224 104.204C81.9864 104.3 81.7784 104.348 81.4984 104.348C81.3544 104.348 81.1784 104.34 80.9704 104.324C80.7624 104.3 80.5624 104.276 80.3704 104.252C80.1784 104.228 80.0264 104.204 79.9144 104.18L79.9384 103.352C80.1464 103.4 80.3624 103.44 80.5864 103.472C80.8184 103.496 81.0024 103.508 81.1384 103.508C81.2904 103.508 81.3984 103.488 81.4624 103.448C81.5344 103.408 81.5784 103.32 81.5944 103.184C81.6264 103.024 81.6504 102.816 81.6664 102.56C81.6824 102.296 81.6944 102.012 81.7024 101.708C81.7184 101.396 81.7304 101.1 81.7384 100.82C81.7384 100.596 81.7384 100.36 81.7384 100.112C81.7384 99.856 81.7384 99.604 81.7384 99.356C81.7384 99.1 81.7384 98.864 81.7384 98.648C81.7384 98.56 81.7344 98.46 81.7264 98.348C81.7264 98.236 81.7224 98.128 81.7144 98.024C81.7064 97.912 81.6944 97.82 81.6784 97.748H82.6984ZM77.9464 98.12C77.9304 98.264 77.9184 98.416 77.9104 98.576C77.9024 98.736 77.8984 98.908 77.8984 99.092C77.8984 99.348 77.8944 99.676 77.8864 100.076C77.8864 100.468 77.8824 100.888 77.8744 101.336C77.8744 101.776 77.8744 102.208 77.8744 102.632C77.8744 103.056 77.8744 103.436 77.8744 103.772C77.8744 104.108 77.8784 104.36 77.8864 104.528C77.9024 104.848 77.9224 105.12 77.9464 105.344C77.9784 105.568 78.0584 105.748 78.1864 105.884C78.3144 106.02 78.5224 106.12 78.8104 106.184C79.0984 106.248 79.5024 106.28 80.0224 106.28C80.4544 106.28 80.8944 106.268 81.3424 106.244C81.7904 106.212 82.2104 106.176 82.6024 106.136C83.0024 106.088 83.3304 106.04 83.5864 105.992L83.5504 107.012C83.2864 107.036 82.9584 107.064 82.5664 107.096C82.1744 107.128 81.7624 107.152 81.3304 107.168C80.8984 107.192 80.4784 107.204 80.0704 107.204C79.3744 107.204 78.8224 107.16 78.4144 107.072C78.0064 106.984 77.7024 106.844 77.5024 106.652C77.3024 106.452 77.1664 106.188 77.0944 105.86C77.0304 105.532 76.9904 105.132 76.9744 104.66C76.9744 104.492 76.9704 104.256 76.9624 103.952C76.9624 103.64 76.9624 103.292 76.9624 102.908C76.9624 102.516 76.9624 102.12 76.9624 101.72C76.9624 101.32 76.9624 100.94 76.9624 100.58C76.9704 100.22 76.9744 99.912 76.9744 99.656C76.9744 99.4 76.9744 99.228 76.9744 99.14C76.9744 98.956 76.9664 98.788 76.9504 98.636C76.9424 98.476 76.9264 98.304 76.9024 98.12H77.9464ZM74.3584 101C74.5504 101 74.7504 100.992 74.9584 100.976C75.1744 100.96 75.3904 100.944 75.6064 100.928C75.8704 100.904 76.2464 100.868 76.7344 100.82C77.2224 100.772 77.7744 100.72 78.3904 100.664C79.0144 100.608 79.6584 100.552 80.3224 100.496C80.9864 100.432 81.6304 100.376 82.2544 100.328C82.8864 100.272 83.4504 100.232 83.9464 100.208C84.0984 100.192 84.2544 100.18 84.4144 100.172C84.5824 100.164 84.7384 100.156 84.8824 100.148V101.084C84.8184 101.076 84.7304 101.076 84.6184 101.084C84.5144 101.084 84.3984 101.084 84.2704 101.084C84.1504 101.084 84.0384 101.084 83.9344 101.084C83.6144 101.092 83.2264 101.112 82.7704 101.144C82.3144 101.168 81.8184 101.204 81.2824 101.252C80.7544 101.292 80.2144 101.34 79.6624 101.396C79.1104 101.444 78.5784 101.496 78.0664 101.552C77.5544 101.608 77.0904 101.66 76.6744 101.708C76.2664 101.748 75.9344 101.784 75.6784 101.816C75.5584 101.832 75.4224 101.852 75.2704 101.876C75.1264 101.892 74.9824 101.912 74.8384 101.936C74.6944 101.952 74.5704 101.968 74.4664 101.984L74.3584 101ZM92.3824 98.096C92.3344 98.16 92.2744 98.248 92.2024 98.36C92.1384 98.464 92.0704 98.572 91.9984 98.684C91.8624 98.884 91.6984 99.152 91.5064 99.488C91.3224 99.816 91.1224 100.172 90.9064 100.556C90.6904 100.932 90.4784 101.304 90.2704 101.672C90.0704 102.04 89.8944 102.372 89.7424 102.668C90.0304 102.404 90.3264 102.216 90.6304 102.104C90.9424 101.984 91.2424 101.924 91.5304 101.924C91.9304 101.924 92.2584 102.048 92.5144 102.296C92.7784 102.544 92.9184 102.904 92.9344 103.376C92.9424 103.616 92.9464 103.872 92.9464 104.144C92.9544 104.408 92.9584 104.668 92.9584 104.924C92.9584 105.172 92.9664 105.396 92.9824 105.596C93.0064 105.9 93.1104 106.12 93.2944 106.256C93.4784 106.384 93.6984 106.448 93.9544 106.448C94.2824 106.448 94.5784 106.36 94.8424 106.184C95.1144 106 95.3504 105.76 95.5504 105.464C95.7584 105.168 95.9304 104.848 96.0664 104.504C96.2024 104.16 96.3104 103.832 96.3904 103.52L97.1824 104.168C96.9744 104.808 96.7184 105.376 96.4144 105.872C96.1104 106.36 95.7424 106.744 95.3104 107.024C94.8864 107.304 94.3824 107.444 93.7984 107.444C93.3744 107.444 93.0344 107.364 92.7784 107.204C92.5304 107.052 92.3504 106.86 92.2384 106.628C92.1344 106.396 92.0744 106.16 92.0584 105.92C92.0504 105.688 92.0424 105.436 92.0344 105.164C92.0344 104.892 92.0344 104.624 92.0344 104.36C92.0344 104.096 92.0264 103.856 92.0104 103.64C91.9944 103.376 91.9104 103.172 91.7584 103.028C91.6144 102.876 91.4064 102.8 91.1344 102.8C90.8144 102.8 90.5024 102.896 90.1984 103.088C89.9024 103.272 89.6304 103.512 89.3824 103.808C89.1424 104.104 88.9464 104.412 88.7944 104.732C88.7064 104.908 88.6064 105.12 88.4944 105.368C88.3904 105.616 88.2904 105.872 88.1944 106.136C88.0984 106.4 88.0104 106.648 87.9304 106.88C87.8584 107.112 87.8024 107.304 87.7624 107.456L86.7304 107.096C86.8744 106.688 87.0624 106.224 87.2944 105.704C87.5264 105.184 87.7784 104.64 88.0504 104.072C88.3224 103.496 88.6024 102.928 88.8904 102.368C89.1784 101.8 89.4504 101.268 89.7064 100.772C89.9704 100.268 90.2064 99.828 90.4144 99.452C90.6224 99.068 90.7784 98.78 90.8824 98.588C90.9544 98.444 91.0264 98.3 91.0984 98.156C91.1784 98.004 91.2544 97.84 91.3264 97.664L92.3824 98.096Z" fill="#020057"/>
</g>
<defs>
<filter id="filter0_dd_3872_62953" x="0.8" y="2.38419e-07" width="146.4" height="146.4" filterUnits="userSpaceOnUse" color-interpolation-filters="sRGB">
<feFlood flood-opacity="0" result="BackgroundImageFix"/>
<feColorMatrix in="SourceAlpha" type="matrix" values="0 0 0 0 0 0 0 0 0 0 0 0 0 0 0 0 0 0 127 0" result="hardAlpha"/>
<feOffset dy="3.2"/>
<feGaussianBlur stdDeviation="3.6"/>
<feColorMatrix type="matrix" values="0 0 0 0 0.513726 0 0 0 0 0.494118 0 0 0 0 1 0 0 0 0.12 0"/>
<feBlend mode="normal" in2="BackgroundImageFix" result="effect1_dropShadow_3872_62953"/>
<feColorMatrix in="SourceAlpha" type="matrix" values="0 0 0 0 0 0 0 0 0 0 0 0 0 0 0 0 0 0 127 0" result="hardAlpha"/>
<feOffset dy="0.6"/>
<feGaussianBlur stdDeviation="0.9"/>
<feColorMatrix type="matrix" values="0 0 0 0 0.513726 0 0 0 0 0.494118 0 0 0 0 1 0 0 0 0.1 0"/>
<feBlend mode="normal" in2="effect1_dropShadow_3872_62953" result="effect2_dropShadow_3872_62953"/>
<feBlend mode="normal" in="SourceGraphic" in2="effect2_dropShadow_3872_62953" result="shape"/>
</filter>
</defs>
</svg>
