<svg width="100%" viewBox="0 0 148 147" fill="none" xmlns="http://www.w3.org/2000/svg">
<g filter="url(#filter0_dd_3872_62954)">
<rect x="8" y="4" width="132" height="132" fill="#FBFBFE"/>
<rect x="8.5" y="4.5" width="131" height="131" stroke="#827DFF" stroke-dasharray="4 4"/>
<rect width="100" height="112" transform="translate(24 14)" fill="#FBFBFE"/>
<path d="M79.75 25C81.5449 25 83 26.4551 83 28.25V39.75C83 41.5449 81.5449 43 79.75 43H68.25C66.4551 43 65 41.5449 65 39.75V28.25C65 26.4551 66.4551 25 68.25 25H79.75ZM80.3305 41.4014L74.5247 35.7148C74.2596 35.4553 73.8501 35.4316 73.5588 35.644L73.4752 35.7148L67.6685 41.4011C67.8504 41.4651 68.0461 41.5 68.25 41.5H79.75C79.9535 41.5 80.1489 41.4653 80.3305 41.4014L74.5247 35.7148L80.3305 41.4014ZM79.75 26.5H68.25C67.2835 26.5 66.5 27.2835 66.5 28.25V39.75C66.5 39.9584 66.5364 40.1583 66.6033 40.3437L72.4258 34.643C73.2589 33.8273 74.5675 33.7885 75.4458 34.5266L75.5742 34.6431L81.3964 40.3447C81.4634 40.159 81.5 39.9588 81.5 39.75V28.25C81.5 27.2835 80.7165 26.5 79.75 26.5ZM77.2521 28.5C78.4959 28.5 79.5042 29.5083 79.5042 30.7521C79.5042 31.9959 78.4959 33.0042 77.2521 33.0042C76.0083 33.0042 75 31.9959 75 30.7521C75 29.5083 76.0083 28.5 77.2521 28.5ZM77.2521 30C76.8367 30 76.5 30.3367 76.5 30.7521C76.5 31.1675 76.8367 31.5042 77.2521 31.5042C77.6675 31.5042 78.0042 31.1675 78.0042 30.7521C78.0042 30.3367 77.6675 30 77.2521 30Z" fill="#020057"/>
<path d="M64.1211 66.6484C63.5 66.9766 62.7266 67.1406 61.8008 67.1406C60.6055 67.1406 59.6484 66.7559 58.9297 65.9863C58.2109 65.2168 57.8516 64.207 57.8516 62.957C57.8516 61.6133 58.2559 60.5273 59.0645 59.6992C59.873 58.8711 60.8984 58.457 62.1406 58.457C62.9375 58.457 63.5977 58.5723 64.1211 58.8027V59.8516C63.5195 59.5156 62.8555 59.3477 62.1289 59.3477C61.1641 59.3477 60.3809 59.6699 59.7793 60.3145C59.1816 60.959 58.8828 61.8203 58.8828 62.8984C58.8828 63.9219 59.1621 64.7383 59.7207 65.3477C60.2832 65.9531 61.0195 66.2559 61.9297 66.2559C62.7734 66.2559 63.5039 66.0684 64.1211 65.6934V66.6484ZM66.6641 67H65.7031V58.1172H66.6641V67ZM72.9043 67H71.9434V66.0625H71.9199C71.502 66.7812 70.8867 67.1406 70.0742 67.1406C69.4766 67.1406 69.0078 66.9824 68.668 66.666C68.332 66.3496 68.1641 65.9297 68.1641 65.4062C68.1641 64.2852 68.8242 63.6328 70.1445 63.4492L71.9434 63.1973C71.9434 62.1777 71.5312 61.668 70.707 61.668C69.9844 61.668 69.332 61.9141 68.75 62.4062V61.4219C69.3398 61.0469 70.0195 60.8594 70.7891 60.8594C72.1992 60.8594 72.9043 61.6055 72.9043 63.0977V67ZM71.9434 63.9648L70.4961 64.1641C70.0508 64.2266 69.7148 64.3379 69.4883 64.498C69.2617 64.6543 69.1484 64.9336 69.1484 65.3359C69.1484 65.6289 69.252 65.8691 69.459 66.0566C69.6699 66.2402 69.9492 66.332 70.2969 66.332C70.7734 66.332 71.166 66.166 71.4746 65.834C71.7871 65.498 71.9434 65.0742 71.9434 64.5625V63.9648ZM77.8438 61.9727C77.6758 61.8438 77.4336 61.7793 77.1172 61.7793C76.707 61.7793 76.3633 61.9727 76.0859 62.3594C75.8125 62.7461 75.6758 63.2734 75.6758 63.9414V67H74.7148V61H75.6758V62.2363H75.6992C75.8359 61.8145 76.0449 61.4863 76.3262 61.252C76.6074 61.0137 76.9219 60.8945 77.2695 60.8945C77.5195 60.8945 77.7109 60.9219 77.8438 60.9766V61.9727ZM79.3789 59.4766C79.207 59.4766 79.0605 59.418 78.9395 59.3008C78.8184 59.1836 78.7578 59.0352 78.7578 58.8555C78.7578 58.6758 78.8184 58.5273 78.9395 58.4102C79.0605 58.2891 79.207 58.2285 79.3789 58.2285C79.5547 58.2285 79.7031 58.2891 79.8242 58.4102C79.9492 58.5273 80.0117 58.6758 80.0117 58.8555C80.0117 59.0273 79.9492 59.1738 79.8242 59.2949C79.7031 59.416 79.5547 59.4766 79.3789 59.4766ZM79.8477 67H78.8867V61H79.8477V67ZM84.5762 66.9414C84.3496 67.0664 84.0508 67.1289 83.6797 67.1289C82.6289 67.1289 82.1035 66.543 82.1035 65.3711V61.8203H81.0723V61H82.1035V59.5352L83.0645 59.2246V61H84.5762V61.8203H83.0645V65.2012C83.0645 65.6035 83.1328 65.8906 83.2695 66.0625C83.4062 66.2344 83.6328 66.3203 83.9492 66.3203C84.1914 66.3203 84.4004 66.2539 84.5762 66.1211V66.9414ZM90.6348 61L87.875 67.9609C87.3828 69.2031 86.6914 69.8242 85.8008 69.8242C85.5508 69.8242 85.3418 69.7988 85.1738 69.748V68.8867C85.3809 68.957 85.5703 68.9922 85.7422 68.9922C86.2266 68.9922 86.5898 68.7031 86.832 68.125L87.3125 66.9883L84.9688 61H86.0352L87.6582 65.6172C87.6777 65.6758 87.7188 65.8281 87.7812 66.0742H87.8164C87.8359 65.9805 87.875 65.832 87.9336 65.6289L89.6387 61H90.6348ZM38.6134 76.34H45.9934V77.144H38.6134V76.34ZM37.2814 78.596H47.1214V79.412H37.2814V78.596ZM38.6134 73.472H39.5974V76.748H38.6134V73.472ZM38.5414 82.856H46.0534V83.672H38.5414V82.856ZM38.5414 80.504H39.5374V83.072H38.5414V80.504ZM52.127 83V74.5977H54.5176C55.2441 74.5977 55.8203 74.7754 56.2461 75.1309C56.6719 75.4863 56.8848 75.9492 56.8848 76.5195C56.8848 76.9961 56.7559 77.4102 56.498 77.7617C56.2402 78.1133 55.8848 78.3633 55.4316 78.5117V78.5352C55.998 78.6016 56.4512 78.8164 56.791 79.1797C57.1309 79.5391 57.3008 80.0078 57.3008 80.5859C57.3008 81.3047 57.043 81.8867 56.5273 82.332C56.0117 82.7773 55.3613 83 54.5762 83H52.127ZM53.1113 75.4883V78.2012H54.1191C54.6582 78.2012 55.082 78.0723 55.3906 77.8145C55.6992 77.5527 55.8535 77.1855 55.8535 76.7129C55.8535 75.8965 55.3164 75.4883 54.2422 75.4883H53.1113ZM53.1113 79.0859V82.1094H54.4473C55.0254 82.1094 55.4727 81.9727 55.7891 81.6992C56.1094 81.4258 56.2695 81.0508 56.2695 80.5742C56.2695 79.582 55.5938 79.0859 54.2422 79.0859H53.1113ZM59.8379 83H58.877V74.1172H59.8379V83ZM64.291 83.1406C63.4043 83.1406 62.6953 82.8613 62.1641 82.3027C61.6367 81.7402 61.373 80.9961 61.373 80.0703C61.373 79.0625 61.6484 78.2754 62.1992 77.709C62.75 77.1426 63.4941 76.8594 64.4316 76.8594C65.3262 76.8594 66.0234 77.1348 66.5234 77.6855C67.0273 78.2363 67.2793 79 67.2793 79.9766C67.2793 80.9336 67.0078 81.7012 66.4648 82.2793C65.9258 82.8535 65.2012 83.1406 64.291 83.1406ZM64.3613 77.668C63.7441 77.668 63.2559 77.8789 62.8965 78.3008C62.5371 78.7188 62.3574 79.2969 62.3574 80.0352C62.3574 80.7461 62.5391 81.3066 62.9023 81.7168C63.2656 82.127 63.752 82.332 64.3613 82.332C64.9824 82.332 65.459 82.1309 65.791 81.7285C66.127 81.3262 66.2949 80.7539 66.2949 80.0117C66.2949 79.2617 66.127 78.6836 65.791 78.2773C65.459 77.8711 64.9824 77.668 64.3613 77.668ZM69.7988 82.1328H69.7754V83H68.8145V74.1172H69.7754V78.0547H69.7988C70.2715 77.2578 70.9629 76.8594 71.873 76.8594C72.6426 76.8594 73.2441 77.1289 73.6777 77.668C74.1152 78.2031 74.334 78.9219 74.334 79.8242C74.334 80.8281 74.0898 81.6328 73.6016 82.2383C73.1133 82.8398 72.4453 83.1406 71.5977 83.1406C70.8047 83.1406 70.2051 82.8047 69.7988 82.1328ZM69.7754 79.7129V80.5508C69.7754 81.0469 69.9355 81.4688 70.2559 81.8164C70.5801 82.1602 70.9902 82.332 71.4863 82.332C72.0684 82.332 72.5234 82.1094 72.8516 81.6641C73.1836 81.2188 73.3496 80.5996 73.3496 79.8066C73.3496 79.1387 73.1953 78.6152 72.8867 78.2363C72.5781 77.8574 72.1602 77.668 71.6328 77.668C71.0742 77.668 70.625 77.8633 70.2852 78.2539C69.9453 78.6406 69.7754 79.127 69.7754 79.7129ZM87.0455 73.076H88.0055V83.936H87.0455V73.076ZM82.5335 77.216H85.2695V78.044H82.5335V77.216ZM84.8615 73.328H85.7975V83.372H84.8615V73.328ZM79.1975 80.492H79.8935C80.4535 80.492 80.9495 80.484 81.3815 80.468C81.8215 80.452 82.2335 80.42 82.6175 80.372C83.0095 80.324 83.4055 80.26 83.8055 80.18L83.9015 81.008C83.4935 81.096 83.0895 81.164 82.6895 81.212C82.2895 81.252 81.8655 81.28 81.4175 81.296C80.9775 81.312 80.4695 81.32 79.8935 81.32H79.1975V80.492ZM79.1975 74.408H83.2655V75.224H80.1695V80.816H79.1975V74.408ZM97.7125 73.076H98.7085V83.948H97.7125V73.076ZM92.9845 73.916C93.5205 73.916 93.9925 74.072 94.4005 74.384C94.8165 74.688 95.1405 75.124 95.3725 75.692C95.6125 76.26 95.7325 76.928 95.7325 77.696C95.7325 78.464 95.6125 79.132 95.3725 79.7C95.1405 80.268 94.8165 80.708 94.4005 81.02C93.9925 81.332 93.5205 81.488 92.9845 81.488C92.4485 81.488 91.9725 81.332 91.5565 81.02C91.1405 80.708 90.8125 80.268 90.5725 79.7C90.3405 79.132 90.2245 78.464 90.2245 77.696C90.2245 76.928 90.3405 76.26 90.5725 75.692C90.8125 75.124 91.1405 74.688 91.5565 74.384C91.9725 74.072 92.4485 73.916 92.9845 73.916ZM92.9845 74.804C92.6245 74.804 92.3085 74.924 92.0365 75.164C91.7725 75.396 91.5645 75.732 91.4125 76.172C91.2605 76.604 91.1845 77.112 91.1845 77.696C91.1845 78.28 91.2605 78.792 91.4125 79.232C91.5645 79.664 91.7725 80 92.0365 80.24C92.3085 80.48 92.6245 80.6 92.9845 80.6C93.3365 80.6 93.6445 80.48 93.9085 80.24C94.1805 80 94.3925 79.664 94.5445 79.232C94.6965 78.792 94.7725 78.28 94.7725 77.696C94.7725 77.112 94.6965 76.604 94.5445 76.172C94.3925 75.732 94.1805 75.396 93.9085 75.164C93.6445 74.924 93.3365 74.804 92.9845 74.804ZM108.812 73.076H109.796V83.948H108.812V73.076ZM106.568 77.168H108.968V77.984H106.568V77.168ZM101.372 80.516H102.188C102.876 80.516 103.488 80.508 104.024 80.492C104.56 80.476 105.068 80.444 105.548 80.396C106.036 80.348 106.532 80.28 107.036 80.192L107.144 81.008C106.624 81.096 106.116 81.164 105.62 81.212C105.124 81.26 104.6 81.296 104.048 81.32C103.504 81.336 102.884 81.344 102.188 81.344H101.372V80.516ZM101.372 74.072H106.388V74.888H102.356V80.792H101.372V74.072ZM102.104 77.12H105.908V77.924H102.104V77.12ZM36.5314 94.116H46.3714V94.884H36.5314V94.116ZM37.7074 95.748H45.1474V98.064H38.7154V99.336H37.7314V97.38H44.1634V96.468H37.7074V95.748ZM37.7314 99.072H45.4954V99.792H37.7314V99.072ZM37.7794 89.4H45.1114V91.656H38.7874V92.832H37.8034V90.984H44.1274V90.108H37.7794V89.4ZM37.8034 92.592H45.3034V93.312H37.8034V92.592ZM58.7714 89.076H59.7674V94.836H58.7714V89.076ZM52.2434 99.024H52.9034C53.4234 99.024 53.8834 99.016 54.2834 99C54.6914 98.992 55.0754 98.972 55.4354 98.94C55.7954 98.908 56.1674 98.856 56.5514 98.784L56.6594 99.54C56.2594 99.612 55.8714 99.664 55.4954 99.696C55.1274 99.736 54.7354 99.76 54.3194 99.768C53.9034 99.784 53.4314 99.792 52.9034 99.792H52.2434V99.024ZM52.2314 95.316H55.8194V97.836H53.2034V99.444H52.2434V97.116H54.8474V96.084H52.2314V95.316ZM56.2874 95.316H59.7674V99.852H58.7834V96.132H56.2874V95.316ZM53.9234 89.568C54.4674 89.568 54.9474 89.672 55.3634 89.88C55.7874 90.088 56.1194 90.376 56.3594 90.744C56.5994 91.104 56.7194 91.524 56.7194 92.004C56.7194 92.484 56.5994 92.908 56.3594 93.276C56.1194 93.644 55.7874 93.932 55.3634 94.14C54.9474 94.34 54.4674 94.44 53.9234 94.44C53.3874 94.44 52.9074 94.34 52.4834 94.14C52.0594 93.932 51.7234 93.644 51.4754 93.276C51.2354 92.908 51.1154 92.484 51.1154 92.004C51.1154 91.524 51.2354 91.104 51.4754 90.744C51.7234 90.376 52.0594 90.088 52.4834 89.88C52.9074 89.672 53.3874 89.568 53.9234 89.568ZM53.9234 90.396C53.5714 90.396 53.2554 90.464 52.9754 90.6C52.7034 90.736 52.4874 90.928 52.3274 91.176C52.1674 91.416 52.0874 91.692 52.0874 92.004C52.0874 92.324 52.1674 92.608 52.3274 92.856C52.4874 93.096 52.7034 93.284 52.9754 93.42C53.2554 93.556 53.5714 93.624 53.9234 93.624C54.2754 93.624 54.5874 93.556 54.8594 93.42C55.1394 93.284 55.3594 93.096 55.5194 92.856C55.6794 92.608 55.7594 92.324 55.7594 92.004C55.7594 91.692 55.6794 91.416 55.5194 91.176C55.3594 90.928 55.1394 90.736 54.8594 90.6C54.5874 90.464 54.2754 90.396 53.9234 90.396ZM66.8105 89.268C68.0105 89.268 68.9465 89.432 69.6185 89.76C70.2905 90.08 70.6265 90.54 70.6265 91.14C70.6265 91.748 70.2905 92.216 69.6185 92.544C68.9465 92.864 68.0105 93.024 66.8105 93.024C65.6185 93.024 64.6825 92.864 64.0025 92.544C63.3305 92.216 62.9945 91.748 62.9945 91.14C62.9945 90.54 63.3305 90.08 64.0025 89.76C64.6825 89.432 65.6185 89.268 66.8105 89.268ZM66.8105 90.012C66.2265 90.012 65.7265 90.056 65.3105 90.144C64.8945 90.232 64.5745 90.36 64.3505 90.528C64.1345 90.696 64.0265 90.9 64.0265 91.14C64.0265 91.38 64.1345 91.588 64.3505 91.764C64.5745 91.932 64.8945 92.06 65.3105 92.148C65.7265 92.228 66.2265 92.268 66.8105 92.268C67.4025 92.268 67.9065 92.228 68.3225 92.148C68.7385 92.06 69.0545 91.932 69.2705 91.764C69.4945 91.588 69.6065 91.38 69.6065 91.14C69.6065 90.9 69.4945 90.696 69.2705 90.528C69.0545 90.36 68.7385 90.232 68.3225 90.144C67.9065 90.056 67.4025 90.012 66.8105 90.012ZM61.9145 93.756H71.7185V94.56H61.9145V93.756ZM63.1025 95.484H70.4585V97.932H64.0985V99.24H63.1265V97.2H69.4865V96.252H63.1025V95.484ZM63.1265 99.036H70.7825V99.816H63.1265V99.036ZM80.6385 89.46H81.5145V90.072C81.5145 90.488 81.4345 90.88 81.2745 91.248C81.1145 91.608 80.8945 91.94 80.6145 92.244C80.3425 92.548 80.0225 92.82 79.6545 93.06C79.2865 93.3 78.8865 93.5 78.4545 93.66C78.0305 93.82 77.5945 93.936 77.1465 94.008L76.7385 93.204C77.1385 93.148 77.5265 93.052 77.9025 92.916C78.2865 92.78 78.6425 92.616 78.9705 92.424C79.2985 92.224 79.5865 92 79.8345 91.752C80.0905 91.504 80.2865 91.24 80.4225 90.96C80.5665 90.672 80.6385 90.376 80.6385 90.072V89.46ZM80.8065 89.46H81.6705V90.072C81.6705 90.376 81.7425 90.668 81.8865 90.948C82.0305 91.228 82.2265 91.492 82.4745 91.74C82.7305 91.988 83.0225 92.212 83.3505 92.412C83.6785 92.612 84.0305 92.78 84.4065 92.916C84.7905 93.052 85.1785 93.148 85.5705 93.204L85.1745 94.008C84.7265 93.936 84.2905 93.82 83.8665 93.66C83.4425 93.492 83.0425 93.288 82.6665 93.048C82.2985 92.808 81.9745 92.536 81.6945 92.232C81.4225 91.928 81.2065 91.596 81.0465 91.236C80.8865 90.868 80.8065 90.48 80.8065 90.072V89.46ZM80.6385 95.808H81.6225V99.936H80.6385V95.808ZM76.2465 95.184H86.0505V96.012H76.2465V95.184ZM91.8145 95.448H92.7505V96.792H94.6465V95.448H95.5705V99.792H91.8145V95.448ZM92.7505 97.548V99.012H94.6465V97.548H92.7505ZM97.6705 95.376H98.4505V96.288C98.4505 96.776 98.3665 97.256 98.1985 97.728C98.0305 98.192 97.7785 98.612 97.4425 98.988C97.1145 99.364 96.7025 99.66 96.2065 99.876L95.7025 99.12C96.1345 98.936 96.4985 98.692 96.7945 98.388C97.0905 98.084 97.3105 97.748 97.4545 97.38C97.5985 97.012 97.6705 96.648 97.6705 96.288V95.376ZM97.8865 95.376H98.6545V96.288C98.6545 96.672 98.7265 97.052 98.8705 97.428C99.0225 97.796 99.2465 98.128 99.5425 98.424C99.8385 98.72 100.203 98.952 100.635 99.12L100.119 99.876C99.6145 99.668 99.1985 99.38 98.8705 99.012C98.5425 98.644 98.2945 98.224 98.1265 97.752C97.9665 97.28 97.8865 96.792 97.8865 96.288V95.376ZM96.0265 91.62H98.9425V92.448H96.0265V91.62ZM93.5425 89.556C94.0785 89.556 94.5545 89.664 94.9705 89.88C95.3945 90.088 95.7265 90.38 95.9665 90.756C96.2065 91.124 96.3265 91.556 96.3265 92.052C96.3265 92.54 96.2065 92.976 95.9665 93.36C95.7265 93.736 95.3945 94.032 94.9705 94.248C94.5545 94.456 94.0785 94.56 93.5425 94.56C92.9985 94.56 92.5145 94.456 92.0905 94.248C91.6745 94.032 91.3465 93.736 91.1065 93.36C90.8665 92.976 90.7465 92.54 90.7465 92.052C90.7465 91.556 90.8665 91.124 91.1065 90.756C91.3465 90.38 91.6745 90.088 92.0905 89.88C92.5145 89.664 92.9985 89.556 93.5425 89.556ZM93.5425 90.384C93.1825 90.384 92.8625 90.456 92.5825 90.6C92.3105 90.736 92.0945 90.932 91.9345 91.188C91.7745 91.436 91.6945 91.724 91.6945 92.052C91.6945 92.38 91.7745 92.672 91.9345 92.928C92.0945 93.176 92.3105 93.372 92.5825 93.516C92.8625 93.66 93.1825 93.732 93.5425 93.732C93.8945 93.732 94.2065 93.66 94.4785 93.516C94.7585 93.372 94.9785 93.176 95.1385 92.928C95.2985 92.672 95.3785 92.38 95.3785 92.052C95.3785 91.724 95.2985 91.436 95.1385 91.188C94.9785 90.932 94.7585 90.736 94.4785 90.6C94.2065 90.456 93.8945 90.384 93.5425 90.384ZM98.5105 89.076H99.5065V94.824H98.5105V89.076ZM102.854 95.592H103.838V96.84H109.154V95.592H110.138V99.792H102.854V95.592ZM103.838 97.62V98.988H109.154V97.62H103.838ZM101.618 94.02H111.422V94.836H101.618V94.02ZM106.01 89.196H106.874V89.688C106.874 90.064 106.794 90.42 106.634 90.756C106.474 91.084 106.254 91.388 105.974 91.668C105.702 91.94 105.382 92.184 105.014 92.4C104.654 92.616 104.262 92.796 103.838 92.94C103.422 93.084 102.99 93.192 102.542 93.264L102.17 92.472C102.562 92.416 102.942 92.328 103.31 92.208C103.686 92.088 104.038 91.944 104.366 91.776C104.694 91.6 104.982 91.404 105.23 91.188C105.478 90.964 105.67 90.728 105.806 90.48C105.942 90.224 106.01 89.96 106.01 89.688V89.196ZM106.178 89.196H107.03V89.688C107.03 89.952 107.098 90.212 107.234 90.468C107.378 90.716 107.574 90.952 107.822 91.176C108.07 91.392 108.354 91.588 108.674 91.764C109.002 91.94 109.35 92.092 109.718 92.22C110.094 92.34 110.474 92.424 110.858 92.472L110.498 93.264C110.05 93.192 109.614 93.084 109.19 92.94C108.774 92.796 108.382 92.616 108.014 92.4C107.654 92.176 107.334 91.924 107.054 91.644C106.782 91.364 106.566 91.06 106.406 90.732C106.254 90.404 106.178 90.056 106.178 89.688V89.196ZM71.4569 105.076H72.4409V115.936H71.4569V105.076ZM64.2449 106.144H65.2289V112.864H64.2449V106.144ZM64.2449 112.276H65.1329C65.9649 112.276 66.8089 112.24 67.6649 112.168C68.5289 112.088 69.4169 111.956 70.3289 111.772L70.4609 112.612C69.5169 112.812 68.6089 112.952 67.7369 113.032C66.8649 113.104 65.9969 113.14 65.1329 113.14H64.2449V112.276ZM81.944 105.076H82.94V115.948H81.944V105.076ZM82.712 109.36H84.716V110.188H82.712V109.36ZM75.068 112.396H75.92C76.584 112.396 77.192 112.388 77.744 112.372C78.304 112.348 78.84 112.308 79.352 112.252C79.872 112.196 80.4 112.12 80.936 112.024L81.056 112.876C80.496 112.972 79.952 113.048 79.424 113.104C78.904 113.16 78.36 113.196 77.792 113.212C77.224 113.228 76.6 113.236 75.92 113.236H75.068V112.396ZM75.068 106.132H80.096V106.948H76.052V112.78H75.068V106.132Z" fill="#020057"/>
</g>
<defs>
<filter id="filter0_dd_3872_62954" x="0.8" y="2.38419e-07" width="146.4" height="146.4" filterUnits="userSpaceOnUse" color-interpolation-filters="sRGB">
<feFlood flood-opacity="0" result="BackgroundImageFix"/>
<feColorMatrix in="SourceAlpha" type="matrix" values="0 0 0 0 0 0 0 0 0 0 0 0 0 0 0 0 0 0 127 0" result="hardAlpha"/>
<feOffset dy="3.2"/>
<feGaussianBlur stdDeviation="3.6"/>
<feColorMatrix type="matrix" values="0 0 0 0 0.513726 0 0 0 0 0.494118 0 0 0 0 1 0 0 0 0.12 0"/>
<feBlend mode="normal" in2="BackgroundImageFix" result="effect1_dropShadow_3872_62954"/>
<feColorMatrix in="SourceAlpha" type="matrix" values="0 0 0 0 0 0 0 0 0 0 0 0 0 0 0 0 0 0 127 0" result="hardAlpha"/>
<feOffset dy="0.6"/>
<feGaussianBlur stdDeviation="0.9"/>
<feColorMatrix type="matrix" values="0 0 0 0 0.513726 0 0 0 0 0.494118 0 0 0 0 1 0 0 0 0.1 0"/>
<feBlend mode="normal" in2="effect1_dropShadow_3872_62954" result="effect2_dropShadow_3872_62954"/>
<feBlend mode="normal" in="SourceGraphic" in2="effect2_dropShadow_3872_62954" result="shape"/>
</filter>
</defs>
</svg>
