<svg width="100%" viewBox="0 0 148 147" fill="none" xmlns="http://www.w3.org/2000/svg">
<g filter="url(#filter0_dd_3872_62956)">
<rect x="8" y="4" width="132" height="132" fill="#FBFBFE"/>
<rect x="8.5" y="4.5" width="131" height="131" stroke="#827DFF" stroke-dasharray="4 4"/>
<rect width="100" height="96" transform="translate(24 22)" fill="#FBFBFE"/>
<path d="M79.75 33C81.5449 33 83 34.4551 83 36.25V47.75C83 49.5449 81.5449 51 79.75 51H68.25C66.4551 51 65 49.5449 65 47.75V36.25C65 34.4551 66.4551 33 68.25 33H79.75ZM80.3305 49.4014L74.5247 43.7148C74.2596 43.4553 73.8501 43.4316 73.5588 43.644L73.4752 43.7148L67.6685 49.4011C67.8504 49.4651 68.0461 49.5 68.25 49.5H79.75C79.9535 49.5 80.1489 49.4653 80.3305 49.4014L74.5247 43.7148L80.3305 49.4014ZM79.75 34.5H68.25C67.2835 34.5 66.5 35.2835 66.5 36.25V47.75C66.5 47.9584 66.5364 48.1583 66.6033 48.3437L72.4258 42.643C73.2589 41.8273 74.5675 41.7885 75.4458 42.5266L75.5742 42.6431L81.3964 48.3447C81.4634 48.159 81.5 47.9588 81.5 47.75V36.25C81.5 35.2835 80.7165 34.5 79.75 34.5ZM77.2521 36.5C78.4959 36.5 79.5042 37.5083 79.5042 38.7521C79.5042 39.9959 78.4959 41.0042 77.2521 41.0042C76.0083 41.0042 75 39.9959 75 38.7521C75 37.5083 76.0083 36.5 77.2521 36.5ZM77.2521 38C76.8367 38 76.5 38.3367 76.5 38.7521C76.5 39.1675 76.8367 39.5042 77.2521 39.5042C77.6675 39.5042 78.0042 39.1675 78.0042 38.7521C78.0042 38.3367 77.6675 38 77.2521 38Z" fill="#020057"/>
<path d="M44.0059 75.1406C42.8145 75.1406 41.8594 74.748 41.1406 73.9629C40.4258 73.1777 40.0684 72.1562 40.0684 70.8984C40.0684 69.5469 40.4336 68.4688 41.1641 67.6641C41.8945 66.8594 42.8887 66.457 44.1465 66.457C45.3066 66.457 46.2402 66.8477 46.9473 67.6289C47.6582 68.4102 48.0137 69.4316 48.0137 70.6934C48.0137 72.0645 47.6504 73.1484 46.9238 73.9453C46.1973 74.7422 45.2246 75.1406 44.0059 75.1406ZM44.0762 67.3477C43.1934 67.3477 42.4766 67.666 41.9258 68.3027C41.375 68.9395 41.0996 69.7754 41.0996 70.8105C41.0996 71.8457 41.3672 72.6797 41.9023 73.3125C42.4414 73.9414 43.1426 74.2559 44.0059 74.2559C44.9277 74.2559 45.6543 73.9551 46.1855 73.3535C46.7168 72.752 46.9824 71.9102 46.9824 70.8281C46.9824 69.7188 46.7246 68.8613 46.209 68.2559C45.6934 67.6504 44.9824 67.3477 44.0762 67.3477ZM58.6777 74.6484C58.0566 74.9766 57.2832 75.1406 56.3574 75.1406C55.1621 75.1406 54.2051 74.7559 53.4863 73.9863C52.7676 73.2168 52.4082 72.207 52.4082 70.957C52.4082 69.6133 52.8125 68.5273 53.6211 67.6992C54.4297 66.8711 55.4551 66.457 56.6973 66.457C57.4941 66.457 58.1543 66.5723 58.6777 66.8027V67.8516C58.0762 67.5156 57.4121 67.3477 56.6855 67.3477C55.7207 67.3477 54.9375 67.6699 54.3359 68.3145C53.7383 68.959 53.4395 69.8203 53.4395 70.8984C53.4395 71.9219 53.7188 72.7383 54.2773 73.3477C54.8398 73.9531 55.5762 74.2559 56.4863 74.2559C57.3301 74.2559 58.0605 74.0684 58.6777 73.6934V74.6484ZM61.2207 75H60.2598V66.1172H61.2207V75ZM67.4609 75H66.5V74.0625H66.4766C66.0586 74.7812 65.4434 75.1406 64.6309 75.1406C64.0332 75.1406 63.5645 74.9824 63.2246 74.666C62.8887 74.3496 62.7207 73.9297 62.7207 73.4062C62.7207 72.2852 63.3809 71.6328 64.7012 71.4492L66.5 71.1973C66.5 70.1777 66.0879 69.668 65.2637 69.668C64.541 69.668 63.8887 69.9141 63.3066 70.4062V69.4219C63.8965 69.0469 64.5762 68.8594 65.3457 68.8594C66.7559 68.8594 67.4609 69.6055 67.4609 71.0977V75ZM66.5 71.9648L65.0527 72.1641C64.6074 72.2266 64.2715 72.3379 64.0449 72.498C63.8184 72.6543 63.7051 72.9336 63.7051 73.3359C63.7051 73.6289 63.8086 73.8691 64.0156 74.0566C64.2266 74.2402 64.5059 74.332 64.8535 74.332C65.3301 74.332 65.7227 74.166 66.0312 73.834C66.3438 73.498 66.5 73.0742 66.5 72.5625V71.9648ZM72.4004 69.9727C72.2324 69.8438 71.9902 69.7793 71.6738 69.7793C71.2637 69.7793 70.9199 69.9727 70.6426 70.3594C70.3691 70.7461 70.2324 71.2734 70.2324 71.9414V75H69.2715V69H70.2324V70.2363H70.2559C70.3926 69.8145 70.6016 69.4863 70.8828 69.252C71.1641 69.0137 71.4785 68.8945 71.8262 68.8945C72.0762 68.8945 72.2676 68.9219 72.4004 68.9766V69.9727ZM73.9355 67.4766C73.7637 67.4766 73.6172 67.418 73.4961 67.3008C73.375 67.1836 73.3145 67.0352 73.3145 66.8555C73.3145 66.6758 73.375 66.5273 73.4961 66.4102C73.6172 66.2891 73.7637 66.2285 73.9355 66.2285C74.1113 66.2285 74.2598 66.2891 74.3809 66.4102C74.5059 66.5273 74.5684 66.6758 74.5684 66.8555C74.5684 67.0273 74.5059 67.1738 74.3809 67.2949C74.2598 67.416 74.1113 67.4766 73.9355 67.4766ZM74.4043 75H73.4434V69H74.4043V75ZM79.1328 74.9414C78.9062 75.0664 78.6074 75.1289 78.2363 75.1289C77.1855 75.1289 76.6602 74.543 76.6602 73.3711V69.8203H75.6289V69H76.6602V67.5352L77.6211 67.2246V69H79.1328V69.8203H77.6211V73.2012C77.6211 73.6035 77.6895 73.8906 77.8262 74.0625C77.9629 74.2344 78.1895 74.3203 78.5059 74.3203C78.748 74.3203 78.957 74.2539 79.1328 74.1211V74.9414ZM85.1914 69L82.4316 75.9609C81.9395 77.2031 81.248 77.8242 80.3574 77.8242C80.1074 77.8242 79.8984 77.7988 79.7305 77.748V76.8867C79.9375 76.957 80.127 76.9922 80.2988 76.9922C80.7832 76.9922 81.1465 76.7031 81.3887 76.125L81.8691 74.9883L79.5254 69H80.5918L82.2148 73.6172C82.2344 73.6758 82.2754 73.8281 82.3379 74.0742H82.373C82.3926 73.9805 82.4316 73.832 82.4902 73.6289L84.1953 69H85.1914ZM94.502 75H93.541V71.5781C93.541 70.3047 93.0762 69.668 92.1465 69.668C91.666 69.668 91.2676 69.8496 90.9512 70.2129C90.6387 70.5723 90.4824 71.0273 90.4824 71.5781V75H89.5215V69H90.4824V69.9961H90.5059C90.959 69.2383 91.6152 68.8594 92.4746 68.8594C93.1309 68.8594 93.6328 69.0723 93.9805 69.498C94.3281 69.9199 94.502 70.5312 94.502 71.332V75ZM100.613 75H99.6523V74.0625H99.6289C99.2109 74.7812 98.5957 75.1406 97.7832 75.1406C97.1855 75.1406 96.7168 74.9824 96.377 74.666C96.041 74.3496 95.873 73.9297 95.873 73.4062C95.873 72.2852 96.5332 71.6328 97.8535 71.4492L99.6523 71.1973C99.6523 70.1777 99.2402 69.668 98.416 69.668C97.6934 69.668 97.041 69.9141 96.459 70.4062V69.4219C97.0488 69.0469 97.7285 68.8594 98.498 68.8594C99.9082 68.8594 100.613 69.6055 100.613 71.0977V75ZM99.6523 71.9648L98.2051 72.1641C97.7598 72.2266 97.4238 72.3379 97.1973 72.498C96.9707 72.6543 96.8574 72.9336 96.8574 73.3359C96.8574 73.6289 96.9609 73.8691 97.168 74.0566C97.3789 74.2402 97.6582 74.332 98.0059 74.332C98.4824 74.332 98.875 74.166 99.1836 73.834C99.4961 73.498 99.6523 73.0742 99.6523 72.5625V71.9648ZM100.291 66.457C100.291 66.8672 100.197 67.2031 100.01 67.4648C99.8223 67.7227 99.5684 67.8516 99.248 67.8516C98.9707 67.8516 98.6543 67.75 98.2988 67.5469C97.998 67.3789 97.7656 67.2949 97.6016 67.2949C97.2578 67.2949 97.0859 67.5156 97.0859 67.957H96.5352C96.5352 67.5391 96.6289 67.2051 96.8164 66.9551C97.0039 66.7012 97.2656 66.5742 97.6016 66.5742C97.8555 66.5742 98.1465 66.6758 98.4746 66.8789C98.7637 67.0508 99.0137 67.1367 99.2246 67.1367C99.5527 67.1367 99.7168 66.9102 99.7168 66.457H100.291ZM104.932 75.1406C104.045 75.1406 103.336 74.8613 102.805 74.3027C102.277 73.7402 102.014 72.9961 102.014 72.0703C102.014 71.0625 102.289 70.2754 102.84 69.709C103.391 69.1426 104.135 68.8594 105.072 68.8594C105.967 68.8594 106.664 69.1348 107.164 69.6855C107.668 70.2363 107.92 71 107.92 71.9766C107.92 72.9336 107.648 73.7012 107.105 74.2793C106.566 74.8535 105.842 75.1406 104.932 75.1406ZM105.002 69.668C104.385 69.668 103.896 69.8789 103.537 70.3008C103.178 70.7188 102.998 71.2969 102.998 72.0352C102.998 72.7461 103.18 73.3066 103.543 73.7168C103.906 74.127 104.393 74.332 105.002 74.332C105.623 74.332 106.1 74.1309 106.432 73.7285C106.768 73.3262 106.936 72.7539 106.936 72.0117C106.936 71.2617 106.768 70.6836 106.432 70.2773C106.1 69.8711 105.623 69.668 105.002 69.668ZM36.084 90.1328H36.0605V93.7598H35.0996V85H36.0605V86.0547H36.084C36.5566 85.2578 37.248 84.8594 38.1582 84.8594C38.9316 84.8594 39.5352 85.1289 39.9688 85.668C40.4023 86.2031 40.6191 86.9219 40.6191 87.8242C40.6191 88.8281 40.375 89.6328 39.8867 90.2383C39.3984 90.8398 38.7305 91.1406 37.8828 91.1406C37.1055 91.1406 36.5059 90.8047 36.084 90.1328ZM36.0605 87.7129V88.5508C36.0605 89.0469 36.2207 89.4688 36.541 89.8164C36.8652 90.1602 37.2754 90.332 37.7715 90.332C38.3535 90.332 38.8086 90.1094 39.1367 89.6641C39.4688 89.2188 39.6348 88.5996 39.6348 87.8066C39.6348 87.1387 39.4805 86.6152 39.1719 86.2363C38.8633 85.8574 38.4453 85.668 37.918 85.668C37.3594 85.668 36.9102 85.8633 36.5703 86.2539C36.2305 86.6406 36.0605 87.127 36.0605 87.7129ZM44.6621 91.1406C43.7754 91.1406 43.0664 90.8613 42.5352 90.3027C42.0078 89.7402 41.7441 88.9961 41.7441 88.0703C41.7441 87.0625 42.0195 86.2754 42.5703 85.709C43.1211 85.1426 43.8652 84.8594 44.8027 84.8594C45.6973 84.8594 46.3945 85.1348 46.8945 85.6855C47.3984 86.2363 47.6504 87 47.6504 87.9766C47.6504 88.9336 47.3789 89.7012 46.8359 90.2793C46.2969 90.8535 45.5723 91.1406 44.6621 91.1406ZM44.7324 85.668C44.1152 85.668 43.627 85.8789 43.2676 86.3008C42.9082 86.7188 42.7285 87.2969 42.7285 88.0352C42.7285 88.7461 42.9102 89.3066 43.2734 89.7168C43.6367 90.127 44.123 90.332 44.7324 90.332C45.3535 90.332 45.8301 90.1309 46.1621 89.7285C46.498 89.3262 46.666 88.7539 46.666 88.0117C46.666 87.2617 46.498 86.6836 46.1621 86.2773C45.8301 85.8711 45.3535 85.668 44.7324 85.668ZM54.3066 91H53.3457V89.9805H53.3223C52.877 90.7539 52.1895 91.1406 51.2598 91.1406C50.5059 91.1406 49.9023 90.873 49.4492 90.3379C49 89.7988 48.7754 89.0664 48.7754 88.1406C48.7754 87.1484 49.0254 86.3535 49.5254 85.7559C50.0254 85.1582 50.6914 84.8594 51.5234 84.8594C52.3477 84.8594 52.9473 85.1836 53.3223 85.832H53.3457V82.1172H54.3066V91ZM53.3457 88.2871V87.4023C53.3457 86.918 53.1855 86.5078 52.8652 86.1719C52.5449 85.8359 52.1387 85.668 51.6465 85.668C51.0605 85.668 50.5996 85.8828 50.2637 86.3125C49.9277 86.7422 49.7598 87.3359 49.7598 88.0938C49.7598 88.7852 49.9199 89.332 50.2402 89.7344C50.5645 90.1328 50.998 90.332 51.541 90.332C52.0762 90.332 52.5098 90.1387 52.8418 89.752C53.1777 89.3652 53.3457 88.877 53.3457 88.2871ZM61.0742 88.2402H56.8379C56.8535 88.9082 57.0332 89.4238 57.377 89.7871C57.7207 90.1504 58.1934 90.332 58.7949 90.332C59.4707 90.332 60.0918 90.1094 60.6582 89.6641V90.5664C60.1309 90.9492 59.4336 91.1406 58.5664 91.1406C57.7188 91.1406 57.0527 90.8691 56.5684 90.3262C56.084 89.7793 55.8418 89.0117 55.8418 88.0234C55.8418 87.0898 56.1055 86.3301 56.6328 85.7441C57.1641 85.1543 57.8223 84.8594 58.6074 84.8594C59.3926 84.8594 60 85.1133 60.4297 85.6211C60.8594 86.1289 61.0742 86.834 61.0742 87.7363V88.2402ZM60.0898 87.4258C60.0859 86.8711 59.9512 86.4395 59.6855 86.1309C59.4238 85.8223 59.0586 85.668 58.5898 85.668C58.1367 85.668 57.752 85.8301 57.4355 86.1543C57.1191 86.4785 56.9238 86.9023 56.8496 87.4258H60.0898ZM66.7871 91H65.8262V82.1172H66.7871V91ZM73.5547 88.2402H69.3184C69.334 88.9082 69.5137 89.4238 69.8574 89.7871C70.2012 90.1504 70.6738 90.332 71.2754 90.332C71.9512 90.332 72.5723 90.1094 73.1387 89.6641V90.5664C72.6113 90.9492 71.9141 91.1406 71.0469 91.1406C70.1992 91.1406 69.5332 90.8691 69.0488 90.3262C68.5645 89.7793 68.3223 89.0117 68.3223 88.0234C68.3223 87.0898 68.5859 86.3301 69.1133 85.7441C69.6445 85.1543 70.3027 84.8594 71.0879 84.8594C71.873 84.8594 72.4805 85.1133 72.9102 85.6211C73.3398 86.1289 73.5547 86.834 73.5547 87.7363V88.2402ZM72.5703 87.4258C72.5664 86.8711 72.4316 86.4395 72.166 86.1309C71.9043 85.8223 71.5391 85.668 71.0703 85.668C70.6172 85.668 70.2324 85.8301 69.916 86.1543C69.5996 86.4785 69.4043 86.9023 69.3301 87.4258H72.5703ZM78.1426 85.9727C77.9746 85.8438 77.7324 85.7793 77.416 85.7793C77.0059 85.7793 76.6621 85.9727 76.3848 86.3594C76.1113 86.7461 75.9746 87.2734 75.9746 87.9414V91H75.0137V85H75.9746V86.2363H75.998C76.1348 85.8145 76.3438 85.4863 76.625 85.252C76.9062 85.0137 77.2207 84.8945 77.5684 84.8945C77.8184 84.8945 78.0098 84.9219 78.1426 84.9766V85.9727ZM87.5996 91H86.6387V89.9805H86.6152C86.1699 90.7539 85.4824 91.1406 84.5527 91.1406C83.7988 91.1406 83.1953 90.873 82.7422 90.3379C82.293 89.7988 82.0684 89.0664 82.0684 88.1406C82.0684 87.1484 82.3184 86.3535 82.8184 85.7559C83.3184 85.1582 83.9844 84.8594 84.8164 84.8594C85.6406 84.8594 86.2402 85.1836 86.6152 85.832H86.6387V82.1172H87.5996V91ZM86.6387 88.2871V87.4023C86.6387 86.918 86.4785 86.5078 86.1582 86.1719C85.8379 85.8359 85.4316 85.668 84.9395 85.668C84.3535 85.668 83.8926 85.8828 83.5566 86.3125C83.2207 86.7422 83.0527 87.3359 83.0527 88.0938C83.0527 88.7852 83.2129 89.332 83.5332 89.7344C83.8574 90.1328 84.291 90.332 84.834 90.332C85.3691 90.332 85.8027 90.1387 86.1348 89.752C86.4707 89.3652 86.6387 88.877 86.6387 88.2871ZM93.8398 91H92.8789V90.0625H92.8555C92.4375 90.7812 91.8223 91.1406 91.0098 91.1406C90.4121 91.1406 89.9434 90.9824 89.6035 90.666C89.2676 90.3496 89.0996 89.9297 89.0996 89.4062C89.0996 88.2852 89.7598 87.6328 91.0801 87.4492L92.8789 87.1973C92.8789 86.1777 92.4668 85.668 91.6426 85.668C90.9199 85.668 90.2676 85.9141 89.6855 86.4062V85.4219C90.2754 85.0469 90.9551 84.8594 91.7246 84.8594C93.1348 84.8594 93.8398 85.6055 93.8398 87.0977V91ZM92.8789 87.9648L91.4316 88.1641C90.9863 88.2266 90.6504 88.3379 90.4238 88.498C90.1973 88.6543 90.084 88.9336 90.084 89.3359C90.084 89.6289 90.1875 89.8691 90.3945 90.0566C90.6055 90.2402 90.8848 90.332 91.2324 90.332C91.709 90.332 92.1016 90.166 92.4102 89.834C92.7227 89.498 92.8789 89.0742 92.8789 88.5625V87.9648ZM100.771 91H99.8105V89.9805H99.7871C99.3418 90.7539 98.6543 91.1406 97.7246 91.1406C96.9707 91.1406 96.3672 90.873 95.9141 90.3379C95.4648 89.7988 95.2402 89.0664 95.2402 88.1406C95.2402 87.1484 95.4902 86.3535 95.9902 85.7559C96.4902 85.1582 97.1562 84.8594 97.9883 84.8594C98.8125 84.8594 99.4121 85.1836 99.7871 85.832H99.8105V82.1172H100.771V91ZM99.8105 88.2871V87.4023C99.8105 86.918 99.6504 86.5078 99.3301 86.1719C99.0098 85.8359 98.6035 85.668 98.1113 85.668C97.5254 85.668 97.0645 85.8828 96.7285 86.3125C96.3926 86.7422 96.2246 87.3359 96.2246 88.0938C96.2246 88.7852 96.3848 89.332 96.7051 89.7344C97.0293 90.1328 97.4629 90.332 98.0059 90.332C98.541 90.332 98.9746 90.1387 99.3066 89.752C99.6426 89.3652 99.8105 88.877 99.8105 88.2871ZM105.225 91.1406C104.338 91.1406 103.629 90.8613 103.098 90.3027C102.57 89.7402 102.307 88.9961 102.307 88.0703C102.307 87.0625 102.582 86.2754 103.133 85.709C103.684 85.1426 104.428 84.8594 105.365 84.8594C106.26 84.8594 106.957 85.1348 107.457 85.6855C107.961 86.2363 108.213 87 108.213 87.9766C108.213 88.9336 107.941 89.7012 107.398 90.2793C106.859 90.8535 106.135 91.1406 105.225 91.1406ZM105.295 85.668C104.678 85.668 104.189 85.8789 103.83 86.3008C103.471 86.7188 103.291 87.2969 103.291 88.0352C103.291 88.7461 103.473 89.3066 103.836 89.7168C104.199 90.127 104.686 90.332 105.295 90.332C105.916 90.332 106.393 90.1309 106.725 89.7285C107.061 89.3262 107.229 88.7539 107.229 88.0117C107.229 87.2617 107.061 86.6836 106.725 86.2773C106.393 85.8711 105.916 85.668 105.295 85.668ZM109.385 90.7832V89.752C109.908 90.1387 110.484 90.332 111.113 90.332C111.957 90.332 112.379 90.0508 112.379 89.4883C112.379 89.3281 112.342 89.1934 112.268 89.084C112.197 88.9707 112.1 88.8711 111.975 88.7852C111.854 88.6992 111.709 88.623 111.541 88.5566C111.377 88.4863 111.199 88.4141 111.008 88.3398C110.742 88.2344 110.508 88.1289 110.305 88.0234C110.105 87.9141 109.938 87.793 109.801 87.6602C109.668 87.5234 109.566 87.3691 109.496 87.1973C109.43 87.0254 109.396 86.8242 109.396 86.5938C109.396 86.3125 109.461 86.0645 109.59 85.8496C109.719 85.6309 109.891 85.4492 110.105 85.3047C110.32 85.1562 110.564 85.0449 110.838 84.9707C111.115 84.8965 111.4 84.8594 111.693 84.8594C112.213 84.8594 112.678 84.9492 113.088 85.1289V86.1016C112.646 85.8125 112.139 85.668 111.564 85.668C111.385 85.668 111.223 85.6895 111.078 85.7324C110.934 85.7715 110.809 85.8281 110.703 85.9023C110.602 85.9766 110.521 86.0664 110.463 86.1719C110.408 86.2734 110.381 86.3867 110.381 86.5117C110.381 86.668 110.408 86.7988 110.463 86.9043C110.521 87.0098 110.605 87.1035 110.715 87.1855C110.824 87.2676 110.957 87.3418 111.113 87.4082C111.27 87.4746 111.447 87.5469 111.646 87.625C111.912 87.7266 112.15 87.832 112.361 87.9414C112.572 88.0469 112.752 88.168 112.9 88.3047C113.049 88.4375 113.162 88.5918 113.24 88.7676C113.322 88.9434 113.363 89.1523 113.363 89.3945C113.363 89.6914 113.297 89.9492 113.164 90.168C113.035 90.3867 112.861 90.5684 112.643 90.7129C112.424 90.8574 112.172 90.9648 111.887 91.0352C111.602 91.1055 111.303 91.1406 110.99 91.1406C110.373 91.1406 109.838 91.0215 109.385 90.7832ZM59.75 107H58.7891V105.98H58.7656C58.3203 106.754 57.6328 107.141 56.7031 107.141C55.9492 107.141 55.3457 106.873 54.8926 106.338C54.4434 105.799 54.2188 105.066 54.2188 104.141C54.2188 103.148 54.4688 102.354 54.9688 101.756C55.4688 101.158 56.1348 100.859 56.9668 100.859C57.791 100.859 58.3906 101.184 58.7656 101.832H58.7891V98.1172H59.75V107ZM58.7891 104.287V103.402C58.7891 102.918 58.6289 102.508 58.3086 102.172C57.9883 101.836 57.582 101.668 57.0898 101.668C56.5039 101.668 56.043 101.883 55.707 102.312C55.3711 102.742 55.2031 103.336 55.2031 104.094C55.2031 104.785 55.3633 105.332 55.6836 105.734C56.0078 106.133 56.4414 106.332 56.9844 106.332C57.5195 106.332 57.9531 106.139 58.2852 105.752C58.6211 105.365 58.7891 104.877 58.7891 104.287ZM66.5176 104.24H62.2812C62.2969 104.908 62.4766 105.424 62.8203 105.787C63.1641 106.15 63.6367 106.332 64.2383 106.332C64.9141 106.332 65.5352 106.109 66.1016 105.664V106.566C65.5742 106.949 64.877 107.141 64.0098 107.141C63.1621 107.141 62.4961 106.869 62.0117 106.326C61.5273 105.779 61.2852 105.012 61.2852 104.023C61.2852 103.09 61.5488 102.33 62.0762 101.744C62.6074 101.154 63.2656 100.859 64.0508 100.859C64.8359 100.859 65.4434 101.113 65.873 101.621C66.3027 102.129 66.5176 102.834 66.5176 103.736V104.24ZM65.5332 103.426C65.5293 102.871 65.3945 102.439 65.1289 102.131C64.8672 101.822 64.502 101.668 64.0332 101.668C63.5801 101.668 63.1953 101.83 62.8789 102.154C62.5625 102.479 62.3672 102.902 62.293 103.426H65.5332ZM72.2539 106.133H72.2305V107H71.2695V98.1172H72.2305V102.055H72.2539C72.7266 101.258 73.418 100.859 74.3281 100.859C75.0977 100.859 75.6992 101.129 76.1328 101.668C76.5703 102.203 76.7891 102.922 76.7891 103.824C76.7891 104.828 76.5449 105.633 76.0566 106.238C75.5684 106.84 74.9004 107.141 74.0527 107.141C73.2598 107.141 72.6602 106.805 72.2539 106.133ZM72.2305 103.713V104.551C72.2305 105.047 72.3906 105.469 72.7109 105.816C73.0352 106.16 73.4453 106.332 73.9414 106.332C74.5234 106.332 74.9785 106.109 75.3066 105.664C75.6387 105.219 75.8047 104.6 75.8047 103.807C75.8047 103.139 75.6504 102.615 75.3418 102.236C75.0332 101.857 74.6152 101.668 74.0879 101.668C73.5293 101.668 73.0801 101.863 72.7402 102.254C72.4004 102.641 72.2305 103.127 72.2305 103.713ZM79.2852 107H78.3242V98.1172H79.2852V107ZM83.7383 107.141C82.8516 107.141 82.1426 106.861 81.6113 106.303C81.084 105.74 80.8203 104.996 80.8203 104.07C80.8203 103.062 81.0957 102.275 81.6465 101.709C82.1973 101.143 82.9414 100.859 83.8789 100.859C84.7734 100.859 85.4707 101.135 85.9707 101.686C86.4746 102.236 86.7266 103 86.7266 103.977C86.7266 104.934 86.4551 105.701 85.9121 106.279C85.373 106.854 84.6484 107.141 83.7383 107.141ZM83.8086 101.668C83.1914 101.668 82.7031 101.879 82.3438 102.301C81.9844 102.719 81.8047 103.297 81.8047 104.035C81.8047 104.746 81.9863 105.307 82.3496 105.717C82.7129 106.127 83.1992 106.332 83.8086 106.332C84.4297 106.332 84.9062 106.131 85.2383 105.729C85.5742 105.326 85.7422 104.754 85.7422 104.012C85.7422 103.262 85.5742 102.684 85.2383 102.277C84.9062 101.871 84.4297 101.668 83.8086 101.668ZM89.2461 106.133H89.2227V107H88.2617V98.1172H89.2227V102.055H89.2461C89.7188 101.258 90.4102 100.859 91.3203 100.859C92.0898 100.859 92.6914 101.129 93.125 101.668C93.5625 102.203 93.7812 102.922 93.7812 103.824C93.7812 104.828 93.5371 105.633 93.0488 106.238C92.5605 106.84 91.8926 107.141 91.0449 107.141C90.252 107.141 89.6523 106.805 89.2461 106.133ZM89.2227 103.713V104.551C89.2227 105.047 89.3828 105.469 89.7031 105.816C90.0273 106.16 90.4375 106.332 90.9336 106.332C91.5156 106.332 91.9707 106.109 92.2988 105.664C92.6309 105.219 92.7969 104.6 92.7969 103.807C92.7969 103.139 92.6426 102.615 92.334 102.236C92.0254 101.857 91.6074 101.668 91.0801 101.668C90.5215 101.668 90.0723 101.863 89.7324 102.254C89.3926 102.641 89.2227 103.127 89.2227 103.713Z" fill="#020057"/>
</g>
<defs>
<filter id="filter0_dd_3872_62956" x="0.8" y="2.38419e-07" width="146.4" height="146.4" filterUnits="userSpaceOnUse" color-interpolation-filters="sRGB">
<feFlood flood-opacity="0" result="BackgroundImageFix"/>
<feColorMatrix in="SourceAlpha" type="matrix" values="0 0 0 0 0 0 0 0 0 0 0 0 0 0 0 0 0 0 127 0" result="hardAlpha"/>
<feOffset dy="3.2"/>
<feGaussianBlur stdDeviation="3.6"/>
<feColorMatrix type="matrix" values="0 0 0 0 0.513726 0 0 0 0 0.494118 0 0 0 0 1 0 0 0 0.12 0"/>
<feBlend mode="normal" in2="BackgroundImageFix" result="effect1_dropShadow_3872_62956"/>
<feColorMatrix in="SourceAlpha" type="matrix" values="0 0 0 0 0 0 0 0 0 0 0 0 0 0 0 0 0 0 127 0" result="hardAlpha"/>
<feOffset dy="0.6"/>
<feGaussianBlur stdDeviation="0.9"/>
<feColorMatrix type="matrix" values="0 0 0 0 0.513726 0 0 0 0 0.494118 0 0 0 0 1 0 0 0 0.1 0"/>
<feBlend mode="normal" in2="effect1_dropShadow_3872_62956" result="effect2_dropShadow_3872_62956"/>
<feBlend mode="normal" in="SourceGraphic" in2="effect2_dropShadow_3872_62956" result="shape"/>
</filter>
</defs>
</svg>
