<svg width="100%" viewBox="0 0 148 147" fill="none" xmlns="http://www.w3.org/2000/svg">
<g filter="url(#filter0_dd_3872_62957)">
<rect x="8" y="4" width="132" height="132" fill="#FBFBFE"/>
<rect x="8.5" y="4.5" width="131" height="131" stroke="#827DFF" stroke-dasharray="4 4"/>
<rect width="100" height="128" transform="translate(24 6)" fill="#FBFBFE"/>
<path d="M79.75 17C81.5449 17 83 18.4551 83 20.25V31.75C83 33.5449 81.5449 35 79.75 35H68.25C66.4551 35 65 33.5449 65 31.75V20.25C65 18.4551 66.4551 17 68.25 17H79.75ZM80.3305 33.4014L74.5247 27.7148C74.2596 27.4553 73.8501 27.4316 73.5588 27.644L73.4752 27.7148L67.6685 33.4011C67.8504 33.4651 68.0461 33.5 68.25 33.5H79.75C79.9535 33.5 80.1489 33.4653 80.3305 33.4014L74.5247 27.7148L80.3305 33.4014ZM79.75 18.5H68.25C67.2835 18.5 66.5 19.2835 66.5 20.25V31.75C66.5 31.9584 66.5364 32.1583 66.6033 32.3437L72.4258 26.643C73.2589 25.8273 74.5675 25.7885 75.4458 26.5266L75.5742 26.6431L81.3964 32.3447C81.4634 32.159 81.5 31.9588 81.5 31.75V20.25C81.5 19.2835 80.7165 18.5 79.75 18.5ZM77.2521 20.5C78.4959 20.5 79.5042 21.5083 79.5042 22.7521C79.5042 23.9959 78.4959 25.0042 77.2521 25.0042C76.0083 25.0042 75 23.9959 75 22.7521C75 21.5083 76.0083 20.5 77.2521 20.5ZM77.2521 22C76.8367 22 76.5 22.3367 76.5 22.7521C76.5 23.1675 76.8367 23.5042 77.2521 23.5042C77.6675 23.5042 78.0042 23.1675 78.0042 22.7521C78.0042 22.3367 77.6675 22 77.2521 22Z" fill="#020057"/>
<path d="M55.8711 58.6484C55.25 58.9766 54.4766 59.1406 53.5508 59.1406C52.3555 59.1406 51.3984 58.7559 50.6797 57.9863C49.9609 57.2168 49.6016 56.207 49.6016 54.957C49.6016 53.6133 50.0059 52.5273 50.8145 51.6992C51.623 50.8711 52.6484 50.457 53.8906 50.457C54.6875 50.457 55.3477 50.5723 55.8711 50.8027V51.8516C55.2695 51.5156 54.6055 51.3477 53.8789 51.3477C52.9141 51.3477 52.1309 51.6699 51.5293 52.3145C50.9316 52.959 50.6328 53.8203 50.6328 54.8984C50.6328 55.9219 50.9121 56.7383 51.4707 57.3477C52.0332 57.9531 52.7695 58.2559 53.6797 58.2559C54.5234 58.2559 55.2539 58.0684 55.8711 57.6934V58.6484ZM58.4141 59H57.4531V50.1172H58.4141V59ZM64.6543 59H63.6934V58.0625H63.6699C63.252 58.7812 62.6367 59.1406 61.8242 59.1406C61.2266 59.1406 60.7578 58.9824 60.418 58.666C60.082 58.3496 59.9141 57.9297 59.9141 57.4062C59.9141 56.2852 60.5742 55.6328 61.8945 55.4492L63.6934 55.1973C63.6934 54.1777 63.2812 53.668 62.457 53.668C61.7344 53.668 61.082 53.9141 60.5 54.4062V53.4219C61.0898 53.0469 61.7695 52.8594 62.5391 52.8594C63.9492 52.8594 64.6543 53.6055 64.6543 55.0977V59ZM63.6934 55.9648L62.2461 56.1641C61.8008 56.2266 61.4648 56.3379 61.2383 56.498C61.0117 56.6543 60.8984 56.9336 60.8984 57.3359C60.8984 57.6289 61.002 57.8691 61.209 58.0566C61.4199 58.2402 61.6992 58.332 62.0469 58.332C62.5234 58.332 62.916 58.166 63.2246 57.834C63.5371 57.498 63.6934 57.0742 63.6934 56.5625V55.9648ZM69.5938 53.9727C69.4258 53.8438 69.1836 53.7793 68.8672 53.7793C68.457 53.7793 68.1133 53.9727 67.8359 54.3594C67.5625 54.7461 67.4258 55.2734 67.4258 55.9414V59H66.4648V53H67.4258V54.2363H67.4492C67.5859 53.8145 67.7949 53.4863 68.0762 53.252C68.3574 53.0137 68.6719 52.8945 69.0195 52.8945C69.2695 52.8945 69.4609 52.9219 69.5938 52.9766V53.9727ZM71.1289 51.4766C70.957 51.4766 70.8105 51.418 70.6895 51.3008C70.5684 51.1836 70.5078 51.0352 70.5078 50.8555C70.5078 50.6758 70.5684 50.5273 70.6895 50.4102C70.8105 50.2891 70.957 50.2285 71.1289 50.2285C71.3047 50.2285 71.4531 50.2891 71.5742 50.4102C71.6992 50.5273 71.7617 50.6758 71.7617 50.8555C71.7617 51.0273 71.6992 51.1738 71.5742 51.2949C71.4531 51.416 71.3047 51.4766 71.1289 51.4766ZM71.5977 59H70.6367V53H71.5977V59ZM76.3262 58.9414C76.0996 59.0664 75.8008 59.1289 75.4297 59.1289C74.3789 59.1289 73.8535 58.543 73.8535 57.3711V53.8203H72.8223V53H73.8535V51.5352L74.8145 51.2246V53H76.3262V53.8203H74.8145V57.2012C74.8145 57.6035 74.8828 57.8906 75.0195 58.0625C75.1562 58.2344 75.3828 58.3203 75.6992 58.3203C75.9414 58.3203 76.1504 58.2539 76.3262 58.1211V58.9414ZM82.3848 53L79.625 59.9609C79.1328 61.2031 78.4414 61.8242 77.5508 61.8242C77.3008 61.8242 77.0918 61.7988 76.9238 61.748V60.8867C77.1309 60.957 77.3203 60.9922 77.4922 60.9922C77.9766 60.9922 78.3398 60.7031 78.582 60.125L79.0625 58.9883L76.7188 53H77.7852L79.4082 57.6172C79.4277 57.6758 79.4688 57.8281 79.5312 58.0742H79.5664C79.5859 57.9805 79.625 57.832 79.6836 57.6289L81.3887 53H82.3848ZM91.6953 59H90.7344V56.2754H87.6758V59H86.7148V53H87.6758V55.4609H90.7344V53H91.6953V59ZM98.4629 56.2402H94.2266C94.2422 56.9082 94.4219 57.4238 94.7656 57.7871C95.1094 58.1504 95.582 58.332 96.1836 58.332C96.8594 58.332 97.4805 58.1094 98.0469 57.6641V58.5664C97.5195 58.9492 96.8223 59.1406 95.9551 59.1406C95.1074 59.1406 94.4414 58.8691 93.957 58.3262C93.4727 57.7793 93.2305 57.0117 93.2305 56.0234C93.2305 55.0898 93.4941 54.3301 94.0215 53.7441C94.5527 53.1543 95.2109 52.8594 95.9961 52.8594C96.7812 52.8594 97.3887 53.1133 97.8184 53.6211C98.248 54.1289 98.4629 54.834 98.4629 55.7363V56.2402ZM97.4785 55.4258C97.4746 54.8711 97.3398 54.4395 97.0742 54.1309C96.8125 53.8223 96.4473 53.668 95.9785 53.668C95.5254 53.668 95.1406 53.8301 94.8242 54.1543C94.5078 54.4785 94.3125 54.9023 94.2383 55.4258H97.4785ZM63.6465 75H62.6973V70.0547C62.6113 70.3047 62.4785 70.6719 62.2988 71.1562L60.7988 75H59.9375L58.3906 71.1562C58.3086 70.9492 58.1758 70.582 57.9922 70.0547V75H57.166V69H58.3906L59.9727 72.9141C60.0859 73.1992 60.2305 73.5938 60.4062 74.0977L60.834 72.9375L62.3691 69H63.6465V75ZM68.0996 75.1406C67.2129 75.1406 66.5039 74.8613 65.9727 74.3027C65.4453 73.7402 65.1816 72.9961 65.1816 72.0703C65.1816 71.0625 65.457 70.2754 66.0078 69.709C66.5586 69.1426 67.3027 68.8594 68.2402 68.8594C69.1348 68.8594 69.832 69.1348 70.332 69.6855C70.8359 70.2363 71.0879 71 71.0879 71.9766C71.0879 72.9336 70.8164 73.7012 70.2734 74.2793C69.7344 74.8535 69.0098 75.1406 68.0996 75.1406ZM68.1699 69.668C67.5527 69.668 67.0645 69.8789 66.7051 70.3008C66.3457 70.7188 66.166 71.2969 66.166 72.0352C66.166 72.7461 66.3477 73.3066 66.7109 73.7168C67.0742 74.127 67.5605 74.332 68.1699 74.332C68.791 74.332 69.2676 74.1309 69.5996 73.7285C69.9355 73.3262 70.1035 72.7539 70.1035 72.0117C70.1035 71.2617 69.9355 70.6836 69.5996 70.2773C69.2676 69.8711 68.791 69.668 68.1699 69.668ZM80.5918 75H79.291L76.6074 72.0352H76.584V75H75.6699V72.0352H75.6465L72.957 75H71.6738L74.6504 71.9062L71.8555 69H73.0801L75.6465 71.8066H75.6699V69H76.584V71.8066H76.6074L79.1738 69H80.4102L77.6035 71.9062L80.5918 75ZM86.3984 72.2402H82.1621C82.1777 72.9082 82.3574 73.4238 82.7012 73.7871C83.0449 74.1504 83.5176 74.332 84.1191 74.332C84.7949 74.332 85.416 74.1094 85.9824 73.6641V74.5664C85.4551 74.9492 84.7578 75.1406 83.8906 75.1406C83.043 75.1406 82.377 74.8691 81.8926 74.3262C81.4082 73.7793 81.166 73.0117 81.166 72.0234C81.166 71.0898 81.4297 70.3301 81.957 69.7441C82.4883 69.1543 83.1465 68.8594 83.9316 68.8594C84.7168 68.8594 85.3242 69.1133 85.7539 69.6211C86.1836 70.1289 86.3984 70.834 86.3984 71.7363V72.2402ZM85.4141 71.4258C85.4102 70.8711 85.2754 70.4395 85.0098 70.1309C84.748 69.8223 84.3828 69.668 83.9141 69.668C83.4609 69.668 83.0762 69.8301 82.7598 70.1543C82.4434 70.4785 82.248 70.9023 82.1738 71.4258H85.4141ZM91.625 69.8203H89.8262V75H88.8652V69.8203H87.0605V69H91.625V69.8203ZM51.5703 91H50.6094V85.8203H47.5508V91H46.5898V85H51.5703V91ZM54.5 90.1328H54.4766V93.7598H53.5156V85H54.4766V86.0547H54.5C54.9727 85.2578 55.6641 84.8594 56.5742 84.8594C57.3477 84.8594 57.9512 85.1289 58.3848 85.668C58.8184 86.2031 59.0352 86.9219 59.0352 87.8242C59.0352 88.8281 58.791 89.6328 58.3027 90.2383C57.8145 90.8398 57.1465 91.1406 56.2988 91.1406C55.5215 91.1406 54.9219 90.8047 54.5 90.1328ZM54.4766 87.7129V88.5508C54.4766 89.0469 54.6367 89.4688 54.957 89.8164C55.2812 90.1602 55.6914 90.332 56.1875 90.332C56.7695 90.332 57.2246 90.1094 57.5527 89.6641C57.8848 89.2188 58.0508 88.5996 58.0508 87.8066C58.0508 87.1387 57.8965 86.6152 57.5879 86.2363C57.2793 85.8574 56.8613 85.668 56.334 85.668C55.7754 85.668 55.3262 85.8633 54.9863 86.2539C54.6465 86.6406 54.4766 87.127 54.4766 87.7129ZM63.0781 91.1406C62.1914 91.1406 61.4824 90.8613 60.9512 90.3027C60.4238 89.7402 60.1602 88.9961 60.1602 88.0703C60.1602 87.0625 60.4355 86.2754 60.9863 85.709C61.5371 85.1426 62.2812 84.8594 63.2188 84.8594C64.1133 84.8594 64.8105 85.1348 65.3105 85.6855C65.8145 86.2363 66.0664 87 66.0664 87.9766C66.0664 88.9336 65.7949 89.7012 65.252 90.2793C64.7129 90.8535 63.9883 91.1406 63.0781 91.1406ZM63.1484 85.668C62.5312 85.668 62.043 85.8789 61.6836 86.3008C61.3242 86.7188 61.1445 87.2969 61.1445 88.0352C61.1445 88.7461 61.3262 89.3066 61.6895 89.7168C62.0527 90.127 62.5391 90.332 63.1484 90.332C63.7695 90.332 64.2461 90.1309 64.5781 89.7285C64.9141 89.3262 65.082 88.7539 65.082 88.0117C65.082 87.2617 64.9141 86.6836 64.5781 86.2773C64.2461 85.8711 63.7695 85.668 63.1484 85.668ZM72.4355 91H71.4805V88.5859C70.7773 88.9688 70.1289 89.1602 69.5352 89.1602C68.1914 89.1602 67.5195 88.4492 67.5195 87.0273V85H68.4805V86.9805C68.4805 87.8594 68.8594 88.2988 69.6172 88.2988C70.1953 88.2988 70.8164 88.1309 71.4805 87.7949V85H72.4355V91ZM79.4141 91H78.5469V86.2129C78.4609 86.3809 78.3301 86.6172 78.1543 86.9219L75.3828 91H74.3867V85H75.2656V89.7285C75.3125 89.6152 75.4141 89.4219 75.5703 89.1484L78.418 85H79.4141V91ZM85.127 85.8203H83.3281V91H82.3672V85.8203H80.5625V85H85.127V85.8203ZM90.5762 91H89.6152V90.0625H89.5918C89.1738 90.7812 88.5586 91.1406 87.7461 91.1406C87.1484 91.1406 86.6797 90.9824 86.3398 90.666C86.0039 90.3496 85.8359 89.9297 85.8359 89.4062C85.8359 88.2852 86.4961 87.6328 87.8164 87.4492L89.6152 87.1973C89.6152 86.1777 89.2031 85.668 88.3789 85.668C87.6562 85.668 87.0039 85.9141 86.4219 86.4062V85.4219C87.0117 85.0469 87.6914 84.8594 88.4609 84.8594C89.8711 84.8594 90.5762 85.6055 90.5762 87.0977V91ZM89.6152 87.9648L88.168 88.1641C87.7227 88.2266 87.3867 88.3379 87.1602 88.498C86.9336 88.6543 86.8203 88.9336 86.8203 89.3359C86.8203 89.6289 86.9238 89.8691 87.1309 90.0566C87.3418 90.2402 87.6211 90.332 87.9688 90.332C88.4453 90.332 88.8379 90.166 89.1465 89.834C89.459 89.498 89.6152 89.0742 89.6152 88.5625V87.9648ZM96.1543 85.8203H94.3555V91H93.3945V85.8203H91.5898V85H96.1543V85.8203ZM97.3086 91V85H98.2695V87.3027H99.8867C100.5 87.3027 100.986 87.4629 101.346 87.7832C101.709 88.1035 101.891 88.5508 101.891 89.125C101.891 89.7031 101.709 90.1602 101.346 90.4961C100.982 90.832 100.523 91 99.9688 91H97.3086ZM98.2695 88.1289V90.1797H99.7109C100.508 90.1797 100.906 89.8281 100.906 89.125C100.906 88.4609 100.504 88.1289 99.6992 88.1289H98.2695ZM41.4746 109.186H40.6602V107H36.1953V109.186H35.375V106.186H35.9082C36.9316 104.709 37.4512 102.98 37.4668 101H40.584V106.186H41.4746V109.186ZM39.623 106.186V101.814H38.293C38.1875 103.432 37.7324 104.889 36.9277 106.186H39.623ZM47.0996 107H46.1387V106.062H46.1152C45.6973 106.781 45.082 107.141 44.2695 107.141C43.6719 107.141 43.2031 106.982 42.8633 106.666C42.5273 106.35 42.3594 105.93 42.3594 105.406C42.3594 104.285 43.0195 103.633 44.3398 103.449L46.1387 103.197C46.1387 102.178 45.7266 101.668 44.9023 101.668C44.1797 101.668 43.5273 101.914 42.9453 102.406V101.422C43.5352 101.047 44.2148 100.859 44.9844 100.859C46.3945 100.859 47.0996 101.605 47.0996 103.098V107ZM46.1387 103.965L44.6914 104.164C44.2461 104.227 43.9102 104.338 43.6836 104.498C43.457 104.654 43.3438 104.934 43.3438 105.336C43.3438 105.629 43.4473 105.869 43.6543 106.057C43.8652 106.24 44.1445 106.332 44.4922 106.332C44.9688 106.332 45.3613 106.166 45.6699 105.834C45.9824 105.498 46.1387 105.074 46.1387 104.562V103.965ZM53.8906 107H52.9297V104.275H49.8711V107H48.9102V101H49.8711V103.461H52.9297V101H53.8906V107ZM60.8164 107H59.8555V104.275H56.7969V107H55.8359V101H56.7969V103.461H59.8555V101H60.8164V107ZM69.3242 107H68.375V101H69.3242V107ZM62.7617 107V101H63.7227V103.303H65.3398C65.9531 103.303 66.4395 103.463 66.7988 103.783C67.1621 104.104 67.3438 104.551 67.3438 105.125C67.3438 105.703 67.1621 106.16 66.7988 106.496C66.4355 106.832 65.9766 107 65.4219 107H62.7617ZM63.7227 104.129V106.18H65.1641C65.9609 106.18 66.3594 105.828 66.3594 105.125C66.3594 104.461 65.957 104.129 65.1523 104.129H63.7227ZM76.1035 104.24H71.8672C71.8828 104.908 72.0625 105.424 72.4062 105.787C72.75 106.15 73.2227 106.332 73.8242 106.332C74.5 106.332 75.1211 106.109 75.6875 105.664V106.566C75.1602 106.949 74.4629 107.141 73.5957 107.141C72.748 107.141 72.082 106.869 71.5977 106.326C71.1133 105.779 70.8711 105.012 70.8711 104.023C70.8711 103.09 71.1348 102.33 71.6621 101.744C72.1934 101.154 72.8516 100.859 73.6367 100.859C74.4219 100.859 75.0293 101.113 75.459 101.621C75.8887 102.129 76.1035 102.834 76.1035 103.736V104.24ZM75.1191 103.426C75.1152 102.871 74.9805 102.439 74.7148 102.131C74.4531 101.822 74.0879 101.668 73.6191 101.668C73.166 101.668 72.7812 101.83 72.4648 102.154C72.1484 102.479 71.9531 102.902 71.8789 103.426H75.1191ZM80.9844 107V98.5977H83.375C84.1016 98.5977 84.6777 98.7754 85.1035 99.1309C85.5293 99.4863 85.7422 99.9492 85.7422 100.52C85.7422 100.996 85.6133 101.41 85.3555 101.762C85.0977 102.113 84.7422 102.363 84.2891 102.512V102.535C84.8555 102.602 85.3086 102.816 85.6484 103.18C85.9883 103.539 86.1582 104.008 86.1582 104.586C86.1582 105.305 85.9004 105.887 85.3848 106.332C84.8691 106.777 84.2188 107 83.4336 107H80.9844ZM81.9688 99.4883V102.201H82.9766C83.5156 102.201 83.9395 102.072 84.248 101.814C84.5566 101.553 84.7109 101.186 84.7109 100.713C84.7109 99.8965 84.1738 99.4883 83.0996 99.4883H81.9688ZM81.9688 103.086V106.109H83.3047C83.8828 106.109 84.3301 105.973 84.6465 105.699C84.9668 105.426 85.127 105.051 85.127 104.574C85.127 103.582 84.4512 103.086 83.0996 103.086H81.9688ZM92.2227 107H87.8633V98.5977H88.8477V106.109H92.2227V107ZM96.4883 107.141C95.2969 107.141 94.3418 106.748 93.623 105.963C92.9082 105.178 92.5508 104.156 92.5508 102.898C92.5508 101.547 92.916 100.469 93.6465 99.6641C94.377 98.8594 95.3711 98.457 96.6289 98.457C97.7891 98.457 98.7227 98.8477 99.4297 99.6289C100.141 100.41 100.496 101.432 100.496 102.693C100.496 104.064 100.133 105.148 99.4062 105.945C98.6797 106.742 97.707 107.141 96.4883 107.141ZM96.5586 99.3477C95.6758 99.3477 94.959 99.666 94.4082 100.303C93.8574 100.939 93.582 101.775 93.582 102.811C93.582 103.846 93.8496 104.68 94.3848 105.312C94.9238 105.941 95.625 106.256 96.4883 106.256C97.4102 106.256 98.1367 105.955 98.668 105.354C99.1992 104.752 99.4648 103.91 99.4648 102.828C99.4648 101.719 99.207 100.861 98.6914 100.256C98.1758 99.6504 97.4648 99.3477 96.5586 99.3477ZM102.148 107V98.5977H104.539C105.266 98.5977 105.842 98.7754 106.268 99.1309C106.693 99.4863 106.906 99.9492 106.906 100.52C106.906 100.996 106.777 101.41 106.52 101.762C106.262 102.113 105.906 102.363 105.453 102.512V102.535C106.02 102.602 106.473 102.816 106.812 103.18C107.152 103.539 107.322 104.008 107.322 104.586C107.322 105.305 107.064 105.887 106.549 106.332C106.033 106.777 105.383 107 104.598 107H102.148ZM103.133 99.4883V102.201H104.141C104.68 102.201 105.104 102.072 105.412 101.814C105.721 101.553 105.875 101.186 105.875 100.713C105.875 99.8965 105.338 99.4883 104.264 99.4883H103.133ZM103.133 103.086V106.109H104.469C105.047 106.109 105.494 105.973 105.811 105.699C106.131 105.426 106.291 105.051 106.291 104.574C106.291 103.582 105.615 103.086 104.264 103.086H103.133ZM111.969 104.035H108.77V103.279H111.969V104.035ZM55.3086 123.141C54.4219 123.141 53.7129 122.861 53.1816 122.303C52.6543 121.74 52.3906 120.996 52.3906 120.07C52.3906 119.062 52.666 118.275 53.2168 117.709C53.7676 117.143 54.5117 116.859 55.4492 116.859C56.3438 116.859 57.041 117.135 57.541 117.686C58.0449 118.236 58.2969 119 58.2969 119.977C58.2969 120.934 58.0254 121.701 57.4824 122.279C56.9434 122.854 56.2188 123.141 55.3086 123.141ZM55.3789 117.668C54.7617 117.668 54.2734 117.879 53.9141 118.301C53.5547 118.719 53.375 119.297 53.375 120.035C53.375 120.746 53.5566 121.307 53.9199 121.717C54.2832 122.127 54.7695 122.332 55.3789 122.332C56 122.332 56.4766 122.131 56.8086 121.729C57.1445 121.326 57.3125 120.754 57.3125 120.012C57.3125 119.262 57.1445 118.684 56.8086 118.277C56.4766 117.871 56 117.668 55.3789 117.668ZM64.4727 114.047V114.949C64.3125 115.066 64.0547 115.154 63.6992 115.213C62.8203 115.346 62.2051 115.475 61.8535 115.6C61.5059 115.721 61.2188 115.982 60.9922 116.385C60.7695 116.787 60.627 117.375 60.5645 118.148H60.5879C61.0566 117.469 61.7246 117.129 62.5918 117.129C63.3848 117.129 64.0234 117.4 64.5078 117.943C64.9922 118.486 65.2344 119.203 65.2344 120.094C65.2344 121.012 64.9805 121.75 64.4727 122.309C63.9688 122.863 63.2891 123.141 62.4336 123.141C61.5117 123.141 60.8008 122.814 60.3008 122.162C59.8047 121.506 59.5566 120.57 59.5566 119.355C59.5566 118.41 59.6465 117.609 59.8262 116.953C60.0059 116.293 60.2539 115.797 60.5703 115.465C60.8906 115.133 61.2441 114.904 61.6309 114.779C62.0215 114.654 62.6895 114.508 63.6348 114.34C64.0098 114.254 64.2891 114.156 64.4727 114.047ZM60.5527 119.098V119.93C60.5566 120.242 60.6035 120.549 60.6934 120.85C60.7832 121.15 60.9121 121.416 61.0801 121.646C61.248 121.877 61.4453 122.049 61.6719 122.162C61.9023 122.275 62.1641 122.332 62.457 122.332C62.9922 122.332 63.4238 122.133 63.752 121.734C64.084 121.332 64.25 120.818 64.25 120.193C64.25 119.506 64.0801 118.961 63.7402 118.559C63.4043 118.152 62.9492 117.949 62.375 117.949C61.5703 117.949 60.9629 118.332 60.5527 119.098ZM67.8125 123V117.82H65.9844V117H68.7734V119.303H70.3906C71.0039 119.303 71.4902 119.463 71.8496 119.783C72.2129 120.1 72.3945 120.547 72.3945 121.125C72.3945 121.703 72.2129 122.16 71.8496 122.496C71.4863 122.832 71.0273 123 70.4727 123H67.8125ZM68.7734 120.129V122.18H70.2148C71.0117 122.18 71.4102 121.828 71.4102 121.125C71.4102 120.461 71.0078 120.129 70.2031 120.129H68.7734ZM78.6934 120.24H74.457C74.4727 120.908 74.6523 121.424 74.9961 121.787C75.3398 122.15 75.8125 122.332 76.4141 122.332C77.0898 122.332 77.7109 122.109 78.2773 121.664V122.566C77.75 122.949 77.0527 123.141 76.1855 123.141C75.3379 123.141 74.6719 122.869 74.1875 122.326C73.7031 121.779 73.4609 121.012 73.4609 120.023C73.4609 119.09 73.7246 118.33 74.252 117.744C74.7832 117.154 75.4414 116.859 76.2266 116.859C77.0117 116.859 77.6191 117.113 78.0488 117.621C78.4785 118.129 78.6934 118.834 78.6934 119.736V120.24ZM77.709 119.426C77.7051 118.871 77.5703 118.439 77.3047 118.131C77.043 117.822 76.6777 117.668 76.209 117.668C75.7559 117.668 75.3711 117.83 75.0547 118.154C74.7383 118.479 74.543 118.902 74.4688 119.426H77.709ZM85.1328 123H83.7852L81.1367 120.117H81.1133V123H80.1523V117H81.1133V119.748H81.1367L83.6562 117H84.916L82.1328 119.895L85.1328 123ZM89.8848 117.82H88.0859V123H87.125V117.82H85.3203V117H89.8848V117.82ZM95.334 123H94.373V122.062H94.3496C93.9316 122.781 93.3164 123.141 92.5039 123.141C91.9062 123.141 91.4375 122.982 91.0977 122.666C90.7617 122.35 90.5938 121.93 90.5938 121.406C90.5938 120.285 91.2539 119.633 92.5742 119.449L94.373 119.197C94.373 118.178 93.9609 117.668 93.1367 117.668C92.4141 117.668 91.7617 117.914 91.1797 118.406V117.422C91.7695 117.047 92.4492 116.859 93.2188 116.859C94.6289 116.859 95.334 117.605 95.334 119.098V123ZM94.373 119.965L92.9258 120.164C92.4805 120.227 92.1445 120.338 91.918 120.498C91.6914 120.654 91.5781 120.934 91.5781 121.336C91.5781 121.629 91.6816 121.869 91.8887 122.057C92.0996 122.24 92.3789 122.332 92.7266 122.332C93.2031 122.332 93.5957 122.166 93.9043 121.834C94.2168 121.498 94.373 121.074 94.373 120.562V119.965Z" fill="#020057"/>
</g>
<defs>
<filter id="filter0_dd_3872_62957" x="0.8" y="2.38419e-07" width="146.4" height="146.4" filterUnits="userSpaceOnUse" color-interpolation-filters="sRGB">
<feFlood flood-opacity="0" result="BackgroundImageFix"/>
<feColorMatrix in="SourceAlpha" type="matrix" values="0 0 0 0 0 0 0 0 0 0 0 0 0 0 0 0 0 0 127 0" result="hardAlpha"/>
<feOffset dy="3.2"/>
<feGaussianBlur stdDeviation="3.6"/>
<feColorMatrix type="matrix" values="0 0 0 0 0.513726 0 0 0 0 0.494118 0 0 0 0 1 0 0 0 0.12 0"/>
<feBlend mode="normal" in2="BackgroundImageFix" result="effect1_dropShadow_3872_62957"/>
<feColorMatrix in="SourceAlpha" type="matrix" values="0 0 0 0 0 0 0 0 0 0 0 0 0 0 0 0 0 0 127 0" result="hardAlpha"/>
<feOffset dy="0.6"/>
<feGaussianBlur stdDeviation="0.9"/>
<feColorMatrix type="matrix" values="0 0 0 0 0.513726 0 0 0 0 0.494118 0 0 0 0 1 0 0 0 0.1 0"/>
<feBlend mode="normal" in2="effect1_dropShadow_3872_62957" result="effect2_dropShadow_3872_62957"/>
<feBlend mode="normal" in="SourceGraphic" in2="effect2_dropShadow_3872_62957" result="shape"/>
</filter>
</defs>
</svg>
