<svg width="100%" viewBox="0 0 148 147" fill="none" xmlns="http://www.w3.org/2000/svg">
<g filter="url(#filter0_dd_3872_62958)">
<rect x="8" y="4" width="132" height="132" fill="#FBFBFE"/>
<rect x="8.5" y="4.5" width="131" height="131" stroke="#827DFF" stroke-dasharray="4 4"/>
<rect width="100" height="96" transform="translate(24 22)" fill="#FBFBFE"/>
<path d="M79.75 33C81.5449 33 83 34.4551 83 36.25V47.75C83 49.5449 81.5449 51 79.75 51H68.25C66.4551 51 65 49.5449 65 47.75V36.25C65 34.4551 66.4551 33 68.25 33H79.75ZM80.3305 49.4014L74.5247 43.7148C74.2596 43.4553 73.8501 43.4316 73.5588 43.644L73.4752 43.7148L67.6685 49.4011C67.8504 49.4651 68.0461 49.5 68.25 49.5H79.75C79.9535 49.5 80.1489 49.4653 80.3305 49.4014L74.5247 43.7148L80.3305 49.4014ZM79.75 34.5H68.25C67.2835 34.5 66.5 35.2835 66.5 36.25V47.75C66.5 47.9584 66.5364 48.1583 66.6033 48.3437L72.4258 42.643C73.2589 41.8273 74.5675 41.7885 75.4458 42.5266L75.5742 42.6431L81.3964 48.3447C81.4634 48.159 81.5 47.9588 81.5 47.75V36.25C81.5 35.2835 80.7165 34.5 79.75 34.5ZM77.2521 36.5C78.4959 36.5 79.5042 37.5083 79.5042 38.7521C79.5042 39.9959 78.4959 41.0042 77.2521 41.0042C76.0083 41.0042 75 39.9959 75 38.7521C75 37.5083 76.0083 36.5 77.2521 36.5ZM77.2521 38C76.8367 38 76.5 38.3367 76.5 38.7521C76.5 39.1675 76.8367 39.5042 77.2521 39.5042C77.6675 39.5042 78.0042 39.1675 78.0042 38.7521C78.0042 38.3367 77.6675 38 77.2521 38Z" fill="#020057"/>
<path d="M50.5391 74.6484C49.918 74.9766 49.1445 75.1406 48.2188 75.1406C47.0234 75.1406 46.0664 74.7559 45.3477 73.9863C44.6289 73.2168 44.2695 72.207 44.2695 70.957C44.2695 69.6133 44.6738 68.5273 45.4824 67.6992C46.291 66.8711 47.3164 66.457 48.5586 66.457C49.3555 66.457 50.0156 66.5723 50.5391 66.8027V67.8516C49.9375 67.5156 49.2734 67.3477 48.5469 67.3477C47.582 67.3477 46.7988 67.6699 46.1973 68.3145C45.5996 68.959 45.3008 69.8203 45.3008 70.8984C45.3008 71.9219 45.5801 72.7383 46.1387 73.3477C46.7012 73.9531 47.4375 74.2559 48.3477 74.2559C49.1914 74.2559 49.9219 74.0684 50.5391 73.6934V74.6484ZM53.082 75H52.1211V66.1172H53.082V75ZM59.3223 75H58.3613V74.0625H58.3379C57.9199 74.7812 57.3047 75.1406 56.4922 75.1406C55.8945 75.1406 55.4258 74.9824 55.0859 74.666C54.75 74.3496 54.582 73.9297 54.582 73.4062C54.582 72.2852 55.2422 71.6328 56.5625 71.4492L58.3613 71.1973C58.3613 70.1777 57.9492 69.668 57.125 69.668C56.4023 69.668 55.75 69.9141 55.168 70.4062V69.4219C55.7578 69.0469 56.4375 68.8594 57.207 68.8594C58.6172 68.8594 59.3223 69.6055 59.3223 71.0977V75ZM58.3613 71.9648L56.9141 72.1641C56.4688 72.2266 56.1328 72.3379 55.9062 72.498C55.6797 72.6543 55.5664 72.9336 55.5664 73.3359C55.5664 73.6289 55.6699 73.8691 55.877 74.0566C56.0879 74.2402 56.3672 74.332 56.7148 74.332C57.1914 74.332 57.584 74.166 57.8926 73.834C58.2051 73.498 58.3613 73.0742 58.3613 72.5625V71.9648ZM64.2617 69.9727C64.0938 69.8438 63.8516 69.7793 63.5352 69.7793C63.125 69.7793 62.7812 69.9727 62.5039 70.3594C62.2305 70.7461 62.0938 71.2734 62.0938 71.9414V75H61.1328V69H62.0938V70.2363H62.1172C62.2539 69.8145 62.4629 69.4863 62.7441 69.252C63.0254 69.0137 63.3398 68.8945 63.6875 68.8945C63.9375 68.8945 64.1289 68.9219 64.2617 68.9766V69.9727ZM65.7969 67.4766C65.625 67.4766 65.4785 67.418 65.3574 67.3008C65.2363 67.1836 65.1758 67.0352 65.1758 66.8555C65.1758 66.6758 65.2363 66.5273 65.3574 66.4102C65.4785 66.2891 65.625 66.2285 65.7969 66.2285C65.9727 66.2285 66.1211 66.2891 66.2422 66.4102C66.3672 66.5273 66.4297 66.6758 66.4297 66.8555C66.4297 67.0273 66.3672 67.1738 66.2422 67.2949C66.1211 67.416 65.9727 67.4766 65.7969 67.4766ZM66.2656 75H65.3047V69H66.2656V75ZM70.9941 74.9414C70.7676 75.0664 70.4688 75.1289 70.0977 75.1289C69.0469 75.1289 68.5215 74.543 68.5215 73.3711V69.8203H67.4902V69H68.5215V67.5352L69.4824 67.2246V69H70.9941V69.8203H69.4824V73.2012C69.4824 73.6035 69.5508 73.8906 69.6875 74.0625C69.8242 74.2344 70.0508 74.3203 70.3672 74.3203C70.6094 74.3203 70.8184 74.2539 70.9941 74.1211V74.9414ZM77.0527 69L74.293 75.9609C73.8008 77.2031 73.1094 77.8242 72.2188 77.8242C71.9688 77.8242 71.7598 77.7988 71.5918 77.748V76.8867C71.7988 76.957 71.9883 76.9922 72.1602 76.9922C72.6445 76.9922 73.0078 76.7031 73.25 76.125L73.7305 74.9883L71.3867 69H72.4531L74.0762 73.6172C74.0957 73.6758 74.1367 73.8281 74.1992 74.0742H74.2344C74.2539 73.9805 74.293 73.832 74.3516 73.6289L76.0566 69H77.0527ZM81.5117 75V66.5977H83.9023C84.6289 66.5977 85.2051 66.7754 85.6309 67.1309C86.0566 67.4863 86.2695 67.9492 86.2695 68.5195C86.2695 68.9961 86.1406 69.4102 85.8828 69.7617C85.625 70.1133 85.2695 70.3633 84.8164 70.5117V70.5352C85.3828 70.6016 85.8359 70.8164 86.1758 71.1797C86.5156 71.5391 86.6855 72.0078 86.6855 72.5859C86.6855 73.3047 86.4277 73.8867 85.9121 74.332C85.3965 74.7773 84.7461 75 83.9609 75H81.5117ZM82.4961 67.4883V70.2012H83.5039C84.043 70.2012 84.4668 70.0723 84.7754 69.8145C85.084 69.5527 85.2383 69.1855 85.2383 68.7129C85.2383 67.8965 84.7012 67.4883 83.627 67.4883H82.4961ZM82.4961 71.0859V74.1094H83.832C84.4102 74.1094 84.8574 73.9727 85.1738 73.6992C85.4941 73.4258 85.6543 73.0508 85.6543 72.5742C85.6543 71.582 84.9785 71.0859 83.627 71.0859H82.4961ZM89.2227 75H88.2617V66.1172H89.2227V75ZM93.6758 75.1406C92.7891 75.1406 92.0801 74.8613 91.5488 74.3027C91.0215 73.7402 90.7578 72.9961 90.7578 72.0703C90.7578 71.0625 91.0332 70.2754 91.584 69.709C92.1348 69.1426 92.8789 68.8594 93.8164 68.8594C94.7109 68.8594 95.4082 69.1348 95.9082 69.6855C96.4121 70.2363 96.6641 71 96.6641 71.9766C96.6641 72.9336 96.3926 73.7012 95.8496 74.2793C95.3105 74.8535 94.5859 75.1406 93.6758 75.1406ZM93.7461 69.668C93.1289 69.668 92.6406 69.8789 92.2812 70.3008C91.9219 70.7188 91.7422 71.2969 91.7422 72.0352C91.7422 72.7461 91.9238 73.3066 92.2871 73.7168C92.6504 74.127 93.1367 74.332 93.7461 74.332C94.3672 74.332 94.8438 74.1309 95.1758 73.7285C95.5117 73.3262 95.6797 72.7539 95.6797 72.0117C95.6797 71.2617 95.5117 70.6836 95.1758 70.2773C94.8438 69.8711 94.3672 69.668 93.7461 69.668ZM99.1836 74.1328H99.1602V75H98.1992V66.1172H99.1602V70.0547H99.1836C99.6562 69.2578 100.348 68.8594 101.258 68.8594C102.027 68.8594 102.629 69.1289 103.062 69.668C103.5 70.2031 103.719 70.9219 103.719 71.8242C103.719 72.8281 103.475 73.6328 102.986 74.2383C102.498 74.8398 101.83 75.1406 100.982 75.1406C100.189 75.1406 99.5898 74.8047 99.1836 74.1328ZM99.1602 71.7129V72.5508C99.1602 73.0469 99.3203 73.4688 99.6406 73.8164C99.9648 74.1602 100.375 74.332 100.871 74.332C101.453 74.332 101.908 74.1094 102.236 73.6641C102.568 73.2188 102.734 72.5996 102.734 71.8066C102.734 71.1387 102.58 70.6152 102.271 70.2363C101.963 69.8574 101.545 69.668 101.018 69.668C100.459 69.668 100.01 69.8633 99.6699 70.2539C99.3301 70.6406 99.1602 71.127 99.1602 71.7129ZM57.1484 85L54.7578 91H53.8145L51.541 85H52.5957L54.1191 89.3594C54.2324 89.6797 54.3027 89.959 54.3301 90.1973H54.3535C54.3926 89.8965 54.4551 89.625 54.541 89.3828L56.1348 85H57.1484ZM63.0078 88.2402H58.7715C58.7871 88.9082 58.9668 89.4238 59.3105 89.7871C59.6543 90.1504 60.127 90.332 60.7285 90.332C61.4043 90.332 62.0254 90.1094 62.5918 89.6641V90.5664C62.0645 90.9492 61.3672 91.1406 60.5 91.1406C59.6523 91.1406 58.9863 90.8691 58.502 90.3262C58.0176 89.7793 57.7754 89.0117 57.7754 88.0234C57.7754 87.0898 58.0391 86.3301 58.5664 85.7441C59.0977 85.1543 59.7559 84.8594 60.541 84.8594C61.3262 84.8594 61.9336 85.1133 62.3633 85.6211C62.793 86.1289 63.0078 86.834 63.0078 87.7363V88.2402ZM62.0234 87.4258C62.0195 86.8711 61.8848 86.4395 61.6191 86.1309C61.3574 85.8223 60.9922 85.668 60.5234 85.668C60.0703 85.668 59.6855 85.8301 59.3691 86.1543C59.0527 86.4785 58.8574 86.9023 58.7832 87.4258H62.0234ZM67.5957 85.9727C67.4277 85.8438 67.1855 85.7793 66.8691 85.7793C66.459 85.7793 66.1152 85.9727 65.8379 86.3594C65.5645 86.7461 65.4277 87.2734 65.4277 87.9414V91H64.4668V85H65.4277V86.2363H65.4512C65.5879 85.8145 65.7969 85.4863 66.0781 85.252C66.3594 85.0137 66.6738 84.8945 67.0215 84.8945C67.2715 84.8945 67.4629 84.9219 67.5957 84.9766V85.9727ZM69.1309 83.4766C68.959 83.4766 68.8125 83.418 68.6914 83.3008C68.5703 83.1836 68.5098 83.0352 68.5098 82.8555C68.5098 82.6758 68.5703 82.5273 68.6914 82.4102C68.8125 82.2891 68.959 82.2285 69.1309 82.2285C69.3066 82.2285 69.4551 82.2891 69.5762 82.4102C69.7012 82.5273 69.7637 82.6758 69.7637 82.8555C69.7637 83.0273 69.7012 83.1738 69.5762 83.2949C69.4551 83.416 69.3066 83.4766 69.1309 83.4766ZM69.5996 91H68.6387V85H69.5996V91ZM72.5059 91H71.5449V82.1172H72.5059V91ZM79.2734 88.2402H75.0371C75.0527 88.9082 75.2324 89.4238 75.5762 89.7871C75.9199 90.1504 76.3926 90.332 76.9941 90.332C77.6699 90.332 78.291 90.1094 78.8574 89.6641V90.5664C78.3301 90.9492 77.6328 91.1406 76.7656 91.1406C75.918 91.1406 75.252 90.8691 74.7676 90.3262C74.2832 89.7793 74.041 89.0117 74.041 88.0234C74.041 87.0898 74.3047 86.3301 74.832 85.7441C75.3633 85.1543 76.0215 84.8594 76.8066 84.8594C77.5918 84.8594 78.1992 85.1133 78.6289 85.6211C79.0586 86.1289 79.2734 86.834 79.2734 87.7363V88.2402ZM78.2891 87.4258C78.2852 86.8711 78.1504 86.4395 77.8848 86.1309C77.623 85.8223 77.2578 85.668 76.7891 85.668C76.3359 85.668 75.9512 85.8301 75.6348 86.1543C75.3184 86.4785 75.123 86.9023 75.0488 87.4258H78.2891ZM83.8613 85.9727C83.6934 85.8438 83.4512 85.7793 83.1348 85.7793C82.7246 85.7793 82.3809 85.9727 82.1035 86.3594C81.8301 86.7461 81.6934 87.2734 81.6934 87.9414V91H80.7324V85H81.6934V86.2363H81.7168C81.8535 85.8145 82.0625 85.4863 82.3438 85.252C82.625 85.0137 82.9395 84.8945 83.2871 84.8945C83.5371 84.8945 83.7285 84.9219 83.8613 84.9766V85.9727ZM85.3965 83.4766C85.2246 83.4766 85.0781 83.418 84.957 83.3008C84.8359 83.1836 84.7754 83.0352 84.7754 82.8555C84.7754 82.6758 84.8359 82.5273 84.957 82.4102C85.0781 82.2891 85.2246 82.2285 85.3965 82.2285C85.5723 82.2285 85.7207 82.2891 85.8418 82.4102C85.9668 82.5273 86.0293 82.6758 86.0293 82.8555C86.0293 83.0273 85.9668 83.1738 85.8418 83.2949C85.7207 83.416 85.5723 83.4766 85.3965 83.4766ZM85.8652 91H84.9043V85H85.8652V91ZM92.791 91H91.8301V87.5781C91.8301 86.3047 91.3652 85.668 90.4355 85.668C89.9551 85.668 89.5566 85.8496 89.2402 86.2129C88.9277 86.5723 88.7715 87.0273 88.7715 87.5781V91H87.8105V85H88.7715V85.9961H88.7949C89.248 85.2383 89.9043 84.8594 90.7637 84.8594C91.4199 84.8594 91.9219 85.0723 92.2695 85.498C92.6172 85.9199 92.791 86.5312 92.791 87.332V91ZM95.0996 83.4766C94.9277 83.4766 94.7812 83.418 94.6602 83.3008C94.5391 83.1836 94.4785 83.0352 94.4785 82.8555C94.4785 82.6758 94.5391 82.5273 94.6602 82.4102C94.7812 82.2891 94.9277 82.2285 95.0996 82.2285C95.2754 82.2285 95.4238 82.2891 95.5449 82.4102C95.6699 82.5273 95.7324 82.6758 95.7324 82.8555C95.7324 83.0273 95.6699 83.1738 95.5449 83.2949C95.4238 83.416 95.2754 83.4766 95.0996 83.4766ZM95.5684 91H94.6074V85H95.5684V91ZM46.4961 107.141C45.6094 107.141 44.9004 106.861 44.3691 106.303C43.8418 105.74 43.5781 104.996 43.5781 104.07C43.5781 103.062 43.8535 102.275 44.4043 101.709C44.9551 101.143 45.6992 100.859 46.6367 100.859C47.5312 100.859 48.2285 101.135 48.7285 101.686C49.2324 102.236 49.4844 103 49.4844 103.977C49.4844 104.934 49.2129 105.701 48.6699 106.279C48.1309 106.854 47.4062 107.141 46.4961 107.141ZM46.5664 101.668C45.9492 101.668 45.4609 101.879 45.1016 102.301C44.7422 102.719 44.5625 103.297 44.5625 104.035C44.5625 104.746 44.7441 105.307 45.1074 105.717C45.4707 106.127 45.957 106.332 46.5664 106.332C47.1875 106.332 47.6641 106.131 47.9961 105.729C48.332 105.326 48.5 104.754 48.5 104.012C48.5 103.262 48.332 102.684 47.9961 102.277C47.6641 101.871 47.1875 101.668 46.5664 101.668ZM56 107H54.6523L52.0039 104.117H51.9805V107H51.0195V98.1172H51.9805V103.748H52.0039L54.5234 101H55.7832L53 103.895L56 107ZM61.8359 107H60.875V106.051H60.8516C60.4531 106.777 59.8359 107.141 59 107.141C57.5703 107.141 56.8555 106.289 56.8555 104.586V101H57.8105V104.434C57.8105 105.699 58.2949 106.332 59.2637 106.332C59.7324 106.332 60.1172 106.16 60.418 105.816C60.7227 105.469 60.875 105.016 60.875 104.457V101H61.8359V107ZM68.5566 101L65.7969 107.961C65.3047 109.203 64.6133 109.824 63.7227 109.824C63.4727 109.824 63.2637 109.799 63.0957 109.748V108.887C63.3027 108.957 63.4922 108.992 63.6641 108.992C64.1484 108.992 64.5117 108.703 64.7539 108.125L65.2344 106.988L62.8906 101H63.957L65.5801 105.617C65.5996 105.676 65.6406 105.828 65.7031 106.074H65.7383C65.7578 105.98 65.7969 105.832 65.8555 105.629L67.5605 101H68.5566ZM73.8887 107H72.9277V106.062H72.9043C72.4863 106.781 71.8711 107.141 71.0586 107.141C70.4609 107.141 69.9922 106.982 69.6523 106.666C69.3164 106.35 69.1484 105.93 69.1484 105.406C69.1484 104.285 69.8086 103.633 71.1289 103.449L72.9277 103.197C72.9277 102.178 72.5156 101.668 71.6914 101.668C70.9688 101.668 70.3164 101.914 69.7344 102.406V101.422C70.3242 101.047 71.0039 100.859 71.7734 100.859C73.1836 100.859 73.8887 101.605 73.8887 103.098V107ZM72.9277 103.965L71.4805 104.164C71.0352 104.227 70.6992 104.338 70.4727 104.498C70.2461 104.654 70.1328 104.934 70.1328 105.336C70.1328 105.629 70.2363 105.869 70.4434 106.057C70.6543 106.24 70.9336 106.332 71.2812 106.332C71.7578 106.332 72.1504 106.166 72.459 105.834C72.7715 105.498 72.9277 105.074 72.9277 104.562V103.965ZM84.2188 107H83.2578V103.555C83.2578 102.891 83.1543 102.41 82.9473 102.113C82.7441 101.816 82.4004 101.668 81.916 101.668C81.5059 101.668 81.1562 101.855 80.8672 102.23C80.582 102.605 80.4395 103.055 80.4395 103.578V107H79.4785V103.438C79.4785 102.258 79.0234 101.668 78.1133 101.668C77.6914 101.668 77.3438 101.846 77.0703 102.201C76.7969 102.553 76.6602 103.012 76.6602 103.578V107H75.6992V101H76.6602V101.949H76.6836C77.1094 101.223 77.7305 100.859 78.5469 100.859C78.957 100.859 79.3145 100.975 79.6191 101.205C79.9238 101.432 80.1328 101.73 80.2461 102.102C80.6914 101.273 81.3555 100.859 82.2383 100.859C83.5586 100.859 84.2188 101.674 84.2188 103.303V107ZM86.9961 107H86.0352V101H86.9961V107ZM93.7168 101L90.957 107.961C90.4648 109.203 89.7734 109.824 88.8828 109.824C88.6328 109.824 88.4238 109.799 88.2559 109.748V108.887C88.4629 108.957 88.6523 108.992 88.8242 108.992C89.3086 108.992 89.6719 108.703 89.9141 108.125L90.3945 106.988L88.0508 101H89.1172L90.7402 105.617C90.7598 105.676 90.8008 105.828 90.8633 106.074H90.8984C90.918 105.98 90.957 105.832 91.0156 105.629L92.7207 101H93.7168ZM97.2617 107.141C96.375 107.141 95.666 106.861 95.1348 106.303C94.6074 105.74 94.3438 104.996 94.3438 104.07C94.3438 103.062 94.6191 102.275 95.1699 101.709C95.7207 101.143 96.4648 100.859 97.4023 100.859C98.2969 100.859 98.9941 101.135 99.4941 101.686C99.998 102.236 100.25 103 100.25 103.977C100.25 104.934 99.9785 105.701 99.4355 106.279C98.8965 106.854 98.1719 107.141 97.2617 107.141ZM97.332 101.668C96.7148 101.668 96.2266 101.879 95.8672 102.301C95.5078 102.719 95.3281 103.297 95.3281 104.035C95.3281 104.746 95.5098 105.307 95.873 105.717C96.2363 106.127 96.7227 106.332 97.332 106.332C97.9531 106.332 98.4297 106.131 98.7617 105.729C99.0977 105.326 99.2656 104.754 99.2656 104.012C99.2656 103.262 99.0977 102.684 98.7617 102.277C98.4297 101.871 97.9531 101.668 97.332 101.668ZM104.914 101.973C104.746 101.844 104.504 101.779 104.188 101.779C103.777 101.779 103.434 101.973 103.156 102.359C102.883 102.746 102.746 103.273 102.746 103.941V107H101.785V101H102.746V102.236H102.77C102.906 101.814 103.115 101.486 103.396 101.252C103.678 101.014 103.992 100.895 104.34 100.895C104.59 100.895 104.781 100.922 104.914 100.977V101.973Z" fill="#020057"/>
</g>
<defs>
<filter id="filter0_dd_3872_62958" x="0.8" y="2.38419e-07" width="146.4" height="146.4" filterUnits="userSpaceOnUse" color-interpolation-filters="sRGB">
<feFlood flood-opacity="0" result="BackgroundImageFix"/>
<feColorMatrix in="SourceAlpha" type="matrix" values="0 0 0 0 0 0 0 0 0 0 0 0 0 0 0 0 0 0 127 0" result="hardAlpha"/>
<feOffset dy="3.2"/>
<feGaussianBlur stdDeviation="3.6"/>
<feColorMatrix type="matrix" values="0 0 0 0 0.513726 0 0 0 0 0.494118 0 0 0 0 1 0 0 0 0.12 0"/>
<feBlend mode="normal" in2="BackgroundImageFix" result="effect1_dropShadow_3872_62958"/>
<feColorMatrix in="SourceAlpha" type="matrix" values="0 0 0 0 0 0 0 0 0 0 0 0 0 0 0 0 0 0 127 0" result="hardAlpha"/>
<feOffset dy="0.6"/>
<feGaussianBlur stdDeviation="0.9"/>
<feColorMatrix type="matrix" values="0 0 0 0 0.513726 0 0 0 0 0.494118 0 0 0 0 1 0 0 0 0.1 0"/>
<feBlend mode="normal" in2="effect1_dropShadow_3872_62958" result="effect2_dropShadow_3872_62958"/>
<feBlend mode="normal" in="SourceGraphic" in2="effect2_dropShadow_3872_62958" result="shape"/>
</filter>
</defs>
</svg>
