<svg width="100" height="80" viewBox="0 0 100 80" fill="none" xmlns="http://www.w3.org/2000/svg">
<rect width="100" height="80" fill="#FBFBFE"/>
<path d="M55.75 11C57.5449 11 59 12.4551 59 14.25V25.75C59 27.5449 57.5449 29 55.75 29H44.25C42.4551 29 41 27.5449 41 25.75V14.25C41 12.4551 42.4551 11 44.25 11H55.75ZM56.3305 27.4014L50.5247 21.7148C50.2596 21.4553 49.8501 21.4316 49.5588 21.644L49.4752 21.7148L43.6685 27.4011C43.8504 27.4651 44.0461 27.5 44.25 27.5H55.75C55.9535 27.5 56.1489 27.4653 56.3305 27.4014L50.5247 21.7148L56.3305 27.4014ZM55.75 12.5H44.25C43.2835 12.5 42.5 13.2835 42.5 14.25V25.75C42.5 25.9584 42.5364 26.1583 42.6033 26.3437L48.4258 20.643C49.2589 19.8273 50.5675 19.7885 51.4458 20.5266L51.5742 20.6431L57.3964 26.3447C57.4634 26.159 57.5 25.9588 57.5 25.75V14.25C57.5 13.2835 56.7165 12.5 55.75 12.5ZM53.2521 14.5C54.4959 14.5 55.5042 15.5083 55.5042 16.7521C55.5042 17.9959 54.4959 19.0042 53.2521 19.0042C52.0083 19.0042 51 17.9959 51 16.7521C51 15.5083 52.0083 14.5 53.2521 14.5ZM53.2521 16C52.8367 16 52.5 16.3367 52.5 16.7521C52.5 17.1675 52.8367 17.5042 53.2521 17.5042C53.6675 17.5042 54.0042 17.1675 54.0042 16.7521C54.0042 16.3367 53.6675 16 53.2521 16Z" fill="#020057"/>
<path d="M20.4746 52.6484C19.8535 52.9766 19.0801 53.1406 18.1543 53.1406C16.959 53.1406 16.002 52.7559 15.2832 51.9863C14.5645 51.2168 14.2051 50.207 14.2051 48.957C14.2051 47.6133 14.6094 46.5273 15.418 45.6992C16.2266 44.8711 17.252 44.457 18.4941 44.457C19.291 44.457 19.9512 44.5723 20.4746 44.8027V45.8516C19.873 45.5156 19.209 45.3477 18.4824 45.3477C17.5176 45.3477 16.7344 45.6699 16.1328 46.3145C15.5352 46.959 15.2363 47.8203 15.2363 48.8984C15.2363 49.9219 15.5156 50.7383 16.0742 51.3477C16.6367 51.9531 17.373 52.2559 18.2832 52.2559C19.127 52.2559 19.8574 52.0684 20.4746 51.6934V52.6484ZM23.0176 53H22.0566V44.1172H23.0176V53ZM29.2578 53H28.2969V52.0625H28.2734C27.8555 52.7812 27.2402 53.1406 26.4277 53.1406C25.8301 53.1406 25.3613 52.9824 25.0215 52.666C24.6855 52.3496 24.5176 51.9297 24.5176 51.4062C24.5176 50.2852 25.1777 49.6328 26.498 49.4492L28.2969 49.1973C28.2969 48.1777 27.8848 47.668 27.0605 47.668C26.3379 47.668 25.6855 47.9141 25.1035 48.4062V47.4219C25.6934 47.0469 26.373 46.8594 27.1426 46.8594C28.5527 46.8594 29.2578 47.6055 29.2578 49.0977V53ZM28.2969 49.9648L26.8496 50.1641C26.4043 50.2266 26.0684 50.3379 25.8418 50.498C25.6152 50.6543 25.502 50.9336 25.502 51.3359C25.502 51.6289 25.6055 51.8691 25.8125 52.0566C26.0234 52.2402 26.3027 52.332 26.6504 52.332C27.127 52.332 27.5195 52.166 27.8281 51.834C28.1406 51.498 28.2969 51.0742 28.2969 50.5625V49.9648ZM34.1973 47.9727C34.0293 47.8438 33.7871 47.7793 33.4707 47.7793C33.0605 47.7793 32.7168 47.9727 32.4395 48.3594C32.166 48.7461 32.0293 49.2734 32.0293 49.9414V53H31.0684V47H32.0293V48.2363H32.0527C32.1895 47.8145 32.3984 47.4863 32.6797 47.252C32.9609 47.0137 33.2754 46.8945 33.623 46.8945C33.873 46.8945 34.0645 46.9219 34.1973 46.9766V47.9727ZM35.7324 45.4766C35.5605 45.4766 35.4141 45.418 35.293 45.3008C35.1719 45.1836 35.1113 45.0352 35.1113 44.8555C35.1113 44.6758 35.1719 44.5273 35.293 44.4102C35.4141 44.2891 35.5605 44.2285 35.7324 44.2285C35.9082 44.2285 36.0566 44.2891 36.1777 44.4102C36.3027 44.5273 36.3652 44.6758 36.3652 44.8555C36.3652 45.0273 36.3027 45.1738 36.1777 45.2949C36.0566 45.416 35.9082 45.4766 35.7324 45.4766ZM36.2012 53H35.2402V47H36.2012V53ZM40.9297 52.9414C40.7031 53.0664 40.4043 53.1289 40.0332 53.1289C38.9824 53.1289 38.457 52.543 38.457 51.3711V47.8203H37.4258V47H38.457V45.5352L39.418 45.2246V47H40.9297V47.8203H39.418V51.2012C39.418 51.6035 39.4863 51.8906 39.623 52.0625C39.7598 52.2344 39.9863 52.3203 40.3027 52.3203C40.5449 52.3203 40.7539 52.2539 40.9297 52.1211V52.9414ZM46.9883 47L44.2285 53.9609C43.7363 55.2031 43.0449 55.8242 42.1543 55.8242C41.9043 55.8242 41.6953 55.7988 41.5273 55.748V54.8867C41.7344 54.957 41.9238 54.9922 42.0957 54.9922C42.5801 54.9922 42.9434 54.7031 43.1855 54.125L43.666 52.9883L41.3223 47H42.3887L44.0117 51.6172C44.0312 51.6758 44.0723 51.8281 44.1348 52.0742H44.1699C44.1895 51.9805 44.2285 51.832 44.2871 51.6289L45.9922 47H46.9883ZM53.4177 42.92L54.2937 43.172C54.0777 43.62 53.8217 44.06 53.5257 44.492C53.2297 44.916 52.9137 45.312 52.5777 45.68C52.2497 46.048 51.9177 46.372 51.5817 46.652C51.5337 46.596 51.4617 46.532 51.3657 46.46C51.2777 46.38 51.1857 46.304 51.0897 46.232C51.0017 46.16 50.9217 46.104 50.8497 46.064C51.3617 45.68 51.8457 45.212 52.3017 44.66C52.7577 44.108 53.1297 43.528 53.4177 42.92ZM52.9977 44.3H61.2657V45.116H52.6977L52.9977 44.3ZM50.9937 47.132H61.7097V47.96H50.9937V47.132ZM51.1737 50H61.5537V50.828H51.1737V50ZM54.8097 44.576H55.6017V50.396H54.8097V44.576ZM52.6737 44.576H53.4777V50.432H52.6737V44.576ZM56.9817 44.576H57.7617V50.432H56.9817V44.576ZM59.1777 44.576H60.0177V50.432H59.1777V44.576ZM54.4857 51.644L55.3137 51.56C55.3937 51.912 55.4617 52.292 55.5177 52.7C55.5737 53.108 55.6057 53.452 55.6137 53.732L54.7377 53.852C54.7377 53.66 54.7257 53.436 54.7017 53.18C54.6857 52.932 54.6577 52.672 54.6177 52.4C54.5857 52.128 54.5417 51.876 54.4857 51.644ZM56.9337 51.644L57.7737 51.488C57.8857 51.72 57.9937 51.972 58.0977 52.244C58.2017 52.508 58.2937 52.764 58.3737 53.012C58.4537 53.26 58.5137 53.48 58.5537 53.672L57.6657 53.864C57.6097 53.576 57.5137 53.224 57.3777 52.808C57.2417 52.392 57.0937 52.004 56.9337 51.644ZM59.3817 51.56L60.2337 51.284C60.4337 51.516 60.6377 51.776 60.8457 52.064C61.0537 52.352 61.2457 52.636 61.4217 52.916C61.6057 53.188 61.7497 53.436 61.8537 53.66L60.9657 53.984C60.8697 53.768 60.7337 53.52 60.5577 53.24C60.3897 52.96 60.2017 52.672 59.9937 52.376C59.7857 52.08 59.5817 51.808 59.3817 51.56ZM52.3857 51.332L53.2497 51.548C53.0897 51.996 52.8817 52.44 52.6257 52.88C52.3697 53.32 52.0777 53.684 51.7497 53.972L50.9097 53.624C51.2217 53.368 51.5097 53.032 51.7737 52.616C52.0377 52.2 52.2417 51.772 52.3857 51.332ZM66.0417 47.96H73.7457V48.824H66.0417V47.96ZM66.6417 44.888H73.1817V45.74H66.6417V44.888ZM69.3897 42.92H70.3137V48.572H69.3897V42.92ZM66.0537 52.496C66.5977 52.464 67.2337 52.432 67.9617 52.4C68.6977 52.36 69.4777 52.316 70.3017 52.268C71.1257 52.22 71.9497 52.172 72.7737 52.124V52.94C71.9817 53.004 71.1857 53.064 70.3857 53.12C69.5937 53.176 68.8337 53.228 68.1057 53.276C67.3857 53.324 66.7417 53.368 66.1737 53.408L66.0537 52.496ZM70.8777 50.444L71.6577 50.036C71.9617 50.388 72.2617 50.772 72.5577 51.188C72.8617 51.604 73.1377 52.016 73.3857 52.424C73.6337 52.824 73.8217 53.188 73.9497 53.516L73.1097 53.984C72.9897 53.656 72.8097 53.288 72.5697 52.88C72.3377 52.472 72.0737 52.056 71.7777 51.632C71.4817 51.2 71.1817 50.804 70.8777 50.444ZM68.5977 48.524L69.5697 48.8C69.3937 49.264 69.1977 49.752 68.9817 50.264C68.7737 50.776 68.5577 51.272 68.3337 51.752C68.1177 52.224 67.9097 52.64 67.7097 53L66.9177 52.724C67.0697 52.452 67.2217 52.14 67.3737 51.788C67.5337 51.436 67.6857 51.072 67.8297 50.696C67.9817 50.312 68.1217 49.936 68.2497 49.568C68.3857 49.2 68.5017 48.852 68.5977 48.524ZM63.4497 43.664L63.9417 43.004C64.2217 43.1 64.5097 43.22 64.8057 43.364C65.1017 43.5 65.3817 43.644 65.6457 43.796C65.9177 43.948 66.1417 44.096 66.3177 44.24L65.7897 44.984C65.6297 44.84 65.4177 44.688 65.1537 44.528C64.8897 44.368 64.6097 44.212 64.3137 44.06C64.0177 43.908 63.7297 43.776 63.4497 43.664ZM62.8137 46.976L63.2697 46.292C63.5497 46.372 63.8377 46.476 64.1337 46.604C64.4377 46.724 64.7257 46.856 64.9977 47C65.2777 47.136 65.5057 47.268 65.6817 47.396L65.1897 48.164C65.0217 48.028 64.8017 47.892 64.5297 47.756C64.2657 47.612 63.9817 47.472 63.6777 47.336C63.3817 47.192 63.0937 47.072 62.8137 46.976ZM63.2217 53.216C63.4297 52.904 63.6577 52.536 63.9057 52.112C64.1617 51.68 64.4177 51.224 64.6737 50.744C64.9377 50.264 65.1777 49.8 65.3937 49.352L66.0657 49.928C65.8657 50.352 65.6497 50.792 65.4177 51.248C65.1857 51.704 64.9457 52.152 64.6977 52.592C64.4577 53.032 64.2257 53.44 64.0017 53.816L63.2217 53.216ZM79.0497 43.58H85.6857V44.204H79.0497V43.58ZM79.4697 44.792H85.3497V45.38H79.4697V44.792ZM81.8337 42.92H82.7097V45.104H81.8337V42.92ZM82.6977 46.124H83.3097V46.664C83.3097 46.76 83.3257 46.82 83.3577 46.844C83.3977 46.868 83.4857 46.88 83.6217 46.88C83.6617 46.88 83.7457 46.88 83.8737 46.88C84.0097 46.88 84.1457 46.88 84.2817 46.88C84.4177 46.88 84.5137 46.88 84.5697 46.88C84.6657 46.88 84.7297 46.88 84.7617 46.88C84.7937 46.872 84.8137 46.86 84.8217 46.844C84.8857 46.876 84.9657 46.908 85.0617 46.94C85.1577 46.964 85.2457 46.984 85.3257 47C85.3017 47.112 85.2417 47.192 85.1457 47.24C85.0497 47.288 84.8937 47.312 84.6777 47.312C84.6457 47.312 84.5737 47.312 84.4617 47.312C84.3577 47.312 84.2417 47.312 84.1137 47.312C83.9857 47.312 83.8697 47.312 83.7657 47.312C83.6617 47.312 83.5937 47.312 83.5617 47.312C83.2177 47.312 82.9857 47.272 82.8657 47.192C82.7537 47.112 82.6977 46.936 82.6977 46.664V46.124ZM81.3417 46.148H81.9177C81.9097 46.42 81.8577 46.648 81.7617 46.832C81.6657 47.008 81.4937 47.148 81.2457 47.252C81.0057 47.356 80.6617 47.432 80.2137 47.48C80.1897 47.416 80.1497 47.34 80.0937 47.252C80.0457 47.164 79.9937 47.096 79.9377 47.048C80.3217 47.016 80.6097 46.972 80.8017 46.916C81.0017 46.852 81.1417 46.76 81.2217 46.64C81.3017 46.52 81.3417 46.356 81.3417 46.148ZM79.8657 46.4V47.732H84.8217V46.4H79.8657ZM79.1337 45.872H85.6017V48.26H79.1337V45.872ZM80.3097 50.192V50.72H84.4257V50.192H80.3097ZM80.3097 51.152V51.692H84.4257V51.152H80.3097ZM80.3097 49.244V49.748H84.4257V49.244H80.3097ZM79.4817 48.692H85.2777V52.232H79.4817V48.692ZM82.8897 52.688L83.4537 52.208C83.7497 52.336 84.0537 52.476 84.3657 52.628C84.6777 52.78 84.9737 52.928 85.2537 53.072C85.5337 53.224 85.7777 53.36 85.9857 53.48L85.2537 53.972C85.0697 53.852 84.8457 53.716 84.5817 53.564C84.3177 53.42 84.0417 53.272 83.7537 53.12C83.4657 52.968 83.1777 52.824 82.8897 52.688ZM80.9457 52.232L81.7017 52.664C81.4697 52.832 81.2017 53 80.8977 53.168C80.5937 53.336 80.2777 53.488 79.9497 53.624C79.6297 53.76 79.3217 53.876 79.0257 53.972C78.9537 53.892 78.8617 53.792 78.7497 53.672C78.6377 53.56 78.5337 53.472 78.4377 53.408C78.7497 53.312 79.0657 53.2 79.3857 53.072C79.7057 52.944 80.0017 52.808 80.2737 52.664C80.5537 52.512 80.7777 52.368 80.9457 52.232ZM75.2937 46.556H78.3777V47.264H75.2937V46.556ZM75.3777 43.34H78.3537V44.06H75.3777V43.34ZM75.2937 48.152H78.3777V48.872H75.2937V48.152ZM74.8017 44.912H78.6897V45.668H74.8017V44.912ZM75.7137 49.772H78.3657V53.264H75.7137V52.52H77.6217V50.516H75.7137V49.772ZM75.2817 49.772H76.0257V53.828H75.2817V49.772ZM22.9035 60.576H27.3435V61.452H22.9035V60.576ZM17.3475 59.664H23.2035V60.516H17.3475V59.664ZM18.7515 62.112H21.8595V62.928H18.7515V62.112ZM18.7515 64.608H21.8595V65.424H18.7515V64.608ZM27.0675 60.576H27.2355L27.3915 60.54L27.9675 60.696C27.7755 62.296 27.4515 63.684 26.9955 64.86C26.5395 66.028 25.9715 67.02 25.2915 67.836C24.6195 68.644 23.8515 69.296 22.9875 69.792C22.9155 69.68 22.8235 69.548 22.7115 69.396C22.5995 69.252 22.4955 69.136 22.3995 69.048C23.1915 68.64 23.9075 68.056 24.5475 67.296C25.1875 66.536 25.7235 65.612 26.1555 64.524C26.5955 63.436 26.8995 62.188 27.0675 60.78V60.576ZM23.9955 61.5C24.2115 62.652 24.5155 63.724 24.9075 64.716C25.2995 65.708 25.7875 66.58 26.3715 67.332C26.9635 68.076 27.6715 68.66 28.4955 69.084C28.4315 69.14 28.3595 69.212 28.2795 69.3C28.1995 69.388 28.1235 69.476 28.0515 69.564C27.9795 69.66 27.9195 69.748 27.8715 69.828C26.9995 69.34 26.2555 68.7 25.6395 67.908C25.0315 67.108 24.5235 66.184 24.1155 65.136C23.7155 64.08 23.3875 62.924 23.1315 61.668L23.9955 61.5ZM18.2715 59.988H19.1355V67.776H18.2715V59.988ZM21.4875 59.988H22.3635V69.936H21.4875V59.988ZM17.0955 67.524C17.4955 67.468 17.9515 67.408 18.4635 67.344C18.9755 67.272 19.5195 67.196 20.0955 67.116C20.6795 67.028 21.2635 66.94 21.8475 66.852L21.8955 67.68C21.0715 67.816 20.2475 67.952 19.4235 68.088C18.6075 68.216 17.8875 68.324 17.2635 68.412L17.0955 67.524ZM33.166 69V60.5977H35.5566C36.2832 60.5977 36.8594 60.7754 37.2852 61.1309C37.7109 61.4863 37.9238 61.9492 37.9238 62.5195C37.9238 62.9961 37.7949 63.4102 37.5371 63.7617C37.2793 64.1133 36.9238 64.3633 36.4707 64.5117V64.5352C37.0371 64.6016 37.4902 64.8164 37.8301 65.1797C38.1699 65.5391 38.3398 66.0078 38.3398 66.5859C38.3398 67.3047 38.082 67.8867 37.5664 68.332C37.0508 68.7773 36.4004 69 35.6152 69H33.166ZM34.1504 61.4883V64.2012H35.1582C35.6973 64.2012 36.1211 64.0723 36.4297 63.8145C36.7383 63.5527 36.8926 63.1855 36.8926 62.7129C36.8926 61.8965 36.3555 61.4883 35.2812 61.4883H34.1504ZM34.1504 65.0859V68.1094H35.4863C36.0645 68.1094 36.5117 67.9727 36.8281 67.6992C37.1484 67.4258 37.3086 67.0508 37.3086 66.5742C37.3086 65.582 36.6328 65.0859 35.2812 65.0859H34.1504ZM40.877 69H39.916V60.1172H40.877V69ZM45.3301 69.1406C44.4434 69.1406 43.7344 68.8613 43.2031 68.3027C42.6758 67.7402 42.4121 66.9961 42.4121 66.0703C42.4121 65.0625 42.6875 64.2754 43.2383 63.709C43.7891 63.1426 44.5332 62.8594 45.4707 62.8594C46.3652 62.8594 47.0625 63.1348 47.5625 63.6855C48.0664 64.2363 48.3184 65 48.3184 65.9766C48.3184 66.9336 48.0469 67.7012 47.5039 68.2793C46.9648 68.8535 46.2402 69.1406 45.3301 69.1406ZM45.4004 63.668C44.7832 63.668 44.2949 63.8789 43.9355 64.3008C43.5762 64.7188 43.3965 65.2969 43.3965 66.0352C43.3965 66.7461 43.5781 67.3066 43.9414 67.7168C44.3047 68.127 44.791 68.332 45.4004 68.332C46.0215 68.332 46.498 68.1309 46.8301 67.7285C47.166 67.3262 47.334 66.7539 47.334 66.0117C47.334 65.2617 47.166 64.6836 46.8301 64.2773C46.498 63.8711 46.0215 63.668 45.4004 63.668ZM50.8379 68.1328H50.8145V69H49.8535V60.1172H50.8145V64.0547H50.8379C51.3105 63.2578 52.002 62.8594 52.9121 62.8594C53.6816 62.8594 54.2832 63.1289 54.7168 63.668C55.1543 64.2031 55.373 64.9219 55.373 65.8242C55.373 66.8281 55.1289 67.6328 54.6406 68.2383C54.1523 68.8398 53.4844 69.1406 52.6367 69.1406C51.8438 69.1406 51.2441 68.8047 50.8379 68.1328ZM50.8145 65.7129V66.5508C50.8145 67.0469 50.9746 67.4688 51.2949 67.8164C51.6191 68.1602 52.0293 68.332 52.5254 68.332C53.1074 68.332 53.5625 68.1094 53.8906 67.6641C54.2227 67.2188 54.3887 66.5996 54.3887 65.8066C54.3887 65.1387 54.2344 64.6152 53.9258 64.2363C53.6172 63.8574 53.1992 63.668 52.6719 63.668C52.1133 63.668 51.6641 63.8633 51.3242 64.2539C50.9844 64.6406 50.8145 65.127 50.8145 65.7129ZM60.3805 59.808L60.7885 59.184C61.0685 59.256 61.3645 59.348 61.6765 59.46C61.9885 59.564 62.2885 59.676 62.5765 59.796C62.8725 59.908 63.1165 60.012 63.3085 60.108L62.9125 60.816C62.7205 60.704 62.4805 60.588 62.1925 60.468C61.9045 60.348 61.6005 60.228 61.2805 60.108C60.9605 59.988 60.6605 59.888 60.3805 59.808ZM59.7805 62.34C60.2125 62.228 60.7285 62.088 61.3285 61.92C61.9365 61.752 62.5485 61.584 63.1645 61.416L63.2605 62.136C62.7245 62.312 62.1805 62.488 61.6285 62.664C61.0845 62.832 60.5885 62.984 60.1405 63.12L59.7805 62.34ZM64.9405 59.796H69.7525V60.48H64.4125L64.9405 59.796ZM69.5245 59.796H69.6685L69.8125 59.76L70.4245 59.94C70.2565 60.252 70.0645 60.564 69.8485 60.876C69.6405 61.188 69.4285 61.448 69.2125 61.656L68.4925 61.404C68.6765 61.212 68.8645 60.984 69.0565 60.72C69.2485 60.448 69.4045 60.184 69.5245 59.928V59.796ZM66.4285 60.048H67.2565C67.1845 60.472 67.0765 60.852 66.9325 61.188C66.7965 61.516 66.5965 61.808 66.3325 62.064C66.0765 62.32 65.7405 62.54 65.3245 62.724C64.9085 62.9 64.3965 63.048 63.7885 63.168C63.7485 63.072 63.6845 62.96 63.5965 62.832C63.5085 62.704 63.4285 62.6 63.3565 62.52C63.9085 62.432 64.3685 62.316 64.7365 62.172C65.1125 62.028 65.4125 61.86 65.6365 61.668C65.8685 61.468 66.0445 61.236 66.1645 60.972C66.2925 60.7 66.3805 60.392 66.4285 60.048ZM67.2205 60.252C67.2765 60.508 67.3645 60.76 67.4845 61.008C67.6125 61.248 67.8005 61.476 68.0485 61.692C68.2965 61.908 68.6325 62.096 69.0565 62.256C69.4885 62.416 70.0405 62.544 70.7125 62.64C70.6325 62.728 70.5445 62.848 70.4485 63C70.3525 63.144 70.2845 63.272 70.2445 63.384C69.5325 63.256 68.9485 63.088 68.4925 62.88C68.0365 62.664 67.6765 62.42 67.4125 62.148C67.1485 61.868 66.9445 61.576 66.8005 61.272C66.6645 60.96 66.5565 60.648 66.4765 60.336L67.2205 60.252ZM65.1325 58.92L65.9365 59.04C65.7365 59.48 65.4765 59.916 65.1565 60.348C64.8445 60.772 64.4565 61.164 63.9925 61.524C63.9125 61.444 63.8045 61.36 63.6685 61.272C63.5405 61.184 63.4205 61.12 63.3085 61.08C63.7565 60.768 64.1325 60.42 64.4365 60.036C64.7405 59.644 64.9725 59.272 65.1325 58.92ZM62.2765 65.184V66.012H68.3245V65.184H62.2765ZM62.2765 66.588V67.428H68.3245V66.588H62.2765ZM62.2765 63.792V64.596H68.3245V63.792H62.2765ZM61.4005 63.18H69.2245V68.028H61.4005V63.18ZM66.2365 68.652L66.9685 68.196C67.4085 68.332 67.8525 68.476 68.3005 68.628C68.7485 68.78 69.1725 68.932 69.5725 69.084C69.9725 69.244 70.3165 69.392 70.6045 69.528L69.5965 69.984C69.3485 69.856 69.0445 69.716 68.6845 69.564C68.3245 69.412 67.9365 69.256 67.5205 69.096C67.1045 68.944 66.6765 68.796 66.2365 68.652ZM63.4045 68.16L64.2325 68.532C63.9045 68.724 63.5285 68.912 63.1045 69.096C62.6885 69.28 62.2565 69.448 61.8085 69.6C61.3605 69.752 60.9365 69.884 60.5365 69.996C60.4885 69.932 60.4245 69.856 60.3445 69.768C60.2645 69.688 60.1805 69.604 60.0925 69.516C60.0125 69.436 59.9365 69.372 59.8645 69.324C60.2805 69.236 60.7045 69.132 61.1365 69.012C61.5765 68.892 61.9925 68.76 62.3845 68.616C62.7765 68.472 63.1165 68.32 63.4045 68.16ZM73.7245 58.956H74.5645V69.948H73.7245V58.956ZM71.7925 62.952H76.5325V63.792H71.7925V62.952ZM73.6045 63.396L74.1445 63.624C74.0405 64.04 73.9085 64.472 73.7485 64.92C73.5965 65.36 73.4285 65.796 73.2445 66.228C73.0605 66.66 72.8685 67.068 72.6685 67.452C72.4685 67.828 72.2685 68.152 72.0685 68.424C72.0365 68.336 71.9925 68.24 71.9365 68.136C71.8885 68.032 71.8325 67.928 71.7685 67.824C71.7125 67.712 71.6565 67.62 71.6005 67.548C71.8565 67.236 72.1125 66.844 72.3685 66.372C72.6325 65.9 72.8725 65.404 73.0885 64.884C73.3045 64.356 73.4765 63.86 73.6045 63.396ZM74.5525 63.948C74.6165 64.02 74.7085 64.136 74.8285 64.296C74.9565 64.456 75.0965 64.636 75.2485 64.836C75.4085 65.036 75.5645 65.236 75.7165 65.436C75.8685 65.636 76.0045 65.82 76.1245 65.988C76.2445 66.148 76.3285 66.268 76.3765 66.348L75.7765 67.056C75.7045 66.896 75.5965 66.692 75.4525 66.444C75.3085 66.188 75.1485 65.924 74.9725 65.652C74.8045 65.372 74.6405 65.112 74.4805 64.872C74.3285 64.632 74.2045 64.448 74.1085 64.32L74.5525 63.948ZM71.8765 59.856L72.5365 59.676C72.6565 59.956 72.7605 60.256 72.8485 60.576C72.9445 60.896 73.0285 61.208 73.1005 61.512C73.1725 61.816 73.2205 62.092 73.2445 62.34L72.5245 62.52C72.5165 62.28 72.4765 62.008 72.4045 61.704C72.3405 61.392 72.2605 61.076 72.1645 60.756C72.0765 60.428 71.9805 60.128 71.8765 59.856ZM75.7525 59.64L76.5445 59.844C76.4485 60.14 76.3405 60.456 76.2205 60.792C76.1085 61.12 75.9925 61.44 75.8725 61.752C75.7605 62.056 75.6525 62.324 75.5485 62.556L74.9605 62.364C75.0565 62.124 75.1525 61.844 75.2485 61.524C75.3525 61.196 75.4485 60.868 75.5365 60.54C75.6325 60.204 75.7045 59.904 75.7525 59.64ZM80.4085 58.92H81.2725V69.948H80.4085V58.92ZM76.5085 66.564L82.6765 65.448L82.8205 66.276L76.6645 67.392L76.5085 66.564ZM77.4205 60.396L77.8765 59.772C78.1085 59.908 78.3445 60.064 78.5845 60.24C78.8325 60.408 79.0645 60.58 79.2805 60.756C79.4965 60.932 79.6685 61.096 79.7965 61.248L79.3165 61.932C79.1965 61.78 79.0285 61.612 78.8125 61.428C78.6045 61.244 78.3765 61.06 78.1285 60.876C77.8885 60.692 77.6525 60.532 77.4205 60.396ZM76.8085 63.42L77.2285 62.784C77.4685 62.904 77.7165 63.044 77.9725 63.204C78.2285 63.356 78.4725 63.516 78.7045 63.684C78.9365 63.844 79.1205 63.996 79.2565 64.14L78.8125 64.86C78.6685 64.716 78.4845 64.56 78.2605 64.392C78.0365 64.216 77.7965 64.044 77.5405 63.876C77.2925 63.7 77.0485 63.548 76.8085 63.42Z" fill="#020057"/>
</svg>
