<svg width="100%" viewBox="0 0 148 147" fill="none" xmlns="http://www.w3.org/2000/svg">
<g filter="url(#filter0_dd_3872_62959)">
<rect x="8" y="4" width="132" height="132" fill="#FBFBFE"/>
<rect x="8.5" y="4.5" width="131" height="131" stroke="#827DFF" stroke-dasharray="4 4"/>
<rect width="100" height="80" transform="translate(24 30)" fill="#FBFBFE"/>
<path d="M79.75 41C81.5449 41 83 42.4551 83 44.25V55.75C83 57.5449 81.5449 59 79.75 59H68.25C66.4551 59 65 57.5449 65 55.75V44.25C65 42.4551 66.4551 41 68.25 41H79.75ZM80.3305 57.4014L74.5247 51.7148C74.2596 51.4553 73.8501 51.4316 73.5588 51.644L73.4752 51.7148L67.6685 57.4011C67.8504 57.4651 68.0461 57.5 68.25 57.5H79.75C79.9535 57.5 80.1489 57.4653 80.3305 57.4014L74.5247 51.7148L80.3305 57.4014ZM79.75 42.5H68.25C67.2835 42.5 66.5 43.2835 66.5 44.25V55.75C66.5 55.9584 66.5364 56.1583 66.6033 56.3437L72.4258 50.643C73.2589 49.8273 74.5675 49.7885 75.4458 50.5266L75.5742 50.6431L81.3964 56.3447C81.4634 56.159 81.5 55.9588 81.5 55.75V44.25C81.5 43.2835 80.7165 42.5 79.75 42.5ZM77.2521 44.5C78.4959 44.5 79.5042 45.5083 79.5042 46.7521C79.5042 47.9959 78.4959 49.0042 77.2521 49.0042C76.0083 49.0042 75 47.9959 75 46.7521C75 45.5083 76.0083 44.5 77.2521 44.5ZM77.2521 46C76.8367 46 76.5 46.3367 76.5 46.7521C76.5 47.1675 76.8367 47.5042 77.2521 47.5042C77.6675 47.5042 78.0042 47.1675 78.0042 46.7521C78.0042 46.3367 77.6675 46 77.2521 46Z" fill="#020057"/>
<path d="M44.4746 82.6484C43.8535 82.9766 43.0801 83.1406 42.1543 83.1406C40.959 83.1406 40.002 82.7559 39.2832 81.9863C38.5645 81.2168 38.2051 80.207 38.2051 78.957C38.2051 77.6133 38.6094 76.5273 39.418 75.6992C40.2266 74.8711 41.252 74.457 42.4941 74.457C43.291 74.457 43.9512 74.5723 44.4746 74.8027V75.8516C43.873 75.5156 43.209 75.3477 42.4824 75.3477C41.5176 75.3477 40.7344 75.6699 40.1328 76.3145C39.5352 76.959 39.2363 77.8203 39.2363 78.8984C39.2363 79.9219 39.5156 80.7383 40.0742 81.3477C40.6367 81.9531 41.373 82.2559 42.2832 82.2559C43.127 82.2559 43.8574 82.0684 44.4746 81.6934V82.6484ZM47.0176 83H46.0566V74.1172H47.0176V83ZM53.2578 83H52.2969V82.0625H52.2734C51.8555 82.7812 51.2402 83.1406 50.4277 83.1406C49.8301 83.1406 49.3613 82.9824 49.0215 82.666C48.6855 82.3496 48.5176 81.9297 48.5176 81.4062C48.5176 80.2852 49.1777 79.6328 50.498 79.4492L52.2969 79.1973C52.2969 78.1777 51.8848 77.668 51.0605 77.668C50.3379 77.668 49.6855 77.9141 49.1035 78.4062V77.4219C49.6934 77.0469 50.373 76.8594 51.1426 76.8594C52.5527 76.8594 53.2578 77.6055 53.2578 79.0977V83ZM52.2969 79.9648L50.8496 80.1641C50.4043 80.2266 50.0684 80.3379 49.8418 80.498C49.6152 80.6543 49.502 80.9336 49.502 81.3359C49.502 81.6289 49.6055 81.8691 49.8125 82.0566C50.0234 82.2402 50.3027 82.332 50.6504 82.332C51.127 82.332 51.5195 82.166 51.8281 81.834C52.1406 81.498 52.2969 81.0742 52.2969 80.5625V79.9648ZM58.1973 77.9727C58.0293 77.8438 57.7871 77.7793 57.4707 77.7793C57.0605 77.7793 56.7168 77.9727 56.4395 78.3594C56.166 78.7461 56.0293 79.2734 56.0293 79.9414V83H55.0684V77H56.0293V78.2363H56.0527C56.1895 77.8145 56.3984 77.4863 56.6797 77.252C56.9609 77.0137 57.2754 76.8945 57.623 76.8945C57.873 76.8945 58.0645 76.9219 58.1973 76.9766V77.9727ZM59.7324 75.4766C59.5605 75.4766 59.4141 75.418 59.293 75.3008C59.1719 75.1836 59.1113 75.0352 59.1113 74.8555C59.1113 74.6758 59.1719 74.5273 59.293 74.4102C59.4141 74.2891 59.5605 74.2285 59.7324 74.2285C59.9082 74.2285 60.0566 74.2891 60.1777 74.4102C60.3027 74.5273 60.3652 74.6758 60.3652 74.8555C60.3652 75.0273 60.3027 75.1738 60.1777 75.2949C60.0566 75.416 59.9082 75.4766 59.7324 75.4766ZM60.2012 83H59.2402V77H60.2012V83ZM64.9297 82.9414C64.7031 83.0664 64.4043 83.1289 64.0332 83.1289C62.9824 83.1289 62.457 82.543 62.457 81.3711V77.8203H61.4258V77H62.457V75.5352L63.418 75.2246V77H64.9297V77.8203H63.418V81.2012C63.418 81.6035 63.4863 81.8906 63.623 82.0625C63.7598 82.2344 63.9863 82.3203 64.3027 82.3203C64.5449 82.3203 64.7539 82.2539 64.9297 82.1211V82.9414ZM70.9883 77L68.2285 83.9609C67.7363 85.2031 67.0449 85.8242 66.1543 85.8242C65.9043 85.8242 65.6953 85.7988 65.5273 85.748V84.8867C65.7344 84.957 65.9238 84.9922 66.0957 84.9922C66.5801 84.9922 66.9434 84.7031 67.1855 84.125L67.666 82.9883L65.3223 77H66.3887L68.0117 81.6172C68.0312 81.6758 68.0723 81.8281 68.1348 82.0742H68.1699C68.1895 81.9805 68.2285 81.832 68.2871 81.6289L69.9922 77H70.9883ZM74.9697 77.276H85.7337V78.128H74.9697V77.276ZM75.7137 73.724H85.0497V74.588H75.7137V73.724ZM80.4897 78.632H81.4257V82.46C81.4257 82.66 81.4697 82.792 81.5577 82.856C81.6537 82.92 81.8577 82.952 82.1697 82.952C82.2417 82.952 82.3737 82.952 82.5657 82.952C82.7577 82.952 82.9697 82.952 83.2017 82.952C83.4337 82.952 83.6497 82.952 83.8497 82.952C84.0577 82.952 84.2057 82.952 84.2937 82.952C84.5017 82.952 84.6537 82.908 84.7497 82.82C84.8537 82.724 84.9257 82.54 84.9657 82.268C85.0057 81.988 85.0377 81.576 85.0617 81.032C85.1337 81.08 85.2217 81.132 85.3257 81.188C85.4297 81.236 85.5337 81.28 85.6377 81.32C85.7497 81.352 85.8457 81.38 85.9257 81.404C85.8857 82.044 85.8177 82.54 85.7217 82.892C85.6257 83.244 85.4697 83.488 85.2537 83.624C85.0457 83.768 84.7457 83.84 84.3537 83.84C84.3057 83.84 84.2017 83.84 84.0417 83.84C83.8897 83.84 83.7137 83.84 83.5137 83.84C83.3137 83.84 83.1137 83.84 82.9137 83.84C82.7137 83.84 82.5377 83.84 82.3857 83.84C82.2337 83.84 82.1337 83.84 82.0857 83.84C81.6697 83.84 81.3457 83.8 81.1137 83.72C80.8817 83.64 80.7177 83.496 80.6217 83.288C80.5337 83.088 80.4897 82.808 80.4897 82.448V78.632ZM79.7217 74.06H80.6337C80.6177 74.988 80.5857 75.876 80.5377 76.724C80.4897 77.564 80.3777 78.352 80.2017 79.088C80.0337 79.824 79.7657 80.504 79.3977 81.128C79.0297 81.744 78.5217 82.292 77.8737 82.772C77.2337 83.252 76.4097 83.656 75.4017 83.984C75.3457 83.872 75.2617 83.74 75.1497 83.588C75.0377 83.436 74.9297 83.316 74.8257 83.228C75.7937 82.924 76.5817 82.556 77.1897 82.124C77.8057 81.684 78.2817 81.18 78.6177 80.612C78.9617 80.044 79.2097 79.42 79.3617 78.74C79.5217 78.052 79.6177 77.32 79.6497 76.544C79.6897 75.76 79.7137 74.932 79.7217 74.06ZM90.0417 77.96H97.7457V78.824H90.0417V77.96ZM90.6417 74.888H97.1817V75.74H90.6417V74.888ZM93.3897 72.92H94.3137V78.572H93.3897V72.92ZM90.0537 82.496C90.5977 82.464 91.2337 82.432 91.9617 82.4C92.6977 82.36 93.4777 82.316 94.3017 82.268C95.1257 82.22 95.9497 82.172 96.7737 82.124V82.94C95.9817 83.004 95.1857 83.064 94.3857 83.12C93.5937 83.176 92.8337 83.228 92.1057 83.276C91.3857 83.324 90.7417 83.368 90.1737 83.408L90.0537 82.496ZM94.8777 80.444L95.6577 80.036C95.9617 80.388 96.2617 80.772 96.5577 81.188C96.8617 81.604 97.1377 82.016 97.3857 82.424C97.6337 82.824 97.8217 83.188 97.9497 83.516L97.1097 83.984C96.9897 83.656 96.8097 83.288 96.5697 82.88C96.3377 82.472 96.0737 82.056 95.7777 81.632C95.4817 81.2 95.1817 80.804 94.8777 80.444ZM92.5977 78.524L93.5697 78.8C93.3937 79.264 93.1977 79.752 92.9817 80.264C92.7737 80.776 92.5577 81.272 92.3337 81.752C92.1177 82.224 91.9097 82.64 91.7097 83L90.9177 82.724C91.0697 82.452 91.2217 82.14 91.3737 81.788C91.5337 81.436 91.6857 81.072 91.8297 80.696C91.9817 80.312 92.1217 79.936 92.2497 79.568C92.3857 79.2 92.5017 78.852 92.5977 78.524ZM87.4497 73.664L87.9417 73.004C88.2217 73.1 88.5097 73.22 88.8057 73.364C89.1017 73.5 89.3817 73.644 89.6457 73.796C89.9177 73.948 90.1417 74.096 90.3177 74.24L89.7897 74.984C89.6297 74.84 89.4177 74.688 89.1537 74.528C88.8897 74.368 88.6097 74.212 88.3137 74.06C88.0177 73.908 87.7297 73.776 87.4497 73.664ZM86.8137 76.976L87.2697 76.292C87.5497 76.372 87.8377 76.476 88.1337 76.604C88.4377 76.724 88.7257 76.856 88.9977 77C89.2777 77.136 89.5057 77.268 89.6817 77.396L89.1897 78.164C89.0217 78.028 88.8017 77.892 88.5297 77.756C88.2657 77.612 87.9817 77.472 87.6777 77.336C87.3817 77.192 87.0937 77.072 86.8137 76.976ZM87.2217 83.216C87.4297 82.904 87.6577 82.536 87.9057 82.112C88.1617 81.68 88.4177 81.224 88.6737 80.744C88.9377 80.264 89.1777 79.8 89.3937 79.352L90.0657 79.928C89.8657 80.352 89.6497 80.792 89.4177 81.248C89.1857 81.704 88.9457 82.152 88.6977 82.592C88.4577 83.032 88.2257 83.44 88.0017 83.816L87.2217 83.216ZM103.194 74.036H109.074V74.804H103.194V74.036ZM105.678 72.92H106.566V76.244H105.678V72.92ZM103.662 77.576L104.082 77.12C104.29 77.216 104.506 77.332 104.73 77.468C104.954 77.604 105.162 77.74 105.354 77.876C105.554 78.012 105.714 78.144 105.834 78.272L105.402 78.788C105.218 78.604 104.962 78.4 104.634 78.176C104.306 77.944 103.982 77.744 103.662 77.576ZM102.786 78.668L103.218 78.2C103.434 78.304 103.654 78.424 103.878 78.56C104.11 78.696 104.326 78.836 104.526 78.98C104.726 79.124 104.882 79.264 104.994 79.4L104.562 79.928C104.442 79.8 104.282 79.66 104.082 79.508C103.89 79.356 103.678 79.208 103.446 79.064C103.222 78.912 103.002 78.78 102.786 78.668ZM102.75 75.884H109.026V76.664H102.75V75.884ZM108.738 75.884H108.87L109.014 75.848L109.59 75.992C109.462 76.392 109.326 76.8 109.182 77.216C109.038 77.632 108.894 77.984 108.75 78.272L108.03 78.08C108.15 77.816 108.274 77.492 108.402 77.108C108.538 76.724 108.65 76.36 108.738 76.016V75.884ZM102.498 79.988H109.698V80.78H102.498V79.988ZM106.014 77.132H106.878V78.572C106.878 78.932 106.854 79.304 106.806 79.688C106.758 80.072 106.658 80.46 106.506 80.852C106.354 81.236 106.13 81.616 105.834 81.992C105.538 82.368 105.146 82.724 104.658 83.06C104.178 83.404 103.574 83.724 102.846 84.02C102.814 83.948 102.766 83.868 102.702 83.78C102.646 83.692 102.582 83.604 102.51 83.516C102.438 83.436 102.37 83.368 102.306 83.312C103.146 82.992 103.814 82.636 104.31 82.244C104.806 81.852 105.174 81.444 105.414 81.02C105.662 80.596 105.822 80.176 105.894 79.76C105.974 79.336 106.014 78.932 106.014 78.548V77.132ZM106.542 81.74L107.082 81.224C107.41 81.432 107.75 81.668 108.102 81.932C108.454 82.188 108.786 82.448 109.098 82.712C109.41 82.968 109.662 83.2 109.854 83.408L109.278 83.996C109.086 83.788 108.838 83.548 108.534 83.276C108.23 83.012 107.902 82.744 107.55 82.472C107.206 82.2 106.87 81.956 106.542 81.74ZM99.6057 73.784L100.182 73.196C100.398 73.372 100.626 73.568 100.866 73.784C101.106 73.992 101.334 74.2 101.55 74.408C101.766 74.608 101.938 74.792 102.066 74.96L101.454 75.62C101.326 75.452 101.158 75.26 100.95 75.044C100.742 74.828 100.518 74.612 100.278 74.396C100.046 74.172 99.8217 73.968 99.6057 73.784ZM100.518 83.708L100.338 82.856L100.554 82.46L102.522 80.888C102.562 81.008 102.614 81.144 102.678 81.296C102.75 81.44 102.814 81.556 102.87 81.644C102.398 82.028 102.014 82.344 101.718 82.592C101.43 82.832 101.206 83.024 101.046 83.168C100.886 83.312 100.766 83.424 100.686 83.504C100.614 83.584 100.558 83.652 100.518 83.708ZM100.518 83.72C100.486 83.656 100.438 83.584 100.374 83.504C100.318 83.424 100.258 83.344 100.194 83.264C100.138 83.192 100.086 83.132 100.038 83.084C100.11 83.028 100.19 82.948 100.278 82.844C100.366 82.732 100.442 82.604 100.506 82.46C100.57 82.308 100.602 82.132 100.602 81.932V76.688H101.442V82.592C101.442 82.592 101.394 82.636 101.298 82.724C101.202 82.804 101.094 82.904 100.974 83.024C100.854 83.152 100.746 83.276 100.65 83.396C100.562 83.524 100.518 83.632 100.518 83.72ZM98.8257 76.688H101.178V77.552H98.8257V76.688ZM46.9035 90.576H51.3435V91.452H46.9035V90.576ZM41.3475 89.664H47.2035V90.516H41.3475V89.664ZM42.7515 92.112H45.8595V92.928H42.7515V92.112ZM42.7515 94.608H45.8595V95.424H42.7515V94.608ZM51.0675 90.576H51.2355L51.3915 90.54L51.9675 90.696C51.7755 92.296 51.4515 93.684 50.9955 94.86C50.5395 96.028 49.9715 97.02 49.2915 97.836C48.6195 98.644 47.8515 99.296 46.9875 99.792C46.9155 99.68 46.8235 99.548 46.7115 99.396C46.5995 99.252 46.4955 99.136 46.3995 99.048C47.1915 98.64 47.9075 98.056 48.5475 97.296C49.1875 96.536 49.7235 95.612 50.1555 94.524C50.5955 93.436 50.8995 92.188 51.0675 90.78V90.576ZM47.9955 91.5C48.2115 92.652 48.5155 93.724 48.9075 94.716C49.2995 95.708 49.7875 96.58 50.3715 97.332C50.9635 98.076 51.6715 98.66 52.4955 99.084C52.4315 99.14 52.3595 99.212 52.2795 99.3C52.1995 99.388 52.1235 99.476 52.0515 99.564C51.9795 99.66 51.9195 99.748 51.8715 99.828C50.9995 99.34 50.2555 98.7 49.6395 97.908C49.0315 97.108 48.5235 96.184 48.1155 95.136C47.7155 94.08 47.3875 92.924 47.1315 91.668L47.9955 91.5ZM42.2715 89.988H43.1355V97.776H42.2715V89.988ZM45.4875 89.988H46.3635V99.936H45.4875V89.988ZM41.0955 97.524C41.4955 97.468 41.9515 97.408 42.4635 97.344C42.9755 97.272 43.5195 97.196 44.0955 97.116C44.6795 97.028 45.2635 96.94 45.8475 96.852L45.8955 97.68C45.0715 97.816 44.2475 97.952 43.4235 98.088C42.6075 98.216 41.8875 98.324 41.2635 98.412L41.0955 97.524ZM57.166 99V90.5977H59.5566C60.2832 90.5977 60.8594 90.7754 61.2852 91.1309C61.7109 91.4863 61.9238 91.9492 61.9238 92.5195C61.9238 92.9961 61.7949 93.4102 61.5371 93.7617C61.2793 94.1133 60.9238 94.3633 60.4707 94.5117V94.5352C61.0371 94.6016 61.4902 94.8164 61.8301 95.1797C62.1699 95.5391 62.3398 96.0078 62.3398 96.5859C62.3398 97.3047 62.082 97.8867 61.5664 98.332C61.0508 98.7773 60.4004 99 59.6152 99H57.166ZM58.1504 91.4883V94.2012H59.1582C59.6973 94.2012 60.1211 94.0723 60.4297 93.8145C60.7383 93.5527 60.8926 93.1855 60.8926 92.7129C60.8926 91.8965 60.3555 91.4883 59.2812 91.4883H58.1504ZM58.1504 95.0859V98.1094H59.4863C60.0645 98.1094 60.5117 97.9727 60.8281 97.6992C61.1484 97.4258 61.3086 97.0508 61.3086 96.5742C61.3086 95.582 60.6328 95.0859 59.2812 95.0859H58.1504ZM64.877 99H63.916V90.1172H64.877V99ZM69.3301 99.1406C68.4434 99.1406 67.7344 98.8613 67.2031 98.3027C66.6758 97.7402 66.4121 96.9961 66.4121 96.0703C66.4121 95.0625 66.6875 94.2754 67.2383 93.709C67.7891 93.1426 68.5332 92.8594 69.4707 92.8594C70.3652 92.8594 71.0625 93.1348 71.5625 93.6855C72.0664 94.2363 72.3184 95 72.3184 95.9766C72.3184 96.9336 72.0469 97.7012 71.5039 98.2793C70.9648 98.8535 70.2402 99.1406 69.3301 99.1406ZM69.4004 93.668C68.7832 93.668 68.2949 93.8789 67.9355 94.3008C67.5762 94.7188 67.3965 95.2969 67.3965 96.0352C67.3965 96.7461 67.5781 97.3066 67.9414 97.7168C68.3047 98.127 68.791 98.332 69.4004 98.332C70.0215 98.332 70.498 98.1309 70.8301 97.7285C71.166 97.3262 71.334 96.7539 71.334 96.0117C71.334 95.2617 71.166 94.6836 70.8301 94.2773C70.498 93.8711 70.0215 93.668 69.4004 93.668ZM74.8379 98.1328H74.8145V99H73.8535V90.1172H74.8145V94.0547H74.8379C75.3105 93.2578 76.002 92.8594 76.9121 92.8594C77.6816 92.8594 78.2832 93.1289 78.7168 93.668C79.1543 94.2031 79.373 94.9219 79.373 95.8242C79.373 96.8281 79.1289 97.6328 78.6406 98.2383C78.1523 98.8398 77.4844 99.1406 76.6367 99.1406C75.8438 99.1406 75.2441 98.8047 74.8379 98.1328ZM74.8145 95.7129V96.5508C74.8145 97.0469 74.9746 97.4688 75.2949 97.8164C75.6191 98.1602 76.0293 98.332 76.5254 98.332C77.1074 98.332 77.5625 98.1094 77.8906 97.6641C78.2227 97.2188 78.3887 96.5996 78.3887 95.8066C78.3887 95.1387 78.2344 94.6152 77.9258 94.2363C77.6172 93.8574 77.1992 93.668 76.6719 93.668C76.1133 93.668 75.6641 93.8633 75.3242 94.2539C74.9844 94.6406 74.8145 95.127 74.8145 95.7129ZM83.6965 95.328H89.6005V96.072H83.6965V95.328ZM83.7685 91.128H89.5525V91.872H83.7685V91.128ZM85.9285 94.284L86.7805 94.476C86.5965 94.86 86.3925 95.272 86.1685 95.712C85.9525 96.144 85.7365 96.564 85.5205 96.972C85.3125 97.372 85.1165 97.732 84.9325 98.052L84.1405 97.776C84.3165 97.472 84.5125 97.12 84.7285 96.72C84.9445 96.32 85.1565 95.908 85.3645 95.484C85.5805 95.052 85.7685 94.652 85.9285 94.284ZM87.7285 95.772L88.5685 95.88C88.4725 96.464 88.3125 96.98 88.0885 97.428C87.8725 97.868 87.5845 98.252 87.2245 98.58C86.8725 98.9 86.4405 99.172 85.9285 99.396C85.4245 99.62 84.8245 99.808 84.1285 99.96C84.0965 99.84 84.0405 99.708 83.9605 99.564C83.8885 99.42 83.8125 99.3 83.7325 99.204C84.5725 99.06 85.2645 98.852 85.8085 98.58C86.3525 98.3 86.7765 97.932 87.0805 97.476C87.3925 97.012 87.6085 96.444 87.7285 95.772ZM88.4845 89.148L89.2645 89.484C89.0885 89.764 88.9045 90.044 88.7125 90.324C88.5285 90.604 88.3525 90.844 88.1845 91.044L87.5725 90.744C87.7245 90.536 87.8885 90.28 88.0645 89.976C88.2405 89.664 88.3805 89.388 88.4845 89.148ZM86.2525 88.908H87.0925V94.428H86.2525V88.908ZM84.2245 89.484L84.8965 89.208C85.0725 89.448 85.2325 89.712 85.3765 90C85.5285 90.288 85.6325 90.54 85.6885 90.756L84.9685 91.068C84.9205 90.86 84.8245 90.608 84.6805 90.312C84.5365 90.008 84.3845 89.732 84.2245 89.484ZM86.2765 91.464L86.8765 91.812C86.6845 92.148 86.4365 92.484 86.1325 92.82C85.8365 93.156 85.5125 93.468 85.1605 93.756C84.8165 94.036 84.4725 94.272 84.1285 94.464C84.0805 94.36 84.0085 94.24 83.9125 94.104C83.8165 93.968 83.7245 93.86 83.6365 93.78C83.9725 93.628 84.3085 93.432 84.6445 93.192C84.9805 92.952 85.2925 92.68 85.5805 92.376C85.8685 92.072 86.1005 91.768 86.2765 91.464ZM86.9965 91.872C87.1005 91.928 87.2565 92.02 87.4645 92.148C87.6805 92.276 87.9085 92.416 88.1485 92.568C88.3885 92.72 88.6085 92.86 88.8085 92.988C89.0085 93.116 89.1525 93.216 89.2405 93.288L88.7365 93.936C88.6325 93.84 88.4845 93.716 88.2925 93.564C88.1005 93.412 87.8925 93.252 87.6685 93.084C87.4525 92.916 87.2445 92.756 87.0445 92.604C86.8445 92.452 86.6805 92.336 86.5525 92.256L86.9965 91.872ZM90.4765 91.128H94.7485V91.968H90.4765V91.128ZM90.7765 88.908L91.6765 89.04C91.5485 89.824 91.3805 90.58 91.1725 91.308C90.9725 92.028 90.7365 92.7 90.4645 93.324C90.1925 93.94 89.8805 94.48 89.5285 94.944C89.4805 94.888 89.4125 94.824 89.3245 94.752C89.2365 94.672 89.1405 94.596 89.0365 94.524C88.9405 94.444 88.8605 94.38 88.7965 94.332C89.1325 93.908 89.4285 93.412 89.6845 92.844C89.9405 92.268 90.1565 91.648 90.3325 90.984C90.5165 90.312 90.6645 89.62 90.7765 88.908ZM93.1285 91.608L94.0525 91.704C93.8605 93.088 93.5725 94.304 93.1885 95.352C92.8125 96.4 92.3005 97.304 91.6525 98.064C91.0125 98.824 90.1885 99.468 89.1805 99.996C89.1485 99.916 89.1005 99.824 89.0365 99.72C88.9725 99.624 88.9045 99.524 88.8325 99.42C88.7685 99.324 88.7045 99.244 88.6405 99.18C89.5925 98.732 90.3685 98.164 90.9685 97.476C91.5685 96.78 92.0365 95.948 92.3725 94.98C92.7165 94.004 92.9685 92.88 93.1285 91.608ZM90.9565 91.872C91.1325 92.976 91.3805 94.012 91.7005 94.98C92.0285 95.94 92.4525 96.784 92.9725 97.512C93.4925 98.232 94.1245 98.788 94.8685 99.18C94.7965 99.244 94.7165 99.32 94.6285 99.408C94.5485 99.496 94.4725 99.588 94.4005 99.684C94.3285 99.78 94.2685 99.872 94.2205 99.96C93.4445 99.496 92.7885 98.876 92.2525 98.1C91.7165 97.316 91.2805 96.408 90.9445 95.376C90.6085 94.344 90.3405 93.22 90.1405 92.004L90.9565 91.872ZM84.8605 97.62L85.3285 97.008C85.8085 97.184 86.2845 97.388 86.7565 97.62C87.2285 97.844 87.6685 98.076 88.0765 98.316C88.4845 98.556 88.8325 98.788 89.1205 99.012L88.4965 99.66C88.2245 99.428 87.8925 99.192 87.5005 98.952C87.1085 98.712 86.6845 98.476 86.2285 98.244C85.7805 98.012 85.3245 97.804 84.8605 97.62ZM100.401 89.448H106.305V92.556H100.413V91.764H105.441V90.228H100.401V89.448ZM99.9685 89.448H100.845V93.072C100.845 93.576 100.829 94.128 100.797 94.728C100.765 95.32 100.697 95.928 100.593 96.552C100.489 97.168 100.337 97.768 100.137 98.352C99.9445 98.936 99.6845 99.468 99.3565 99.948C99.3005 99.9 99.2285 99.84 99.1405 99.768C99.0525 99.704 98.9565 99.64 98.8525 99.576C98.7565 99.52 98.6765 99.476 98.6125 99.444C98.9245 98.98 99.1685 98.48 99.3445 97.944C99.5285 97.408 99.6645 96.856 99.7525 96.288C99.8485 95.712 99.9085 95.152 99.9325 94.608C99.9565 94.056 99.9685 93.544 99.9685 93.072V89.448ZM100.449 93.876H106.725V94.656H100.449V93.876ZM101.421 98.736H105.861V99.48H101.421V98.736ZM103.185 92.46H104.037V96.492H103.185V92.46ZM101.037 96.144H106.353V99.924H105.525V96.912H101.829V99.972H101.037V96.144ZM95.5765 95.292C96.0485 95.164 96.6205 95 97.2925 94.8C97.9645 94.592 98.6405 94.38 99.3205 94.164L99.4525 94.992C98.8205 95.2 98.1845 95.408 97.5445 95.616C96.9125 95.824 96.3365 96.012 95.8165 96.18L95.5765 95.292ZM95.7325 91.344H99.4285V92.184H95.7325V91.344ZM97.2325 88.932H98.0725V98.832C98.0725 99.08 98.0405 99.268 97.9765 99.396C97.9205 99.532 97.8165 99.636 97.6645 99.708C97.5205 99.78 97.3285 99.828 97.0885 99.852C96.8485 99.876 96.5365 99.884 96.1525 99.876C96.1445 99.772 96.1125 99.636 96.0565 99.468C96.0085 99.308 95.9565 99.168 95.9005 99.048C96.1565 99.056 96.3885 99.06 96.5965 99.06C96.8125 99.06 96.9565 99.056 97.0285 99.048C97.1005 99.048 97.1525 99.032 97.1845 99C97.2165 98.976 97.2325 98.92 97.2325 98.832V88.932Z" fill="#020057"/>
</g>
<defs>
<filter id="filter0_dd_3872_62959" x="0.8" y="2.38419e-07" width="146.4" height="146.4" filterUnits="userSpaceOnUse" color-interpolation-filters="sRGB">
<feFlood flood-opacity="0" result="BackgroundImageFix"/>
<feColorMatrix in="SourceAlpha" type="matrix" values="0 0 0 0 0 0 0 0 0 0 0 0 0 0 0 0 0 0 127 0" result="hardAlpha"/>
<feOffset dy="3.2"/>
<feGaussianBlur stdDeviation="3.6"/>
<feColorMatrix type="matrix" values="0 0 0 0 0.513726 0 0 0 0 0.494118 0 0 0 0 1 0 0 0 0.12 0"/>
<feBlend mode="normal" in2="BackgroundImageFix" result="effect1_dropShadow_3872_62959"/>
<feColorMatrix in="SourceAlpha" type="matrix" values="0 0 0 0 0 0 0 0 0 0 0 0 0 0 0 0 0 0 127 0" result="hardAlpha"/>
<feOffset dy="0.6"/>
<feGaussianBlur stdDeviation="0.9"/>
<feColorMatrix type="matrix" values="0 0 0 0 0.513726 0 0 0 0 0.494118 0 0 0 0 1 0 0 0 0.1 0"/>
<feBlend mode="normal" in2="effect1_dropShadow_3872_62959" result="effect2_dropShadow_3872_62959"/>
<feBlend mode="normal" in="SourceGraphic" in2="effect2_dropShadow_3872_62959" result="shape"/>
</filter>
</defs>
</svg>
