<svg width="100%" viewBox="0 0 148 147" fill="none" xmlns="http://www.w3.org/2000/svg">
<g filter="url(#filter0_dd_3872_62960)">
<rect x="8" y="4" width="132" height="132" fill="#FBFBFE"/>
<rect x="8.5" y="4.5" width="131" height="131" stroke="#827DFF" stroke-dasharray="4 4"/>
<rect width="100" height="80" transform="translate(24 30)" fill="#FBFBFE"/>
<path d="M79.75 41C81.5449 41 83 42.4551 83 44.25V55.75C83 57.5449 81.5449 59 79.75 59H68.25C66.4551 59 65 57.5449 65 55.75V44.25C65 42.4551 66.4551 41 68.25 41H79.75ZM80.3305 57.4014L74.5247 51.7148C74.2596 51.4553 73.8501 51.4316 73.5588 51.644L73.4752 51.7148L67.6685 57.4011C67.8504 57.4651 68.0461 57.5 68.25 57.5H79.75C79.9535 57.5 80.1489 57.4653 80.3305 57.4014L74.5247 51.7148L80.3305 57.4014ZM79.75 42.5H68.25C67.2835 42.5 66.5 43.2835 66.5 44.25V55.75C66.5 55.9584 66.5364 56.1583 66.6033 56.3437L72.4258 50.643C73.2589 49.8273 74.5675 49.7885 75.4458 50.5266L75.5742 50.6431L81.3964 56.3447C81.4634 56.159 81.5 55.9588 81.5 55.75V44.25C81.5 43.2835 80.7165 42.5 79.75 42.5ZM77.2521 44.5C78.4959 44.5 79.5042 45.5083 79.5042 46.7521C79.5042 47.9959 78.4959 49.0042 77.2521 49.0042C76.0083 49.0042 75 47.9959 75 46.7521C75 45.5083 76.0083 44.5 77.2521 44.5ZM77.2521 46C76.8367 46 76.5 46.3367 76.5 46.7521C76.5 47.1675 76.8367 47.5042 77.2521 47.5042C77.6675 47.5042 78.0042 47.1675 78.0042 46.7521C78.0042 46.3367 77.6675 46 77.2521 46Z" fill="#020057"/>
<path d="M44.4746 82.6484C43.8535 82.9766 43.0801 83.1406 42.1543 83.1406C40.959 83.1406 40.002 82.7559 39.2832 81.9863C38.5645 81.2168 38.2051 80.207 38.2051 78.957C38.2051 77.6133 38.6094 76.5273 39.418 75.6992C40.2266 74.8711 41.252 74.457 42.4941 74.457C43.291 74.457 43.9512 74.5723 44.4746 74.8027V75.8516C43.873 75.5156 43.209 75.3477 42.4824 75.3477C41.5176 75.3477 40.7344 75.6699 40.1328 76.3145C39.5352 76.959 39.2363 77.8203 39.2363 78.8984C39.2363 79.9219 39.5156 80.7383 40.0742 81.3477C40.6367 81.9531 41.373 82.2559 42.2832 82.2559C43.127 82.2559 43.8574 82.0684 44.4746 81.6934V82.6484ZM47.0176 83H46.0566V74.1172H47.0176V83ZM53.2578 83H52.2969V82.0625H52.2734C51.8555 82.7812 51.2402 83.1406 50.4277 83.1406C49.8301 83.1406 49.3613 82.9824 49.0215 82.666C48.6855 82.3496 48.5176 81.9297 48.5176 81.4062C48.5176 80.2852 49.1777 79.6328 50.498 79.4492L52.2969 79.1973C52.2969 78.1777 51.8848 77.668 51.0605 77.668C50.3379 77.668 49.6855 77.9141 49.1035 78.4062V77.4219C49.6934 77.0469 50.373 76.8594 51.1426 76.8594C52.5527 76.8594 53.2578 77.6055 53.2578 79.0977V83ZM52.2969 79.9648L50.8496 80.1641C50.4043 80.2266 50.0684 80.3379 49.8418 80.498C49.6152 80.6543 49.502 80.9336 49.502 81.3359C49.502 81.6289 49.6055 81.8691 49.8125 82.0566C50.0234 82.2402 50.3027 82.332 50.6504 82.332C51.127 82.332 51.5195 82.166 51.8281 81.834C52.1406 81.498 52.2969 81.0742 52.2969 80.5625V79.9648ZM58.1973 77.9727C58.0293 77.8438 57.7871 77.7793 57.4707 77.7793C57.0605 77.7793 56.7168 77.9727 56.4395 78.3594C56.166 78.7461 56.0293 79.2734 56.0293 79.9414V83H55.0684V77H56.0293V78.2363H56.0527C56.1895 77.8145 56.3984 77.4863 56.6797 77.252C56.9609 77.0137 57.2754 76.8945 57.623 76.8945C57.873 76.8945 58.0645 76.9219 58.1973 76.9766V77.9727ZM59.7324 75.4766C59.5605 75.4766 59.4141 75.418 59.293 75.3008C59.1719 75.1836 59.1113 75.0352 59.1113 74.8555C59.1113 74.6758 59.1719 74.5273 59.293 74.4102C59.4141 74.2891 59.5605 74.2285 59.7324 74.2285C59.9082 74.2285 60.0566 74.2891 60.1777 74.4102C60.3027 74.5273 60.3652 74.6758 60.3652 74.8555C60.3652 75.0273 60.3027 75.1738 60.1777 75.2949C60.0566 75.416 59.9082 75.4766 59.7324 75.4766ZM60.2012 83H59.2402V77H60.2012V83ZM64.9297 82.9414C64.7031 83.0664 64.4043 83.1289 64.0332 83.1289C62.9824 83.1289 62.457 82.543 62.457 81.3711V77.8203H61.4258V77H62.457V75.5352L63.418 75.2246V77H64.9297V77.8203H63.418V81.2012C63.418 81.6035 63.4863 81.8906 63.623 82.0625C63.7598 82.2344 63.9863 82.3203 64.3027 82.3203C64.5449 82.3203 64.7539 82.2539 64.9297 82.1211V82.9414ZM70.9883 77L68.2285 83.9609C67.7363 85.2031 67.0449 85.8242 66.1543 85.8242C65.9043 85.8242 65.6953 85.7988 65.5273 85.748V84.8867C65.7344 84.957 65.9238 84.9922 66.0957 84.9922C66.5801 84.9922 66.9434 84.7031 67.1855 84.125L67.666 82.9883L65.3223 77H66.3887L68.0117 81.6172C68.0312 81.6758 68.0723 81.8281 68.1348 82.0742H68.1699C68.1895 81.9805 68.2285 81.832 68.2871 81.6289L69.9922 77H70.9883ZM77.4177 72.92L78.2937 73.172C78.0777 73.62 77.8217 74.06 77.5257 74.492C77.2297 74.916 76.9137 75.312 76.5777 75.68C76.2497 76.048 75.9177 76.372 75.5817 76.652C75.5337 76.596 75.4617 76.532 75.3657 76.46C75.2777 76.38 75.1857 76.304 75.0897 76.232C75.0017 76.16 74.9217 76.104 74.8497 76.064C75.3617 75.68 75.8457 75.212 76.3017 74.66C76.7577 74.108 77.1297 73.528 77.4177 72.92ZM76.9977 74.3H85.2657V75.116H76.6977L76.9977 74.3ZM74.9937 77.132H85.7097V77.96H74.9937V77.132ZM75.1737 80H85.5537V80.828H75.1737V80ZM78.8097 74.576H79.6017V80.396H78.8097V74.576ZM76.6737 74.576H77.4777V80.432H76.6737V74.576ZM80.9817 74.576H81.7617V80.432H80.9817V74.576ZM83.1777 74.576H84.0177V80.432H83.1777V74.576ZM78.4857 81.644L79.3137 81.56C79.3937 81.912 79.4617 82.292 79.5177 82.7C79.5737 83.108 79.6057 83.452 79.6137 83.732L78.7377 83.852C78.7377 83.66 78.7257 83.436 78.7017 83.18C78.6857 82.932 78.6577 82.672 78.6177 82.4C78.5857 82.128 78.5417 81.876 78.4857 81.644ZM80.9337 81.644L81.7737 81.488C81.8857 81.72 81.9937 81.972 82.0977 82.244C82.2017 82.508 82.2937 82.764 82.3737 83.012C82.4537 83.26 82.5137 83.48 82.5537 83.672L81.6657 83.864C81.6097 83.576 81.5137 83.224 81.3777 82.808C81.2417 82.392 81.0937 82.004 80.9337 81.644ZM83.3817 81.56L84.2337 81.284C84.4337 81.516 84.6377 81.776 84.8457 82.064C85.0537 82.352 85.2457 82.636 85.4217 82.916C85.6057 83.188 85.7497 83.436 85.8537 83.66L84.9657 83.984C84.8697 83.768 84.7337 83.52 84.5577 83.24C84.3897 82.96 84.2017 82.672 83.9937 82.376C83.7857 82.08 83.5817 81.808 83.3817 81.56ZM76.3857 81.332L77.2497 81.548C77.0897 81.996 76.8817 82.44 76.6257 82.88C76.3697 83.32 76.0777 83.684 75.7497 83.972L74.9097 83.624C75.2217 83.368 75.5097 83.032 75.7737 82.616C76.0377 82.2 76.2417 81.772 76.3857 81.332ZM90.0417 77.96H97.7457V78.824H90.0417V77.96ZM90.6417 74.888H97.1817V75.74H90.6417V74.888ZM93.3897 72.92H94.3137V78.572H93.3897V72.92ZM90.0537 82.496C90.5977 82.464 91.2337 82.432 91.9617 82.4C92.6977 82.36 93.4777 82.316 94.3017 82.268C95.1257 82.22 95.9497 82.172 96.7737 82.124V82.94C95.9817 83.004 95.1857 83.064 94.3857 83.12C93.5937 83.176 92.8337 83.228 92.1057 83.276C91.3857 83.324 90.7417 83.368 90.1737 83.408L90.0537 82.496ZM94.8777 80.444L95.6577 80.036C95.9617 80.388 96.2617 80.772 96.5577 81.188C96.8617 81.604 97.1377 82.016 97.3857 82.424C97.6337 82.824 97.8217 83.188 97.9497 83.516L97.1097 83.984C96.9897 83.656 96.8097 83.288 96.5697 82.88C96.3377 82.472 96.0737 82.056 95.7777 81.632C95.4817 81.2 95.1817 80.804 94.8777 80.444ZM92.5977 78.524L93.5697 78.8C93.3937 79.264 93.1977 79.752 92.9817 80.264C92.7737 80.776 92.5577 81.272 92.3337 81.752C92.1177 82.224 91.9097 82.64 91.7097 83L90.9177 82.724C91.0697 82.452 91.2217 82.14 91.3737 81.788C91.5337 81.436 91.6857 81.072 91.8297 80.696C91.9817 80.312 92.1217 79.936 92.2497 79.568C92.3857 79.2 92.5017 78.852 92.5977 78.524ZM87.4497 73.664L87.9417 73.004C88.2217 73.1 88.5097 73.22 88.8057 73.364C89.1017 73.5 89.3817 73.644 89.6457 73.796C89.9177 73.948 90.1417 74.096 90.3177 74.24L89.7897 74.984C89.6297 74.84 89.4177 74.688 89.1537 74.528C88.8897 74.368 88.6097 74.212 88.3137 74.06C88.0177 73.908 87.7297 73.776 87.4497 73.664ZM86.8137 76.976L87.2697 76.292C87.5497 76.372 87.8377 76.476 88.1337 76.604C88.4377 76.724 88.7257 76.856 88.9977 77C89.2777 77.136 89.5057 77.268 89.6817 77.396L89.1897 78.164C89.0217 78.028 88.8017 77.892 88.5297 77.756C88.2657 77.612 87.9817 77.472 87.6777 77.336C87.3817 77.192 87.0937 77.072 86.8137 76.976ZM87.2217 83.216C87.4297 82.904 87.6577 82.536 87.9057 82.112C88.1617 81.68 88.4177 81.224 88.6737 80.744C88.9377 80.264 89.1777 79.8 89.3937 79.352L90.0657 79.928C89.8657 80.352 89.6497 80.792 89.4177 81.248C89.1857 81.704 88.9457 82.152 88.6977 82.592C88.4577 83.032 88.2257 83.44 88.0017 83.816L87.2217 83.216ZM103.05 73.58H109.686V74.204H103.05V73.58ZM103.47 74.792H109.35V75.38H103.47V74.792ZM105.834 72.92H106.71V75.104H105.834V72.92ZM106.698 76.124H107.31V76.664C107.31 76.76 107.326 76.82 107.358 76.844C107.398 76.868 107.486 76.88 107.622 76.88C107.662 76.88 107.746 76.88 107.874 76.88C108.01 76.88 108.146 76.88 108.282 76.88C108.418 76.88 108.514 76.88 108.57 76.88C108.666 76.88 108.73 76.88 108.762 76.88C108.794 76.872 108.814 76.86 108.822 76.844C108.886 76.876 108.966 76.908 109.062 76.94C109.158 76.964 109.246 76.984 109.326 77C109.302 77.112 109.242 77.192 109.146 77.24C109.05 77.288 108.894 77.312 108.678 77.312C108.646 77.312 108.574 77.312 108.462 77.312C108.358 77.312 108.242 77.312 108.114 77.312C107.986 77.312 107.87 77.312 107.766 77.312C107.662 77.312 107.594 77.312 107.562 77.312C107.218 77.312 106.986 77.272 106.866 77.192C106.754 77.112 106.698 76.936 106.698 76.664V76.124ZM105.342 76.148H105.918C105.91 76.42 105.858 76.648 105.762 76.832C105.666 77.008 105.494 77.148 105.246 77.252C105.006 77.356 104.662 77.432 104.214 77.48C104.19 77.416 104.15 77.34 104.094 77.252C104.046 77.164 103.994 77.096 103.938 77.048C104.322 77.016 104.61 76.972 104.802 76.916C105.002 76.852 105.142 76.76 105.222 76.64C105.302 76.52 105.342 76.356 105.342 76.148ZM103.866 76.4V77.732H108.822V76.4H103.866ZM103.134 75.872H109.602V78.26H103.134V75.872ZM104.31 80.192V80.72H108.426V80.192H104.31ZM104.31 81.152V81.692H108.426V81.152H104.31ZM104.31 79.244V79.748H108.426V79.244H104.31ZM103.482 78.692H109.278V82.232H103.482V78.692ZM106.89 82.688L107.454 82.208C107.75 82.336 108.054 82.476 108.366 82.628C108.678 82.78 108.974 82.928 109.254 83.072C109.534 83.224 109.778 83.36 109.986 83.48L109.254 83.972C109.07 83.852 108.846 83.716 108.582 83.564C108.318 83.42 108.042 83.272 107.754 83.12C107.466 82.968 107.178 82.824 106.89 82.688ZM104.946 82.232L105.702 82.664C105.47 82.832 105.202 83 104.898 83.168C104.594 83.336 104.278 83.488 103.95 83.624C103.63 83.76 103.322 83.876 103.026 83.972C102.954 83.892 102.862 83.792 102.75 83.672C102.638 83.56 102.534 83.472 102.438 83.408C102.75 83.312 103.066 83.2 103.386 83.072C103.706 82.944 104.002 82.808 104.274 82.664C104.554 82.512 104.778 82.368 104.946 82.232ZM99.2937 76.556H102.378V77.264H99.2937V76.556ZM99.3777 73.34H102.354V74.06H99.3777V73.34ZM99.2937 78.152H102.378V78.872H99.2937V78.152ZM98.8017 74.912H102.69V75.668H98.8017V74.912ZM99.7137 79.772H102.366V83.264H99.7137V82.52H101.622V80.516H99.7137V79.772ZM99.2817 79.772H100.026V83.828H99.2817V79.772ZM46.9035 90.576H51.3435V91.452H46.9035V90.576ZM41.3475 89.664H47.2035V90.516H41.3475V89.664ZM42.7515 92.112H45.8595V92.928H42.7515V92.112ZM42.7515 94.608H45.8595V95.424H42.7515V94.608ZM51.0675 90.576H51.2355L51.3915 90.54L51.9675 90.696C51.7755 92.296 51.4515 93.684 50.9955 94.86C50.5395 96.028 49.9715 97.02 49.2915 97.836C48.6195 98.644 47.8515 99.296 46.9875 99.792C46.9155 99.68 46.8235 99.548 46.7115 99.396C46.5995 99.252 46.4955 99.136 46.3995 99.048C47.1915 98.64 47.9075 98.056 48.5475 97.296C49.1875 96.536 49.7235 95.612 50.1555 94.524C50.5955 93.436 50.8995 92.188 51.0675 90.78V90.576ZM47.9955 91.5C48.2115 92.652 48.5155 93.724 48.9075 94.716C49.2995 95.708 49.7875 96.58 50.3715 97.332C50.9635 98.076 51.6715 98.66 52.4955 99.084C52.4315 99.14 52.3595 99.212 52.2795 99.3C52.1995 99.388 52.1235 99.476 52.0515 99.564C51.9795 99.66 51.9195 99.748 51.8715 99.828C50.9995 99.34 50.2555 98.7 49.6395 97.908C49.0315 97.108 48.5235 96.184 48.1155 95.136C47.7155 94.08 47.3875 92.924 47.1315 91.668L47.9955 91.5ZM42.2715 89.988H43.1355V97.776H42.2715V89.988ZM45.4875 89.988H46.3635V99.936H45.4875V89.988ZM41.0955 97.524C41.4955 97.468 41.9515 97.408 42.4635 97.344C42.9755 97.272 43.5195 97.196 44.0955 97.116C44.6795 97.028 45.2635 96.94 45.8475 96.852L45.8955 97.68C45.0715 97.816 44.2475 97.952 43.4235 98.088C42.6075 98.216 41.8875 98.324 41.2635 98.412L41.0955 97.524ZM57.166 99V90.5977H59.5566C60.2832 90.5977 60.8594 90.7754 61.2852 91.1309C61.7109 91.4863 61.9238 91.9492 61.9238 92.5195C61.9238 92.9961 61.7949 93.4102 61.5371 93.7617C61.2793 94.1133 60.9238 94.3633 60.4707 94.5117V94.5352C61.0371 94.6016 61.4902 94.8164 61.8301 95.1797C62.1699 95.5391 62.3398 96.0078 62.3398 96.5859C62.3398 97.3047 62.082 97.8867 61.5664 98.332C61.0508 98.7773 60.4004 99 59.6152 99H57.166ZM58.1504 91.4883V94.2012H59.1582C59.6973 94.2012 60.1211 94.0723 60.4297 93.8145C60.7383 93.5527 60.8926 93.1855 60.8926 92.7129C60.8926 91.8965 60.3555 91.4883 59.2812 91.4883H58.1504ZM58.1504 95.0859V98.1094H59.4863C60.0645 98.1094 60.5117 97.9727 60.8281 97.6992C61.1484 97.4258 61.3086 97.0508 61.3086 96.5742C61.3086 95.582 60.6328 95.0859 59.2812 95.0859H58.1504ZM64.877 99H63.916V90.1172H64.877V99ZM69.3301 99.1406C68.4434 99.1406 67.7344 98.8613 67.2031 98.3027C66.6758 97.7402 66.4121 96.9961 66.4121 96.0703C66.4121 95.0625 66.6875 94.2754 67.2383 93.709C67.7891 93.1426 68.5332 92.8594 69.4707 92.8594C70.3652 92.8594 71.0625 93.1348 71.5625 93.6855C72.0664 94.2363 72.3184 95 72.3184 95.9766C72.3184 96.9336 72.0469 97.7012 71.5039 98.2793C70.9648 98.8535 70.2402 99.1406 69.3301 99.1406ZM69.4004 93.668C68.7832 93.668 68.2949 93.8789 67.9355 94.3008C67.5762 94.7188 67.3965 95.2969 67.3965 96.0352C67.3965 96.7461 67.5781 97.3066 67.9414 97.7168C68.3047 98.127 68.791 98.332 69.4004 98.332C70.0215 98.332 70.498 98.1309 70.8301 97.7285C71.166 97.3262 71.334 96.7539 71.334 96.0117C71.334 95.2617 71.166 94.6836 70.8301 94.2773C70.498 93.8711 70.0215 93.668 69.4004 93.668ZM74.8379 98.1328H74.8145V99H73.8535V90.1172H74.8145V94.0547H74.8379C75.3105 93.2578 76.002 92.8594 76.9121 92.8594C77.6816 92.8594 78.2832 93.1289 78.7168 93.668C79.1543 94.2031 79.373 94.9219 79.373 95.8242C79.373 96.8281 79.1289 97.6328 78.6406 98.2383C78.1523 98.8398 77.4844 99.1406 76.6367 99.1406C75.8438 99.1406 75.2441 98.8047 74.8379 98.1328ZM74.8145 95.7129V96.5508C74.8145 97.0469 74.9746 97.4688 75.2949 97.8164C75.6191 98.1602 76.0293 98.332 76.5254 98.332C77.1074 98.332 77.5625 98.1094 77.8906 97.6641C78.2227 97.2188 78.3887 96.5996 78.3887 95.8066C78.3887 95.1387 78.2344 94.6152 77.9258 94.2363C77.6172 93.8574 77.1992 93.668 76.6719 93.668C76.1133 93.668 75.6641 93.8633 75.3242 94.2539C74.9844 94.6406 74.8145 95.127 74.8145 95.7129ZM84.3805 89.808L84.7885 89.184C85.0685 89.256 85.3645 89.348 85.6765 89.46C85.9885 89.564 86.2885 89.676 86.5765 89.796C86.8725 89.908 87.1165 90.012 87.3085 90.108L86.9125 90.816C86.7205 90.704 86.4805 90.588 86.1925 90.468C85.9045 90.348 85.6005 90.228 85.2805 90.108C84.9605 89.988 84.6605 89.888 84.3805 89.808ZM83.7805 92.34C84.2125 92.228 84.7285 92.088 85.3285 91.92C85.9365 91.752 86.5485 91.584 87.1645 91.416L87.2605 92.136C86.7245 92.312 86.1805 92.488 85.6285 92.664C85.0845 92.832 84.5885 92.984 84.1405 93.12L83.7805 92.34ZM88.9405 89.796H93.7525V90.48H88.4125L88.9405 89.796ZM93.5245 89.796H93.6685L93.8125 89.76L94.4245 89.94C94.2565 90.252 94.0645 90.564 93.8485 90.876C93.6405 91.188 93.4285 91.448 93.2125 91.656L92.4925 91.404C92.6765 91.212 92.8645 90.984 93.0565 90.72C93.2485 90.448 93.4045 90.184 93.5245 89.928V89.796ZM90.4285 90.048H91.2565C91.1845 90.472 91.0765 90.852 90.9325 91.188C90.7965 91.516 90.5965 91.808 90.3325 92.064C90.0765 92.32 89.7405 92.54 89.3245 92.724C88.9085 92.9 88.3965 93.048 87.7885 93.168C87.7485 93.072 87.6845 92.96 87.5965 92.832C87.5085 92.704 87.4285 92.6 87.3565 92.52C87.9085 92.432 88.3685 92.316 88.7365 92.172C89.1125 92.028 89.4125 91.86 89.6365 91.668C89.8685 91.468 90.0445 91.236 90.1645 90.972C90.2925 90.7 90.3805 90.392 90.4285 90.048ZM91.2205 90.252C91.2765 90.508 91.3645 90.76 91.4845 91.008C91.6125 91.248 91.8005 91.476 92.0485 91.692C92.2965 91.908 92.6325 92.096 93.0565 92.256C93.4885 92.416 94.0405 92.544 94.7125 92.64C94.6325 92.728 94.5445 92.848 94.4485 93C94.3525 93.144 94.2845 93.272 94.2445 93.384C93.5325 93.256 92.9485 93.088 92.4925 92.88C92.0365 92.664 91.6765 92.42 91.4125 92.148C91.1485 91.868 90.9445 91.576 90.8005 91.272C90.6645 90.96 90.5565 90.648 90.4765 90.336L91.2205 90.252ZM89.1325 88.92L89.9365 89.04C89.7365 89.48 89.4765 89.916 89.1565 90.348C88.8445 90.772 88.4565 91.164 87.9925 91.524C87.9125 91.444 87.8045 91.36 87.6685 91.272C87.5405 91.184 87.4205 91.12 87.3085 91.08C87.7565 90.768 88.1325 90.42 88.4365 90.036C88.7405 89.644 88.9725 89.272 89.1325 88.92ZM86.2765 95.184V96.012H92.3245V95.184H86.2765ZM86.2765 96.588V97.428H92.3245V96.588H86.2765ZM86.2765 93.792V94.596H92.3245V93.792H86.2765ZM85.4005 93.18H93.2245V98.028H85.4005V93.18ZM90.2365 98.652L90.9685 98.196C91.4085 98.332 91.8525 98.476 92.3005 98.628C92.7485 98.78 93.1725 98.932 93.5725 99.084C93.9725 99.244 94.3165 99.392 94.6045 99.528L93.5965 99.984C93.3485 99.856 93.0445 99.716 92.6845 99.564C92.3245 99.412 91.9365 99.256 91.5205 99.096C91.1045 98.944 90.6765 98.796 90.2365 98.652ZM87.4045 98.16L88.2325 98.532C87.9045 98.724 87.5285 98.912 87.1045 99.096C86.6885 99.28 86.2565 99.448 85.8085 99.6C85.3605 99.752 84.9365 99.884 84.5365 99.996C84.4885 99.932 84.4245 99.856 84.3445 99.768C84.2645 99.688 84.1805 99.604 84.0925 99.516C84.0125 99.436 83.9365 99.372 83.8645 99.324C84.2805 99.236 84.7045 99.132 85.1365 99.012C85.5765 98.892 85.9925 98.76 86.3845 98.616C86.7765 98.472 87.1165 98.32 87.4045 98.16ZM97.7245 88.956H98.5645V99.948H97.7245V88.956ZM95.7925 92.952H100.533V93.792H95.7925V92.952ZM97.6045 93.396L98.1445 93.624C98.0405 94.04 97.9085 94.472 97.7485 94.92C97.5965 95.36 97.4285 95.796 97.2445 96.228C97.0605 96.66 96.8685 97.068 96.6685 97.452C96.4685 97.828 96.2685 98.152 96.0685 98.424C96.0365 98.336 95.9925 98.24 95.9365 98.136C95.8885 98.032 95.8325 97.928 95.7685 97.824C95.7125 97.712 95.6565 97.62 95.6005 97.548C95.8565 97.236 96.1125 96.844 96.3685 96.372C96.6325 95.9 96.8725 95.404 97.0885 94.884C97.3045 94.356 97.4765 93.86 97.6045 93.396ZM98.5525 93.948C98.6165 94.02 98.7085 94.136 98.8285 94.296C98.9565 94.456 99.0965 94.636 99.2485 94.836C99.4085 95.036 99.5645 95.236 99.7165 95.436C99.8685 95.636 100.005 95.82 100.125 95.988C100.245 96.148 100.329 96.268 100.377 96.348L99.7765 97.056C99.7045 96.896 99.5965 96.692 99.4525 96.444C99.3085 96.188 99.1485 95.924 98.9725 95.652C98.8045 95.372 98.6405 95.112 98.4805 94.872C98.3285 94.632 98.2045 94.448 98.1085 94.32L98.5525 93.948ZM95.8765 89.856L96.5365 89.676C96.6565 89.956 96.7605 90.256 96.8485 90.576C96.9445 90.896 97.0285 91.208 97.1005 91.512C97.1725 91.816 97.2205 92.092 97.2445 92.34L96.5245 92.52C96.5165 92.28 96.4765 92.008 96.4045 91.704C96.3405 91.392 96.2605 91.076 96.1645 90.756C96.0765 90.428 95.9805 90.128 95.8765 89.856ZM99.7525 89.64L100.545 89.844C100.449 90.14 100.341 90.456 100.221 90.792C100.109 91.12 99.9925 91.44 99.8725 91.752C99.7605 92.056 99.6525 92.324 99.5485 92.556L98.9605 92.364C99.0565 92.124 99.1525 91.844 99.2485 91.524C99.3525 91.196 99.4485 90.868 99.5365 90.54C99.6325 90.204 99.7045 89.904 99.7525 89.64ZM104.409 88.92H105.273V99.948H104.409V88.92ZM100.509 96.564L106.677 95.448L106.821 96.276L100.665 97.392L100.509 96.564ZM101.421 90.396L101.877 89.772C102.109 89.908 102.345 90.064 102.585 90.24C102.833 90.408 103.065 90.58 103.281 90.756C103.497 90.932 103.669 91.096 103.797 91.248L103.317 91.932C103.197 91.78 103.029 91.612 102.813 91.428C102.605 91.244 102.377 91.06 102.129 90.876C101.889 90.692 101.653 90.532 101.421 90.396ZM100.809 93.42L101.229 92.784C101.469 92.904 101.717 93.044 101.973 93.204C102.229 93.356 102.473 93.516 102.705 93.684C102.937 93.844 103.121 93.996 103.257 94.14L102.813 94.86C102.669 94.716 102.485 94.56 102.261 94.392C102.037 94.216 101.797 94.044 101.541 93.876C101.293 93.7 101.049 93.548 100.809 93.42Z" fill="#020057"/>
</g>
<defs>
<filter id="filter0_dd_3872_62960" x="0.8" y="2.38419e-07" width="146.4" height="146.4" filterUnits="userSpaceOnUse" color-interpolation-filters="sRGB">
<feFlood flood-opacity="0" result="BackgroundImageFix"/>
<feColorMatrix in="SourceAlpha" type="matrix" values="0 0 0 0 0 0 0 0 0 0 0 0 0 0 0 0 0 0 127 0" result="hardAlpha"/>
<feOffset dy="3.2"/>
<feGaussianBlur stdDeviation="3.6"/>
<feColorMatrix type="matrix" values="0 0 0 0 0.513726 0 0 0 0 0.494118 0 0 0 0 1 0 0 0 0.12 0"/>
<feBlend mode="normal" in2="BackgroundImageFix" result="effect1_dropShadow_3872_62960"/>
<feColorMatrix in="SourceAlpha" type="matrix" values="0 0 0 0 0 0 0 0 0 0 0 0 0 0 0 0 0 0 127 0" result="hardAlpha"/>
<feOffset dy="0.6"/>
<feGaussianBlur stdDeviation="0.9"/>
<feColorMatrix type="matrix" values="0 0 0 0 0.513726 0 0 0 0 0.494118 0 0 0 0 1 0 0 0 0.1 0"/>
<feBlend mode="normal" in2="effect1_dropShadow_3872_62960" result="effect2_dropShadow_3872_62960"/>
<feBlend mode="normal" in="SourceGraphic" in2="effect2_dropShadow_3872_62960" result="shape"/>
</filter>
</defs>
</svg>
