<svg width="100" height="80" viewBox="0 0 100 80" fill="none" xmlns="http://www.w3.org/2000/svg">
<rect width="100" height="80" fill="#FBFBFE"/>
<path d="M55.75 11C57.5449 11 59 12.4551 59 14.25V25.75C59 27.5449 57.5449 29 55.75 29H44.25C42.4551 29 41 27.5449 41 25.75V14.25C41 12.4551 42.4551 11 44.25 11H55.75ZM56.3305 27.4014L50.5247 21.7148C50.2596 21.4553 49.8501 21.4316 49.5588 21.644L49.4752 21.7148L43.6685 27.4011C43.8504 27.4651 44.0461 27.5 44.25 27.5H55.75C55.9535 27.5 56.1489 27.4653 56.3305 27.4014L50.5247 21.7148L56.3305 27.4014ZM55.75 12.5H44.25C43.2835 12.5 42.5 13.2835 42.5 14.25V25.75C42.5 25.9584 42.5364 26.1583 42.6033 26.3437L48.4258 20.643C49.2589 19.8273 50.5675 19.7885 51.4458 20.5266L51.5742 20.6431L57.3964 26.3447C57.4634 26.159 57.5 25.9588 57.5 25.75V14.25C57.5 13.2835 56.7165 12.5 55.75 12.5ZM53.2521 14.5C54.4959 14.5 55.5042 15.5083 55.5042 16.7521C55.5042 17.9959 54.4959 19.0042 53.2521 19.0042C52.0083 19.0042 51 17.9959 51 16.7521C51 15.5083 52.0083 14.5 53.2521 14.5ZM53.2521 16C52.8367 16 52.5 16.3367 52.5 16.7521C52.5 17.1675 52.8367 17.5042 53.2521 17.5042C53.6675 17.5042 54.0042 17.1675 54.0042 16.7521C54.0042 16.3367 53.6675 16 53.2521 16Z" fill="#020057"/>
<path d="M20.4746 52.6484C19.8535 52.9766 19.0801 53.1406 18.1543 53.1406C16.959 53.1406 16.002 52.7559 15.2832 51.9863C14.5645 51.2168 14.2051 50.207 14.2051 48.957C14.2051 47.6133 14.6094 46.5273 15.418 45.6992C16.2266 44.8711 17.252 44.457 18.4941 44.457C19.291 44.457 19.9512 44.5723 20.4746 44.8027V45.8516C19.873 45.5156 19.209 45.3477 18.4824 45.3477C17.5176 45.3477 16.7344 45.6699 16.1328 46.3145C15.5352 46.959 15.2363 47.8203 15.2363 48.8984C15.2363 49.9219 15.5156 50.7383 16.0742 51.3477C16.6367 51.9531 17.373 52.2559 18.2832 52.2559C19.127 52.2559 19.8574 52.0684 20.4746 51.6934V52.6484ZM23.0176 53H22.0566V44.1172H23.0176V53ZM29.2578 53H28.2969V52.0625H28.2734C27.8555 52.7812 27.2402 53.1406 26.4277 53.1406C25.8301 53.1406 25.3613 52.9824 25.0215 52.666C24.6855 52.3496 24.5176 51.9297 24.5176 51.4062C24.5176 50.2852 25.1777 49.6328 26.498 49.4492L28.2969 49.1973C28.2969 48.1777 27.8848 47.668 27.0605 47.668C26.3379 47.668 25.6855 47.9141 25.1035 48.4062V47.4219C25.6934 47.0469 26.373 46.8594 27.1426 46.8594C28.5527 46.8594 29.2578 47.6055 29.2578 49.0977V53ZM28.2969 49.9648L26.8496 50.1641C26.4043 50.2266 26.0684 50.3379 25.8418 50.498C25.6152 50.6543 25.502 50.9336 25.502 51.3359C25.502 51.6289 25.6055 51.8691 25.8125 52.0566C26.0234 52.2402 26.3027 52.332 26.6504 52.332C27.127 52.332 27.5195 52.166 27.8281 51.834C28.1406 51.498 28.2969 51.0742 28.2969 50.5625V49.9648ZM34.1973 47.9727C34.0293 47.8438 33.7871 47.7793 33.4707 47.7793C33.0605 47.7793 32.7168 47.9727 32.4395 48.3594C32.166 48.7461 32.0293 49.2734 32.0293 49.9414V53H31.0684V47H32.0293V48.2363H32.0527C32.1895 47.8145 32.3984 47.4863 32.6797 47.252C32.9609 47.0137 33.2754 46.8945 33.623 46.8945C33.873 46.8945 34.0645 46.9219 34.1973 46.9766V47.9727ZM35.7324 45.4766C35.5605 45.4766 35.4141 45.418 35.293 45.3008C35.1719 45.1836 35.1113 45.0352 35.1113 44.8555C35.1113 44.6758 35.1719 44.5273 35.293 44.4102C35.4141 44.2891 35.5605 44.2285 35.7324 44.2285C35.9082 44.2285 36.0566 44.2891 36.1777 44.4102C36.3027 44.5273 36.3652 44.6758 36.3652 44.8555C36.3652 45.0273 36.3027 45.1738 36.1777 45.2949C36.0566 45.416 35.9082 45.4766 35.7324 45.4766ZM36.2012 53H35.2402V47H36.2012V53ZM40.9297 52.9414C40.7031 53.0664 40.4043 53.1289 40.0332 53.1289C38.9824 53.1289 38.457 52.543 38.457 51.3711V47.8203H37.4258V47H38.457V45.5352L39.418 45.2246V47H40.9297V47.8203H39.418V51.2012C39.418 51.6035 39.4863 51.8906 39.623 52.0625C39.7598 52.2344 39.9863 52.3203 40.3027 52.3203C40.5449 52.3203 40.7539 52.2539 40.9297 52.1211V52.9414ZM46.9883 47L44.2285 53.9609C43.7363 55.2031 43.0449 55.8242 42.1543 55.8242C41.9043 55.8242 41.6953 55.7988 41.5273 55.748V54.8867C41.7344 54.957 41.9238 54.9922 42.0957 54.9922C42.5801 54.9922 42.9434 54.7031 43.1855 54.125L43.666 52.9883L41.3223 47H42.3887L44.0117 51.6172C44.0312 51.6758 44.0723 51.8281 44.1348 52.0742H44.1699C44.1895 51.9805 44.2285 51.832 44.2871 51.6289L45.9922 47H46.9883ZM50.9697 47.276H61.7337V48.128H50.9697V47.276ZM51.7137 43.724H61.0497V44.588H51.7137V43.724ZM56.4897 48.632H57.4257V52.46C57.4257 52.66 57.4697 52.792 57.5577 52.856C57.6537 52.92 57.8577 52.952 58.1697 52.952C58.2417 52.952 58.3737 52.952 58.5657 52.952C58.7577 52.952 58.9697 52.952 59.2017 52.952C59.4337 52.952 59.6497 52.952 59.8497 52.952C60.0577 52.952 60.2057 52.952 60.2937 52.952C60.5017 52.952 60.6537 52.908 60.7497 52.82C60.8537 52.724 60.9257 52.54 60.9657 52.268C61.0057 51.988 61.0377 51.576 61.0617 51.032C61.1337 51.08 61.2217 51.132 61.3257 51.188C61.4297 51.236 61.5337 51.28 61.6377 51.32C61.7497 51.352 61.8457 51.38 61.9257 51.404C61.8857 52.044 61.8177 52.54 61.7217 52.892C61.6257 53.244 61.4697 53.488 61.2537 53.624C61.0457 53.768 60.7457 53.84 60.3537 53.84C60.3057 53.84 60.2017 53.84 60.0417 53.84C59.8897 53.84 59.7137 53.84 59.5137 53.84C59.3137 53.84 59.1137 53.84 58.9137 53.84C58.7137 53.84 58.5377 53.84 58.3857 53.84C58.2337 53.84 58.1337 53.84 58.0857 53.84C57.6697 53.84 57.3457 53.8 57.1137 53.72C56.8817 53.64 56.7177 53.496 56.6217 53.288C56.5337 53.088 56.4897 52.808 56.4897 52.448V48.632ZM55.7217 44.06H56.6337C56.6177 44.988 56.5857 45.876 56.5377 46.724C56.4897 47.564 56.3777 48.352 56.2017 49.088C56.0337 49.824 55.7657 50.504 55.3977 51.128C55.0297 51.744 54.5217 52.292 53.8737 52.772C53.2337 53.252 52.4097 53.656 51.4017 53.984C51.3457 53.872 51.2617 53.74 51.1497 53.588C51.0377 53.436 50.9297 53.316 50.8257 53.228C51.7937 52.924 52.5817 52.556 53.1897 52.124C53.8057 51.684 54.2817 51.18 54.6177 50.612C54.9617 50.044 55.2097 49.42 55.3617 48.74C55.5217 48.052 55.6177 47.32 55.6497 46.544C55.6897 45.76 55.7137 44.932 55.7217 44.06ZM66.0417 47.96H73.7457V48.824H66.0417V47.96ZM66.6417 44.888H73.1817V45.74H66.6417V44.888ZM69.3897 42.92H70.3137V48.572H69.3897V42.92ZM66.0537 52.496C66.5977 52.464 67.2337 52.432 67.9617 52.4C68.6977 52.36 69.4777 52.316 70.3017 52.268C71.1257 52.22 71.9497 52.172 72.7737 52.124V52.94C71.9817 53.004 71.1857 53.064 70.3857 53.12C69.5937 53.176 68.8337 53.228 68.1057 53.276C67.3857 53.324 66.7417 53.368 66.1737 53.408L66.0537 52.496ZM70.8777 50.444L71.6577 50.036C71.9617 50.388 72.2617 50.772 72.5577 51.188C72.8617 51.604 73.1377 52.016 73.3857 52.424C73.6337 52.824 73.8217 53.188 73.9497 53.516L73.1097 53.984C72.9897 53.656 72.8097 53.288 72.5697 52.88C72.3377 52.472 72.0737 52.056 71.7777 51.632C71.4817 51.2 71.1817 50.804 70.8777 50.444ZM68.5977 48.524L69.5697 48.8C69.3937 49.264 69.1977 49.752 68.9817 50.264C68.7737 50.776 68.5577 51.272 68.3337 51.752C68.1177 52.224 67.9097 52.64 67.7097 53L66.9177 52.724C67.0697 52.452 67.2217 52.14 67.3737 51.788C67.5337 51.436 67.6857 51.072 67.8297 50.696C67.9817 50.312 68.1217 49.936 68.2497 49.568C68.3857 49.2 68.5017 48.852 68.5977 48.524ZM63.4497 43.664L63.9417 43.004C64.2217 43.1 64.5097 43.22 64.8057 43.364C65.1017 43.5 65.3817 43.644 65.6457 43.796C65.9177 43.948 66.1417 44.096 66.3177 44.24L65.7897 44.984C65.6297 44.84 65.4177 44.688 65.1537 44.528C64.8897 44.368 64.6097 44.212 64.3137 44.06C64.0177 43.908 63.7297 43.776 63.4497 43.664ZM62.8137 46.976L63.2697 46.292C63.5497 46.372 63.8377 46.476 64.1337 46.604C64.4377 46.724 64.7257 46.856 64.9977 47C65.2777 47.136 65.5057 47.268 65.6817 47.396L65.1897 48.164C65.0217 48.028 64.8017 47.892 64.5297 47.756C64.2657 47.612 63.9817 47.472 63.6777 47.336C63.3817 47.192 63.0937 47.072 62.8137 46.976ZM63.2217 53.216C63.4297 52.904 63.6577 52.536 63.9057 52.112C64.1617 51.68 64.4177 51.224 64.6737 50.744C64.9377 50.264 65.1777 49.8 65.3937 49.352L66.0657 49.928C65.8657 50.352 65.6497 50.792 65.4177 51.248C65.1857 51.704 64.9457 52.152 64.6977 52.592C64.4577 53.032 64.2257 53.44 64.0017 53.816L63.2217 53.216ZM79.1937 44.036H85.0737V44.804H79.1937V44.036ZM81.6777 42.92H82.5657V46.244H81.6777V42.92ZM79.6617 47.576L80.0817 47.12C80.2897 47.216 80.5057 47.332 80.7297 47.468C80.9537 47.604 81.1617 47.74 81.3537 47.876C81.5537 48.012 81.7137 48.144 81.8337 48.272L81.4017 48.788C81.2177 48.604 80.9617 48.4 80.6337 48.176C80.3057 47.944 79.9817 47.744 79.6617 47.576ZM78.7857 48.668L79.2177 48.2C79.4337 48.304 79.6537 48.424 79.8777 48.56C80.1097 48.696 80.3257 48.836 80.5257 48.98C80.7257 49.124 80.8817 49.264 80.9937 49.4L80.5617 49.928C80.4417 49.8 80.2817 49.66 80.0817 49.508C79.8897 49.356 79.6777 49.208 79.4457 49.064C79.2217 48.912 79.0017 48.78 78.7857 48.668ZM78.7497 45.884H85.0257V46.664H78.7497V45.884ZM84.7377 45.884H84.8697L85.0137 45.848L85.5897 45.992C85.4617 46.392 85.3257 46.8 85.1817 47.216C85.0377 47.632 84.8937 47.984 84.7497 48.272L84.0297 48.08C84.1497 47.816 84.2737 47.492 84.4017 47.108C84.5377 46.724 84.6497 46.36 84.7377 46.016V45.884ZM78.4977 49.988H85.6977V50.78H78.4977V49.988ZM82.0137 47.132H82.8777V48.572C82.8777 48.932 82.8537 49.304 82.8057 49.688C82.7577 50.072 82.6577 50.46 82.5057 50.852C82.3537 51.236 82.1297 51.616 81.8337 51.992C81.5377 52.368 81.1457 52.724 80.6577 53.06C80.1777 53.404 79.5737 53.724 78.8457 54.02C78.8137 53.948 78.7657 53.868 78.7017 53.78C78.6457 53.692 78.5817 53.604 78.5097 53.516C78.4377 53.436 78.3697 53.368 78.3057 53.312C79.1457 52.992 79.8137 52.636 80.3097 52.244C80.8057 51.852 81.1737 51.444 81.4137 51.02C81.6617 50.596 81.8217 50.176 81.8937 49.76C81.9737 49.336 82.0137 48.932 82.0137 48.548V47.132ZM82.5417 51.74L83.0817 51.224C83.4097 51.432 83.7497 51.668 84.1017 51.932C84.4537 52.188 84.7857 52.448 85.0977 52.712C85.4097 52.968 85.6617 53.2 85.8537 53.408L85.2777 53.996C85.0857 53.788 84.8377 53.548 84.5337 53.276C84.2297 53.012 83.9017 52.744 83.5497 52.472C83.2057 52.2 82.8697 51.956 82.5417 51.74ZM75.6057 43.784L76.1817 43.196C76.3977 43.372 76.6257 43.568 76.8657 43.784C77.1057 43.992 77.3337 44.2 77.5497 44.408C77.7657 44.608 77.9377 44.792 78.0657 44.96L77.4537 45.62C77.3257 45.452 77.1577 45.26 76.9497 45.044C76.7417 44.828 76.5177 44.612 76.2777 44.396C76.0457 44.172 75.8217 43.968 75.6057 43.784ZM76.5177 53.708L76.3377 52.856L76.5537 52.46L78.5217 50.888C78.5617 51.008 78.6137 51.144 78.6777 51.296C78.7497 51.44 78.8137 51.556 78.8697 51.644C78.3977 52.028 78.0137 52.344 77.7177 52.592C77.4297 52.832 77.2057 53.024 77.0457 53.168C76.8857 53.312 76.7657 53.424 76.6857 53.504C76.6137 53.584 76.5577 53.652 76.5177 53.708ZM76.5177 53.72C76.4857 53.656 76.4377 53.584 76.3737 53.504C76.3177 53.424 76.2577 53.344 76.1937 53.264C76.1377 53.192 76.0857 53.132 76.0377 53.084C76.1097 53.028 76.1897 52.948 76.2777 52.844C76.3657 52.732 76.4417 52.604 76.5057 52.46C76.5697 52.308 76.6017 52.132 76.6017 51.932V46.688H77.4417V52.592C77.4417 52.592 77.3937 52.636 77.2977 52.724C77.2017 52.804 77.0937 52.904 76.9737 53.024C76.8537 53.152 76.7457 53.276 76.6497 53.396C76.5617 53.524 76.5177 53.632 76.5177 53.72ZM74.8257 46.688H77.1777V47.552H74.8257V46.688ZM22.9035 60.576H27.3435V61.452H22.9035V60.576ZM17.3475 59.664H23.2035V60.516H17.3475V59.664ZM18.7515 62.112H21.8595V62.928H18.7515V62.112ZM18.7515 64.608H21.8595V65.424H18.7515V64.608ZM27.0675 60.576H27.2355L27.3915 60.54L27.9675 60.696C27.7755 62.296 27.4515 63.684 26.9955 64.86C26.5395 66.028 25.9715 67.02 25.2915 67.836C24.6195 68.644 23.8515 69.296 22.9875 69.792C22.9155 69.68 22.8235 69.548 22.7115 69.396C22.5995 69.252 22.4955 69.136 22.3995 69.048C23.1915 68.64 23.9075 68.056 24.5475 67.296C25.1875 66.536 25.7235 65.612 26.1555 64.524C26.5955 63.436 26.8995 62.188 27.0675 60.78V60.576ZM23.9955 61.5C24.2115 62.652 24.5155 63.724 24.9075 64.716C25.2995 65.708 25.7875 66.58 26.3715 67.332C26.9635 68.076 27.6715 68.66 28.4955 69.084C28.4315 69.14 28.3595 69.212 28.2795 69.3C28.1995 69.388 28.1235 69.476 28.0515 69.564C27.9795 69.66 27.9195 69.748 27.8715 69.828C26.9995 69.34 26.2555 68.7 25.6395 67.908C25.0315 67.108 24.5235 66.184 24.1155 65.136C23.7155 64.08 23.3875 62.924 23.1315 61.668L23.9955 61.5ZM18.2715 59.988H19.1355V67.776H18.2715V59.988ZM21.4875 59.988H22.3635V69.936H21.4875V59.988ZM17.0955 67.524C17.4955 67.468 17.9515 67.408 18.4635 67.344C18.9755 67.272 19.5195 67.196 20.0955 67.116C20.6795 67.028 21.2635 66.94 21.8475 66.852L21.8955 67.68C21.0715 67.816 20.2475 67.952 19.4235 68.088C18.6075 68.216 17.8875 68.324 17.2635 68.412L17.0955 67.524ZM33.166 69V60.5977H35.5566C36.2832 60.5977 36.8594 60.7754 37.2852 61.1309C37.7109 61.4863 37.9238 61.9492 37.9238 62.5195C37.9238 62.9961 37.7949 63.4102 37.5371 63.7617C37.2793 64.1133 36.9238 64.3633 36.4707 64.5117V64.5352C37.0371 64.6016 37.4902 64.8164 37.8301 65.1797C38.1699 65.5391 38.3398 66.0078 38.3398 66.5859C38.3398 67.3047 38.082 67.8867 37.5664 68.332C37.0508 68.7773 36.4004 69 35.6152 69H33.166ZM34.1504 61.4883V64.2012H35.1582C35.6973 64.2012 36.1211 64.0723 36.4297 63.8145C36.7383 63.5527 36.8926 63.1855 36.8926 62.7129C36.8926 61.8965 36.3555 61.4883 35.2812 61.4883H34.1504ZM34.1504 65.0859V68.1094H35.4863C36.0645 68.1094 36.5117 67.9727 36.8281 67.6992C37.1484 67.4258 37.3086 67.0508 37.3086 66.5742C37.3086 65.582 36.6328 65.0859 35.2812 65.0859H34.1504ZM40.877 69H39.916V60.1172H40.877V69ZM45.3301 69.1406C44.4434 69.1406 43.7344 68.8613 43.2031 68.3027C42.6758 67.7402 42.4121 66.9961 42.4121 66.0703C42.4121 65.0625 42.6875 64.2754 43.2383 63.709C43.7891 63.1426 44.5332 62.8594 45.4707 62.8594C46.3652 62.8594 47.0625 63.1348 47.5625 63.6855C48.0664 64.2363 48.3184 65 48.3184 65.9766C48.3184 66.9336 48.0469 67.7012 47.5039 68.2793C46.9648 68.8535 46.2402 69.1406 45.3301 69.1406ZM45.4004 63.668C44.7832 63.668 44.2949 63.8789 43.9355 64.3008C43.5762 64.7188 43.3965 65.2969 43.3965 66.0352C43.3965 66.7461 43.5781 67.3066 43.9414 67.7168C44.3047 68.127 44.791 68.332 45.4004 68.332C46.0215 68.332 46.498 68.1309 46.8301 67.7285C47.166 67.3262 47.334 66.7539 47.334 66.0117C47.334 65.2617 47.166 64.6836 46.8301 64.2773C46.498 63.8711 46.0215 63.668 45.4004 63.668ZM50.8379 68.1328H50.8145V69H49.8535V60.1172H50.8145V64.0547H50.8379C51.3105 63.2578 52.002 62.8594 52.9121 62.8594C53.6816 62.8594 54.2832 63.1289 54.7168 63.668C55.1543 64.2031 55.373 64.9219 55.373 65.8242C55.373 66.8281 55.1289 67.6328 54.6406 68.2383C54.1523 68.8398 53.4844 69.1406 52.6367 69.1406C51.8438 69.1406 51.2441 68.8047 50.8379 68.1328ZM50.8145 65.7129V66.5508C50.8145 67.0469 50.9746 67.4688 51.2949 67.8164C51.6191 68.1602 52.0293 68.332 52.5254 68.332C53.1074 68.332 53.5625 68.1094 53.8906 67.6641C54.2227 67.2188 54.3887 66.5996 54.3887 65.8066C54.3887 65.1387 54.2344 64.6152 53.9258 64.2363C53.6172 63.8574 53.1992 63.668 52.6719 63.668C52.1133 63.668 51.6641 63.8633 51.3242 64.2539C50.9844 64.6406 50.8145 65.127 50.8145 65.7129ZM59.6965 65.328H65.6005V66.072H59.6965V65.328ZM59.7685 61.128H65.5525V61.872H59.7685V61.128ZM61.9285 64.284L62.7805 64.476C62.5965 64.86 62.3925 65.272 62.1685 65.712C61.9525 66.144 61.7365 66.564 61.5205 66.972C61.3125 67.372 61.1165 67.732 60.9325 68.052L60.1405 67.776C60.3165 67.472 60.5125 67.12 60.7285 66.72C60.9445 66.32 61.1565 65.908 61.3645 65.484C61.5805 65.052 61.7685 64.652 61.9285 64.284ZM63.7285 65.772L64.5685 65.88C64.4725 66.464 64.3125 66.98 64.0885 67.428C63.8725 67.868 63.5845 68.252 63.2245 68.58C62.8725 68.9 62.4405 69.172 61.9285 69.396C61.4245 69.62 60.8245 69.808 60.1285 69.96C60.0965 69.84 60.0405 69.708 59.9605 69.564C59.8885 69.42 59.8125 69.3 59.7325 69.204C60.5725 69.06 61.2645 68.852 61.8085 68.58C62.3525 68.3 62.7765 67.932 63.0805 67.476C63.3925 67.012 63.6085 66.444 63.7285 65.772ZM64.4845 59.148L65.2645 59.484C65.0885 59.764 64.9045 60.044 64.7125 60.324C64.5285 60.604 64.3525 60.844 64.1845 61.044L63.5725 60.744C63.7245 60.536 63.8885 60.28 64.0645 59.976C64.2405 59.664 64.3805 59.388 64.4845 59.148ZM62.2525 58.908H63.0925V64.428H62.2525V58.908ZM60.2245 59.484L60.8965 59.208C61.0725 59.448 61.2325 59.712 61.3765 60C61.5285 60.288 61.6325 60.54 61.6885 60.756L60.9685 61.068C60.9205 60.86 60.8245 60.608 60.6805 60.312C60.5365 60.008 60.3845 59.732 60.2245 59.484ZM62.2765 61.464L62.8765 61.812C62.6845 62.148 62.4365 62.484 62.1325 62.82C61.8365 63.156 61.5125 63.468 61.1605 63.756C60.8165 64.036 60.4725 64.272 60.1285 64.464C60.0805 64.36 60.0085 64.24 59.9125 64.104C59.8165 63.968 59.7245 63.86 59.6365 63.78C59.9725 63.628 60.3085 63.432 60.6445 63.192C60.9805 62.952 61.2925 62.68 61.5805 62.376C61.8685 62.072 62.1005 61.768 62.2765 61.464ZM62.9965 61.872C63.1005 61.928 63.2565 62.02 63.4645 62.148C63.6805 62.276 63.9085 62.416 64.1485 62.568C64.3885 62.72 64.6085 62.86 64.8085 62.988C65.0085 63.116 65.1525 63.216 65.2405 63.288L64.7365 63.936C64.6325 63.84 64.4845 63.716 64.2925 63.564C64.1005 63.412 63.8925 63.252 63.6685 63.084C63.4525 62.916 63.2445 62.756 63.0445 62.604C62.8445 62.452 62.6805 62.336 62.5525 62.256L62.9965 61.872ZM66.4765 61.128H70.7485V61.968H66.4765V61.128ZM66.7765 58.908L67.6765 59.04C67.5485 59.824 67.3805 60.58 67.1725 61.308C66.9725 62.028 66.7365 62.7 66.4645 63.324C66.1925 63.94 65.8805 64.48 65.5285 64.944C65.4805 64.888 65.4125 64.824 65.3245 64.752C65.2365 64.672 65.1405 64.596 65.0365 64.524C64.9405 64.444 64.8605 64.38 64.7965 64.332C65.1325 63.908 65.4285 63.412 65.6845 62.844C65.9405 62.268 66.1565 61.648 66.3325 60.984C66.5165 60.312 66.6645 59.62 66.7765 58.908ZM69.1285 61.608L70.0525 61.704C69.8605 63.088 69.5725 64.304 69.1885 65.352C68.8125 66.4 68.3005 67.304 67.6525 68.064C67.0125 68.824 66.1885 69.468 65.1805 69.996C65.1485 69.916 65.1005 69.824 65.0365 69.72C64.9725 69.624 64.9045 69.524 64.8325 69.42C64.7685 69.324 64.7045 69.244 64.6405 69.18C65.5925 68.732 66.3685 68.164 66.9685 67.476C67.5685 66.78 68.0365 65.948 68.3725 64.98C68.7165 64.004 68.9685 62.88 69.1285 61.608ZM66.9565 61.872C67.1325 62.976 67.3805 64.012 67.7005 64.98C68.0285 65.94 68.4525 66.784 68.9725 67.512C69.4925 68.232 70.1245 68.788 70.8685 69.18C70.7965 69.244 70.7165 69.32 70.6285 69.408C70.5485 69.496 70.4725 69.588 70.4005 69.684C70.3285 69.78 70.2685 69.872 70.2205 69.96C69.4445 69.496 68.7885 68.876 68.2525 68.1C67.7165 67.316 67.2805 66.408 66.9445 65.376C66.6085 64.344 66.3405 63.22 66.1405 62.004L66.9565 61.872ZM60.8605 67.62L61.3285 67.008C61.8085 67.184 62.2845 67.388 62.7565 67.62C63.2285 67.844 63.6685 68.076 64.0765 68.316C64.4845 68.556 64.8325 68.788 65.1205 69.012L64.4965 69.66C64.2245 69.428 63.8925 69.192 63.5005 68.952C63.1085 68.712 62.6845 68.476 62.2285 68.244C61.7805 68.012 61.3245 67.804 60.8605 67.62ZM76.4005 59.448H82.3045V62.556H76.4125V61.764H81.4405V60.228H76.4005V59.448ZM75.9685 59.448H76.8445V63.072C76.8445 63.576 76.8285 64.128 76.7965 64.728C76.7645 65.32 76.6965 65.928 76.5925 66.552C76.4885 67.168 76.3365 67.768 76.1365 68.352C75.9445 68.936 75.6845 69.468 75.3565 69.948C75.3005 69.9 75.2285 69.84 75.1405 69.768C75.0525 69.704 74.9565 69.64 74.8525 69.576C74.7565 69.52 74.6765 69.476 74.6125 69.444C74.9245 68.98 75.1685 68.48 75.3445 67.944C75.5285 67.408 75.6645 66.856 75.7525 66.288C75.8485 65.712 75.9085 65.152 75.9325 64.608C75.9565 64.056 75.9685 63.544 75.9685 63.072V59.448ZM76.4485 63.876H82.7245V64.656H76.4485V63.876ZM77.4205 68.736H81.8605V69.48H77.4205V68.736ZM79.1845 62.46H80.0365V66.492H79.1845V62.46ZM77.0365 66.144H82.3525V69.924H81.5245V66.912H77.8285V69.972H77.0365V66.144ZM71.5765 65.292C72.0485 65.164 72.6205 65 73.2925 64.8C73.9645 64.592 74.6405 64.38 75.3205 64.164L75.4525 64.992C74.8205 65.2 74.1845 65.408 73.5445 65.616C72.9125 65.824 72.3365 66.012 71.8165 66.18L71.5765 65.292ZM71.7325 61.344H75.4285V62.184H71.7325V61.344ZM73.2325 58.932H74.0725V68.832C74.0725 69.08 74.0405 69.268 73.9765 69.396C73.9205 69.532 73.8165 69.636 73.6645 69.708C73.5205 69.78 73.3285 69.828 73.0885 69.852C72.8485 69.876 72.5365 69.884 72.1525 69.876C72.1445 69.772 72.1125 69.636 72.0565 69.468C72.0085 69.308 71.9565 69.168 71.9005 69.048C72.1565 69.056 72.3885 69.06 72.5965 69.06C72.8125 69.06 72.9565 69.056 73.0285 69.048C73.1005 69.048 73.1525 69.032 73.1845 69C73.2165 68.976 73.2325 68.92 73.2325 68.832V58.932Z" fill="#020057"/>
</svg>
