<svg width="100%" viewBox="0 0 100 96" fill="none" xmlns="http://www.w3.org/2000/svg">
<rect width="100" height="96" fill="#FBFBFE"/>
<path d="M55.75 11C57.5449 11 59 12.4551 59 14.25V25.75C59 27.5449 57.5449 29 55.75 29H44.25C42.4551 29 41 27.5449 41 25.75V14.25C41 12.4551 42.4551 11 44.25 11H55.75ZM56.3305 27.4014L50.5247 21.7148C50.2596 21.4553 49.8501 21.4316 49.5588 21.644L49.4752 21.7148L43.6685 27.4011C43.8504 27.4651 44.0461 27.5 44.25 27.5H55.75C55.9535 27.5 56.1489 27.4653 56.3305 27.4014L50.5247 21.7148L56.3305 27.4014ZM55.75 12.5H44.25C43.2835 12.5 42.5 13.2835 42.5 14.25V25.75C42.5 25.9584 42.5364 26.1583 42.6033 26.3437L48.4258 20.643C49.2589 19.8273 50.5675 19.7885 51.4458 20.5266L51.5742 20.6431L57.3964 26.3447C57.4634 26.159 57.5 25.9588 57.5 25.75V14.25C57.5 13.2835 56.7165 12.5 55.75 12.5ZM53.2521 14.5C54.4959 14.5 55.5042 15.5083 55.5042 16.7521C55.5042 17.9959 54.4959 19.0042 53.2521 19.0042C52.0083 19.0042 51 17.9959 51 16.7521C51 15.5083 52.0083 14.5 53.2521 14.5ZM53.2521 16C52.8367 16 52.5 16.3367 52.5 16.7521C52.5 17.1675 52.8367 17.5042 53.2521 17.5042C53.6675 17.5042 54.0042 17.1675 54.0042 16.7521C54.0042 16.3367 53.6675 16 53.2521 16Z" fill="#020057"/>
<path d="M29.041 52.6484C28.4199 52.9766 27.6465 53.1406 26.7207 53.1406C25.5254 53.1406 24.5684 52.7559 23.8496 51.9863C23.1309 51.2168 22.7715 50.207 22.7715 48.957C22.7715 47.6133 23.1758 46.5273 23.9844 45.6992C24.793 44.8711 25.8184 44.457 27.0605 44.457C27.8574 44.457 28.5176 44.5723 29.041 44.8027V45.8516C28.4395 45.5156 27.7754 45.3477 27.0488 45.3477C26.084 45.3477 25.3008 45.6699 24.6992 46.3145C24.1016 46.959 23.8027 47.8203 23.8027 48.8984C23.8027 49.9219 24.082 50.7383 24.6406 51.3477C25.2031 51.9531 25.9395 52.2559 26.8496 52.2559C27.6934 52.2559 28.4238 52.0684 29.041 51.6934V52.6484ZM31.584 53H30.623V44.1172H31.584V53ZM37.8242 53H36.8633V52.0625H36.8398C36.4219 52.7812 35.8066 53.1406 34.9941 53.1406C34.3965 53.1406 33.9277 52.9824 33.5879 52.666C33.252 52.3496 33.084 51.9297 33.084 51.4062C33.084 50.2852 33.7441 49.6328 35.0645 49.4492L36.8633 49.1973C36.8633 48.1777 36.4512 47.668 35.627 47.668C34.9043 47.668 34.252 47.9141 33.6699 48.4062V47.4219C34.2598 47.0469 34.9395 46.8594 35.709 46.8594C37.1191 46.8594 37.8242 47.6055 37.8242 49.0977V53ZM36.8633 49.9648L35.416 50.1641C34.9707 50.2266 34.6348 50.3379 34.4082 50.498C34.1816 50.6543 34.0684 50.9336 34.0684 51.3359C34.0684 51.6289 34.1719 51.8691 34.3789 52.0566C34.5898 52.2402 34.8691 52.332 35.2168 52.332C35.6934 52.332 36.0859 52.166 36.3945 51.834C36.707 51.498 36.8633 51.0742 36.8633 50.5625V49.9648ZM42.7637 47.9727C42.5957 47.8438 42.3535 47.7793 42.0371 47.7793C41.627 47.7793 41.2832 47.9727 41.0059 48.3594C40.7324 48.7461 40.5957 49.2734 40.5957 49.9414V53H39.6348V47H40.5957V48.2363H40.6191C40.7559 47.8145 40.9648 47.4863 41.2461 47.252C41.5273 47.0137 41.8418 46.8945 42.1895 46.8945C42.4395 46.8945 42.6309 46.9219 42.7637 46.9766V47.9727ZM44.2988 45.4766C44.127 45.4766 43.9805 45.418 43.8594 45.3008C43.7383 45.1836 43.6777 45.0352 43.6777 44.8555C43.6777 44.6758 43.7383 44.5273 43.8594 44.4102C43.9805 44.2891 44.127 44.2285 44.2988 44.2285C44.4746 44.2285 44.623 44.2891 44.7441 44.4102C44.8691 44.5273 44.9316 44.6758 44.9316 44.8555C44.9316 45.0273 44.8691 45.1738 44.7441 45.2949C44.623 45.416 44.4746 45.4766 44.2988 45.4766ZM44.7676 53H43.8066V47H44.7676V53ZM49.4961 52.9414C49.2695 53.0664 48.9707 53.1289 48.5996 53.1289C47.5488 53.1289 47.0234 52.543 47.0234 51.3711V47.8203H45.9922V47H47.0234V45.5352L47.9844 45.2246V47H49.4961V47.8203H47.9844V51.2012C47.9844 51.6035 48.0527 51.8906 48.1895 52.0625C48.3262 52.2344 48.5527 52.3203 48.8691 52.3203C49.1113 52.3203 49.3203 52.2539 49.4961 52.1211V52.9414ZM55.5547 47L52.7949 53.9609C52.3027 55.2031 51.6113 55.8242 50.7207 55.8242C50.4707 55.8242 50.2617 55.7988 50.0938 55.748V54.8867C50.3008 54.957 50.4902 54.9922 50.6621 54.9922C51.1465 54.9922 51.5098 54.7031 51.752 54.125L52.2324 52.9883L49.8887 47H50.9551L52.5781 51.6172C52.5977 51.6758 52.6387 51.8281 52.7012 52.0742H52.7363C52.7559 51.9805 52.7949 51.832 52.8535 51.6289L54.5586 47H55.5547ZM64.8652 53H63.5176L60.8691 50.1172H60.8457V53H59.8848V44.1172H60.8457V49.748H60.8691L63.3887 47H64.6484L61.8652 49.8945L64.8652 53ZM70.1445 53H69.1836V52.0625H69.1602C68.7422 52.7812 68.127 53.1406 67.3145 53.1406C66.7168 53.1406 66.248 52.9824 65.9082 52.666C65.5723 52.3496 65.4043 51.9297 65.4043 51.4062C65.4043 50.2852 66.0645 49.6328 67.3848 49.4492L69.1836 49.1973C69.1836 48.1777 68.7715 47.668 67.9473 47.668C67.2246 47.668 66.5723 47.9141 65.9902 48.4062V47.4219C66.5801 47.0469 67.2598 46.8594 68.0293 46.8594C69.4395 46.8594 70.1445 47.6055 70.1445 49.0977V53ZM69.1836 49.9648L67.7363 50.1641C67.291 50.2266 66.9551 50.3379 66.7285 50.498C66.502 50.6543 66.3887 50.9336 66.3887 51.3359C66.3887 51.6289 66.4922 51.8691 66.6992 52.0566C66.9102 52.2402 67.1895 52.332 67.5371 52.332C68.0137 52.332 68.4062 52.166 68.7148 51.834C69.0273 51.498 69.1836 51.0742 69.1836 50.5625V49.9648ZM76.9355 53H75.9746V49.5781C75.9746 48.3047 75.5098 47.668 74.5801 47.668C74.0996 47.668 73.7012 47.8496 73.3848 48.2129C73.0723 48.5723 72.916 49.0273 72.916 49.5781V53H71.9551V47H72.916V47.9961H72.9395C73.3926 47.2383 74.0488 46.8594 74.9082 46.8594C75.5645 46.8594 76.0664 47.0723 76.4141 47.498C76.7617 47.9199 76.9355 48.5312 76.9355 49.332V53ZM14.6211 68.1328H14.5977V69H13.6367V60.1172H14.5977V64.0547H14.6211C15.0938 63.2578 15.7852 62.8594 16.6953 62.8594C17.4648 62.8594 18.0664 63.1289 18.5 63.668C18.9375 64.2031 19.1562 64.9219 19.1562 65.8242C19.1562 66.8281 18.9121 67.6328 18.4238 68.2383C17.9355 68.8398 17.2676 69.1406 16.4199 69.1406C15.627 69.1406 15.0273 68.8047 14.6211 68.1328ZM14.5977 65.7129V66.5508C14.5977 67.0469 14.7578 67.4688 15.0781 67.8164C15.4023 68.1602 15.8125 68.332 16.3086 68.332C16.8906 68.332 17.3457 68.1094 17.6738 67.6641C18.0059 67.2188 18.1719 66.5996 18.1719 65.8066C18.1719 65.1387 18.0176 64.6152 17.709 64.2363C17.4004 63.8574 16.9824 63.668 16.4551 63.668C15.8965 63.668 15.4473 63.8633 15.1074 64.2539C14.7676 64.6406 14.5977 65.127 14.5977 65.7129ZM21.6523 69H20.6914V60.1172H21.6523V69ZM26.1055 69.1406C25.2188 69.1406 24.5098 68.8613 23.9785 68.3027C23.4512 67.7402 23.1875 66.9961 23.1875 66.0703C23.1875 65.0625 23.4629 64.2754 24.0137 63.709C24.5645 63.1426 25.3086 62.8594 26.2461 62.8594C27.1406 62.8594 27.8379 63.1348 28.3379 63.6855C28.8418 64.2363 29.0938 65 29.0938 65.9766C29.0938 66.9336 28.8223 67.7012 28.2793 68.2793C27.7402 68.8535 27.0156 69.1406 26.1055 69.1406ZM26.1758 63.668C25.5586 63.668 25.0703 63.8789 24.7109 64.3008C24.3516 64.7188 24.1719 65.2969 24.1719 66.0352C24.1719 66.7461 24.3535 67.3066 24.7168 67.7168C25.0801 68.127 25.5664 68.332 26.1758 68.332C26.7969 68.332 27.2734 68.1309 27.6055 67.7285C27.9414 67.3262 28.1094 66.7539 28.1094 66.0117C28.1094 65.2617 27.9414 64.6836 27.6055 64.2773C27.2734 63.8711 26.7969 63.668 26.1758 63.668ZM31.6133 68.1328H31.5898V69H30.6289V60.1172H31.5898V64.0547H31.6133C32.0859 63.2578 32.7773 62.8594 33.6875 62.8594C34.457 62.8594 35.0586 63.1289 35.4922 63.668C35.9297 64.2031 36.1484 64.9219 36.1484 65.8242C36.1484 66.8281 35.9043 67.6328 35.416 68.2383C34.9277 68.8398 34.2598 69.1406 33.4121 69.1406C32.6191 69.1406 32.0195 68.8047 31.6133 68.1328ZM31.5898 65.7129V66.5508C31.5898 67.0469 31.75 67.4688 32.0703 67.8164C32.3945 68.1602 32.8047 68.332 33.3008 68.332C33.8828 68.332 34.3379 68.1094 34.666 67.6641C34.998 67.2188 35.1641 66.5996 35.1641 65.8066C35.1641 65.1387 35.0098 64.6152 34.7012 64.2363C34.3926 63.8574 33.9746 63.668 33.4473 63.668C32.8887 63.668 32.4395 63.8633 32.0996 64.2539C31.7598 64.6406 31.5898 65.127 31.5898 65.7129ZM42.8047 68.5195C42.8047 70.7227 41.75 71.8242 39.6406 71.8242C38.8984 71.8242 38.25 71.6836 37.6953 71.4023V70.4414C38.3711 70.8164 39.0156 71.0039 39.6289 71.0039C41.1055 71.0039 41.8438 70.2188 41.8438 68.6484V67.9922H41.8203C41.3633 68.7578 40.6758 69.1406 39.7578 69.1406C39.0117 69.1406 38.4102 68.875 37.9531 68.3438C37.5 67.8086 37.2734 67.0918 37.2734 66.1934C37.2734 65.1738 37.5176 64.3633 38.0059 63.7617C38.498 63.1602 39.1699 62.8594 40.0215 62.8594C40.8301 62.8594 41.4297 63.1836 41.8203 63.832H41.8438V63H42.8047V68.5195ZM41.8438 66.2871V65.4023C41.8438 64.9258 41.6816 64.5176 41.3574 64.1777C41.0371 63.8379 40.6367 63.668 40.1562 63.668C39.5625 63.668 39.0977 63.8848 38.7617 64.3184C38.4258 64.748 38.2578 65.3516 38.2578 66.1289C38.2578 66.7969 38.418 67.332 38.7383 67.7344C39.0625 68.1328 39.4902 68.332 40.0215 68.332C40.5605 68.332 40.998 68.1406 41.334 67.7578C41.6738 67.375 41.8438 66.8848 41.8438 66.2871ZM49.5723 66.2402H45.3359C45.3516 66.9082 45.5312 67.4238 45.875 67.7871C46.2188 68.1504 46.6914 68.332 47.293 68.332C47.9688 68.332 48.5898 68.1094 49.1562 67.6641V68.5664C48.6289 68.9492 47.9316 69.1406 47.0645 69.1406C46.2168 69.1406 45.5508 68.8691 45.0664 68.3262C44.582 67.7793 44.3398 67.0117 44.3398 66.0234C44.3398 65.0898 44.6035 64.3301 45.1309 63.7441C45.6621 63.1543 46.3203 62.8594 47.1055 62.8594C47.8906 62.8594 48.498 63.1133 48.9277 63.6211C49.3574 64.1289 49.5723 64.834 49.5723 65.7363V66.2402ZM48.5879 65.4258C48.584 64.8711 48.4492 64.4395 48.1836 64.1309C47.9219 63.8223 47.5566 63.668 47.0879 63.668C46.6348 63.668 46.25 63.8301 45.9336 64.1543C45.6172 64.4785 45.4219 64.9023 45.3477 65.4258H48.5879ZM56.1523 68.5195C56.1523 70.7227 55.0977 71.8242 52.9883 71.8242C52.2461 71.8242 51.5977 71.6836 51.043 71.4023V70.4414C51.7188 70.8164 52.3633 71.0039 52.9766 71.0039C54.4531 71.0039 55.1914 70.2188 55.1914 68.6484V67.9922H55.168C54.7109 68.7578 54.0234 69.1406 53.1055 69.1406C52.3594 69.1406 51.7578 68.875 51.3008 68.3438C50.8477 67.8086 50.6211 67.0918 50.6211 66.1934C50.6211 65.1738 50.8652 64.3633 51.3535 63.7617C51.8457 63.1602 52.5176 62.8594 53.3691 62.8594C54.1777 62.8594 54.7773 63.1836 55.168 63.832H55.1914V63H56.1523V68.5195ZM55.1914 66.2871V65.4023C55.1914 64.9258 55.0293 64.5176 54.7051 64.1777C54.3848 63.8379 53.9844 63.668 53.5039 63.668C52.9102 63.668 52.4453 63.8848 52.1094 64.3184C51.7734 64.748 51.6055 65.3516 51.6055 66.1289C51.6055 66.7969 51.7656 67.332 52.0859 67.7344C52.4102 68.1328 52.8379 68.332 53.3691 68.332C53.9082 68.332 54.3457 68.1406 54.6816 67.7578C55.0215 67.375 55.1914 66.8848 55.1914 66.2871ZM62.9199 66.2402H58.6836C58.6992 66.9082 58.8789 67.4238 59.2227 67.7871C59.5664 68.1504 60.0391 68.332 60.6406 68.332C61.3164 68.332 61.9375 68.1094 62.5039 67.6641V68.5664C61.9766 68.9492 61.2793 69.1406 60.4121 69.1406C59.5645 69.1406 58.8984 68.8691 58.4141 68.3262C57.9297 67.7793 57.6875 67.0117 57.6875 66.0234C57.6875 65.0898 57.9512 64.3301 58.4785 63.7441C59.0098 63.1543 59.668 62.8594 60.4531 62.8594C61.2383 62.8594 61.8457 63.1133 62.2754 63.6211C62.7051 64.1289 62.9199 64.834 62.9199 65.7363V66.2402ZM61.9355 65.4258C61.9316 64.8711 61.7969 64.4395 61.5312 64.1309C61.2695 63.8223 60.9043 63.668 60.4355 63.668C59.9824 63.668 59.5977 63.8301 59.2812 64.1543C58.9648 64.4785 58.7695 64.9023 58.6953 65.4258H61.9355ZM69.0957 63L66.7051 69H65.7617L63.4883 63H64.543L66.0664 67.3594C66.1797 67.6797 66.25 67.959 66.2773 68.1973H66.3008C66.3398 67.8965 66.4023 67.625 66.4883 67.3828L68.082 63H69.0957ZM74.9551 66.2402H70.7188C70.7344 66.9082 70.9141 67.4238 71.2578 67.7871C71.6016 68.1504 72.0742 68.332 72.6758 68.332C73.3516 68.332 73.9727 68.1094 74.5391 67.6641V68.5664C74.0117 68.9492 73.3145 69.1406 72.4473 69.1406C71.5996 69.1406 70.9336 68.8691 70.4492 68.3262C69.9648 67.7793 69.7227 67.0117 69.7227 66.0234C69.7227 65.0898 69.9863 64.3301 70.5137 63.7441C71.0449 63.1543 71.7031 62.8594 72.4883 62.8594C73.2734 62.8594 73.8809 63.1133 74.3105 63.6211C74.7402 64.1289 74.9551 64.834 74.9551 65.7363V66.2402ZM73.9707 65.4258C73.9668 64.8711 73.832 64.4395 73.5664 64.1309C73.3047 63.8223 72.9395 63.668 72.4707 63.668C72.0176 63.668 71.6328 63.8301 71.3164 64.1543C71 64.4785 70.8047 64.9023 70.7305 65.4258H73.9707ZM81.3945 69H80.4336V65.5781C80.4336 64.3047 79.9688 63.668 79.0391 63.668C78.5586 63.668 78.1602 63.8496 77.8438 64.2129C77.5312 64.5723 77.375 65.0273 77.375 65.5781V69H76.4141V63H77.375V63.9961H77.3984C77.8516 63.2383 78.5078 62.8594 79.3672 62.8594C80.0234 62.8594 80.5254 63.0723 80.873 63.498C81.2207 63.9199 81.3945 64.5312 81.3945 65.332V69ZM82.8477 68.7832V67.752C83.3711 68.1387 83.9473 68.332 84.5762 68.332C85.4199 68.332 85.8418 68.0508 85.8418 67.4883C85.8418 67.3281 85.8047 67.1934 85.7305 67.084C85.6602 66.9707 85.5625 66.8711 85.4375 66.7852C85.3164 66.6992 85.1719 66.623 85.0039 66.5566C84.8398 66.4863 84.6621 66.4141 84.4707 66.3398C84.2051 66.2344 83.9707 66.1289 83.7676 66.0234C83.5684 65.9141 83.4004 65.793 83.2637 65.6602C83.1309 65.5234 83.0293 65.3691 82.959 65.1973C82.8926 65.0254 82.8594 64.8242 82.8594 64.5938C82.8594 64.3125 82.9238 64.0645 83.0527 63.8496C83.1816 63.6309 83.3535 63.4492 83.5684 63.3047C83.7832 63.1562 84.0273 63.0449 84.3008 62.9707C84.5781 62.8965 84.8633 62.8594 85.1562 62.8594C85.6758 62.8594 86.1406 62.9492 86.5508 63.1289V64.1016C86.1094 63.8125 85.6016 63.668 85.0273 63.668C84.8477 63.668 84.6855 63.6895 84.541 63.7324C84.3965 63.7715 84.2715 63.8281 84.166 63.9023C84.0645 63.9766 83.9844 64.0664 83.9258 64.1719C83.8711 64.2734 83.8438 64.3867 83.8438 64.5117C83.8438 64.668 83.8711 64.7988 83.9258 64.9043C83.9844 65.0098 84.0684 65.1035 84.1777 65.1855C84.2871 65.2676 84.4199 65.3418 84.5762 65.4082C84.7324 65.4746 84.9102 65.5469 85.1094 65.625C85.375 65.7266 85.6133 65.832 85.8242 65.9414C86.0352 66.0469 86.2148 66.168 86.3633 66.3047C86.5117 66.4375 86.625 66.5918 86.7031 66.7676C86.7852 66.9434 86.8262 67.1523 86.8262 67.3945C86.8262 67.6914 86.7598 67.9492 86.627 68.168C86.498 68.3867 86.3242 68.5684 86.1055 68.7129C85.8867 68.8574 85.6348 68.9648 85.3496 69.0352C85.0645 69.1055 84.7656 69.1406 84.4531 69.1406C83.8359 69.1406 83.3008 69.0215 82.8477 68.7832ZM30.4355 85H29.4746V81.5781C29.4746 80.3047 29.0098 79.668 28.0801 79.668C27.5996 79.668 27.2012 79.8496 26.8848 80.2129C26.5723 80.5723 26.416 81.0273 26.416 81.5781V85H25.4551V79H26.416V79.9961H26.4395C26.8926 79.2383 27.5488 78.8594 28.4082 78.8594C29.0645 78.8594 29.5664 79.0723 29.9141 79.498C30.2617 79.9199 30.4355 80.5312 30.4355 81.332V85ZM32.7441 77.4766C32.5723 77.4766 32.4258 77.418 32.3047 77.3008C32.1836 77.1836 32.123 77.0352 32.123 76.8555C32.123 76.6758 32.1836 76.5273 32.3047 76.4102C32.4258 76.2891 32.5723 76.2285 32.7441 76.2285C32.9199 76.2285 33.0684 76.2891 33.1895 76.4102C33.3145 76.5273 33.377 76.6758 33.377 76.8555C33.377 77.0273 33.3145 77.1738 33.1895 77.2949C33.0684 77.416 32.9199 77.4766 32.7441 77.4766ZM33.2129 85H32.252V79H33.2129V85ZM39.9805 82.2402H35.7441C35.7598 82.9082 35.9395 83.4238 36.2832 83.7871C36.627 84.1504 37.0996 84.332 37.7012 84.332C38.377 84.332 38.998 84.1094 39.5645 83.6641V84.5664C39.0371 84.9492 38.3398 85.1406 37.4727 85.1406C36.625 85.1406 35.959 84.8691 35.4746 84.3262C34.9902 83.7793 34.748 83.0117 34.748 82.0234C34.748 81.0898 35.0117 80.3301 35.5391 79.7441C36.0703 79.1543 36.7285 78.8594 37.5137 78.8594C38.2988 78.8594 38.9062 79.1133 39.3359 79.6211C39.7656 80.1289 39.9805 80.834 39.9805 81.7363V82.2402ZM38.9961 81.4258C38.9922 80.8711 38.8574 80.4395 38.5918 80.1309C38.3301 79.8223 37.9648 79.668 37.4961 79.668C37.043 79.668 36.6582 79.8301 36.3418 80.1543C36.0254 80.4785 35.8301 80.9023 35.7559 81.4258H38.9961ZM44.2227 84.9414C43.9961 85.0664 43.6973 85.1289 43.3262 85.1289C42.2754 85.1289 41.75 84.543 41.75 83.3711V79.8203H40.7188V79H41.75V77.5352L42.7109 77.2246V79H44.2227V79.8203H42.7109V83.2012C42.7109 83.6035 42.7793 83.8906 42.916 84.0625C43.0527 84.2344 43.2793 84.3203 43.5957 84.3203C43.8379 84.3203 44.0469 84.2539 44.2227 84.1211V84.9414ZM49.7598 85H48.7988V76.1172H49.7598V85ZM56.5273 82.2402H52.291C52.3066 82.9082 52.4863 83.4238 52.8301 83.7871C53.1738 84.1504 53.6465 84.332 54.248 84.332C54.9238 84.332 55.5449 84.1094 56.1113 83.6641V84.5664C55.584 84.9492 54.8867 85.1406 54.0195 85.1406C53.1719 85.1406 52.5059 84.8691 52.0215 84.3262C51.5371 83.7793 51.2949 83.0117 51.2949 82.0234C51.2949 81.0898 51.5586 80.3301 52.0859 79.7441C52.6172 79.1543 53.2754 78.8594 54.0605 78.8594C54.8457 78.8594 55.4531 79.1133 55.8828 79.6211C56.3125 80.1289 56.5273 80.834 56.5273 81.7363V82.2402ZM55.543 81.4258C55.5391 80.8711 55.4043 80.4395 55.1387 80.1309C54.877 79.8223 54.5117 79.668 54.043 79.668C53.5898 79.668 53.2051 79.8301 52.8887 80.1543C52.5723 80.4785 52.377 80.9023 52.3027 81.4258H55.543ZM62.1699 79.2754L58.6191 84.1797H62.1348V85H57.207V84.7012L60.7578 79.8203H57.541V79H62.1699V79.2754ZM68.2344 82.2402H63.998C64.0137 82.9082 64.1934 83.4238 64.5371 83.7871C64.8809 84.1504 65.3535 84.332 65.9551 84.332C66.6309 84.332 67.252 84.1094 67.8184 83.6641V84.5664C67.291 84.9492 66.5938 85.1406 65.7266 85.1406C64.8789 85.1406 64.2129 84.8691 63.7285 84.3262C63.2441 83.7793 63.002 83.0117 63.002 82.0234C63.002 81.0898 63.2656 80.3301 63.793 79.7441C64.3242 79.1543 64.9824 78.8594 65.7676 78.8594C66.5527 78.8594 67.1602 79.1133 67.5898 79.6211C68.0195 80.1289 68.2344 80.834 68.2344 81.7363V82.2402ZM67.25 81.4258C67.2461 80.8711 67.1113 80.4395 66.8457 80.1309C66.584 79.8223 66.2188 79.668 65.75 79.668C65.2969 79.668 64.9121 79.8301 64.5957 80.1543C64.2793 80.4785 64.084 80.9023 64.0098 81.4258H67.25ZM74.6738 85H73.7129V81.5781C73.7129 80.3047 73.248 79.668 72.3184 79.668C71.8379 79.668 71.4395 79.8496 71.123 80.2129C70.8105 80.5723 70.6543 81.0273 70.6543 81.5781V85H69.6934V79H70.6543V79.9961H70.6777C71.1309 79.2383 71.7871 78.8594 72.6465 78.8594C73.3027 78.8594 73.8047 79.0723 74.1523 79.498C74.5 79.9199 74.6738 80.5312 74.6738 81.332V85Z" fill="#020057"/>
</svg>
