<svg width="100" height="96" viewBox="0 0 100 96" fill="none" xmlns="http://www.w3.org/2000/svg">
<rect width="100" height="96" fill="#FBFBFE"/>
<path d="M55.75 11C57.5449 11 59 12.4551 59 14.25V25.75C59 27.5449 57.5449 29 55.75 29H44.25C42.4551 29 41 27.5449 41 25.75V14.25C41 12.4551 42.4551 11 44.25 11H55.75ZM56.3305 27.4014L50.5247 21.7148C50.2596 21.4553 49.8501 21.4316 49.5588 21.644L49.4752 21.7148L43.6685 27.4011C43.8504 27.4651 44.0461 27.5 44.25 27.5H55.75C55.9535 27.5 56.1489 27.4653 56.3305 27.4014L50.5247 21.7148L56.3305 27.4014ZM55.75 12.5H44.25C43.2835 12.5 42.5 13.2835 42.5 14.25V25.75C42.5 25.9584 42.5364 26.1583 42.6033 26.3437L48.4258 20.643C49.2589 19.8273 50.5675 19.7885 51.4458 20.5266L51.5742 20.6431L57.3964 26.3447C57.4634 26.159 57.5 25.9588 57.5 25.75V14.25C57.5 13.2835 56.7165 12.5 55.75 12.5ZM53.2521 14.5C54.4959 14.5 55.5042 15.5083 55.5042 16.7521C55.5042 17.9959 54.4959 19.0042 53.2521 19.0042C52.0083 19.0042 51 17.9959 51 16.7521C51 15.5083 52.0083 14.5 53.2521 14.5ZM53.2521 16C52.8367 16 52.5 16.3367 52.5 16.7521C52.5 17.1675 52.8367 17.5042 53.2521 17.5042C53.6675 17.5042 54.0042 17.1675 54.0042 16.7521C54.0042 16.3367 53.6675 16 53.2521 16Z" fill="#020057"/>
<path d="M18.1895 52.6484C17.5684 52.9766 16.7949 53.1406 15.8691 53.1406C14.6738 53.1406 13.7168 52.7559 12.998 51.9863C12.2793 51.2168 11.9199 50.207 11.9199 48.957C11.9199 47.6133 12.3242 46.5273 13.1328 45.6992C13.9414 44.8711 14.9668 44.457 16.209 44.457C17.0059 44.457 17.666 44.5723 18.1895 44.8027V45.8516C17.5879 45.5156 16.9238 45.3477 16.1973 45.3477C15.2324 45.3477 14.4492 45.6699 13.8477 46.3145C13.25 46.959 12.9512 47.8203 12.9512 48.8984C12.9512 49.9219 13.2305 50.7383 13.7891 51.3477C14.3516 51.9531 15.0879 52.2559 15.998 52.2559C16.8418 52.2559 17.5723 52.0684 18.1895 51.6934V52.6484ZM20.7324 53H19.7715V44.1172H20.7324V53ZM26.9727 53H26.0117V52.0625H25.9883C25.5703 52.7812 24.9551 53.1406 24.1426 53.1406C23.5449 53.1406 23.0762 52.9824 22.7363 52.666C22.4004 52.3496 22.2324 51.9297 22.2324 51.4062C22.2324 50.2852 22.8926 49.6328 24.2129 49.4492L26.0117 49.1973C26.0117 48.1777 25.5996 47.668 24.7754 47.668C24.0527 47.668 23.4004 47.9141 22.8184 48.4062V47.4219C23.4082 47.0469 24.0879 46.8594 24.8574 46.8594C26.2676 46.8594 26.9727 47.6055 26.9727 49.0977V53ZM26.0117 49.9648L24.5645 50.1641C24.1191 50.2266 23.7832 50.3379 23.5566 50.498C23.3301 50.6543 23.2168 50.9336 23.2168 51.3359C23.2168 51.6289 23.3203 51.8691 23.5273 52.0566C23.7383 52.2402 24.0176 52.332 24.3652 52.332C24.8418 52.332 25.2344 52.166 25.543 51.834C25.8555 51.498 26.0117 51.0742 26.0117 50.5625V49.9648ZM31.9121 47.9727C31.7441 47.8438 31.502 47.7793 31.1855 47.7793C30.7754 47.7793 30.4316 47.9727 30.1543 48.3594C29.8809 48.7461 29.7441 49.2734 29.7441 49.9414V53H28.7832V47H29.7441V48.2363H29.7676C29.9043 47.8145 30.1133 47.4863 30.3945 47.252C30.6758 47.0137 30.9902 46.8945 31.3379 46.8945C31.5879 46.8945 31.7793 46.9219 31.9121 46.9766V47.9727ZM33.4473 45.4766C33.2754 45.4766 33.1289 45.418 33.0078 45.3008C32.8867 45.1836 32.8262 45.0352 32.8262 44.8555C32.8262 44.6758 32.8867 44.5273 33.0078 44.4102C33.1289 44.2891 33.2754 44.2285 33.4473 44.2285C33.623 44.2285 33.7715 44.2891 33.8926 44.4102C34.0176 44.5273 34.0801 44.6758 34.0801 44.8555C34.0801 45.0273 34.0176 45.1738 33.8926 45.2949C33.7715 45.416 33.623 45.4766 33.4473 45.4766ZM33.916 53H32.9551V47H33.916V53ZM38.6445 52.9414C38.418 53.0664 38.1191 53.1289 37.748 53.1289C36.6973 53.1289 36.1719 52.543 36.1719 51.3711V47.8203H35.1406V47H36.1719V45.5352L37.1328 45.2246V47H38.6445V47.8203H37.1328V51.2012C37.1328 51.6035 37.2012 51.8906 37.3379 52.0625C37.4746 52.2344 37.7012 52.3203 38.0176 52.3203C38.2598 52.3203 38.4688 52.2539 38.6445 52.1211V52.9414ZM44.7031 47L41.9434 53.9609C41.4512 55.2031 40.7598 55.8242 39.8691 55.8242C39.6191 55.8242 39.4102 55.7988 39.2422 55.748V54.8867C39.4492 54.957 39.6387 54.9922 39.8105 54.9922C40.2949 54.9922 40.6582 54.7031 40.9004 54.125L41.3809 52.9883L39.0371 47H40.1035L41.7266 51.6172C41.7461 51.6758 41.7871 51.8281 41.8496 52.0742H41.8848C41.9043 51.9805 41.9434 51.832 42.002 51.6289L43.707 47H44.7031ZM54.0137 53H53.0527V49.5781C53.0527 48.3047 52.5879 47.668 51.6582 47.668C51.1777 47.668 50.7793 47.8496 50.4629 48.2129C50.1504 48.5723 49.9941 49.0273 49.9941 49.5781V53H49.0332V47H49.9941V47.9961H50.0176C50.4707 47.2383 51.127 46.8594 51.9863 46.8594C52.6426 46.8594 53.1445 47.0723 53.4922 47.498C53.8398 47.9199 54.0137 48.5312 54.0137 49.332V53ZM60.6523 50.2402H56.416C56.4316 50.9082 56.6113 51.4238 56.9551 51.7871C57.2988 52.1504 57.7715 52.332 58.373 52.332C59.0488 52.332 59.6699 52.1094 60.2363 51.6641V52.5664C59.709 52.9492 59.0117 53.1406 58.1445 53.1406C57.2969 53.1406 56.6309 52.8691 56.1465 52.3262C55.6621 51.7793 55.4199 51.0117 55.4199 50.0234C55.4199 49.0898 55.6836 48.3301 56.2109 47.7441C56.7422 47.1543 57.4004 46.8594 58.1855 46.8594C58.9707 46.8594 59.5781 47.1133 60.0078 47.6211C60.4375 48.1289 60.6523 48.834 60.6523 49.7363V50.2402ZM59.668 49.4258C59.6641 48.8711 59.5293 48.4395 59.2637 48.1309C59.002 47.8223 58.6367 47.668 58.168 47.668C57.7148 47.668 57.3301 47.8301 57.0137 48.1543C56.6973 48.4785 56.502 48.9023 56.4277 49.4258H59.668ZM66.3887 52.1328H66.3652V55.7598H65.4043V47H66.3652V48.0547H66.3887C66.8613 47.2578 67.5527 46.8594 68.4629 46.8594C69.2363 46.8594 69.8398 47.1289 70.2734 47.668C70.707 48.2031 70.9238 48.9219 70.9238 49.8242C70.9238 50.8281 70.6797 51.6328 70.1914 52.2383C69.7031 52.8398 69.0352 53.1406 68.1875 53.1406C67.4102 53.1406 66.8105 52.8047 66.3887 52.1328ZM66.3652 49.7129V50.5508C66.3652 51.0469 66.5254 51.4688 66.8457 51.8164C67.1699 52.1602 67.5801 52.332 68.0762 52.332C68.6582 52.332 69.1133 52.1094 69.4414 51.6641C69.7734 51.2188 69.9395 50.5996 69.9395 49.8066C69.9395 49.1387 69.7852 48.6152 69.4766 48.2363C69.168 47.8574 68.75 47.668 68.2227 47.668C67.6641 47.668 67.2148 47.8633 66.875 48.2539C66.5352 48.6406 66.3652 49.127 66.3652 49.7129ZM77.2812 50.2402H73.0449C73.0605 50.9082 73.2402 51.4238 73.584 51.7871C73.9277 52.1504 74.4004 52.332 75.002 52.332C75.6777 52.332 76.2988 52.1094 76.8652 51.6641V52.5664C76.3379 52.9492 75.6406 53.1406 74.7734 53.1406C73.9258 53.1406 73.2598 52.8691 72.7754 52.3262C72.291 51.7793 72.0488 51.0117 72.0488 50.0234C72.0488 49.0898 72.3125 48.3301 72.8398 47.7441C73.3711 47.1543 74.0293 46.8594 74.8145 46.8594C75.5996 46.8594 76.207 47.1133 76.6367 47.6211C77.0664 48.1289 77.2812 48.834 77.2812 49.7363V50.2402ZM76.2969 49.4258C76.293 48.8711 76.1582 48.4395 75.8926 48.1309C75.6309 47.8223 75.2656 47.668 74.7969 47.668C74.3438 47.668 73.959 47.8301 73.6426 48.1543C73.3262 48.4785 73.1309 48.9023 73.0566 49.4258H76.2969ZM83.5918 53H82.6309V52.0508H82.6074C82.209 52.7773 81.5918 53.1406 80.7559 53.1406C79.3262 53.1406 78.6113 52.2891 78.6113 50.5859V47H79.5664V50.4336C79.5664 51.6992 80.0508 52.332 81.0195 52.332C81.4883 52.332 81.873 52.1602 82.1738 51.8164C82.4785 51.4688 82.6309 51.0156 82.6309 50.457V47H83.5918V53ZM88.3203 52.9414C88.0938 53.0664 87.7949 53.1289 87.4238 53.1289C86.373 53.1289 85.8477 52.543 85.8477 51.3711V47.8203H84.8164V47H85.8477V45.5352L86.8086 45.2246V47H88.3203V47.8203H86.8086V51.2012C86.8086 51.6035 86.877 51.8906 87.0137 52.0625C87.1504 52.2344 87.377 52.3203 87.6934 52.3203C87.9355 52.3203 88.1445 52.2539 88.3203 52.1211V52.9414ZM24.2598 68.1328H24.2363V71.7598H23.2754V63H24.2363V64.0547H24.2598C24.7324 63.2578 25.4238 62.8594 26.334 62.8594C27.1074 62.8594 27.7109 63.1289 28.1445 63.668C28.5781 64.2031 28.7949 64.9219 28.7949 65.8242C28.7949 66.8281 28.5508 67.6328 28.0625 68.2383C27.5742 68.8398 26.9062 69.1406 26.0586 69.1406C25.2812 69.1406 24.6816 68.8047 24.2598 68.1328ZM24.2363 65.7129V66.5508C24.2363 67.0469 24.3965 67.4688 24.7168 67.8164C25.041 68.1602 25.4512 68.332 25.9473 68.332C26.5293 68.332 26.9844 68.1094 27.3125 67.6641C27.6445 67.2188 27.8105 66.5996 27.8105 65.8066C27.8105 65.1387 27.6562 64.6152 27.3477 64.2363C27.0391 63.8574 26.6211 63.668 26.0938 63.668C25.5352 63.668 25.0859 63.8633 24.7461 64.2539C24.4062 64.6406 24.2363 65.127 24.2363 65.7129ZM34.625 69H33.6641V68.0625H33.6406C33.2227 68.7812 32.6074 69.1406 31.7949 69.1406C31.1973 69.1406 30.7285 68.9824 30.3887 68.666C30.0527 68.3496 29.8848 67.9297 29.8848 67.4062C29.8848 66.2852 30.5449 65.6328 31.8652 65.4492L33.6641 65.1973C33.6641 64.1777 33.252 63.668 32.4277 63.668C31.7051 63.668 31.0527 63.9141 30.4707 64.4062V63.4219C31.0605 63.0469 31.7402 62.8594 32.5098 62.8594C33.9199 62.8594 34.625 63.6055 34.625 65.0977V69ZM33.6641 65.9648L32.2168 66.1641C31.7715 66.2266 31.4355 66.3379 31.209 66.498C30.9824 66.6543 30.8691 66.9336 30.8691 67.3359C30.8691 67.6289 30.9727 67.8691 31.1797 68.0566C31.3906 68.2402 31.6699 68.332 32.0176 68.332C32.4941 68.332 32.8867 68.166 33.1953 67.834C33.5078 67.498 33.6641 67.0742 33.6641 66.5625V65.9648ZM36.0723 68.7832V67.752C36.5957 68.1387 37.1719 68.332 37.8008 68.332C38.6445 68.332 39.0664 68.0508 39.0664 67.4883C39.0664 67.3281 39.0293 67.1934 38.9551 67.084C38.8848 66.9707 38.7871 66.8711 38.6621 66.7852C38.541 66.6992 38.3965 66.623 38.2285 66.5566C38.0645 66.4863 37.8867 66.4141 37.6953 66.3398C37.4297 66.2344 37.1953 66.1289 36.9922 66.0234C36.793 65.9141 36.625 65.793 36.4883 65.6602C36.3555 65.5234 36.2539 65.3691 36.1836 65.1973C36.1172 65.0254 36.084 64.8242 36.084 64.5938C36.084 64.3125 36.1484 64.0645 36.2773 63.8496C36.4062 63.6309 36.5781 63.4492 36.793 63.3047C37.0078 63.1562 37.252 63.0449 37.5254 62.9707C37.8027 62.8965 38.0879 62.8594 38.3809 62.8594C38.9004 62.8594 39.3652 62.9492 39.7754 63.1289V64.1016C39.334 63.8125 38.8262 63.668 38.252 63.668C38.0723 63.668 37.9102 63.6895 37.7656 63.7324C37.6211 63.7715 37.4961 63.8281 37.3906 63.9023C37.2891 63.9766 37.209 64.0664 37.1504 64.1719C37.0957 64.2734 37.0684 64.3867 37.0684 64.5117C37.0684 64.668 37.0957 64.7988 37.1504 64.9043C37.209 65.0098 37.293 65.1035 37.4023 65.1855C37.5117 65.2676 37.6445 65.3418 37.8008 65.4082C37.957 65.4746 38.1348 65.5469 38.334 65.625C38.5996 65.7266 38.8379 65.832 39.0488 65.9414C39.2598 66.0469 39.4395 66.168 39.5879 66.3047C39.7363 66.4375 39.8496 66.5918 39.9277 66.7676C40.0098 66.9434 40.0508 67.1523 40.0508 67.3945C40.0508 67.6914 39.9844 67.9492 39.8516 68.168C39.7227 68.3867 39.5488 68.5684 39.3301 68.7129C39.1113 68.8574 38.8594 68.9648 38.5742 69.0352C38.2891 69.1055 37.9902 69.1406 37.6777 69.1406C37.0605 69.1406 36.5254 69.0215 36.0723 68.7832ZM45.7871 69H44.8262V60.1172H45.7871V69ZM48.2246 61.4766C48.0527 61.4766 47.9062 61.418 47.7852 61.3008C47.6641 61.1836 47.6035 61.0352 47.6035 60.8555C47.6035 60.6758 47.6641 60.5273 47.7852 60.4102C47.9062 60.2891 48.0527 60.2285 48.2246 60.2285C48.4004 60.2285 48.5488 60.2891 48.6699 60.4102C48.7949 60.5273 48.8574 60.6758 48.8574 60.8555C48.8574 61.0273 48.7949 61.1738 48.6699 61.2949C48.5488 61.416 48.4004 61.4766 48.2246 61.4766ZM48.6934 69H47.7324V63H48.6934V69ZM53.7676 63.9727C53.5996 63.8438 53.3574 63.7793 53.041 63.7793C52.6309 63.7793 52.2871 63.9727 52.0098 64.3594C51.7363 64.7461 51.5996 65.2734 51.5996 65.9414V69H50.6387V63H51.5996V64.2363H51.623C51.7598 63.8145 51.9688 63.4863 52.25 63.252C52.5312 63.0137 52.8457 62.8945 53.1934 62.8945C53.4434 62.8945 53.6348 62.9219 53.7676 62.9766V63.9727ZM59.6328 66.2402H55.3965C55.4121 66.9082 55.5918 67.4238 55.9355 67.7871C56.2793 68.1504 56.752 68.332 57.3535 68.332C58.0293 68.332 58.6504 68.1094 59.2168 67.6641V68.5664C58.6895 68.9492 57.9922 69.1406 57.125 69.1406C56.2773 69.1406 55.6113 68.8691 55.127 68.3262C54.6426 67.7793 54.4004 67.0117 54.4004 66.0234C54.4004 65.0898 54.6641 64.3301 55.1914 63.7441C55.7227 63.1543 56.3809 62.8594 57.166 62.8594C57.9512 62.8594 58.5586 63.1133 58.9883 63.6211C59.418 64.1289 59.6328 64.834 59.6328 65.7363V66.2402ZM58.6484 65.4258C58.6445 64.8711 58.5098 64.4395 58.2441 64.1309C57.9824 63.8223 57.6172 63.668 57.1484 63.668C56.6953 63.668 56.3105 63.8301 55.9941 64.1543C55.6777 64.4785 55.4824 64.9023 55.4082 65.4258H58.6484ZM65.3457 69H64.3848V60.1172H65.3457V69ZM72.1133 66.2402H67.877C67.8926 66.9082 68.0723 67.4238 68.416 67.7871C68.7598 68.1504 69.2324 68.332 69.834 68.332C70.5098 68.332 71.1309 68.1094 71.6973 67.6641V68.5664C71.1699 68.9492 70.4727 69.1406 69.6055 69.1406C68.7578 69.1406 68.0918 68.8691 67.6074 68.3262C67.123 67.7793 66.8809 67.0117 66.8809 66.0234C66.8809 65.0898 67.1445 64.3301 67.6719 63.7441C68.2031 63.1543 68.8613 62.8594 69.6465 62.8594C70.4316 62.8594 71.0391 63.1133 71.4688 63.6211C71.8984 64.1289 72.1133 64.834 72.1133 65.7363V66.2402ZM71.1289 65.4258C71.125 64.8711 70.9902 64.4395 70.7246 64.1309C70.4629 63.8223 70.0977 63.668 69.6289 63.668C69.1758 63.668 68.791 63.8301 68.4746 64.1543C68.1582 64.4785 67.9629 64.9023 67.8887 65.4258H71.1289ZM73.209 68.7832V67.752C73.7324 68.1387 74.3086 68.332 74.9375 68.332C75.7812 68.332 76.2031 68.0508 76.2031 67.4883C76.2031 67.3281 76.166 67.1934 76.0918 67.084C76.0215 66.9707 75.9238 66.8711 75.7988 66.7852C75.6777 66.6992 75.5332 66.623 75.3652 66.5566C75.2012 66.4863 75.0234 66.4141 74.832 66.3398C74.5664 66.2344 74.332 66.1289 74.1289 66.0234C73.9297 65.9141 73.7617 65.793 73.625 65.6602C73.4922 65.5234 73.3906 65.3691 73.3203 65.1973C73.2539 65.0254 73.2207 64.8242 73.2207 64.5938C73.2207 64.3125 73.2852 64.0645 73.4141 63.8496C73.543 63.6309 73.7148 63.4492 73.9297 63.3047C74.1445 63.1562 74.3887 63.0449 74.6621 62.9707C74.9395 62.8965 75.2246 62.8594 75.5176 62.8594C76.0371 62.8594 76.502 62.9492 76.9121 63.1289V64.1016C76.4707 63.8125 75.9629 63.668 75.3887 63.668C75.209 63.668 75.0469 63.6895 74.9023 63.7324C74.7578 63.7715 74.6328 63.8281 74.5273 63.9023C74.4258 63.9766 74.3457 64.0664 74.2871 64.1719C74.2324 64.2734 74.2051 64.3867 74.2051 64.5117C74.2051 64.668 74.2324 64.7988 74.2871 64.9043C74.3457 65.0098 74.4297 65.1035 74.5391 65.1855C74.6484 65.2676 74.7812 65.3418 74.9375 65.4082C75.0938 65.4746 75.2715 65.5469 75.4707 65.625C75.7363 65.7266 75.9746 65.832 76.1855 65.9414C76.3965 66.0469 76.5762 66.168 76.7246 66.3047C76.873 66.4375 76.9863 66.5918 77.0645 66.7676C77.1465 66.9434 77.1875 67.1523 77.1875 67.3945C77.1875 67.6914 77.1211 67.9492 76.9883 68.168C76.8594 68.3867 76.6855 68.5684 76.4668 68.7129C76.248 68.8574 75.9961 68.9648 75.7109 69.0352C75.4258 69.1055 75.127 69.1406 74.8145 69.1406C74.1973 69.1406 73.6621 69.0215 73.209 68.7832ZM19.748 85H18.7871V83.9805H18.7637C18.3184 84.7539 17.6309 85.1406 16.7012 85.1406C15.9473 85.1406 15.3438 84.873 14.8906 84.3379C14.4414 83.7988 14.2168 83.0664 14.2168 82.1406C14.2168 81.1484 14.4668 80.3535 14.9668 79.7559C15.4668 79.1582 16.1328 78.8594 16.9648 78.8594C17.7891 78.8594 18.3887 79.1836 18.7637 79.832H18.7871V76.1172H19.748V85ZM18.7871 82.2871V81.4023C18.7871 80.918 18.627 80.5078 18.3066 80.1719C17.9863 79.8359 17.5801 79.668 17.0879 79.668C16.502 79.668 16.041 79.8828 15.7051 80.3125C15.3691 80.7422 15.2012 81.3359 15.2012 82.0938C15.2012 82.7852 15.3613 83.332 15.6816 83.7344C16.0059 84.1328 16.4395 84.332 16.9824 84.332C17.5176 84.332 17.9512 84.1387 18.2832 83.752C18.6191 83.3652 18.7871 82.877 18.7871 82.2871ZM24.2012 85.1406C23.3145 85.1406 22.6055 84.8613 22.0742 84.3027C21.5469 83.7402 21.2832 82.9961 21.2832 82.0703C21.2832 81.0625 21.5586 80.2754 22.1094 79.709C22.6602 79.1426 23.4043 78.8594 24.3418 78.8594C25.2363 78.8594 25.9336 79.1348 26.4336 79.6855C26.9375 80.2363 27.1895 81 27.1895 81.9766C27.1895 82.9336 26.918 83.7012 26.375 84.2793C25.8359 84.8535 25.1113 85.1406 24.2012 85.1406ZM24.2715 79.668C23.6543 79.668 23.166 79.8789 22.8066 80.3008C22.4473 80.7188 22.2676 81.2969 22.2676 82.0352C22.2676 82.7461 22.4492 83.3066 22.8125 83.7168C23.1758 84.127 23.6621 84.332 24.2715 84.332C24.8926 84.332 25.3691 84.1309 25.7012 83.7285C26.0371 83.3262 26.2051 82.7539 26.2051 82.0117C26.2051 81.2617 26.0371 80.6836 25.7012 80.2773C25.3691 79.8711 24.8926 79.668 24.2715 79.668ZM33.7051 85H32.7441V81.5781C32.7441 80.3047 32.2793 79.668 31.3496 79.668C30.8691 79.668 30.4707 79.8496 30.1543 80.2129C29.8418 80.5723 29.6855 81.0273 29.6855 81.5781V85H28.7246V79H29.6855V79.9961H29.709C30.1621 79.2383 30.8184 78.8594 31.6777 78.8594C32.334 78.8594 32.8359 79.0723 33.1836 79.498C33.5312 79.9199 33.7051 80.5312 33.7051 81.332V85ZM40.502 85H39.541V81.5781C39.541 80.3047 39.0762 79.668 38.1465 79.668C37.666 79.668 37.2676 79.8496 36.9512 80.2129C36.6387 80.5723 36.4824 81.0273 36.4824 81.5781V85H35.5215V79H36.4824V79.9961H36.5059C36.959 79.2383 37.6152 78.8594 38.4746 78.8594C39.1309 78.8594 39.6328 79.0723 39.9805 79.498C40.3281 79.9199 40.502 80.5312 40.502 81.332V85ZM47.1406 82.2402H42.9043C42.9199 82.9082 43.0996 83.4238 43.4434 83.7871C43.7871 84.1504 44.2598 84.332 44.8613 84.332C45.5371 84.332 46.1582 84.1094 46.7246 83.6641V84.5664C46.1973 84.9492 45.5 85.1406 44.6328 85.1406C43.7852 85.1406 43.1191 84.8691 42.6348 84.3262C42.1504 83.7793 41.9082 83.0117 41.9082 82.0234C41.9082 81.0898 42.1719 80.3301 42.6992 79.7441C43.2305 79.1543 43.8887 78.8594 44.6738 78.8594C45.459 78.8594 46.0664 79.1133 46.4961 79.6211C46.9258 80.1289 47.1406 80.834 47.1406 81.7363V82.2402ZM46.1562 81.4258C46.1523 80.8711 46.0176 80.4395 45.752 80.1309C45.4902 79.8223 45.125 79.668 44.6562 79.668C44.2031 79.668 43.8184 79.8301 43.502 80.1543C43.1855 80.4785 42.9902 80.9023 42.916 81.4258H46.1562ZM46.0039 75.9414L44.4688 77.8633H43.7246L45.0312 75.9414H46.0039ZM53.4219 82.2402H49.1855C49.2012 82.9082 49.3809 83.4238 49.7246 83.7871C50.0684 84.1504 50.541 84.332 51.1426 84.332C51.8184 84.332 52.4395 84.1094 53.0059 83.6641V84.5664C52.4785 84.9492 51.7812 85.1406 50.9141 85.1406C50.0664 85.1406 49.4004 84.8691 48.916 84.3262C48.4316 83.7793 48.1895 83.0117 48.1895 82.0234C48.1895 81.0898 48.4531 80.3301 48.9805 79.7441C49.5117 79.1543 50.1699 78.8594 50.9551 78.8594C51.7402 78.8594 52.3477 79.1133 52.7773 79.6211C53.207 80.1289 53.4219 80.834 53.4219 81.7363V82.2402ZM52.4375 81.4258C52.4336 80.8711 52.2988 80.4395 52.0332 80.1309C51.7715 79.8223 51.4062 79.668 50.9375 79.668C50.4844 79.668 50.0996 79.8301 49.7832 80.1543C49.4668 80.4785 49.2715 80.9023 49.1973 81.4258H52.4375ZM54.5176 84.7832V83.752C55.041 84.1387 55.6172 84.332 56.2461 84.332C57.0898 84.332 57.5117 84.0508 57.5117 83.4883C57.5117 83.3281 57.4746 83.1934 57.4004 83.084C57.3301 82.9707 57.2324 82.8711 57.1074 82.7852C56.9863 82.6992 56.8418 82.623 56.6738 82.5566C56.5098 82.4863 56.332 82.4141 56.1406 82.3398C55.875 82.2344 55.6406 82.1289 55.4375 82.0234C55.2383 81.9141 55.0703 81.793 54.9336 81.6602C54.8008 81.5234 54.6992 81.3691 54.6289 81.1973C54.5625 81.0254 54.5293 80.8242 54.5293 80.5938C54.5293 80.3125 54.5938 80.0645 54.7227 79.8496C54.8516 79.6309 55.0234 79.4492 55.2383 79.3047C55.4531 79.1562 55.6973 79.0449 55.9707 78.9707C56.248 78.8965 56.5332 78.8594 56.8262 78.8594C57.3457 78.8594 57.8105 78.9492 58.2207 79.1289V80.1016C57.7793 79.8125 57.2715 79.668 56.6973 79.668C56.5176 79.668 56.3555 79.6895 56.2109 79.7324C56.0664 79.7715 55.9414 79.8281 55.8359 79.9023C55.7344 79.9766 55.6543 80.0664 55.5957 80.1719C55.541 80.2734 55.5137 80.3867 55.5137 80.5117C55.5137 80.668 55.541 80.7988 55.5957 80.9043C55.6543 81.0098 55.7383 81.1035 55.8477 81.1855C55.957 81.2676 56.0898 81.3418 56.2461 81.4082C56.4023 81.4746 56.5801 81.5469 56.7793 81.625C57.0449 81.7266 57.2832 81.832 57.4941 81.9414C57.7051 82.0469 57.8848 82.168 58.0332 82.3047C58.1816 82.4375 58.2949 82.5918 58.373 82.7676C58.4551 82.9434 58.4961 83.1523 58.4961 83.3945C58.4961 83.6914 58.4297 83.9492 58.2969 84.168C58.168 84.3867 57.9941 84.5684 57.7754 84.7129C57.5566 84.8574 57.3047 84.9648 57.0195 85.0352C56.7344 85.1055 56.4355 85.1406 56.123 85.1406C55.5059 85.1406 54.9707 85.0215 54.5176 84.7832ZM64.2559 84.1328H64.2324V85H63.2715V76.1172H64.2324V80.0547H64.2559C64.7285 79.2578 65.4199 78.8594 66.3301 78.8594C67.0996 78.8594 67.7012 79.1289 68.1348 79.668C68.5723 80.2031 68.791 80.9219 68.791 81.8242C68.791 82.8281 68.5469 83.6328 68.0586 84.2383C67.5703 84.8398 66.9023 85.1406 66.0547 85.1406C65.2617 85.1406 64.6621 84.8047 64.2559 84.1328ZM64.2324 81.7129V82.5508C64.2324 83.0469 64.3926 83.4688 64.7129 83.8164C65.0371 84.1602 65.4473 84.332 65.9434 84.332C66.5254 84.332 66.9805 84.1094 67.3086 83.6641C67.6406 83.2188 67.8066 82.5996 67.8066 81.8066C67.8066 81.1387 67.6523 80.6152 67.3438 80.2363C67.0352 79.8574 66.6172 79.668 66.0898 79.668C65.5312 79.668 65.082 79.8633 64.7422 80.2539C64.4023 80.6406 64.2324 81.127 64.2324 81.7129ZM71.2871 85H70.3262V76.1172H71.2871V85ZM75.7402 85.1406C74.8535 85.1406 74.1445 84.8613 73.6133 84.3027C73.0859 83.7402 72.8223 82.9961 72.8223 82.0703C72.8223 81.0625 73.0977 80.2754 73.6484 79.709C74.1992 79.1426 74.9434 78.8594 75.8809 78.8594C76.7754 78.8594 77.4727 79.1348 77.9727 79.6855C78.4766 80.2363 78.7285 81 78.7285 81.9766C78.7285 82.9336 78.457 83.7012 77.9141 84.2793C77.375 84.8535 76.6504 85.1406 75.7402 85.1406ZM75.8105 79.668C75.1934 79.668 74.7051 79.8789 74.3457 80.3008C73.9863 80.7188 73.8066 81.2969 73.8066 82.0352C73.8066 82.7461 73.9883 83.3066 74.3516 83.7168C74.7148 84.127 75.2012 84.332 75.8105 84.332C76.4316 84.332 76.9082 84.1309 77.2402 83.7285C77.5762 83.3262 77.7441 82.7539 77.7441 82.0117C77.7441 81.2617 77.5762 80.6836 77.2402 80.2773C76.9082 79.8711 76.4316 79.668 75.8105 79.668ZM81.248 84.1328H81.2246V85H80.2637V76.1172H81.2246V80.0547H81.248C81.7207 79.2578 82.4121 78.8594 83.3223 78.8594C84.0918 78.8594 84.6934 79.1289 85.127 79.668C85.5645 80.2031 85.7832 80.9219 85.7832 81.8242C85.7832 82.8281 85.5391 83.6328 85.0508 84.2383C84.5625 84.8398 83.8945 85.1406 83.0469 85.1406C82.2539 85.1406 81.6543 84.8047 81.248 84.1328ZM81.2246 81.7129V82.5508C81.2246 83.0469 81.3848 83.4688 81.7051 83.8164C82.0293 84.1602 82.4395 84.332 82.9355 84.332C83.5176 84.332 83.9727 84.1094 84.3008 83.6641C84.6328 83.2188 84.7988 82.5996 84.7988 81.8066C84.7988 81.1387 84.6445 80.6152 84.3359 80.2363C84.0273 79.8574 83.6094 79.668 83.082 79.668C82.5234 79.668 82.0742 79.8633 81.7344 80.2539C81.3945 80.6406 81.2246 81.127 81.2246 81.7129Z" fill="#020057"/>
</svg>
