<svg width="100%" viewBox="0 0 148 147" fill="none" xmlns="http://www.w3.org/2000/svg">
<g filter="url(#filter0_dd_3872_62951)">
<rect x="8" y="4" width="132" height="132" fill="#FBFBFE"/>
<rect x="8.5" y="4.5" width="131" height="131" stroke="#827DFF" stroke-dasharray="4 4"/>
<rect width="100" height="96" transform="translate(24 22)" fill="#FBFBFE"/>
<path d="M79.75 33C81.5449 33 83 34.4551 83 36.25V47.75C83 49.5449 81.5449 51 79.75 51H68.25C66.4551 51 65 49.5449 65 47.75V36.25C65 34.4551 66.4551 33 68.25 33H79.75ZM80.3305 49.4014L74.5247 43.7148C74.2596 43.4553 73.8501 43.4316 73.5588 43.644L73.4752 43.7148L67.6685 49.4011C67.8504 49.4651 68.0461 49.5 68.25 49.5H79.75C79.9535 49.5 80.1489 49.4653 80.3305 49.4014L74.5247 43.7148L80.3305 49.4014ZM79.75 34.5H68.25C67.2835 34.5 66.5 35.2835 66.5 36.25V47.75C66.5 47.9584 66.5364 48.1583 66.6033 48.3437L72.4258 42.643C73.2589 41.8273 74.5675 41.7885 75.4458 42.5266L75.5742 42.6431L81.3964 48.3447C81.4634 48.159 81.5 47.9588 81.5 47.75V36.25C81.5 35.2835 80.7165 34.5 79.75 34.5ZM77.2521 36.5C78.4959 36.5 79.5042 37.5083 79.5042 38.7521C79.5042 39.9959 78.4959 41.0042 77.2521 41.0042C76.0083 41.0042 75 39.9959 75 38.7521C75 37.5083 76.0083 36.5 77.2521 36.5ZM77.2521 38C76.8367 38 76.5 38.3367 76.5 38.7521C76.5 39.1675 76.8367 39.5042 77.2521 39.5042C77.6675 39.5042 78.0042 39.1675 78.0042 38.7521C78.0042 38.3367 77.6675 38 77.2521 38Z" fill="#020057"/>
<path d="M42.1895 74.6484C41.5684 74.9766 40.7949 75.1406 39.8691 75.1406C38.6738 75.1406 37.7168 74.7559 36.998 73.9863C36.2793 73.2168 35.9199 72.207 35.9199 70.957C35.9199 69.6133 36.3242 68.5273 37.1328 67.6992C37.9414 66.8711 38.9668 66.457 40.209 66.457C41.0059 66.457 41.666 66.5723 42.1895 66.8027V67.8516C41.5879 67.5156 40.9238 67.3477 40.1973 67.3477C39.2324 67.3477 38.4492 67.6699 37.8477 68.3145C37.25 68.959 36.9512 69.8203 36.9512 70.8984C36.9512 71.9219 37.2305 72.7383 37.7891 73.3477C38.3516 73.9531 39.0879 74.2559 39.998 74.2559C40.8418 74.2559 41.5723 74.0684 42.1895 73.6934V74.6484ZM44.7324 75H43.7715V66.1172H44.7324V75ZM50.9727 75H50.0117V74.0625H49.9883C49.5703 74.7812 48.9551 75.1406 48.1426 75.1406C47.5449 75.1406 47.0762 74.9824 46.7363 74.666C46.4004 74.3496 46.2324 73.9297 46.2324 73.4062C46.2324 72.2852 46.8926 71.6328 48.2129 71.4492L50.0117 71.1973C50.0117 70.1777 49.5996 69.668 48.7754 69.668C48.0527 69.668 47.4004 69.9141 46.8184 70.4062V69.4219C47.4082 69.0469 48.0879 68.8594 48.8574 68.8594C50.2676 68.8594 50.9727 69.6055 50.9727 71.0977V75ZM50.0117 71.9648L48.5645 72.1641C48.1191 72.2266 47.7832 72.3379 47.5566 72.498C47.3301 72.6543 47.2168 72.9336 47.2168 73.3359C47.2168 73.6289 47.3203 73.8691 47.5273 74.0566C47.7383 74.2402 48.0176 74.332 48.3652 74.332C48.8418 74.332 49.2344 74.166 49.543 73.834C49.8555 73.498 50.0117 73.0742 50.0117 72.5625V71.9648ZM55.9121 69.9727C55.7441 69.8438 55.502 69.7793 55.1855 69.7793C54.7754 69.7793 54.4316 69.9727 54.1543 70.3594C53.8809 70.7461 53.7441 71.2734 53.7441 71.9414V75H52.7832V69H53.7441V70.2363H53.7676C53.9043 69.8145 54.1133 69.4863 54.3945 69.252C54.6758 69.0137 54.9902 68.8945 55.3379 68.8945C55.5879 68.8945 55.7793 68.9219 55.9121 68.9766V69.9727ZM57.4473 67.4766C57.2754 67.4766 57.1289 67.418 57.0078 67.3008C56.8867 67.1836 56.8262 67.0352 56.8262 66.8555C56.8262 66.6758 56.8867 66.5273 57.0078 66.4102C57.1289 66.2891 57.2754 66.2285 57.4473 66.2285C57.623 66.2285 57.7715 66.2891 57.8926 66.4102C58.0176 66.5273 58.0801 66.6758 58.0801 66.8555C58.0801 67.0273 58.0176 67.1738 57.8926 67.2949C57.7715 67.416 57.623 67.4766 57.4473 67.4766ZM57.916 75H56.9551V69H57.916V75ZM62.6445 74.9414C62.418 75.0664 62.1191 75.1289 61.748 75.1289C60.6973 75.1289 60.1719 74.543 60.1719 73.3711V69.8203H59.1406V69H60.1719V67.5352L61.1328 67.2246V69H62.6445V69.8203H61.1328V73.2012C61.1328 73.6035 61.2012 73.8906 61.3379 74.0625C61.4746 74.2344 61.7012 74.3203 62.0176 74.3203C62.2598 74.3203 62.4688 74.2539 62.6445 74.1211V74.9414ZM68.7031 69L65.9434 75.9609C65.4512 77.2031 64.7598 77.8242 63.8691 77.8242C63.6191 77.8242 63.4102 77.7988 63.2422 77.748V76.8867C63.4492 76.957 63.6387 76.9922 63.8105 76.9922C64.2949 76.9922 64.6582 76.7031 64.9004 76.125L65.3809 74.9883L63.0371 69H64.1035L65.7266 73.6172C65.7461 73.6758 65.7871 73.8281 65.8496 74.0742H65.8848C65.9043 73.9805 65.9434 73.832 66.002 73.6289L67.707 69H68.7031ZM78.0137 75H77.0527V71.5781C77.0527 70.3047 76.5879 69.668 75.6582 69.668C75.1777 69.668 74.7793 69.8496 74.4629 70.2129C74.1504 70.5723 73.9941 71.0273 73.9941 71.5781V75H73.0332V69H73.9941V69.9961H74.0176C74.4707 69.2383 75.127 68.8594 75.9863 68.8594C76.6426 68.8594 77.1445 69.0723 77.4922 69.498C77.8398 69.9199 78.0137 70.5312 78.0137 71.332V75ZM84.6523 72.2402H80.416C80.4316 72.9082 80.6113 73.4238 80.9551 73.7871C81.2988 74.1504 81.7715 74.332 82.373 74.332C83.0488 74.332 83.6699 74.1094 84.2363 73.6641V74.5664C83.709 74.9492 83.0117 75.1406 82.1445 75.1406C81.2969 75.1406 80.6309 74.8691 80.1465 74.3262C79.6621 73.7793 79.4199 73.0117 79.4199 72.0234C79.4199 71.0898 79.6836 70.3301 80.2109 69.7441C80.7422 69.1543 81.4004 68.8594 82.1855 68.8594C82.9707 68.8594 83.5781 69.1133 84.0078 69.6211C84.4375 70.1289 84.6523 70.834 84.6523 71.7363V72.2402ZM83.668 71.4258C83.6641 70.8711 83.5293 70.4395 83.2637 70.1309C83.002 69.8223 82.6367 69.668 82.168 69.668C81.7148 69.668 81.3301 69.8301 81.0137 70.1543C80.6973 70.4785 80.502 70.9023 80.4277 71.4258H83.668ZM90.3887 74.1328H90.3652V77.7598H89.4043V69H90.3652V70.0547H90.3887C90.8613 69.2578 91.5527 68.8594 92.4629 68.8594C93.2363 68.8594 93.8398 69.1289 94.2734 69.668C94.707 70.2031 94.9238 70.9219 94.9238 71.8242C94.9238 72.8281 94.6797 73.6328 94.1914 74.2383C93.7031 74.8398 93.0352 75.1406 92.1875 75.1406C91.4102 75.1406 90.8105 74.8047 90.3887 74.1328ZM90.3652 71.7129V72.5508C90.3652 73.0469 90.5254 73.4688 90.8457 73.8164C91.1699 74.1602 91.5801 74.332 92.0762 74.332C92.6582 74.332 93.1133 74.1094 93.4414 73.6641C93.7734 73.2188 93.9395 72.5996 93.9395 71.8066C93.9395 71.1387 93.7852 70.6152 93.4766 70.2363C93.168 69.8574 92.75 69.668 92.2227 69.668C91.6641 69.668 91.2148 69.8633 90.875 70.2539C90.5352 70.6406 90.3652 71.127 90.3652 71.7129ZM101.281 72.2402H97.0449C97.0605 72.9082 97.2402 73.4238 97.584 73.7871C97.9277 74.1504 98.4004 74.332 99.002 74.332C99.6777 74.332 100.299 74.1094 100.865 73.6641V74.5664C100.338 74.9492 99.6406 75.1406 98.7734 75.1406C97.9258 75.1406 97.2598 74.8691 96.7754 74.3262C96.291 73.7793 96.0488 73.0117 96.0488 72.0234C96.0488 71.0898 96.3125 70.3301 96.8398 69.7441C97.3711 69.1543 98.0293 68.8594 98.8145 68.8594C99.5996 68.8594 100.207 69.1133 100.637 69.6211C101.066 70.1289 101.281 70.834 101.281 71.7363V72.2402ZM100.297 71.4258C100.293 70.8711 100.158 70.4395 99.8926 70.1309C99.6309 69.8223 99.2656 69.668 98.7969 69.668C98.3438 69.668 97.959 69.8301 97.6426 70.1543C97.3262 70.4785 97.1309 70.9023 97.0566 71.4258H100.297ZM107.592 75H106.631V74.0508H106.607C106.209 74.7773 105.592 75.1406 104.756 75.1406C103.326 75.1406 102.611 74.2891 102.611 72.5859V69H103.566V72.4336C103.566 73.6992 104.051 74.332 105.02 74.332C105.488 74.332 105.873 74.1602 106.174 73.8164C106.479 73.4688 106.631 73.0156 106.631 72.457V69H107.592V75ZM112.32 74.9414C112.094 75.0664 111.795 75.1289 111.424 75.1289C110.373 75.1289 109.848 74.543 109.848 73.3711V69.8203H108.816V69H109.848V67.5352L110.809 67.2246V69H112.32V69.8203H110.809V73.2012C110.809 73.6035 110.877 73.8906 111.014 74.0625C111.15 74.2344 111.377 74.3203 111.693 74.3203C111.936 74.3203 112.145 74.2539 112.32 74.1211V74.9414ZM48.2598 90.1328H48.2363V93.7598H47.2754V85H48.2363V86.0547H48.2598C48.7324 85.2578 49.4238 84.8594 50.334 84.8594C51.1074 84.8594 51.7109 85.1289 52.1445 85.668C52.5781 86.2031 52.7949 86.9219 52.7949 87.8242C52.7949 88.8281 52.5508 89.6328 52.0625 90.2383C51.5742 90.8398 50.9062 91.1406 50.0586 91.1406C49.2812 91.1406 48.6816 90.8047 48.2598 90.1328ZM48.2363 87.7129V88.5508C48.2363 89.0469 48.3965 89.4688 48.7168 89.8164C49.041 90.1602 49.4512 90.332 49.9473 90.332C50.5293 90.332 50.9844 90.1094 51.3125 89.6641C51.6445 89.2188 51.8105 88.5996 51.8105 87.8066C51.8105 87.1387 51.6562 86.6152 51.3477 86.2363C51.0391 85.8574 50.6211 85.668 50.0938 85.668C49.5352 85.668 49.0859 85.8633 48.7461 86.2539C48.4062 86.6406 48.2363 87.127 48.2363 87.7129ZM58.625 91H57.6641V90.0625H57.6406C57.2227 90.7812 56.6074 91.1406 55.7949 91.1406C55.1973 91.1406 54.7285 90.9824 54.3887 90.666C54.0527 90.3496 53.8848 89.9297 53.8848 89.4062C53.8848 88.2852 54.5449 87.6328 55.8652 87.4492L57.6641 87.1973C57.6641 86.1777 57.252 85.668 56.4277 85.668C55.7051 85.668 55.0527 85.9141 54.4707 86.4062V85.4219C55.0605 85.0469 55.7402 84.8594 56.5098 84.8594C57.9199 84.8594 58.625 85.6055 58.625 87.0977V91ZM57.6641 87.9648L56.2168 88.1641C55.7715 88.2266 55.4355 88.3379 55.209 88.498C54.9824 88.6543 54.8691 88.9336 54.8691 89.3359C54.8691 89.6289 54.9727 89.8691 55.1797 90.0566C55.3906 90.2402 55.6699 90.332 56.0176 90.332C56.4941 90.332 56.8867 90.166 57.1953 89.834C57.5078 89.498 57.6641 89.0742 57.6641 88.5625V87.9648ZM60.0723 90.7832V89.752C60.5957 90.1387 61.1719 90.332 61.8008 90.332C62.6445 90.332 63.0664 90.0508 63.0664 89.4883C63.0664 89.3281 63.0293 89.1934 62.9551 89.084C62.8848 88.9707 62.7871 88.8711 62.6621 88.7852C62.541 88.6992 62.3965 88.623 62.2285 88.5566C62.0645 88.4863 61.8867 88.4141 61.6953 88.3398C61.4297 88.2344 61.1953 88.1289 60.9922 88.0234C60.793 87.9141 60.625 87.793 60.4883 87.6602C60.3555 87.5234 60.2539 87.3691 60.1836 87.1973C60.1172 87.0254 60.084 86.8242 60.084 86.5938C60.084 86.3125 60.1484 86.0645 60.2773 85.8496C60.4062 85.6309 60.5781 85.4492 60.793 85.3047C61.0078 85.1562 61.252 85.0449 61.5254 84.9707C61.8027 84.8965 62.0879 84.8594 62.3809 84.8594C62.9004 84.8594 63.3652 84.9492 63.7754 85.1289V86.1016C63.334 85.8125 62.8262 85.668 62.252 85.668C62.0723 85.668 61.9102 85.6895 61.7656 85.7324C61.6211 85.7715 61.4961 85.8281 61.3906 85.9023C61.2891 85.9766 61.209 86.0664 61.1504 86.1719C61.0957 86.2734 61.0684 86.3867 61.0684 86.5117C61.0684 86.668 61.0957 86.7988 61.1504 86.9043C61.209 87.0098 61.293 87.1035 61.4023 87.1855C61.5117 87.2676 61.6445 87.3418 61.8008 87.4082C61.957 87.4746 62.1348 87.5469 62.334 87.625C62.5996 87.7266 62.8379 87.832 63.0488 87.9414C63.2598 88.0469 63.4395 88.168 63.5879 88.3047C63.7363 88.4375 63.8496 88.5918 63.9277 88.7676C64.0098 88.9434 64.0508 89.1523 64.0508 89.3945C64.0508 89.6914 63.9844 89.9492 63.8516 90.168C63.7227 90.3867 63.5488 90.5684 63.3301 90.7129C63.1113 90.8574 62.8594 90.9648 62.5742 91.0352C62.2891 91.1055 61.9902 91.1406 61.6777 91.1406C61.0605 91.1406 60.5254 91.0215 60.0723 90.7832ZM69.7871 91H68.8262V82.1172H69.7871V91ZM72.2246 83.4766C72.0527 83.4766 71.9062 83.418 71.7852 83.3008C71.6641 83.1836 71.6035 83.0352 71.6035 82.8555C71.6035 82.6758 71.6641 82.5273 71.7852 82.4102C71.9062 82.2891 72.0527 82.2285 72.2246 82.2285C72.4004 82.2285 72.5488 82.2891 72.6699 82.4102C72.7949 82.5273 72.8574 82.6758 72.8574 82.8555C72.8574 83.0273 72.7949 83.1738 72.6699 83.2949C72.5488 83.416 72.4004 83.4766 72.2246 83.4766ZM72.6934 91H71.7324V85H72.6934V91ZM77.7676 85.9727C77.5996 85.8438 77.3574 85.7793 77.041 85.7793C76.6309 85.7793 76.2871 85.9727 76.0098 86.3594C75.7363 86.7461 75.5996 87.2734 75.5996 87.9414V91H74.6387V85H75.5996V86.2363H75.623C75.7598 85.8145 75.9688 85.4863 76.25 85.252C76.5312 85.0137 76.8457 84.8945 77.1934 84.8945C77.4434 84.8945 77.6348 84.9219 77.7676 84.9766V85.9727ZM83.6328 88.2402H79.3965C79.4121 88.9082 79.5918 89.4238 79.9355 89.7871C80.2793 90.1504 80.752 90.332 81.3535 90.332C82.0293 90.332 82.6504 90.1094 83.2168 89.6641V90.5664C82.6895 90.9492 81.9922 91.1406 81.125 91.1406C80.2773 91.1406 79.6113 90.8691 79.127 90.3262C78.6426 89.7793 78.4004 89.0117 78.4004 88.0234C78.4004 87.0898 78.6641 86.3301 79.1914 85.7441C79.7227 85.1543 80.3809 84.8594 81.166 84.8594C81.9512 84.8594 82.5586 85.1133 82.9883 85.6211C83.418 86.1289 83.6328 86.834 83.6328 87.7363V88.2402ZM82.6484 87.4258C82.6445 86.8711 82.5098 86.4395 82.2441 86.1309C81.9824 85.8223 81.6172 85.668 81.1484 85.668C80.6953 85.668 80.3105 85.8301 79.9941 86.1543C79.6777 86.4785 79.4824 86.9023 79.4082 87.4258H82.6484ZM89.3457 91H88.3848V82.1172H89.3457V91ZM96.1133 88.2402H91.877C91.8926 88.9082 92.0723 89.4238 92.416 89.7871C92.7598 90.1504 93.2324 90.332 93.834 90.332C94.5098 90.332 95.1309 90.1094 95.6973 89.6641V90.5664C95.1699 90.9492 94.4727 91.1406 93.6055 91.1406C92.7578 91.1406 92.0918 90.8691 91.6074 90.3262C91.123 89.7793 90.8809 89.0117 90.8809 88.0234C90.8809 87.0898 91.1445 86.3301 91.6719 85.7441C92.2031 85.1543 92.8613 84.8594 93.6465 84.8594C94.4316 84.8594 95.0391 85.1133 95.4688 85.6211C95.8984 86.1289 96.1133 86.834 96.1133 87.7363V88.2402ZM95.1289 87.4258C95.125 86.8711 94.9902 86.4395 94.7246 86.1309C94.4629 85.8223 94.0977 85.668 93.6289 85.668C93.1758 85.668 92.791 85.8301 92.4746 86.1543C92.1582 86.4785 91.9629 86.9023 91.8887 87.4258H95.1289ZM97.209 90.7832V89.752C97.7324 90.1387 98.3086 90.332 98.9375 90.332C99.7812 90.332 100.203 90.0508 100.203 89.4883C100.203 89.3281 100.166 89.1934 100.092 89.084C100.021 88.9707 99.9238 88.8711 99.7988 88.7852C99.6777 88.6992 99.5332 88.623 99.3652 88.5566C99.2012 88.4863 99.0234 88.4141 98.832 88.3398C98.5664 88.2344 98.332 88.1289 98.1289 88.0234C97.9297 87.9141 97.7617 87.793 97.625 87.6602C97.4922 87.5234 97.3906 87.3691 97.3203 87.1973C97.2539 87.0254 97.2207 86.8242 97.2207 86.5938C97.2207 86.3125 97.2852 86.0645 97.4141 85.8496C97.543 85.6309 97.7148 85.4492 97.9297 85.3047C98.1445 85.1562 98.3887 85.0449 98.6621 84.9707C98.9395 84.8965 99.2246 84.8594 99.5176 84.8594C100.037 84.8594 100.502 84.9492 100.912 85.1289V86.1016C100.471 85.8125 99.9629 85.668 99.3887 85.668C99.209 85.668 99.0469 85.6895 98.9023 85.7324C98.7578 85.7715 98.6328 85.8281 98.5273 85.9023C98.4258 85.9766 98.3457 86.0664 98.2871 86.1719C98.2324 86.2734 98.2051 86.3867 98.2051 86.5117C98.2051 86.668 98.2324 86.7988 98.2871 86.9043C98.3457 87.0098 98.4297 87.1035 98.5391 87.1855C98.6484 87.2676 98.7812 87.3418 98.9375 87.4082C99.0938 87.4746 99.2715 87.5469 99.4707 87.625C99.7363 87.7266 99.9746 87.832 100.186 87.9414C100.396 88.0469 100.576 88.168 100.725 88.3047C100.873 88.4375 100.986 88.5918 101.064 88.7676C101.146 88.9434 101.188 89.1523 101.188 89.3945C101.188 89.6914 101.121 89.9492 100.988 90.168C100.859 90.3867 100.686 90.5684 100.467 90.7129C100.248 90.8574 99.9961 90.9648 99.7109 91.0352C99.4258 91.1055 99.127 91.1406 98.8145 91.1406C98.1973 91.1406 97.6621 91.0215 97.209 90.7832ZM43.748 107H42.7871V105.98H42.7637C42.3184 106.754 41.6309 107.141 40.7012 107.141C39.9473 107.141 39.3438 106.873 38.8906 106.338C38.4414 105.799 38.2168 105.066 38.2168 104.141C38.2168 103.148 38.4668 102.354 38.9668 101.756C39.4668 101.158 40.1328 100.859 40.9648 100.859C41.7891 100.859 42.3887 101.184 42.7637 101.832H42.7871V98.1172H43.748V107ZM42.7871 104.287V103.402C42.7871 102.918 42.627 102.508 42.3066 102.172C41.9863 101.836 41.5801 101.668 41.0879 101.668C40.502 101.668 40.041 101.883 39.7051 102.312C39.3691 102.742 39.2012 103.336 39.2012 104.094C39.2012 104.785 39.3613 105.332 39.6816 105.734C40.0059 106.133 40.4395 106.332 40.9824 106.332C41.5176 106.332 41.9512 106.139 42.2832 105.752C42.6191 105.365 42.7871 104.877 42.7871 104.287ZM48.2012 107.141C47.3145 107.141 46.6055 106.861 46.0742 106.303C45.5469 105.74 45.2832 104.996 45.2832 104.07C45.2832 103.062 45.5586 102.275 46.1094 101.709C46.6602 101.143 47.4043 100.859 48.3418 100.859C49.2363 100.859 49.9336 101.135 50.4336 101.686C50.9375 102.236 51.1895 103 51.1895 103.977C51.1895 104.934 50.918 105.701 50.375 106.279C49.8359 106.854 49.1113 107.141 48.2012 107.141ZM48.2715 101.668C47.6543 101.668 47.166 101.879 46.8066 102.301C46.4473 102.719 46.2676 103.297 46.2676 104.035C46.2676 104.746 46.4492 105.307 46.8125 105.717C47.1758 106.127 47.6621 106.332 48.2715 106.332C48.8926 106.332 49.3691 106.131 49.7012 105.729C50.0371 105.326 50.2051 104.754 50.2051 104.012C50.2051 103.262 50.0371 102.684 49.7012 102.277C49.3691 101.871 48.8926 101.668 48.2715 101.668ZM57.7051 107H56.7441V103.578C56.7441 102.305 56.2793 101.668 55.3496 101.668C54.8691 101.668 54.4707 101.85 54.1543 102.213C53.8418 102.572 53.6855 103.027 53.6855 103.578V107H52.7246V101H53.6855V101.996H53.709C54.1621 101.238 54.8184 100.859 55.6777 100.859C56.334 100.859 56.8359 101.072 57.1836 101.498C57.5312 101.92 57.7051 102.531 57.7051 103.332V107ZM64.502 107H63.541V103.578C63.541 102.305 63.0762 101.668 62.1465 101.668C61.666 101.668 61.2676 101.85 60.9512 102.213C60.6387 102.572 60.4824 103.027 60.4824 103.578V107H59.5215V101H60.4824V101.996H60.5059C60.959 101.238 61.6152 100.859 62.4746 100.859C63.1309 100.859 63.6328 101.072 63.9805 101.498C64.3281 101.92 64.502 102.531 64.502 103.332V107ZM71.1406 104.24H66.9043C66.9199 104.908 67.0996 105.424 67.4434 105.787C67.7871 106.15 68.2598 106.332 68.8613 106.332C69.5371 106.332 70.1582 106.109 70.7246 105.664V106.566C70.1973 106.949 69.5 107.141 68.6328 107.141C67.7852 107.141 67.1191 106.869 66.6348 106.326C66.1504 105.779 65.9082 105.012 65.9082 104.023C65.9082 103.09 66.1719 102.33 66.6992 101.744C67.2305 101.154 67.8887 100.859 68.6738 100.859C69.459 100.859 70.0664 101.113 70.4961 101.621C70.9258 102.129 71.1406 102.834 71.1406 103.736V104.24ZM70.1562 103.426C70.1523 102.871 70.0176 102.439 69.752 102.131C69.4902 101.822 69.125 101.668 68.6562 101.668C68.2031 101.668 67.8184 101.83 67.502 102.154C67.1855 102.479 66.9902 102.902 66.916 103.426H70.1562ZM70.0039 97.9414L68.4688 99.8633H67.7246L69.0312 97.9414H70.0039ZM77.4219 104.24H73.1855C73.2012 104.908 73.3809 105.424 73.7246 105.787C74.0684 106.15 74.541 106.332 75.1426 106.332C75.8184 106.332 76.4395 106.109 77.0059 105.664V106.566C76.4785 106.949 75.7812 107.141 74.9141 107.141C74.0664 107.141 73.4004 106.869 72.916 106.326C72.4316 105.779 72.1895 105.012 72.1895 104.023C72.1895 103.09 72.4531 102.33 72.9805 101.744C73.5117 101.154 74.1699 100.859 74.9551 100.859C75.7402 100.859 76.3477 101.113 76.7773 101.621C77.207 102.129 77.4219 102.834 77.4219 103.736V104.24ZM76.4375 103.426C76.4336 102.871 76.2988 102.439 76.0332 102.131C75.7715 101.822 75.4062 101.668 74.9375 101.668C74.4844 101.668 74.0996 101.83 73.7832 102.154C73.4668 102.479 73.2715 102.902 73.1973 103.426H76.4375ZM78.5176 106.783V105.752C79.041 106.139 79.6172 106.332 80.2461 106.332C81.0898 106.332 81.5117 106.051 81.5117 105.488C81.5117 105.328 81.4746 105.193 81.4004 105.084C81.3301 104.971 81.2324 104.871 81.1074 104.785C80.9863 104.699 80.8418 104.623 80.6738 104.557C80.5098 104.486 80.332 104.414 80.1406 104.34C79.875 104.234 79.6406 104.129 79.4375 104.023C79.2383 103.914 79.0703 103.793 78.9336 103.66C78.8008 103.523 78.6992 103.369 78.6289 103.197C78.5625 103.025 78.5293 102.824 78.5293 102.594C78.5293 102.312 78.5938 102.064 78.7227 101.85C78.8516 101.631 79.0234 101.449 79.2383 101.305C79.4531 101.156 79.6973 101.045 79.9707 100.971C80.248 100.896 80.5332 100.859 80.8262 100.859C81.3457 100.859 81.8105 100.949 82.2207 101.129V102.102C81.7793 101.812 81.2715 101.668 80.6973 101.668C80.5176 101.668 80.3555 101.689 80.2109 101.732C80.0664 101.771 79.9414 101.828 79.8359 101.902C79.7344 101.977 79.6543 102.066 79.5957 102.172C79.541 102.273 79.5137 102.387 79.5137 102.512C79.5137 102.668 79.541 102.799 79.5957 102.904C79.6543 103.01 79.7383 103.104 79.8477 103.186C79.957 103.268 80.0898 103.342 80.2461 103.408C80.4023 103.475 80.5801 103.547 80.7793 103.625C81.0449 103.727 81.2832 103.832 81.4941 103.941C81.7051 104.047 81.8848 104.168 82.0332 104.305C82.1816 104.438 82.2949 104.592 82.373 104.768C82.4551 104.943 82.4961 105.152 82.4961 105.395C82.4961 105.691 82.4297 105.949 82.2969 106.168C82.168 106.387 81.9941 106.568 81.7754 106.713C81.5566 106.857 81.3047 106.965 81.0195 107.035C80.7344 107.105 80.4355 107.141 80.123 107.141C79.5059 107.141 78.9707 107.021 78.5176 106.783ZM88.2559 106.133H88.2324V107H87.2715V98.1172H88.2324V102.055H88.2559C88.7285 101.258 89.4199 100.859 90.3301 100.859C91.0996 100.859 91.7012 101.129 92.1348 101.668C92.5723 102.203 92.791 102.922 92.791 103.824C92.791 104.828 92.5469 105.633 92.0586 106.238C91.5703 106.84 90.9023 107.141 90.0547 107.141C89.2617 107.141 88.6621 106.805 88.2559 106.133ZM88.2324 103.713V104.551C88.2324 105.047 88.3926 105.469 88.7129 105.816C89.0371 106.16 89.4473 106.332 89.9434 106.332C90.5254 106.332 90.9805 106.109 91.3086 105.664C91.6406 105.219 91.8066 104.6 91.8066 103.807C91.8066 103.139 91.6523 102.615 91.3438 102.236C91.0352 101.857 90.6172 101.668 90.0898 101.668C89.5312 101.668 89.082 101.863 88.7422 102.254C88.4023 102.641 88.2324 103.127 88.2324 103.713ZM95.2871 107H94.3262V98.1172H95.2871V107ZM99.7402 107.141C98.8535 107.141 98.1445 106.861 97.6133 106.303C97.0859 105.74 96.8223 104.996 96.8223 104.07C96.8223 103.062 97.0977 102.275 97.6484 101.709C98.1992 101.143 98.9434 100.859 99.8809 100.859C100.775 100.859 101.473 101.135 101.973 101.686C102.477 102.236 102.729 103 102.729 103.977C102.729 104.934 102.457 105.701 101.914 106.279C101.375 106.854 100.65 107.141 99.7402 107.141ZM99.8105 101.668C99.1934 101.668 98.7051 101.879 98.3457 102.301C97.9863 102.719 97.8066 103.297 97.8066 104.035C97.8066 104.746 97.9883 105.307 98.3516 105.717C98.7148 106.127 99.2012 106.332 99.8105 106.332C100.432 106.332 100.908 106.131 101.24 105.729C101.576 105.326 101.744 104.754 101.744 104.012C101.744 103.262 101.576 102.684 101.24 102.277C100.908 101.871 100.432 101.668 99.8105 101.668ZM105.248 106.133H105.225V107H104.264V98.1172H105.225V102.055H105.248C105.721 101.258 106.412 100.859 107.322 100.859C108.092 100.859 108.693 101.129 109.127 101.668C109.564 102.203 109.783 102.922 109.783 103.824C109.783 104.828 109.539 105.633 109.051 106.238C108.562 106.84 107.895 107.141 107.047 107.141C106.254 107.141 105.654 106.805 105.248 106.133ZM105.225 103.713V104.551C105.225 105.047 105.385 105.469 105.705 105.816C106.029 106.16 106.439 106.332 106.936 106.332C107.518 106.332 107.973 106.109 108.301 105.664C108.633 105.219 108.799 104.6 108.799 103.807C108.799 103.139 108.645 102.615 108.336 102.236C108.027 101.857 107.609 101.668 107.082 101.668C106.523 101.668 106.074 101.863 105.734 102.254C105.395 102.641 105.225 103.127 105.225 103.713Z" fill="#020057"/>
</g>
<defs>
<filter id="filter0_dd_3872_62951" x="0.8" y="2.38419e-07" width="146.4" height="146.4" filterUnits="userSpaceOnUse" color-interpolation-filters="sRGB">
<feFlood flood-opacity="0" result="BackgroundImageFix"/>
<feColorMatrix in="SourceAlpha" type="matrix" values="0 0 0 0 0 0 0 0 0 0 0 0 0 0 0 0 0 0 127 0" result="hardAlpha"/>
<feOffset dy="3.2"/>
<feGaussianBlur stdDeviation="3.6"/>
<feColorMatrix type="matrix" values="0 0 0 0 0.513726 0 0 0 0 0.494118 0 0 0 0 1 0 0 0 0.12 0"/>
<feBlend mode="normal" in2="BackgroundImageFix" result="effect1_dropShadow_3872_62951"/>
<feColorMatrix in="SourceAlpha" type="matrix" values="0 0 0 0 0 0 0 0 0 0 0 0 0 0 0 0 0 0 127 0" result="hardAlpha"/>
<feOffset dy="0.6"/>
<feGaussianBlur stdDeviation="0.9"/>
<feColorMatrix type="matrix" values="0 0 0 0 0.513726 0 0 0 0 0.494118 0 0 0 0 1 0 0 0 0.1 0"/>
<feBlend mode="normal" in2="effect1_dropShadow_3872_62951" result="effect2_dropShadow_3872_62951"/>
<feBlend mode="normal" in="SourceGraphic" in2="effect2_dropShadow_3872_62951" result="shape"/>
</filter>
</defs>
</svg>
