<svg width="100" height="112" viewBox="0 0 100 112" fill="none" xmlns="http://www.w3.org/2000/svg">
<rect width="100" height="112" fill="#FBFBFE"/>
<path d="M55.75 11C57.5449 11 59 12.4551 59 14.25V25.75C59 27.5449 57.5449 29 55.75 29H44.25C42.4551 29 41 27.5449 41 25.75V14.25C41 12.4551 42.4551 11 44.25 11H55.75ZM56.3305 27.4014L50.5247 21.7148C50.2596 21.4553 49.8501 21.4316 49.5588 21.644L49.4752 21.7148L43.6685 27.4011C43.8504 27.4651 44.0461 27.5 44.25 27.5H55.75C55.9535 27.5 56.1489 27.4653 56.3305 27.4014L50.5247 21.7148L56.3305 27.4014ZM55.75 12.5H44.25C43.2835 12.5 42.5 13.2835 42.5 14.25V25.75C42.5 25.9584 42.5364 26.1583 42.6033 26.3437L48.4258 20.643C49.2589 19.8273 50.5675 19.7885 51.4458 20.5266L51.5742 20.6431L57.3964 26.3447C57.4634 26.159 57.5 25.9588 57.5 25.75V14.25C57.5 13.2835 56.7165 12.5 55.75 12.5ZM53.2521 14.5C54.4959 14.5 55.5042 15.5083 55.5042 16.7521C55.5042 17.9959 54.4959 19.0042 53.2521 19.0042C52.0083 19.0042 51 17.9959 51 16.7521C51 15.5083 52.0083 14.5 53.2521 14.5ZM53.2521 16C52.8367 16 52.5 16.3367 52.5 16.7521C52.5 17.1675 52.8367 17.5042 53.2521 17.5042C53.6675 17.5042 54.0042 17.1675 54.0042 16.7521C54.0042 16.3367 53.6675 16 53.2521 16Z" fill="#020057"/>
<path d="M25.6426 52.6484C25.0215 52.9766 24.248 53.1406 23.3223 53.1406C22.127 53.1406 21.1699 52.7559 20.4512 51.9863C19.7324 51.2168 19.373 50.207 19.373 48.957C19.373 47.6133 19.7773 46.5273 20.5859 45.6992C21.3945 44.8711 22.4199 44.457 23.6621 44.457C24.459 44.457 25.1191 44.5723 25.6426 44.8027V45.8516C25.041 45.5156 24.377 45.3477 23.6504 45.3477C22.6855 45.3477 21.9023 45.6699 21.3008 46.3145C20.7031 46.959 20.4043 47.8203 20.4043 48.8984C20.4043 49.9219 20.6836 50.7383 21.2422 51.3477C21.8047 51.9531 22.541 52.2559 23.4512 52.2559C24.2949 52.2559 25.0254 52.0684 25.6426 51.6934V52.6484ZM28.1855 53H27.2246V44.1172H28.1855V53ZM34.4258 53H33.4648V52.0625H33.4414C33.0234 52.7812 32.4082 53.1406 31.5957 53.1406C30.998 53.1406 30.5293 52.9824 30.1895 52.666C29.8535 52.3496 29.6855 51.9297 29.6855 51.4062C29.6855 50.2852 30.3457 49.6328 31.666 49.4492L33.4648 49.1973C33.4648 48.1777 33.0527 47.668 32.2285 47.668C31.5059 47.668 30.8535 47.9141 30.2715 48.4062V47.4219C30.8613 47.0469 31.541 46.8594 32.3105 46.8594C33.7207 46.8594 34.4258 47.6055 34.4258 49.0977V53ZM33.4648 49.9648L32.0176 50.1641C31.5723 50.2266 31.2363 50.3379 31.0098 50.498C30.7832 50.6543 30.6699 50.9336 30.6699 51.3359C30.6699 51.6289 30.7734 51.8691 30.9805 52.0566C31.1914 52.2402 31.4707 52.332 31.8184 52.332C32.2949 52.332 32.6875 52.166 32.9961 51.834C33.3086 51.498 33.4648 51.0742 33.4648 50.5625V49.9648ZM39.3652 47.9727C39.1973 47.8438 38.9551 47.7793 38.6387 47.7793C38.2285 47.7793 37.8848 47.9727 37.6074 48.3594C37.334 48.7461 37.1973 49.2734 37.1973 49.9414V53H36.2363V47H37.1973V48.2363H37.2207C37.3574 47.8145 37.5664 47.4863 37.8477 47.252C38.1289 47.0137 38.4434 46.8945 38.791 46.8945C39.041 46.8945 39.2324 46.9219 39.3652 46.9766V47.9727ZM40.9004 45.4766C40.7285 45.4766 40.582 45.418 40.4609 45.3008C40.3398 45.1836 40.2793 45.0352 40.2793 44.8555C40.2793 44.6758 40.3398 44.5273 40.4609 44.4102C40.582 44.2891 40.7285 44.2285 40.9004 44.2285C41.0762 44.2285 41.2246 44.2891 41.3457 44.4102C41.4707 44.5273 41.5332 44.6758 41.5332 44.8555C41.5332 45.0273 41.4707 45.1738 41.3457 45.2949C41.2246 45.416 41.0762 45.4766 40.9004 45.4766ZM41.3691 53H40.4082V47H41.3691V53ZM46.0977 52.9414C45.8711 53.0664 45.5723 53.1289 45.2012 53.1289C44.1504 53.1289 43.625 52.543 43.625 51.3711V47.8203H42.5938V47H43.625V45.5352L44.5859 45.2246V47H46.0977V47.8203H44.5859V51.2012C44.5859 51.6035 44.6543 51.8906 44.791 52.0625C44.9277 52.2344 45.1543 52.3203 45.4707 52.3203C45.7129 52.3203 45.9219 52.2539 46.0977 52.1211V52.9414ZM52.1562 47L49.3965 53.9609C48.9043 55.2031 48.2129 55.8242 47.3223 55.8242C47.0723 55.8242 46.8633 55.7988 46.6953 55.748V54.8867C46.9023 54.957 47.0918 54.9922 47.2637 54.9922C47.748 54.9922 48.1113 54.7031 48.3535 54.125L48.834 52.9883L46.4902 47H47.5566L49.1797 51.6172C49.1992 51.6758 49.2402 51.8281 49.3027 52.0742H49.3379C49.3574 51.9805 49.3965 51.832 49.4551 51.6289L51.1602 47H52.1562ZM61.4668 53H60.1191L57.4707 50.1172H57.4473V53H56.4863V44.1172H57.4473V49.748H57.4707L59.9902 47H61.25L58.4668 49.8945L61.4668 53ZM66.7461 53H65.7852V52.0625H65.7617C65.3438 52.7812 64.7285 53.1406 63.916 53.1406C63.3184 53.1406 62.8496 52.9824 62.5098 52.666C62.1738 52.3496 62.0059 51.9297 62.0059 51.4062C62.0059 50.2852 62.666 49.6328 63.9863 49.4492L65.7852 49.1973C65.7852 48.1777 65.373 47.668 64.5488 47.668C63.8262 47.668 63.1738 47.9141 62.5918 48.4062V47.4219C63.1816 47.0469 63.8613 46.8594 64.6309 46.8594C66.041 46.8594 66.7461 47.6055 66.7461 49.0977V53ZM65.7852 49.9648L64.3379 50.1641C63.8926 50.2266 63.5566 50.3379 63.3301 50.498C63.1035 50.6543 62.9902 50.9336 62.9902 51.3359C62.9902 51.6289 63.0938 51.8691 63.3008 52.0566C63.5117 52.2402 63.791 52.332 64.1387 52.332C64.6152 52.332 65.0078 52.166 65.3164 51.834C65.6289 51.498 65.7852 51.0742 65.7852 50.5625V49.9648ZM73.5371 53H72.5762V49.5781C72.5762 48.3047 72.1113 47.668 71.1816 47.668C70.7012 47.668 70.3027 47.8496 69.9863 48.2129C69.6738 48.5723 69.5176 49.0273 69.5176 49.5781V53H68.5566V47H69.5176V47.9961H69.541C69.9941 47.2383 70.6504 46.8594 71.5098 46.8594C72.166 46.8594 72.668 47.0723 73.0156 47.498C73.3633 47.9199 73.5371 48.5312 73.5371 49.332V53ZM80.334 53H79.373V49.5781C79.373 48.3047 78.9082 47.668 77.9785 47.668C77.498 47.668 77.0996 47.8496 76.7832 48.2129C76.4707 48.5723 76.3145 49.0273 76.3145 49.5781V53H75.3535V47H76.3145V47.9961H76.3379C76.791 47.2383 77.4473 46.8594 78.3066 46.8594C78.9629 46.8594 79.4648 47.0723 79.8125 47.498C80.1602 47.9199 80.334 48.5312 80.334 49.332V53ZM41.8379 69H40.4902L37.8418 66.1172H37.8184V69H36.8574V60.1172H37.8184V65.748H37.8418L40.3613 63H41.6211L38.8379 65.8945L41.8379 69ZM47.6445 66.2402H43.4082C43.4238 66.9082 43.6035 67.4238 43.9473 67.7871C44.291 68.1504 44.7637 68.332 45.3652 68.332C46.041 68.332 46.6621 68.1094 47.2285 67.6641V68.5664C46.7012 68.9492 46.0039 69.1406 45.1367 69.1406C44.2891 69.1406 43.623 68.8691 43.1387 68.3262C42.6543 67.7793 42.4121 67.0117 42.4121 66.0234C42.4121 65.0898 42.6758 64.3301 43.2031 63.7441C43.7344 63.1543 44.3926 62.8594 45.1777 62.8594C45.9629 62.8594 46.5703 63.1133 47 63.6211C47.4297 64.1289 47.6445 64.834 47.6445 65.7363V66.2402ZM46.6602 65.4258C46.6562 64.8711 46.5215 64.4395 46.2559 64.1309C45.9941 63.8223 45.6289 63.668 45.1602 63.668C44.707 63.668 44.3223 63.8301 44.0059 64.1543C43.6895 64.4785 43.4941 64.9023 43.4199 65.4258H46.6602ZM49.5957 61.4766C49.4238 61.4766 49.2773 61.418 49.1562 61.3008C49.0352 61.1836 48.9746 61.0352 48.9746 60.8555C48.9746 60.6758 49.0352 60.5273 49.1562 60.4102C49.2773 60.2891 49.4238 60.2285 49.5957 60.2285C49.7715 60.2285 49.9199 60.2891 50.041 60.4102C50.166 60.5273 50.2285 60.6758 50.2285 60.8555C50.2285 61.0273 50.166 61.1738 50.041 61.2949C49.9199 61.416 49.7715 61.4766 49.5957 61.4766ZM50.0645 69H49.1035V63H50.0645V69ZM56.9902 69H56.0293V65.5781C56.0293 64.3047 55.5645 63.668 54.6348 63.668C54.1543 63.668 53.7559 63.8496 53.4395 64.2129C53.127 64.5723 52.9707 65.0273 52.9707 65.5781V69H52.0098V63H52.9707V63.9961H52.9941C53.4473 63.2383 54.1035 62.8594 54.9629 62.8594C55.6191 62.8594 56.1211 63.0723 56.4688 63.498C56.8164 63.9199 56.9902 64.5312 56.9902 65.332V69ZM63.6289 66.2402H59.3926C59.4082 66.9082 59.5879 67.4238 59.9316 67.7871C60.2754 68.1504 60.748 68.332 61.3496 68.332C62.0254 68.332 62.6465 68.1094 63.2129 67.6641V68.5664C62.6855 68.9492 61.9883 69.1406 61.1211 69.1406C60.2734 69.1406 59.6074 68.8691 59.123 68.3262C58.6387 67.7793 58.3965 67.0117 58.3965 66.0234C58.3965 65.0898 58.6602 64.3301 59.1875 63.7441C59.7188 63.1543 60.377 62.8594 61.1621 62.8594C61.9473 62.8594 62.5547 63.1133 62.9844 63.6211C63.4141 64.1289 63.6289 64.834 63.6289 65.7363V66.2402ZM62.6445 65.4258C62.6406 64.8711 62.5059 64.4395 62.2402 64.1309C61.9785 63.8223 61.6133 63.668 61.1445 63.668C60.6914 63.668 60.3066 63.8301 59.9902 64.1543C59.6738 64.4785 59.4785 64.9023 59.4043 65.4258H62.6445ZM24.0078 85V76.5977H26.3984C27.125 76.5977 27.7012 76.7754 28.127 77.1309C28.5527 77.4863 28.7656 77.9492 28.7656 78.5195C28.7656 78.9961 28.6367 79.4102 28.3789 79.7617C28.1211 80.1133 27.7656 80.3633 27.3125 80.5117V80.5352C27.8789 80.6016 28.332 80.8164 28.6719 81.1797C29.0117 81.5391 29.1816 82.0078 29.1816 82.5859C29.1816 83.3047 28.9238 83.8867 28.4082 84.332C27.8926 84.7773 27.2422 85 26.457 85H24.0078ZM24.9922 77.4883V80.2012H26C26.5391 80.2012 26.9629 80.0723 27.2715 79.8145C27.5801 79.5527 27.7344 79.1855 27.7344 78.7129C27.7344 77.8965 27.1973 77.4883 26.123 77.4883H24.9922ZM24.9922 81.0859V84.1094H26.3281C26.9062 84.1094 27.3535 83.9727 27.6699 83.6992C27.9902 83.4258 28.1504 83.0508 28.1504 82.5742C28.1504 81.582 27.4746 81.0859 26.123 81.0859H24.9922ZM31.7188 85H30.7578V76.1172H31.7188V85ZM36.1719 85.1406C35.2852 85.1406 34.5762 84.8613 34.0449 84.3027C33.5176 83.7402 33.2539 82.9961 33.2539 82.0703C33.2539 81.0625 33.5293 80.2754 34.0801 79.709C34.6309 79.1426 35.375 78.8594 36.3125 78.8594C37.207 78.8594 37.9043 79.1348 38.4043 79.6855C38.9082 80.2363 39.1602 81 39.1602 81.9766C39.1602 82.9336 38.8887 83.7012 38.3457 84.2793C37.8066 84.8535 37.082 85.1406 36.1719 85.1406ZM36.2422 79.668C35.625 79.668 35.1367 79.8789 34.7773 80.3008C34.418 80.7188 34.2383 81.2969 34.2383 82.0352C34.2383 82.7461 34.4199 83.3066 34.7832 83.7168C35.1465 84.127 35.6328 84.332 36.2422 84.332C36.8633 84.332 37.3398 84.1309 37.6719 83.7285C38.0078 83.3262 38.1758 82.7539 38.1758 82.0117C38.1758 81.2617 38.0078 80.6836 37.6719 80.2773C37.3398 79.8711 36.8633 79.668 36.2422 79.668ZM41.6797 84.1328H41.6562V85H40.6953V76.1172H41.6562V80.0547H41.6797C42.1523 79.2578 42.8438 78.8594 43.7539 78.8594C44.5234 78.8594 45.125 79.1289 45.5586 79.668C45.9961 80.2031 46.2148 80.9219 46.2148 81.8242C46.2148 82.8281 45.9707 83.6328 45.4824 84.2383C44.9941 84.8398 44.3262 85.1406 43.4785 85.1406C42.6855 85.1406 42.0859 84.8047 41.6797 84.1328ZM41.6562 81.7129V82.5508C41.6562 83.0469 41.8164 83.4688 42.1367 83.8164C42.4609 84.1602 42.8711 84.332 43.3672 84.332C43.9492 84.332 44.4043 84.1094 44.7324 83.6641C45.0645 83.2188 45.2305 82.5996 45.2305 81.8066C45.2305 81.1387 45.0762 80.6152 44.7676 80.2363C44.459 79.8574 44.041 79.668 43.5137 79.668C42.9551 79.668 42.5059 79.8633 42.166 80.2539C41.8262 80.6406 41.6562 81.127 41.6562 81.7129ZM52.8711 85H51.9102V83.9805H51.8867C51.4414 84.7539 50.7539 85.1406 49.8242 85.1406C49.0703 85.1406 48.4668 84.873 48.0137 84.3379C47.5645 83.7988 47.3398 83.0664 47.3398 82.1406C47.3398 81.1484 47.5898 80.3535 48.0898 79.7559C48.5898 79.1582 49.2559 78.8594 50.0879 78.8594C50.9121 78.8594 51.5117 79.1836 51.8867 79.832H51.9102V76.1172H52.8711V85ZM51.9102 82.2871V81.4023C51.9102 80.918 51.75 80.5078 51.4297 80.1719C51.1094 79.8359 50.7031 79.668 50.2109 79.668C49.625 79.668 49.1641 79.8828 48.8281 80.3125C48.4922 80.7422 48.3242 81.3359 48.3242 82.0938C48.3242 82.7852 48.4844 83.332 48.8047 83.7344C49.1289 84.1328 49.5625 84.332 50.1055 84.332C50.6406 84.332 51.0742 84.1387 51.4062 83.752C51.7422 83.3652 51.9102 82.877 51.9102 82.2871ZM59.1113 85H58.1504V84.0625H58.127C57.709 84.7812 57.0938 85.1406 56.2812 85.1406C55.6836 85.1406 55.2148 84.9824 54.875 84.666C54.5391 84.3496 54.3711 83.9297 54.3711 83.4062C54.3711 82.2852 55.0312 81.6328 56.3516 81.4492L58.1504 81.1973C58.1504 80.1777 57.7383 79.668 56.9141 79.668C56.1914 79.668 55.5391 79.9141 54.957 80.4062V79.4219C55.5469 79.0469 56.2266 78.8594 56.9961 78.8594C58.4062 78.8594 59.1113 79.6055 59.1113 81.0977V85ZM58.1504 81.9648L56.7031 82.1641C56.2578 82.2266 55.9219 82.3379 55.6953 82.498C55.4688 82.6543 55.3555 82.9336 55.3555 83.3359C55.3555 83.6289 55.459 83.8691 55.666 84.0566C55.877 84.2402 56.1562 84.332 56.5039 84.332C56.9805 84.332 57.373 84.166 57.6816 83.834C57.9941 83.498 58.1504 83.0742 58.1504 82.5625V81.9648ZM63.7051 84.9414C63.4785 85.0664 63.1797 85.1289 62.8086 85.1289C61.7578 85.1289 61.2324 84.543 61.2324 83.3711V79.8203H60.2012V79H61.2324V77.5352L62.1934 77.2246V79H63.7051V79.8203H62.1934V83.2012C62.1934 83.6035 62.2617 83.8906 62.3984 84.0625C62.5352 84.2344 62.7617 84.3203 63.0781 84.3203C63.3203 84.3203 63.5293 84.2539 63.7051 84.1211V84.9414ZM69.8105 82.2402H65.5742C65.5898 82.9082 65.7695 83.4238 66.1133 83.7871C66.457 84.1504 66.9297 84.332 67.5312 84.332C68.207 84.332 68.8281 84.1094 69.3945 83.6641V84.5664C68.8672 84.9492 68.1699 85.1406 67.3027 85.1406C66.4551 85.1406 65.7891 84.8691 65.3047 84.3262C64.8203 83.7793 64.5781 83.0117 64.5781 82.0234C64.5781 81.0898 64.8418 80.3301 65.3691 79.7441C65.9004 79.1543 66.5586 78.8594 67.3438 78.8594C68.1289 78.8594 68.7363 79.1133 69.166 79.6211C69.5957 80.1289 69.8105 80.834 69.8105 81.7363V82.2402ZM68.8262 81.4258C68.8223 80.8711 68.6875 80.4395 68.4219 80.1309C68.1602 79.8223 67.7949 79.668 67.3262 79.668C66.873 79.668 66.4883 79.8301 66.1719 80.1543C65.8555 80.4785 65.6602 80.9023 65.5859 81.4258H68.8262ZM76.25 85H75.2891V81.5781C75.2891 80.3047 74.8242 79.668 73.8945 79.668C73.4141 79.668 73.0156 79.8496 72.6992 80.2129C72.3867 80.5723 72.2305 81.0273 72.2305 81.5781V85H71.2695V79H72.2305V79.9961H72.2539C72.707 79.2383 73.3633 78.8594 74.2227 78.8594C74.8789 78.8594 75.3809 79.0723 75.7285 79.498C76.0762 79.9199 76.25 80.5312 76.25 81.332V85ZM38.252 101H37.291V92.1172H38.252V101ZM45.0195 98.2402H40.7832C40.7988 98.9082 40.9785 99.4238 41.3223 99.7871C41.666 100.15 42.1387 100.332 42.7402 100.332C43.416 100.332 44.0371 100.109 44.6035 99.6641V100.566C44.0762 100.949 43.3789 101.141 42.5117 101.141C41.6641 101.141 40.998 100.869 40.5137 100.326C40.0293 99.7793 39.7871 99.0117 39.7871 98.0234C39.7871 97.0898 40.0508 96.3301 40.5781 95.7441C41.1094 95.1543 41.7676 94.8594 42.5527 94.8594C43.3379 94.8594 43.9453 95.1133 44.375 95.6211C44.8047 96.1289 45.0195 96.834 45.0195 97.7363V98.2402ZM44.0352 97.4258C44.0312 96.8711 43.8965 96.4395 43.6309 96.1309C43.3691 95.8223 43.0039 95.668 42.5352 95.668C42.082 95.668 41.6973 95.8301 41.3809 96.1543C41.0645 96.4785 40.8691 96.9023 40.7949 97.4258H44.0352ZM46.1152 100.783V99.752C46.6387 100.139 47.2148 100.332 47.8438 100.332C48.6875 100.332 49.1094 100.051 49.1094 99.4883C49.1094 99.3281 49.0723 99.1934 48.998 99.084C48.9277 98.9707 48.8301 98.8711 48.7051 98.7852C48.584 98.6992 48.4395 98.623 48.2715 98.5566C48.1074 98.4863 47.9297 98.4141 47.7383 98.3398C47.4727 98.2344 47.2383 98.1289 47.0352 98.0234C46.8359 97.9141 46.668 97.793 46.5312 97.6602C46.3984 97.5234 46.2969 97.3691 46.2266 97.1973C46.1602 97.0254 46.127 96.8242 46.127 96.5938C46.127 96.3125 46.1914 96.0645 46.3203 95.8496C46.4492 95.6309 46.6211 95.4492 46.8359 95.3047C47.0508 95.1562 47.2949 95.0449 47.5684 94.9707C47.8457 94.8965 48.1309 94.8594 48.4238 94.8594C48.9434 94.8594 49.4082 94.9492 49.8184 95.1289V96.1016C49.377 95.8125 48.8691 95.668 48.2949 95.668C48.1152 95.668 47.9531 95.6895 47.8086 95.7324C47.6641 95.7715 47.5391 95.8281 47.4336 95.9023C47.332 95.9766 47.252 96.0664 47.1934 96.1719C47.1387 96.2734 47.1113 96.3867 47.1113 96.5117C47.1113 96.668 47.1387 96.7988 47.1934 96.9043C47.252 97.0098 47.3359 97.1035 47.4453 97.1855C47.5547 97.2676 47.6875 97.3418 47.8438 97.4082C48 97.4746 48.1777 97.5469 48.377 97.625C48.6426 97.7266 48.8809 97.832 49.0918 97.9414C49.3027 98.0469 49.4824 98.168 49.6309 98.3047C49.7793 98.4375 49.8926 98.5918 49.9707 98.7676C50.0527 98.9434 50.0938 99.1523 50.0938 99.3945C50.0938 99.6914 50.0273 99.9492 49.8945 100.168C49.7656 100.387 49.5918 100.568 49.373 100.713C49.1543 100.857 48.9023 100.965 48.6172 101.035C48.332 101.105 48.0332 101.141 47.7207 101.141C47.1035 101.141 46.5684 101.021 46.1152 100.783ZM56.3984 98.2402H52.1621C52.1777 98.9082 52.3574 99.4238 52.7012 99.7871C53.0449 100.15 53.5176 100.332 54.1191 100.332C54.7949 100.332 55.416 100.109 55.9824 99.6641V100.566C55.4551 100.949 54.7578 101.141 53.8906 101.141C53.043 101.141 52.377 100.869 51.8926 100.326C51.4082 99.7793 51.166 99.0117 51.166 98.0234C51.166 97.0898 51.4297 96.3301 51.957 95.7441C52.4883 95.1543 53.1465 94.8594 53.9316 94.8594C54.7168 94.8594 55.3242 95.1133 55.7539 95.6211C56.1836 96.1289 56.3984 96.834 56.3984 97.7363V98.2402ZM55.4141 97.4258C55.4102 96.8711 55.2754 96.4395 55.0098 96.1309C54.748 95.8223 54.3828 95.668 53.9141 95.668C53.4609 95.668 53.0762 95.8301 52.7598 96.1543C52.4434 96.4785 52.248 96.9023 52.1738 97.4258H55.4141ZM62.8379 101H61.877V97.5781C61.877 96.3047 61.4121 95.668 60.4824 95.668C60.002 95.668 59.6035 95.8496 59.2871 96.2129C58.9746 96.5723 58.8184 97.0273 58.8184 97.5781V101H57.8574V95H58.8184V95.9961H58.8418C59.2949 95.2383 59.9512 94.8594 60.8105 94.8594C61.4668 94.8594 61.9688 95.0723 62.3164 95.498C62.6641 95.9199 62.8379 96.5312 62.8379 97.332V101Z" fill="#020057"/>
</svg>
