<svg width="100%" viewBox="0 0 148 147" fill="none" xmlns="http://www.w3.org/2000/svg">
<g filter="url(#filter0_dd_3872_62949)">
<rect x="8" y="4" width="132" height="132" fill="#FBFBFE"/>
<rect x="8.5" y="4.5" width="131" height="131" stroke="#827DFF" stroke-dasharray="4 4"/>
<rect width="100" height="112" transform="translate(24 14)" fill="#FBFBFE"/>
<path d="M79.75 25C81.5449 25 83 26.4551 83 28.25V39.75C83 41.5449 81.5449 43 79.75 43H68.25C66.4551 43 65 41.5449 65 39.75V28.25C65 26.4551 66.4551 25 68.25 25H79.75ZM80.3305 41.4014L74.5247 35.7148C74.2596 35.4553 73.8501 35.4316 73.5588 35.644L73.4752 35.7148L67.6685 41.4011C67.8504 41.4651 68.0461 41.5 68.25 41.5H79.75C79.9535 41.5 80.1489 41.4653 80.3305 41.4014L74.5247 35.7148L80.3305 41.4014ZM79.75 26.5H68.25C67.2835 26.5 66.5 27.2835 66.5 28.25V39.75C66.5 39.9584 66.5364 40.1583 66.6033 40.3437L72.4258 34.643C73.2589 33.8273 74.5675 33.7885 75.4458 34.5266L75.5742 34.6431L81.3964 40.3447C81.4634 40.159 81.5 39.9588 81.5 39.75V28.25C81.5 27.2835 80.7165 26.5 79.75 26.5ZM77.2521 28.5C78.4959 28.5 79.5042 29.5083 79.5042 30.7521C79.5042 31.9959 78.4959 33.0042 77.2521 33.0042C76.0083 33.0042 75 31.9959 75 30.7521C75 29.5083 76.0083 28.5 77.2521 28.5ZM77.2521 30C76.8367 30 76.5 30.3367 76.5 30.7521C76.5 31.1675 76.8367 31.5042 77.2521 31.5042C77.6675 31.5042 78.0042 31.1675 78.0042 30.7521C78.0042 30.3367 77.6675 30 77.2521 30Z" fill="#020057"/>
<path d="M49.6426 66.6484C49.0215 66.9766 48.248 67.1406 47.3223 67.1406C46.127 67.1406 45.1699 66.7559 44.4512 65.9863C43.7324 65.2168 43.373 64.207 43.373 62.957C43.373 61.6133 43.7773 60.5273 44.5859 59.6992C45.3945 58.8711 46.4199 58.457 47.6621 58.457C48.459 58.457 49.1191 58.5723 49.6426 58.8027V59.8516C49.041 59.5156 48.377 59.3477 47.6504 59.3477C46.6855 59.3477 45.9023 59.6699 45.3008 60.3145C44.7031 60.959 44.4043 61.8203 44.4043 62.8984C44.4043 63.9219 44.6836 64.7383 45.2422 65.3477C45.8047 65.9531 46.541 66.2559 47.4512 66.2559C48.2949 66.2559 49.0254 66.0684 49.6426 65.6934V66.6484ZM52.1855 67H51.2246V58.1172H52.1855V67ZM58.4258 67H57.4648V66.0625H57.4414C57.0234 66.7812 56.4082 67.1406 55.5957 67.1406C54.998 67.1406 54.5293 66.9824 54.1895 66.666C53.8535 66.3496 53.6855 65.9297 53.6855 65.4062C53.6855 64.2852 54.3457 63.6328 55.666 63.4492L57.4648 63.1973C57.4648 62.1777 57.0527 61.668 56.2285 61.668C55.5059 61.668 54.8535 61.9141 54.2715 62.4062V61.4219C54.8613 61.0469 55.541 60.8594 56.3105 60.8594C57.7207 60.8594 58.4258 61.6055 58.4258 63.0977V67ZM57.4648 63.9648L56.0176 64.1641C55.5723 64.2266 55.2363 64.3379 55.0098 64.498C54.7832 64.6543 54.6699 64.9336 54.6699 65.3359C54.6699 65.6289 54.7734 65.8691 54.9805 66.0566C55.1914 66.2402 55.4707 66.332 55.8184 66.332C56.2949 66.332 56.6875 66.166 56.9961 65.834C57.3086 65.498 57.4648 65.0742 57.4648 64.5625V63.9648ZM63.3652 61.9727C63.1973 61.8438 62.9551 61.7793 62.6387 61.7793C62.2285 61.7793 61.8848 61.9727 61.6074 62.3594C61.334 62.7461 61.1973 63.2734 61.1973 63.9414V67H60.2363V61H61.1973V62.2363H61.2207C61.3574 61.8145 61.5664 61.4863 61.8477 61.252C62.1289 61.0137 62.4434 60.8945 62.791 60.8945C63.041 60.8945 63.2324 60.9219 63.3652 60.9766V61.9727ZM64.9004 59.4766C64.7285 59.4766 64.582 59.418 64.4609 59.3008C64.3398 59.1836 64.2793 59.0352 64.2793 58.8555C64.2793 58.6758 64.3398 58.5273 64.4609 58.4102C64.582 58.2891 64.7285 58.2285 64.9004 58.2285C65.0762 58.2285 65.2246 58.2891 65.3457 58.4102C65.4707 58.5273 65.5332 58.6758 65.5332 58.8555C65.5332 59.0273 65.4707 59.1738 65.3457 59.2949C65.2246 59.416 65.0762 59.4766 64.9004 59.4766ZM65.3691 67H64.4082V61H65.3691V67ZM70.0977 66.9414C69.8711 67.0664 69.5723 67.1289 69.2012 67.1289C68.1504 67.1289 67.625 66.543 67.625 65.3711V61.8203H66.5938V61H67.625V59.5352L68.5859 59.2246V61H70.0977V61.8203H68.5859V65.2012C68.5859 65.6035 68.6543 65.8906 68.791 66.0625C68.9277 66.2344 69.1543 66.3203 69.4707 66.3203C69.7129 66.3203 69.9219 66.2539 70.0977 66.1211V66.9414ZM76.1562 61L73.3965 67.9609C72.9043 69.2031 72.2129 69.8242 71.3223 69.8242C71.0723 69.8242 70.8633 69.7988 70.6953 69.748V68.8867C70.9023 68.957 71.0918 68.9922 71.2637 68.9922C71.748 68.9922 72.1113 68.7031 72.3535 68.125L72.834 66.9883L70.4902 61H71.5566L73.1797 65.6172C73.1992 65.6758 73.2402 65.8281 73.3027 66.0742H73.3379C73.3574 65.9805 73.3965 65.832 73.4551 65.6289L75.1602 61H76.1562ZM85.4668 67H84.1191L81.4707 64.1172H81.4473V67H80.4863V58.1172H81.4473V63.748H81.4707L83.9902 61H85.25L82.4668 63.8945L85.4668 67ZM90.7461 67H89.7852V66.0625H89.7617C89.3438 66.7812 88.7285 67.1406 87.916 67.1406C87.3184 67.1406 86.8496 66.9824 86.5098 66.666C86.1738 66.3496 86.0059 65.9297 86.0059 65.4062C86.0059 64.2852 86.666 63.6328 87.9863 63.4492L89.7852 63.1973C89.7852 62.1777 89.373 61.668 88.5488 61.668C87.8262 61.668 87.1738 61.9141 86.5918 62.4062V61.4219C87.1816 61.0469 87.8613 60.8594 88.6309 60.8594C90.041 60.8594 90.7461 61.6055 90.7461 63.0977V67ZM89.7852 63.9648L88.3379 64.1641C87.8926 64.2266 87.5566 64.3379 87.3301 64.498C87.1035 64.6543 86.9902 64.9336 86.9902 65.3359C86.9902 65.6289 87.0938 65.8691 87.3008 66.0566C87.5117 66.2402 87.791 66.332 88.1387 66.332C88.6152 66.332 89.0078 66.166 89.3164 65.834C89.6289 65.498 89.7852 65.0742 89.7852 64.5625V63.9648ZM97.5371 67H96.5762V63.5781C96.5762 62.3047 96.1113 61.668 95.1816 61.668C94.7012 61.668 94.3027 61.8496 93.9863 62.2129C93.6738 62.5723 93.5176 63.0273 93.5176 63.5781V67H92.5566V61H93.5176V61.9961H93.541C93.9941 61.2383 94.6504 60.8594 95.5098 60.8594C96.166 60.8594 96.668 61.0723 97.0156 61.498C97.3633 61.9199 97.5371 62.5312 97.5371 63.332V67ZM104.334 67H103.373V63.5781C103.373 62.3047 102.908 61.668 101.979 61.668C101.498 61.668 101.1 61.8496 100.783 62.2129C100.471 62.5723 100.314 63.0273 100.314 63.5781V67H99.3535V61H100.314V61.9961H100.338C100.791 61.2383 101.447 60.8594 102.307 60.8594C102.963 60.8594 103.465 61.0723 103.812 61.498C104.16 61.9199 104.334 62.5312 104.334 63.332V67ZM65.8379 83H64.4902L61.8418 80.1172H61.8184V83H60.8574V74.1172H61.8184V79.748H61.8418L64.3613 77H65.6211L62.8379 79.8945L65.8379 83ZM71.6445 80.2402H67.4082C67.4238 80.9082 67.6035 81.4238 67.9473 81.7871C68.291 82.1504 68.7637 82.332 69.3652 82.332C70.041 82.332 70.6621 82.1094 71.2285 81.6641V82.5664C70.7012 82.9492 70.0039 83.1406 69.1367 83.1406C68.2891 83.1406 67.623 82.8691 67.1387 82.3262C66.6543 81.7793 66.4121 81.0117 66.4121 80.0234C66.4121 79.0898 66.6758 78.3301 67.2031 77.7441C67.7344 77.1543 68.3926 76.8594 69.1777 76.8594C69.9629 76.8594 70.5703 77.1133 71 77.6211C71.4297 78.1289 71.6445 78.834 71.6445 79.7363V80.2402ZM70.6602 79.4258C70.6562 78.8711 70.5215 78.4395 70.2559 78.1309C69.9941 77.8223 69.6289 77.668 69.1602 77.668C68.707 77.668 68.3223 77.8301 68.0059 78.1543C67.6895 78.4785 67.4941 78.9023 67.4199 79.4258H70.6602ZM73.5957 75.4766C73.4238 75.4766 73.2773 75.418 73.1562 75.3008C73.0352 75.1836 72.9746 75.0352 72.9746 74.8555C72.9746 74.6758 73.0352 74.5273 73.1562 74.4102C73.2773 74.2891 73.4238 74.2285 73.5957 74.2285C73.7715 74.2285 73.9199 74.2891 74.041 74.4102C74.166 74.5273 74.2285 74.6758 74.2285 74.8555C74.2285 75.0273 74.166 75.1738 74.041 75.2949C73.9199 75.416 73.7715 75.4766 73.5957 75.4766ZM74.0645 83H73.1035V77H74.0645V83ZM80.9902 83H80.0293V79.5781C80.0293 78.3047 79.5645 77.668 78.6348 77.668C78.1543 77.668 77.7559 77.8496 77.4395 78.2129C77.127 78.5723 76.9707 79.0273 76.9707 79.5781V83H76.0098V77H76.9707V77.9961H76.9941C77.4473 77.2383 78.1035 76.8594 78.9629 76.8594C79.6191 76.8594 80.1211 77.0723 80.4688 77.498C80.8164 77.9199 80.9902 78.5312 80.9902 79.332V83ZM87.6289 80.2402H83.3926C83.4082 80.9082 83.5879 81.4238 83.9316 81.7871C84.2754 82.1504 84.748 82.332 85.3496 82.332C86.0254 82.332 86.6465 82.1094 87.2129 81.6641V82.5664C86.6855 82.9492 85.9883 83.1406 85.1211 83.1406C84.2734 83.1406 83.6074 82.8691 83.123 82.3262C82.6387 81.7793 82.3965 81.0117 82.3965 80.0234C82.3965 79.0898 82.6602 78.3301 83.1875 77.7441C83.7188 77.1543 84.377 76.8594 85.1621 76.8594C85.9473 76.8594 86.5547 77.1133 86.9844 77.6211C87.4141 78.1289 87.6289 78.834 87.6289 79.7363V80.2402ZM86.6445 79.4258C86.6406 78.8711 86.5059 78.4395 86.2402 78.1309C85.9785 77.8223 85.6133 77.668 85.1445 77.668C84.6914 77.668 84.3066 77.8301 83.9902 78.1543C83.6738 78.4785 83.4785 78.9023 83.4043 79.4258H86.6445ZM48.0078 99V90.5977H50.3984C51.125 90.5977 51.7012 90.7754 52.127 91.1309C52.5527 91.4863 52.7656 91.9492 52.7656 92.5195C52.7656 92.9961 52.6367 93.4102 52.3789 93.7617C52.1211 94.1133 51.7656 94.3633 51.3125 94.5117V94.5352C51.8789 94.6016 52.332 94.8164 52.6719 95.1797C53.0117 95.5391 53.1816 96.0078 53.1816 96.5859C53.1816 97.3047 52.9238 97.8867 52.4082 98.332C51.8926 98.7773 51.2422 99 50.457 99H48.0078ZM48.9922 91.4883V94.2012H50C50.5391 94.2012 50.9629 94.0723 51.2715 93.8145C51.5801 93.5527 51.7344 93.1855 51.7344 92.7129C51.7344 91.8965 51.1973 91.4883 50.123 91.4883H48.9922ZM48.9922 95.0859V98.1094H50.3281C50.9062 98.1094 51.3535 97.9727 51.6699 97.6992C51.9902 97.4258 52.1504 97.0508 52.1504 96.5742C52.1504 95.582 51.4746 95.0859 50.123 95.0859H48.9922ZM55.7188 99H54.7578V90.1172H55.7188V99ZM60.1719 99.1406C59.2852 99.1406 58.5762 98.8613 58.0449 98.3027C57.5176 97.7402 57.2539 96.9961 57.2539 96.0703C57.2539 95.0625 57.5293 94.2754 58.0801 93.709C58.6309 93.1426 59.375 92.8594 60.3125 92.8594C61.207 92.8594 61.9043 93.1348 62.4043 93.6855C62.9082 94.2363 63.1602 95 63.1602 95.9766C63.1602 96.9336 62.8887 97.7012 62.3457 98.2793C61.8066 98.8535 61.082 99.1406 60.1719 99.1406ZM60.2422 93.668C59.625 93.668 59.1367 93.8789 58.7773 94.3008C58.418 94.7188 58.2383 95.2969 58.2383 96.0352C58.2383 96.7461 58.4199 97.3066 58.7832 97.7168C59.1465 98.127 59.6328 98.332 60.2422 98.332C60.8633 98.332 61.3398 98.1309 61.6719 97.7285C62.0078 97.3262 62.1758 96.7539 62.1758 96.0117C62.1758 95.2617 62.0078 94.6836 61.6719 94.2773C61.3398 93.8711 60.8633 93.668 60.2422 93.668ZM65.6797 98.1328H65.6562V99H64.6953V90.1172H65.6562V94.0547H65.6797C66.1523 93.2578 66.8438 92.8594 67.7539 92.8594C68.5234 92.8594 69.125 93.1289 69.5586 93.668C69.9961 94.2031 70.2148 94.9219 70.2148 95.8242C70.2148 96.8281 69.9707 97.6328 69.4824 98.2383C68.9941 98.8398 68.3262 99.1406 67.4785 99.1406C66.6855 99.1406 66.0859 98.8047 65.6797 98.1328ZM65.6562 95.7129V96.5508C65.6562 97.0469 65.8164 97.4688 66.1367 97.8164C66.4609 98.1602 66.8711 98.332 67.3672 98.332C67.9492 98.332 68.4043 98.1094 68.7324 97.6641C69.0645 97.2188 69.2305 96.5996 69.2305 95.8066C69.2305 95.1387 69.0762 94.6152 68.7676 94.2363C68.459 93.8574 68.041 93.668 67.5137 93.668C66.9551 93.668 66.5059 93.8633 66.166 94.2539C65.8262 94.6406 65.6562 95.127 65.6562 95.7129ZM76.8711 99H75.9102V97.9805H75.8867C75.4414 98.7539 74.7539 99.1406 73.8242 99.1406C73.0703 99.1406 72.4668 98.873 72.0137 98.3379C71.5645 97.7988 71.3398 97.0664 71.3398 96.1406C71.3398 95.1484 71.5898 94.3535 72.0898 93.7559C72.5898 93.1582 73.2559 92.8594 74.0879 92.8594C74.9121 92.8594 75.5117 93.1836 75.8867 93.832H75.9102V90.1172H76.8711V99ZM75.9102 96.2871V95.4023C75.9102 94.918 75.75 94.5078 75.4297 94.1719C75.1094 93.8359 74.7031 93.668 74.2109 93.668C73.625 93.668 73.1641 93.8828 72.8281 94.3125C72.4922 94.7422 72.3242 95.3359 72.3242 96.0938C72.3242 96.7852 72.4844 97.332 72.8047 97.7344C73.1289 98.1328 73.5625 98.332 74.1055 98.332C74.6406 98.332 75.0742 98.1387 75.4062 97.752C75.7422 97.3652 75.9102 96.877 75.9102 96.2871ZM83.1113 99H82.1504V98.0625H82.127C81.709 98.7812 81.0938 99.1406 80.2812 99.1406C79.6836 99.1406 79.2148 98.9824 78.875 98.666C78.5391 98.3496 78.3711 97.9297 78.3711 97.4062C78.3711 96.2852 79.0312 95.6328 80.3516 95.4492L82.1504 95.1973C82.1504 94.1777 81.7383 93.668 80.9141 93.668C80.1914 93.668 79.5391 93.9141 78.957 94.4062V93.4219C79.5469 93.0469 80.2266 92.8594 80.9961 92.8594C82.4062 92.8594 83.1113 93.6055 83.1113 95.0977V99ZM82.1504 95.9648L80.7031 96.1641C80.2578 96.2266 79.9219 96.3379 79.6953 96.498C79.4688 96.6543 79.3555 96.9336 79.3555 97.3359C79.3555 97.6289 79.459 97.8691 79.666 98.0566C79.877 98.2402 80.1562 98.332 80.5039 98.332C80.9805 98.332 81.373 98.166 81.6816 97.834C81.9941 97.498 82.1504 97.0742 82.1504 96.5625V95.9648ZM87.7051 98.9414C87.4785 99.0664 87.1797 99.1289 86.8086 99.1289C85.7578 99.1289 85.2324 98.543 85.2324 97.3711V93.8203H84.2012V93H85.2324V91.5352L86.1934 91.2246V93H87.7051V93.8203H86.1934V97.2012C86.1934 97.6035 86.2617 97.8906 86.3984 98.0625C86.5352 98.2344 86.7617 98.3203 87.0781 98.3203C87.3203 98.3203 87.5293 98.2539 87.7051 98.1211V98.9414ZM93.8105 96.2402H89.5742C89.5898 96.9082 89.7695 97.4238 90.1133 97.7871C90.457 98.1504 90.9297 98.332 91.5312 98.332C92.207 98.332 92.8281 98.1094 93.3945 97.6641V98.5664C92.8672 98.9492 92.1699 99.1406 91.3027 99.1406C90.4551 99.1406 89.7891 98.8691 89.3047 98.3262C88.8203 97.7793 88.5781 97.0117 88.5781 96.0234C88.5781 95.0898 88.8418 94.3301 89.3691 93.7441C89.9004 93.1543 90.5586 92.8594 91.3438 92.8594C92.1289 92.8594 92.7363 93.1133 93.166 93.6211C93.5957 94.1289 93.8105 94.834 93.8105 95.7363V96.2402ZM92.8262 95.4258C92.8223 94.8711 92.6875 94.4395 92.4219 94.1309C92.1602 93.8223 91.7949 93.668 91.3262 93.668C90.873 93.668 90.4883 93.8301 90.1719 94.1543C89.8555 94.4785 89.6602 94.9023 89.5859 95.4258H92.8262ZM100.25 99H99.2891V95.5781C99.2891 94.3047 98.8242 93.668 97.8945 93.668C97.4141 93.668 97.0156 93.8496 96.6992 94.2129C96.3867 94.5723 96.2305 95.0273 96.2305 95.5781V99H95.2695V93H96.2305V93.9961H96.2539C96.707 93.2383 97.3633 92.8594 98.2227 92.8594C98.8789 92.8594 99.3809 93.0723 99.7285 93.498C100.076 93.9199 100.25 94.5312 100.25 95.332V99ZM62.252 115H61.291V106.117H62.252V115ZM69.0195 112.24H64.7832C64.7988 112.908 64.9785 113.424 65.3223 113.787C65.666 114.15 66.1387 114.332 66.7402 114.332C67.416 114.332 68.0371 114.109 68.6035 113.664V114.566C68.0762 114.949 67.3789 115.141 66.5117 115.141C65.6641 115.141 64.998 114.869 64.5137 114.326C64.0293 113.779 63.7871 113.012 63.7871 112.023C63.7871 111.09 64.0508 110.33 64.5781 109.744C65.1094 109.154 65.7676 108.859 66.5527 108.859C67.3379 108.859 67.9453 109.113 68.375 109.621C68.8047 110.129 69.0195 110.834 69.0195 111.736V112.24ZM68.0352 111.426C68.0312 110.871 67.8965 110.439 67.6309 110.131C67.3691 109.822 67.0039 109.668 66.5352 109.668C66.082 109.668 65.6973 109.83 65.3809 110.154C65.0645 110.479 64.8691 110.902 64.7949 111.426H68.0352ZM70.1152 114.783V113.752C70.6387 114.139 71.2148 114.332 71.8438 114.332C72.6875 114.332 73.1094 114.051 73.1094 113.488C73.1094 113.328 73.0723 113.193 72.998 113.084C72.9277 112.971 72.8301 112.871 72.7051 112.785C72.584 112.699 72.4395 112.623 72.2715 112.557C72.1074 112.486 71.9297 112.414 71.7383 112.34C71.4727 112.234 71.2383 112.129 71.0352 112.023C70.8359 111.914 70.668 111.793 70.5312 111.66C70.3984 111.523 70.2969 111.369 70.2266 111.197C70.1602 111.025 70.127 110.824 70.127 110.594C70.127 110.312 70.1914 110.064 70.3203 109.85C70.4492 109.631 70.6211 109.449 70.8359 109.305C71.0508 109.156 71.2949 109.045 71.5684 108.971C71.8457 108.896 72.1309 108.859 72.4238 108.859C72.9434 108.859 73.4082 108.949 73.8184 109.129V110.102C73.377 109.812 72.8691 109.668 72.2949 109.668C72.1152 109.668 71.9531 109.689 71.8086 109.732C71.6641 109.771 71.5391 109.828 71.4336 109.902C71.332 109.977 71.252 110.066 71.1934 110.172C71.1387 110.273 71.1113 110.387 71.1113 110.512C71.1113 110.668 71.1387 110.799 71.1934 110.904C71.252 111.01 71.3359 111.104 71.4453 111.186C71.5547 111.268 71.6875 111.342 71.8438 111.408C72 111.475 72.1777 111.547 72.377 111.625C72.6426 111.727 72.8809 111.832 73.0918 111.941C73.3027 112.047 73.4824 112.168 73.6309 112.305C73.7793 112.438 73.8926 112.592 73.9707 112.768C74.0527 112.943 74.0938 113.152 74.0938 113.395C74.0938 113.691 74.0273 113.949 73.8945 114.168C73.7656 114.387 73.5918 114.568 73.373 114.713C73.1543 114.857 72.9023 114.965 72.6172 115.035C72.332 115.105 72.0332 115.141 71.7207 115.141C71.1035 115.141 70.5684 115.021 70.1152 114.783ZM80.3984 112.24H76.1621C76.1777 112.908 76.3574 113.424 76.7012 113.787C77.0449 114.15 77.5176 114.332 78.1191 114.332C78.7949 114.332 79.416 114.109 79.9824 113.664V114.566C79.4551 114.949 78.7578 115.141 77.8906 115.141C77.043 115.141 76.377 114.869 75.8926 114.326C75.4082 113.779 75.166 113.012 75.166 112.023C75.166 111.09 75.4297 110.33 75.957 109.744C76.4883 109.154 77.1465 108.859 77.9316 108.859C78.7168 108.859 79.3242 109.113 79.7539 109.621C80.1836 110.129 80.3984 110.834 80.3984 111.736V112.24ZM79.4141 111.426C79.4102 110.871 79.2754 110.439 79.0098 110.131C78.748 109.822 78.3828 109.668 77.9141 109.668C77.4609 109.668 77.0762 109.83 76.7598 110.154C76.4434 110.479 76.248 110.902 76.1738 111.426H79.4141ZM86.8379 115H85.877V111.578C85.877 110.305 85.4121 109.668 84.4824 109.668C84.002 109.668 83.6035 109.85 83.2871 110.213C82.9746 110.572 82.8184 111.027 82.8184 111.578V115H81.8574V109H82.8184V109.996H82.8418C83.2949 109.238 83.9512 108.859 84.8105 108.859C85.4668 108.859 85.9688 109.072 86.3164 109.498C86.6641 109.92 86.8379 110.531 86.8379 111.332V115Z" fill="#020057"/>
</g>
<defs>
<filter id="filter0_dd_3872_62949" x="0.8" y="2.38419e-07" width="146.4" height="146.4" filterUnits="userSpaceOnUse" color-interpolation-filters="sRGB">
<feFlood flood-opacity="0" result="BackgroundImageFix"/>
<feColorMatrix in="SourceAlpha" type="matrix" values="0 0 0 0 0 0 0 0 0 0 0 0 0 0 0 0 0 0 127 0" result="hardAlpha"/>
<feOffset dy="3.2"/>
<feGaussianBlur stdDeviation="3.6"/>
<feColorMatrix type="matrix" values="0 0 0 0 0.513726 0 0 0 0 0.494118 0 0 0 0 1 0 0 0 0.12 0"/>
<feBlend mode="normal" in2="BackgroundImageFix" result="effect1_dropShadow_3872_62949"/>
<feColorMatrix in="SourceAlpha" type="matrix" values="0 0 0 0 0 0 0 0 0 0 0 0 0 0 0 0 0 0 127 0" result="hardAlpha"/>
<feOffset dy="0.6"/>
<feGaussianBlur stdDeviation="0.9"/>
<feColorMatrix type="matrix" values="0 0 0 0 0.513726 0 0 0 0 0.494118 0 0 0 0 1 0 0 0 0.1 0"/>
<feBlend mode="normal" in2="effect1_dropShadow_3872_62949" result="effect2_dropShadow_3872_62949"/>
<feBlend mode="normal" in="SourceGraphic" in2="effect2_dropShadow_3872_62949" result="shape"/>
</filter>
</defs>
</svg>
