<svg width="100%" viewBox="0 0 40 40" fill="none" xmlns="http://www.w3.org/2000/svg">
<rect width="40" height="40" fill="#FBFBFE"/>
<path d="M25.75 11C27.5449 11 29 12.4551 29 14.25V25.75C29 27.5449 27.5449 29 25.75 29H14.25C12.4551 29 11 27.5449 11 25.75V14.25C11 12.4551 12.4551 11 14.25 11H25.75ZM26.3305 27.4014L20.5247 21.7148C20.2596 21.4553 19.8501 21.4316 19.5588 21.644L19.4752 21.7148L13.6685 27.4011C13.8504 27.4651 14.0461 27.5 14.25 27.5H25.75C25.9535 27.5 26.1489 27.4653 26.3305 27.4014L20.5247 21.7148L26.3305 27.4014ZM25.75 12.5H14.25C13.2835 12.5 12.5 13.2835 12.5 14.25V25.75C12.5 25.9584 12.5364 26.1583 12.6033 26.3437L18.4258 20.643C19.2589 19.8273 20.5675 19.7885 21.4458 20.5266L21.5742 20.6431L27.3964 26.3447C27.4634 26.159 27.5 25.9588 27.5 25.75V14.25C27.5 13.2835 26.7165 12.5 25.75 12.5ZM23.2521 14.5C24.4959 14.5 25.5042 15.5083 25.5042 16.7521C25.5042 17.9959 24.4959 19.0042 23.2521 19.0042C22.0083 19.0042 21 17.9959 21 16.7521C21 15.5083 22.0083 14.5 23.2521 14.5ZM23.2521 16C22.8367 16 22.5 16.3367 22.5 16.7521C22.5 17.1675 22.8367 17.5042 23.2521 17.5042C23.6675 17.5042 24.0042 17.1675 24.0042 16.7521C24.0042 16.3367 23.6675 16 23.2521 16Z" fill="#020057"/>
</svg>
