<svg width="100%" viewBox="0 0 100 96" fill="none" xmlns="http://www.w3.org/2000/svg">
<rect width="100" height="96" fill="#FBFBFE"/>
<path d="M55.75 11C57.5449 11 59 12.4551 59 14.25V25.75C59 27.5449 57.5449 29 55.75 29H44.25C42.4551 29 41 27.5449 41 25.75V14.25C41 12.4551 42.4551 11 44.25 11H55.75ZM56.3305 27.4014L50.5247 21.7148C50.2596 21.4553 49.8501 21.4316 49.5588 21.644L49.4752 21.7148L43.6685 27.4011C43.8504 27.4651 44.0461 27.5 44.25 27.5H55.75C55.9535 27.5 56.1489 27.4653 56.3305 27.4014L50.5247 21.7148L56.3305 27.4014ZM55.75 12.5H44.25C43.2835 12.5 42.5 13.2835 42.5 14.25V25.75C42.5 25.9584 42.5364 26.1583 42.6033 26.3437L48.4258 20.643C49.2589 19.8273 50.5675 19.7885 51.4458 20.5266L51.5742 20.6431L57.3964 26.3447C57.4634 26.159 57.5 25.9588 57.5 25.75V14.25C57.5 13.2835 56.7165 12.5 55.75 12.5ZM53.2521 14.5C54.4959 14.5 55.5042 15.5083 55.5042 16.7521C55.5042 17.9959 54.4959 19.0042 53.2521 19.0042C52.0083 19.0042 51 17.9959 51 16.7521C51 15.5083 52.0083 14.5 53.2521 14.5ZM53.2521 16C52.8367 16 52.5 16.3367 52.5 16.7521C52.5 17.1675 52.8367 17.5042 53.2521 17.5042C53.6675 17.5042 54.0042 17.1675 54.0042 16.7521C54.0042 16.3367 53.6675 16 53.2521 16Z" fill="#020057"/>
<path d="M16.0742 52.6484C15.4531 52.9766 14.6797 53.1406 13.7539 53.1406C12.5586 53.1406 11.6016 52.7559 10.8828 51.9863C10.1641 51.2168 9.80469 50.207 9.80469 48.957C9.80469 47.6133 10.209 46.5273 11.0176 45.6992C11.8262 44.8711 12.8516 44.457 14.0938 44.457C14.8906 44.457 15.5508 44.5723 16.0742 44.8027V45.8516C15.4727 45.5156 14.8086 45.3477 14.082 45.3477C13.1172 45.3477 12.334 45.6699 11.7324 46.3145C11.1348 46.959 10.8359 47.8203 10.8359 48.8984C10.8359 49.9219 11.1152 50.7383 11.6738 51.3477C12.2363 51.9531 12.9727 52.2559 13.8828 52.2559C14.7266 52.2559 15.457 52.0684 16.0742 51.6934V52.6484ZM18.6172 53H17.6562V44.1172H18.6172V53ZM24.8574 53H23.8965V52.0625H23.873C23.4551 52.7812 22.8398 53.1406 22.0273 53.1406C21.4297 53.1406 20.9609 52.9824 20.6211 52.666C20.2852 52.3496 20.1172 51.9297 20.1172 51.4062C20.1172 50.2852 20.7773 49.6328 22.0977 49.4492L23.8965 49.1973C23.8965 48.1777 23.4844 47.668 22.6602 47.668C21.9375 47.668 21.2852 47.9141 20.7031 48.4062V47.4219C21.293 47.0469 21.9727 46.8594 22.7422 46.8594C24.1523 46.8594 24.8574 47.6055 24.8574 49.0977V53ZM23.8965 49.9648L22.4492 50.1641C22.0039 50.2266 21.668 50.3379 21.4414 50.498C21.2148 50.6543 21.1016 50.9336 21.1016 51.3359C21.1016 51.6289 21.2051 51.8691 21.4121 52.0566C21.623 52.2402 21.9023 52.332 22.25 52.332C22.7266 52.332 23.1191 52.166 23.4277 51.834C23.7402 51.498 23.8965 51.0742 23.8965 50.5625V49.9648ZM29.7969 47.9727C29.6289 47.8438 29.3867 47.7793 29.0703 47.7793C28.6602 47.7793 28.3164 47.9727 28.0391 48.3594C27.7656 48.7461 27.6289 49.2734 27.6289 49.9414V53H26.668V47H27.6289V48.2363H27.6523C27.7891 47.8145 27.998 47.4863 28.2793 47.252C28.5605 47.0137 28.875 46.8945 29.2227 46.8945C29.4727 46.8945 29.6641 46.9219 29.7969 46.9766V47.9727ZM31.332 45.4766C31.1602 45.4766 31.0137 45.418 30.8926 45.3008C30.7715 45.1836 30.7109 45.0352 30.7109 44.8555C30.7109 44.6758 30.7715 44.5273 30.8926 44.4102C31.0137 44.2891 31.1602 44.2285 31.332 44.2285C31.5078 44.2285 31.6562 44.2891 31.7773 44.4102C31.9023 44.5273 31.9648 44.6758 31.9648 44.8555C31.9648 45.0273 31.9023 45.1738 31.7773 45.2949C31.6562 45.416 31.5078 45.4766 31.332 45.4766ZM31.8008 53H30.8398V47H31.8008V53ZM36.5293 52.9414C36.3027 53.0664 36.0039 53.1289 35.6328 53.1289C34.582 53.1289 34.0566 52.543 34.0566 51.3711V47.8203H33.0254V47H34.0566V45.5352L35.0176 45.2246V47H36.5293V47.8203H35.0176V51.2012C35.0176 51.6035 35.0859 51.8906 35.2227 52.0625C35.3594 52.2344 35.5859 52.3203 35.9023 52.3203C36.1445 52.3203 36.3535 52.2539 36.5293 52.1211V52.9414ZM42.5879 47L39.8281 53.9609C39.3359 55.2031 38.6445 55.8242 37.7539 55.8242C37.5039 55.8242 37.2949 55.7988 37.127 55.748V54.8867C37.334 54.957 37.5234 54.9922 37.6953 54.9922C38.1797 54.9922 38.543 54.7031 38.7852 54.125L39.2656 52.9883L36.9219 47H37.9883L39.6113 51.6172C39.6309 51.6758 39.6719 51.8281 39.7344 52.0742H39.7695C39.7891 51.9805 39.8281 51.832 39.8867 51.6289L41.5918 47H42.5879ZM51.8984 53H50.9375V49.5781C50.9375 48.3047 50.4727 47.668 49.543 47.668C49.0625 47.668 48.6641 47.8496 48.3477 48.2129C48.0352 48.5723 47.8789 49.0273 47.8789 49.5781V53H46.918V47H47.8789V47.9961H47.9023C48.3555 47.2383 49.0117 46.8594 49.8711 46.8594C50.5273 46.8594 51.0293 47.0723 51.377 47.498C51.7246 47.9199 51.8984 48.5312 51.8984 49.332V53ZM56.2227 53.1406C55.3359 53.1406 54.627 52.8613 54.0957 52.3027C53.5684 51.7402 53.3047 50.9961 53.3047 50.0703C53.3047 49.0625 53.5801 48.2754 54.1309 47.709C54.6816 47.1426 55.4258 46.8594 56.3633 46.8594C57.2578 46.8594 57.9551 47.1348 58.4551 47.6855C58.959 48.2363 59.2109 49 59.2109 49.9766C59.2109 50.9336 58.9395 51.7012 58.3965 52.2793C57.8574 52.8535 57.1328 53.1406 56.2227 53.1406ZM56.293 47.668C55.6758 47.668 55.1875 47.8789 54.8281 48.3008C54.4688 48.7188 54.2891 49.2969 54.2891 50.0352C54.2891 50.7461 54.4707 51.3066 54.834 51.7168C55.1973 52.127 55.6836 52.332 56.293 52.332C56.9141 52.332 57.3906 52.1309 57.7227 51.7285C58.0586 51.3262 58.2266 50.7539 58.2266 50.0117C58.2266 49.2617 58.0586 48.6836 57.7227 48.2773C57.3906 47.8711 56.9141 47.668 56.293 47.668ZM65.7266 53H64.7656V49.5781C64.7656 48.3047 64.3008 47.668 63.3711 47.668C62.8906 47.668 62.4922 47.8496 62.1758 48.2129C61.8633 48.5723 61.707 49.0273 61.707 49.5781V53H60.7461V47H61.707V47.9961H61.7305C62.1836 47.2383 62.8398 46.8594 63.6992 46.8594C64.3555 46.8594 64.8574 47.0723 65.2051 47.498C65.5527 47.9199 65.7266 48.5312 65.7266 49.332V53ZM71.8203 52.1328H71.7969V55.7598H70.8359V47H71.7969V48.0547H71.8203C72.293 47.2578 72.9844 46.8594 73.8945 46.8594C74.668 46.8594 75.2715 47.1289 75.7051 47.668C76.1387 48.2031 76.3555 48.9219 76.3555 49.8242C76.3555 50.8281 76.1113 51.6328 75.623 52.2383C75.1348 52.8398 74.4668 53.1406 73.6191 53.1406C72.8418 53.1406 72.2422 52.8047 71.8203 52.1328ZM71.7969 49.7129V50.5508C71.7969 51.0469 71.957 51.4688 72.2773 51.8164C72.6016 52.1602 73.0117 52.332 73.5078 52.332C74.0898 52.332 74.5449 52.1094 74.873 51.6641C75.2051 51.2188 75.3711 50.5996 75.3711 49.8066C75.3711 49.1387 75.2168 48.6152 74.9082 48.2363C74.5996 47.8574 74.1816 47.668 73.6543 47.668C73.0957 47.668 72.6465 47.8633 72.3066 48.2539C71.9668 48.6406 71.7969 49.127 71.7969 49.7129ZM82.7422 53H81.7812V52.0508H81.7578C81.3594 52.7773 80.7422 53.1406 79.9062 53.1406C78.4766 53.1406 77.7617 52.2891 77.7617 50.5859V47H78.7168V50.4336C78.7168 51.6992 79.2012 52.332 80.1699 52.332C80.6387 52.332 81.0234 52.1602 81.3242 51.8164C81.6289 51.4688 81.7812 51.0156 81.7812 50.457V47H82.7422V53ZM87.1953 53.1406C86.3086 53.1406 85.5996 52.8613 85.0684 52.3027C84.541 51.7402 84.2773 50.9961 84.2773 50.0703C84.2773 49.0625 84.5527 48.2754 85.1035 47.709C85.6543 47.1426 86.3984 46.8594 87.3359 46.8594C88.2305 46.8594 88.9277 47.1348 89.4277 47.6855C89.9316 48.2363 90.1836 49 90.1836 49.9766C90.1836 50.9336 89.9121 51.7012 89.3691 52.2793C88.8301 52.8535 88.1055 53.1406 87.1953 53.1406ZM87.2656 47.668C86.6484 47.668 86.1602 47.8789 85.8008 48.3008C85.4414 48.7188 85.2617 49.2969 85.2617 50.0352C85.2617 50.7461 85.4434 51.3066 85.8066 51.7168C86.1699 52.127 86.6562 52.332 87.2656 52.332C87.8867 52.332 88.3633 52.1309 88.6953 51.7285C89.0312 51.3262 89.1992 50.7539 89.1992 50.0117C89.1992 49.2617 89.0312 48.6836 88.6953 48.2773C88.3633 47.8711 87.8867 47.668 87.2656 47.668ZM88.0918 45.8633H87.3477L85.8125 43.9414H86.7969L88.0918 45.8633ZM20.1875 69H19.2266V60.1172H20.1875V69ZM26.9551 66.2402H22.7188C22.7344 66.9082 22.9141 67.4238 23.2578 67.7871C23.6016 68.1504 24.0742 68.332 24.6758 68.332C25.3516 68.332 25.9727 68.1094 26.5391 67.6641V68.5664C26.0117 68.9492 25.3145 69.1406 24.4473 69.1406C23.5996 69.1406 22.9336 68.8691 22.4492 68.3262C21.9648 67.7793 21.7227 67.0117 21.7227 66.0234C21.7227 65.0898 21.9863 64.3301 22.5137 63.7441C23.0449 63.1543 23.7031 62.8594 24.4883 62.8594C25.2734 62.8594 25.8809 63.1133 26.3105 63.6211C26.7402 64.1289 26.9551 64.834 26.9551 65.7363V66.2402ZM25.9707 65.4258C25.9668 64.8711 25.832 64.4395 25.5664 64.1309C25.3047 63.8223 24.9395 63.668 24.4707 63.668C24.0176 63.668 23.6328 63.8301 23.3164 64.1543C23 64.4785 22.8047 64.9023 22.7305 65.4258H25.9707ZM33.5352 68.5195C33.5352 70.7227 32.4805 71.8242 30.3711 71.8242C29.6289 71.8242 28.9805 71.6836 28.4258 71.4023V70.4414C29.1016 70.8164 29.7461 71.0039 30.3594 71.0039C31.8359 71.0039 32.5742 70.2188 32.5742 68.6484V67.9922H32.5508C32.0938 68.7578 31.4062 69.1406 30.4883 69.1406C29.7422 69.1406 29.1406 68.875 28.6836 68.3438C28.2305 67.8086 28.0039 67.0918 28.0039 66.1934C28.0039 65.1738 28.248 64.3633 28.7363 63.7617C29.2285 63.1602 29.9004 62.8594 30.752 62.8594C31.5605 62.8594 32.1602 63.1836 32.5508 63.832H32.5742V63H33.5352V68.5195ZM32.5742 66.2871V65.4023C32.5742 64.9258 32.4121 64.5176 32.0879 64.1777C31.7676 63.8379 31.3672 63.668 30.8867 63.668C30.293 63.668 29.8281 63.8848 29.4922 64.3184C29.1562 64.748 28.9883 65.3516 28.9883 66.1289C28.9883 66.7969 29.1484 67.332 29.4688 67.7344C29.793 68.1328 30.2207 68.332 30.752 68.332C31.291 68.332 31.7285 68.1406 32.0645 67.7578C32.4043 67.375 32.5742 66.8848 32.5742 66.2871ZM40.6016 68.5195C40.6016 70.7227 39.5469 71.8242 37.4375 71.8242C36.6953 71.8242 36.0469 71.6836 35.4922 71.4023V70.4414C36.168 70.8164 36.8125 71.0039 37.4258 71.0039C38.9023 71.0039 39.6406 70.2188 39.6406 68.6484V67.9922H39.6172C39.1602 68.7578 38.4727 69.1406 37.5547 69.1406C36.8086 69.1406 36.207 68.875 35.75 68.3438C35.2969 67.8086 35.0703 67.0918 35.0703 66.1934C35.0703 65.1738 35.3145 64.3633 35.8027 63.7617C36.2949 63.1602 36.9668 62.8594 37.8184 62.8594C38.627 62.8594 39.2266 63.1836 39.6172 63.832H39.6406V63H40.6016V68.5195ZM39.6406 66.2871V65.4023C39.6406 64.9258 39.4785 64.5176 39.1543 64.1777C38.834 63.8379 38.4336 63.668 37.9531 63.668C37.3594 63.668 36.8945 63.8848 36.5586 64.3184C36.2227 64.748 36.0547 65.3516 36.0547 66.1289C36.0547 66.7969 36.2148 67.332 36.5352 67.7344C36.8594 68.1328 37.2871 68.332 37.8184 68.332C38.3574 68.332 38.7949 68.1406 39.1309 67.7578C39.4707 67.375 39.6406 66.8848 39.6406 66.2871ZM47.3691 66.2402H43.1328C43.1484 66.9082 43.3281 67.4238 43.6719 67.7871C44.0156 68.1504 44.4883 68.332 45.0898 68.332C45.7656 68.332 46.3867 68.1094 46.9531 67.6641V68.5664C46.4258 68.9492 45.7285 69.1406 44.8613 69.1406C44.0137 69.1406 43.3477 68.8691 42.8633 68.3262C42.3789 67.7793 42.1367 67.0117 42.1367 66.0234C42.1367 65.0898 42.4004 64.3301 42.9277 63.7441C43.459 63.1543 44.1172 62.8594 44.9023 62.8594C45.6875 62.8594 46.2949 63.1133 46.7246 63.6211C47.1543 64.1289 47.3691 64.834 47.3691 65.7363V66.2402ZM46.3848 65.4258C46.3809 64.8711 46.2461 64.4395 45.9805 64.1309C45.7188 63.8223 45.3535 63.668 44.8848 63.668C44.4316 63.668 44.0469 63.8301 43.7305 64.1543C43.4141 64.4785 43.2188 64.9023 43.1445 65.4258H46.3848ZM51.957 63.9727C51.7891 63.8438 51.5469 63.7793 51.2305 63.7793C50.8203 63.7793 50.4766 63.9727 50.1992 64.3594C49.9258 64.7461 49.7891 65.2734 49.7891 65.9414V69H48.8281V63H49.7891V64.2363H49.8125C49.9492 63.8145 50.1582 63.4863 50.4395 63.252C50.7207 63.0137 51.0352 62.8945 51.3828 62.8945C51.6328 62.8945 51.8242 62.9219 51.957 62.9766V63.9727ZM57.8223 66.2402H53.5859C53.6016 66.9082 53.7812 67.4238 54.125 67.7871C54.4688 68.1504 54.9414 68.332 55.543 68.332C56.2188 68.332 56.8398 68.1094 57.4062 67.6641V68.5664C56.8789 68.9492 56.1816 69.1406 55.3145 69.1406C54.4668 69.1406 53.8008 68.8691 53.3164 68.3262C52.832 67.7793 52.5898 67.0117 52.5898 66.0234C52.5898 65.0898 52.8535 64.3301 53.3809 63.7441C53.9121 63.1543 54.5703 62.8594 55.3555 62.8594C56.1406 62.8594 56.748 63.1133 57.1777 63.6211C57.6074 64.1289 57.8223 64.834 57.8223 65.7363V66.2402ZM56.8379 65.4258C56.834 64.8711 56.6992 64.4395 56.4336 64.1309C56.1719 63.8223 55.8066 63.668 55.3379 63.668C54.8848 63.668 54.5 63.8301 54.1836 64.1543C53.8672 64.4785 53.6719 64.9023 53.5977 65.4258H56.8379ZM67.6953 69H66.7344V67.9805H66.7109C66.2656 68.7539 65.5781 69.1406 64.6484 69.1406C63.8945 69.1406 63.291 68.873 62.8379 68.3379C62.3887 67.7988 62.1641 67.0664 62.1641 66.1406C62.1641 65.1484 62.4141 64.3535 62.9141 63.7559C63.4141 63.1582 64.0801 62.8594 64.9121 62.8594C65.7363 62.8594 66.3359 63.1836 66.7109 63.832H66.7344V60.1172H67.6953V69ZM66.7344 66.2871V65.4023C66.7344 64.918 66.5742 64.5078 66.2539 64.1719C65.9336 63.8359 65.5273 63.668 65.0352 63.668C64.4492 63.668 63.9883 63.8828 63.6523 64.3125C63.3164 64.7422 63.1484 65.3359 63.1484 66.0938C63.1484 66.7852 63.3086 67.332 63.6289 67.7344C63.9531 68.1328 64.3867 68.332 64.9297 68.332C65.4648 68.332 65.8984 68.1387 66.2305 67.752C66.5664 67.3652 66.7344 66.877 66.7344 66.2871ZM73.9355 69H72.9746V68.0625H72.9512C72.5332 68.7812 71.918 69.1406 71.1055 69.1406C70.5078 69.1406 70.0391 68.9824 69.6992 68.666C69.3633 68.3496 69.1953 67.9297 69.1953 67.4062C69.1953 66.2852 69.8555 65.6328 71.1758 65.4492L72.9746 65.1973C72.9746 64.1777 72.5625 63.668 71.7383 63.668C71.0156 63.668 70.3633 63.9141 69.7812 64.4062V63.4219C70.3711 63.0469 71.0508 62.8594 71.8203 62.8594C73.2305 62.8594 73.9355 63.6055 73.9355 65.0977V69ZM72.9746 65.9648L71.5273 66.1641C71.082 66.2266 70.7461 66.3379 70.5195 66.498C70.293 66.6543 70.1797 66.9336 70.1797 67.3359C70.1797 67.6289 70.2832 67.8691 70.4902 68.0566C70.7012 68.2402 70.9805 68.332 71.3281 68.332C71.8047 68.332 72.1973 68.166 72.5059 67.834C72.8184 67.498 72.9746 67.0742 72.9746 66.5625V65.9648ZM78.5293 68.9414C78.3027 69.0664 78.0039 69.1289 77.6328 69.1289C76.582 69.1289 76.0566 68.543 76.0566 67.3711V63.8203H75.0254V63H76.0566V61.5352L77.0176 61.2246V63H78.5293V63.8203H77.0176V67.2012C77.0176 67.6035 77.0859 67.8906 77.2227 68.0625C77.3594 68.2344 77.5859 68.3203 77.9023 68.3203C78.1445 68.3203 78.3535 68.2539 78.5293 68.1211V68.9414ZM80.3047 61.4766C80.1328 61.4766 79.9863 61.418 79.8652 61.3008C79.7441 61.1836 79.6836 61.0352 79.6836 60.8555C79.6836 60.6758 79.7441 60.5273 79.8652 60.4102C79.9863 60.2891 80.1328 60.2285 80.3047 60.2285C80.4805 60.2285 80.6289 60.2891 80.75 60.4102C80.875 60.5273 80.9375 60.6758 80.9375 60.8555C80.9375 61.0273 80.875 61.1738 80.75 61.2949C80.6289 61.416 80.4805 61.4766 80.3047 61.4766ZM80.7734 69H79.8125V63H80.7734V69ZM37.0801 85V76.5977H39.4707C40.1973 76.5977 40.7734 76.7754 41.1992 77.1309C41.625 77.4863 41.8379 77.9492 41.8379 78.5195C41.8379 78.9961 41.709 79.4102 41.4512 79.7617C41.1934 80.1133 40.8379 80.3633 40.3848 80.5117V80.5352C40.9512 80.6016 41.4043 80.8164 41.7441 81.1797C42.084 81.5391 42.2539 82.0078 42.2539 82.5859C42.2539 83.3047 41.9961 83.8867 41.4805 84.332C40.9648 84.7773 40.3145 85 39.5293 85H37.0801ZM38.0645 77.4883V80.2012H39.0723C39.6113 80.2012 40.0352 80.0723 40.3438 79.8145C40.6523 79.5527 40.8066 79.1855 40.8066 78.7129C40.8066 77.8965 40.2695 77.4883 39.1953 77.4883H38.0645ZM38.0645 81.0859V84.1094H39.4004C39.9785 84.1094 40.4258 83.9727 40.7422 83.6992C41.0625 83.4258 41.2227 83.0508 41.2227 82.5742C41.2227 81.582 40.5469 81.0859 39.1953 81.0859H38.0645ZM48.3184 85H43.959V76.5977H44.9434V84.1094H48.3184V85ZM52.584 85.1406C51.3926 85.1406 50.4375 84.748 49.7188 83.9629C49.0039 83.1777 48.6465 82.1562 48.6465 80.8984C48.6465 79.5469 49.0117 78.4688 49.7422 77.6641C50.4727 76.8594 51.4668 76.457 52.7246 76.457C53.8848 76.457 54.8184 76.8477 55.5254 77.6289C56.2363 78.4102 56.5918 79.4316 56.5918 80.6934C56.5918 82.0645 56.2285 83.1484 55.502 83.9453C54.7754 84.7422 53.8027 85.1406 52.584 85.1406ZM52.6543 77.3477C51.7715 77.3477 51.0547 77.666 50.5039 78.3027C49.9531 78.9395 49.6777 79.7754 49.6777 80.8105C49.6777 81.8457 49.9453 82.6797 50.4805 83.3125C51.0195 83.9414 51.7207 84.2559 52.584 84.2559C53.5059 84.2559 54.2324 83.9551 54.7637 83.3535C55.2949 82.752 55.5605 81.9102 55.5605 80.8281C55.5605 79.7188 55.3027 78.8613 54.7871 78.2559C54.2715 77.6504 53.5605 77.3477 52.6543 77.3477ZM58.2441 85V76.5977H60.6348C61.3613 76.5977 61.9375 76.7754 62.3633 77.1309C62.7891 77.4863 63.002 77.9492 63.002 78.5195C63.002 78.9961 62.873 79.4102 62.6152 79.7617C62.3574 80.1133 62.002 80.3633 61.5488 80.5117V80.5352C62.1152 80.6016 62.5684 80.8164 62.9082 81.1797C63.248 81.5391 63.418 82.0078 63.418 82.5859C63.418 83.3047 63.1602 83.8867 62.6445 84.332C62.1289 84.7773 61.4785 85 60.6934 85H58.2441ZM59.2285 77.4883V80.2012H60.2363C60.7754 80.2012 61.1992 80.0723 61.5078 79.8145C61.8164 79.5527 61.9707 79.1855 61.9707 78.7129C61.9707 77.8965 61.4336 77.4883 60.3594 77.4883H59.2285ZM59.2285 81.0859V84.1094H60.5645C61.1426 84.1094 61.5898 83.9727 61.9062 83.6992C62.2266 83.4258 62.3867 83.0508 62.3867 82.5742C62.3867 81.582 61.7109 81.0859 60.3594 81.0859H59.2285Z" fill="#020057"/>
</svg>
