<svg width="100%" viewBox="0 0 148 147" fill="none" xmlns="http://www.w3.org/2000/svg">
<g filter="url(#filter0_dd_3872_62952)">
<rect x="8" y="4" width="132" height="132" fill="#FBFBFE"/>
<rect x="8.5" y="4.5" width="131" height="131" stroke="#827DFF" stroke-dasharray="4 4"/>
<rect width="100" height="96" transform="translate(24 22)" fill="#FBFBFE"/>
<path d="M79.75 33C81.5449 33 83 34.4551 83 36.25V47.75C83 49.5449 81.5449 51 79.75 51H68.25C66.4551 51 65 49.5449 65 47.75V36.25C65 34.4551 66.4551 33 68.25 33H79.75ZM80.3305 49.4014L74.5247 43.7148C74.2596 43.4553 73.8501 43.4316 73.5588 43.644L73.4752 43.7148L67.6685 49.4011C67.8504 49.4651 68.0461 49.5 68.25 49.5H79.75C79.9535 49.5 80.1489 49.4653 80.3305 49.4014L74.5247 43.7148L80.3305 49.4014ZM79.75 34.5H68.25C67.2835 34.5 66.5 35.2835 66.5 36.25V47.75C66.5 47.9584 66.5364 48.1583 66.6033 48.3437L72.4258 42.643C73.2589 41.8273 74.5675 41.7885 75.4458 42.5266L75.5742 42.6431L81.3964 48.3447C81.4634 48.159 81.5 47.9588 81.5 47.75V36.25C81.5 35.2835 80.7165 34.5 79.75 34.5ZM77.2521 36.5C78.4959 36.5 79.5042 37.5083 79.5042 38.7521C79.5042 39.9959 78.4959 41.0042 77.2521 41.0042C76.0083 41.0042 75 39.9959 75 38.7521C75 37.5083 76.0083 36.5 77.2521 36.5ZM77.2521 38C76.8367 38 76.5 38.3367 76.5 38.7521C76.5 39.1675 76.8367 39.5042 77.2521 39.5042C77.6675 39.5042 78.0042 39.1675 78.0042 38.7521C78.0042 38.3367 77.6675 38 77.2521 38Z" fill="#020057"/>
<path d="M40.0742 74.6484C39.4531 74.9766 38.6797 75.1406 37.7539 75.1406C36.5586 75.1406 35.6016 74.7559 34.8828 73.9863C34.1641 73.2168 33.8047 72.207 33.8047 70.957C33.8047 69.6133 34.209 68.5273 35.0176 67.6992C35.8262 66.8711 36.8516 66.457 38.0938 66.457C38.8906 66.457 39.5508 66.5723 40.0742 66.8027V67.8516C39.4727 67.5156 38.8086 67.3477 38.082 67.3477C37.1172 67.3477 36.334 67.6699 35.7324 68.3145C35.1348 68.959 34.8359 69.8203 34.8359 70.8984C34.8359 71.9219 35.1152 72.7383 35.6738 73.3477C36.2363 73.9531 36.9727 74.2559 37.8828 74.2559C38.7266 74.2559 39.457 74.0684 40.0742 73.6934V74.6484ZM42.6172 75H41.6562V66.1172H42.6172V75ZM48.8574 75H47.8965V74.0625H47.873C47.4551 74.7812 46.8398 75.1406 46.0273 75.1406C45.4297 75.1406 44.9609 74.9824 44.6211 74.666C44.2852 74.3496 44.1172 73.9297 44.1172 73.4062C44.1172 72.2852 44.7773 71.6328 46.0977 71.4492L47.8965 71.1973C47.8965 70.1777 47.4844 69.668 46.6602 69.668C45.9375 69.668 45.2852 69.9141 44.7031 70.4062V69.4219C45.293 69.0469 45.9727 68.8594 46.7422 68.8594C48.1523 68.8594 48.8574 69.6055 48.8574 71.0977V75ZM47.8965 71.9648L46.4492 72.1641C46.0039 72.2266 45.668 72.3379 45.4414 72.498C45.2148 72.6543 45.1016 72.9336 45.1016 73.3359C45.1016 73.6289 45.2051 73.8691 45.4121 74.0566C45.623 74.2402 45.9023 74.332 46.25 74.332C46.7266 74.332 47.1191 74.166 47.4277 73.834C47.7402 73.498 47.8965 73.0742 47.8965 72.5625V71.9648ZM53.7969 69.9727C53.6289 69.8438 53.3867 69.7793 53.0703 69.7793C52.6602 69.7793 52.3164 69.9727 52.0391 70.3594C51.7656 70.7461 51.6289 71.2734 51.6289 71.9414V75H50.668V69H51.6289V70.2363H51.6523C51.7891 69.8145 51.998 69.4863 52.2793 69.252C52.5605 69.0137 52.875 68.8945 53.2227 68.8945C53.4727 68.8945 53.6641 68.9219 53.7969 68.9766V69.9727ZM55.332 67.4766C55.1602 67.4766 55.0137 67.418 54.8926 67.3008C54.7715 67.1836 54.7109 67.0352 54.7109 66.8555C54.7109 66.6758 54.7715 66.5273 54.8926 66.4102C55.0137 66.2891 55.1602 66.2285 55.332 66.2285C55.5078 66.2285 55.6562 66.2891 55.7773 66.4102C55.9023 66.5273 55.9648 66.6758 55.9648 66.8555C55.9648 67.0273 55.9023 67.1738 55.7773 67.2949C55.6562 67.416 55.5078 67.4766 55.332 67.4766ZM55.8008 75H54.8398V69H55.8008V75ZM60.5293 74.9414C60.3027 75.0664 60.0039 75.1289 59.6328 75.1289C58.582 75.1289 58.0566 74.543 58.0566 73.3711V69.8203H57.0254V69H58.0566V67.5352L59.0176 67.2246V69H60.5293V69.8203H59.0176V73.2012C59.0176 73.6035 59.0859 73.8906 59.2227 74.0625C59.3594 74.2344 59.5859 74.3203 59.9023 74.3203C60.1445 74.3203 60.3535 74.2539 60.5293 74.1211V74.9414ZM66.5879 69L63.8281 75.9609C63.3359 77.2031 62.6445 77.8242 61.7539 77.8242C61.5039 77.8242 61.2949 77.7988 61.127 77.748V76.8867C61.334 76.957 61.5234 76.9922 61.6953 76.9922C62.1797 76.9922 62.543 76.7031 62.7852 76.125L63.2656 74.9883L60.9219 69H61.9883L63.6113 73.6172C63.6309 73.6758 63.6719 73.8281 63.7344 74.0742H63.7695C63.7891 73.9805 63.8281 73.832 63.8867 73.6289L65.5918 69H66.5879ZM75.8984 75H74.9375V71.5781C74.9375 70.3047 74.4727 69.668 73.543 69.668C73.0625 69.668 72.6641 69.8496 72.3477 70.2129C72.0352 70.5723 71.8789 71.0273 71.8789 71.5781V75H70.918V69H71.8789V69.9961H71.9023C72.3555 69.2383 73.0117 68.8594 73.8711 68.8594C74.5273 68.8594 75.0293 69.0723 75.377 69.498C75.7246 69.9199 75.8984 70.5312 75.8984 71.332V75ZM80.2227 75.1406C79.3359 75.1406 78.627 74.8613 78.0957 74.3027C77.5684 73.7402 77.3047 72.9961 77.3047 72.0703C77.3047 71.0625 77.5801 70.2754 78.1309 69.709C78.6816 69.1426 79.4258 68.8594 80.3633 68.8594C81.2578 68.8594 81.9551 69.1348 82.4551 69.6855C82.959 70.2363 83.2109 71 83.2109 71.9766C83.2109 72.9336 82.9395 73.7012 82.3965 74.2793C81.8574 74.8535 81.1328 75.1406 80.2227 75.1406ZM80.293 69.668C79.6758 69.668 79.1875 69.8789 78.8281 70.3008C78.4688 70.7188 78.2891 71.2969 78.2891 72.0352C78.2891 72.7461 78.4707 73.3066 78.834 73.7168C79.1973 74.127 79.6836 74.332 80.293 74.332C80.9141 74.332 81.3906 74.1309 81.7227 73.7285C82.0586 73.3262 82.2266 72.7539 82.2266 72.0117C82.2266 71.2617 82.0586 70.6836 81.7227 70.2773C81.3906 69.8711 80.9141 69.668 80.293 69.668ZM89.7266 75H88.7656V71.5781C88.7656 70.3047 88.3008 69.668 87.3711 69.668C86.8906 69.668 86.4922 69.8496 86.1758 70.2129C85.8633 70.5723 85.707 71.0273 85.707 71.5781V75H84.7461V69H85.707V69.9961H85.7305C86.1836 69.2383 86.8398 68.8594 87.6992 68.8594C88.3555 68.8594 88.8574 69.0723 89.2051 69.498C89.5527 69.9199 89.7266 70.5312 89.7266 71.332V75ZM95.8203 74.1328H95.7969V77.7598H94.8359V69H95.7969V70.0547H95.8203C96.293 69.2578 96.9844 68.8594 97.8945 68.8594C98.668 68.8594 99.2715 69.1289 99.7051 69.668C100.139 70.2031 100.355 70.9219 100.355 71.8242C100.355 72.8281 100.111 73.6328 99.623 74.2383C99.1348 74.8398 98.4668 75.1406 97.6191 75.1406C96.8418 75.1406 96.2422 74.8047 95.8203 74.1328ZM95.7969 71.7129V72.5508C95.7969 73.0469 95.957 73.4688 96.2773 73.8164C96.6016 74.1602 97.0117 74.332 97.5078 74.332C98.0898 74.332 98.5449 74.1094 98.873 73.6641C99.2051 73.2188 99.3711 72.5996 99.3711 71.8066C99.3711 71.1387 99.2168 70.6152 98.9082 70.2363C98.5996 69.8574 98.1816 69.668 97.6543 69.668C97.0957 69.668 96.6465 69.8633 96.3066 70.2539C95.9668 70.6406 95.7969 71.127 95.7969 71.7129ZM106.742 75H105.781V74.0508H105.758C105.359 74.7773 104.742 75.1406 103.906 75.1406C102.477 75.1406 101.762 74.2891 101.762 72.5859V69H102.717V72.4336C102.717 73.6992 103.201 74.332 104.17 74.332C104.639 74.332 105.023 74.1602 105.324 73.8164C105.629 73.4688 105.781 73.0156 105.781 72.457V69H106.742V75ZM111.195 75.1406C110.309 75.1406 109.6 74.8613 109.068 74.3027C108.541 73.7402 108.277 72.9961 108.277 72.0703C108.277 71.0625 108.553 70.2754 109.104 69.709C109.654 69.1426 110.398 68.8594 111.336 68.8594C112.23 68.8594 112.928 69.1348 113.428 69.6855C113.932 70.2363 114.184 71 114.184 71.9766C114.184 72.9336 113.912 73.7012 113.369 74.2793C112.83 74.8535 112.105 75.1406 111.195 75.1406ZM111.266 69.668C110.648 69.668 110.16 69.8789 109.801 70.3008C109.441 70.7188 109.262 71.2969 109.262 72.0352C109.262 72.7461 109.443 73.3066 109.807 73.7168C110.17 74.127 110.656 74.332 111.266 74.332C111.887 74.332 112.363 74.1309 112.695 73.7285C113.031 73.3262 113.199 72.7539 113.199 72.0117C113.199 71.2617 113.031 70.6836 112.695 70.2773C112.363 69.8711 111.887 69.668 111.266 69.668ZM112.092 67.8633H111.348L109.812 65.9414H110.797L112.092 67.8633ZM44.1875 91H43.2266V82.1172H44.1875V91ZM50.9551 88.2402H46.7188C46.7344 88.9082 46.9141 89.4238 47.2578 89.7871C47.6016 90.1504 48.0742 90.332 48.6758 90.332C49.3516 90.332 49.9727 90.1094 50.5391 89.6641V90.5664C50.0117 90.9492 49.3145 91.1406 48.4473 91.1406C47.5996 91.1406 46.9336 90.8691 46.4492 90.3262C45.9648 89.7793 45.7227 89.0117 45.7227 88.0234C45.7227 87.0898 45.9863 86.3301 46.5137 85.7441C47.0449 85.1543 47.7031 84.8594 48.4883 84.8594C49.2734 84.8594 49.8809 85.1133 50.3105 85.6211C50.7402 86.1289 50.9551 86.834 50.9551 87.7363V88.2402ZM49.9707 87.4258C49.9668 86.8711 49.832 86.4395 49.5664 86.1309C49.3047 85.8223 48.9395 85.668 48.4707 85.668C48.0176 85.668 47.6328 85.8301 47.3164 86.1543C47 86.4785 46.8047 86.9023 46.7305 87.4258H49.9707ZM57.5352 90.5195C57.5352 92.7227 56.4805 93.8242 54.3711 93.8242C53.6289 93.8242 52.9805 93.6836 52.4258 93.4023V92.4414C53.1016 92.8164 53.7461 93.0039 54.3594 93.0039C55.8359 93.0039 56.5742 92.2188 56.5742 90.6484V89.9922H56.5508C56.0938 90.7578 55.4062 91.1406 54.4883 91.1406C53.7422 91.1406 53.1406 90.875 52.6836 90.3438C52.2305 89.8086 52.0039 89.0918 52.0039 88.1934C52.0039 87.1738 52.248 86.3633 52.7363 85.7617C53.2285 85.1602 53.9004 84.8594 54.752 84.8594C55.5605 84.8594 56.1602 85.1836 56.5508 85.832H56.5742V85H57.5352V90.5195ZM56.5742 88.2871V87.4023C56.5742 86.9258 56.4121 86.5176 56.0879 86.1777C55.7676 85.8379 55.3672 85.668 54.8867 85.668C54.293 85.668 53.8281 85.8848 53.4922 86.3184C53.1562 86.748 52.9883 87.3516 52.9883 88.1289C52.9883 88.7969 53.1484 89.332 53.4688 89.7344C53.793 90.1328 54.2207 90.332 54.752 90.332C55.291 90.332 55.7285 90.1406 56.0645 89.7578C56.4043 89.375 56.5742 88.8848 56.5742 88.2871ZM64.6016 90.5195C64.6016 92.7227 63.5469 93.8242 61.4375 93.8242C60.6953 93.8242 60.0469 93.6836 59.4922 93.4023V92.4414C60.168 92.8164 60.8125 93.0039 61.4258 93.0039C62.9023 93.0039 63.6406 92.2188 63.6406 90.6484V89.9922H63.6172C63.1602 90.7578 62.4727 91.1406 61.5547 91.1406C60.8086 91.1406 60.207 90.875 59.75 90.3438C59.2969 89.8086 59.0703 89.0918 59.0703 88.1934C59.0703 87.1738 59.3145 86.3633 59.8027 85.7617C60.2949 85.1602 60.9668 84.8594 61.8184 84.8594C62.627 84.8594 63.2266 85.1836 63.6172 85.832H63.6406V85H64.6016V90.5195ZM63.6406 88.2871V87.4023C63.6406 86.9258 63.4785 86.5176 63.1543 86.1777C62.834 85.8379 62.4336 85.668 61.9531 85.668C61.3594 85.668 60.8945 85.8848 60.5586 86.3184C60.2227 86.748 60.0547 87.3516 60.0547 88.1289C60.0547 88.7969 60.2148 89.332 60.5352 89.7344C60.8594 90.1328 61.2871 90.332 61.8184 90.332C62.3574 90.332 62.7949 90.1406 63.1309 89.7578C63.4707 89.375 63.6406 88.8848 63.6406 88.2871ZM71.3691 88.2402H67.1328C67.1484 88.9082 67.3281 89.4238 67.6719 89.7871C68.0156 90.1504 68.4883 90.332 69.0898 90.332C69.7656 90.332 70.3867 90.1094 70.9531 89.6641V90.5664C70.4258 90.9492 69.7285 91.1406 68.8613 91.1406C68.0137 91.1406 67.3477 90.8691 66.8633 90.3262C66.3789 89.7793 66.1367 89.0117 66.1367 88.0234C66.1367 87.0898 66.4004 86.3301 66.9277 85.7441C67.459 85.1543 68.1172 84.8594 68.9023 84.8594C69.6875 84.8594 70.2949 85.1133 70.7246 85.6211C71.1543 86.1289 71.3691 86.834 71.3691 87.7363V88.2402ZM70.3848 87.4258C70.3809 86.8711 70.2461 86.4395 69.9805 86.1309C69.7188 85.8223 69.3535 85.668 68.8848 85.668C68.4316 85.668 68.0469 85.8301 67.7305 86.1543C67.4141 86.4785 67.2188 86.9023 67.1445 87.4258H70.3848ZM75.957 85.9727C75.7891 85.8438 75.5469 85.7793 75.2305 85.7793C74.8203 85.7793 74.4766 85.9727 74.1992 86.3594C73.9258 86.7461 73.7891 87.2734 73.7891 87.9414V91H72.8281V85H73.7891V86.2363H73.8125C73.9492 85.8145 74.1582 85.4863 74.4395 85.252C74.7207 85.0137 75.0352 84.8945 75.3828 84.8945C75.6328 84.8945 75.8242 84.9219 75.957 84.9766V85.9727ZM81.8223 88.2402H77.5859C77.6016 88.9082 77.7812 89.4238 78.125 89.7871C78.4688 90.1504 78.9414 90.332 79.543 90.332C80.2188 90.332 80.8398 90.1094 81.4062 89.6641V90.5664C80.8789 90.9492 80.1816 91.1406 79.3145 91.1406C78.4668 91.1406 77.8008 90.8691 77.3164 90.3262C76.832 89.7793 76.5898 89.0117 76.5898 88.0234C76.5898 87.0898 76.8535 86.3301 77.3809 85.7441C77.9121 85.1543 78.5703 84.8594 79.3555 84.8594C80.1406 84.8594 80.748 85.1133 81.1777 85.6211C81.6074 86.1289 81.8223 86.834 81.8223 87.7363V88.2402ZM80.8379 87.4258C80.834 86.8711 80.6992 86.4395 80.4336 86.1309C80.1719 85.8223 79.8066 85.668 79.3379 85.668C78.8848 85.668 78.5 85.8301 78.1836 86.1543C77.8672 86.4785 77.6719 86.9023 77.5977 87.4258H80.8379ZM91.6953 91H90.7344V89.9805H90.7109C90.2656 90.7539 89.5781 91.1406 88.6484 91.1406C87.8945 91.1406 87.291 90.873 86.8379 90.3379C86.3887 89.7988 86.1641 89.0664 86.1641 88.1406C86.1641 87.1484 86.4141 86.3535 86.9141 85.7559C87.4141 85.1582 88.0801 84.8594 88.9121 84.8594C89.7363 84.8594 90.3359 85.1836 90.7109 85.832H90.7344V82.1172H91.6953V91ZM90.7344 88.2871V87.4023C90.7344 86.918 90.5742 86.5078 90.2539 86.1719C89.9336 85.8359 89.5273 85.668 89.0352 85.668C88.4492 85.668 87.9883 85.8828 87.6523 86.3125C87.3164 86.7422 87.1484 87.3359 87.1484 88.0938C87.1484 88.7852 87.3086 89.332 87.6289 89.7344C87.9531 90.1328 88.3867 90.332 88.9297 90.332C89.4648 90.332 89.8984 90.1387 90.2305 89.752C90.5664 89.3652 90.7344 88.877 90.7344 88.2871ZM97.9355 91H96.9746V90.0625H96.9512C96.5332 90.7812 95.918 91.1406 95.1055 91.1406C94.5078 91.1406 94.0391 90.9824 93.6992 90.666C93.3633 90.3496 93.1953 89.9297 93.1953 89.4062C93.1953 88.2852 93.8555 87.6328 95.1758 87.4492L96.9746 87.1973C96.9746 86.1777 96.5625 85.668 95.7383 85.668C95.0156 85.668 94.3633 85.9141 93.7812 86.4062V85.4219C94.3711 85.0469 95.0508 84.8594 95.8203 84.8594C97.2305 84.8594 97.9355 85.6055 97.9355 87.0977V91ZM96.9746 87.9648L95.5273 88.1641C95.082 88.2266 94.7461 88.3379 94.5195 88.498C94.293 88.6543 94.1797 88.9336 94.1797 89.3359C94.1797 89.6289 94.2832 89.8691 94.4902 90.0566C94.7012 90.2402 94.9805 90.332 95.3281 90.332C95.8047 90.332 96.1973 90.166 96.5059 89.834C96.8184 89.498 96.9746 89.0742 96.9746 88.5625V87.9648ZM102.529 90.9414C102.303 91.0664 102.004 91.1289 101.633 91.1289C100.582 91.1289 100.057 90.543 100.057 89.3711V85.8203H99.0254V85H100.057V83.5352L101.018 83.2246V85H102.529V85.8203H101.018V89.2012C101.018 89.6035 101.086 89.8906 101.223 90.0625C101.359 90.2344 101.586 90.3203 101.902 90.3203C102.145 90.3203 102.354 90.2539 102.529 90.1211V90.9414ZM104.305 83.4766C104.133 83.4766 103.986 83.418 103.865 83.3008C103.744 83.1836 103.684 83.0352 103.684 82.8555C103.684 82.6758 103.744 82.5273 103.865 82.4102C103.986 82.2891 104.133 82.2285 104.305 82.2285C104.48 82.2285 104.629 82.2891 104.75 82.4102C104.875 82.5273 104.938 82.6758 104.938 82.8555C104.938 83.0273 104.875 83.1738 104.75 83.2949C104.629 83.416 104.48 83.4766 104.305 83.4766ZM104.773 91H103.812V85H104.773V91ZM61.0801 107V98.5977H63.4707C64.1973 98.5977 64.7734 98.7754 65.1992 99.1309C65.625 99.4863 65.8379 99.9492 65.8379 100.52C65.8379 100.996 65.709 101.41 65.4512 101.762C65.1934 102.113 64.8379 102.363 64.3848 102.512V102.535C64.9512 102.602 65.4043 102.816 65.7441 103.18C66.084 103.539 66.2539 104.008 66.2539 104.586C66.2539 105.305 65.9961 105.887 65.4805 106.332C64.9648 106.777 64.3145 107 63.5293 107H61.0801ZM62.0645 99.4883V102.201H63.0723C63.6113 102.201 64.0352 102.072 64.3438 101.814C64.6523 101.553 64.8066 101.186 64.8066 100.713C64.8066 99.8965 64.2695 99.4883 63.1953 99.4883H62.0645ZM62.0645 103.086V106.109H63.4004C63.9785 106.109 64.4258 105.973 64.7422 105.699C65.0625 105.426 65.2227 105.051 65.2227 104.574C65.2227 103.582 64.5469 103.086 63.1953 103.086H62.0645ZM72.3184 107H67.959V98.5977H68.9434V106.109H72.3184V107ZM76.584 107.141C75.3926 107.141 74.4375 106.748 73.7188 105.963C73.0039 105.178 72.6465 104.156 72.6465 102.898C72.6465 101.547 73.0117 100.469 73.7422 99.6641C74.4727 98.8594 75.4668 98.457 76.7246 98.457C77.8848 98.457 78.8184 98.8477 79.5254 99.6289C80.2363 100.41 80.5918 101.432 80.5918 102.693C80.5918 104.064 80.2285 105.148 79.502 105.945C78.7754 106.742 77.8027 107.141 76.584 107.141ZM76.6543 99.3477C75.7715 99.3477 75.0547 99.666 74.5039 100.303C73.9531 100.939 73.6777 101.775 73.6777 102.811C73.6777 103.846 73.9453 104.68 74.4805 105.312C75.0195 105.941 75.7207 106.256 76.584 106.256C77.5059 106.256 78.2324 105.955 78.7637 105.354C79.2949 104.752 79.5605 103.91 79.5605 102.828C79.5605 101.719 79.3027 100.861 78.7871 100.256C78.2715 99.6504 77.5605 99.3477 76.6543 99.3477ZM82.2441 107V98.5977H84.6348C85.3613 98.5977 85.9375 98.7754 86.3633 99.1309C86.7891 99.4863 87.002 99.9492 87.002 100.52C87.002 100.996 86.873 101.41 86.6152 101.762C86.3574 102.113 86.002 102.363 85.5488 102.512V102.535C86.1152 102.602 86.5684 102.816 86.9082 103.18C87.248 103.539 87.418 104.008 87.418 104.586C87.418 105.305 87.1602 105.887 86.6445 106.332C86.1289 106.777 85.4785 107 84.6934 107H82.2441ZM83.2285 99.4883V102.201H84.2363C84.7754 102.201 85.1992 102.072 85.5078 101.814C85.8164 101.553 85.9707 101.186 85.9707 100.713C85.9707 99.8965 85.4336 99.4883 84.3594 99.4883H83.2285ZM83.2285 103.086V106.109H84.5645C85.1426 106.109 85.5898 105.973 85.9062 105.699C86.2266 105.426 86.3867 105.051 86.3867 104.574C86.3867 103.582 85.7109 103.086 84.3594 103.086H83.2285Z" fill="#020057"/>
</g>
<defs>
<filter id="filter0_dd_3872_62952" x="0.8" y="2.38419e-07" width="146.4" height="146.4" filterUnits="userSpaceOnUse" color-interpolation-filters="sRGB">
<feFlood flood-opacity="0" result="BackgroundImageFix"/>
<feColorMatrix in="SourceAlpha" type="matrix" values="0 0 0 0 0 0 0 0 0 0 0 0 0 0 0 0 0 0 127 0" result="hardAlpha"/>
<feOffset dy="3.2"/>
<feGaussianBlur stdDeviation="3.6"/>
<feColorMatrix type="matrix" values="0 0 0 0 0.513726 0 0 0 0 0.494118 0 0 0 0 1 0 0 0 0.12 0"/>
<feBlend mode="normal" in2="BackgroundImageFix" result="effect1_dropShadow_3872_62952"/>
<feColorMatrix in="SourceAlpha" type="matrix" values="0 0 0 0 0 0 0 0 0 0 0 0 0 0 0 0 0 0 127 0" result="hardAlpha"/>
<feOffset dy="0.6"/>
<feGaussianBlur stdDeviation="0.9"/>
<feColorMatrix type="matrix" values="0 0 0 0 0.513726 0 0 0 0 0.494118 0 0 0 0 1 0 0 0 0.1 0"/>
<feBlend mode="normal" in2="effect1_dropShadow_3872_62952" result="effect2_dropShadow_3872_62952"/>
<feBlend mode="normal" in="SourceGraphic" in2="effect2_dropShadow_3872_62952" result="shape"/>
</filter>
</defs>
</svg>
