<svg width="100%" viewBox="0 0 100 96" fill="none" xmlns="http://www.w3.org/2000/svg">
<rect width="100" height="96" fill="#FBFBFE"/>
<path d="M55.75 11C57.5449 11 59 12.4551 59 14.25V25.75C59 27.5449 57.5449 29 55.75 29H44.25C42.4551 29 41 27.5449 41 25.75V14.25C41 12.4551 42.4551 11 44.25 11H55.75ZM56.3305 27.4014L50.5247 21.7148C50.2596 21.4553 49.8501 21.4316 49.5588 21.644L49.4752 21.7148L43.6685 27.4011C43.8504 27.4651 44.0461 27.5 44.25 27.5H55.75C55.9535 27.5 56.1489 27.4653 56.3305 27.4014L50.5247 21.7148L56.3305 27.4014ZM55.75 12.5H44.25C43.2835 12.5 42.5 13.2835 42.5 14.25V25.75C42.5 25.9584 42.5364 26.1583 42.6033 26.3437L48.4258 20.643C49.2589 19.8273 50.5675 19.7885 51.4458 20.5266L51.5742 20.6431L57.3964 26.3447C57.4634 26.159 57.5 25.9588 57.5 25.75V14.25C57.5 13.2835 56.7165 12.5 55.75 12.5ZM53.2521 14.5C54.4959 14.5 55.5042 15.5083 55.5042 16.7521C55.5042 17.9959 54.4959 19.0042 53.2521 19.0042C52.0083 19.0042 51 17.9959 51 16.7521C51 15.5083 52.0083 14.5 53.2521 14.5ZM53.2521 16C52.8367 16 52.5 16.3367 52.5 16.7521C52.5 17.1675 52.8367 17.5042 53.2521 17.5042C53.6675 17.5042 54.0042 17.1675 54.0042 16.7521C54.0042 16.3367 53.6675 16 53.2521 16Z" fill="#020057"/>
<path d="M15.1602 52.6484C14.5391 52.9766 13.7656 53.1406 12.8398 53.1406C11.6445 53.1406 10.6875 52.7559 9.96875 51.9863C9.25 51.2168 8.89062 50.207 8.89062 48.957C8.89062 47.6133 9.29492 46.5273 10.1035 45.6992C10.9121 44.8711 11.9375 44.457 13.1797 44.457C13.9766 44.457 14.6367 44.5723 15.1602 44.8027V45.8516C14.5586 45.5156 13.8945 45.3477 13.168 45.3477C12.2031 45.3477 11.4199 45.6699 10.8184 46.3145C10.2207 46.959 9.92188 47.8203 9.92188 48.8984C9.92188 49.9219 10.2012 50.7383 10.7598 51.3477C11.3223 51.9531 12.0586 52.2559 12.9688 52.2559C13.8125 52.2559 14.543 52.0684 15.1602 51.6934V52.6484ZM17.7031 53H16.7422V44.1172H17.7031V53ZM23.9434 53H22.9824V52.0625H22.959C22.541 52.7812 21.9258 53.1406 21.1133 53.1406C20.5156 53.1406 20.0469 52.9824 19.707 52.666C19.3711 52.3496 19.2031 51.9297 19.2031 51.4062C19.2031 50.2852 19.8633 49.6328 21.1836 49.4492L22.9824 49.1973C22.9824 48.1777 22.5703 47.668 21.7461 47.668C21.0234 47.668 20.3711 47.9141 19.7891 48.4062V47.4219C20.3789 47.0469 21.0586 46.8594 21.8281 46.8594C23.2383 46.8594 23.9434 47.6055 23.9434 49.0977V53ZM22.9824 49.9648L21.5352 50.1641C21.0898 50.2266 20.7539 50.3379 20.5273 50.498C20.3008 50.6543 20.1875 50.9336 20.1875 51.3359C20.1875 51.6289 20.291 51.8691 20.498 52.0566C20.709 52.2402 20.9883 52.332 21.3359 52.332C21.8125 52.332 22.2051 52.166 22.5137 51.834C22.8262 51.498 22.9824 51.0742 22.9824 50.5625V49.9648ZM28.8828 47.9727C28.7148 47.8438 28.4727 47.7793 28.1562 47.7793C27.7461 47.7793 27.4023 47.9727 27.125 48.3594C26.8516 48.7461 26.7148 49.2734 26.7148 49.9414V53H25.7539V47H26.7148V48.2363H26.7383C26.875 47.8145 27.084 47.4863 27.3652 47.252C27.6465 47.0137 27.9609 46.8945 28.3086 46.8945C28.5586 46.8945 28.75 46.9219 28.8828 46.9766V47.9727ZM30.418 45.4766C30.2461 45.4766 30.0996 45.418 29.9785 45.3008C29.8574 45.1836 29.7969 45.0352 29.7969 44.8555C29.7969 44.6758 29.8574 44.5273 29.9785 44.4102C30.0996 44.2891 30.2461 44.2285 30.418 44.2285C30.5938 44.2285 30.7422 44.2891 30.8633 44.4102C30.9883 44.5273 31.0508 44.6758 31.0508 44.8555C31.0508 45.0273 30.9883 45.1738 30.8633 45.2949C30.7422 45.416 30.5938 45.4766 30.418 45.4766ZM30.8867 53H29.9258V47H30.8867V53ZM35.6152 52.9414C35.3887 53.0664 35.0898 53.1289 34.7188 53.1289C33.668 53.1289 33.1426 52.543 33.1426 51.3711V47.8203H32.1113V47H33.1426V45.5352L34.1035 45.2246V47H35.6152V47.8203H34.1035V51.2012C34.1035 51.6035 34.1719 51.8906 34.3086 52.0625C34.4453 52.2344 34.6719 52.3203 34.9883 52.3203C35.2305 52.3203 35.4395 52.2539 35.6152 52.1211V52.9414ZM41.6738 47L38.9141 53.9609C38.4219 55.2031 37.7305 55.8242 36.8398 55.8242C36.5898 55.8242 36.3809 55.7988 36.2129 55.748V54.8867C36.4199 54.957 36.6094 54.9922 36.7812 54.9922C37.2656 54.9922 37.6289 54.7031 37.8711 54.125L38.3516 52.9883L36.0078 47H37.0742L38.6973 51.6172C38.7168 51.6758 38.7578 51.8281 38.8203 52.0742H38.8555C38.875 51.9805 38.9141 51.832 38.9727 51.6289L40.6777 47H41.6738ZM49.8193 45.908C50.1633 45.94 50.4993 45.964 50.8273 45.98C51.1553 45.996 51.4993 46.004 51.8593 46.004C52.5793 46.004 53.2953 45.976 54.0073 45.92C54.7193 45.864 55.3793 45.776 55.9873 45.656V46.58C55.3473 46.684 54.6713 46.76 53.9593 46.808C53.2553 46.856 52.5473 46.884 51.8353 46.892C51.4913 46.892 51.1553 46.884 50.8273 46.868C50.5073 46.852 50.1713 46.832 49.8193 46.808V45.908ZM54.0193 43.76C54.0033 43.88 53.9873 44 53.9713 44.12C53.9633 44.24 53.9553 44.36 53.9473 44.48C53.9393 44.624 53.9313 44.808 53.9233 45.032C53.9153 45.256 53.9113 45.496 53.9113 45.752C53.9113 46 53.9113 46.244 53.9113 46.484C53.9113 46.94 53.9193 47.396 53.9353 47.852C53.9513 48.308 53.9713 48.752 53.9953 49.184C54.0193 49.616 54.0393 50.024 54.0553 50.408C54.0793 50.784 54.0913 51.128 54.0913 51.44C54.0913 51.68 54.0553 51.916 53.9833 52.148C53.9193 52.38 53.8073 52.588 53.6473 52.772C53.4953 52.956 53.2833 53.1 53.0113 53.204C52.7473 53.316 52.4153 53.372 52.0153 53.372C51.2073 53.372 50.5873 53.22 50.1553 52.916C49.7313 52.612 49.5193 52.192 49.5193 51.656C49.5193 51.32 49.6153 51.016 49.8073 50.744C50.0073 50.464 50.2873 50.244 50.6473 50.084C51.0153 49.924 51.4633 49.844 51.9913 49.844C52.5033 49.844 52.9713 49.904 53.3953 50.024C53.8273 50.136 54.2233 50.288 54.5833 50.48C54.9513 50.664 55.2873 50.872 55.5913 51.104C55.8953 51.328 56.1753 51.552 56.4313 51.776L55.9033 52.58C55.4873 52.18 55.0673 51.832 54.6433 51.536C54.2273 51.24 53.7953 51.008 53.3473 50.84C52.8993 50.672 52.4233 50.588 51.9193 50.588C51.4633 50.588 51.0913 50.68 50.8033 50.864C50.5233 51.04 50.3833 51.272 50.3833 51.56C50.3833 51.864 50.5193 52.1 50.7913 52.268C51.0633 52.428 51.4153 52.508 51.8473 52.508C52.1913 52.508 52.4553 52.452 52.6393 52.34C52.8313 52.228 52.9633 52.076 53.0353 51.884C53.1153 51.692 53.1553 51.464 53.1553 51.2C53.1553 50.984 53.1473 50.692 53.1313 50.324C53.1153 49.956 53.0953 49.556 53.0713 49.124C53.0473 48.684 53.0273 48.236 53.0113 47.78C52.9953 47.324 52.9873 46.896 52.9873 46.496C52.9873 46.088 52.9873 45.704 52.9873 45.344C52.9873 44.984 52.9873 44.7 52.9873 44.492C52.9873 44.388 52.9833 44.268 52.9753 44.132C52.9673 43.988 52.9553 43.864 52.9393 43.76H54.0193ZM48.0913 43.832C48.0673 43.896 48.0393 43.98 48.0073 44.084C47.9833 44.18 47.9593 44.28 47.9353 44.384C47.9193 44.488 47.9033 44.576 47.8873 44.648C47.8393 44.872 47.7873 45.14 47.7313 45.452C47.6833 45.756 47.6313 46.088 47.5753 46.448C47.5193 46.8 47.4673 47.16 47.4193 47.528C47.3793 47.888 47.3473 48.236 47.3233 48.572C47.2993 48.908 47.2873 49.212 47.2873 49.484C47.2873 49.772 47.2953 50.048 47.3113 50.312C47.3353 50.576 47.3673 50.856 47.4073 51.152C47.4713 50.968 47.5433 50.772 47.6233 50.564C47.7033 50.356 47.7833 50.148 47.8633 49.94C47.9513 49.732 48.0273 49.548 48.0913 49.388L48.5833 49.772C48.4873 50.044 48.3793 50.352 48.2593 50.696C48.1473 51.032 48.0393 51.356 47.9353 51.668C47.8393 51.972 47.7713 52.224 47.7313 52.424C47.7153 52.504 47.6993 52.596 47.6833 52.7C47.6753 52.804 47.6753 52.892 47.6833 52.964C47.6833 53.02 47.6833 53.088 47.6833 53.168C47.6913 53.248 47.6993 53.32 47.7073 53.384L46.8673 53.444C46.7473 53.012 46.6393 52.476 46.5433 51.836C46.4553 51.188 46.4113 50.46 46.4113 49.652C46.4113 49.204 46.4313 48.74 46.4713 48.26C46.5193 47.772 46.5713 47.296 46.6273 46.832C46.6913 46.368 46.7513 45.944 46.8073 45.56C46.8713 45.168 46.9233 44.848 46.9633 44.6C46.9793 44.464 46.9953 44.32 47.0113 44.168C47.0273 44.016 47.0353 43.876 47.0353 43.748L48.0913 43.832ZM61.4258 53V44.5977H63.8164C64.543 44.5977 65.1191 44.7754 65.5449 45.1309C65.9707 45.4863 66.1836 45.9492 66.1836 46.5195C66.1836 46.9961 66.0547 47.4102 65.7969 47.7617C65.5391 48.1133 65.1836 48.3633 64.7305 48.5117V48.5352C65.2969 48.6016 65.75 48.8164 66.0898 49.1797C66.4297 49.5391 66.5996 50.0078 66.5996 50.5859C66.5996 51.3047 66.3418 51.8867 65.8262 52.332C65.3105 52.7773 64.6602 53 63.875 53H61.4258ZM62.4102 45.4883V48.2012H63.418C63.957 48.2012 64.3809 48.0723 64.6895 47.8145C64.998 47.5527 65.1523 47.1855 65.1523 46.7129C65.1523 45.8965 64.6152 45.4883 63.541 45.4883H62.4102ZM62.4102 49.0859V52.1094H63.7461C64.3242 52.1094 64.7715 51.9727 65.0879 51.6992C65.4082 51.4258 65.5684 51.0508 65.5684 50.5742C65.5684 49.582 64.8926 49.0859 63.541 49.0859H62.4102ZM72.6641 53H68.3047V44.5977H69.2891V52.1094H72.6641V53ZM76.9297 53.1406C75.7383 53.1406 74.7832 52.748 74.0645 51.9629C73.3496 51.1777 72.9922 50.1562 72.9922 48.8984C72.9922 47.5469 73.3574 46.4688 74.0879 45.6641C74.8184 44.8594 75.8125 44.457 77.0703 44.457C78.2305 44.457 79.1641 44.8477 79.8711 45.6289C80.582 46.4102 80.9375 47.4316 80.9375 48.6934C80.9375 50.0645 80.5742 51.1484 79.8477 51.9453C79.1211 52.7422 78.1484 53.1406 76.9297 53.1406ZM77 45.3477C76.1172 45.3477 75.4004 45.666 74.8496 46.3027C74.2988 46.9395 74.0234 47.7754 74.0234 48.8105C74.0234 49.8457 74.291 50.6797 74.8262 51.3125C75.3652 51.9414 76.0664 52.2559 76.9297 52.2559C77.8516 52.2559 78.5781 51.9551 79.1094 51.3535C79.6406 50.752 79.9062 49.9102 79.9062 48.8281C79.9062 47.7188 79.6484 46.8613 79.1328 46.2559C78.6172 45.6504 77.9062 45.3477 77 45.3477ZM82.5898 53V44.5977H84.9805C85.707 44.5977 86.2832 44.7754 86.709 45.1309C87.1348 45.4863 87.3477 45.9492 87.3477 46.5195C87.3477 46.9961 87.2188 47.4102 86.9609 47.7617C86.7031 48.1133 86.3477 48.3633 85.8945 48.5117V48.5352C86.4609 48.6016 86.9141 48.8164 87.2539 49.1797C87.5938 49.5391 87.7637 50.0078 87.7637 50.5859C87.7637 51.3047 87.5059 51.8867 86.9902 52.332C86.4746 52.7773 85.8242 53 85.0391 53H82.5898ZM83.5742 45.4883V48.2012H84.582C85.1211 48.2012 85.5449 48.0723 85.8535 47.8145C86.1621 47.5527 86.3164 47.1855 86.3164 46.7129C86.3164 45.8965 85.7793 45.4883 84.7051 45.4883H83.5742ZM83.5742 49.0859V52.1094H84.9102C85.4883 52.1094 85.9355 51.9727 86.252 51.6992C86.5723 51.4258 86.7324 51.0508 86.7324 50.5742C86.7324 49.582 86.0566 49.0859 84.7051 49.0859H83.5742ZM10.436 60.228C10.612 60.244 10.788 60.26 10.964 60.276C11.148 60.292 11.336 60.3 11.528 60.3C11.664 60.3 11.872 60.3 12.152 60.3C12.432 60.3 12.744 60.3 13.088 60.3C13.44 60.3 13.788 60.3 14.132 60.3C14.476 60.3 14.784 60.3 15.056 60.3C15.336 60.3 15.544 60.3 15.68 60.3C15.848 60.3 16.032 60.296 16.232 60.288C16.44 60.272 16.628 60.252 16.796 60.228V61.224C16.62 61.208 16.432 61.2 16.232 61.2C16.04 61.192 15.856 61.188 15.68 61.188C15.544 61.188 15.336 61.188 15.056 61.188C14.784 61.188 14.476 61.188 14.132 61.188C13.788 61.188 13.444 61.188 13.1 61.188C12.756 61.188 12.444 61.188 12.164 61.188C11.884 61.188 11.676 61.188 11.54 61.188C11.34 61.188 11.144 61.192 10.952 61.2C10.768 61.2 10.596 61.208 10.436 61.224V60.228ZM9.02 63.24C9.18 63.256 9.344 63.272 9.512 63.288C9.688 63.296 9.868 63.3 10.052 63.3C10.156 63.3 10.36 63.3 10.664 63.3C10.976 63.3 11.352 63.3 11.792 63.3C12.24 63.3 12.72 63.3 13.232 63.3C13.744 63.3 14.256 63.3 14.768 63.3C15.28 63.3 15.756 63.3 16.196 63.3C16.644 63.3 17.02 63.3 17.324 63.3C17.628 63.3 17.824 63.3 17.912 63.3C18.04 63.3 18.192 63.296 18.368 63.288C18.544 63.28 18.704 63.264 18.848 63.24V64.236C18.72 64.228 18.568 64.224 18.392 64.224C18.224 64.216 18.064 64.212 17.912 64.212C17.824 64.212 17.628 64.212 17.324 64.212C17.02 64.212 16.644 64.212 16.196 64.212C15.756 64.212 15.28 64.212 14.768 64.212C14.256 64.212 13.744 64.212 13.232 64.212C12.72 64.212 12.24 64.212 11.792 64.212C11.352 64.212 10.976 64.212 10.664 64.212C10.36 64.212 10.156 64.212 10.052 64.212C9.876 64.212 9.7 64.212 9.524 64.212C9.348 64.212 9.18 64.22 9.02 64.236V63.24ZM14.66 63.732C14.66 64.484 14.604 65.176 14.492 65.808C14.388 66.432 14.204 66.996 13.94 67.5C13.796 67.764 13.6 68.032 13.352 68.304C13.112 68.568 12.84 68.82 12.536 69.06C12.24 69.3 11.92 69.508 11.576 69.684L10.688 69.024C11.152 68.832 11.588 68.572 11.996 68.244C12.404 67.916 12.724 67.564 12.956 67.188C13.26 66.708 13.452 66.18 13.532 65.604C13.612 65.02 13.652 64.396 13.652 63.732H14.66ZM17.42 59.256C17.524 59.392 17.636 59.56 17.756 59.76C17.876 59.952 17.992 60.148 18.104 60.348C18.224 60.548 18.324 60.732 18.404 60.9L17.756 61.188C17.636 60.94 17.484 60.66 17.3 60.348C17.116 60.028 16.944 59.752 16.784 59.52L17.42 59.256ZM18.74 58.776C18.844 58.92 18.96 59.092 19.088 59.292C19.216 59.492 19.34 59.692 19.46 59.892C19.58 60.084 19.676 60.256 19.748 60.408L19.1 60.696C18.972 60.432 18.816 60.148 18.632 59.844C18.456 59.532 18.28 59.264 18.104 59.04L18.74 58.776ZM21.224 63.804C21.344 63.812 21.492 63.824 21.668 63.84C21.844 63.848 22.036 63.856 22.244 63.864C22.46 63.864 22.676 63.864 22.892 63.864C23.02 63.864 23.216 63.864 23.48 63.864C23.752 63.864 24.068 63.864 24.428 63.864C24.788 63.864 25.168 63.864 25.568 63.864C25.976 63.864 26.38 63.864 26.78 63.864C27.188 63.864 27.572 63.864 27.932 63.864C28.3 63.864 28.616 63.864 28.88 63.864C29.144 63.864 29.34 63.864 29.468 63.864C29.772 63.864 30.032 63.856 30.248 63.84C30.464 63.824 30.636 63.812 30.764 63.804V64.98C30.644 64.972 30.464 64.96 30.224 64.944C29.992 64.928 29.744 64.92 29.48 64.92C29.352 64.92 29.152 64.92 28.88 64.92C28.608 64.92 28.292 64.92 27.932 64.92C27.58 64.92 27.2 64.92 26.792 64.92C26.384 64.92 25.976 64.92 25.568 64.92C25.168 64.92 24.788 64.92 24.428 64.92C24.076 64.92 23.764 64.92 23.492 64.92C23.22 64.92 23.02 64.92 22.892 64.92C22.564 64.92 22.252 64.928 21.956 64.944C21.66 64.952 21.416 64.964 21.224 64.98V63.804ZM36.98 63.504C37.364 63.728 37.768 63.976 38.192 64.248C38.616 64.52 39.036 64.804 39.452 65.1C39.876 65.388 40.28 65.672 40.664 65.952C41.048 66.232 41.388 66.496 41.684 66.744L40.976 67.572C40.704 67.324 40.376 67.052 39.992 66.756C39.616 66.452 39.216 66.148 38.792 65.844C38.368 65.532 37.944 65.232 37.52 64.944C37.096 64.656 36.7 64.396 36.332 64.164L36.98 63.504ZM42.476 61.308C42.42 61.396 42.368 61.504 42.32 61.632C42.272 61.752 42.228 61.86 42.188 61.956C42.076 62.364 41.916 62.804 41.708 63.276C41.5 63.748 41.256 64.224 40.976 64.704C40.696 65.176 40.376 65.632 40.016 66.072C39.48 66.736 38.808 67.376 38 67.992C37.2 68.6 36.232 69.112 35.096 69.528L34.232 68.784C34.976 68.552 35.652 68.268 36.26 67.932C36.876 67.588 37.428 67.212 37.916 66.804C38.404 66.396 38.828 65.976 39.188 65.544C39.5 65.176 39.784 64.772 40.04 64.332C40.304 63.892 40.532 63.456 40.724 63.024C40.916 62.584 41.056 62.176 41.144 61.8H36.692L37.076 60.948H40.892C41.052 60.948 41.2 60.94 41.336 60.924C41.472 60.9 41.588 60.868 41.684 60.828L42.476 61.308ZM38.432 59.58C38.328 59.74 38.228 59.908 38.132 60.084C38.036 60.26 37.956 60.404 37.892 60.516C37.652 60.956 37.34 61.44 36.956 61.968C36.58 62.488 36.136 63.008 35.624 63.528C35.12 64.048 34.548 64.532 33.908 64.98L33.104 64.356C33.792 63.932 34.388 63.464 34.892 62.952C35.396 62.44 35.82 61.94 36.164 61.452C36.508 60.964 36.772 60.54 36.956 60.18C37.02 60.076 37.092 59.932 37.172 59.748C37.252 59.556 37.308 59.384 37.34 59.232L38.432 59.58ZM49.52 59.508C49.472 59.748 49.408 60.032 49.328 60.36C49.256 60.68 49.136 61.044 48.968 61.452C48.824 61.812 48.644 62.184 48.428 62.568C48.22 62.952 47.996 63.3 47.756 63.612C47.908 63.516 48.08 63.436 48.272 63.372C48.464 63.3 48.66 63.248 48.86 63.216C49.068 63.184 49.256 63.168 49.424 63.168C49.888 63.168 50.28 63.3 50.6 63.564C50.92 63.82 51.08 64.196 51.08 64.692C51.08 64.844 51.08 65.04 51.08 65.28C51.08 65.512 51.08 65.76 51.08 66.024C51.088 66.28 51.096 66.532 51.104 66.78C51.112 67.028 51.116 67.244 51.116 67.428H50.192C50.2 67.268 50.208 67.08 50.216 66.864C50.224 66.648 50.228 66.42 50.228 66.18C50.236 65.94 50.236 65.712 50.228 65.496C50.228 65.28 50.228 65.096 50.228 64.944C50.228 64.592 50.12 64.336 49.904 64.176C49.696 64.008 49.432 63.924 49.112 63.924C48.736 63.924 48.364 64.008 47.996 64.176C47.636 64.336 47.32 64.544 47.048 64.8C46.872 64.968 46.696 65.16 46.52 65.376C46.352 65.584 46.164 65.808 45.956 66.048L45.14 65.448C45.716 64.888 46.196 64.364 46.58 63.876C46.964 63.388 47.276 62.936 47.516 62.52C47.756 62.096 47.944 61.716 48.08 61.38C48.208 61.044 48.312 60.708 48.392 60.372C48.472 60.028 48.52 59.712 48.536 59.424L49.52 59.508ZM45.416 60.804C45.736 60.844 46.084 60.876 46.46 60.9C46.836 60.924 47.164 60.936 47.444 60.936C47.98 60.936 48.556 60.924 49.172 60.9C49.788 60.868 50.408 60.824 51.032 60.768C51.664 60.712 52.264 60.632 52.832 60.528L52.82 61.416C52.404 61.488 51.96 61.548 51.488 61.596C51.016 61.636 50.536 61.672 50.048 61.704C49.56 61.728 49.088 61.748 48.632 61.764C48.184 61.772 47.768 61.776 47.384 61.776C47.216 61.776 47.02 61.776 46.796 61.776C46.58 61.768 46.352 61.76 46.112 61.752C45.872 61.736 45.64 61.72 45.416 61.704V60.804ZM54.584 63.708C54.48 63.732 54.364 63.768 54.236 63.816C54.116 63.856 53.992 63.9 53.864 63.948C53.744 63.996 53.628 64.044 53.516 64.092C53.1 64.252 52.616 64.448 52.064 64.68C51.512 64.912 50.948 65.18 50.372 65.484C49.972 65.684 49.62 65.896 49.316 66.12C49.012 66.336 48.772 66.564 48.596 66.804C48.42 67.036 48.332 67.292 48.332 67.572C48.332 67.804 48.384 67.992 48.488 68.136C48.6 68.28 48.756 68.392 48.956 68.472C49.156 68.544 49.384 68.592 49.64 68.616C49.904 68.64 50.192 68.652 50.504 68.652C50.968 68.652 51.496 68.628 52.088 68.58C52.688 68.524 53.252 68.452 53.78 68.364L53.756 69.324C53.452 69.364 53.108 69.4 52.724 69.432C52.348 69.464 51.964 69.488 51.572 69.504C51.188 69.528 50.82 69.54 50.468 69.54C49.9 69.54 49.38 69.488 48.908 69.384C48.444 69.28 48.072 69.096 47.792 68.832C47.512 68.568 47.372 68.192 47.372 67.704C47.372 67.344 47.456 67.016 47.624 66.72C47.792 66.416 48.016 66.14 48.296 65.892C48.584 65.644 48.9 65.416 49.244 65.208C49.588 64.992 49.94 64.796 50.3 64.62C50.684 64.412 51.044 64.232 51.38 64.08C51.724 63.928 52.048 63.788 52.352 63.66C52.656 63.532 52.94 63.404 53.204 63.276C53.38 63.196 53.548 63.12 53.708 63.048C53.868 62.976 54.028 62.896 54.188 62.808L54.584 63.708ZM60.788 63.528H67.376V65.652H66.536V64.26H61.604V65.652H60.788V63.528ZM64.628 65.064H65.48V68.676C65.48 68.82 65.496 68.912 65.528 68.952C65.56 68.992 65.64 69.012 65.768 69.012C65.808 69.012 65.88 69.012 65.984 69.012C66.096 69.012 66.208 69.012 66.32 69.012C66.432 69.012 66.512 69.012 66.56 69.012C66.648 69.012 66.712 68.976 66.752 68.904C66.8 68.832 66.832 68.684 66.848 68.46C66.872 68.228 66.888 67.884 66.896 67.428C66.96 67.476 67.036 67.524 67.124 67.572C67.212 67.612 67.304 67.652 67.4 67.692C67.496 67.724 67.584 67.752 67.664 67.776C67.64 68.312 67.592 68.728 67.52 69.024C67.456 69.328 67.356 69.536 67.22 69.648C67.084 69.76 66.896 69.816 66.656 69.816C66.616 69.816 66.548 69.816 66.452 69.816C66.356 69.816 66.252 69.816 66.14 69.816C66.036 69.816 65.936 69.816 65.84 69.816C65.752 69.816 65.688 69.816 65.648 69.816C65.376 69.816 65.164 69.78 65.012 69.708C64.868 69.644 64.768 69.528 64.712 69.36C64.656 69.2 64.628 68.972 64.628 68.676V65.064ZM62.564 65.052H63.416C63.384 65.7 63.328 66.284 63.248 66.804C63.168 67.316 63.036 67.772 62.852 68.172C62.668 68.564 62.408 68.908 62.072 69.204C61.744 69.508 61.312 69.764 60.776 69.972C60.744 69.9 60.696 69.82 60.632 69.732C60.576 69.644 60.512 69.556 60.44 69.468C60.376 69.388 60.312 69.32 60.248 69.264C60.736 69.088 61.128 68.876 61.424 68.628C61.72 68.38 61.944 68.088 62.096 67.752C62.256 67.408 62.368 67.016 62.432 66.576C62.496 66.128 62.54 65.62 62.564 65.052ZM60.836 60H67.328V60.756H60.836V60ZM61.232 61.884H66.968V62.64H61.232V61.884ZM63.572 58.908H64.46V62.28H63.572V58.908ZM56.972 62.556H60.212V63.264H56.972V62.556ZM57.044 59.34H60.176V60.06H57.044V59.34ZM56.972 64.152H60.212V64.872H56.972V64.152ZM56.456 60.912H60.548V61.668H56.456V60.912ZM57.392 65.772H60.224V69.264H57.392V68.52H59.456V66.516H57.392V65.772ZM56.96 65.772H57.728V69.828H56.96V65.772ZM70.676 60.204C70.828 60.212 70.984 60.22 71.144 60.228C71.312 60.236 71.456 60.24 71.576 60.24C71.736 60.24 71.94 60.236 72.188 60.228C72.444 60.22 72.708 60.208 72.98 60.192C73.252 60.176 73.508 60.164 73.748 60.156C73.988 60.14 74.168 60.128 74.288 60.12C74.408 60.104 74.516 60.088 74.612 60.072C74.716 60.048 74.808 60.02 74.888 59.988L75.488 60.48C75.432 60.544 75.376 60.608 75.32 60.672C75.272 60.736 75.224 60.804 75.176 60.876C75.048 61.084 74.896 61.38 74.72 61.764C74.544 62.14 74.356 62.552 74.156 63C73.964 63.44 73.772 63.864 73.58 64.272C73.46 64.544 73.328 64.84 73.184 65.16C73.048 65.472 72.908 65.792 72.764 66.12C72.62 66.44 72.476 66.74 72.332 67.02C72.196 67.3 72.064 67.532 71.936 67.716C71.72 68.02 71.492 68.236 71.252 68.364C71.012 68.484 70.736 68.544 70.424 68.544C69.976 68.544 69.604 68.396 69.308 68.1C69.012 67.804 68.864 67.404 68.864 66.9C68.864 66.452 68.964 66.036 69.164 65.652C69.372 65.26 69.656 64.92 70.016 64.632C70.384 64.344 70.82 64.12 71.324 63.96C71.836 63.8 72.396 63.72 73.004 63.72C73.676 63.72 74.324 63.8 74.948 63.96C75.58 64.112 76.168 64.312 76.712 64.56C77.264 64.8 77.764 65.056 78.212 65.328C78.668 65.592 79.056 65.84 79.376 66.072L78.932 67.104C78.58 66.8 78.184 66.5 77.744 66.204C77.304 65.9 76.824 65.624 76.304 65.376C75.784 65.128 75.232 64.928 74.648 64.776C74.072 64.624 73.476 64.548 72.86 64.548C72.204 64.548 71.64 64.66 71.168 64.884C70.704 65.1 70.348 65.38 70.1 65.724C69.86 66.06 69.74 66.412 69.74 66.78C69.74 67.044 69.812 67.248 69.956 67.392C70.108 67.528 70.276 67.596 70.46 67.596C70.596 67.596 70.72 67.564 70.832 67.5C70.944 67.436 71.06 67.328 71.18 67.176C71.308 67.008 71.436 66.804 71.564 66.564C71.692 66.324 71.82 66.064 71.948 65.784C72.076 65.504 72.2 65.22 72.32 64.932C72.44 64.644 72.56 64.376 72.68 64.128C72.84 63.776 73 63.412 73.16 63.036C73.328 62.66 73.492 62.296 73.652 61.944C73.82 61.592 73.972 61.272 74.108 60.984C73.988 60.992 73.816 61 73.592 61.008C73.376 61.016 73.14 61.028 72.884 61.044C72.628 61.052 72.384 61.064 72.152 61.08C71.928 61.088 71.748 61.096 71.612 61.104C71.484 61.112 71.34 61.124 71.18 61.14C71.02 61.148 70.868 61.16 70.724 61.176L70.676 60.204ZM78.176 62.832C78.136 63.68 78.052 64.452 77.924 65.148C77.796 65.844 77.6 66.472 77.336 67.032C77.072 67.592 76.712 68.096 76.256 68.544C75.8 68.984 75.224 69.376 74.528 69.72L73.736 69.06C74.44 68.764 75.012 68.412 75.452 68.004C75.892 67.588 76.232 67.144 76.472 66.672C76.72 66.192 76.892 65.708 76.988 65.22C77.092 64.732 77.164 64.268 77.204 63.828C77.212 63.644 77.216 63.456 77.216 63.264C77.224 63.072 77.22 62.892 77.204 62.724L78.176 62.832ZM86.132 60.576H90.572V61.452H86.132V60.576ZM80.576 59.664H86.432V60.516H80.576V59.664ZM81.98 62.112H85.088V62.928H81.98V62.112ZM81.98 64.608H85.088V65.424H81.98V64.608ZM90.296 60.576H90.464L90.62 60.54L91.196 60.696C91.004 62.296 90.68 63.684 90.224 64.86C89.768 66.028 89.2 67.02 88.52 67.836C87.848 68.644 87.08 69.296 86.216 69.792C86.144 69.68 86.052 69.548 85.94 69.396C85.828 69.252 85.724 69.136 85.628 69.048C86.42 68.64 87.136 68.056 87.776 67.296C88.416 66.536 88.952 65.612 89.384 64.524C89.824 63.436 90.128 62.188 90.296 60.78V60.576ZM87.224 61.5C87.44 62.652 87.744 63.724 88.136 64.716C88.528 65.708 89.016 66.58 89.6 67.332C90.192 68.076 90.9 68.66 91.724 69.084C91.66 69.14 91.588 69.212 91.508 69.3C91.428 69.388 91.352 69.476 91.28 69.564C91.208 69.66 91.148 69.748 91.1 69.828C90.228 69.34 89.484 68.7 88.868 67.908C88.26 67.108 87.752 66.184 87.344 65.136C86.944 64.08 86.616 62.924 86.36 61.668L87.224 61.5ZM81.5 59.988H82.364V67.776H81.5V59.988ZM84.716 59.988H85.592V69.936H84.716V59.988ZM80.324 67.524C80.724 67.468 81.18 67.408 81.692 67.344C82.204 67.272 82.748 67.196 83.324 67.116C83.908 67.028 84.492 66.94 85.076 66.852L85.124 67.68C84.3 67.816 83.476 67.952 82.652 68.088C81.836 68.216 81.116 68.324 80.492 68.412L80.324 67.524ZM37.8696 84.088C37.5496 84.408 37.2056 84.656 36.8376 84.832C36.4696 85 36.0776 85.084 35.6616 85.084C35.2696 85.084 34.9496 84.956 34.7016 84.7C34.4536 84.444 34.3296 84.068 34.3296 83.572C34.3296 83.236 34.3536 82.872 34.4016 82.48C34.4496 82.088 34.5016 81.688 34.5576 81.28C34.6136 80.864 34.6656 80.472 34.7136 80.104C34.7616 79.728 34.7856 79.392 34.7856 79.096C34.7856 78.752 34.7016 78.504 34.5336 78.352C34.3656 78.192 34.1256 78.112 33.8136 78.112C33.5336 78.112 33.2216 78.196 32.8776 78.364C32.5336 78.524 32.1816 78.744 31.8216 79.024C31.4616 79.296 31.1096 79.604 30.7656 79.948C30.4216 80.284 30.1056 80.62 29.8176 80.956L29.8416 79.768C29.9936 79.608 30.1856 79.42 30.4176 79.204C30.6576 78.988 30.9216 78.764 31.2096 78.532C31.5056 78.3 31.8176 78.084 32.1456 77.884C32.4736 77.684 32.7976 77.524 33.1176 77.404C33.4456 77.284 33.7576 77.224 34.0536 77.224C34.4296 77.224 34.7416 77.292 34.9896 77.428C35.2376 77.556 35.4216 77.744 35.5416 77.992C35.6616 78.232 35.7216 78.512 35.7216 78.832C35.7216 79.128 35.6976 79.472 35.6496 79.864C35.6096 80.248 35.5576 80.648 35.4936 81.064C35.4376 81.48 35.3856 81.884 35.3376 82.276C35.2976 82.668 35.2776 83.016 35.2776 83.32C35.2776 83.52 35.3256 83.692 35.4216 83.836C35.5256 83.98 35.6856 84.052 35.9016 84.052C36.1896 84.052 36.4856 83.968 36.7896 83.8C37.1016 83.624 37.4096 83.376 37.7136 83.056L37.8696 84.088ZM29.8056 78.352C29.7096 78.36 29.5616 78.38 29.3616 78.412C29.1696 78.436 28.9496 78.464 28.7016 78.496C28.4536 78.528 28.2016 78.564 27.9456 78.604C27.6896 78.636 27.4496 78.668 27.2256 78.7L27.1296 77.716C27.2576 77.724 27.3816 77.728 27.5016 77.728C27.6296 77.72 27.7656 77.712 27.9096 77.704C28.0776 77.696 28.2816 77.68 28.5216 77.656C28.7696 77.624 29.0256 77.592 29.2896 77.56C29.5616 77.52 29.8136 77.48 30.0456 77.44C30.2856 77.392 30.4736 77.344 30.6096 77.296L30.9576 77.716C30.8856 77.812 30.8056 77.932 30.7176 78.076C30.6296 78.212 30.5416 78.352 30.4536 78.496C30.3656 78.64 30.2896 78.768 30.2256 78.88L29.8536 80.512C29.7176 80.728 29.5496 80.984 29.3496 81.28C29.1496 81.576 28.9376 81.888 28.7136 82.216C28.4976 82.536 28.2776 82.856 28.0536 83.176C27.8296 83.488 27.6256 83.776 27.4416 84.04L26.8296 83.212C26.9816 83.028 27.1576 82.804 27.3576 82.54C27.5656 82.268 27.7816 81.976 28.0056 81.664C28.2376 81.352 28.4616 81.048 28.6776 80.752C28.9016 80.448 29.0976 80.168 29.2656 79.912C29.4416 79.656 29.5736 79.448 29.6616 79.288L29.7096 78.676L29.8056 78.352ZM29.6976 76.36C29.6976 76.224 29.6936 76.08 29.6856 75.928C29.6856 75.776 29.6736 75.624 29.6496 75.472L30.7776 75.508C30.7456 75.668 30.7056 75.92 30.6576 76.264C30.6096 76.6 30.5616 77 30.5136 77.464C30.4736 77.928 30.4296 78.416 30.3816 78.928C30.3416 79.44 30.3096 79.948 30.2856 80.452C30.2616 80.948 30.2496 81.408 30.2496 81.832C30.2496 82.192 30.2496 82.528 30.2496 82.84C30.2496 83.144 30.2536 83.448 30.2616 83.752C30.2696 84.048 30.2816 84.372 30.2976 84.724C30.3056 84.828 30.3136 84.948 30.3216 85.084C30.3296 85.22 30.3416 85.344 30.3576 85.456H29.3136C29.3296 85.344 29.3376 85.22 29.3376 85.084C29.3456 84.956 29.3496 84.844 29.3496 84.748C29.3576 84.364 29.3616 84.024 29.3616 83.728C29.3616 83.432 29.3616 83.128 29.3616 82.816C29.3696 82.496 29.3776 82.116 29.3856 81.676C29.3856 81.5 29.3936 81.26 29.4096 80.956C29.4256 80.644 29.4456 80.304 29.4696 79.936C29.4936 79.56 29.5176 79.18 29.5416 78.796C29.5656 78.412 29.5896 78.052 29.6136 77.716C29.6376 77.372 29.6576 77.08 29.6736 76.84C29.6896 76.6 29.6976 76.44 29.6976 76.36ZM45.0576 75.472C45.0416 75.576 45.0256 75.692 45.0096 75.82C45.0016 75.948 44.9936 76.1 44.9856 76.276C44.9856 76.396 44.9816 76.576 44.9736 76.816C44.9736 77.056 44.9736 77.328 44.9736 77.632C44.9736 77.928 44.9736 78.228 44.9736 78.532C44.9736 78.836 44.9736 79.116 44.9736 79.372C44.9736 79.772 44.9816 80.192 44.9976 80.632C45.0136 81.072 45.0336 81.5 45.0576 81.916C45.0816 82.332 45.1016 82.712 45.1176 83.056C45.1336 83.4 45.1416 83.672 45.1416 83.872C45.1416 84.152 45.0736 84.42 44.9376 84.676C44.8096 84.932 44.5896 85.14 44.2776 85.3C43.9736 85.468 43.5576 85.552 43.0296 85.552C42.1656 85.552 41.5056 85.4 41.0496 85.096C40.5936 84.8 40.3656 84.364 40.3656 83.788C40.3656 83.42 40.4736 83.1 40.6896 82.828C40.9136 82.556 41.2336 82.344 41.6496 82.192C42.0656 82.032 42.5616 81.952 43.1376 81.952C43.7696 81.952 44.3616 82.028 44.9136 82.18C45.4736 82.324 45.9856 82.508 46.4496 82.732C46.9136 82.956 47.3256 83.192 47.6856 83.44C48.0456 83.68 48.3416 83.896 48.5736 84.088L48.0216 84.94C47.7496 84.684 47.4336 84.428 47.0736 84.172C46.7216 83.916 46.3336 83.68 45.9096 83.464C45.4936 83.248 45.0416 83.076 44.5536 82.948C44.0736 82.812 43.5616 82.744 43.0176 82.744C42.4416 82.744 42.0016 82.84 41.6976 83.032C41.4016 83.224 41.2536 83.46 41.2536 83.74C41.2536 83.916 41.3096 84.08 41.4216 84.232C41.5336 84.376 41.7136 84.492 41.9616 84.58C42.2096 84.668 42.5296 84.712 42.9216 84.712C43.1536 84.712 43.3656 84.684 43.5576 84.628C43.7496 84.564 43.9016 84.456 44.0136 84.304C44.1336 84.152 44.1936 83.94 44.1936 83.668C44.1936 83.436 44.1856 83.136 44.1696 82.768C44.1616 82.392 44.1496 81.996 44.1336 81.58C44.1176 81.156 44.1016 80.748 44.0856 80.356C44.0776 79.964 44.0736 79.636 44.0736 79.372C44.0736 79.1 44.0736 78.824 44.0736 78.544C44.0736 78.256 44.0736 77.972 44.0736 77.692C44.0736 77.412 44.0736 77.144 44.0736 76.888C44.0816 76.632 44.0856 76.4 44.0856 76.192C44.0856 76.096 44.0816 75.972 44.0736 75.82C44.0656 75.668 44.0536 75.552 44.0376 75.472H45.0576ZM40.4616 76.78C40.6616 76.812 40.8936 76.844 41.1576 76.876C41.4216 76.908 41.6976 76.94 41.9856 76.972C42.2816 76.996 42.5616 77.016 42.8256 77.032C43.0976 77.04 43.3336 77.044 43.5336 77.044C44.2936 77.044 45.0696 77.016 45.8616 76.96C46.6616 76.904 47.4496 76.812 48.2256 76.684L48.2136 77.56C47.7736 77.608 47.2936 77.656 46.7736 77.704C46.2536 77.752 45.7176 77.792 45.1656 77.824C44.6216 77.856 44.0816 77.872 43.5456 77.872C43.2656 77.872 42.9336 77.86 42.5496 77.836C42.1656 77.812 41.7856 77.784 41.4096 77.752C41.0416 77.72 40.7296 77.692 40.4736 77.668L40.4616 76.78ZM40.4016 79.324C40.6176 79.356 40.8576 79.388 41.1216 79.42C41.3856 79.452 41.6576 79.476 41.9376 79.492C42.2176 79.508 42.4856 79.524 42.7416 79.54C42.9976 79.548 43.2256 79.552 43.4256 79.552C44.0096 79.552 44.5736 79.54 45.1176 79.516C45.6696 79.484 46.2096 79.444 46.7376 79.396C47.2736 79.34 47.8016 79.272 48.3216 79.192L48.3096 80.092C47.9096 80.148 47.5096 80.196 47.1096 80.236C46.7176 80.268 46.3216 80.296 45.9216 80.32C45.5296 80.344 45.1256 80.364 44.7096 80.38C44.3016 80.388 43.8696 80.392 43.4136 80.392C43.1416 80.392 42.8256 80.384 42.4656 80.368C42.1136 80.352 41.7536 80.332 41.3856 80.308C41.0256 80.284 40.7016 80.256 40.4136 80.224L40.4016 79.324ZM58.6984 75.748C58.6904 75.812 58.6824 75.896 58.6744 76C58.6664 76.104 58.6584 76.212 58.6504 76.324C58.6504 76.428 58.6464 76.524 58.6384 76.612C58.6384 76.86 58.6344 77.116 58.6264 77.38C58.6264 77.644 58.6224 77.9 58.6144 78.148C58.6144 78.388 58.6104 78.612 58.6024 78.82C58.5944 79.124 58.5824 79.46 58.5664 79.828C58.5584 80.188 58.5424 80.532 58.5184 80.86C58.5024 81.188 58.4704 81.456 58.4224 81.664C58.3664 81.928 58.2664 82.108 58.1224 82.204C57.9864 82.3 57.7784 82.348 57.4984 82.348C57.3544 82.348 57.1784 82.34 56.9704 82.324C56.7624 82.3 56.5624 82.276 56.3704 82.252C56.1784 82.228 56.0264 82.204 55.9144 82.18L55.9384 81.352C56.1464 81.4 56.3624 81.44 56.5864 81.472C56.8184 81.496 57.0024 81.508 57.1384 81.508C57.2904 81.508 57.3984 81.488 57.4624 81.448C57.5344 81.408 57.5784 81.32 57.5944 81.184C57.6264 81.024 57.6504 80.816 57.6664 80.56C57.6824 80.296 57.6944 80.012 57.7024 79.708C57.7184 79.396 57.7304 79.1 57.7384 78.82C57.7384 78.596 57.7384 78.36 57.7384 78.112C57.7384 77.856 57.7384 77.604 57.7384 77.356C57.7384 77.1 57.7384 76.864 57.7384 76.648C57.7384 76.56 57.7344 76.46 57.7264 76.348C57.7264 76.236 57.7224 76.128 57.7144 76.024C57.7064 75.912 57.6944 75.82 57.6784 75.748H58.6984ZM53.9464 76.12C53.9304 76.264 53.9184 76.416 53.9104 76.576C53.9024 76.736 53.8984 76.908 53.8984 77.092C53.8984 77.348 53.8944 77.676 53.8864 78.076C53.8864 78.468 53.8824 78.888 53.8744 79.336C53.8744 79.776 53.8744 80.208 53.8744 80.632C53.8744 81.056 53.8744 81.436 53.8744 81.772C53.8744 82.108 53.8784 82.36 53.8864 82.528C53.9024 82.848 53.9224 83.12 53.9464 83.344C53.9784 83.568 54.0584 83.748 54.1864 83.884C54.3144 84.02 54.5224 84.12 54.8104 84.184C55.0984 84.248 55.5024 84.28 56.0224 84.28C56.4544 84.28 56.8944 84.268 57.3424 84.244C57.7904 84.212 58.2104 84.176 58.6024 84.136C59.0024 84.088 59.3304 84.04 59.5864 83.992L59.5504 85.012C59.2864 85.036 58.9584 85.064 58.5664 85.096C58.1744 85.128 57.7624 85.152 57.3304 85.168C56.8984 85.192 56.4784 85.204 56.0704 85.204C55.3744 85.204 54.8224 85.16 54.4144 85.072C54.0064 84.984 53.7024 84.844 53.5024 84.652C53.3024 84.452 53.1664 84.188 53.0944 83.86C53.0304 83.532 52.9904 83.132 52.9744 82.66C52.9744 82.492 52.9704 82.256 52.9624 81.952C52.9624 81.64 52.9624 81.292 52.9624 80.908C52.9624 80.516 52.9624 80.12 52.9624 79.72C52.9624 79.32 52.9624 78.94 52.9624 78.58C52.9704 78.22 52.9744 77.912 52.9744 77.656C52.9744 77.4 52.9744 77.228 52.9744 77.14C52.9744 76.956 52.9664 76.788 52.9504 76.636C52.9424 76.476 52.9264 76.304 52.9024 76.12H53.9464ZM50.3584 79C50.5504 79 50.7504 78.992 50.9584 78.976C51.1744 78.96 51.3904 78.944 51.6064 78.928C51.8704 78.904 52.2464 78.868 52.7344 78.82C53.2224 78.772 53.7744 78.72 54.3904 78.664C55.0144 78.608 55.6584 78.552 56.3224 78.496C56.9864 78.432 57.6304 78.376 58.2544 78.328C58.8864 78.272 59.4504 78.232 59.9464 78.208C60.0984 78.192 60.2544 78.18 60.4144 78.172C60.5824 78.164 60.7384 78.156 60.8824 78.148V79.084C60.8184 79.076 60.7304 79.076 60.6184 79.084C60.5144 79.084 60.3984 79.084 60.2704 79.084C60.1504 79.084 60.0384 79.084 59.9344 79.084C59.6144 79.092 59.2264 79.112 58.7704 79.144C58.3144 79.168 57.8184 79.204 57.2824 79.252C56.7544 79.292 56.2144 79.34 55.6624 79.396C55.1104 79.444 54.5784 79.496 54.0664 79.552C53.5544 79.608 53.0904 79.66 52.6744 79.708C52.2664 79.748 51.9344 79.784 51.6784 79.816C51.5584 79.832 51.4224 79.852 51.2704 79.876C51.1264 79.892 50.9824 79.912 50.8384 79.936C50.6944 79.952 50.5704 79.968 50.4664 79.984L50.3584 79ZM68.3824 76.096C68.3344 76.16 68.2744 76.248 68.2024 76.36C68.1384 76.464 68.0704 76.572 67.9984 76.684C67.8624 76.884 67.6984 77.152 67.5064 77.488C67.3224 77.816 67.1224 78.172 66.9064 78.556C66.6904 78.932 66.4784 79.304 66.2704 79.672C66.0704 80.04 65.8944 80.372 65.7424 80.668C66.0304 80.404 66.3264 80.216 66.6304 80.104C66.9424 79.984 67.2424 79.924 67.5304 79.924C67.9304 79.924 68.2584 80.048 68.5144 80.296C68.7784 80.544 68.9184 80.904 68.9344 81.376C68.9424 81.616 68.9464 81.872 68.9464 82.144C68.9544 82.408 68.9584 82.668 68.9584 82.924C68.9584 83.172 68.9664 83.396 68.9824 83.596C69.0064 83.9 69.1104 84.12 69.2944 84.256C69.4784 84.384 69.6984 84.448 69.9544 84.448C70.2824 84.448 70.5784 84.36 70.8424 84.184C71.1144 84 71.3504 83.76 71.5504 83.464C71.7584 83.168 71.9304 82.848 72.0664 82.504C72.2024 82.16 72.3104 81.832 72.3904 81.52L73.1824 82.168C72.9744 82.808 72.7184 83.376 72.4144 83.872C72.1104 84.36 71.7424 84.744 71.3104 85.024C70.8864 85.304 70.3824 85.444 69.7984 85.444C69.3744 85.444 69.0344 85.364 68.7784 85.204C68.5304 85.052 68.3504 84.86 68.2384 84.628C68.1344 84.396 68.0744 84.16 68.0584 83.92C68.0504 83.688 68.0424 83.436 68.0344 83.164C68.0344 82.892 68.0344 82.624 68.0344 82.36C68.0344 82.096 68.0264 81.856 68.0104 81.64C67.9944 81.376 67.9104 81.172 67.7584 81.028C67.6144 80.876 67.4064 80.8 67.1344 80.8C66.8144 80.8 66.5024 80.896 66.1984 81.088C65.9024 81.272 65.6304 81.512 65.3824 81.808C65.1424 82.104 64.9464 82.412 64.7944 82.732C64.7064 82.908 64.6064 83.12 64.4944 83.368C64.3904 83.616 64.2904 83.872 64.1944 84.136C64.0984 84.4 64.0104 84.648 63.9304 84.88C63.8584 85.112 63.8024 85.304 63.7624 85.456L62.7304 85.096C62.8744 84.688 63.0624 84.224 63.2944 83.704C63.5264 83.184 63.7784 82.64 64.0504 82.072C64.3224 81.496 64.6024 80.928 64.8904 80.368C65.1784 79.8 65.4504 79.268 65.7064 78.772C65.9704 78.268 66.2064 77.828 66.4144 77.452C66.6224 77.068 66.7784 76.78 66.8824 76.588C66.9544 76.444 67.0264 76.3 67.0984 76.156C67.1784 76.004 67.2544 75.84 67.3264 75.664L68.3824 76.096Z" fill="#020057"/>
</svg>
