<svg width="100%" viewBox="0 0 100 112" fill="none" xmlns="http://www.w3.org/2000/svg">
<rect width="100" height="112" fill="#FBFBFE"/>
<path d="M55.75 11C57.5449 11 59 12.4551 59 14.25V25.75C59 27.5449 57.5449 29 55.75 29H44.25C42.4551 29 41 27.5449 41 25.75V14.25C41 12.4551 42.4551 11 44.25 11H55.75ZM56.3305 27.4014L50.5247 21.7148C50.2596 21.4553 49.8501 21.4316 49.5588 21.644L49.4752 21.7148L43.6685 27.4011C43.8504 27.4651 44.0461 27.5 44.25 27.5H55.75C55.9535 27.5 56.1489 27.4653 56.3305 27.4014L50.5247 21.7148L56.3305 27.4014ZM55.75 12.5H44.25C43.2835 12.5 42.5 13.2835 42.5 14.25V25.75C42.5 25.9584 42.5364 26.1583 42.6033 26.3437L48.4258 20.643C49.2589 19.8273 50.5675 19.7885 51.4458 20.5266L51.5742 20.6431L57.3964 26.3447C57.4634 26.159 57.5 25.9588 57.5 25.75V14.25C57.5 13.2835 56.7165 12.5 55.75 12.5ZM53.2521 14.5C54.4959 14.5 55.5042 15.5083 55.5042 16.7521C55.5042 17.9959 54.4959 19.0042 53.2521 19.0042C52.0083 19.0042 51 17.9959 51 16.7521C51 15.5083 52.0083 14.5 53.2521 14.5ZM53.2521 16C52.8367 16 52.5 16.3367 52.5 16.7521C52.5 17.1675 52.8367 17.5042 53.2521 17.5042C53.6675 17.5042 54.0042 17.1675 54.0042 16.7521C54.0042 16.3367 53.6675 16 53.2521 16Z" fill="#020057"/>
<path d="M40.1211 52.6484C39.5 52.9766 38.7266 53.1406 37.8008 53.1406C36.6055 53.1406 35.6484 52.7559 34.9297 51.9863C34.2109 51.2168 33.8516 50.207 33.8516 48.957C33.8516 47.6133 34.2559 46.5273 35.0645 45.6992C35.873 44.8711 36.8984 44.457 38.1406 44.457C38.9375 44.457 39.5977 44.5723 40.1211 44.8027V45.8516C39.5195 45.5156 38.8555 45.3477 38.1289 45.3477C37.1641 45.3477 36.3809 45.6699 35.7793 46.3145C35.1816 46.959 34.8828 47.8203 34.8828 48.8984C34.8828 49.9219 35.1621 50.7383 35.7207 51.3477C36.2832 51.9531 37.0195 52.2559 37.9297 52.2559C38.7734 52.2559 39.5039 52.0684 40.1211 51.6934V52.6484ZM42.6641 53H41.7031V44.1172H42.6641V53ZM48.9043 53H47.9434V52.0625H47.9199C47.502 52.7812 46.8867 53.1406 46.0742 53.1406C45.4766 53.1406 45.0078 52.9824 44.668 52.666C44.332 52.3496 44.1641 51.9297 44.1641 51.4062C44.1641 50.2852 44.8242 49.6328 46.1445 49.4492L47.9434 49.1973C47.9434 48.1777 47.5312 47.668 46.707 47.668C45.9844 47.668 45.332 47.9141 44.75 48.4062V47.4219C45.3398 47.0469 46.0195 46.8594 46.7891 46.8594C48.1992 46.8594 48.9043 47.6055 48.9043 49.0977V53ZM47.9434 49.9648L46.4961 50.1641C46.0508 50.2266 45.7148 50.3379 45.4883 50.498C45.2617 50.6543 45.1484 50.9336 45.1484 51.3359C45.1484 51.6289 45.252 51.8691 45.459 52.0566C45.6699 52.2402 45.9492 52.332 46.2969 52.332C46.7734 52.332 47.166 52.166 47.4746 51.834C47.7871 51.498 47.9434 51.0742 47.9434 50.5625V49.9648ZM53.8438 47.9727C53.6758 47.8438 53.4336 47.7793 53.1172 47.7793C52.707 47.7793 52.3633 47.9727 52.0859 48.3594C51.8125 48.7461 51.6758 49.2734 51.6758 49.9414V53H50.7148V47H51.6758V48.2363H51.6992C51.8359 47.8145 52.0449 47.4863 52.3262 47.252C52.6074 47.0137 52.9219 46.8945 53.2695 46.8945C53.5195 46.8945 53.7109 46.9219 53.8438 46.9766V47.9727ZM55.3789 45.4766C55.207 45.4766 55.0605 45.418 54.9395 45.3008C54.8184 45.1836 54.7578 45.0352 54.7578 44.8555C54.7578 44.6758 54.8184 44.5273 54.9395 44.4102C55.0605 44.2891 55.207 44.2285 55.3789 44.2285C55.5547 44.2285 55.7031 44.2891 55.8242 44.4102C55.9492 44.5273 56.0117 44.6758 56.0117 44.8555C56.0117 45.0273 55.9492 45.1738 55.8242 45.2949C55.7031 45.416 55.5547 45.4766 55.3789 45.4766ZM55.8477 53H54.8867V47H55.8477V53ZM60.5762 52.9414C60.3496 53.0664 60.0508 53.1289 59.6797 53.1289C58.6289 53.1289 58.1035 52.543 58.1035 51.3711V47.8203H57.0723V47H58.1035V45.5352L59.0645 45.2246V47H60.5762V47.8203H59.0645V51.2012C59.0645 51.6035 59.1328 51.8906 59.2695 52.0625C59.4062 52.2344 59.6328 52.3203 59.9492 52.3203C60.1914 52.3203 60.4004 52.2539 60.5762 52.1211V52.9414ZM66.6348 47L63.875 53.9609C63.3828 55.2031 62.6914 55.8242 61.8008 55.8242C61.5508 55.8242 61.3418 55.7988 61.1738 55.748V54.8867C61.3809 54.957 61.5703 54.9922 61.7422 54.9922C62.2266 54.9922 62.5898 54.7031 62.832 54.125L63.3125 52.9883L60.9688 47H62.0352L63.6582 51.6172C63.6777 51.6758 63.7188 51.8281 63.7812 52.0742H63.8164C63.8359 51.9805 63.875 51.832 63.9336 51.6289L65.6387 47H66.6348ZM14.6134 62.34H21.9934V63.144H14.6134V62.34ZM13.2814 64.596H23.1214V65.412H13.2814V64.596ZM14.6134 59.472H15.5974V62.748H14.6134V59.472ZM14.5414 68.856H22.0534V69.672H14.5414V68.856ZM14.5414 66.504H15.5374V69.072H14.5414V66.504ZM28.127 69V60.5977H30.5176C31.2441 60.5977 31.8203 60.7754 32.2461 61.1309C32.6719 61.4863 32.8848 61.9492 32.8848 62.5195C32.8848 62.9961 32.7559 63.4102 32.498 63.7617C32.2402 64.1133 31.8848 64.3633 31.4316 64.5117V64.5352C31.998 64.6016 32.4512 64.8164 32.791 65.1797C33.1309 65.5391 33.3008 66.0078 33.3008 66.5859C33.3008 67.3047 33.043 67.8867 32.5273 68.332C32.0117 68.7773 31.3613 69 30.5762 69H28.127ZM29.1113 61.4883V64.2012H30.1191C30.6582 64.2012 31.082 64.0723 31.3906 63.8145C31.6992 63.5527 31.8535 63.1855 31.8535 62.7129C31.8535 61.8965 31.3164 61.4883 30.2422 61.4883H29.1113ZM29.1113 65.0859V68.1094H30.4473C31.0254 68.1094 31.4727 67.9727 31.7891 67.6992C32.1094 67.4258 32.2695 67.0508 32.2695 66.5742C32.2695 65.582 31.5938 65.0859 30.2422 65.0859H29.1113ZM35.8379 69H34.877V60.1172H35.8379V69ZM40.291 69.1406C39.4043 69.1406 38.6953 68.8613 38.1641 68.3027C37.6367 67.7402 37.373 66.9961 37.373 66.0703C37.373 65.0625 37.6484 64.2754 38.1992 63.709C38.75 63.1426 39.4941 62.8594 40.4316 62.8594C41.3262 62.8594 42.0234 63.1348 42.5234 63.6855C43.0273 64.2363 43.2793 65 43.2793 65.9766C43.2793 66.9336 43.0078 67.7012 42.4648 68.2793C41.9258 68.8535 41.2012 69.1406 40.291 69.1406ZM40.3613 63.668C39.7441 63.668 39.2559 63.8789 38.8965 64.3008C38.5371 64.7188 38.3574 65.2969 38.3574 66.0352C38.3574 66.7461 38.5391 67.3066 38.9023 67.7168C39.2656 68.127 39.752 68.332 40.3613 68.332C40.9824 68.332 41.459 68.1309 41.791 67.7285C42.127 67.3262 42.2949 66.7539 42.2949 66.0117C42.2949 65.2617 42.127 64.6836 41.791 64.2773C41.459 63.8711 40.9824 63.668 40.3613 63.668ZM45.7988 68.1328H45.7754V69H44.8145V60.1172H45.7754V64.0547H45.7988C46.2715 63.2578 46.9629 62.8594 47.873 62.8594C48.6426 62.8594 49.2441 63.1289 49.6777 63.668C50.1152 64.2031 50.334 64.9219 50.334 65.8242C50.334 66.8281 50.0898 67.6328 49.6016 68.2383C49.1133 68.8398 48.4453 69.1406 47.5977 69.1406C46.8047 69.1406 46.2051 68.8047 45.7988 68.1328ZM45.7754 65.7129V66.5508C45.7754 67.0469 45.9355 67.4688 46.2559 67.8164C46.5801 68.1602 46.9902 68.332 47.4863 68.332C48.0684 68.332 48.5234 68.1094 48.8516 67.6641C49.1836 67.2188 49.3496 66.5996 49.3496 65.8066C49.3496 65.1387 49.1953 64.6152 48.8867 64.2363C48.5781 63.8574 48.1602 63.668 47.6328 63.668C47.0742 63.668 46.625 63.8633 46.2852 64.2539C45.9453 64.6406 45.7754 65.127 45.7754 65.7129ZM63.0455 59.076H64.0055V69.936H63.0455V59.076ZM58.5335 63.216H61.2695V64.044H58.5335V63.216ZM60.8615 59.328H61.7975V69.372H60.8615V59.328ZM55.1975 66.492H55.8935C56.4535 66.492 56.9495 66.484 57.3815 66.468C57.8215 66.452 58.2335 66.42 58.6175 66.372C59.0095 66.324 59.4055 66.26 59.8055 66.18L59.9015 67.008C59.4935 67.096 59.0895 67.164 58.6895 67.212C58.2895 67.252 57.8655 67.28 57.4175 67.296C56.9775 67.312 56.4695 67.32 55.8935 67.32H55.1975V66.492ZM55.1975 60.408H59.2655V61.224H56.1695V66.816H55.1975V60.408ZM73.7125 59.076H74.7085V69.948H73.7125V59.076ZM68.9845 59.916C69.5205 59.916 69.9925 60.072 70.4005 60.384C70.8165 60.688 71.1405 61.124 71.3725 61.692C71.6125 62.26 71.7325 62.928 71.7325 63.696C71.7325 64.464 71.6125 65.132 71.3725 65.7C71.1405 66.268 70.8165 66.708 70.4005 67.02C69.9925 67.332 69.5205 67.488 68.9845 67.488C68.4485 67.488 67.9725 67.332 67.5565 67.02C67.1405 66.708 66.8125 66.268 66.5725 65.7C66.3405 65.132 66.2245 64.464 66.2245 63.696C66.2245 62.928 66.3405 62.26 66.5725 61.692C66.8125 61.124 67.1405 60.688 67.5565 60.384C67.9725 60.072 68.4485 59.916 68.9845 59.916ZM68.9845 60.804C68.6245 60.804 68.3085 60.924 68.0365 61.164C67.7725 61.396 67.5645 61.732 67.4125 62.172C67.2605 62.604 67.1845 63.112 67.1845 63.696C67.1845 64.28 67.2605 64.792 67.4125 65.232C67.5645 65.664 67.7725 66 68.0365 66.24C68.3085 66.48 68.6245 66.6 68.9845 66.6C69.3365 66.6 69.6445 66.48 69.9085 66.24C70.1805 66 70.3925 65.664 70.5445 65.232C70.6965 64.792 70.7725 64.28 70.7725 63.696C70.7725 63.112 70.6965 62.604 70.5445 62.172C70.3925 61.732 70.1805 61.396 69.9085 61.164C69.6445 60.924 69.3365 60.804 68.9845 60.804ZM84.8116 59.076H85.7956V69.948H84.8116V59.076ZM82.5676 63.168H84.9676V63.984H82.5676V63.168ZM77.3716 66.516H78.1876C78.8756 66.516 79.4876 66.508 80.0236 66.492C80.5596 66.476 81.0676 66.444 81.5476 66.396C82.0356 66.348 82.5316 66.28 83.0356 66.192L83.1436 67.008C82.6236 67.096 82.1156 67.164 81.6196 67.212C81.1236 67.26 80.5996 67.296 80.0476 67.32C79.5036 67.336 78.8836 67.344 78.1876 67.344H77.3716V66.516ZM77.3716 60.072H82.3876V60.888H78.3556V66.792H77.3716V60.072ZM78.1036 63.12H81.9076V63.924H78.1036V63.12ZM12.5314 80.116H22.3714V80.884H12.5314V80.116ZM13.7074 81.748H21.1474V84.064H14.7154V85.336H13.7314V83.38H20.1634V82.468H13.7074V81.748ZM13.7314 85.072H21.4954V85.792H13.7314V85.072ZM13.7794 75.4H21.1114V77.656H14.7874V78.832H13.8034V76.984H20.1274V76.108H13.7794V75.4ZM13.8034 78.592H21.3034V79.312H13.8034V78.592ZM34.7714 75.076H35.7674V80.836H34.7714V75.076ZM28.2434 85.024H28.9034C29.4234 85.024 29.8834 85.016 30.2834 85C30.6914 84.992 31.0754 84.972 31.4354 84.94C31.7954 84.908 32.1674 84.856 32.5514 84.784L32.6594 85.54C32.2594 85.612 31.8714 85.664 31.4954 85.696C31.1274 85.736 30.7354 85.76 30.3194 85.768C29.9034 85.784 29.4314 85.792 28.9034 85.792H28.2434V85.024ZM28.2314 81.316H31.8194V83.836H29.2034V85.444H28.2434V83.116H30.8474V82.084H28.2314V81.316ZM32.2874 81.316H35.7674V85.852H34.7834V82.132H32.2874V81.316ZM29.9234 75.568C30.4674 75.568 30.9474 75.672 31.3634 75.88C31.7874 76.088 32.1194 76.376 32.3594 76.744C32.5994 77.104 32.7194 77.524 32.7194 78.004C32.7194 78.484 32.5994 78.908 32.3594 79.276C32.1194 79.644 31.7874 79.932 31.3634 80.14C30.9474 80.34 30.4674 80.44 29.9234 80.44C29.3874 80.44 28.9074 80.34 28.4834 80.14C28.0594 79.932 27.7234 79.644 27.4754 79.276C27.2354 78.908 27.1154 78.484 27.1154 78.004C27.1154 77.524 27.2354 77.104 27.4754 76.744C27.7234 76.376 28.0594 76.088 28.4834 75.88C28.9074 75.672 29.3874 75.568 29.9234 75.568ZM29.9234 76.396C29.5714 76.396 29.2554 76.464 28.9754 76.6C28.7034 76.736 28.4874 76.928 28.3274 77.176C28.1674 77.416 28.0874 77.692 28.0874 78.004C28.0874 78.324 28.1674 78.608 28.3274 78.856C28.4874 79.096 28.7034 79.284 28.9754 79.42C29.2554 79.556 29.5714 79.624 29.9234 79.624C30.2754 79.624 30.5874 79.556 30.8594 79.42C31.1394 79.284 31.3594 79.096 31.5194 78.856C31.6794 78.608 31.7594 78.324 31.7594 78.004C31.7594 77.692 31.6794 77.416 31.5194 77.176C31.3594 76.928 31.1394 76.736 30.8594 76.6C30.5874 76.464 30.2754 76.396 29.9234 76.396ZM42.8105 75.268C44.0105 75.268 44.9465 75.432 45.6185 75.76C46.2905 76.08 46.6265 76.54 46.6265 77.14C46.6265 77.748 46.2905 78.216 45.6185 78.544C44.9465 78.864 44.0105 79.024 42.8105 79.024C41.6185 79.024 40.6825 78.864 40.0025 78.544C39.3305 78.216 38.9945 77.748 38.9945 77.14C38.9945 76.54 39.3305 76.08 40.0025 75.76C40.6825 75.432 41.6185 75.268 42.8105 75.268ZM42.8105 76.012C42.2265 76.012 41.7265 76.056 41.3105 76.144C40.8945 76.232 40.5745 76.36 40.3505 76.528C40.1345 76.696 40.0265 76.9 40.0265 77.14C40.0265 77.38 40.1345 77.588 40.3505 77.764C40.5745 77.932 40.8945 78.06 41.3105 78.148C41.7265 78.228 42.2265 78.268 42.8105 78.268C43.4025 78.268 43.9065 78.228 44.3225 78.148C44.7385 78.06 45.0545 77.932 45.2705 77.764C45.4945 77.588 45.6065 77.38 45.6065 77.14C45.6065 76.9 45.4945 76.696 45.2705 76.528C45.0545 76.36 44.7385 76.232 44.3225 76.144C43.9065 76.056 43.4025 76.012 42.8105 76.012ZM37.9145 79.756H47.7185V80.56H37.9145V79.756ZM39.1025 81.484H46.4585V83.932H40.0985V85.24H39.1265V83.2H45.4865V82.252H39.1025V81.484ZM39.1265 85.036H46.7825V85.816H39.1265V85.036ZM56.6385 75.46H57.5145V76.072C57.5145 76.488 57.4345 76.88 57.2745 77.248C57.1145 77.608 56.8945 77.94 56.6145 78.244C56.3425 78.548 56.0225 78.82 55.6545 79.06C55.2865 79.3 54.8865 79.5 54.4545 79.66C54.0305 79.82 53.5945 79.936 53.1465 80.008L52.7385 79.204C53.1385 79.148 53.5265 79.052 53.9025 78.916C54.2865 78.78 54.6425 78.616 54.9705 78.424C55.2985 78.224 55.5865 78 55.8345 77.752C56.0905 77.504 56.2865 77.24 56.4225 76.96C56.5665 76.672 56.6385 76.376 56.6385 76.072V75.46ZM56.8065 75.46H57.6705V76.072C57.6705 76.376 57.7425 76.668 57.8865 76.948C58.0305 77.228 58.2265 77.492 58.4745 77.74C58.7305 77.988 59.0225 78.212 59.3505 78.412C59.6785 78.612 60.0305 78.78 60.4065 78.916C60.7905 79.052 61.1785 79.148 61.5705 79.204L61.1745 80.008C60.7265 79.936 60.2905 79.82 59.8665 79.66C59.4425 79.492 59.0425 79.288 58.6665 79.048C58.2985 78.808 57.9745 78.536 57.6945 78.232C57.4225 77.928 57.2065 77.596 57.0465 77.236C56.8865 76.868 56.8065 76.48 56.8065 76.072V75.46ZM56.6385 81.808H57.6225V85.936H56.6385V81.808ZM52.2465 81.184H62.0505V82.012H52.2465V81.184ZM67.8145 81.448H68.7505V82.792H70.6465V81.448H71.5705V85.792H67.8145V81.448ZM68.7505 83.548V85.012H70.6465V83.548H68.7505ZM73.6705 81.376H74.4505V82.288C74.4505 82.776 74.3665 83.256 74.1985 83.728C74.0305 84.192 73.7785 84.612 73.4425 84.988C73.1145 85.364 72.7025 85.66 72.2065 85.876L71.7025 85.12C72.1345 84.936 72.4985 84.692 72.7945 84.388C73.0905 84.084 73.3105 83.748 73.4545 83.38C73.5985 83.012 73.6705 82.648 73.6705 82.288V81.376ZM73.8865 81.376H74.6545V82.288C74.6545 82.672 74.7265 83.052 74.8705 83.428C75.0225 83.796 75.2465 84.128 75.5425 84.424C75.8385 84.72 76.2025 84.952 76.6345 85.12L76.1185 85.876C75.6145 85.668 75.1985 85.38 74.8705 85.012C74.5425 84.644 74.2945 84.224 74.1265 83.752C73.9665 83.28 73.8865 82.792 73.8865 82.288V81.376ZM72.0265 77.62H74.9425V78.448H72.0265V77.62ZM69.5425 75.556C70.0785 75.556 70.5545 75.664 70.9705 75.88C71.3945 76.088 71.7265 76.38 71.9665 76.756C72.2065 77.124 72.3265 77.556 72.3265 78.052C72.3265 78.54 72.2065 78.976 71.9665 79.36C71.7265 79.736 71.3945 80.032 70.9705 80.248C70.5545 80.456 70.0785 80.56 69.5425 80.56C68.9985 80.56 68.5145 80.456 68.0905 80.248C67.6745 80.032 67.3465 79.736 67.1065 79.36C66.8665 78.976 66.7465 78.54 66.7465 78.052C66.7465 77.556 66.8665 77.124 67.1065 76.756C67.3465 76.38 67.6745 76.088 68.0905 75.88C68.5145 75.664 68.9985 75.556 69.5425 75.556ZM69.5425 76.384C69.1825 76.384 68.8625 76.456 68.5825 76.6C68.3105 76.736 68.0945 76.932 67.9345 77.188C67.7745 77.436 67.6945 77.724 67.6945 78.052C67.6945 78.38 67.7745 78.672 67.9345 78.928C68.0945 79.176 68.3105 79.372 68.5825 79.516C68.8625 79.66 69.1825 79.732 69.5425 79.732C69.8945 79.732 70.2065 79.66 70.4785 79.516C70.7585 79.372 70.9785 79.176 71.1385 78.928C71.2985 78.672 71.3785 78.38 71.3785 78.052C71.3785 77.724 71.2985 77.436 71.1385 77.188C70.9785 76.932 70.7585 76.736 70.4785 76.6C70.2065 76.456 69.8945 76.384 69.5425 76.384ZM74.5105 75.076H75.5065V80.824H74.5105V75.076ZM78.8536 81.592H79.8376V82.84H85.1536V81.592H86.1376V85.792H78.8536V81.592ZM79.8376 83.62V84.988H85.1536V83.62H79.8376ZM77.6176 80.02H87.4216V80.836H77.6176V80.02ZM82.0096 75.196H82.8736V75.688C82.8736 76.064 82.7936 76.42 82.6336 76.756C82.4736 77.084 82.2536 77.388 81.9736 77.668C81.7016 77.94 81.3816 78.184 81.0136 78.4C80.6536 78.616 80.2616 78.796 79.8376 78.94C79.4216 79.084 78.9896 79.192 78.5416 79.264L78.1696 78.472C78.5616 78.416 78.9416 78.328 79.3096 78.208C79.6856 78.088 80.0376 77.944 80.3656 77.776C80.6936 77.6 80.9816 77.404 81.2296 77.188C81.4776 76.964 81.6696 76.728 81.8056 76.48C81.9416 76.224 82.0096 75.96 82.0096 75.688V75.196ZM82.1776 75.196H83.0296V75.688C83.0296 75.952 83.0976 76.212 83.2336 76.468C83.3776 76.716 83.5736 76.952 83.8216 77.176C84.0696 77.392 84.3536 77.588 84.6736 77.764C85.0016 77.94 85.3496 78.092 85.7176 78.22C86.0936 78.34 86.4736 78.424 86.8576 78.472L86.4976 79.264C86.0496 79.192 85.6136 79.084 85.1896 78.94C84.7736 78.796 84.3816 78.616 84.0136 78.4C83.6536 78.176 83.3336 77.924 83.0536 77.644C82.7816 77.364 82.5656 77.06 82.4056 76.732C82.2536 76.404 82.1776 76.056 82.1776 75.688V75.196ZM47.4569 91.076H48.4409V101.936H47.4569V91.076ZM40.2449 92.144H41.2289V98.864H40.2449V92.144ZM40.2449 98.276H41.1329C41.9649 98.276 42.8089 98.24 43.6649 98.168C44.5289 98.088 45.4169 97.956 46.3289 97.772L46.4609 98.612C45.5169 98.812 44.6089 98.952 43.7369 99.032C42.8649 99.104 41.9969 99.14 41.1329 99.14H40.2449V98.276ZM57.944 91.076H58.94V101.948H57.944V91.076ZM58.712 95.36H60.716V96.188H58.712V95.36ZM51.068 98.396H51.92C52.584 98.396 53.192 98.388 53.744 98.372C54.304 98.348 54.84 98.308 55.352 98.252C55.872 98.196 56.4 98.12 56.936 98.024L57.056 98.876C56.496 98.972 55.952 99.048 55.424 99.104C54.904 99.16 54.36 99.196 53.792 99.212C53.224 99.228 52.6 99.236 51.92 99.236H51.068V98.396ZM51.068 92.132H56.096V92.948H52.052V98.78H51.068V92.132Z" fill="#020057"/>
</svg>
