<svg width="100" height="96" viewBox="0 0 100 96" fill="none" xmlns="http://www.w3.org/2000/svg">
<rect width="100" height="96" fill="#FBFBFE"/>
<path d="M55.75 11C57.5449 11 59 12.4551 59 14.25V25.75C59 27.5449 57.5449 29 55.75 29H44.25C42.4551 29 41 27.5449 41 25.75V14.25C41 12.4551 42.4551 11 44.25 11H55.75ZM56.3305 27.4014L50.5247 21.7148C50.2596 21.4553 49.8501 21.4316 49.5588 21.644L49.4752 21.7148L43.6685 27.4011C43.8504 27.4651 44.0461 27.5 44.25 27.5H55.75C55.9535 27.5 56.1489 27.4653 56.3305 27.4014L50.5247 21.7148L56.3305 27.4014ZM55.75 12.5H44.25C43.2835 12.5 42.5 13.2835 42.5 14.25V25.75C42.5 25.9584 42.5364 26.1583 42.6033 26.3437L48.4258 20.643C49.2589 19.8273 50.5675 19.7885 51.4458 20.5266L51.5742 20.6431L57.3964 26.3447C57.4634 26.159 57.5 25.9588 57.5 25.75V14.25C57.5 13.2835 56.7165 12.5 55.75 12.5ZM53.2521 14.5C54.4959 14.5 55.5042 15.5083 55.5042 16.7521C55.5042 17.9959 54.4959 19.0042 53.2521 19.0042C52.0083 19.0042 51 17.9959 51 16.7521C51 15.5083 52.0083 14.5 53.2521 14.5ZM53.2521 16C52.8367 16 52.5 16.3367 52.5 16.7521C52.5 17.1675 52.8367 17.5042 53.2521 17.5042C53.6675 17.5042 54.0042 17.1675 54.0042 16.7521C54.0042 16.3367 53.6675 16 53.2521 16Z" fill="#020057"/>
<path d="M20.0059 53.1406C18.8145 53.1406 17.8594 52.748 17.1406 51.9629C16.4258 51.1777 16.0684 50.1562 16.0684 48.8984C16.0684 47.5469 16.4336 46.4688 17.1641 45.6641C17.8945 44.8594 18.8887 44.457 20.1465 44.457C21.3066 44.457 22.2402 44.8477 22.9473 45.6289C23.6582 46.4102 24.0137 47.4316 24.0137 48.6934C24.0137 50.0645 23.6504 51.1484 22.9238 51.9453C22.1973 52.7422 21.2246 53.1406 20.0059 53.1406ZM20.0762 45.3477C19.1934 45.3477 18.4766 45.666 17.9258 46.3027C17.375 46.9395 17.0996 47.7754 17.0996 48.8105C17.0996 49.8457 17.3672 50.6797 17.9023 51.3125C18.4414 51.9414 19.1426 52.2559 20.0059 52.2559C20.9277 52.2559 21.6543 51.9551 22.1855 51.3535C22.7168 50.752 22.9824 49.9102 22.9824 48.8281C22.9824 47.7188 22.7246 46.8613 22.209 46.2559C21.6934 45.6504 20.9824 45.3477 20.0762 45.3477ZM34.6777 52.6484C34.0566 52.9766 33.2832 53.1406 32.3574 53.1406C31.1621 53.1406 30.2051 52.7559 29.4863 51.9863C28.7676 51.2168 28.4082 50.207 28.4082 48.957C28.4082 47.6133 28.8125 46.5273 29.6211 45.6992C30.4297 44.8711 31.4551 44.457 32.6973 44.457C33.4941 44.457 34.1543 44.5723 34.6777 44.8027V45.8516C34.0762 45.5156 33.4121 45.3477 32.6855 45.3477C31.7207 45.3477 30.9375 45.6699 30.3359 46.3145C29.7383 46.959 29.4395 47.8203 29.4395 48.8984C29.4395 49.9219 29.7188 50.7383 30.2773 51.3477C30.8398 51.9531 31.5762 52.2559 32.4863 52.2559C33.3301 52.2559 34.0605 52.0684 34.6777 51.6934V52.6484ZM37.2207 53H36.2598V44.1172H37.2207V53ZM43.4609 53H42.5V52.0625H42.4766C42.0586 52.7812 41.4434 53.1406 40.6309 53.1406C40.0332 53.1406 39.5645 52.9824 39.2246 52.666C38.8887 52.3496 38.7207 51.9297 38.7207 51.4062C38.7207 50.2852 39.3809 49.6328 40.7012 49.4492L42.5 49.1973C42.5 48.1777 42.0879 47.668 41.2637 47.668C40.541 47.668 39.8887 47.9141 39.3066 48.4062V47.4219C39.8965 47.0469 40.5762 46.8594 41.3457 46.8594C42.7559 46.8594 43.4609 47.6055 43.4609 49.0977V53ZM42.5 49.9648L41.0527 50.1641C40.6074 50.2266 40.2715 50.3379 40.0449 50.498C39.8184 50.6543 39.7051 50.9336 39.7051 51.3359C39.7051 51.6289 39.8086 51.8691 40.0156 52.0566C40.2266 52.2402 40.5059 52.332 40.8535 52.332C41.3301 52.332 41.7227 52.166 42.0312 51.834C42.3438 51.498 42.5 51.0742 42.5 50.5625V49.9648ZM48.4004 47.9727C48.2324 47.8438 47.9902 47.7793 47.6738 47.7793C47.2637 47.7793 46.9199 47.9727 46.6426 48.3594C46.3691 48.7461 46.2324 49.2734 46.2324 49.9414V53H45.2715V47H46.2324V48.2363H46.2559C46.3926 47.8145 46.6016 47.4863 46.8828 47.252C47.1641 47.0137 47.4785 46.8945 47.8262 46.8945C48.0762 46.8945 48.2676 46.9219 48.4004 46.9766V47.9727ZM49.9355 45.4766C49.7637 45.4766 49.6172 45.418 49.4961 45.3008C49.375 45.1836 49.3145 45.0352 49.3145 44.8555C49.3145 44.6758 49.375 44.5273 49.4961 44.4102C49.6172 44.2891 49.7637 44.2285 49.9355 44.2285C50.1113 44.2285 50.2598 44.2891 50.3809 44.4102C50.5059 44.5273 50.5684 44.6758 50.5684 44.8555C50.5684 45.0273 50.5059 45.1738 50.3809 45.2949C50.2598 45.416 50.1113 45.4766 49.9355 45.4766ZM50.4043 53H49.4434V47H50.4043V53ZM55.1328 52.9414C54.9062 53.0664 54.6074 53.1289 54.2363 53.1289C53.1855 53.1289 52.6602 52.543 52.6602 51.3711V47.8203H51.6289V47H52.6602V45.5352L53.6211 45.2246V47H55.1328V47.8203H53.6211V51.2012C53.6211 51.6035 53.6895 51.8906 53.8262 52.0625C53.9629 52.2344 54.1895 52.3203 54.5059 52.3203C54.748 52.3203 54.957 52.2539 55.1328 52.1211V52.9414ZM61.1914 47L58.4316 53.9609C57.9395 55.2031 57.248 55.8242 56.3574 55.8242C56.1074 55.8242 55.8984 55.7988 55.7305 55.748V54.8867C55.9375 54.957 56.127 54.9922 56.2988 54.9922C56.7832 54.9922 57.1465 54.7031 57.3887 54.125L57.8691 52.9883L55.5254 47H56.5918L58.2148 51.6172C58.2344 51.6758 58.2754 51.8281 58.3379 52.0742H58.373C58.3926 51.9805 58.4316 51.832 58.4902 51.6289L60.1953 47H61.1914ZM70.502 53H69.541V49.5781C69.541 48.3047 69.0762 47.668 68.1465 47.668C67.666 47.668 67.2676 47.8496 66.9512 48.2129C66.6387 48.5723 66.4824 49.0273 66.4824 49.5781V53H65.5215V47H66.4824V47.9961H66.5059C66.959 47.2383 67.6152 46.8594 68.4746 46.8594C69.1309 46.8594 69.6328 47.0723 69.9805 47.498C70.3281 47.9199 70.502 48.5312 70.502 49.332V53ZM76.6133 53H75.6523V52.0625H75.6289C75.2109 52.7812 74.5957 53.1406 73.7832 53.1406C73.1855 53.1406 72.7168 52.9824 72.377 52.666C72.041 52.3496 71.873 51.9297 71.873 51.4062C71.873 50.2852 72.5332 49.6328 73.8535 49.4492L75.6523 49.1973C75.6523 48.1777 75.2402 47.668 74.416 47.668C73.6934 47.668 73.041 47.9141 72.459 48.4062V47.4219C73.0488 47.0469 73.7285 46.8594 74.498 46.8594C75.9082 46.8594 76.6133 47.6055 76.6133 49.0977V53ZM75.6523 49.9648L74.2051 50.1641C73.7598 50.2266 73.4238 50.3379 73.1973 50.498C72.9707 50.6543 72.8574 50.9336 72.8574 51.3359C72.8574 51.6289 72.9609 51.8691 73.168 52.0566C73.3789 52.2402 73.6582 52.332 74.0059 52.332C74.4824 52.332 74.875 52.166 75.1836 51.834C75.4961 51.498 75.6523 51.0742 75.6523 50.5625V49.9648ZM76.291 44.457C76.291 44.8672 76.1973 45.2031 76.0098 45.4648C75.8223 45.7227 75.5684 45.8516 75.248 45.8516C74.9707 45.8516 74.6543 45.75 74.2988 45.5469C73.998 45.3789 73.7656 45.2949 73.6016 45.2949C73.2578 45.2949 73.0859 45.5156 73.0859 45.957H72.5352C72.5352 45.5391 72.6289 45.2051 72.8164 44.9551C73.0039 44.7012 73.2656 44.5742 73.6016 44.5742C73.8555 44.5742 74.1465 44.6758 74.4746 44.8789C74.7637 45.0508 75.0137 45.1367 75.2246 45.1367C75.5527 45.1367 75.7168 44.9102 75.7168 44.457H76.291ZM80.9316 53.1406C80.0449 53.1406 79.3359 52.8613 78.8047 52.3027C78.2773 51.7402 78.0137 50.9961 78.0137 50.0703C78.0137 49.0625 78.2891 48.2754 78.8398 47.709C79.3906 47.1426 80.1348 46.8594 81.0723 46.8594C81.9668 46.8594 82.6641 47.1348 83.1641 47.6855C83.668 48.2363 83.9199 49 83.9199 49.9766C83.9199 50.9336 83.6484 51.7012 83.1055 52.2793C82.5664 52.8535 81.8418 53.1406 80.9316 53.1406ZM81.002 47.668C80.3848 47.668 79.8965 47.8789 79.5371 48.3008C79.1777 48.7188 78.998 49.2969 78.998 50.0352C78.998 50.7461 79.1797 51.3066 79.543 51.7168C79.9062 52.127 80.3926 52.332 81.002 52.332C81.623 52.332 82.0996 52.1309 82.4316 51.7285C82.7676 51.3262 82.9355 50.7539 82.9355 50.0117C82.9355 49.2617 82.7676 48.6836 82.4316 48.2773C82.0996 47.8711 81.623 47.668 81.002 47.668ZM12.084 68.1328H12.0605V71.7598H11.0996V63H12.0605V64.0547H12.084C12.5566 63.2578 13.248 62.8594 14.1582 62.8594C14.9316 62.8594 15.5352 63.1289 15.9688 63.668C16.4023 64.2031 16.6191 64.9219 16.6191 65.8242C16.6191 66.8281 16.375 67.6328 15.8867 68.2383C15.3984 68.8398 14.7305 69.1406 13.8828 69.1406C13.1055 69.1406 12.5059 68.8047 12.084 68.1328ZM12.0605 65.7129V66.5508C12.0605 67.0469 12.2207 67.4688 12.541 67.8164C12.8652 68.1602 13.2754 68.332 13.7715 68.332C14.3535 68.332 14.8086 68.1094 15.1367 67.6641C15.4688 67.2188 15.6348 66.5996 15.6348 65.8066C15.6348 65.1387 15.4805 64.6152 15.1719 64.2363C14.8633 63.8574 14.4453 63.668 13.918 63.668C13.3594 63.668 12.9102 63.8633 12.5703 64.2539C12.2305 64.6406 12.0605 65.127 12.0605 65.7129ZM20.6621 69.1406C19.7754 69.1406 19.0664 68.8613 18.5352 68.3027C18.0078 67.7402 17.7441 66.9961 17.7441 66.0703C17.7441 65.0625 18.0195 64.2754 18.5703 63.709C19.1211 63.1426 19.8652 62.8594 20.8027 62.8594C21.6973 62.8594 22.3945 63.1348 22.8945 63.6855C23.3984 64.2363 23.6504 65 23.6504 65.9766C23.6504 66.9336 23.3789 67.7012 22.8359 68.2793C22.2969 68.8535 21.5723 69.1406 20.6621 69.1406ZM20.7324 63.668C20.1152 63.668 19.627 63.8789 19.2676 64.3008C18.9082 64.7188 18.7285 65.2969 18.7285 66.0352C18.7285 66.7461 18.9102 67.3066 19.2734 67.7168C19.6367 68.127 20.123 68.332 20.7324 68.332C21.3535 68.332 21.8301 68.1309 22.1621 67.7285C22.498 67.3262 22.666 66.7539 22.666 66.0117C22.666 65.2617 22.498 64.6836 22.1621 64.2773C21.8301 63.8711 21.3535 63.668 20.7324 63.668ZM30.3066 69H29.3457V67.9805H29.3223C28.877 68.7539 28.1895 69.1406 27.2598 69.1406C26.5059 69.1406 25.9023 68.873 25.4492 68.3379C25 67.7988 24.7754 67.0664 24.7754 66.1406C24.7754 65.1484 25.0254 64.3535 25.5254 63.7559C26.0254 63.1582 26.6914 62.8594 27.5234 62.8594C28.3477 62.8594 28.9473 63.1836 29.3223 63.832H29.3457V60.1172H30.3066V69ZM29.3457 66.2871V65.4023C29.3457 64.918 29.1855 64.5078 28.8652 64.1719C28.5449 63.8359 28.1387 63.668 27.6465 63.668C27.0605 63.668 26.5996 63.8828 26.2637 64.3125C25.9277 64.7422 25.7598 65.3359 25.7598 66.0938C25.7598 66.7852 25.9199 67.332 26.2402 67.7344C26.5645 68.1328 26.998 68.332 27.541 68.332C28.0762 68.332 28.5098 68.1387 28.8418 67.752C29.1777 67.3652 29.3457 66.877 29.3457 66.2871ZM37.0742 66.2402H32.8379C32.8535 66.9082 33.0332 67.4238 33.377 67.7871C33.7207 68.1504 34.1934 68.332 34.7949 68.332C35.4707 68.332 36.0918 68.1094 36.6582 67.6641V68.5664C36.1309 68.9492 35.4336 69.1406 34.5664 69.1406C33.7188 69.1406 33.0527 68.8691 32.5684 68.3262C32.084 67.7793 31.8418 67.0117 31.8418 66.0234C31.8418 65.0898 32.1055 64.3301 32.6328 63.7441C33.1641 63.1543 33.8223 62.8594 34.6074 62.8594C35.3926 62.8594 36 63.1133 36.4297 63.6211C36.8594 64.1289 37.0742 64.834 37.0742 65.7363V66.2402ZM36.0898 65.4258C36.0859 64.8711 35.9512 64.4395 35.6855 64.1309C35.4238 63.8223 35.0586 63.668 34.5898 63.668C34.1367 63.668 33.752 63.8301 33.4355 64.1543C33.1191 64.4785 32.9238 64.9023 32.8496 65.4258H36.0898ZM42.7871 69H41.8262V60.1172H42.7871V69ZM49.5547 66.2402H45.3184C45.334 66.9082 45.5137 67.4238 45.8574 67.7871C46.2012 68.1504 46.6738 68.332 47.2754 68.332C47.9512 68.332 48.5723 68.1094 49.1387 67.6641V68.5664C48.6113 68.9492 47.9141 69.1406 47.0469 69.1406C46.1992 69.1406 45.5332 68.8691 45.0488 68.3262C44.5645 67.7793 44.3223 67.0117 44.3223 66.0234C44.3223 65.0898 44.5859 64.3301 45.1133 63.7441C45.6445 63.1543 46.3027 62.8594 47.0879 62.8594C47.873 62.8594 48.4805 63.1133 48.9102 63.6211C49.3398 64.1289 49.5547 64.834 49.5547 65.7363V66.2402ZM48.5703 65.4258C48.5664 64.8711 48.4316 64.4395 48.166 64.1309C47.9043 63.8223 47.5391 63.668 47.0703 63.668C46.6172 63.668 46.2324 63.8301 45.916 64.1543C45.5996 64.4785 45.4043 64.9023 45.3301 65.4258H48.5703ZM54.1426 63.9727C53.9746 63.8438 53.7324 63.7793 53.416 63.7793C53.0059 63.7793 52.6621 63.9727 52.3848 64.3594C52.1113 64.7461 51.9746 65.2734 51.9746 65.9414V69H51.0137V63H51.9746V64.2363H51.998C52.1348 63.8145 52.3438 63.4863 52.625 63.252C52.9062 63.0137 53.2207 62.8945 53.5684 62.8945C53.8184 62.8945 54.0098 62.9219 54.1426 62.9766V63.9727ZM63.5996 69H62.6387V67.9805H62.6152C62.1699 68.7539 61.4824 69.1406 60.5527 69.1406C59.7988 69.1406 59.1953 68.873 58.7422 68.3379C58.293 67.7988 58.0684 67.0664 58.0684 66.1406C58.0684 65.1484 58.3184 64.3535 58.8184 63.7559C59.3184 63.1582 59.9844 62.8594 60.8164 62.8594C61.6406 62.8594 62.2402 63.1836 62.6152 63.832H62.6387V60.1172H63.5996V69ZM62.6387 66.2871V65.4023C62.6387 64.918 62.4785 64.5078 62.1582 64.1719C61.8379 63.8359 61.4316 63.668 60.9395 63.668C60.3535 63.668 59.8926 63.8828 59.5566 64.3125C59.2207 64.7422 59.0527 65.3359 59.0527 66.0938C59.0527 66.7852 59.2129 67.332 59.5332 67.7344C59.8574 68.1328 60.291 68.332 60.834 68.332C61.3691 68.332 61.8027 68.1387 62.1348 67.752C62.4707 67.3652 62.6387 66.877 62.6387 66.2871ZM69.8398 69H68.8789V68.0625H68.8555C68.4375 68.7812 67.8223 69.1406 67.0098 69.1406C66.4121 69.1406 65.9434 68.9824 65.6035 68.666C65.2676 68.3496 65.0996 67.9297 65.0996 67.4062C65.0996 66.2852 65.7598 65.6328 67.0801 65.4492L68.8789 65.1973C68.8789 64.1777 68.4668 63.668 67.6426 63.668C66.9199 63.668 66.2676 63.9141 65.6855 64.4062V63.4219C66.2754 63.0469 66.9551 62.8594 67.7246 62.8594C69.1348 62.8594 69.8398 63.6055 69.8398 65.0977V69ZM68.8789 65.9648L67.4316 66.1641C66.9863 66.2266 66.6504 66.3379 66.4238 66.498C66.1973 66.6543 66.084 66.9336 66.084 67.3359C66.084 67.6289 66.1875 67.8691 66.3945 68.0566C66.6055 68.2402 66.8848 68.332 67.2324 68.332C67.709 68.332 68.1016 68.166 68.4102 67.834C68.7227 67.498 68.8789 67.0742 68.8789 66.5625V65.9648ZM76.7715 69H75.8105V67.9805H75.7871C75.3418 68.7539 74.6543 69.1406 73.7246 69.1406C72.9707 69.1406 72.3672 68.873 71.9141 68.3379C71.4648 67.7988 71.2402 67.0664 71.2402 66.1406C71.2402 65.1484 71.4902 64.3535 71.9902 63.7559C72.4902 63.1582 73.1562 62.8594 73.9883 62.8594C74.8125 62.8594 75.4121 63.1836 75.7871 63.832H75.8105V60.1172H76.7715V69ZM75.8105 66.2871V65.4023C75.8105 64.918 75.6504 64.5078 75.3301 64.1719C75.0098 63.8359 74.6035 63.668 74.1113 63.668C73.5254 63.668 73.0645 63.8828 72.7285 64.3125C72.3926 64.7422 72.2246 65.3359 72.2246 66.0938C72.2246 66.7852 72.3848 67.332 72.7051 67.7344C73.0293 68.1328 73.4629 68.332 74.0059 68.332C74.541 68.332 74.9746 68.1387 75.3066 67.752C75.6426 67.3652 75.8105 66.877 75.8105 66.2871ZM81.2246 69.1406C80.3379 69.1406 79.6289 68.8613 79.0977 68.3027C78.5703 67.7402 78.3066 66.9961 78.3066 66.0703C78.3066 65.0625 78.582 64.2754 79.1328 63.709C79.6836 63.1426 80.4277 62.8594 81.3652 62.8594C82.2598 62.8594 82.957 63.1348 83.457 63.6855C83.9609 64.2363 84.2129 65 84.2129 65.9766C84.2129 66.9336 83.9414 67.7012 83.3984 68.2793C82.8594 68.8535 82.1348 69.1406 81.2246 69.1406ZM81.2949 63.668C80.6777 63.668 80.1895 63.8789 79.8301 64.3008C79.4707 64.7188 79.291 65.2969 79.291 66.0352C79.291 66.7461 79.4727 67.3066 79.8359 67.7168C80.1992 68.127 80.6855 68.332 81.2949 68.332C81.916 68.332 82.3926 68.1309 82.7246 67.7285C83.0605 67.3262 83.2285 66.7539 83.2285 66.0117C83.2285 65.2617 83.0605 64.6836 82.7246 64.2773C82.3926 63.8711 81.916 63.668 81.2949 63.668ZM85.3848 68.7832V67.752C85.9082 68.1387 86.4844 68.332 87.1133 68.332C87.957 68.332 88.3789 68.0508 88.3789 67.4883C88.3789 67.3281 88.3418 67.1934 88.2676 67.084C88.1973 66.9707 88.0996 66.8711 87.9746 66.7852C87.8535 66.6992 87.709 66.623 87.541 66.5566C87.377 66.4863 87.1992 66.4141 87.0078 66.3398C86.7422 66.2344 86.5078 66.1289 86.3047 66.0234C86.1055 65.9141 85.9375 65.793 85.8008 65.6602C85.668 65.5234 85.5664 65.3691 85.4961 65.1973C85.4297 65.0254 85.3965 64.8242 85.3965 64.5938C85.3965 64.3125 85.4609 64.0645 85.5898 63.8496C85.7188 63.6309 85.8906 63.4492 86.1055 63.3047C86.3203 63.1562 86.5645 63.0449 86.8379 62.9707C87.1152 62.8965 87.4004 62.8594 87.6934 62.8594C88.2129 62.8594 88.6777 62.9492 89.0879 63.1289V64.1016C88.6465 63.8125 88.1387 63.668 87.5645 63.668C87.3848 63.668 87.2227 63.6895 87.0781 63.7324C86.9336 63.7715 86.8086 63.8281 86.7031 63.9023C86.6016 63.9766 86.5215 64.0664 86.4629 64.1719C86.4082 64.2734 86.3809 64.3867 86.3809 64.5117C86.3809 64.668 86.4082 64.7988 86.4629 64.9043C86.5215 65.0098 86.6055 65.1035 86.7148 65.1855C86.8242 65.2676 86.957 65.3418 87.1133 65.4082C87.2695 65.4746 87.4473 65.5469 87.6465 65.625C87.9121 65.7266 88.1504 65.832 88.3613 65.9414C88.5723 66.0469 88.752 66.168 88.9004 66.3047C89.0488 66.4375 89.1621 66.5918 89.2402 66.7676C89.3223 66.9434 89.3633 67.1523 89.3633 67.3945C89.3633 67.6914 89.2969 67.9492 89.1641 68.168C89.0352 68.3867 88.8613 68.5684 88.6426 68.7129C88.4238 68.8574 88.1719 68.9648 87.8867 69.0352C87.6016 69.1055 87.3027 69.1406 86.9902 69.1406C86.373 69.1406 85.8379 69.0215 85.3848 68.7832ZM35.75 85H34.7891V83.9805H34.7656C34.3203 84.7539 33.6328 85.1406 32.7031 85.1406C31.9492 85.1406 31.3457 84.873 30.8926 84.3379C30.4434 83.7988 30.2188 83.0664 30.2188 82.1406C30.2188 81.1484 30.4688 80.3535 30.9688 79.7559C31.4688 79.1582 32.1348 78.8594 32.9668 78.8594C33.791 78.8594 34.3906 79.1836 34.7656 79.832H34.7891V76.1172H35.75V85ZM34.7891 82.2871V81.4023C34.7891 80.918 34.6289 80.5078 34.3086 80.1719C33.9883 79.8359 33.582 79.668 33.0898 79.668C32.5039 79.668 32.043 79.8828 31.707 80.3125C31.3711 80.7422 31.2031 81.3359 31.2031 82.0938C31.2031 82.7852 31.3633 83.332 31.6836 83.7344C32.0078 84.1328 32.4414 84.332 32.9844 84.332C33.5195 84.332 33.9531 84.1387 34.2852 83.752C34.6211 83.3652 34.7891 82.877 34.7891 82.2871ZM42.5176 82.2402H38.2812C38.2969 82.9082 38.4766 83.4238 38.8203 83.7871C39.1641 84.1504 39.6367 84.332 40.2383 84.332C40.9141 84.332 41.5352 84.1094 42.1016 83.6641V84.5664C41.5742 84.9492 40.877 85.1406 40.0098 85.1406C39.1621 85.1406 38.4961 84.8691 38.0117 84.3262C37.5273 83.7793 37.2852 83.0117 37.2852 82.0234C37.2852 81.0898 37.5488 80.3301 38.0762 79.7441C38.6074 79.1543 39.2656 78.8594 40.0508 78.8594C40.8359 78.8594 41.4434 79.1133 41.873 79.6211C42.3027 80.1289 42.5176 80.834 42.5176 81.7363V82.2402ZM41.5332 81.4258C41.5293 80.8711 41.3945 80.4395 41.1289 80.1309C40.8672 79.8223 40.502 79.668 40.0332 79.668C39.5801 79.668 39.1953 79.8301 38.8789 80.1543C38.5625 80.4785 38.3672 80.9023 38.293 81.4258H41.5332ZM48.2539 84.1328H48.2305V85H47.2695V76.1172H48.2305V80.0547H48.2539C48.7266 79.2578 49.418 78.8594 50.3281 78.8594C51.0977 78.8594 51.6992 79.1289 52.1328 79.668C52.5703 80.2031 52.7891 80.9219 52.7891 81.8242C52.7891 82.8281 52.5449 83.6328 52.0566 84.2383C51.5684 84.8398 50.9004 85.1406 50.0527 85.1406C49.2598 85.1406 48.6602 84.8047 48.2539 84.1328ZM48.2305 81.7129V82.5508C48.2305 83.0469 48.3906 83.4688 48.7109 83.8164C49.0352 84.1602 49.4453 84.332 49.9414 84.332C50.5234 84.332 50.9785 84.1094 51.3066 83.6641C51.6387 83.2188 51.8047 82.5996 51.8047 81.8066C51.8047 81.1387 51.6504 80.6152 51.3418 80.2363C51.0332 79.8574 50.6152 79.668 50.0879 79.668C49.5293 79.668 49.0801 79.8633 48.7402 80.2539C48.4004 80.6406 48.2305 81.127 48.2305 81.7129ZM55.2852 85H54.3242V76.1172H55.2852V85ZM59.7383 85.1406C58.8516 85.1406 58.1426 84.8613 57.6113 84.3027C57.084 83.7402 56.8203 82.9961 56.8203 82.0703C56.8203 81.0625 57.0957 80.2754 57.6465 79.709C58.1973 79.1426 58.9414 78.8594 59.8789 78.8594C60.7734 78.8594 61.4707 79.1348 61.9707 79.6855C62.4746 80.2363 62.7266 81 62.7266 81.9766C62.7266 82.9336 62.4551 83.7012 61.9121 84.2793C61.373 84.8535 60.6484 85.1406 59.7383 85.1406ZM59.8086 79.668C59.1914 79.668 58.7031 79.8789 58.3438 80.3008C57.9844 80.7188 57.8047 81.2969 57.8047 82.0352C57.8047 82.7461 57.9863 83.3066 58.3496 83.7168C58.7129 84.127 59.1992 84.332 59.8086 84.332C60.4297 84.332 60.9062 84.1309 61.2383 83.7285C61.5742 83.3262 61.7422 82.7539 61.7422 82.0117C61.7422 81.2617 61.5742 80.6836 61.2383 80.2773C60.9062 79.8711 60.4297 79.668 59.8086 79.668ZM65.2461 84.1328H65.2227V85H64.2617V76.1172H65.2227V80.0547H65.2461C65.7188 79.2578 66.4102 78.8594 67.3203 78.8594C68.0898 78.8594 68.6914 79.1289 69.125 79.668C69.5625 80.2031 69.7812 80.9219 69.7812 81.8242C69.7812 82.8281 69.5371 83.6328 69.0488 84.2383C68.5605 84.8398 67.8926 85.1406 67.0449 85.1406C66.252 85.1406 65.6523 84.8047 65.2461 84.1328ZM65.2227 81.7129V82.5508C65.2227 83.0469 65.3828 83.4688 65.7031 83.8164C66.0273 84.1602 66.4375 84.332 66.9336 84.332C67.5156 84.332 67.9707 84.1094 68.2988 83.6641C68.6309 83.2188 68.7969 82.5996 68.7969 81.8066C68.7969 81.1387 68.6426 80.6152 68.334 80.2363C68.0254 79.8574 67.6074 79.668 67.0801 79.668C66.5215 79.668 66.0723 79.8633 65.7324 80.2539C65.3926 80.6406 65.2227 81.127 65.2227 81.7129Z" fill="#020057"/>
</svg>
