<svg width="100%" viewBox="0 0 100 128" fill="none" xmlns="http://www.w3.org/2000/svg">
<rect width="100" height="128" fill="#FBFBFE"/>
<path d="M55.75 11C57.5449 11 59 12.4551 59 14.25V25.75C59 27.5449 57.5449 29 55.75 29H44.25C42.4551 29 41 27.5449 41 25.75V14.25C41 12.4551 42.4551 11 44.25 11H55.75ZM56.3305 27.4014L50.5247 21.7148C50.2596 21.4553 49.8501 21.4316 49.5588 21.644L49.4752 21.7148L43.6685 27.4011C43.8504 27.4651 44.0461 27.5 44.25 27.5H55.75C55.9535 27.5 56.1489 27.4653 56.3305 27.4014L50.5247 21.7148L56.3305 27.4014ZM55.75 12.5H44.25C43.2835 12.5 42.5 13.2835 42.5 14.25V25.75C42.5 25.9584 42.5364 26.1583 42.6033 26.3437L48.4258 20.643C49.2589 19.8273 50.5675 19.7885 51.4458 20.5266L51.5742 20.6431L57.3964 26.3447C57.4634 26.159 57.5 25.9588 57.5 25.75V14.25C57.5 13.2835 56.7165 12.5 55.75 12.5ZM53.2521 14.5C54.4959 14.5 55.5042 15.5083 55.5042 16.7521C55.5042 17.9959 54.4959 19.0042 53.2521 19.0042C52.0083 19.0042 51 17.9959 51 16.7521C51 15.5083 52.0083 14.5 53.2521 14.5ZM53.2521 16C52.8367 16 52.5 16.3367 52.5 16.7521C52.5 17.1675 52.8367 17.5042 53.2521 17.5042C53.6675 17.5042 54.0042 17.1675 54.0042 16.7521C54.0042 16.3367 53.6675 16 53.2521 16Z" fill="#020057"/>
<path d="M31.8711 52.6484C31.25 52.9766 30.4766 53.1406 29.5508 53.1406C28.3555 53.1406 27.3984 52.7559 26.6797 51.9863C25.9609 51.2168 25.6016 50.207 25.6016 48.957C25.6016 47.6133 26.0059 46.5273 26.8145 45.6992C27.623 44.8711 28.6484 44.457 29.8906 44.457C30.6875 44.457 31.3477 44.5723 31.8711 44.8027V45.8516C31.2695 45.5156 30.6055 45.3477 29.8789 45.3477C28.9141 45.3477 28.1309 45.6699 27.5293 46.3145C26.9316 46.959 26.6328 47.8203 26.6328 48.8984C26.6328 49.9219 26.9121 50.7383 27.4707 51.3477C28.0332 51.9531 28.7695 52.2559 29.6797 52.2559C30.5234 52.2559 31.2539 52.0684 31.8711 51.6934V52.6484ZM34.4141 53H33.4531V44.1172H34.4141V53ZM40.6543 53H39.6934V52.0625H39.6699C39.252 52.7812 38.6367 53.1406 37.8242 53.1406C37.2266 53.1406 36.7578 52.9824 36.418 52.666C36.082 52.3496 35.9141 51.9297 35.9141 51.4062C35.9141 50.2852 36.5742 49.6328 37.8945 49.4492L39.6934 49.1973C39.6934 48.1777 39.2812 47.668 38.457 47.668C37.7344 47.668 37.082 47.9141 36.5 48.4062V47.4219C37.0898 47.0469 37.7695 46.8594 38.5391 46.8594C39.9492 46.8594 40.6543 47.6055 40.6543 49.0977V53ZM39.6934 49.9648L38.2461 50.1641C37.8008 50.2266 37.4648 50.3379 37.2383 50.498C37.0117 50.6543 36.8984 50.9336 36.8984 51.3359C36.8984 51.6289 37.002 51.8691 37.209 52.0566C37.4199 52.2402 37.6992 52.332 38.0469 52.332C38.5234 52.332 38.916 52.166 39.2246 51.834C39.5371 51.498 39.6934 51.0742 39.6934 50.5625V49.9648ZM45.5938 47.9727C45.4258 47.8438 45.1836 47.7793 44.8672 47.7793C44.457 47.7793 44.1133 47.9727 43.8359 48.3594C43.5625 48.7461 43.4258 49.2734 43.4258 49.9414V53H42.4648V47H43.4258V48.2363H43.4492C43.5859 47.8145 43.7949 47.4863 44.0762 47.252C44.3574 47.0137 44.6719 46.8945 45.0195 46.8945C45.2695 46.8945 45.4609 46.9219 45.5938 46.9766V47.9727ZM47.1289 45.4766C46.957 45.4766 46.8105 45.418 46.6895 45.3008C46.5684 45.1836 46.5078 45.0352 46.5078 44.8555C46.5078 44.6758 46.5684 44.5273 46.6895 44.4102C46.8105 44.2891 46.957 44.2285 47.1289 44.2285C47.3047 44.2285 47.4531 44.2891 47.5742 44.4102C47.6992 44.5273 47.7617 44.6758 47.7617 44.8555C47.7617 45.0273 47.6992 45.1738 47.5742 45.2949C47.4531 45.416 47.3047 45.4766 47.1289 45.4766ZM47.5977 53H46.6367V47H47.5977V53ZM52.3262 52.9414C52.0996 53.0664 51.8008 53.1289 51.4297 53.1289C50.3789 53.1289 49.8535 52.543 49.8535 51.3711V47.8203H48.8223V47H49.8535V45.5352L50.8145 45.2246V47H52.3262V47.8203H50.8145V51.2012C50.8145 51.6035 50.8828 51.8906 51.0195 52.0625C51.1562 52.2344 51.3828 52.3203 51.6992 52.3203C51.9414 52.3203 52.1504 52.2539 52.3262 52.1211V52.9414ZM58.3848 47L55.625 53.9609C55.1328 55.2031 54.4414 55.8242 53.5508 55.8242C53.3008 55.8242 53.0918 55.7988 52.9238 55.748V54.8867C53.1309 54.957 53.3203 54.9922 53.4922 54.9922C53.9766 54.9922 54.3398 54.7031 54.582 54.125L55.0625 52.9883L52.7188 47H53.7852L55.4082 51.6172C55.4277 51.6758 55.4688 51.8281 55.5312 52.0742H55.5664C55.5859 51.9805 55.625 51.832 55.6836 51.6289L57.3887 47H58.3848ZM67.6953 53H66.7344V50.2754H63.6758V53H62.7148V47H63.6758V49.4609H66.7344V47H67.6953V53ZM74.4629 50.2402H70.2266C70.2422 50.9082 70.4219 51.4238 70.7656 51.7871C71.1094 52.1504 71.582 52.332 72.1836 52.332C72.8594 52.332 73.4805 52.1094 74.0469 51.6641V52.5664C73.5195 52.9492 72.8223 53.1406 71.9551 53.1406C71.1074 53.1406 70.4414 52.8691 69.957 52.3262C69.4727 51.7793 69.2305 51.0117 69.2305 50.0234C69.2305 49.0898 69.4941 48.3301 70.0215 47.7441C70.5527 47.1543 71.2109 46.8594 71.9961 46.8594C72.7812 46.8594 73.3887 47.1133 73.8184 47.6211C74.248 48.1289 74.4629 48.834 74.4629 49.7363V50.2402ZM73.4785 49.4258C73.4746 48.8711 73.3398 48.4395 73.0742 48.1309C72.8125 47.8223 72.4473 47.668 71.9785 47.668C71.5254 47.668 71.1406 47.8301 70.8242 48.1543C70.5078 48.4785 70.3125 48.9023 70.2383 49.4258H73.4785ZM39.6465 69H38.6973V64.0547C38.6113 64.3047 38.4785 64.6719 38.2988 65.1562L36.7988 69H35.9375L34.3906 65.1562C34.3086 64.9492 34.1758 64.582 33.9922 64.0547V69H33.166V63H34.3906L35.9727 66.9141C36.0859 67.1992 36.2305 67.5938 36.4062 68.0977L36.834 66.9375L38.3691 63H39.6465V69ZM44.0996 69.1406C43.2129 69.1406 42.5039 68.8613 41.9727 68.3027C41.4453 67.7402 41.1816 66.9961 41.1816 66.0703C41.1816 65.0625 41.457 64.2754 42.0078 63.709C42.5586 63.1426 43.3027 62.8594 44.2402 62.8594C45.1348 62.8594 45.832 63.1348 46.332 63.6855C46.8359 64.2363 47.0879 65 47.0879 65.9766C47.0879 66.9336 46.8164 67.7012 46.2734 68.2793C45.7344 68.8535 45.0098 69.1406 44.0996 69.1406ZM44.1699 63.668C43.5527 63.668 43.0645 63.8789 42.7051 64.3008C42.3457 64.7188 42.166 65.2969 42.166 66.0352C42.166 66.7461 42.3477 67.3066 42.7109 67.7168C43.0742 68.127 43.5605 68.332 44.1699 68.332C44.791 68.332 45.2676 68.1309 45.5996 67.7285C45.9355 67.3262 46.1035 66.7539 46.1035 66.0117C46.1035 65.2617 45.9355 64.6836 45.5996 64.2773C45.2676 63.8711 44.791 63.668 44.1699 63.668ZM56.5918 69H55.291L52.6074 66.0352H52.584V69H51.6699V66.0352H51.6465L48.957 69H47.6738L50.6504 65.9062L47.8555 63H49.0801L51.6465 65.8066H51.6699V63H52.584V65.8066H52.6074L55.1738 63H56.4102L53.6035 65.9062L56.5918 69ZM62.3984 66.2402H58.1621C58.1777 66.9082 58.3574 67.4238 58.7012 67.7871C59.0449 68.1504 59.5176 68.332 60.1191 68.332C60.7949 68.332 61.416 68.1094 61.9824 67.6641V68.5664C61.4551 68.9492 60.7578 69.1406 59.8906 69.1406C59.043 69.1406 58.377 68.8691 57.8926 68.3262C57.4082 67.7793 57.166 67.0117 57.166 66.0234C57.166 65.0898 57.4297 64.3301 57.957 63.7441C58.4883 63.1543 59.1465 62.8594 59.9316 62.8594C60.7168 62.8594 61.3242 63.1133 61.7539 63.6211C62.1836 64.1289 62.3984 64.834 62.3984 65.7363V66.2402ZM61.4141 65.4258C61.4102 64.8711 61.2754 64.4395 61.0098 64.1309C60.748 63.8223 60.3828 63.668 59.9141 63.668C59.4609 63.668 59.0762 63.8301 58.7598 64.1543C58.4434 64.4785 58.248 64.9023 58.1738 65.4258H61.4141ZM67.625 63.8203H65.8262V69H64.8652V63.8203H63.0605V63H67.625V63.8203ZM27.5703 85H26.6094V79.8203H23.5508V85H22.5898V79H27.5703V85ZM30.5 84.1328H30.4766V87.7598H29.5156V79H30.4766V80.0547H30.5C30.9727 79.2578 31.6641 78.8594 32.5742 78.8594C33.3477 78.8594 33.9512 79.1289 34.3848 79.668C34.8184 80.2031 35.0352 80.9219 35.0352 81.8242C35.0352 82.8281 34.791 83.6328 34.3027 84.2383C33.8145 84.8398 33.1465 85.1406 32.2988 85.1406C31.5215 85.1406 30.9219 84.8047 30.5 84.1328ZM30.4766 81.7129V82.5508C30.4766 83.0469 30.6367 83.4688 30.957 83.8164C31.2812 84.1602 31.6914 84.332 32.1875 84.332C32.7695 84.332 33.2246 84.1094 33.5527 83.6641C33.8848 83.2188 34.0508 82.5996 34.0508 81.8066C34.0508 81.1387 33.8965 80.6152 33.5879 80.2363C33.2793 79.8574 32.8613 79.668 32.334 79.668C31.7754 79.668 31.3262 79.8633 30.9863 80.2539C30.6465 80.6406 30.4766 81.127 30.4766 81.7129ZM39.0781 85.1406C38.1914 85.1406 37.4824 84.8613 36.9512 84.3027C36.4238 83.7402 36.1602 82.9961 36.1602 82.0703C36.1602 81.0625 36.4355 80.2754 36.9863 79.709C37.5371 79.1426 38.2812 78.8594 39.2188 78.8594C40.1133 78.8594 40.8105 79.1348 41.3105 79.6855C41.8145 80.2363 42.0664 81 42.0664 81.9766C42.0664 82.9336 41.7949 83.7012 41.252 84.2793C40.7129 84.8535 39.9883 85.1406 39.0781 85.1406ZM39.1484 79.668C38.5312 79.668 38.043 79.8789 37.6836 80.3008C37.3242 80.7188 37.1445 81.2969 37.1445 82.0352C37.1445 82.7461 37.3262 83.3066 37.6895 83.7168C38.0527 84.127 38.5391 84.332 39.1484 84.332C39.7695 84.332 40.2461 84.1309 40.5781 83.7285C40.9141 83.3262 41.082 82.7539 41.082 82.0117C41.082 81.2617 40.9141 80.6836 40.5781 80.2773C40.2461 79.8711 39.7695 79.668 39.1484 79.668ZM48.4355 85H47.4805V82.5859C46.7773 82.9688 46.1289 83.1602 45.5352 83.1602C44.1914 83.1602 43.5195 82.4492 43.5195 81.0273V79H44.4805V80.9805C44.4805 81.8594 44.8594 82.2988 45.6172 82.2988C46.1953 82.2988 46.8164 82.1309 47.4805 81.7949V79H48.4355V85ZM55.4141 85H54.5469V80.2129C54.4609 80.3809 54.3301 80.6172 54.1543 80.9219L51.3828 85H50.3867V79H51.2656V83.7285C51.3125 83.6152 51.4141 83.4219 51.5703 83.1484L54.418 79H55.4141V85ZM61.127 79.8203H59.3281V85H58.3672V79.8203H56.5625V79H61.127V79.8203ZM66.5762 85H65.6152V84.0625H65.5918C65.1738 84.7812 64.5586 85.1406 63.7461 85.1406C63.1484 85.1406 62.6797 84.9824 62.3398 84.666C62.0039 84.3496 61.8359 83.9297 61.8359 83.4062C61.8359 82.2852 62.4961 81.6328 63.8164 81.4492L65.6152 81.1973C65.6152 80.1777 65.2031 79.668 64.3789 79.668C63.6562 79.668 63.0039 79.9141 62.4219 80.4062V79.4219C63.0117 79.0469 63.6914 78.8594 64.4609 78.8594C65.8711 78.8594 66.5762 79.6055 66.5762 81.0977V85ZM65.6152 81.9648L64.168 82.1641C63.7227 82.2266 63.3867 82.3379 63.1602 82.498C62.9336 82.6543 62.8203 82.9336 62.8203 83.3359C62.8203 83.6289 62.9238 83.8691 63.1309 84.0566C63.3418 84.2402 63.6211 84.332 63.9688 84.332C64.4453 84.332 64.8379 84.166 65.1465 83.834C65.459 83.498 65.6152 83.0742 65.6152 82.5625V81.9648ZM72.1543 79.8203H70.3555V85H69.3945V79.8203H67.5898V79H72.1543V79.8203ZM73.3086 85V79H74.2695V81.3027H75.8867C76.5 81.3027 76.9863 81.4629 77.3457 81.7832C77.709 82.1035 77.8906 82.5508 77.8906 83.125C77.8906 83.7031 77.709 84.1602 77.3457 84.4961C76.9824 84.832 76.5234 85 75.9688 85H73.3086ZM74.2695 82.1289V84.1797H75.7109C76.5078 84.1797 76.9062 83.8281 76.9062 83.125C76.9062 82.4609 76.5039 82.1289 75.6992 82.1289H74.2695ZM17.4746 103.186H16.6602V101H12.1953V103.186H11.375V100.186H11.9082C12.9316 98.709 13.4512 96.9805 13.4668 95H16.584V100.186H17.4746V103.186ZM15.623 100.186V95.8145H14.293C14.1875 97.4316 13.7324 98.8887 12.9277 100.186H15.623ZM23.0996 101H22.1387V100.062H22.1152C21.6973 100.781 21.082 101.141 20.2695 101.141C19.6719 101.141 19.2031 100.982 18.8633 100.666C18.5273 100.35 18.3594 99.9297 18.3594 99.4062C18.3594 98.2852 19.0195 97.6328 20.3398 97.4492L22.1387 97.1973C22.1387 96.1777 21.7266 95.668 20.9023 95.668C20.1797 95.668 19.5273 95.9141 18.9453 96.4062V95.4219C19.5352 95.0469 20.2148 94.8594 20.9844 94.8594C22.3945 94.8594 23.0996 95.6055 23.0996 97.0977V101ZM22.1387 97.9648L20.6914 98.1641C20.2461 98.2266 19.9102 98.3379 19.6836 98.498C19.457 98.6543 19.3438 98.9336 19.3438 99.3359C19.3438 99.6289 19.4473 99.8691 19.6543 100.057C19.8652 100.24 20.1445 100.332 20.4922 100.332C20.9688 100.332 21.3613 100.166 21.6699 99.834C21.9824 99.498 22.1387 99.0742 22.1387 98.5625V97.9648ZM29.8906 101H28.9297V98.2754H25.8711V101H24.9102V95H25.8711V97.4609H28.9297V95H29.8906V101ZM36.8164 101H35.8555V98.2754H32.7969V101H31.8359V95H32.7969V97.4609H35.8555V95H36.8164V101ZM45.3242 101H44.375V95H45.3242V101ZM38.7617 101V95H39.7227V97.3027H41.3398C41.9531 97.3027 42.4395 97.4629 42.7988 97.7832C43.1621 98.1035 43.3438 98.5508 43.3438 99.125C43.3438 99.7031 43.1621 100.16 42.7988 100.496C42.4355 100.832 41.9766 101 41.4219 101H38.7617ZM39.7227 98.1289V100.18H41.1641C41.9609 100.18 42.3594 99.8281 42.3594 99.125C42.3594 98.4609 41.957 98.1289 41.1523 98.1289H39.7227ZM52.1035 98.2402H47.8672C47.8828 98.9082 48.0625 99.4238 48.4062 99.7871C48.75 100.15 49.2227 100.332 49.8242 100.332C50.5 100.332 51.1211 100.109 51.6875 99.6641V100.566C51.1602 100.949 50.4629 101.141 49.5957 101.141C48.748 101.141 48.082 100.869 47.5977 100.326C47.1133 99.7793 46.8711 99.0117 46.8711 98.0234C46.8711 97.0898 47.1348 96.3301 47.6621 95.7441C48.1934 95.1543 48.8516 94.8594 49.6367 94.8594C50.4219 94.8594 51.0293 95.1133 51.459 95.6211C51.8887 96.1289 52.1035 96.834 52.1035 97.7363V98.2402ZM51.1191 97.4258C51.1152 96.8711 50.9805 96.4395 50.7148 96.1309C50.4531 95.8223 50.0879 95.668 49.6191 95.668C49.166 95.668 48.7812 95.8301 48.4648 96.1543C48.1484 96.4785 47.9531 96.9023 47.8789 97.4258H51.1191ZM56.9844 101V92.5977H59.375C60.1016 92.5977 60.6777 92.7754 61.1035 93.1309C61.5293 93.4863 61.7422 93.9492 61.7422 94.5195C61.7422 94.9961 61.6133 95.4102 61.3555 95.7617C61.0977 96.1133 60.7422 96.3633 60.2891 96.5117V96.5352C60.8555 96.6016 61.3086 96.8164 61.6484 97.1797C61.9883 97.5391 62.1582 98.0078 62.1582 98.5859C62.1582 99.3047 61.9004 99.8867 61.3848 100.332C60.8691 100.777 60.2188 101 59.4336 101H56.9844ZM57.9688 93.4883V96.2012H58.9766C59.5156 96.2012 59.9395 96.0723 60.248 95.8145C60.5566 95.5527 60.7109 95.1855 60.7109 94.7129C60.7109 93.8965 60.1738 93.4883 59.0996 93.4883H57.9688ZM57.9688 97.0859V100.109H59.3047C59.8828 100.109 60.3301 99.9727 60.6465 99.6992C60.9668 99.4258 61.127 99.0508 61.127 98.5742C61.127 97.582 60.4512 97.0859 59.0996 97.0859H57.9688ZM68.2227 101H63.8633V92.5977H64.8477V100.109H68.2227V101ZM72.4883 101.141C71.2969 101.141 70.3418 100.748 69.623 99.9629C68.9082 99.1777 68.5508 98.1562 68.5508 96.8984C68.5508 95.5469 68.916 94.4688 69.6465 93.6641C70.377 92.8594 71.3711 92.457 72.6289 92.457C73.7891 92.457 74.7227 92.8477 75.4297 93.6289C76.1406 94.4102 76.4961 95.4316 76.4961 96.6934C76.4961 98.0645 76.1328 99.1484 75.4062 99.9453C74.6797 100.742 73.707 101.141 72.4883 101.141ZM72.5586 93.3477C71.6758 93.3477 70.959 93.666 70.4082 94.3027C69.8574 94.9395 69.582 95.7754 69.582 96.8105C69.582 97.8457 69.8496 98.6797 70.3848 99.3125C70.9238 99.9414 71.625 100.256 72.4883 100.256C73.4102 100.256 74.1367 99.9551 74.668 99.3535C75.1992 98.752 75.4648 97.9102 75.4648 96.8281C75.4648 95.7188 75.207 94.8613 74.6914 94.2559C74.1758 93.6504 73.4648 93.3477 72.5586 93.3477ZM78.1484 101V92.5977H80.5391C81.2656 92.5977 81.8418 92.7754 82.2676 93.1309C82.6934 93.4863 82.9062 93.9492 82.9062 94.5195C82.9062 94.9961 82.7773 95.4102 82.5195 95.7617C82.2617 96.1133 81.9062 96.3633 81.4531 96.5117V96.5352C82.0195 96.6016 82.4727 96.8164 82.8125 97.1797C83.1523 97.5391 83.3223 98.0078 83.3223 98.5859C83.3223 99.3047 83.0645 99.8867 82.5488 100.332C82.0332 100.777 81.3828 101 80.5977 101H78.1484ZM79.1328 93.4883V96.2012H80.1406C80.6797 96.2012 81.1035 96.0723 81.4121 95.8145C81.7207 95.5527 81.875 95.1855 81.875 94.7129C81.875 93.8965 81.3379 93.4883 80.2637 93.4883H79.1328ZM79.1328 97.0859V100.109H80.4688C81.0469 100.109 81.4941 99.9727 81.8105 99.6992C82.1309 99.4258 82.291 99.0508 82.291 98.5742C82.291 97.582 81.6152 97.0859 80.2637 97.0859H79.1328ZM87.9688 98.0352H84.7695V97.2793H87.9688V98.0352ZM31.3086 117.141C30.4219 117.141 29.7129 116.861 29.1816 116.303C28.6543 115.74 28.3906 114.996 28.3906 114.07C28.3906 113.062 28.666 112.275 29.2168 111.709C29.7676 111.143 30.5117 110.859 31.4492 110.859C32.3438 110.859 33.041 111.135 33.541 111.686C34.0449 112.236 34.2969 113 34.2969 113.977C34.2969 114.934 34.0254 115.701 33.4824 116.279C32.9434 116.854 32.2188 117.141 31.3086 117.141ZM31.3789 111.668C30.7617 111.668 30.2734 111.879 29.9141 112.301C29.5547 112.719 29.375 113.297 29.375 114.035C29.375 114.746 29.5566 115.307 29.9199 115.717C30.2832 116.127 30.7695 116.332 31.3789 116.332C32 116.332 32.4766 116.131 32.8086 115.729C33.1445 115.326 33.3125 114.754 33.3125 114.012C33.3125 113.262 33.1445 112.684 32.8086 112.277C32.4766 111.871 32 111.668 31.3789 111.668ZM40.4727 108.047V108.949C40.3125 109.066 40.0547 109.154 39.6992 109.213C38.8203 109.346 38.2051 109.475 37.8535 109.6C37.5059 109.721 37.2188 109.982 36.9922 110.385C36.7695 110.787 36.627 111.375 36.5645 112.148H36.5879C37.0566 111.469 37.7246 111.129 38.5918 111.129C39.3848 111.129 40.0234 111.4 40.5078 111.943C40.9922 112.486 41.2344 113.203 41.2344 114.094C41.2344 115.012 40.9805 115.75 40.4727 116.309C39.9688 116.863 39.2891 117.141 38.4336 117.141C37.5117 117.141 36.8008 116.814 36.3008 116.162C35.8047 115.506 35.5566 114.57 35.5566 113.355C35.5566 112.41 35.6465 111.609 35.8262 110.953C36.0059 110.293 36.2539 109.797 36.5703 109.465C36.8906 109.133 37.2441 108.904 37.6309 108.779C38.0215 108.654 38.6895 108.508 39.6348 108.34C40.0098 108.254 40.2891 108.156 40.4727 108.047ZM36.5527 113.098V113.93C36.5566 114.242 36.6035 114.549 36.6934 114.85C36.7832 115.15 36.9121 115.416 37.0801 115.646C37.248 115.877 37.4453 116.049 37.6719 116.162C37.9023 116.275 38.1641 116.332 38.457 116.332C38.9922 116.332 39.4238 116.133 39.752 115.734C40.084 115.332 40.25 114.818 40.25 114.193C40.25 113.506 40.0801 112.961 39.7402 112.559C39.4043 112.152 38.9492 111.949 38.375 111.949C37.5703 111.949 36.9629 112.332 36.5527 113.098ZM43.8125 117V111.82H41.9844V111H44.7734V113.303H46.3906C47.0039 113.303 47.4902 113.463 47.8496 113.783C48.2129 114.1 48.3945 114.547 48.3945 115.125C48.3945 115.703 48.2129 116.16 47.8496 116.496C47.4863 116.832 47.0273 117 46.4727 117H43.8125ZM44.7734 114.129V116.18H46.2148C47.0117 116.18 47.4102 115.828 47.4102 115.125C47.4102 114.461 47.0078 114.129 46.2031 114.129H44.7734ZM54.6934 114.24H50.457C50.4727 114.908 50.6523 115.424 50.9961 115.787C51.3398 116.15 51.8125 116.332 52.4141 116.332C53.0898 116.332 53.7109 116.109 54.2773 115.664V116.566C53.75 116.949 53.0527 117.141 52.1855 117.141C51.3379 117.141 50.6719 116.869 50.1875 116.326C49.7031 115.779 49.4609 115.012 49.4609 114.023C49.4609 113.09 49.7246 112.33 50.252 111.744C50.7832 111.154 51.4414 110.859 52.2266 110.859C53.0117 110.859 53.6191 111.113 54.0488 111.621C54.4785 112.129 54.6934 112.834 54.6934 113.736V114.24ZM53.709 113.426C53.7051 112.871 53.5703 112.439 53.3047 112.131C53.043 111.822 52.6777 111.668 52.209 111.668C51.7559 111.668 51.3711 111.83 51.0547 112.154C50.7383 112.479 50.543 112.902 50.4688 113.426H53.709ZM61.1328 117H59.7852L57.1367 114.117H57.1133V117H56.1523V111H57.1133V113.748H57.1367L59.6562 111H60.916L58.1328 113.895L61.1328 117ZM65.8848 111.82H64.0859V117H63.125V111.82H61.3203V111H65.8848V111.82ZM71.334 117H70.373V116.062H70.3496C69.9316 116.781 69.3164 117.141 68.5039 117.141C67.9062 117.141 67.4375 116.982 67.0977 116.666C66.7617 116.35 66.5938 115.93 66.5938 115.406C66.5938 114.285 67.2539 113.633 68.5742 113.449L70.373 113.197C70.373 112.178 69.9609 111.668 69.1367 111.668C68.4141 111.668 67.7617 111.914 67.1797 112.406V111.422C67.7695 111.047 68.4492 110.859 69.2188 110.859C70.6289 110.859 71.334 111.605 71.334 113.098V117ZM70.373 113.965L68.9258 114.164C68.4805 114.227 68.1445 114.338 67.918 114.498C67.6914 114.654 67.5781 114.934 67.5781 115.336C67.5781 115.629 67.6816 115.869 67.8887 116.057C68.0996 116.24 68.3789 116.332 68.7266 116.332C69.2031 116.332 69.5957 116.166 69.9043 115.834C70.2168 115.498 70.373 115.074 70.373 114.562V113.965Z" fill="#020057"/>
</svg>
