<svg width="100" height="96" viewBox="0 0 100 96" fill="none" xmlns="http://www.w3.org/2000/svg">
<rect width="100" height="96" fill="#FBFBFE"/>
<path d="M55.75 11C57.5449 11 59 12.4551 59 14.25V25.75C59 27.5449 57.5449 29 55.75 29H44.25C42.4551 29 41 27.5449 41 25.75V14.25C41 12.4551 42.4551 11 44.25 11H55.75ZM56.3305 27.4014L50.5247 21.7148C50.2596 21.4553 49.8501 21.4316 49.5588 21.644L49.4752 21.7148L43.6685 27.4011C43.8504 27.4651 44.0461 27.5 44.25 27.5H55.75C55.9535 27.5 56.1489 27.4653 56.3305 27.4014L50.5247 21.7148L56.3305 27.4014ZM55.75 12.5H44.25C43.2835 12.5 42.5 13.2835 42.5 14.25V25.75C42.5 25.9584 42.5364 26.1583 42.6033 26.3437L48.4258 20.643C49.2589 19.8273 50.5675 19.7885 51.4458 20.5266L51.5742 20.6431L57.3964 26.3447C57.4634 26.159 57.5 25.9588 57.5 25.75V14.25C57.5 13.2835 56.7165 12.5 55.75 12.5ZM53.2521 14.5C54.4959 14.5 55.5042 15.5083 55.5042 16.7521C55.5042 17.9959 54.4959 19.0042 53.2521 19.0042C52.0083 19.0042 51 17.9959 51 16.7521C51 15.5083 52.0083 14.5 53.2521 14.5ZM53.2521 16C52.8367 16 52.5 16.3367 52.5 16.7521C52.5 17.1675 52.8367 17.5042 53.2521 17.5042C53.6675 17.5042 54.0042 17.1675 54.0042 16.7521C54.0042 16.3367 53.6675 16 53.2521 16Z" fill="#020057"/>
<path d="M31.5605 52.6484C30.9395 52.9766 30.166 53.1406 29.2402 53.1406C28.0449 53.1406 27.0879 52.7559 26.3691 51.9863C25.6504 51.2168 25.291 50.207 25.291 48.957C25.291 47.6133 25.6953 46.5273 26.5039 45.6992C27.3125 44.8711 28.3379 44.457 29.5801 44.457C30.377 44.457 31.0371 44.5723 31.5605 44.8027V45.8516C30.959 45.5156 30.2949 45.3477 29.5684 45.3477C28.6035 45.3477 27.8203 45.6699 27.2188 46.3145C26.6211 46.959 26.3223 47.8203 26.3223 48.8984C26.3223 49.9219 26.6016 50.7383 27.1602 51.3477C27.7227 51.9531 28.459 52.2559 29.3691 52.2559C30.2129 52.2559 30.9434 52.0684 31.5605 51.6934V52.6484ZM34.1035 53H33.1426V44.1172H34.1035V53ZM40.3438 53H39.3828V52.0625H39.3594C38.9414 52.7812 38.3262 53.1406 37.5137 53.1406C36.916 53.1406 36.4473 52.9824 36.1074 52.666C35.7715 52.3496 35.6035 51.9297 35.6035 51.4062C35.6035 50.2852 36.2637 49.6328 37.584 49.4492L39.3828 49.1973C39.3828 48.1777 38.9707 47.668 38.1465 47.668C37.4238 47.668 36.7715 47.9141 36.1895 48.4062V47.4219C36.7793 47.0469 37.459 46.8594 38.2285 46.8594C39.6387 46.8594 40.3438 47.6055 40.3438 49.0977V53ZM39.3828 49.9648L37.9355 50.1641C37.4902 50.2266 37.1543 50.3379 36.9277 50.498C36.7012 50.6543 36.5879 50.9336 36.5879 51.3359C36.5879 51.6289 36.6914 51.8691 36.8984 52.0566C37.1094 52.2402 37.3887 52.332 37.7363 52.332C38.2129 52.332 38.6055 52.166 38.9141 51.834C39.2266 51.498 39.3828 51.0742 39.3828 50.5625V49.9648ZM45.2832 47.9727C45.1152 47.8438 44.873 47.7793 44.5566 47.7793C44.1465 47.7793 43.8027 47.9727 43.5254 48.3594C43.252 48.7461 43.1152 49.2734 43.1152 49.9414V53H42.1543V47H43.1152V48.2363H43.1387C43.2754 47.8145 43.4844 47.4863 43.7656 47.252C44.0469 47.0137 44.3613 46.8945 44.709 46.8945C44.959 46.8945 45.1504 46.9219 45.2832 46.9766V47.9727ZM46.8184 45.4766C46.6465 45.4766 46.5 45.418 46.3789 45.3008C46.2578 45.1836 46.1973 45.0352 46.1973 44.8555C46.1973 44.6758 46.2578 44.5273 46.3789 44.4102C46.5 44.2891 46.6465 44.2285 46.8184 44.2285C46.9941 44.2285 47.1426 44.2891 47.2637 44.4102C47.3887 44.5273 47.4512 44.6758 47.4512 44.8555C47.4512 45.0273 47.3887 45.1738 47.2637 45.2949C47.1426 45.416 46.9941 45.4766 46.8184 45.4766ZM47.2871 53H46.3262V47H47.2871V53ZM52.0156 52.9414C51.7891 53.0664 51.4902 53.1289 51.1191 53.1289C50.0684 53.1289 49.543 52.543 49.543 51.3711V47.8203H48.5117V47H49.543V45.5352L50.5039 45.2246V47H52.0156V47.8203H50.5039V51.2012C50.5039 51.6035 50.5723 51.8906 50.709 52.0625C50.8457 52.2344 51.0723 52.3203 51.3887 52.3203C51.6309 52.3203 51.8398 52.2539 52.0156 52.1211V52.9414ZM58.0742 47L55.3145 53.9609C54.8223 55.2031 54.1309 55.8242 53.2402 55.8242C52.9902 55.8242 52.7812 55.7988 52.6133 55.748V54.8867C52.8203 54.957 53.0098 54.9922 53.1816 54.9922C53.666 54.9922 54.0293 54.7031 54.2715 54.125L54.752 52.9883L52.4082 47H53.4746L55.0977 51.6172C55.1172 51.6758 55.1582 51.8281 55.2207 52.0742H55.2559C55.2754 51.9805 55.3145 51.832 55.373 51.6289L57.0781 47H58.0742ZM67.3848 53H66.4238V49.5781C66.4238 48.3047 65.959 47.668 65.0293 47.668C64.5488 47.668 64.1504 47.8496 63.834 48.2129C63.5215 48.5723 63.3652 49.0273 63.3652 49.5781V53H62.4043V47H63.3652V47.9961H63.3887C63.8418 47.2383 64.498 46.8594 65.3574 46.8594C66.0137 46.8594 66.5156 47.0723 66.8633 47.498C67.2109 47.9199 67.3848 48.5312 67.3848 49.332V53ZM71.709 53.1406C70.8223 53.1406 70.1133 52.8613 69.582 52.3027C69.0547 51.7402 68.791 50.9961 68.791 50.0703C68.791 49.0625 69.0664 48.2754 69.6172 47.709C70.168 47.1426 70.9121 46.8594 71.8496 46.8594C72.7441 46.8594 73.4414 47.1348 73.9414 47.6855C74.4453 48.2363 74.6973 49 74.6973 49.9766C74.6973 50.9336 74.4258 51.7012 73.8828 52.2793C73.3438 52.8535 72.6191 53.1406 71.709 53.1406ZM71.7793 47.668C71.1621 47.668 70.6738 47.8789 70.3145 48.3008C69.9551 48.7188 69.7754 49.2969 69.7754 50.0352C69.7754 50.7461 69.957 51.3066 70.3203 51.7168C70.6836 52.127 71.1699 52.332 71.7793 52.332C72.4004 52.332 72.877 52.1309 73.209 51.7285C73.5449 51.3262 73.7129 50.7539 73.7129 50.0117C73.7129 49.2617 73.5449 48.6836 73.209 48.2773C72.877 47.8711 72.4004 47.668 71.7793 47.668ZM14.5859 68.1328H14.5625V71.7598H13.6016V63H14.5625V64.0547H14.5859C15.0586 63.2578 15.75 62.8594 16.6602 62.8594C17.4336 62.8594 18.0371 63.1289 18.4707 63.668C18.9043 64.2031 19.1211 64.9219 19.1211 65.8242C19.1211 66.8281 18.877 67.6328 18.3887 68.2383C17.9004 68.8398 17.2324 69.1406 16.3848 69.1406C15.6074 69.1406 15.0078 68.8047 14.5859 68.1328ZM14.5625 65.7129V66.5508C14.5625 67.0469 14.7227 67.4688 15.043 67.8164C15.3672 68.1602 15.7773 68.332 16.2734 68.332C16.8555 68.332 17.3105 68.1094 17.6387 67.6641C17.9707 67.2188 18.1367 66.5996 18.1367 65.8066C18.1367 65.1387 17.9824 64.6152 17.6738 64.2363C17.3652 63.8574 16.9473 63.668 16.4199 63.668C15.8613 63.668 15.4121 63.8633 15.0723 64.2539C14.7324 64.6406 14.5625 65.127 14.5625 65.7129ZM25.5078 69H24.5469V68.0508H24.5234C24.125 68.7773 23.5078 69.1406 22.6719 69.1406C21.2422 69.1406 20.5273 68.2891 20.5273 66.5859V63H21.4824V66.4336C21.4824 67.6992 21.9668 68.332 22.9355 68.332C23.4043 68.332 23.7891 68.1602 24.0898 67.8164C24.3945 67.4688 24.5469 67.0156 24.5469 66.457V63H25.5078V69ZM32.2754 66.2402H28.0391C28.0547 66.9082 28.2344 67.4238 28.5781 67.7871C28.9219 68.1504 29.3945 68.332 29.9961 68.332C30.6719 68.332 31.293 68.1094 31.8594 67.6641V68.5664C31.332 68.9492 30.6348 69.1406 29.7676 69.1406C28.9199 69.1406 28.2539 68.8691 27.7695 68.3262C27.2852 67.7793 27.043 67.0117 27.043 66.0234C27.043 65.0898 27.3066 64.3301 27.834 63.7441C28.3652 63.1543 29.0234 62.8594 29.8086 62.8594C30.5938 62.8594 31.2012 63.1133 31.6309 63.6211C32.0605 64.1289 32.2754 64.834 32.2754 65.7363V66.2402ZM31.291 65.4258C31.2871 64.8711 31.1523 64.4395 30.8867 64.1309C30.625 63.8223 30.2598 63.668 29.791 63.668C29.3379 63.668 28.9531 63.8301 28.6367 64.1543C28.3203 64.4785 28.125 64.9023 28.0508 65.4258H31.291ZM38.8555 69H37.8945V67.9805H37.8711C37.4258 68.7539 36.7383 69.1406 35.8086 69.1406C35.0547 69.1406 34.4512 68.873 33.998 68.3379C33.5488 67.7988 33.3242 67.0664 33.3242 66.1406C33.3242 65.1484 33.5742 64.3535 34.0742 63.7559C34.5742 63.1582 35.2402 62.8594 36.0723 62.8594C36.8965 62.8594 37.4961 63.1836 37.8711 63.832H37.8945V60.1172H38.8555V69ZM37.8945 66.2871V65.4023C37.8945 64.918 37.7344 64.5078 37.4141 64.1719C37.0938 63.8359 36.6875 63.668 36.1953 63.668C35.6094 63.668 35.1484 63.8828 34.8125 64.3125C34.4766 64.7422 34.3086 65.3359 34.3086 66.0938C34.3086 66.7852 34.4688 67.332 34.7891 67.7344C35.1133 68.1328 35.5469 68.332 36.0898 68.332C36.625 68.332 37.0586 68.1387 37.3906 67.752C37.7266 67.3652 37.8945 66.877 37.8945 66.2871ZM45.623 66.2402H41.3867C41.4023 66.9082 41.582 67.4238 41.9258 67.7871C42.2695 68.1504 42.7422 68.332 43.3438 68.332C44.0195 68.332 44.6406 68.1094 45.207 67.6641V68.5664C44.6797 68.9492 43.9824 69.1406 43.1152 69.1406C42.2676 69.1406 41.6016 68.8691 41.1172 68.3262C40.6328 67.7793 40.3906 67.0117 40.3906 66.0234C40.3906 65.0898 40.6543 64.3301 41.1816 63.7441C41.7129 63.1543 42.3711 62.8594 43.1562 62.8594C43.9414 62.8594 44.5488 63.1133 44.9785 63.6211C45.4082 64.1289 45.623 64.834 45.623 65.7363V66.2402ZM44.6387 65.4258C44.6348 64.8711 44.5 64.4395 44.2344 64.1309C43.9727 63.8223 43.6074 63.668 43.1387 63.668C42.6855 63.668 42.3008 63.8301 41.9844 64.1543C41.668 64.4785 41.4727 64.9023 41.3984 65.4258H44.6387ZM51.3359 69H50.375V60.1172H51.3359V69ZM58.1035 66.2402H53.8672C53.8828 66.9082 54.0625 67.4238 54.4062 67.7871C54.75 68.1504 55.2227 68.332 55.8242 68.332C56.5 68.332 57.1211 68.1094 57.6875 67.6641V68.5664C57.1602 68.9492 56.4629 69.1406 55.5957 69.1406C54.748 69.1406 54.082 68.8691 53.5977 68.3262C53.1133 67.7793 52.8711 67.0117 52.8711 66.0234C52.8711 65.0898 53.1348 64.3301 53.6621 63.7441C54.1934 63.1543 54.8516 62.8594 55.6367 62.8594C56.4219 62.8594 57.0293 63.1133 57.459 63.6211C57.8887 64.1289 58.1035 64.834 58.1035 65.7363V66.2402ZM57.1191 65.4258C57.1152 64.8711 56.9805 64.4395 56.7148 64.1309C56.4531 63.8223 56.0879 63.668 55.6191 63.668C55.166 63.668 54.7812 63.8301 54.4648 64.1543C54.1484 64.4785 53.9531 64.9023 53.8789 65.4258H57.1191ZM64.3848 66.2402H60.1484C60.1641 66.9082 60.3438 67.4238 60.6875 67.7871C61.0312 68.1504 61.5039 68.332 62.1055 68.332C62.7812 68.332 63.4023 68.1094 63.9688 67.6641V68.5664C63.4414 68.9492 62.7441 69.1406 61.877 69.1406C61.0293 69.1406 60.3633 68.8691 59.8789 68.3262C59.3945 67.7793 59.1523 67.0117 59.1523 66.0234C59.1523 65.0898 59.416 64.3301 59.9434 63.7441C60.4746 63.1543 61.1328 62.8594 61.918 62.8594C62.7031 62.8594 63.3105 63.1133 63.7402 63.6211C64.1699 64.1289 64.3848 64.834 64.3848 65.7363V66.2402ZM63.4004 65.4258C63.3965 64.8711 63.2617 64.4395 62.9961 64.1309C62.7344 63.8223 62.3691 63.668 61.9004 63.668C61.4473 63.668 61.0625 63.8301 60.7461 64.1543C60.4297 64.4785 60.2344 64.9023 60.1602 65.4258H63.4004ZM68.9727 63.9727C68.8047 63.8438 68.5625 63.7793 68.2461 63.7793C67.8359 63.7793 67.4922 63.9727 67.2148 64.3594C66.9414 64.7461 66.8047 65.2734 66.8047 65.9414V69H65.8438V63H66.8047V64.2363H66.8281C66.9648 63.8145 67.1738 63.4863 67.4551 63.252C67.7363 63.0137 68.0508 62.8945 68.3984 62.8945C68.6484 62.8945 68.8398 62.9219 68.9727 62.9766V63.9727ZM74.2695 69H73.3086V60.1172H74.2695V69ZM78.7227 69.1406C77.8359 69.1406 77.127 68.8613 76.5957 68.3027C76.0684 67.7402 75.8047 66.9961 75.8047 66.0703C75.8047 65.0625 76.0801 64.2754 76.6309 63.709C77.1816 63.1426 77.9258 62.8594 78.8633 62.8594C79.7578 62.8594 80.4551 63.1348 80.9551 63.6855C81.459 64.2363 81.7109 65 81.7109 65.9766C81.7109 66.9336 81.4395 67.7012 80.8965 68.2793C80.3574 68.8535 79.6328 69.1406 78.7227 69.1406ZM78.793 63.668C78.1758 63.668 77.6875 63.8789 77.3281 64.3008C76.9688 64.7188 76.7891 65.2969 76.7891 66.0352C76.7891 66.7461 76.9707 67.3066 77.334 67.7168C77.6973 68.127 78.1836 68.332 78.793 68.332C79.4141 68.332 79.8906 68.1309 80.2227 67.7285C80.5586 67.3262 80.7266 66.7539 80.7266 66.0117C80.7266 65.2617 80.5586 64.6836 80.2227 64.2773C79.8906 63.8711 79.4141 63.668 78.793 63.668ZM82.8828 68.7832V67.752C83.4062 68.1387 83.9824 68.332 84.6113 68.332C85.4551 68.332 85.877 68.0508 85.877 67.4883C85.877 67.3281 85.8398 67.1934 85.7656 67.084C85.6953 66.9707 85.5977 66.8711 85.4727 66.7852C85.3516 66.6992 85.207 66.623 85.0391 66.5566C84.875 66.4863 84.6973 66.4141 84.5059 66.3398C84.2402 66.2344 84.0059 66.1289 83.8027 66.0234C83.6035 65.9141 83.4355 65.793 83.2988 65.6602C83.166 65.5234 83.0645 65.3691 82.9941 65.1973C82.9277 65.0254 82.8945 64.8242 82.8945 64.5938C82.8945 64.3125 82.959 64.0645 83.0879 63.8496C83.2168 63.6309 83.3887 63.4492 83.6035 63.3047C83.8184 63.1562 84.0625 63.0449 84.3359 62.9707C84.6133 62.8965 84.8984 62.8594 85.1914 62.8594C85.7109 62.8594 86.1758 62.9492 86.5859 63.1289V64.1016C86.1445 63.8125 85.6367 63.668 85.0625 63.668C84.8828 63.668 84.7207 63.6895 84.5762 63.7324C84.4316 63.7715 84.3066 63.8281 84.2012 63.9023C84.0996 63.9766 84.0195 64.0664 83.9609 64.1719C83.9062 64.2734 83.8789 64.3867 83.8789 64.5117C83.8789 64.668 83.9062 64.7988 83.9609 64.9043C84.0195 65.0098 84.1035 65.1035 84.2129 65.1855C84.3223 65.2676 84.4551 65.3418 84.6113 65.4082C84.7676 65.4746 84.9453 65.5469 85.1445 65.625C85.4102 65.7266 85.6484 65.832 85.8594 65.9414C86.0703 66.0469 86.25 66.168 86.3984 66.3047C86.5469 66.4375 86.6602 66.5918 86.7383 66.7676C86.8203 66.9434 86.8613 67.1523 86.8613 67.3945C86.8613 67.6914 86.7949 67.9492 86.6621 68.168C86.5332 68.3867 86.3594 68.5684 86.1406 68.7129C85.9219 68.8574 85.6699 68.9648 85.3848 69.0352C85.0996 69.1055 84.8008 69.1406 84.4883 69.1406C83.8711 69.1406 83.3359 69.0215 82.8828 68.7832ZM17.9668 85H17.0059V83.9805H16.9824C16.5371 84.7539 15.8496 85.1406 14.9199 85.1406C14.166 85.1406 13.5625 84.873 13.1094 84.3379C12.6602 83.7988 12.4355 83.0664 12.4355 82.1406C12.4355 81.1484 12.6855 80.3535 13.1855 79.7559C13.6855 79.1582 14.3516 78.8594 15.1836 78.8594C16.0078 78.8594 16.6074 79.1836 16.9824 79.832H17.0059V76.1172H17.9668V85ZM17.0059 82.2871V81.4023C17.0059 80.918 16.8457 80.5078 16.5254 80.1719C16.2051 79.8359 15.7988 79.668 15.3066 79.668C14.7207 79.668 14.2598 79.8828 13.9238 80.3125C13.5879 80.7422 13.4199 81.3359 13.4199 82.0938C13.4199 82.7852 13.5801 83.332 13.9004 83.7344C14.2246 84.1328 14.6582 84.332 15.2012 84.332C15.7363 84.332 16.1699 84.1387 16.502 83.752C16.8379 83.3652 17.0059 82.877 17.0059 82.2871ZM24.207 85H23.2461V84.0625H23.2227C22.8047 84.7812 22.1895 85.1406 21.377 85.1406C20.7793 85.1406 20.3105 84.9824 19.9707 84.666C19.6348 84.3496 19.4668 83.9297 19.4668 83.4062C19.4668 82.2852 20.127 81.6328 21.4473 81.4492L23.2461 81.1973C23.2461 80.1777 22.834 79.668 22.0098 79.668C21.2871 79.668 20.6348 79.9141 20.0527 80.4062V79.4219C20.6426 79.0469 21.3223 78.8594 22.0918 78.8594C23.502 78.8594 24.207 79.6055 24.207 81.0977V85ZM23.2461 81.9648L21.7988 82.1641C21.3535 82.2266 21.0176 82.3379 20.791 82.498C20.5645 82.6543 20.4512 82.9336 20.4512 83.3359C20.4512 83.6289 20.5547 83.8691 20.7617 84.0566C20.9727 84.2402 21.252 84.332 21.5996 84.332C22.0762 84.332 22.4688 84.166 22.7773 83.834C23.0898 83.498 23.2461 83.0742 23.2461 82.5625V81.9648ZM28.8008 84.9414C28.5742 85.0664 28.2754 85.1289 27.9043 85.1289C26.8535 85.1289 26.3281 84.543 26.3281 83.3711V79.8203H25.2969V79H26.3281V77.5352L27.2891 77.2246V79H28.8008V79.8203H27.2891V83.2012C27.2891 83.6035 27.3574 83.8906 27.4941 84.0625C27.6309 84.2344 27.8574 84.3203 28.1738 84.3203C28.416 84.3203 28.625 84.2539 28.8008 84.1211V84.9414ZM32.5918 85.1406C31.7051 85.1406 30.9961 84.8613 30.4648 84.3027C29.9375 83.7402 29.6738 82.9961 29.6738 82.0703C29.6738 81.0625 29.9492 80.2754 30.5 79.709C31.0508 79.1426 31.7949 78.8594 32.7324 78.8594C33.627 78.8594 34.3242 79.1348 34.8242 79.6855C35.3281 80.2363 35.5801 81 35.5801 81.9766C35.5801 82.9336 35.3086 83.7012 34.7656 84.2793C34.2266 84.8535 33.502 85.1406 32.5918 85.1406ZM32.6621 79.668C32.0449 79.668 31.5566 79.8789 31.1973 80.3008C30.8379 80.7188 30.6582 81.2969 30.6582 82.0352C30.6582 82.7461 30.8398 83.3066 31.2031 83.7168C31.5664 84.127 32.0527 84.332 32.6621 84.332C33.2832 84.332 33.7598 84.1309 34.0918 83.7285C34.4277 83.3262 34.5957 82.7539 34.5957 82.0117C34.5957 81.2617 34.4277 80.6836 34.0918 80.2773C33.7598 79.8711 33.2832 79.668 32.6621 79.668ZM36.752 84.7832V83.752C37.2754 84.1387 37.8516 84.332 38.4805 84.332C39.3242 84.332 39.7461 84.0508 39.7461 83.4883C39.7461 83.3281 39.709 83.1934 39.6348 83.084C39.5645 82.9707 39.4668 82.8711 39.3418 82.7852C39.2207 82.6992 39.0762 82.623 38.9082 82.5566C38.7441 82.4863 38.5664 82.4141 38.375 82.3398C38.1094 82.2344 37.875 82.1289 37.6719 82.0234C37.4727 81.9141 37.3047 81.793 37.168 81.6602C37.0352 81.5234 36.9336 81.3691 36.8633 81.1973C36.7969 81.0254 36.7637 80.8242 36.7637 80.5938C36.7637 80.3125 36.8281 80.0645 36.957 79.8496C37.0859 79.6309 37.2578 79.4492 37.4727 79.3047C37.6875 79.1562 37.9316 79.0449 38.2051 78.9707C38.4824 78.8965 38.7676 78.8594 39.0605 78.8594C39.5801 78.8594 40.0449 78.9492 40.4551 79.1289V80.1016C40.0137 79.8125 39.5059 79.668 38.9316 79.668C38.752 79.668 38.5898 79.6895 38.4453 79.7324C38.3008 79.7715 38.1758 79.8281 38.0703 79.9023C37.9688 79.9766 37.8887 80.0664 37.8301 80.1719C37.7754 80.2734 37.748 80.3867 37.748 80.5117C37.748 80.668 37.7754 80.7988 37.8301 80.9043C37.8887 81.0098 37.9727 81.1035 38.082 81.1855C38.1914 81.2676 38.3242 81.3418 38.4805 81.4082C38.6367 81.4746 38.8145 81.5469 39.0137 81.625C39.2793 81.7266 39.5176 81.832 39.7285 81.9414C39.9395 82.0469 40.1191 82.168 40.2676 82.3047C40.416 82.4375 40.5293 82.5918 40.6074 82.7676C40.6895 82.9434 40.7305 83.1523 40.7305 83.3945C40.7305 83.6914 40.6641 83.9492 40.5312 84.168C40.4023 84.3867 40.2285 84.5684 40.0098 84.7129C39.791 84.8574 39.5391 84.9648 39.2539 85.0352C38.9688 85.1055 38.6699 85.1406 38.3574 85.1406C37.7402 85.1406 37.2051 85.0215 36.752 84.7832ZM50.627 85H49.666V83.9805H49.6426C49.1973 84.7539 48.5098 85.1406 47.5801 85.1406C46.8262 85.1406 46.2227 84.873 45.7695 84.3379C45.3203 83.7988 45.0957 83.0664 45.0957 82.1406C45.0957 81.1484 45.3457 80.3535 45.8457 79.7559C46.3457 79.1582 47.0117 78.8594 47.8438 78.8594C48.668 78.8594 49.2676 79.1836 49.6426 79.832H49.666V76.1172H50.627V85ZM49.666 82.2871V81.4023C49.666 80.918 49.5059 80.5078 49.1855 80.1719C48.8652 79.8359 48.459 79.668 47.9668 79.668C47.3809 79.668 46.9199 79.8828 46.584 80.3125C46.248 80.7422 46.0801 81.3359 46.0801 82.0938C46.0801 82.7852 46.2402 83.332 46.5605 83.7344C46.8848 84.1328 47.3184 84.332 47.8613 84.332C48.3965 84.332 48.8301 84.1387 49.1621 83.752C49.498 83.3652 49.666 82.877 49.666 82.2871ZM57.3945 82.2402H53.1582C53.1738 82.9082 53.3535 83.4238 53.6973 83.7871C54.041 84.1504 54.5137 84.332 55.1152 84.332C55.791 84.332 56.4121 84.1094 56.9785 83.6641V84.5664C56.4512 84.9492 55.7539 85.1406 54.8867 85.1406C54.0391 85.1406 53.373 84.8691 52.8887 84.3262C52.4043 83.7793 52.1621 83.0117 52.1621 82.0234C52.1621 81.0898 52.4258 80.3301 52.9531 79.7441C53.4844 79.1543 54.1426 78.8594 54.9277 78.8594C55.7129 78.8594 56.3203 79.1133 56.75 79.6211C57.1797 80.1289 57.3945 80.834 57.3945 81.7363V82.2402ZM56.4102 81.4258C56.4062 80.8711 56.2715 80.4395 56.0059 80.1309C55.7441 79.8223 55.3789 79.668 54.9102 79.668C54.457 79.668 54.0723 79.8301 53.7559 80.1543C53.4395 80.4785 53.2441 80.9023 53.1699 81.4258H56.4102ZM59.8145 85H58.8535V76.1172H59.8145V85ZM66.0371 84.1328H66.0137V85H65.0527V76.1172H66.0137V80.0547H66.0371C66.5098 79.2578 67.2012 78.8594 68.1113 78.8594C68.8809 78.8594 69.4824 79.1289 69.916 79.668C70.3535 80.2031 70.5723 80.9219 70.5723 81.8242C70.5723 82.8281 70.3281 83.6328 69.8398 84.2383C69.3516 84.8398 68.6836 85.1406 67.8359 85.1406C67.043 85.1406 66.4434 84.8047 66.0371 84.1328ZM66.0137 81.7129V82.5508C66.0137 83.0469 66.1738 83.4688 66.4941 83.8164C66.8184 84.1602 67.2285 84.332 67.7246 84.332C68.3066 84.332 68.7617 84.1094 69.0898 83.6641C69.4219 83.2188 69.5879 82.5996 69.5879 81.8066C69.5879 81.1387 69.4336 80.6152 69.125 80.2363C68.8164 79.8574 68.3984 79.668 67.8711 79.668C67.3125 79.668 66.8633 79.8633 66.5234 80.2539C66.1836 80.6406 66.0137 81.127 66.0137 81.7129ZM73.0684 85H72.1074V76.1172H73.0684V85ZM77.5215 85.1406C76.6348 85.1406 75.9258 84.8613 75.3945 84.3027C74.8672 83.7402 74.6035 82.9961 74.6035 82.0703C74.6035 81.0625 74.8789 80.2754 75.4297 79.709C75.9805 79.1426 76.7246 78.8594 77.6621 78.8594C78.5566 78.8594 79.2539 79.1348 79.7539 79.6855C80.2578 80.2363 80.5098 81 80.5098 81.9766C80.5098 82.9336 80.2383 83.7012 79.6953 84.2793C79.1562 84.8535 78.4316 85.1406 77.5215 85.1406ZM77.5918 79.668C76.9746 79.668 76.4863 79.8789 76.127 80.3008C75.7676 80.7188 75.5879 81.2969 75.5879 82.0352C75.5879 82.7461 75.7695 83.3066 76.1328 83.7168C76.4961 84.127 76.9824 84.332 77.5918 84.332C78.2129 84.332 78.6895 84.1309 79.0215 83.7285C79.3574 83.3262 79.5254 82.7539 79.5254 82.0117C79.5254 81.2617 79.3574 80.6836 79.0215 80.2773C78.6895 79.8711 78.2129 79.668 77.5918 79.668ZM83.0293 84.1328H83.0059V85H82.0449V76.1172H83.0059V80.0547H83.0293C83.502 79.2578 84.1934 78.8594 85.1035 78.8594C85.873 78.8594 86.4746 79.1289 86.9082 79.668C87.3457 80.2031 87.5645 80.9219 87.5645 81.8242C87.5645 82.8281 87.3203 83.6328 86.832 84.2383C86.3438 84.8398 85.6758 85.1406 84.8281 85.1406C84.0352 85.1406 83.4355 84.8047 83.0293 84.1328ZM83.0059 81.7129V82.5508C83.0059 83.0469 83.166 83.4688 83.4863 83.8164C83.8105 84.1602 84.2207 84.332 84.7168 84.332C85.2988 84.332 85.7539 84.1094 86.082 83.6641C86.4141 83.2188 86.5801 82.5996 86.5801 81.8066C86.5801 81.1387 86.4258 80.6152 86.1172 80.2363C85.8086 79.8574 85.3906 79.668 84.8633 79.668C84.3047 79.668 83.8555 79.8633 83.5156 80.2539C83.1758 80.6406 83.0059 81.127 83.0059 81.7129Z" fill="#020057"/>
</svg>
