<svg width="100%" viewBox="0 0 148 147" fill="none" xmlns="http://www.w3.org/2000/svg">
<g filter="url(#filter0_dd_3872_62950)">
<rect x="8" y="4" width="132" height="132" fill="#FBFBFE"/>
<rect x="8.5" y="4.5" width="131" height="131" stroke="#827DFF" stroke-dasharray="4 4"/>
<rect width="100" height="96" transform="translate(24 22)" fill="#FBFBFE"/>
<path d="M79.75 33C81.5449 33 83 34.4551 83 36.25V47.75C83 49.5449 81.5449 51 79.75 51H68.25C66.4551 51 65 49.5449 65 47.75V36.25C65 34.4551 66.4551 33 68.25 33H79.75ZM80.3305 49.4014L74.5247 43.7148C74.2596 43.4553 73.8501 43.4316 73.5588 43.644L73.4752 43.7148L67.6685 49.4011C67.8504 49.4651 68.0461 49.5 68.25 49.5H79.75C79.9535 49.5 80.1489 49.4653 80.3305 49.4014L74.5247 43.7148L80.3305 49.4014ZM79.75 34.5H68.25C67.2835 34.5 66.5 35.2835 66.5 36.25V47.75C66.5 47.9584 66.5364 48.1583 66.6033 48.3437L72.4258 42.643C73.2589 41.8273 74.5675 41.7885 75.4458 42.5266L75.5742 42.6431L81.3964 48.3447C81.4634 48.159 81.5 47.9588 81.5 47.75V36.25C81.5 35.2835 80.7165 34.5 79.75 34.5ZM77.2521 36.5C78.4959 36.5 79.5042 37.5083 79.5042 38.7521C79.5042 39.9959 78.4959 41.0042 77.2521 41.0042C76.0083 41.0042 75 39.9959 75 38.7521C75 37.5083 76.0083 36.5 77.2521 36.5ZM77.2521 38C76.8367 38 76.5 38.3367 76.5 38.7521C76.5 39.1675 76.8367 39.5042 77.2521 39.5042C77.6675 39.5042 78.0042 39.1675 78.0042 38.7521C78.0042 38.3367 77.6675 38 77.2521 38Z" fill="#020057"/>
<path d="M55.5605 74.6484C54.9395 74.9766 54.166 75.1406 53.2402 75.1406C52.0449 75.1406 51.0879 74.7559 50.3691 73.9863C49.6504 73.2168 49.291 72.207 49.291 70.957C49.291 69.6133 49.6953 68.5273 50.5039 67.6992C51.3125 66.8711 52.3379 66.457 53.5801 66.457C54.377 66.457 55.0371 66.5723 55.5605 66.8027V67.8516C54.959 67.5156 54.2949 67.3477 53.5684 67.3477C52.6035 67.3477 51.8203 67.6699 51.2188 68.3145C50.6211 68.959 50.3223 69.8203 50.3223 70.8984C50.3223 71.9219 50.6016 72.7383 51.1602 73.3477C51.7227 73.9531 52.459 74.2559 53.3691 74.2559C54.2129 74.2559 54.9434 74.0684 55.5605 73.6934V74.6484ZM58.1035 75H57.1426V66.1172H58.1035V75ZM64.3438 75H63.3828V74.0625H63.3594C62.9414 74.7812 62.3262 75.1406 61.5137 75.1406C60.916 75.1406 60.4473 74.9824 60.1074 74.666C59.7715 74.3496 59.6035 73.9297 59.6035 73.4062C59.6035 72.2852 60.2637 71.6328 61.584 71.4492L63.3828 71.1973C63.3828 70.1777 62.9707 69.668 62.1465 69.668C61.4238 69.668 60.7715 69.9141 60.1895 70.4062V69.4219C60.7793 69.0469 61.459 68.8594 62.2285 68.8594C63.6387 68.8594 64.3438 69.6055 64.3438 71.0977V75ZM63.3828 71.9648L61.9355 72.1641C61.4902 72.2266 61.1543 72.3379 60.9277 72.498C60.7012 72.6543 60.5879 72.9336 60.5879 73.3359C60.5879 73.6289 60.6914 73.8691 60.8984 74.0566C61.1094 74.2402 61.3887 74.332 61.7363 74.332C62.2129 74.332 62.6055 74.166 62.9141 73.834C63.2266 73.498 63.3828 73.0742 63.3828 72.5625V71.9648ZM69.2832 69.9727C69.1152 69.8438 68.873 69.7793 68.5566 69.7793C68.1465 69.7793 67.8027 69.9727 67.5254 70.3594C67.252 70.7461 67.1152 71.2734 67.1152 71.9414V75H66.1543V69H67.1152V70.2363H67.1387C67.2754 69.8145 67.4844 69.4863 67.7656 69.252C68.0469 69.0137 68.3613 68.8945 68.709 68.8945C68.959 68.8945 69.1504 68.9219 69.2832 68.9766V69.9727ZM70.8184 67.4766C70.6465 67.4766 70.5 67.418 70.3789 67.3008C70.2578 67.1836 70.1973 67.0352 70.1973 66.8555C70.1973 66.6758 70.2578 66.5273 70.3789 66.4102C70.5 66.2891 70.6465 66.2285 70.8184 66.2285C70.9941 66.2285 71.1426 66.2891 71.2637 66.4102C71.3887 66.5273 71.4512 66.6758 71.4512 66.8555C71.4512 67.0273 71.3887 67.1738 71.2637 67.2949C71.1426 67.416 70.9941 67.4766 70.8184 67.4766ZM71.2871 75H70.3262V69H71.2871V75ZM76.0156 74.9414C75.7891 75.0664 75.4902 75.1289 75.1191 75.1289C74.0684 75.1289 73.543 74.543 73.543 73.3711V69.8203H72.5117V69H73.543V67.5352L74.5039 67.2246V69H76.0156V69.8203H74.5039V73.2012C74.5039 73.6035 74.5723 73.8906 74.709 74.0625C74.8457 74.2344 75.0723 74.3203 75.3887 74.3203C75.6309 74.3203 75.8398 74.2539 76.0156 74.1211V74.9414ZM82.0742 69L79.3145 75.9609C78.8223 77.2031 78.1309 77.8242 77.2402 77.8242C76.9902 77.8242 76.7812 77.7988 76.6133 77.748V76.8867C76.8203 76.957 77.0098 76.9922 77.1816 76.9922C77.666 76.9922 78.0293 76.7031 78.2715 76.125L78.752 74.9883L76.4082 69H77.4746L79.0977 73.6172C79.1172 73.6758 79.1582 73.8281 79.2207 74.0742H79.2559C79.2754 73.9805 79.3145 73.832 79.373 73.6289L81.0781 69H82.0742ZM91.3848 75H90.4238V71.5781C90.4238 70.3047 89.959 69.668 89.0293 69.668C88.5488 69.668 88.1504 69.8496 87.834 70.2129C87.5215 70.5723 87.3652 71.0273 87.3652 71.5781V75H86.4043V69H87.3652V69.9961H87.3887C87.8418 69.2383 88.498 68.8594 89.3574 68.8594C90.0137 68.8594 90.5156 69.0723 90.8633 69.498C91.2109 69.9199 91.3848 70.5312 91.3848 71.332V75ZM95.709 75.1406C94.8223 75.1406 94.1133 74.8613 93.582 74.3027C93.0547 73.7402 92.791 72.9961 92.791 72.0703C92.791 71.0625 93.0664 70.2754 93.6172 69.709C94.168 69.1426 94.9121 68.8594 95.8496 68.8594C96.7441 68.8594 97.4414 69.1348 97.9414 69.6855C98.4453 70.2363 98.6973 71 98.6973 71.9766C98.6973 72.9336 98.4258 73.7012 97.8828 74.2793C97.3438 74.8535 96.6191 75.1406 95.709 75.1406ZM95.7793 69.668C95.1621 69.668 94.6738 69.8789 94.3145 70.3008C93.9551 70.7188 93.7754 71.2969 93.7754 72.0352C93.7754 72.7461 93.957 73.3066 94.3203 73.7168C94.6836 74.127 95.1699 74.332 95.7793 74.332C96.4004 74.332 96.877 74.1309 97.209 73.7285C97.5449 73.3262 97.7129 72.7539 97.7129 72.0117C97.7129 71.2617 97.5449 70.6836 97.209 70.2773C96.877 69.8711 96.4004 69.668 95.7793 69.668ZM38.5859 90.1328H38.5625V93.7598H37.6016V85H38.5625V86.0547H38.5859C39.0586 85.2578 39.75 84.8594 40.6602 84.8594C41.4336 84.8594 42.0371 85.1289 42.4707 85.668C42.9043 86.2031 43.1211 86.9219 43.1211 87.8242C43.1211 88.8281 42.877 89.6328 42.3887 90.2383C41.9004 90.8398 41.2324 91.1406 40.3848 91.1406C39.6074 91.1406 39.0078 90.8047 38.5859 90.1328ZM38.5625 87.7129V88.5508C38.5625 89.0469 38.7227 89.4688 39.043 89.8164C39.3672 90.1602 39.7773 90.332 40.2734 90.332C40.8555 90.332 41.3105 90.1094 41.6387 89.6641C41.9707 89.2188 42.1367 88.5996 42.1367 87.8066C42.1367 87.1387 41.9824 86.6152 41.6738 86.2363C41.3652 85.8574 40.9473 85.668 40.4199 85.668C39.8613 85.668 39.4121 85.8633 39.0723 86.2539C38.7324 86.6406 38.5625 87.127 38.5625 87.7129ZM49.5078 91H48.5469V90.0508H48.5234C48.125 90.7773 47.5078 91.1406 46.6719 91.1406C45.2422 91.1406 44.5273 90.2891 44.5273 88.5859V85H45.4824V88.4336C45.4824 89.6992 45.9668 90.332 46.9355 90.332C47.4043 90.332 47.7891 90.1602 48.0898 89.8164C48.3945 89.4688 48.5469 89.0156 48.5469 88.457V85H49.5078V91ZM56.2754 88.2402H52.0391C52.0547 88.9082 52.2344 89.4238 52.5781 89.7871C52.9219 90.1504 53.3945 90.332 53.9961 90.332C54.6719 90.332 55.293 90.1094 55.8594 89.6641V90.5664C55.332 90.9492 54.6348 91.1406 53.7676 91.1406C52.9199 91.1406 52.2539 90.8691 51.7695 90.3262C51.2852 89.7793 51.043 89.0117 51.043 88.0234C51.043 87.0898 51.3066 86.3301 51.834 85.7441C52.3652 85.1543 53.0234 84.8594 53.8086 84.8594C54.5938 84.8594 55.2012 85.1133 55.6309 85.6211C56.0605 86.1289 56.2754 86.834 56.2754 87.7363V88.2402ZM55.291 87.4258C55.2871 86.8711 55.1523 86.4395 54.8867 86.1309C54.625 85.8223 54.2598 85.668 53.791 85.668C53.3379 85.668 52.9531 85.8301 52.6367 86.1543C52.3203 86.4785 52.125 86.9023 52.0508 87.4258H55.291ZM62.8555 91H61.8945V89.9805H61.8711C61.4258 90.7539 60.7383 91.1406 59.8086 91.1406C59.0547 91.1406 58.4512 90.873 57.998 90.3379C57.5488 89.7988 57.3242 89.0664 57.3242 88.1406C57.3242 87.1484 57.5742 86.3535 58.0742 85.7559C58.5742 85.1582 59.2402 84.8594 60.0723 84.8594C60.8965 84.8594 61.4961 85.1836 61.8711 85.832H61.8945V82.1172H62.8555V91ZM61.8945 88.2871V87.4023C61.8945 86.918 61.7344 86.5078 61.4141 86.1719C61.0938 85.8359 60.6875 85.668 60.1953 85.668C59.6094 85.668 59.1484 85.8828 58.8125 86.3125C58.4766 86.7422 58.3086 87.3359 58.3086 88.0938C58.3086 88.7852 58.4688 89.332 58.7891 89.7344C59.1133 90.1328 59.5469 90.332 60.0898 90.332C60.625 90.332 61.0586 90.1387 61.3906 89.752C61.7266 89.3652 61.8945 88.877 61.8945 88.2871ZM69.623 88.2402H65.3867C65.4023 88.9082 65.582 89.4238 65.9258 89.7871C66.2695 90.1504 66.7422 90.332 67.3438 90.332C68.0195 90.332 68.6406 90.1094 69.207 89.6641V90.5664C68.6797 90.9492 67.9824 91.1406 67.1152 91.1406C66.2676 91.1406 65.6016 90.8691 65.1172 90.3262C64.6328 89.7793 64.3906 89.0117 64.3906 88.0234C64.3906 87.0898 64.6543 86.3301 65.1816 85.7441C65.7129 85.1543 66.3711 84.8594 67.1562 84.8594C67.9414 84.8594 68.5488 85.1133 68.9785 85.6211C69.4082 86.1289 69.623 86.834 69.623 87.7363V88.2402ZM68.6387 87.4258C68.6348 86.8711 68.5 86.4395 68.2344 86.1309C67.9727 85.8223 67.6074 85.668 67.1387 85.668C66.6855 85.668 66.3008 85.8301 65.9844 86.1543C65.668 86.4785 65.4727 86.9023 65.3984 87.4258H68.6387ZM75.3359 91H74.375V82.1172H75.3359V91ZM82.1035 88.2402H77.8672C77.8828 88.9082 78.0625 89.4238 78.4062 89.7871C78.75 90.1504 79.2227 90.332 79.8242 90.332C80.5 90.332 81.1211 90.1094 81.6875 89.6641V90.5664C81.1602 90.9492 80.4629 91.1406 79.5957 91.1406C78.748 91.1406 78.082 90.8691 77.5977 90.3262C77.1133 89.7793 76.8711 89.0117 76.8711 88.0234C76.8711 87.0898 77.1348 86.3301 77.6621 85.7441C78.1934 85.1543 78.8516 84.8594 79.6367 84.8594C80.4219 84.8594 81.0293 85.1133 81.459 85.6211C81.8887 86.1289 82.1035 86.834 82.1035 87.7363V88.2402ZM81.1191 87.4258C81.1152 86.8711 80.9805 86.4395 80.7148 86.1309C80.4531 85.8223 80.0879 85.668 79.6191 85.668C79.166 85.668 78.7812 85.8301 78.4648 86.1543C78.1484 86.4785 77.9531 86.9023 77.8789 87.4258H81.1191ZM88.3848 88.2402H84.1484C84.1641 88.9082 84.3438 89.4238 84.6875 89.7871C85.0312 90.1504 85.5039 90.332 86.1055 90.332C86.7812 90.332 87.4023 90.1094 87.9688 89.6641V90.5664C87.4414 90.9492 86.7441 91.1406 85.877 91.1406C85.0293 91.1406 84.3633 90.8691 83.8789 90.3262C83.3945 89.7793 83.1523 89.0117 83.1523 88.0234C83.1523 87.0898 83.416 86.3301 83.9434 85.7441C84.4746 85.1543 85.1328 84.8594 85.918 84.8594C86.7031 84.8594 87.3105 85.1133 87.7402 85.6211C88.1699 86.1289 88.3848 86.834 88.3848 87.7363V88.2402ZM87.4004 87.4258C87.3965 86.8711 87.2617 86.4395 86.9961 86.1309C86.7344 85.8223 86.3691 85.668 85.9004 85.668C85.4473 85.668 85.0625 85.8301 84.7461 86.1543C84.4297 86.4785 84.2344 86.9023 84.1602 87.4258H87.4004ZM92.9727 85.9727C92.8047 85.8438 92.5625 85.7793 92.2461 85.7793C91.8359 85.7793 91.4922 85.9727 91.2148 86.3594C90.9414 86.7461 90.8047 87.2734 90.8047 87.9414V91H89.8438V85H90.8047V86.2363H90.8281C90.9648 85.8145 91.1738 85.4863 91.4551 85.252C91.7363 85.0137 92.0508 84.8945 92.3984 84.8945C92.6484 84.8945 92.8398 84.9219 92.9727 84.9766V85.9727ZM98.2695 91H97.3086V82.1172H98.2695V91ZM102.723 91.1406C101.836 91.1406 101.127 90.8613 100.596 90.3027C100.068 89.7402 99.8047 88.9961 99.8047 88.0703C99.8047 87.0625 100.08 86.2754 100.631 85.709C101.182 85.1426 101.926 84.8594 102.863 84.8594C103.758 84.8594 104.455 85.1348 104.955 85.6855C105.459 86.2363 105.711 87 105.711 87.9766C105.711 88.9336 105.439 89.7012 104.896 90.2793C104.357 90.8535 103.633 91.1406 102.723 91.1406ZM102.793 85.668C102.176 85.668 101.688 85.8789 101.328 86.3008C100.969 86.7188 100.789 87.2969 100.789 88.0352C100.789 88.7461 100.971 89.3066 101.334 89.7168C101.697 90.127 102.184 90.332 102.793 90.332C103.414 90.332 103.891 90.1309 104.223 89.7285C104.559 89.3262 104.727 88.7539 104.727 88.0117C104.727 87.2617 104.559 86.6836 104.223 86.2773C103.891 85.8711 103.414 85.668 102.793 85.668ZM106.883 90.7832V89.752C107.406 90.1387 107.982 90.332 108.611 90.332C109.455 90.332 109.877 90.0508 109.877 89.4883C109.877 89.3281 109.84 89.1934 109.766 89.084C109.695 88.9707 109.598 88.8711 109.473 88.7852C109.352 88.6992 109.207 88.623 109.039 88.5566C108.875 88.4863 108.697 88.4141 108.506 88.3398C108.24 88.2344 108.006 88.1289 107.803 88.0234C107.604 87.9141 107.436 87.793 107.299 87.6602C107.166 87.5234 107.064 87.3691 106.994 87.1973C106.928 87.0254 106.895 86.8242 106.895 86.5938C106.895 86.3125 106.959 86.0645 107.088 85.8496C107.217 85.6309 107.389 85.4492 107.604 85.3047C107.818 85.1562 108.062 85.0449 108.336 84.9707C108.613 84.8965 108.898 84.8594 109.191 84.8594C109.711 84.8594 110.176 84.9492 110.586 85.1289V86.1016C110.145 85.8125 109.637 85.668 109.062 85.668C108.883 85.668 108.721 85.6895 108.576 85.7324C108.432 85.7715 108.307 85.8281 108.201 85.9023C108.1 85.9766 108.02 86.0664 107.961 86.1719C107.906 86.2734 107.879 86.3867 107.879 86.5117C107.879 86.668 107.906 86.7988 107.961 86.9043C108.02 87.0098 108.104 87.1035 108.213 87.1855C108.322 87.2676 108.455 87.3418 108.611 87.4082C108.768 87.4746 108.945 87.5469 109.145 87.625C109.41 87.7266 109.648 87.832 109.859 87.9414C110.07 88.0469 110.25 88.168 110.398 88.3047C110.547 88.4375 110.66 88.5918 110.738 88.7676C110.82 88.9434 110.861 89.1523 110.861 89.3945C110.861 89.6914 110.795 89.9492 110.662 90.168C110.533 90.3867 110.359 90.5684 110.141 90.7129C109.922 90.8574 109.67 90.9648 109.385 91.0352C109.1 91.1055 108.801 91.1406 108.488 91.1406C107.871 91.1406 107.336 91.0215 106.883 90.7832ZM41.9668 107H41.0059V105.98H40.9824C40.5371 106.754 39.8496 107.141 38.9199 107.141C38.166 107.141 37.5625 106.873 37.1094 106.338C36.6602 105.799 36.4355 105.066 36.4355 104.141C36.4355 103.148 36.6855 102.354 37.1855 101.756C37.6855 101.158 38.3516 100.859 39.1836 100.859C40.0078 100.859 40.6074 101.184 40.9824 101.832H41.0059V98.1172H41.9668V107ZM41.0059 104.287V103.402C41.0059 102.918 40.8457 102.508 40.5254 102.172C40.2051 101.836 39.7988 101.668 39.3066 101.668C38.7207 101.668 38.2598 101.883 37.9238 102.312C37.5879 102.742 37.4199 103.336 37.4199 104.094C37.4199 104.785 37.5801 105.332 37.9004 105.734C38.2246 106.133 38.6582 106.332 39.2012 106.332C39.7363 106.332 40.1699 106.139 40.502 105.752C40.8379 105.365 41.0059 104.877 41.0059 104.287ZM48.207 107H47.2461V106.062H47.2227C46.8047 106.781 46.1895 107.141 45.377 107.141C44.7793 107.141 44.3105 106.982 43.9707 106.666C43.6348 106.35 43.4668 105.93 43.4668 105.406C43.4668 104.285 44.127 103.633 45.4473 103.449L47.2461 103.197C47.2461 102.178 46.834 101.668 46.0098 101.668C45.2871 101.668 44.6348 101.914 44.0527 102.406V101.422C44.6426 101.047 45.3223 100.859 46.0918 100.859C47.502 100.859 48.207 101.605 48.207 103.098V107ZM47.2461 103.965L45.7988 104.164C45.3535 104.227 45.0176 104.338 44.791 104.498C44.5645 104.654 44.4512 104.934 44.4512 105.336C44.4512 105.629 44.5547 105.869 44.7617 106.057C44.9727 106.24 45.252 106.332 45.5996 106.332C46.0762 106.332 46.4688 106.166 46.7773 105.834C47.0898 105.498 47.2461 105.074 47.2461 104.562V103.965ZM52.8008 106.941C52.5742 107.066 52.2754 107.129 51.9043 107.129C50.8535 107.129 50.3281 106.543 50.3281 105.371V101.82H49.2969V101H50.3281V99.5352L51.2891 99.2246V101H52.8008V101.82H51.2891V105.201C51.2891 105.604 51.3574 105.891 51.4941 106.062C51.6309 106.234 51.8574 106.32 52.1738 106.32C52.416 106.32 52.625 106.254 52.8008 106.121V106.941ZM56.5918 107.141C55.7051 107.141 54.9961 106.861 54.4648 106.303C53.9375 105.74 53.6738 104.996 53.6738 104.07C53.6738 103.062 53.9492 102.275 54.5 101.709C55.0508 101.143 55.7949 100.859 56.7324 100.859C57.627 100.859 58.3242 101.135 58.8242 101.686C59.3281 102.236 59.5801 103 59.5801 103.977C59.5801 104.934 59.3086 105.701 58.7656 106.279C58.2266 106.854 57.502 107.141 56.5918 107.141ZM56.6621 101.668C56.0449 101.668 55.5566 101.879 55.1973 102.301C54.8379 102.719 54.6582 103.297 54.6582 104.035C54.6582 104.746 54.8398 105.307 55.2031 105.717C55.5664 106.127 56.0527 106.332 56.6621 106.332C57.2832 106.332 57.7598 106.131 58.0918 105.729C58.4277 105.326 58.5957 104.754 58.5957 104.012C58.5957 103.262 58.4277 102.684 58.0918 102.277C57.7598 101.871 57.2832 101.668 56.6621 101.668ZM60.752 106.783V105.752C61.2754 106.139 61.8516 106.332 62.4805 106.332C63.3242 106.332 63.7461 106.051 63.7461 105.488C63.7461 105.328 63.709 105.193 63.6348 105.084C63.5645 104.971 63.4668 104.871 63.3418 104.785C63.2207 104.699 63.0762 104.623 62.9082 104.557C62.7441 104.486 62.5664 104.414 62.375 104.34C62.1094 104.234 61.875 104.129 61.6719 104.023C61.4727 103.914 61.3047 103.793 61.168 103.66C61.0352 103.523 60.9336 103.369 60.8633 103.197C60.7969 103.025 60.7637 102.824 60.7637 102.594C60.7637 102.312 60.8281 102.064 60.957 101.85C61.0859 101.631 61.2578 101.449 61.4727 101.305C61.6875 101.156 61.9316 101.045 62.2051 100.971C62.4824 100.896 62.7676 100.859 63.0605 100.859C63.5801 100.859 64.0449 100.949 64.4551 101.129V102.102C64.0137 101.812 63.5059 101.668 62.9316 101.668C62.752 101.668 62.5898 101.689 62.4453 101.732C62.3008 101.771 62.1758 101.828 62.0703 101.902C61.9688 101.977 61.8887 102.066 61.8301 102.172C61.7754 102.273 61.748 102.387 61.748 102.512C61.748 102.668 61.7754 102.799 61.8301 102.904C61.8887 103.01 61.9727 103.104 62.082 103.186C62.1914 103.268 62.3242 103.342 62.4805 103.408C62.6367 103.475 62.8145 103.547 63.0137 103.625C63.2793 103.727 63.5176 103.832 63.7285 103.941C63.9395 104.047 64.1191 104.168 64.2676 104.305C64.416 104.438 64.5293 104.592 64.6074 104.768C64.6895 104.943 64.7305 105.152 64.7305 105.395C64.7305 105.691 64.6641 105.949 64.5312 106.168C64.4023 106.387 64.2285 106.568 64.0098 106.713C63.791 106.857 63.5391 106.965 63.2539 107.035C62.9688 107.105 62.6699 107.141 62.3574 107.141C61.7402 107.141 61.2051 107.021 60.752 106.783ZM74.627 107H73.666V105.98H73.6426C73.1973 106.754 72.5098 107.141 71.5801 107.141C70.8262 107.141 70.2227 106.873 69.7695 106.338C69.3203 105.799 69.0957 105.066 69.0957 104.141C69.0957 103.148 69.3457 102.354 69.8457 101.756C70.3457 101.158 71.0117 100.859 71.8438 100.859C72.668 100.859 73.2676 101.184 73.6426 101.832H73.666V98.1172H74.627V107ZM73.666 104.287V103.402C73.666 102.918 73.5059 102.508 73.1855 102.172C72.8652 101.836 72.459 101.668 71.9668 101.668C71.3809 101.668 70.9199 101.883 70.584 102.312C70.248 102.742 70.0801 103.336 70.0801 104.094C70.0801 104.785 70.2402 105.332 70.5605 105.734C70.8848 106.133 71.3184 106.332 71.8613 106.332C72.3965 106.332 72.8301 106.139 73.1621 105.752C73.498 105.365 73.666 104.877 73.666 104.287ZM81.3945 104.24H77.1582C77.1738 104.908 77.3535 105.424 77.6973 105.787C78.041 106.15 78.5137 106.332 79.1152 106.332C79.791 106.332 80.4121 106.109 80.9785 105.664V106.566C80.4512 106.949 79.7539 107.141 78.8867 107.141C78.0391 107.141 77.373 106.869 76.8887 106.326C76.4043 105.779 76.1621 105.012 76.1621 104.023C76.1621 103.09 76.4258 102.33 76.9531 101.744C77.4844 101.154 78.1426 100.859 78.9277 100.859C79.7129 100.859 80.3203 101.113 80.75 101.621C81.1797 102.129 81.3945 102.834 81.3945 103.736V104.24ZM80.4102 103.426C80.4062 102.871 80.2715 102.439 80.0059 102.131C79.7441 101.822 79.3789 101.668 78.9102 101.668C78.457 101.668 78.0723 101.83 77.7559 102.154C77.4395 102.479 77.2441 102.902 77.1699 103.426H80.4102ZM83.8145 107H82.8535V98.1172H83.8145V107ZM90.0371 106.133H90.0137V107H89.0527V98.1172H90.0137V102.055H90.0371C90.5098 101.258 91.2012 100.859 92.1113 100.859C92.8809 100.859 93.4824 101.129 93.916 101.668C94.3535 102.203 94.5723 102.922 94.5723 103.824C94.5723 104.828 94.3281 105.633 93.8398 106.238C93.3516 106.84 92.6836 107.141 91.8359 107.141C91.043 107.141 90.4434 106.805 90.0371 106.133ZM90.0137 103.713V104.551C90.0137 105.047 90.1738 105.469 90.4941 105.816C90.8184 106.16 91.2285 106.332 91.7246 106.332C92.3066 106.332 92.7617 106.109 93.0898 105.664C93.4219 105.219 93.5879 104.6 93.5879 103.807C93.5879 103.139 93.4336 102.615 93.125 102.236C92.8164 101.857 92.3984 101.668 91.8711 101.668C91.3125 101.668 90.8633 101.863 90.5234 102.254C90.1836 102.641 90.0137 103.127 90.0137 103.713ZM97.0684 107H96.1074V98.1172H97.0684V107ZM101.521 107.141C100.635 107.141 99.9258 106.861 99.3945 106.303C98.8672 105.74 98.6035 104.996 98.6035 104.07C98.6035 103.062 98.8789 102.275 99.4297 101.709C99.9805 101.143 100.725 100.859 101.662 100.859C102.557 100.859 103.254 101.135 103.754 101.686C104.258 102.236 104.51 103 104.51 103.977C104.51 104.934 104.238 105.701 103.695 106.279C103.156 106.854 102.432 107.141 101.521 107.141ZM101.592 101.668C100.975 101.668 100.486 101.879 100.127 102.301C99.7676 102.719 99.5879 103.297 99.5879 104.035C99.5879 104.746 99.7695 105.307 100.133 105.717C100.496 106.127 100.982 106.332 101.592 106.332C102.213 106.332 102.689 106.131 103.021 105.729C103.357 105.326 103.525 104.754 103.525 104.012C103.525 103.262 103.357 102.684 103.021 102.277C102.689 101.871 102.213 101.668 101.592 101.668ZM107.029 106.133H107.006V107H106.045V98.1172H107.006V102.055H107.029C107.502 101.258 108.193 100.859 109.104 100.859C109.873 100.859 110.475 101.129 110.908 101.668C111.346 102.203 111.564 102.922 111.564 103.824C111.564 104.828 111.32 105.633 110.832 106.238C110.344 106.84 109.676 107.141 108.828 107.141C108.035 107.141 107.436 106.805 107.029 106.133ZM107.006 103.713V104.551C107.006 105.047 107.166 105.469 107.486 105.816C107.811 106.16 108.221 106.332 108.717 106.332C109.299 106.332 109.754 106.109 110.082 105.664C110.414 105.219 110.58 104.6 110.58 103.807C110.58 103.139 110.426 102.615 110.117 102.236C109.809 101.857 109.391 101.668 108.863 101.668C108.305 101.668 107.855 101.863 107.516 102.254C107.176 102.641 107.006 103.127 107.006 103.713Z" fill="#020057"/>
</g>
<defs>
<filter id="filter0_dd_3872_62950" x="0.8" y="2.38419e-07" width="146.4" height="146.4" filterUnits="userSpaceOnUse" color-interpolation-filters="sRGB">
<feFlood flood-opacity="0" result="BackgroundImageFix"/>
<feColorMatrix in="SourceAlpha" type="matrix" values="0 0 0 0 0 0 0 0 0 0 0 0 0 0 0 0 0 0 127 0" result="hardAlpha"/>
<feOffset dy="3.2"/>
<feGaussianBlur stdDeviation="3.6"/>
<feColorMatrix type="matrix" values="0 0 0 0 0.513726 0 0 0 0 0.494118 0 0 0 0 1 0 0 0 0.12 0"/>
<feBlend mode="normal" in2="BackgroundImageFix" result="effect1_dropShadow_3872_62950"/>
<feColorMatrix in="SourceAlpha" type="matrix" values="0 0 0 0 0 0 0 0 0 0 0 0 0 0 0 0 0 0 127 0" result="hardAlpha"/>
<feOffset dy="0.6"/>
<feGaussianBlur stdDeviation="0.9"/>
<feColorMatrix type="matrix" values="0 0 0 0 0.513726 0 0 0 0 0.494118 0 0 0 0 1 0 0 0 0.1 0"/>
<feBlend mode="normal" in2="effect1_dropShadow_3872_62950" result="effect2_dropShadow_3872_62950"/>
<feBlend mode="normal" in="SourceGraphic" in2="effect2_dropShadow_3872_62950" result="shape"/>
</filter>
</defs>
</svg>
