<svg width="100%" viewBox="0 0 100 96" fill="none" xmlns="http://www.w3.org/2000/svg">
<rect width="100" height="96" fill="#FBFBFE"/>
<path d="M55.75 11C57.5449 11 59 12.4551 59 14.25V25.75C59 27.5449 57.5449 29 55.75 29H44.25C42.4551 29 41 27.5449 41 25.75V14.25C41 12.4551 42.4551 11 44.25 11H55.75ZM56.3305 27.4014L50.5247 21.7148C50.2596 21.4553 49.8501 21.4316 49.5588 21.644L49.4752 21.7148L43.6685 27.4011C43.8504 27.4651 44.0461 27.5 44.25 27.5H55.75C55.9535 27.5 56.1489 27.4653 56.3305 27.4014L50.5247 21.7148L56.3305 27.4014ZM55.75 12.5H44.25C43.2835 12.5 42.5 13.2835 42.5 14.25V25.75C42.5 25.9584 42.5364 26.1583 42.6033 26.3437L48.4258 20.643C49.2589 19.8273 50.5675 19.7885 51.4458 20.5266L51.5742 20.6431L57.3964 26.3447C57.4634 26.159 57.5 25.9588 57.5 25.75V14.25C57.5 13.2835 56.7165 12.5 55.75 12.5ZM53.2521 14.5C54.4959 14.5 55.5042 15.5083 55.5042 16.7521C55.5042 17.9959 54.4959 19.0042 53.2521 19.0042C52.0083 19.0042 51 17.9959 51 16.7521C51 15.5083 52.0083 14.5 53.2521 14.5ZM53.2521 16C52.8367 16 52.5 16.3367 52.5 16.7521C52.5 17.1675 52.8367 17.5042 53.2521 17.5042C53.6675 17.5042 54.0042 17.1675 54.0042 16.7521C54.0042 16.3367 53.6675 16 53.2521 16Z" fill="#020057"/>
<path d="M26.5391 52.6484C25.918 52.9766 25.1445 53.1406 24.2188 53.1406C23.0234 53.1406 22.0664 52.7559 21.3477 51.9863C20.6289 51.2168 20.2695 50.207 20.2695 48.957C20.2695 47.6133 20.6738 46.5273 21.4824 45.6992C22.291 44.8711 23.3164 44.457 24.5586 44.457C25.3555 44.457 26.0156 44.5723 26.5391 44.8027V45.8516C25.9375 45.5156 25.2734 45.3477 24.5469 45.3477C23.582 45.3477 22.7988 45.6699 22.1973 46.3145C21.5996 46.959 21.3008 47.8203 21.3008 48.8984C21.3008 49.9219 21.5801 50.7383 22.1387 51.3477C22.7012 51.9531 23.4375 52.2559 24.3477 52.2559C25.1914 52.2559 25.9219 52.0684 26.5391 51.6934V52.6484ZM29.082 53H28.1211V44.1172H29.082V53ZM35.3223 53H34.3613V52.0625H34.3379C33.9199 52.7812 33.3047 53.1406 32.4922 53.1406C31.8945 53.1406 31.4258 52.9824 31.0859 52.666C30.75 52.3496 30.582 51.9297 30.582 51.4062C30.582 50.2852 31.2422 49.6328 32.5625 49.4492L34.3613 49.1973C34.3613 48.1777 33.9492 47.668 33.125 47.668C32.4023 47.668 31.75 47.9141 31.168 48.4062V47.4219C31.7578 47.0469 32.4375 46.8594 33.207 46.8594C34.6172 46.8594 35.3223 47.6055 35.3223 49.0977V53ZM34.3613 49.9648L32.9141 50.1641C32.4688 50.2266 32.1328 50.3379 31.9062 50.498C31.6797 50.6543 31.5664 50.9336 31.5664 51.3359C31.5664 51.6289 31.6699 51.8691 31.877 52.0566C32.0879 52.2402 32.3672 52.332 32.7148 52.332C33.1914 52.332 33.584 52.166 33.8926 51.834C34.2051 51.498 34.3613 51.0742 34.3613 50.5625V49.9648ZM40.2617 47.9727C40.0938 47.8438 39.8516 47.7793 39.5352 47.7793C39.125 47.7793 38.7812 47.9727 38.5039 48.3594C38.2305 48.7461 38.0938 49.2734 38.0938 49.9414V53H37.1328V47H38.0938V48.2363H38.1172C38.2539 47.8145 38.4629 47.4863 38.7441 47.252C39.0254 47.0137 39.3398 46.8945 39.6875 46.8945C39.9375 46.8945 40.1289 46.9219 40.2617 46.9766V47.9727ZM41.7969 45.4766C41.625 45.4766 41.4785 45.418 41.3574 45.3008C41.2363 45.1836 41.1758 45.0352 41.1758 44.8555C41.1758 44.6758 41.2363 44.5273 41.3574 44.4102C41.4785 44.2891 41.625 44.2285 41.7969 44.2285C41.9727 44.2285 42.1211 44.2891 42.2422 44.4102C42.3672 44.5273 42.4297 44.6758 42.4297 44.8555C42.4297 45.0273 42.3672 45.1738 42.2422 45.2949C42.1211 45.416 41.9727 45.4766 41.7969 45.4766ZM42.2656 53H41.3047V47H42.2656V53ZM46.9941 52.9414C46.7676 53.0664 46.4688 53.1289 46.0977 53.1289C45.0469 53.1289 44.5215 52.543 44.5215 51.3711V47.8203H43.4902V47H44.5215V45.5352L45.4824 45.2246V47H46.9941V47.8203H45.4824V51.2012C45.4824 51.6035 45.5508 51.8906 45.6875 52.0625C45.8242 52.2344 46.0508 52.3203 46.3672 52.3203C46.6094 52.3203 46.8184 52.2539 46.9941 52.1211V52.9414ZM53.0527 47L50.293 53.9609C49.8008 55.2031 49.1094 55.8242 48.2188 55.8242C47.9688 55.8242 47.7598 55.7988 47.5918 55.748V54.8867C47.7988 54.957 47.9883 54.9922 48.1602 54.9922C48.6445 54.9922 49.0078 54.7031 49.25 54.125L49.7305 52.9883L47.3867 47H48.4531L50.0762 51.6172C50.0957 51.6758 50.1367 51.8281 50.1992 52.0742H50.2344C50.2539 51.9805 50.293 51.832 50.3516 51.6289L52.0566 47H53.0527ZM57.5117 53V44.5977H59.9023C60.6289 44.5977 61.2051 44.7754 61.6309 45.1309C62.0566 45.4863 62.2695 45.9492 62.2695 46.5195C62.2695 46.9961 62.1406 47.4102 61.8828 47.7617C61.625 48.1133 61.2695 48.3633 60.8164 48.5117V48.5352C61.3828 48.6016 61.8359 48.8164 62.1758 49.1797C62.5156 49.5391 62.6855 50.0078 62.6855 50.5859C62.6855 51.3047 62.4277 51.8867 61.9121 52.332C61.3965 52.7773 60.7461 53 59.9609 53H57.5117ZM58.4961 45.4883V48.2012H59.5039C60.043 48.2012 60.4668 48.0723 60.7754 47.8145C61.084 47.5527 61.2383 47.1855 61.2383 46.7129C61.2383 45.8965 60.7012 45.4883 59.627 45.4883H58.4961ZM58.4961 49.0859V52.1094H59.832C60.4102 52.1094 60.8574 51.9727 61.1738 51.6992C61.4941 51.4258 61.6543 51.0508 61.6543 50.5742C61.6543 49.582 60.9785 49.0859 59.627 49.0859H58.4961ZM65.2227 53H64.2617V44.1172H65.2227V53ZM69.6758 53.1406C68.7891 53.1406 68.0801 52.8613 67.5488 52.3027C67.0215 51.7402 66.7578 50.9961 66.7578 50.0703C66.7578 49.0625 67.0332 48.2754 67.584 47.709C68.1348 47.1426 68.8789 46.8594 69.8164 46.8594C70.7109 46.8594 71.4082 47.1348 71.9082 47.6855C72.4121 48.2363 72.6641 49 72.6641 49.9766C72.6641 50.9336 72.3926 51.7012 71.8496 52.2793C71.3105 52.8535 70.5859 53.1406 69.6758 53.1406ZM69.7461 47.668C69.1289 47.668 68.6406 47.8789 68.2812 48.3008C67.9219 48.7188 67.7422 49.2969 67.7422 50.0352C67.7422 50.7461 67.9238 51.3066 68.2871 51.7168C68.6504 52.127 69.1367 52.332 69.7461 52.332C70.3672 52.332 70.8438 52.1309 71.1758 51.7285C71.5117 51.3262 71.6797 50.7539 71.6797 50.0117C71.6797 49.2617 71.5117 48.6836 71.1758 48.2773C70.8438 47.8711 70.3672 47.668 69.7461 47.668ZM75.1836 52.1328H75.1602V53H74.1992V44.1172H75.1602V48.0547H75.1836C75.6562 47.2578 76.3477 46.8594 77.2578 46.8594C78.0273 46.8594 78.6289 47.1289 79.0625 47.668C79.5 48.2031 79.7188 48.9219 79.7188 49.8242C79.7188 50.8281 79.4746 51.6328 78.9863 52.2383C78.498 52.8398 77.8301 53.1406 76.9824 53.1406C76.1895 53.1406 75.5898 52.8047 75.1836 52.1328ZM75.1602 49.7129V50.5508C75.1602 51.0469 75.3203 51.4688 75.6406 51.8164C75.9648 52.1602 76.375 52.332 76.8711 52.332C77.4531 52.332 77.9082 52.1094 78.2363 51.6641C78.5684 51.2188 78.7344 50.5996 78.7344 49.8066C78.7344 49.1387 78.5801 48.6152 78.2715 48.2363C77.9629 47.8574 77.5449 47.668 77.0176 47.668C76.459 47.668 76.0098 47.8633 75.6699 48.2539C75.3301 48.6406 75.1602 49.127 75.1602 49.7129ZM33.1484 63L30.7578 69H29.8145L27.541 63H28.5957L30.1191 67.3594C30.2324 67.6797 30.3027 67.959 30.3301 68.1973H30.3535C30.3926 67.8965 30.4551 67.625 30.541 67.3828L32.1348 63H33.1484ZM39.0078 66.2402H34.7715C34.7871 66.9082 34.9668 67.4238 35.3105 67.7871C35.6543 68.1504 36.127 68.332 36.7285 68.332C37.4043 68.332 38.0254 68.1094 38.5918 67.6641V68.5664C38.0645 68.9492 37.3672 69.1406 36.5 69.1406C35.6523 69.1406 34.9863 68.8691 34.502 68.3262C34.0176 67.7793 33.7754 67.0117 33.7754 66.0234C33.7754 65.0898 34.0391 64.3301 34.5664 63.7441C35.0977 63.1543 35.7559 62.8594 36.541 62.8594C37.3262 62.8594 37.9336 63.1133 38.3633 63.6211C38.793 64.1289 39.0078 64.834 39.0078 65.7363V66.2402ZM38.0234 65.4258C38.0195 64.8711 37.8848 64.4395 37.6191 64.1309C37.3574 63.8223 36.9922 63.668 36.5234 63.668C36.0703 63.668 35.6855 63.8301 35.3691 64.1543C35.0527 64.4785 34.8574 64.9023 34.7832 65.4258H38.0234ZM43.5957 63.9727C43.4277 63.8438 43.1855 63.7793 42.8691 63.7793C42.459 63.7793 42.1152 63.9727 41.8379 64.3594C41.5645 64.7461 41.4277 65.2734 41.4277 65.9414V69H40.4668V63H41.4277V64.2363H41.4512C41.5879 63.8145 41.7969 63.4863 42.0781 63.252C42.3594 63.0137 42.6738 62.8945 43.0215 62.8945C43.2715 62.8945 43.4629 62.9219 43.5957 62.9766V63.9727ZM45.1309 61.4766C44.959 61.4766 44.8125 61.418 44.6914 61.3008C44.5703 61.1836 44.5098 61.0352 44.5098 60.8555C44.5098 60.6758 44.5703 60.5273 44.6914 60.4102C44.8125 60.2891 44.959 60.2285 45.1309 60.2285C45.3066 60.2285 45.4551 60.2891 45.5762 60.4102C45.7012 60.5273 45.7637 60.6758 45.7637 60.8555C45.7637 61.0273 45.7012 61.1738 45.5762 61.2949C45.4551 61.416 45.3066 61.4766 45.1309 61.4766ZM45.5996 69H44.6387V63H45.5996V69ZM48.5059 69H47.5449V60.1172H48.5059V69ZM55.2734 66.2402H51.0371C51.0527 66.9082 51.2324 67.4238 51.5762 67.7871C51.9199 68.1504 52.3926 68.332 52.9941 68.332C53.6699 68.332 54.291 68.1094 54.8574 67.6641V68.5664C54.3301 68.9492 53.6328 69.1406 52.7656 69.1406C51.918 69.1406 51.252 68.8691 50.7676 68.3262C50.2832 67.7793 50.041 67.0117 50.041 66.0234C50.041 65.0898 50.3047 64.3301 50.832 63.7441C51.3633 63.1543 52.0215 62.8594 52.8066 62.8594C53.5918 62.8594 54.1992 63.1133 54.6289 63.6211C55.0586 64.1289 55.2734 64.834 55.2734 65.7363V66.2402ZM54.2891 65.4258C54.2852 64.8711 54.1504 64.4395 53.8848 64.1309C53.623 63.8223 53.2578 63.668 52.7891 63.668C52.3359 63.668 51.9512 63.8301 51.6348 64.1543C51.3184 64.4785 51.123 64.9023 51.0488 65.4258H54.2891ZM59.8613 63.9727C59.6934 63.8438 59.4512 63.7793 59.1348 63.7793C58.7246 63.7793 58.3809 63.9727 58.1035 64.3594C57.8301 64.7461 57.6934 65.2734 57.6934 65.9414V69H56.7324V63H57.6934V64.2363H57.7168C57.8535 63.8145 58.0625 63.4863 58.3438 63.252C58.625 63.0137 58.9395 62.8945 59.2871 62.8945C59.5371 62.8945 59.7285 62.9219 59.8613 62.9766V63.9727ZM61.3965 61.4766C61.2246 61.4766 61.0781 61.418 60.957 61.3008C60.8359 61.1836 60.7754 61.0352 60.7754 60.8555C60.7754 60.6758 60.8359 60.5273 60.957 60.4102C61.0781 60.2891 61.2246 60.2285 61.3965 60.2285C61.5723 60.2285 61.7207 60.2891 61.8418 60.4102C61.9668 60.5273 62.0293 60.6758 62.0293 60.8555C62.0293 61.0273 61.9668 61.1738 61.8418 61.2949C61.7207 61.416 61.5723 61.4766 61.3965 61.4766ZM61.8652 69H60.9043V63H61.8652V69ZM68.791 69H67.8301V65.5781C67.8301 64.3047 67.3652 63.668 66.4355 63.668C65.9551 63.668 65.5566 63.8496 65.2402 64.2129C64.9277 64.5723 64.7715 65.0273 64.7715 65.5781V69H63.8105V63H64.7715V63.9961H64.7949C65.248 63.2383 65.9043 62.8594 66.7637 62.8594C67.4199 62.8594 67.9219 63.0723 68.2695 63.498C68.6172 63.9199 68.791 64.5312 68.791 65.332V69ZM71.0996 61.4766C70.9277 61.4766 70.7812 61.418 70.6602 61.3008C70.5391 61.1836 70.4785 61.0352 70.4785 60.8555C70.4785 60.6758 70.5391 60.5273 70.6602 60.4102C70.7812 60.2891 70.9277 60.2285 71.0996 60.2285C71.2754 60.2285 71.4238 60.2891 71.5449 60.4102C71.6699 60.5273 71.7324 60.6758 71.7324 60.8555C71.7324 61.0273 71.6699 61.1738 71.5449 61.2949C71.4238 61.416 71.2754 61.4766 71.0996 61.4766ZM71.5684 69H70.6074V63H71.5684V69ZM22.4961 85.1406C21.6094 85.1406 20.9004 84.8613 20.3691 84.3027C19.8418 83.7402 19.5781 82.9961 19.5781 82.0703C19.5781 81.0625 19.8535 80.2754 20.4043 79.709C20.9551 79.1426 21.6992 78.8594 22.6367 78.8594C23.5312 78.8594 24.2285 79.1348 24.7285 79.6855C25.2324 80.2363 25.4844 81 25.4844 81.9766C25.4844 82.9336 25.2129 83.7012 24.6699 84.2793C24.1309 84.8535 23.4062 85.1406 22.4961 85.1406ZM22.5664 79.668C21.9492 79.668 21.4609 79.8789 21.1016 80.3008C20.7422 80.7188 20.5625 81.2969 20.5625 82.0352C20.5625 82.7461 20.7441 83.3066 21.1074 83.7168C21.4707 84.127 21.957 84.332 22.5664 84.332C23.1875 84.332 23.6641 84.1309 23.9961 83.7285C24.332 83.3262 24.5 82.7539 24.5 82.0117C24.5 81.2617 24.332 80.6836 23.9961 80.2773C23.6641 79.8711 23.1875 79.668 22.5664 79.668ZM32 85H30.6523L28.0039 82.1172H27.9805V85H27.0195V76.1172H27.9805V81.748H28.0039L30.5234 79H31.7832L29 81.8945L32 85ZM37.8359 85H36.875V84.0508H36.8516C36.4531 84.7773 35.8359 85.1406 35 85.1406C33.5703 85.1406 32.8555 84.2891 32.8555 82.5859V79H33.8105V82.4336C33.8105 83.6992 34.2949 84.332 35.2637 84.332C35.7324 84.332 36.1172 84.1602 36.418 83.8164C36.7227 83.4688 36.875 83.0156 36.875 82.457V79H37.8359V85ZM44.5566 79L41.7969 85.9609C41.3047 87.2031 40.6133 87.8242 39.7227 87.8242C39.4727 87.8242 39.2637 87.7988 39.0957 87.748V86.8867C39.3027 86.957 39.4922 86.9922 39.6641 86.9922C40.1484 86.9922 40.5117 86.7031 40.7539 86.125L41.2344 84.9883L38.8906 79H39.957L41.5801 83.6172C41.5996 83.6758 41.6406 83.8281 41.7031 84.0742H41.7383C41.7578 83.9805 41.7969 83.832 41.8555 83.6289L43.5605 79H44.5566ZM49.8887 85H48.9277V84.0625H48.9043C48.4863 84.7812 47.8711 85.1406 47.0586 85.1406C46.4609 85.1406 45.9922 84.9824 45.6523 84.666C45.3164 84.3496 45.1484 83.9297 45.1484 83.4062C45.1484 82.2852 45.8086 81.6328 47.1289 81.4492L48.9277 81.1973C48.9277 80.1777 48.5156 79.668 47.6914 79.668C46.9688 79.668 46.3164 79.9141 45.7344 80.4062V79.4219C46.3242 79.0469 47.0039 78.8594 47.7734 78.8594C49.1836 78.8594 49.8887 79.6055 49.8887 81.0977V85ZM48.9277 81.9648L47.4805 82.1641C47.0352 82.2266 46.6992 82.3379 46.4727 82.498C46.2461 82.6543 46.1328 82.9336 46.1328 83.3359C46.1328 83.6289 46.2363 83.8691 46.4434 84.0566C46.6543 84.2402 46.9336 84.332 47.2812 84.332C47.7578 84.332 48.1504 84.166 48.459 83.834C48.7715 83.498 48.9277 83.0742 48.9277 82.5625V81.9648ZM60.2188 85H59.2578V81.5547C59.2578 80.8906 59.1543 80.4102 58.9473 80.1133C58.7441 79.8164 58.4004 79.668 57.916 79.668C57.5059 79.668 57.1562 79.8555 56.8672 80.2305C56.582 80.6055 56.4395 81.0547 56.4395 81.5781V85H55.4785V81.4375C55.4785 80.2578 55.0234 79.668 54.1133 79.668C53.6914 79.668 53.3438 79.8457 53.0703 80.2012C52.7969 80.5527 52.6602 81.0117 52.6602 81.5781V85H51.6992V79H52.6602V79.9492H52.6836C53.1094 79.2227 53.7305 78.8594 54.5469 78.8594C54.957 78.8594 55.3145 78.9746 55.6191 79.2051C55.9238 79.4316 56.1328 79.7305 56.2461 80.1016C56.6914 79.2734 57.3555 78.8594 58.2383 78.8594C59.5586 78.8594 60.2188 79.6738 60.2188 81.3027V85ZM62.9961 85H62.0352V79H62.9961V85ZM69.7168 79L66.957 85.9609C66.4648 87.2031 65.7734 87.8242 64.8828 87.8242C64.6328 87.8242 64.4238 87.7988 64.2559 87.748V86.8867C64.4629 86.957 64.6523 86.9922 64.8242 86.9922C65.3086 86.9922 65.6719 86.7031 65.9141 86.125L66.3945 84.9883L64.0508 79H65.1172L66.7402 83.6172C66.7598 83.6758 66.8008 83.8281 66.8633 84.0742H66.8984C66.918 83.9805 66.957 83.832 67.0156 83.6289L68.7207 79H69.7168ZM73.2617 85.1406C72.375 85.1406 71.666 84.8613 71.1348 84.3027C70.6074 83.7402 70.3438 82.9961 70.3438 82.0703C70.3438 81.0625 70.6191 80.2754 71.1699 79.709C71.7207 79.1426 72.4648 78.8594 73.4023 78.8594C74.2969 78.8594 74.9941 79.1348 75.4941 79.6855C75.998 80.2363 76.25 81 76.25 81.9766C76.25 82.9336 75.9785 83.7012 75.4355 84.2793C74.8965 84.8535 74.1719 85.1406 73.2617 85.1406ZM73.332 79.668C72.7148 79.668 72.2266 79.8789 71.8672 80.3008C71.5078 80.7188 71.3281 81.2969 71.3281 82.0352C71.3281 82.7461 71.5098 83.3066 71.873 83.7168C72.2363 84.127 72.7227 84.332 73.332 84.332C73.9531 84.332 74.4297 84.1309 74.7617 83.7285C75.0977 83.3262 75.2656 82.7539 75.2656 82.0117C75.2656 81.2617 75.0977 80.6836 74.7617 80.2773C74.4297 79.8711 73.9531 79.668 73.332 79.668ZM80.9141 79.9727C80.7461 79.8438 80.5039 79.7793 80.1875 79.7793C79.7773 79.7793 79.4336 79.9727 79.1562 80.3594C78.8828 80.7461 78.7461 81.2734 78.7461 81.9414V85H77.7852V79H78.7461V80.2363H78.7695C78.9062 79.8145 79.1152 79.4863 79.3965 79.252C79.6777 79.0137 79.9922 78.8945 80.3398 78.8945C80.5898 78.8945 80.7812 78.9219 80.9141 78.9766V79.9727Z" fill="#020057"/>
</svg>
