<svg width="25" height="33" viewBox="0 0 25 33" fill="none" xmlns="http://www.w3.org/2000/svg">
<g filter="url(#filter0_d_1588_56448)">
<path d="M4.01802 5.55275C4.01946 3.50367 6.4952 2.47998 7.93878 3.93422C11.8224 7.84649 15.637 11.722 19.5308 15.6444C20.9744 17.0986 19.9461 19.6118 17.8974 19.6538C16.3364 19.6858 14.7609 19.7179 13.1178 19.7275C12.4996 19.7312 11.9077 19.9799 11.4721 20.4186C10.3166 21.582 9.15585 22.7133 7.98174 23.8569C6.50994 25.2904 4.00066 24.2454 4.00207 22.1909C4.00592 16.5949 4.01415 11.0883 4.01802 5.55275Z" fill="#D97705"/>
<path d="M4.74233 6.01561C4.74223 4.45449 6.63136 3.6747 7.73247 4.78135C11.4175 8.48492 15.0357 12.1199 18.7088 15.7882C19.8134 16.8914 19.0329 18.8059 17.4722 18.8401C15.8726 18.8751 14.2495 18.9145 12.5497 18.9237C12.0819 18.9263 11.6339 19.1135 11.3029 19.4441C10.1408 20.6046 8.9704 21.7251 7.78073 22.8738C6.6557 23.96 4.74395 23.1646 4.74384 21.6008C4.7435 16.3797 4.74267 11.2488 4.74233 6.01561Z" fill="white"/>
<path d="M17.6946 16.2002C18.322 16.8308 17.8753 17.913 16.9858 17.9268C15.4482 17.9505 13.8862 17.9868 12.2788 17.9971C11.7369 18.0006 11.2189 18.2206 10.8377 18.6059C9.7303 19.7249 8.58978 20.8151 7.42447 21.9628C6.78436 22.5932 5.68359 22.1428 5.68359 21.2443C5.68359 16.2568 5.68359 11.3772 5.68359 6.55071C5.68359 5.6585 6.76347 5.21291 7.3927 5.84545C10.813 9.28377 14.2599 12.7473 17.6946 16.2002Z" fill="#FFC35F"/>
</g>
<defs>
<filter id="filter0_d_1588_56448" x="0.00390625" y="3.25171" width="24.1992" height="29.2681" filterUnits="userSpaceOnUse" color-interpolation-filters="sRGB">
<feFlood flood-opacity="0" result="BackgroundImageFix"/>
<feColorMatrix in="SourceAlpha" type="matrix" values="0 0 0 0 0 0 0 0 0 0 0 0 0 0 0 0 0 0 127 0" result="hardAlpha"/>
<feOffset dy="4"/>
<feGaussianBlur stdDeviation="2"/>
<feColorMatrix type="matrix" values="0 0 0 0 0 0 0 0 0 0 0 0 0 0 0 0 0 0 0.25 0"/>
<feBlend mode="normal" in2="BackgroundImageFix" result="effect1_dropShadow_1588_56448"/>
<feBlend mode="normal" in="SourceGraphic" in2="effect1_dropShadow_1588_56448" result="shape"/>
</filter>
</defs>
</svg>
