<svg width="100%" viewBox="0 0 148 147" fill="none" xmlns="http://www.w3.org/2000/svg">
<g filter="url(#filter0_dd_3872_63027)">
<rect x="8" y="4" width="132" height="132" fill="#FBFBFE"/>
<rect x="8.5" y="4.5" width="131" height="131" stroke="#827DFF" stroke-dasharray="4 4"/>
<rect width="100" height="96" transform="translate(24 22)" fill="#FBFBFE"/>
<path d="M65.4247 32.5757C65.1903 32.3414 64.8104 32.3414 64.5761 32.5757C64.3418 32.81 64.3418 33.1899 64.5761 33.4243L66.0974 34.9456C65.7833 35.4198 65.6004 35.9885 65.6004 36.6V47.4C65.6004 49.0568 66.9435 50.4 68.6004 50.4H79.4004C80.0118 50.4 80.5806 50.2171 81.0548 49.903L82.5761 51.4243C82.8104 51.6586 83.1903 51.6586 83.4247 51.4243C83.659 51.1899 83.659 50.81 83.4247 50.5757L65.4247 32.5757ZM80.1764 49.0246C79.9415 49.137 79.6783 49.2 79.4004 49.2H68.6004C67.6063 49.2 66.8004 48.3941 66.8004 47.4V38.4H69.5519L80.1764 49.0246ZM81.2004 38.4V46.6544L82.3706 47.8246C82.3902 47.6859 82.4004 47.5441 82.4004 47.4V36.6C82.4004 34.9431 81.0572 33.6 79.4004 33.6H68.6004C68.4563 33.6 68.3145 33.6102 68.1758 33.6298L72.946 38.4H81.2004Z" fill="#020057"/>
<path d="M44.4746 74.6484C43.8535 74.9766 43.0801 75.1406 42.1543 75.1406C40.959 75.1406 40.002 74.7559 39.2832 73.9863C38.5645 73.2168 38.2051 72.207 38.2051 70.957C38.2051 69.6133 38.6094 68.5273 39.418 67.6992C40.2266 66.8711 41.252 66.457 42.4941 66.457C43.291 66.457 43.9512 66.5723 44.4746 66.8027V67.8516C43.873 67.5156 43.209 67.3477 42.4824 67.3477C41.5176 67.3477 40.7344 67.6699 40.1328 68.3145C39.5352 68.959 39.2363 69.8203 39.2363 70.8984C39.2363 71.9219 39.5156 72.7383 40.0742 73.3477C40.6367 73.9531 41.373 74.2559 42.2832 74.2559C43.127 74.2559 43.8574 74.0684 44.4746 73.6934V74.6484ZM47.0176 75H46.0566V66.1172H47.0176V75ZM53.2578 75H52.2969V74.0625H52.2734C51.8555 74.7812 51.2402 75.1406 50.4277 75.1406C49.8301 75.1406 49.3613 74.9824 49.0215 74.666C48.6855 74.3496 48.5176 73.9297 48.5176 73.4062C48.5176 72.2852 49.1777 71.6328 50.498 71.4492L52.2969 71.1973C52.2969 70.1777 51.8848 69.668 51.0605 69.668C50.3379 69.668 49.6855 69.9141 49.1035 70.4062V69.4219C49.6934 69.0469 50.373 68.8594 51.1426 68.8594C52.5527 68.8594 53.2578 69.6055 53.2578 71.0977V75ZM52.2969 71.9648L50.8496 72.1641C50.4043 72.2266 50.0684 72.3379 49.8418 72.498C49.6152 72.6543 49.502 72.9336 49.502 73.3359C49.502 73.6289 49.6055 73.8691 49.8125 74.0566C50.0234 74.2402 50.3027 74.332 50.6504 74.332C51.127 74.332 51.5195 74.166 51.8281 73.834C52.1406 73.498 52.2969 73.0742 52.2969 72.5625V71.9648ZM58.1973 69.9727C58.0293 69.8438 57.7871 69.7793 57.4707 69.7793C57.0605 69.7793 56.7168 69.9727 56.4395 70.3594C56.166 70.7461 56.0293 71.2734 56.0293 71.9414V75H55.0684V69H56.0293V70.2363H56.0527C56.1895 69.8145 56.3984 69.4863 56.6797 69.252C56.9609 69.0137 57.2754 68.8945 57.623 68.8945C57.873 68.8945 58.0645 68.9219 58.1973 68.9766V69.9727ZM59.7324 67.4766C59.5605 67.4766 59.4141 67.418 59.293 67.3008C59.1719 67.1836 59.1113 67.0352 59.1113 66.8555C59.1113 66.6758 59.1719 66.5273 59.293 66.4102C59.4141 66.2891 59.5605 66.2285 59.7324 66.2285C59.9082 66.2285 60.0566 66.2891 60.1777 66.4102C60.3027 66.5273 60.3652 66.6758 60.3652 66.8555C60.3652 67.0273 60.3027 67.1738 60.1777 67.2949C60.0566 67.416 59.9082 67.4766 59.7324 67.4766ZM60.2012 75H59.2402V69H60.2012V75ZM64.9297 74.9414C64.7031 75.0664 64.4043 75.1289 64.0332 75.1289C62.9824 75.1289 62.457 74.543 62.457 73.3711V69.8203H61.4258V69H62.457V67.5352L63.418 67.2246V69H64.9297V69.8203H63.418V73.2012C63.418 73.6035 63.4863 73.8906 63.623 74.0625C63.7598 74.2344 63.9863 74.3203 64.3027 74.3203C64.5449 74.3203 64.7539 74.2539 64.9297 74.1211V74.9414ZM70.9883 69L68.2285 75.9609C67.7363 77.2031 67.0449 77.8242 66.1543 77.8242C65.9043 77.8242 65.6953 77.7988 65.5273 77.748V76.8867C65.7344 76.957 65.9238 76.9922 66.0957 76.9922C66.5801 76.9922 66.9434 76.7031 67.1855 76.125L67.666 74.9883L65.3223 69H66.3887L68.0117 73.6172C68.0312 73.6758 68.0723 73.8281 68.1348 74.0742H68.1699C68.1895 73.9805 68.2285 73.832 68.2871 73.6289L69.9922 69H70.9883ZM77.4177 64.92L78.2937 65.172C78.0777 65.62 77.8217 66.06 77.5257 66.492C77.2297 66.916 76.9137 67.312 76.5777 67.68C76.2497 68.048 75.9177 68.372 75.5817 68.652C75.5337 68.596 75.4617 68.532 75.3657 68.46C75.2777 68.38 75.1857 68.304 75.0897 68.232C75.0017 68.16 74.9217 68.104 74.8497 68.064C75.3617 67.68 75.8457 67.212 76.3017 66.66C76.7577 66.108 77.1297 65.528 77.4177 64.92ZM76.9977 66.3H85.2657V67.116H76.6977L76.9977 66.3ZM74.9937 69.132H85.7097V69.96H74.9937V69.132ZM75.1737 72H85.5537V72.828H75.1737V72ZM78.8097 66.576H79.6017V72.396H78.8097V66.576ZM76.6737 66.576H77.4777V72.432H76.6737V66.576ZM80.9817 66.576H81.7617V72.432H80.9817V66.576ZM83.1777 66.576H84.0177V72.432H83.1777V66.576ZM78.4857 73.644L79.3137 73.56C79.3937 73.912 79.4617 74.292 79.5177 74.7C79.5737 75.108 79.6057 75.452 79.6137 75.732L78.7377 75.852C78.7377 75.66 78.7257 75.436 78.7017 75.18C78.6857 74.932 78.6577 74.672 78.6177 74.4C78.5857 74.128 78.5417 73.876 78.4857 73.644ZM80.9337 73.644L81.7737 73.488C81.8857 73.72 81.9937 73.972 82.0977 74.244C82.2017 74.508 82.2937 74.764 82.3737 75.012C82.4537 75.26 82.5137 75.48 82.5537 75.672L81.6657 75.864C81.6097 75.576 81.5137 75.224 81.3777 74.808C81.2417 74.392 81.0937 74.004 80.9337 73.644ZM83.3817 73.56L84.2337 73.284C84.4337 73.516 84.6377 73.776 84.8457 74.064C85.0537 74.352 85.2457 74.636 85.4217 74.916C85.6057 75.188 85.7497 75.436 85.8537 75.66L84.9657 75.984C84.8697 75.768 84.7337 75.52 84.5577 75.24C84.3897 74.96 84.2017 74.672 83.9937 74.376C83.7857 74.08 83.5817 73.808 83.3817 73.56ZM76.3857 73.332L77.2497 73.548C77.0897 73.996 76.8817 74.44 76.6257 74.88C76.3697 75.32 76.0777 75.684 75.7497 75.972L74.9097 75.624C75.2217 75.368 75.5097 75.032 75.7737 74.616C76.0377 74.2 76.2417 73.772 76.3857 73.332ZM90.0417 69.96H97.7457V70.824H90.0417V69.96ZM90.6417 66.888H97.1817V67.74H90.6417V66.888ZM93.3897 64.92H94.3137V70.572H93.3897V64.92ZM90.0537 74.496C90.5977 74.464 91.2337 74.432 91.9617 74.4C92.6977 74.36 93.4777 74.316 94.3017 74.268C95.1257 74.22 95.9497 74.172 96.7737 74.124V74.94C95.9817 75.004 95.1857 75.064 94.3857 75.12C93.5937 75.176 92.8337 75.228 92.1057 75.276C91.3857 75.324 90.7417 75.368 90.1737 75.408L90.0537 74.496ZM94.8777 72.444L95.6577 72.036C95.9617 72.388 96.2617 72.772 96.5577 73.188C96.8617 73.604 97.1377 74.016 97.3857 74.424C97.6337 74.824 97.8217 75.188 97.9497 75.516L97.1097 75.984C96.9897 75.656 96.8097 75.288 96.5697 74.88C96.3377 74.472 96.0737 74.056 95.7777 73.632C95.4817 73.2 95.1817 72.804 94.8777 72.444ZM92.5977 70.524L93.5697 70.8C93.3937 71.264 93.1977 71.752 92.9817 72.264C92.7737 72.776 92.5577 73.272 92.3337 73.752C92.1177 74.224 91.9097 74.64 91.7097 75L90.9177 74.724C91.0697 74.452 91.2217 74.14 91.3737 73.788C91.5337 73.436 91.6857 73.072 91.8297 72.696C91.9817 72.312 92.1217 71.936 92.2497 71.568C92.3857 71.2 92.5017 70.852 92.5977 70.524ZM87.4497 65.664L87.9417 65.004C88.2217 65.1 88.5097 65.22 88.8057 65.364C89.1017 65.5 89.3817 65.644 89.6457 65.796C89.9177 65.948 90.1417 66.096 90.3177 66.24L89.7897 66.984C89.6297 66.84 89.4177 66.688 89.1537 66.528C88.8897 66.368 88.6097 66.212 88.3137 66.06C88.0177 65.908 87.7297 65.776 87.4497 65.664ZM86.8137 68.976L87.2697 68.292C87.5497 68.372 87.8377 68.476 88.1337 68.604C88.4377 68.724 88.7257 68.856 88.9977 69C89.2777 69.136 89.5057 69.268 89.6817 69.396L89.1897 70.164C89.0217 70.028 88.8017 69.892 88.5297 69.756C88.2657 69.612 87.9817 69.472 87.6777 69.336C87.3817 69.192 87.0937 69.072 86.8137 68.976ZM87.2217 75.216C87.4297 74.904 87.6577 74.536 87.9057 74.112C88.1617 73.68 88.4177 73.224 88.6737 72.744C88.9377 72.264 89.1777 71.8 89.3937 71.352L90.0657 71.928C89.8657 72.352 89.6497 72.792 89.4177 73.248C89.1857 73.704 88.9457 74.152 88.6977 74.592C88.4577 75.032 88.2257 75.44 88.0017 75.816L87.2217 75.216ZM103.05 65.58H109.686V66.204H103.05V65.58ZM103.47 66.792H109.35V67.38H103.47V66.792ZM105.834 64.92H106.71V67.104H105.834V64.92ZM106.698 68.124H107.31V68.664C107.31 68.76 107.326 68.82 107.358 68.844C107.398 68.868 107.486 68.88 107.622 68.88C107.662 68.88 107.746 68.88 107.874 68.88C108.01 68.88 108.146 68.88 108.282 68.88C108.418 68.88 108.514 68.88 108.57 68.88C108.666 68.88 108.73 68.88 108.762 68.88C108.794 68.872 108.814 68.86 108.822 68.844C108.886 68.876 108.966 68.908 109.062 68.94C109.158 68.964 109.246 68.984 109.326 69C109.302 69.112 109.242 69.192 109.146 69.24C109.05 69.288 108.894 69.312 108.678 69.312C108.646 69.312 108.574 69.312 108.462 69.312C108.358 69.312 108.242 69.312 108.114 69.312C107.986 69.312 107.87 69.312 107.766 69.312C107.662 69.312 107.594 69.312 107.562 69.312C107.218 69.312 106.986 69.272 106.866 69.192C106.754 69.112 106.698 68.936 106.698 68.664V68.124ZM105.342 68.148H105.918C105.91 68.42 105.858 68.648 105.762 68.832C105.666 69.008 105.494 69.148 105.246 69.252C105.006 69.356 104.662 69.432 104.214 69.48C104.19 69.416 104.15 69.34 104.094 69.252C104.046 69.164 103.994 69.096 103.938 69.048C104.322 69.016 104.61 68.972 104.802 68.916C105.002 68.852 105.142 68.76 105.222 68.64C105.302 68.52 105.342 68.356 105.342 68.148ZM103.866 68.4V69.732H108.822V68.4H103.866ZM103.134 67.872H109.602V70.26H103.134V67.872ZM104.31 72.192V72.72H108.426V72.192H104.31ZM104.31 73.152V73.692H108.426V73.152H104.31ZM104.31 71.244V71.748H108.426V71.244H104.31ZM103.482 70.692H109.278V74.232H103.482V70.692ZM106.89 74.688L107.454 74.208C107.75 74.336 108.054 74.476 108.366 74.628C108.678 74.78 108.974 74.928 109.254 75.072C109.534 75.224 109.778 75.36 109.986 75.48L109.254 75.972C109.07 75.852 108.846 75.716 108.582 75.564C108.318 75.42 108.042 75.272 107.754 75.12C107.466 74.968 107.178 74.824 106.89 74.688ZM104.946 74.232L105.702 74.664C105.47 74.832 105.202 75 104.898 75.168C104.594 75.336 104.278 75.488 103.95 75.624C103.63 75.76 103.322 75.876 103.026 75.972C102.954 75.892 102.862 75.792 102.75 75.672C102.638 75.56 102.534 75.472 102.438 75.408C102.75 75.312 103.066 75.2 103.386 75.072C103.706 74.944 104.002 74.808 104.274 74.664C104.554 74.512 104.778 74.368 104.946 74.232ZM99.2937 68.556H102.378V69.264H99.2937V68.556ZM99.3777 65.34H102.354V66.06H99.3777V65.34ZM99.2937 70.152H102.378V70.872H99.2937V70.152ZM98.8017 66.912H102.69V67.668H98.8017V66.912ZM99.7137 71.772H102.366V75.264H99.7137V74.52H101.622V72.516H99.7137V71.772ZM99.2817 71.772H100.026V75.828H99.2817V71.772ZM62.132 82.576H66.572V83.452H62.132V82.576ZM56.576 81.664H62.432V82.516H56.576V81.664ZM57.98 84.112H61.088V84.928H57.98V84.112ZM57.98 86.608H61.088V87.424H57.98V86.608ZM66.296 82.576H66.464L66.62 82.54L67.196 82.696C67.004 84.296 66.68 85.684 66.224 86.86C65.768 88.028 65.2 89.02 64.52 89.836C63.848 90.644 63.08 91.296 62.216 91.792C62.144 91.68 62.052 91.548 61.94 91.396C61.828 91.252 61.724 91.136 61.628 91.048C62.42 90.64 63.136 90.056 63.776 89.296C64.416 88.536 64.952 87.612 65.384 86.524C65.824 85.436 66.128 84.188 66.296 82.78V82.576ZM63.224 83.5C63.44 84.652 63.744 85.724 64.136 86.716C64.528 87.708 65.016 88.58 65.6 89.332C66.192 90.076 66.9 90.66 67.724 91.084C67.66 91.14 67.588 91.212 67.508 91.3C67.428 91.388 67.352 91.476 67.28 91.564C67.208 91.66 67.148 91.748 67.1 91.828C66.228 91.34 65.484 90.7 64.868 89.908C64.26 89.108 63.752 88.184 63.344 87.136C62.944 86.08 62.616 84.924 62.36 83.668L63.224 83.5ZM57.5 81.988H58.364V89.776H57.5V81.988ZM60.716 81.988H61.592V91.936H60.716V81.988ZM56.324 89.524C56.724 89.468 57.18 89.408 57.692 89.344C58.204 89.272 58.748 89.196 59.324 89.116C59.908 89.028 60.492 88.94 61.076 88.852L61.124 89.68C60.3 89.816 59.476 89.952 58.652 90.088C57.836 90.216 57.116 90.324 56.492 90.412L56.324 89.524ZM70.592 86.188H77.444V84.976H69.548V84.208H78.332V86.944H70.592V86.188ZM70.124 86.188H71.024C70.96 86.524 70.884 86.88 70.796 87.256C70.708 87.624 70.62 87.98 70.532 88.324C70.444 88.668 70.36 88.976 70.28 89.248L69.392 89.116C69.472 88.852 69.556 88.556 69.644 88.228C69.74 87.892 69.828 87.548 69.908 87.196C69.996 86.836 70.068 86.5 70.124 86.188ZM70.256 88.06H78.356V88.828H70.028L70.256 88.06ZM78.128 88.06H79.028C79.028 88.06 79.024 88.104 79.016 88.192C79.016 88.28 79.012 88.356 79.004 88.42C78.924 89.26 78.836 89.884 78.74 90.292C78.644 90.7 78.52 90.98 78.368 91.132C78.264 91.236 78.152 91.308 78.032 91.348C77.92 91.396 77.776 91.424 77.6 91.432C77.448 91.44 77.236 91.444 76.964 91.444C76.692 91.444 76.4 91.436 76.088 91.42C76.08 91.292 76.052 91.152 76.004 91C75.964 90.84 75.908 90.704 75.836 90.592C76.124 90.624 76.396 90.644 76.652 90.652C76.916 90.66 77.1 90.66 77.204 90.652C77.308 90.652 77.392 90.648 77.456 90.64C77.528 90.624 77.588 90.596 77.636 90.556C77.74 90.452 77.828 90.224 77.9 89.872C77.98 89.52 78.056 88.952 78.128 88.168V88.06ZM73.556 84.412H74.444V91.96H73.556V84.412ZM73.316 88.288L74.024 88.612C73.744 88.956 73.412 89.288 73.028 89.608C72.652 89.92 72.244 90.212 71.804 90.484C71.364 90.756 70.912 91 70.448 91.216C69.992 91.432 69.544 91.616 69.104 91.768C69.064 91.696 69.008 91.612 68.936 91.516C68.872 91.428 68.804 91.34 68.732 91.252C68.66 91.172 68.588 91.104 68.516 91.048C68.956 90.928 69.404 90.772 69.86 90.58C70.324 90.388 70.768 90.172 71.192 89.932C71.624 89.684 72.02 89.424 72.38 89.152C72.748 88.872 73.06 88.584 73.316 88.288ZM69.956 81.964H73.832V82.684H69.956V81.964ZM74.588 81.964H79.436V82.684H74.588V81.964ZM70.208 80.86L71.048 81.088C70.904 81.48 70.728 81.868 70.52 82.252C70.312 82.628 70.088 82.984 69.848 83.32C69.616 83.648 69.38 83.936 69.14 84.184C69.084 84.136 69.012 84.084 68.924 84.028C68.836 83.964 68.744 83.904 68.648 83.848C68.552 83.784 68.468 83.732 68.396 83.692C68.772 83.34 69.12 82.916 69.44 82.42C69.76 81.916 70.016 81.396 70.208 80.86ZM74.936 80.86L75.788 81.076C75.564 81.676 75.264 82.244 74.888 82.78C74.512 83.308 74.12 83.756 73.712 84.124C73.664 84.076 73.592 84.02 73.496 83.956C73.408 83.892 73.316 83.828 73.22 83.764C73.132 83.7 73.048 83.648 72.968 83.608C73.392 83.272 73.776 82.868 74.12 82.396C74.464 81.916 74.736 81.404 74.936 80.86ZM70.628 82.516L71.384 82.24C71.52 82.48 71.652 82.748 71.78 83.044C71.916 83.34 72.012 83.592 72.068 83.8L71.276 84.112C71.228 83.896 71.14 83.64 71.012 83.344C70.892 83.048 70.764 82.772 70.628 82.516ZM75.656 82.504L76.4 82.24C76.608 82.472 76.812 82.74 77.012 83.044C77.212 83.34 77.36 83.6 77.456 83.824L76.664 84.136C76.584 83.912 76.448 83.648 76.256 83.344C76.064 83.04 75.864 82.76 75.656 82.504ZM81.476 82.084H90.548V82.996H81.476V82.084ZM82.244 86.008H89.612V86.908H82.244V86.008ZM80.78 90.172H91.208V91.084H80.78V90.172ZM46.6106 98.996H57.3506V99.86H46.6106V98.996ZM50.5346 101.828H55.3226V102.692H50.5346V101.828ZM54.9986 101.828H55.9346C55.9346 101.828 55.9306 101.856 55.9226 101.912C55.9226 101.968 55.9186 102.032 55.9106 102.104C55.9106 102.168 55.9066 102.224 55.8986 102.272C55.8186 103.416 55.7346 104.348 55.6466 105.068C55.5586 105.78 55.4586 106.328 55.3466 106.712C55.2346 107.096 55.0986 107.368 54.9386 107.528C54.8026 107.672 54.6546 107.772 54.4946 107.828C54.3346 107.884 54.1386 107.92 53.9066 107.936C53.6986 107.952 53.4106 107.956 53.0426 107.948C52.6746 107.94 52.2906 107.924 51.8906 107.9C51.8826 107.772 51.8466 107.624 51.7826 107.456C51.7266 107.296 51.6546 107.152 51.5666 107.024C51.9986 107.056 52.4066 107.076 52.7906 107.084C53.1746 107.1 53.4426 107.108 53.5946 107.108C53.7306 107.108 53.8426 107.1 53.9306 107.084C54.0266 107.068 54.1066 107.028 54.1706 106.964C54.2986 106.852 54.4106 106.616 54.5066 106.256C54.6026 105.888 54.6906 105.36 54.7706 104.672C54.8506 103.976 54.9266 103.08 54.9986 101.984V101.828ZM50.3186 99.476H51.3266C51.2946 100.116 51.2426 100.764 51.1706 101.42C51.0986 102.068 50.9826 102.712 50.8226 103.352C50.6706 103.984 50.4426 104.588 50.1386 105.164C49.8426 105.74 49.4506 106.268 48.9626 106.748C48.4746 107.228 47.8666 107.648 47.1386 108.008C47.0666 107.888 46.9666 107.756 46.8386 107.612C46.7186 107.476 46.5986 107.364 46.4786 107.276C47.1826 106.956 47.7626 106.576 48.2186 106.136C48.6746 105.688 49.0386 105.2 49.3106 104.672C49.5826 104.136 49.7866 103.576 49.9226 102.992C50.0586 102.408 50.1506 101.82 50.1986 101.228C50.2546 100.628 50.2946 100.044 50.3186 99.476ZM51.4706 96.884H52.3946V99.368H51.4706V96.884ZM62.7324 99.4766C62.5605 99.4766 62.4141 99.418 62.293 99.3008C62.1719 99.1836 62.1113 99.0352 62.1113 98.8555C62.1113 98.6758 62.1719 98.5273 62.293 98.4102C62.4141 98.2891 62.5605 98.2285 62.7324 98.2285C62.9082 98.2285 63.0566 98.2891 63.1777 98.4102C63.3027 98.5273 63.3652 98.6758 63.3652 98.8555C63.3652 99.0273 63.3027 99.1738 63.1777 99.2949C63.0566 99.416 62.9082 99.4766 62.7324 99.4766ZM63.2012 107H62.2402V101H63.2012V107ZM69.541 99.4883H66.2598V102.395H69.2949V103.279H66.2598V107H65.2754V98.5977H69.541V99.4883ZM74.1348 101.973C73.9668 101.844 73.7246 101.779 73.4082 101.779C72.998 101.779 72.6543 101.973 72.377 102.359C72.1035 102.746 71.9668 103.273 71.9668 103.941V107H71.0059V101H71.9668V102.236H71.9902C72.127 101.814 72.3359 101.486 72.6172 101.252C72.8984 101.014 73.2129 100.895 73.5605 100.895C73.8105 100.895 74.002 100.922 74.1348 100.977V101.973ZM79.4727 107H78.5117V106.062H78.4883C78.0703 106.781 77.4551 107.141 76.6426 107.141C76.0449 107.141 75.5762 106.982 75.2363 106.666C74.9004 106.35 74.7324 105.93 74.7324 105.406C74.7324 104.285 75.3926 103.633 76.7129 103.449L78.5117 103.197C78.5117 102.178 78.0996 101.668 77.2754 101.668C76.5527 101.668 75.9004 101.914 75.3184 102.406V101.422C75.9082 101.047 76.5879 100.859 77.3574 100.859C78.7676 100.859 79.4727 101.605 79.4727 103.098V107ZM78.5117 103.965L77.0645 104.164C76.6191 104.227 76.2832 104.338 76.0566 104.498C75.8301 104.654 75.7168 104.934 75.7168 105.336C75.7168 105.629 75.8203 105.869 76.0273 106.057C76.2383 106.24 76.5176 106.332 76.8652 106.332C77.3418 106.332 77.7344 106.166 78.043 105.834C78.3555 105.498 78.5117 105.074 78.5117 104.562V103.965ZM89.8027 107H88.8418V103.555C88.8418 102.891 88.7383 102.41 88.5312 102.113C88.3281 101.816 87.9844 101.668 87.5 101.668C87.0898 101.668 86.7402 101.855 86.4512 102.23C86.166 102.605 86.0234 103.055 86.0234 103.578V107H85.0625V103.438C85.0625 102.258 84.6074 101.668 83.6973 101.668C83.2754 101.668 82.9277 101.846 82.6543 102.201C82.3809 102.553 82.2441 103.012 82.2441 103.578V107H81.2832V101H82.2441V101.949H82.2676C82.6934 101.223 83.3145 100.859 84.1309 100.859C84.541 100.859 84.8984 100.975 85.2031 101.205C85.5078 101.432 85.7168 101.73 85.8301 102.102C86.2754 101.273 86.9395 100.859 87.8223 100.859C89.1426 100.859 89.8027 101.674 89.8027 103.303V107ZM96.4414 104.24H92.2051C92.2207 104.908 92.4004 105.424 92.7441 105.787C93.0879 106.15 93.5605 106.332 94.1621 106.332C94.8379 106.332 95.459 106.109 96.0254 105.664V106.566C95.498 106.949 94.8008 107.141 93.9336 107.141C93.0859 107.141 92.4199 106.869 91.9355 106.326C91.4512 105.779 91.209 105.012 91.209 104.023C91.209 103.09 91.4727 102.33 92 101.744C92.5312 101.154 93.1895 100.859 93.9746 100.859C94.7598 100.859 95.3672 101.113 95.7969 101.621C96.2266 102.129 96.4414 102.834 96.4414 103.736V104.24ZM95.457 103.426C95.4531 102.871 95.3184 102.439 95.0527 102.131C94.791 101.822 94.4258 101.668 93.957 101.668C93.5039 101.668 93.1191 101.83 92.8027 102.154C92.4863 102.479 92.291 102.902 92.2168 103.426H95.457ZM97.5371 106.783V105.752C98.0605 106.139 98.6367 106.332 99.2656 106.332C100.109 106.332 100.531 106.051 100.531 105.488C100.531 105.328 100.494 105.193 100.42 105.084C100.35 104.971 100.252 104.871 100.127 104.785C100.006 104.699 99.8613 104.623 99.6934 104.557C99.5293 104.486 99.3516 104.414 99.1602 104.34C98.8945 104.234 98.6602 104.129 98.457 104.023C98.2578 103.914 98.0898 103.793 97.9531 103.66C97.8203 103.523 97.7188 103.369 97.6484 103.197C97.582 103.025 97.5488 102.824 97.5488 102.594C97.5488 102.312 97.6133 102.064 97.7422 101.85C97.8711 101.631 98.043 101.449 98.2578 101.305C98.4727 101.156 98.7168 101.045 98.9902 100.971C99.2676 100.896 99.5527 100.859 99.8457 100.859C100.365 100.859 100.83 100.949 101.24 101.129V102.102C100.799 101.812 100.291 101.668 99.7168 101.668C99.5371 101.668 99.375 101.689 99.2305 101.732C99.0859 101.771 98.9609 101.828 98.8555 101.902C98.7539 101.977 98.6738 102.066 98.6152 102.172C98.5605 102.273 98.5332 102.387 98.5332 102.512C98.5332 102.668 98.5605 102.799 98.6152 102.904C98.6738 103.01 98.7578 103.104 98.8672 103.186C98.9766 103.268 99.1094 103.342 99.2656 103.408C99.4219 103.475 99.5996 103.547 99.7988 103.625C100.064 103.727 100.303 103.832 100.514 103.941C100.725 104.047 100.904 104.168 101.053 104.305C101.201 104.438 101.314 104.592 101.393 104.768C101.475 104.943 101.516 105.152 101.516 105.395C101.516 105.691 101.449 105.949 101.316 106.168C101.188 106.387 101.014 106.568 100.795 106.713C100.576 106.857 100.324 106.965 100.039 107.035C99.7539 107.105 99.4551 107.141 99.1426 107.141C98.5254 107.141 97.9902 107.021 97.5371 106.783Z" fill="#020057"/>
</g>
<defs>
<filter id="filter0_dd_3872_63027" x="0.8" y="2.38419e-07" width="146.4" height="146.4" filterUnits="userSpaceOnUse" color-interpolation-filters="sRGB">
<feFlood flood-opacity="0" result="BackgroundImageFix"/>
<feColorMatrix in="SourceAlpha" type="matrix" values="0 0 0 0 0 0 0 0 0 0 0 0 0 0 0 0 0 0 127 0" result="hardAlpha"/>
<feOffset dy="3.2"/>
<feGaussianBlur stdDeviation="3.6"/>
<feColorMatrix type="matrix" values="0 0 0 0 0.513726 0 0 0 0 0.494118 0 0 0 0 1 0 0 0 0.12 0"/>
<feBlend mode="normal" in2="BackgroundImageFix" result="effect1_dropShadow_3872_63027"/>
<feColorMatrix in="SourceAlpha" type="matrix" values="0 0 0 0 0 0 0 0 0 0 0 0 0 0 0 0 0 0 127 0" result="hardAlpha"/>
<feOffset dy="0.6"/>
<feGaussianBlur stdDeviation="0.9"/>
<feColorMatrix type="matrix" values="0 0 0 0 0.513726 0 0 0 0 0.494118 0 0 0 0 1 0 0 0 0.1 0"/>
<feBlend mode="normal" in2="effect1_dropShadow_3872_63027" result="effect2_dropShadow_3872_63027"/>
<feBlend mode="normal" in="SourceGraphic" in2="effect2_dropShadow_3872_63027" result="shape"/>
</filter>
</defs>
</svg>
