<svg width="100%" viewBox="0 0 148 147" fill="none" xmlns="http://www.w3.org/2000/svg">
<g filter="url(#filter0_dd_3872_63026)">
<rect x="8" y="4" width="132" height="132" fill="#FBFBFE"/>
<rect x="8.5" y="4.5" width="131" height="131" stroke="#827DFF" stroke-dasharray="4 4"/>
<rect width="100" height="96" transform="translate(24 22)" fill="#FBFBFE"/>
<path d="M65.4247 32.5757C65.1903 32.3414 64.8104 32.3414 64.5761 32.5757C64.3418 32.81 64.3418 33.1899 64.5761 33.4243L66.0974 34.9456C65.7833 35.4198 65.6004 35.9885 65.6004 36.6V47.4C65.6004 49.0568 66.9435 50.4 68.6004 50.4H79.4004C80.0118 50.4 80.5806 50.2171 81.0548 49.903L82.5761 51.4243C82.8104 51.6586 83.1903 51.6586 83.4247 51.4243C83.659 51.1899 83.659 50.81 83.4247 50.5757L65.4247 32.5757ZM80.1764 49.0246C79.9415 49.137 79.6783 49.2 79.4004 49.2H68.6004C67.6063 49.2 66.8004 48.3941 66.8004 47.4V38.4H69.5519L80.1764 49.0246ZM81.2004 38.4V46.6544L82.3706 47.8246C82.3902 47.6859 82.4004 47.5441 82.4004 47.4V36.6C82.4004 34.9431 81.0572 33.6 79.4004 33.6H68.6004C68.4563 33.6 68.3145 33.6102 68.1758 33.6298L72.946 38.4H81.2004Z" fill="#020057"/>
<path d="M44.4746 74.6484C43.8535 74.9766 43.0801 75.1406 42.1543 75.1406C40.959 75.1406 40.002 74.7559 39.2832 73.9863C38.5645 73.2168 38.2051 72.207 38.2051 70.957C38.2051 69.6133 38.6094 68.5273 39.418 67.6992C40.2266 66.8711 41.252 66.457 42.4941 66.457C43.291 66.457 43.9512 66.5723 44.4746 66.8027V67.8516C43.873 67.5156 43.209 67.3477 42.4824 67.3477C41.5176 67.3477 40.7344 67.6699 40.1328 68.3145C39.5352 68.959 39.2363 69.8203 39.2363 70.8984C39.2363 71.9219 39.5156 72.7383 40.0742 73.3477C40.6367 73.9531 41.373 74.2559 42.2832 74.2559C43.127 74.2559 43.8574 74.0684 44.4746 73.6934V74.6484ZM47.0176 75H46.0566V66.1172H47.0176V75ZM53.2578 75H52.2969V74.0625H52.2734C51.8555 74.7812 51.2402 75.1406 50.4277 75.1406C49.8301 75.1406 49.3613 74.9824 49.0215 74.666C48.6855 74.3496 48.5176 73.9297 48.5176 73.4062C48.5176 72.2852 49.1777 71.6328 50.498 71.4492L52.2969 71.1973C52.2969 70.1777 51.8848 69.668 51.0605 69.668C50.3379 69.668 49.6855 69.9141 49.1035 70.4062V69.4219C49.6934 69.0469 50.373 68.8594 51.1426 68.8594C52.5527 68.8594 53.2578 69.6055 53.2578 71.0977V75ZM52.2969 71.9648L50.8496 72.1641C50.4043 72.2266 50.0684 72.3379 49.8418 72.498C49.6152 72.6543 49.502 72.9336 49.502 73.3359C49.502 73.6289 49.6055 73.8691 49.8125 74.0566C50.0234 74.2402 50.3027 74.332 50.6504 74.332C51.127 74.332 51.5195 74.166 51.8281 73.834C52.1406 73.498 52.2969 73.0742 52.2969 72.5625V71.9648ZM58.1973 69.9727C58.0293 69.8438 57.7871 69.7793 57.4707 69.7793C57.0605 69.7793 56.7168 69.9727 56.4395 70.3594C56.166 70.7461 56.0293 71.2734 56.0293 71.9414V75H55.0684V69H56.0293V70.2363H56.0527C56.1895 69.8145 56.3984 69.4863 56.6797 69.252C56.9609 69.0137 57.2754 68.8945 57.623 68.8945C57.873 68.8945 58.0645 68.9219 58.1973 68.9766V69.9727ZM59.7324 67.4766C59.5605 67.4766 59.4141 67.418 59.293 67.3008C59.1719 67.1836 59.1113 67.0352 59.1113 66.8555C59.1113 66.6758 59.1719 66.5273 59.293 66.4102C59.4141 66.2891 59.5605 66.2285 59.7324 66.2285C59.9082 66.2285 60.0566 66.2891 60.1777 66.4102C60.3027 66.5273 60.3652 66.6758 60.3652 66.8555C60.3652 67.0273 60.3027 67.1738 60.1777 67.2949C60.0566 67.416 59.9082 67.4766 59.7324 67.4766ZM60.2012 75H59.2402V69H60.2012V75ZM64.9297 74.9414C64.7031 75.0664 64.4043 75.1289 64.0332 75.1289C62.9824 75.1289 62.457 74.543 62.457 73.3711V69.8203H61.4258V69H62.457V67.5352L63.418 67.2246V69H64.9297V69.8203H63.418V73.2012C63.418 73.6035 63.4863 73.8906 63.623 74.0625C63.7598 74.2344 63.9863 74.3203 64.3027 74.3203C64.5449 74.3203 64.7539 74.2539 64.9297 74.1211V74.9414ZM70.9883 69L68.2285 75.9609C67.7363 77.2031 67.0449 77.8242 66.1543 77.8242C65.9043 77.8242 65.6953 77.7988 65.5273 77.748V76.8867C65.7344 76.957 65.9238 76.9922 66.0957 76.9922C66.5801 76.9922 66.9434 76.7031 67.1855 76.125L67.666 74.9883L65.3223 69H66.3887L68.0117 73.6172C68.0312 73.6758 68.0723 73.8281 68.1348 74.0742H68.1699C68.1895 73.9805 68.2285 73.832 68.2871 73.6289L69.9922 69H70.9883ZM74.9697 69.276H85.7337V70.128H74.9697V69.276ZM75.7137 65.724H85.0497V66.588H75.7137V65.724ZM80.4897 70.632H81.4257V74.46C81.4257 74.66 81.4697 74.792 81.5577 74.856C81.6537 74.92 81.8577 74.952 82.1697 74.952C82.2417 74.952 82.3737 74.952 82.5657 74.952C82.7577 74.952 82.9697 74.952 83.2017 74.952C83.4337 74.952 83.6497 74.952 83.8497 74.952C84.0577 74.952 84.2057 74.952 84.2937 74.952C84.5017 74.952 84.6537 74.908 84.7497 74.82C84.8537 74.724 84.9257 74.54 84.9657 74.268C85.0057 73.988 85.0377 73.576 85.0617 73.032C85.1337 73.08 85.2217 73.132 85.3257 73.188C85.4297 73.236 85.5337 73.28 85.6377 73.32C85.7497 73.352 85.8457 73.38 85.9257 73.404C85.8857 74.044 85.8177 74.54 85.7217 74.892C85.6257 75.244 85.4697 75.488 85.2537 75.624C85.0457 75.768 84.7457 75.84 84.3537 75.84C84.3057 75.84 84.2017 75.84 84.0417 75.84C83.8897 75.84 83.7137 75.84 83.5137 75.84C83.3137 75.84 83.1137 75.84 82.9137 75.84C82.7137 75.84 82.5377 75.84 82.3857 75.84C82.2337 75.84 82.1337 75.84 82.0857 75.84C81.6697 75.84 81.3457 75.8 81.1137 75.72C80.8817 75.64 80.7177 75.496 80.6217 75.288C80.5337 75.088 80.4897 74.808 80.4897 74.448V70.632ZM79.7217 66.06H80.6337C80.6177 66.988 80.5857 67.876 80.5377 68.724C80.4897 69.564 80.3777 70.352 80.2017 71.088C80.0337 71.824 79.7657 72.504 79.3977 73.128C79.0297 73.744 78.5217 74.292 77.8737 74.772C77.2337 75.252 76.4097 75.656 75.4017 75.984C75.3457 75.872 75.2617 75.74 75.1497 75.588C75.0377 75.436 74.9297 75.316 74.8257 75.228C75.7937 74.924 76.5817 74.556 77.1897 74.124C77.8057 73.684 78.2817 73.18 78.6177 72.612C78.9617 72.044 79.2097 71.42 79.3617 70.74C79.5217 70.052 79.6177 69.32 79.6497 68.544C79.6897 67.76 79.7137 66.932 79.7217 66.06ZM90.0417 69.96H97.7457V70.824H90.0417V69.96ZM90.6417 66.888H97.1817V67.74H90.6417V66.888ZM93.3897 64.92H94.3137V70.572H93.3897V64.92ZM90.0537 74.496C90.5977 74.464 91.2337 74.432 91.9617 74.4C92.6977 74.36 93.4777 74.316 94.3017 74.268C95.1257 74.22 95.9497 74.172 96.7737 74.124V74.94C95.9817 75.004 95.1857 75.064 94.3857 75.12C93.5937 75.176 92.8337 75.228 92.1057 75.276C91.3857 75.324 90.7417 75.368 90.1737 75.408L90.0537 74.496ZM94.8777 72.444L95.6577 72.036C95.9617 72.388 96.2617 72.772 96.5577 73.188C96.8617 73.604 97.1377 74.016 97.3857 74.424C97.6337 74.824 97.8217 75.188 97.9497 75.516L97.1097 75.984C96.9897 75.656 96.8097 75.288 96.5697 74.88C96.3377 74.472 96.0737 74.056 95.7777 73.632C95.4817 73.2 95.1817 72.804 94.8777 72.444ZM92.5977 70.524L93.5697 70.8C93.3937 71.264 93.1977 71.752 92.9817 72.264C92.7737 72.776 92.5577 73.272 92.3337 73.752C92.1177 74.224 91.9097 74.64 91.7097 75L90.9177 74.724C91.0697 74.452 91.2217 74.14 91.3737 73.788C91.5337 73.436 91.6857 73.072 91.8297 72.696C91.9817 72.312 92.1217 71.936 92.2497 71.568C92.3857 71.2 92.5017 70.852 92.5977 70.524ZM87.4497 65.664L87.9417 65.004C88.2217 65.1 88.5097 65.22 88.8057 65.364C89.1017 65.5 89.3817 65.644 89.6457 65.796C89.9177 65.948 90.1417 66.096 90.3177 66.24L89.7897 66.984C89.6297 66.84 89.4177 66.688 89.1537 66.528C88.8897 66.368 88.6097 66.212 88.3137 66.06C88.0177 65.908 87.7297 65.776 87.4497 65.664ZM86.8137 68.976L87.2697 68.292C87.5497 68.372 87.8377 68.476 88.1337 68.604C88.4377 68.724 88.7257 68.856 88.9977 69C89.2777 69.136 89.5057 69.268 89.6817 69.396L89.1897 70.164C89.0217 70.028 88.8017 69.892 88.5297 69.756C88.2657 69.612 87.9817 69.472 87.6777 69.336C87.3817 69.192 87.0937 69.072 86.8137 68.976ZM87.2217 75.216C87.4297 74.904 87.6577 74.536 87.9057 74.112C88.1617 73.68 88.4177 73.224 88.6737 72.744C88.9377 72.264 89.1777 71.8 89.3937 71.352L90.0657 71.928C89.8657 72.352 89.6497 72.792 89.4177 73.248C89.1857 73.704 88.9457 74.152 88.6977 74.592C88.4577 75.032 88.2257 75.44 88.0017 75.816L87.2217 75.216ZM103.194 66.036H109.074V66.804H103.194V66.036ZM105.678 64.92H106.566V68.244H105.678V64.92ZM103.662 69.576L104.082 69.12C104.29 69.216 104.506 69.332 104.73 69.468C104.954 69.604 105.162 69.74 105.354 69.876C105.554 70.012 105.714 70.144 105.834 70.272L105.402 70.788C105.218 70.604 104.962 70.4 104.634 70.176C104.306 69.944 103.982 69.744 103.662 69.576ZM102.786 70.668L103.218 70.2C103.434 70.304 103.654 70.424 103.878 70.56C104.11 70.696 104.326 70.836 104.526 70.98C104.726 71.124 104.882 71.264 104.994 71.4L104.562 71.928C104.442 71.8 104.282 71.66 104.082 71.508C103.89 71.356 103.678 71.208 103.446 71.064C103.222 70.912 103.002 70.78 102.786 70.668ZM102.75 67.884H109.026V68.664H102.75V67.884ZM108.738 67.884H108.87L109.014 67.848L109.59 67.992C109.462 68.392 109.326 68.8 109.182 69.216C109.038 69.632 108.894 69.984 108.75 70.272L108.03 70.08C108.15 69.816 108.274 69.492 108.402 69.108C108.538 68.724 108.65 68.36 108.738 68.016V67.884ZM102.498 71.988H109.698V72.78H102.498V71.988ZM106.014 69.132H106.878V70.572C106.878 70.932 106.854 71.304 106.806 71.688C106.758 72.072 106.658 72.46 106.506 72.852C106.354 73.236 106.13 73.616 105.834 73.992C105.538 74.368 105.146 74.724 104.658 75.06C104.178 75.404 103.574 75.724 102.846 76.02C102.814 75.948 102.766 75.868 102.702 75.78C102.646 75.692 102.582 75.604 102.51 75.516C102.438 75.436 102.37 75.368 102.306 75.312C103.146 74.992 103.814 74.636 104.31 74.244C104.806 73.852 105.174 73.444 105.414 73.02C105.662 72.596 105.822 72.176 105.894 71.76C105.974 71.336 106.014 70.932 106.014 70.548V69.132ZM106.542 73.74L107.082 73.224C107.41 73.432 107.75 73.668 108.102 73.932C108.454 74.188 108.786 74.448 109.098 74.712C109.41 74.968 109.662 75.2 109.854 75.408L109.278 75.996C109.086 75.788 108.838 75.548 108.534 75.276C108.23 75.012 107.902 74.744 107.55 74.472C107.206 74.2 106.87 73.956 106.542 73.74ZM99.6057 65.784L100.182 65.196C100.398 65.372 100.626 65.568 100.866 65.784C101.106 65.992 101.334 66.2 101.55 66.408C101.766 66.608 101.938 66.792 102.066 66.96L101.454 67.62C101.326 67.452 101.158 67.26 100.95 67.044C100.742 66.828 100.518 66.612 100.278 66.396C100.046 66.172 99.8217 65.968 99.6057 65.784ZM100.518 75.708L100.338 74.856L100.554 74.46L102.522 72.888C102.562 73.008 102.614 73.144 102.678 73.296C102.75 73.44 102.814 73.556 102.87 73.644C102.398 74.028 102.014 74.344 101.718 74.592C101.43 74.832 101.206 75.024 101.046 75.168C100.886 75.312 100.766 75.424 100.686 75.504C100.614 75.584 100.558 75.652 100.518 75.708ZM100.518 75.72C100.486 75.656 100.438 75.584 100.374 75.504C100.318 75.424 100.258 75.344 100.194 75.264C100.138 75.192 100.086 75.132 100.038 75.084C100.11 75.028 100.19 74.948 100.278 74.844C100.366 74.732 100.442 74.604 100.506 74.46C100.57 74.308 100.602 74.132 100.602 73.932V68.688H101.442V74.592C101.442 74.592 101.394 74.636 101.298 74.724C101.202 74.804 101.094 74.904 100.974 75.024C100.854 75.152 100.746 75.276 100.65 75.396C100.562 75.524 100.518 75.632 100.518 75.72ZM98.8257 68.688H101.178V69.552H98.8257V68.688ZM62.132 82.576H66.572V83.452H62.132V82.576ZM56.576 81.664H62.432V82.516H56.576V81.664ZM57.98 84.112H61.088V84.928H57.98V84.112ZM57.98 86.608H61.088V87.424H57.98V86.608ZM66.296 82.576H66.464L66.62 82.54L67.196 82.696C67.004 84.296 66.68 85.684 66.224 86.86C65.768 88.028 65.2 89.02 64.52 89.836C63.848 90.644 63.08 91.296 62.216 91.792C62.144 91.68 62.052 91.548 61.94 91.396C61.828 91.252 61.724 91.136 61.628 91.048C62.42 90.64 63.136 90.056 63.776 89.296C64.416 88.536 64.952 87.612 65.384 86.524C65.824 85.436 66.128 84.188 66.296 82.78V82.576ZM63.224 83.5C63.44 84.652 63.744 85.724 64.136 86.716C64.528 87.708 65.016 88.58 65.6 89.332C66.192 90.076 66.9 90.66 67.724 91.084C67.66 91.14 67.588 91.212 67.508 91.3C67.428 91.388 67.352 91.476 67.28 91.564C67.208 91.66 67.148 91.748 67.1 91.828C66.228 91.34 65.484 90.7 64.868 89.908C64.26 89.108 63.752 88.184 63.344 87.136C62.944 86.08 62.616 84.924 62.36 83.668L63.224 83.5ZM57.5 81.988H58.364V89.776H57.5V81.988ZM60.716 81.988H61.592V91.936H60.716V81.988ZM56.324 89.524C56.724 89.468 57.18 89.408 57.692 89.344C58.204 89.272 58.748 89.196 59.324 89.116C59.908 89.028 60.492 88.94 61.076 88.852L61.124 89.68C60.3 89.816 59.476 89.952 58.652 90.088C57.836 90.216 57.116 90.324 56.492 90.412L56.324 89.524ZM70.592 86.188H77.444V84.976H69.548V84.208H78.332V86.944H70.592V86.188ZM70.124 86.188H71.024C70.96 86.524 70.884 86.88 70.796 87.256C70.708 87.624 70.62 87.98 70.532 88.324C70.444 88.668 70.36 88.976 70.28 89.248L69.392 89.116C69.472 88.852 69.556 88.556 69.644 88.228C69.74 87.892 69.828 87.548 69.908 87.196C69.996 86.836 70.068 86.5 70.124 86.188ZM70.256 88.06H78.356V88.828H70.028L70.256 88.06ZM78.128 88.06H79.028C79.028 88.06 79.024 88.104 79.016 88.192C79.016 88.28 79.012 88.356 79.004 88.42C78.924 89.26 78.836 89.884 78.74 90.292C78.644 90.7 78.52 90.98 78.368 91.132C78.264 91.236 78.152 91.308 78.032 91.348C77.92 91.396 77.776 91.424 77.6 91.432C77.448 91.44 77.236 91.444 76.964 91.444C76.692 91.444 76.4 91.436 76.088 91.42C76.08 91.292 76.052 91.152 76.004 91C75.964 90.84 75.908 90.704 75.836 90.592C76.124 90.624 76.396 90.644 76.652 90.652C76.916 90.66 77.1 90.66 77.204 90.652C77.308 90.652 77.392 90.648 77.456 90.64C77.528 90.624 77.588 90.596 77.636 90.556C77.74 90.452 77.828 90.224 77.9 89.872C77.98 89.52 78.056 88.952 78.128 88.168V88.06ZM73.556 84.412H74.444V91.96H73.556V84.412ZM73.316 88.288L74.024 88.612C73.744 88.956 73.412 89.288 73.028 89.608C72.652 89.92 72.244 90.212 71.804 90.484C71.364 90.756 70.912 91 70.448 91.216C69.992 91.432 69.544 91.616 69.104 91.768C69.064 91.696 69.008 91.612 68.936 91.516C68.872 91.428 68.804 91.34 68.732 91.252C68.66 91.172 68.588 91.104 68.516 91.048C68.956 90.928 69.404 90.772 69.86 90.58C70.324 90.388 70.768 90.172 71.192 89.932C71.624 89.684 72.02 89.424 72.38 89.152C72.748 88.872 73.06 88.584 73.316 88.288ZM69.956 81.964H73.832V82.684H69.956V81.964ZM74.588 81.964H79.436V82.684H74.588V81.964ZM70.208 80.86L71.048 81.088C70.904 81.48 70.728 81.868 70.52 82.252C70.312 82.628 70.088 82.984 69.848 83.32C69.616 83.648 69.38 83.936 69.14 84.184C69.084 84.136 69.012 84.084 68.924 84.028C68.836 83.964 68.744 83.904 68.648 83.848C68.552 83.784 68.468 83.732 68.396 83.692C68.772 83.34 69.12 82.916 69.44 82.42C69.76 81.916 70.016 81.396 70.208 80.86ZM74.936 80.86L75.788 81.076C75.564 81.676 75.264 82.244 74.888 82.78C74.512 83.308 74.12 83.756 73.712 84.124C73.664 84.076 73.592 84.02 73.496 83.956C73.408 83.892 73.316 83.828 73.22 83.764C73.132 83.7 73.048 83.648 72.968 83.608C73.392 83.272 73.776 82.868 74.12 82.396C74.464 81.916 74.736 81.404 74.936 80.86ZM70.628 82.516L71.384 82.24C71.52 82.48 71.652 82.748 71.78 83.044C71.916 83.34 72.012 83.592 72.068 83.8L71.276 84.112C71.228 83.896 71.14 83.64 71.012 83.344C70.892 83.048 70.764 82.772 70.628 82.516ZM75.656 82.504L76.4 82.24C76.608 82.472 76.812 82.74 77.012 83.044C77.212 83.34 77.36 83.6 77.456 83.824L76.664 84.136C76.584 83.912 76.448 83.648 76.256 83.344C76.064 83.04 75.864 82.76 75.656 82.504ZM81.476 82.084H90.548V82.996H81.476V82.084ZM82.244 86.008H89.612V86.908H82.244V86.008ZM80.78 90.172H91.208V91.084H80.78V90.172ZM49.1594 98.996H59.8994V99.86H49.1594V98.996ZM53.0834 101.828H57.8714V102.692H53.0834V101.828ZM57.5474 101.828H58.4834C58.4834 101.828 58.4794 101.856 58.4714 101.912C58.4714 101.968 58.4674 102.032 58.4594 102.104C58.4594 102.168 58.4554 102.224 58.4474 102.272C58.3674 103.416 58.2834 104.348 58.1954 105.068C58.1074 105.78 58.0074 106.328 57.8954 106.712C57.7834 107.096 57.6474 107.368 57.4874 107.528C57.3514 107.672 57.2034 107.772 57.0434 107.828C56.8834 107.884 56.6874 107.92 56.4554 107.936C56.2474 107.952 55.9594 107.956 55.5914 107.948C55.2234 107.94 54.8394 107.924 54.4394 107.9C54.4314 107.772 54.3954 107.624 54.3314 107.456C54.2754 107.296 54.2034 107.152 54.1154 107.024C54.5474 107.056 54.9554 107.076 55.3394 107.084C55.7234 107.1 55.9914 107.108 56.1434 107.108C56.2794 107.108 56.3914 107.1 56.4794 107.084C56.5754 107.068 56.6554 107.028 56.7194 106.964C56.8474 106.852 56.9594 106.616 57.0554 106.256C57.1514 105.888 57.2394 105.36 57.3194 104.672C57.3994 103.976 57.4754 103.08 57.5474 101.984V101.828ZM52.8674 99.476H53.8754C53.8434 100.116 53.7914 100.764 53.7194 101.42C53.6474 102.068 53.5314 102.712 53.3714 103.352C53.2194 103.984 52.9914 104.588 52.6874 105.164C52.3914 105.74 51.9994 106.268 51.5114 106.748C51.0234 107.228 50.4154 107.648 49.6874 108.008C49.6154 107.888 49.5154 107.756 49.3874 107.612C49.2674 107.476 49.1474 107.364 49.0274 107.276C49.7314 106.956 50.3114 106.576 50.7674 106.136C51.2234 105.688 51.5874 105.2 51.8594 104.672C52.1314 104.136 52.3354 103.576 52.4714 102.992C52.6074 102.408 52.6994 101.82 52.7474 101.228C52.8034 100.628 52.8434 100.044 52.8674 99.476ZM54.0194 96.884H54.9434V99.368H54.0194V96.884ZM65.2812 99.4766C65.1094 99.4766 64.9629 99.418 64.8418 99.3008C64.7207 99.1836 64.6602 99.0352 64.6602 98.8555C64.6602 98.6758 64.7207 98.5273 64.8418 98.4102C64.9629 98.2891 65.1094 98.2285 65.2812 98.2285C65.457 98.2285 65.6055 98.2891 65.7266 98.4102C65.8516 98.5273 65.9141 98.6758 65.9141 98.8555C65.9141 99.0273 65.8516 99.1738 65.7266 99.2949C65.6055 99.416 65.457 99.4766 65.2812 99.4766ZM65.75 107H64.7891V101H65.75V107ZM72.0898 99.4883H68.8086V102.395H71.8438V103.279H68.8086V107H67.8242V98.5977H72.0898V99.4883ZM76.6836 101.973C76.5156 101.844 76.2734 101.779 75.957 101.779C75.5469 101.779 75.2031 101.973 74.9258 102.359C74.6523 102.746 74.5156 103.273 74.5156 103.941V107H73.5547V101H74.5156V102.236H74.5391C74.6758 101.814 74.8848 101.486 75.166 101.252C75.4473 101.014 75.7617 100.895 76.1094 100.895C76.3594 100.895 76.5508 100.922 76.6836 100.977V101.973ZM82.0215 107H81.0605V106.062H81.0371C80.6191 106.781 80.0039 107.141 79.1914 107.141C78.5938 107.141 78.125 106.982 77.7852 106.666C77.4492 106.35 77.2812 105.93 77.2812 105.406C77.2812 104.285 77.9414 103.633 79.2617 103.449L81.0605 103.197C81.0605 102.178 80.6484 101.668 79.8242 101.668C79.1016 101.668 78.4492 101.914 77.8672 102.406V101.422C78.457 101.047 79.1367 100.859 79.9062 100.859C81.3164 100.859 82.0215 101.605 82.0215 103.098V107ZM81.0605 103.965L79.6133 104.164C79.168 104.227 78.832 104.338 78.6055 104.498C78.3789 104.654 78.2656 104.934 78.2656 105.336C78.2656 105.629 78.3691 105.869 78.5762 106.057C78.7871 106.24 79.0664 106.332 79.4141 106.332C79.8906 106.332 80.2832 106.166 80.5918 105.834C80.9043 105.498 81.0605 105.074 81.0605 104.562V103.965ZM92.3516 107H91.3906V103.555C91.3906 102.891 91.2871 102.41 91.0801 102.113C90.877 101.816 90.5332 101.668 90.0488 101.668C89.6387 101.668 89.2891 101.855 89 102.23C88.7148 102.605 88.5723 103.055 88.5723 103.578V107H87.6113V103.438C87.6113 102.258 87.1562 101.668 86.2461 101.668C85.8242 101.668 85.4766 101.846 85.2031 102.201C84.9297 102.553 84.793 103.012 84.793 103.578V107H83.832V101H84.793V101.949H84.8164C85.2422 101.223 85.8633 100.859 86.6797 100.859C87.0898 100.859 87.4473 100.975 87.752 101.205C88.0566 101.432 88.2656 101.73 88.3789 102.102C88.8242 101.273 89.4883 100.859 90.3711 100.859C91.6914 100.859 92.3516 101.674 92.3516 103.303V107ZM98.9902 104.24H94.7539C94.7695 104.908 94.9492 105.424 95.293 105.787C95.6367 106.15 96.1094 106.332 96.7109 106.332C97.3867 106.332 98.0078 106.109 98.5742 105.664V106.566C98.0469 106.949 97.3496 107.141 96.4824 107.141C95.6348 107.141 94.9688 106.869 94.4844 106.326C94 105.779 93.7578 105.012 93.7578 104.023C93.7578 103.09 94.0215 102.33 94.5488 101.744C95.0801 101.154 95.7383 100.859 96.5234 100.859C97.3086 100.859 97.916 101.113 98.3457 101.621C98.7754 102.129 98.9902 102.834 98.9902 103.736V104.24ZM98.0059 103.426C98.002 102.871 97.8672 102.439 97.6016 102.131C97.3398 101.822 96.9746 101.668 96.5059 101.668C96.0527 101.668 95.668 101.83 95.3516 102.154C95.0352 102.479 94.8398 102.902 94.7656 103.426H98.0059Z" fill="#020057"/>
</g>
<defs>
<filter id="filter0_dd_3872_63026" x="0.8" y="2.38419e-07" width="146.4" height="146.4" filterUnits="userSpaceOnUse" color-interpolation-filters="sRGB">
<feFlood flood-opacity="0" result="BackgroundImageFix"/>
<feColorMatrix in="SourceAlpha" type="matrix" values="0 0 0 0 0 0 0 0 0 0 0 0 0 0 0 0 0 0 127 0" result="hardAlpha"/>
<feOffset dy="3.2"/>
<feGaussianBlur stdDeviation="3.6"/>
<feColorMatrix type="matrix" values="0 0 0 0 0.513726 0 0 0 0 0.494118 0 0 0 0 1 0 0 0 0.12 0"/>
<feBlend mode="normal" in2="BackgroundImageFix" result="effect1_dropShadow_3872_63026"/>
<feColorMatrix in="SourceAlpha" type="matrix" values="0 0 0 0 0 0 0 0 0 0 0 0 0 0 0 0 0 0 127 0" result="hardAlpha"/>
<feOffset dy="0.6"/>
<feGaussianBlur stdDeviation="0.9"/>
<feColorMatrix type="matrix" values="0 0 0 0 0.513726 0 0 0 0 0.494118 0 0 0 0 1 0 0 0 0.1 0"/>
<feBlend mode="normal" in2="effect1_dropShadow_3872_63026" result="effect2_dropShadow_3872_63026"/>
<feBlend mode="normal" in="SourceGraphic" in2="effect2_dropShadow_3872_63026" result="shape"/>
</filter>
</defs>
</svg>
