<svg width="100" height="96" viewBox="0 0 100 96" fill="none" xmlns="http://www.w3.org/2000/svg">
<rect width="100" height="96" fill="#FBFBFE"/>
<path d="M41.4247 10.5757C41.1903 10.3414 40.8104 10.3414 40.5761 10.5757C40.3418 10.81 40.3418 11.1899 40.5761 11.4243L42.0974 12.9456C41.7833 13.4198 41.6004 13.9885 41.6004 14.6V25.4C41.6004 27.0568 42.9435 28.4 44.6004 28.4H55.4004C56.0118 28.4 56.5806 28.2171 57.0548 27.903L58.5761 29.4243C58.8104 29.6586 59.1903 29.6586 59.4247 29.4243C59.659 29.1899 59.659 28.81 59.4247 28.5757L41.4247 10.5757ZM56.1764 27.0246C55.9415 27.137 55.6783 27.2 55.4004 27.2H44.6004C43.6063 27.2 42.8004 26.3941 42.8004 25.4V16.4H45.5519L56.1764 27.0246ZM57.2004 16.4V24.6544L58.3706 25.8246C58.3902 25.6859 58.4004 25.5441 58.4004 25.4V14.6C58.4004 12.9431 57.0572 11.6 55.4004 11.6H44.6004C44.4563 11.6 44.3145 11.6102 44.1758 11.6298L48.946 16.4H57.2004Z" fill="#020057"/>
<path d="M20.4746 52.6484C19.8535 52.9766 19.0801 53.1406 18.1543 53.1406C16.959 53.1406 16.002 52.7559 15.2832 51.9863C14.5645 51.2168 14.2051 50.207 14.2051 48.957C14.2051 47.6133 14.6094 46.5273 15.418 45.6992C16.2266 44.8711 17.252 44.457 18.4941 44.457C19.291 44.457 19.9512 44.5723 20.4746 44.8027V45.8516C19.873 45.5156 19.209 45.3477 18.4824 45.3477C17.5176 45.3477 16.7344 45.6699 16.1328 46.3145C15.5352 46.959 15.2363 47.8203 15.2363 48.8984C15.2363 49.9219 15.5156 50.7383 16.0742 51.3477C16.6367 51.9531 17.373 52.2559 18.2832 52.2559C19.127 52.2559 19.8574 52.0684 20.4746 51.6934V52.6484ZM23.0176 53H22.0566V44.1172H23.0176V53ZM29.2578 53H28.2969V52.0625H28.2734C27.8555 52.7812 27.2402 53.1406 26.4277 53.1406C25.8301 53.1406 25.3613 52.9824 25.0215 52.666C24.6855 52.3496 24.5176 51.9297 24.5176 51.4062C24.5176 50.2852 25.1777 49.6328 26.498 49.4492L28.2969 49.1973C28.2969 48.1777 27.8848 47.668 27.0605 47.668C26.3379 47.668 25.6855 47.9141 25.1035 48.4062V47.4219C25.6934 47.0469 26.373 46.8594 27.1426 46.8594C28.5527 46.8594 29.2578 47.6055 29.2578 49.0977V53ZM28.2969 49.9648L26.8496 50.1641C26.4043 50.2266 26.0684 50.3379 25.8418 50.498C25.6152 50.6543 25.502 50.9336 25.502 51.3359C25.502 51.6289 25.6055 51.8691 25.8125 52.0566C26.0234 52.2402 26.3027 52.332 26.6504 52.332C27.127 52.332 27.5195 52.166 27.8281 51.834C28.1406 51.498 28.2969 51.0742 28.2969 50.5625V49.9648ZM34.1973 47.9727C34.0293 47.8438 33.7871 47.7793 33.4707 47.7793C33.0605 47.7793 32.7168 47.9727 32.4395 48.3594C32.166 48.7461 32.0293 49.2734 32.0293 49.9414V53H31.0684V47H32.0293V48.2363H32.0527C32.1895 47.8145 32.3984 47.4863 32.6797 47.252C32.9609 47.0137 33.2754 46.8945 33.623 46.8945C33.873 46.8945 34.0645 46.9219 34.1973 46.9766V47.9727ZM35.7324 45.4766C35.5605 45.4766 35.4141 45.418 35.293 45.3008C35.1719 45.1836 35.1113 45.0352 35.1113 44.8555C35.1113 44.6758 35.1719 44.5273 35.293 44.4102C35.4141 44.2891 35.5605 44.2285 35.7324 44.2285C35.9082 44.2285 36.0566 44.2891 36.1777 44.4102C36.3027 44.5273 36.3652 44.6758 36.3652 44.8555C36.3652 45.0273 36.3027 45.1738 36.1777 45.2949C36.0566 45.416 35.9082 45.4766 35.7324 45.4766ZM36.2012 53H35.2402V47H36.2012V53ZM40.9297 52.9414C40.7031 53.0664 40.4043 53.1289 40.0332 53.1289C38.9824 53.1289 38.457 52.543 38.457 51.3711V47.8203H37.4258V47H38.457V45.5352L39.418 45.2246V47H40.9297V47.8203H39.418V51.2012C39.418 51.6035 39.4863 51.8906 39.623 52.0625C39.7598 52.2344 39.9863 52.3203 40.3027 52.3203C40.5449 52.3203 40.7539 52.2539 40.9297 52.1211V52.9414ZM46.9883 47L44.2285 53.9609C43.7363 55.2031 43.0449 55.8242 42.1543 55.8242C41.9043 55.8242 41.6953 55.7988 41.5273 55.748V54.8867C41.7344 54.957 41.9238 54.9922 42.0957 54.9922C42.5801 54.9922 42.9434 54.7031 43.1855 54.125L43.666 52.9883L41.3223 47H42.3887L44.0117 51.6172C44.0312 51.6758 44.0723 51.8281 44.1348 52.0742H44.1699C44.1895 51.9805 44.2285 51.832 44.2871 51.6289L45.9922 47H46.9883ZM53.4177 42.92L54.2937 43.172C54.0777 43.62 53.8217 44.06 53.5257 44.492C53.2297 44.916 52.9137 45.312 52.5777 45.68C52.2497 46.048 51.9177 46.372 51.5817 46.652C51.5337 46.596 51.4617 46.532 51.3657 46.46C51.2777 46.38 51.1857 46.304 51.0897 46.232C51.0017 46.16 50.9217 46.104 50.8497 46.064C51.3617 45.68 51.8457 45.212 52.3017 44.66C52.7577 44.108 53.1297 43.528 53.4177 42.92ZM52.9977 44.3H61.2657V45.116H52.6977L52.9977 44.3ZM50.9937 47.132H61.7097V47.96H50.9937V47.132ZM51.1737 50H61.5537V50.828H51.1737V50ZM54.8097 44.576H55.6017V50.396H54.8097V44.576ZM52.6737 44.576H53.4777V50.432H52.6737V44.576ZM56.9817 44.576H57.7617V50.432H56.9817V44.576ZM59.1777 44.576H60.0177V50.432H59.1777V44.576ZM54.4857 51.644L55.3137 51.56C55.3937 51.912 55.4617 52.292 55.5177 52.7C55.5737 53.108 55.6057 53.452 55.6137 53.732L54.7377 53.852C54.7377 53.66 54.7257 53.436 54.7017 53.18C54.6857 52.932 54.6577 52.672 54.6177 52.4C54.5857 52.128 54.5417 51.876 54.4857 51.644ZM56.9337 51.644L57.7737 51.488C57.8857 51.72 57.9937 51.972 58.0977 52.244C58.2017 52.508 58.2937 52.764 58.3737 53.012C58.4537 53.26 58.5137 53.48 58.5537 53.672L57.6657 53.864C57.6097 53.576 57.5137 53.224 57.3777 52.808C57.2417 52.392 57.0937 52.004 56.9337 51.644ZM59.3817 51.56L60.2337 51.284C60.4337 51.516 60.6377 51.776 60.8457 52.064C61.0537 52.352 61.2457 52.636 61.4217 52.916C61.6057 53.188 61.7497 53.436 61.8537 53.66L60.9657 53.984C60.8697 53.768 60.7337 53.52 60.5577 53.24C60.3897 52.96 60.2017 52.672 59.9937 52.376C59.7857 52.08 59.5817 51.808 59.3817 51.56ZM52.3857 51.332L53.2497 51.548C53.0897 51.996 52.8817 52.44 52.6257 52.88C52.3697 53.32 52.0777 53.684 51.7497 53.972L50.9097 53.624C51.2217 53.368 51.5097 53.032 51.7737 52.616C52.0377 52.2 52.2417 51.772 52.3857 51.332ZM66.0417 47.96H73.7457V48.824H66.0417V47.96ZM66.6417 44.888H73.1817V45.74H66.6417V44.888ZM69.3897 42.92H70.3137V48.572H69.3897V42.92ZM66.0537 52.496C66.5977 52.464 67.2337 52.432 67.9617 52.4C68.6977 52.36 69.4777 52.316 70.3017 52.268C71.1257 52.22 71.9497 52.172 72.7737 52.124V52.94C71.9817 53.004 71.1857 53.064 70.3857 53.12C69.5937 53.176 68.8337 53.228 68.1057 53.276C67.3857 53.324 66.7417 53.368 66.1737 53.408L66.0537 52.496ZM70.8777 50.444L71.6577 50.036C71.9617 50.388 72.2617 50.772 72.5577 51.188C72.8617 51.604 73.1377 52.016 73.3857 52.424C73.6337 52.824 73.8217 53.188 73.9497 53.516L73.1097 53.984C72.9897 53.656 72.8097 53.288 72.5697 52.88C72.3377 52.472 72.0737 52.056 71.7777 51.632C71.4817 51.2 71.1817 50.804 70.8777 50.444ZM68.5977 48.524L69.5697 48.8C69.3937 49.264 69.1977 49.752 68.9817 50.264C68.7737 50.776 68.5577 51.272 68.3337 51.752C68.1177 52.224 67.9097 52.64 67.7097 53L66.9177 52.724C67.0697 52.452 67.2217 52.14 67.3737 51.788C67.5337 51.436 67.6857 51.072 67.8297 50.696C67.9817 50.312 68.1217 49.936 68.2497 49.568C68.3857 49.2 68.5017 48.852 68.5977 48.524ZM63.4497 43.664L63.9417 43.004C64.2217 43.1 64.5097 43.22 64.8057 43.364C65.1017 43.5 65.3817 43.644 65.6457 43.796C65.9177 43.948 66.1417 44.096 66.3177 44.24L65.7897 44.984C65.6297 44.84 65.4177 44.688 65.1537 44.528C64.8897 44.368 64.6097 44.212 64.3137 44.06C64.0177 43.908 63.7297 43.776 63.4497 43.664ZM62.8137 46.976L63.2697 46.292C63.5497 46.372 63.8377 46.476 64.1337 46.604C64.4377 46.724 64.7257 46.856 64.9977 47C65.2777 47.136 65.5057 47.268 65.6817 47.396L65.1897 48.164C65.0217 48.028 64.8017 47.892 64.5297 47.756C64.2657 47.612 63.9817 47.472 63.6777 47.336C63.3817 47.192 63.0937 47.072 62.8137 46.976ZM63.2217 53.216C63.4297 52.904 63.6577 52.536 63.9057 52.112C64.1617 51.68 64.4177 51.224 64.6737 50.744C64.9377 50.264 65.1777 49.8 65.3937 49.352L66.0657 49.928C65.8657 50.352 65.6497 50.792 65.4177 51.248C65.1857 51.704 64.9457 52.152 64.6977 52.592C64.4577 53.032 64.2257 53.44 64.0017 53.816L63.2217 53.216ZM79.0497 43.58H85.6857V44.204H79.0497V43.58ZM79.4697 44.792H85.3497V45.38H79.4697V44.792ZM81.8337 42.92H82.7097V45.104H81.8337V42.92ZM82.6977 46.124H83.3097V46.664C83.3097 46.76 83.3257 46.82 83.3577 46.844C83.3977 46.868 83.4857 46.88 83.6217 46.88C83.6617 46.88 83.7457 46.88 83.8737 46.88C84.0097 46.88 84.1457 46.88 84.2817 46.88C84.4177 46.88 84.5137 46.88 84.5697 46.88C84.6657 46.88 84.7297 46.88 84.7617 46.88C84.7937 46.872 84.8137 46.86 84.8217 46.844C84.8857 46.876 84.9657 46.908 85.0617 46.94C85.1577 46.964 85.2457 46.984 85.3257 47C85.3017 47.112 85.2417 47.192 85.1457 47.24C85.0497 47.288 84.8937 47.312 84.6777 47.312C84.6457 47.312 84.5737 47.312 84.4617 47.312C84.3577 47.312 84.2417 47.312 84.1137 47.312C83.9857 47.312 83.8697 47.312 83.7657 47.312C83.6617 47.312 83.5937 47.312 83.5617 47.312C83.2177 47.312 82.9857 47.272 82.8657 47.192C82.7537 47.112 82.6977 46.936 82.6977 46.664V46.124ZM81.3417 46.148H81.9177C81.9097 46.42 81.8577 46.648 81.7617 46.832C81.6657 47.008 81.4937 47.148 81.2457 47.252C81.0057 47.356 80.6617 47.432 80.2137 47.48C80.1897 47.416 80.1497 47.34 80.0937 47.252C80.0457 47.164 79.9937 47.096 79.9377 47.048C80.3217 47.016 80.6097 46.972 80.8017 46.916C81.0017 46.852 81.1417 46.76 81.2217 46.64C81.3017 46.52 81.3417 46.356 81.3417 46.148ZM79.8657 46.4V47.732H84.8217V46.4H79.8657ZM79.1337 45.872H85.6017V48.26H79.1337V45.872ZM80.3097 50.192V50.72H84.4257V50.192H80.3097ZM80.3097 51.152V51.692H84.4257V51.152H80.3097ZM80.3097 49.244V49.748H84.4257V49.244H80.3097ZM79.4817 48.692H85.2777V52.232H79.4817V48.692ZM82.8897 52.688L83.4537 52.208C83.7497 52.336 84.0537 52.476 84.3657 52.628C84.6777 52.78 84.9737 52.928 85.2537 53.072C85.5337 53.224 85.7777 53.36 85.9857 53.48L85.2537 53.972C85.0697 53.852 84.8457 53.716 84.5817 53.564C84.3177 53.42 84.0417 53.272 83.7537 53.12C83.4657 52.968 83.1777 52.824 82.8897 52.688ZM80.9457 52.232L81.7017 52.664C81.4697 52.832 81.2017 53 80.8977 53.168C80.5937 53.336 80.2777 53.488 79.9497 53.624C79.6297 53.76 79.3217 53.876 79.0257 53.972C78.9537 53.892 78.8617 53.792 78.7497 53.672C78.6377 53.56 78.5337 53.472 78.4377 53.408C78.7497 53.312 79.0657 53.2 79.3857 53.072C79.7057 52.944 80.0017 52.808 80.2737 52.664C80.5537 52.512 80.7777 52.368 80.9457 52.232ZM75.2937 46.556H78.3777V47.264H75.2937V46.556ZM75.3777 43.34H78.3537V44.06H75.3777V43.34ZM75.2937 48.152H78.3777V48.872H75.2937V48.152ZM74.8017 44.912H78.6897V45.668H74.8017V44.912ZM75.7137 49.772H78.3657V53.264H75.7137V52.52H77.6217V50.516H75.7137V49.772ZM75.2817 49.772H76.0257V53.828H75.2817V49.772ZM38.132 60.576H42.572V61.452H38.132V60.576ZM32.576 59.664H38.432V60.516H32.576V59.664ZM33.98 62.112H37.088V62.928H33.98V62.112ZM33.98 64.608H37.088V65.424H33.98V64.608ZM42.296 60.576H42.464L42.62 60.54L43.196 60.696C43.004 62.296 42.68 63.684 42.224 64.86C41.768 66.028 41.2 67.02 40.52 67.836C39.848 68.644 39.08 69.296 38.216 69.792C38.144 69.68 38.052 69.548 37.94 69.396C37.828 69.252 37.724 69.136 37.628 69.048C38.42 68.64 39.136 68.056 39.776 67.296C40.416 66.536 40.952 65.612 41.384 64.524C41.824 63.436 42.128 62.188 42.296 60.78V60.576ZM39.224 61.5C39.44 62.652 39.744 63.724 40.136 64.716C40.528 65.708 41.016 66.58 41.6 67.332C42.192 68.076 42.9 68.66 43.724 69.084C43.66 69.14 43.588 69.212 43.508 69.3C43.428 69.388 43.352 69.476 43.28 69.564C43.208 69.66 43.148 69.748 43.1 69.828C42.228 69.34 41.484 68.7 40.868 67.908C40.26 67.108 39.752 66.184 39.344 65.136C38.944 64.08 38.616 62.924 38.36 61.668L39.224 61.5ZM33.5 59.988H34.364V67.776H33.5V59.988ZM36.716 59.988H37.592V69.936H36.716V59.988ZM32.324 67.524C32.724 67.468 33.18 67.408 33.692 67.344C34.204 67.272 34.748 67.196 35.324 67.116C35.908 67.028 36.492 66.94 37.076 66.852L37.124 67.68C36.3 67.816 35.476 67.952 34.652 68.088C33.836 68.216 33.116 68.324 32.492 68.412L32.324 67.524ZM46.592 64.188H53.444V62.976H45.548V62.208H54.332V64.944H46.592V64.188ZM46.124 64.188H47.024C46.96 64.524 46.884 64.88 46.796 65.256C46.708 65.624 46.62 65.98 46.532 66.324C46.444 66.668 46.36 66.976 46.28 67.248L45.392 67.116C45.472 66.852 45.556 66.556 45.644 66.228C45.74 65.892 45.828 65.548 45.908 65.196C45.996 64.836 46.068 64.5 46.124 64.188ZM46.256 66.06H54.356V66.828H46.028L46.256 66.06ZM54.128 66.06H55.028C55.028 66.06 55.024 66.104 55.016 66.192C55.016 66.28 55.012 66.356 55.004 66.42C54.924 67.26 54.836 67.884 54.74 68.292C54.644 68.7 54.52 68.98 54.368 69.132C54.264 69.236 54.152 69.308 54.032 69.348C53.92 69.396 53.776 69.424 53.6 69.432C53.448 69.44 53.236 69.444 52.964 69.444C52.692 69.444 52.4 69.436 52.088 69.42C52.08 69.292 52.052 69.152 52.004 69C51.964 68.84 51.908 68.704 51.836 68.592C52.124 68.624 52.396 68.644 52.652 68.652C52.916 68.66 53.1 68.66 53.204 68.652C53.308 68.652 53.392 68.648 53.456 68.64C53.528 68.624 53.588 68.596 53.636 68.556C53.74 68.452 53.828 68.224 53.9 67.872C53.98 67.52 54.056 66.952 54.128 66.168V66.06ZM49.556 62.412H50.444V69.96H49.556V62.412ZM49.316 66.288L50.024 66.612C49.744 66.956 49.412 67.288 49.028 67.608C48.652 67.92 48.244 68.212 47.804 68.484C47.364 68.756 46.912 69 46.448 69.216C45.992 69.432 45.544 69.616 45.104 69.768C45.064 69.696 45.008 69.612 44.936 69.516C44.872 69.428 44.804 69.34 44.732 69.252C44.66 69.172 44.588 69.104 44.516 69.048C44.956 68.928 45.404 68.772 45.86 68.58C46.324 68.388 46.768 68.172 47.192 67.932C47.624 67.684 48.02 67.424 48.38 67.152C48.748 66.872 49.06 66.584 49.316 66.288ZM45.956 59.964H49.832V60.684H45.956V59.964ZM50.588 59.964H55.436V60.684H50.588V59.964ZM46.208 58.86L47.048 59.088C46.904 59.48 46.728 59.868 46.52 60.252C46.312 60.628 46.088 60.984 45.848 61.32C45.616 61.648 45.38 61.936 45.14 62.184C45.084 62.136 45.012 62.084 44.924 62.028C44.836 61.964 44.744 61.904 44.648 61.848C44.552 61.784 44.468 61.732 44.396 61.692C44.772 61.34 45.12 60.916 45.44 60.42C45.76 59.916 46.016 59.396 46.208 58.86ZM50.936 58.86L51.788 59.076C51.564 59.676 51.264 60.244 50.888 60.78C50.512 61.308 50.12 61.756 49.712 62.124C49.664 62.076 49.592 62.02 49.496 61.956C49.408 61.892 49.316 61.828 49.22 61.764C49.132 61.7 49.048 61.648 48.968 61.608C49.392 61.272 49.776 60.868 50.12 60.396C50.464 59.916 50.736 59.404 50.936 58.86ZM46.628 60.516L47.384 60.24C47.52 60.48 47.652 60.748 47.78 61.044C47.916 61.34 48.012 61.592 48.068 61.8L47.276 62.112C47.228 61.896 47.14 61.64 47.012 61.344C46.892 61.048 46.764 60.772 46.628 60.516ZM51.656 60.504L52.4 60.24C52.608 60.472 52.812 60.74 53.012 61.044C53.212 61.34 53.36 61.6 53.456 61.824L52.664 62.136C52.584 61.912 52.448 61.648 52.256 61.344C52.064 61.04 51.864 60.76 51.656 60.504ZM57.476 60.084H66.548V60.996H57.476V60.084ZM58.244 64.008H65.612V64.908H58.244V64.008ZM56.78 68.172H67.208V69.084H56.78V68.172ZM22.6106 76.996H33.3506V77.86H22.6106V76.996ZM26.5346 79.828H31.3226V80.692H26.5346V79.828ZM30.9986 79.828H31.9346C31.9346 79.828 31.9306 79.856 31.9226 79.912C31.9226 79.968 31.9186 80.032 31.9106 80.104C31.9106 80.168 31.9066 80.224 31.8986 80.272C31.8186 81.416 31.7346 82.348 31.6466 83.068C31.5586 83.78 31.4586 84.328 31.3466 84.712C31.2346 85.096 31.0986 85.368 30.9386 85.528C30.8026 85.672 30.6546 85.772 30.4946 85.828C30.3346 85.884 30.1386 85.92 29.9066 85.936C29.6986 85.952 29.4106 85.956 29.0426 85.948C28.6746 85.94 28.2906 85.924 27.8906 85.9C27.8826 85.772 27.8466 85.624 27.7826 85.456C27.7266 85.296 27.6546 85.152 27.5666 85.024C27.9986 85.056 28.4066 85.076 28.7906 85.084C29.1746 85.1 29.4426 85.108 29.5946 85.108C29.7306 85.108 29.8426 85.1 29.9306 85.084C30.0266 85.068 30.1066 85.028 30.1706 84.964C30.2986 84.852 30.4106 84.616 30.5066 84.256C30.6026 83.888 30.6906 83.36 30.7706 82.672C30.8506 81.976 30.9266 81.08 30.9986 79.984V79.828ZM26.3186 77.476H27.3266C27.2946 78.116 27.2426 78.764 27.1706 79.42C27.0986 80.068 26.9826 80.712 26.8226 81.352C26.6706 81.984 26.4426 82.588 26.1386 83.164C25.8426 83.74 25.4506 84.268 24.9626 84.748C24.4746 85.228 23.8666 85.648 23.1386 86.008C23.0666 85.888 22.9666 85.756 22.8386 85.612C22.7186 85.476 22.5986 85.364 22.4786 85.276C23.1826 84.956 23.7626 84.576 24.2186 84.136C24.6746 83.688 25.0386 83.2 25.3106 82.672C25.5826 82.136 25.7866 81.576 25.9226 80.992C26.0586 80.408 26.1506 79.82 26.1986 79.228C26.2546 78.628 26.2946 78.044 26.3186 77.476ZM27.4706 74.884H28.3946V77.368H27.4706V74.884ZM38.7324 77.4766C38.5605 77.4766 38.4141 77.418 38.293 77.3008C38.1719 77.1836 38.1113 77.0352 38.1113 76.8555C38.1113 76.6758 38.1719 76.5273 38.293 76.4102C38.4141 76.2891 38.5605 76.2285 38.7324 76.2285C38.9082 76.2285 39.0566 76.2891 39.1777 76.4102C39.3027 76.5273 39.3652 76.6758 39.3652 76.8555C39.3652 77.0273 39.3027 77.1738 39.1777 77.2949C39.0566 77.416 38.9082 77.4766 38.7324 77.4766ZM39.2012 85H38.2402V79H39.2012V85ZM45.541 77.4883H42.2598V80.3945H45.2949V81.2793H42.2598V85H41.2754V76.5977H45.541V77.4883ZM50.1348 79.9727C49.9668 79.8438 49.7246 79.7793 49.4082 79.7793C48.998 79.7793 48.6543 79.9727 48.377 80.3594C48.1035 80.7461 47.9668 81.2734 47.9668 81.9414V85H47.0059V79H47.9668V80.2363H47.9902C48.127 79.8145 48.3359 79.4863 48.6172 79.252C48.8984 79.0137 49.2129 78.8945 49.5605 78.8945C49.8105 78.8945 50.002 78.9219 50.1348 78.9766V79.9727ZM55.4727 85H54.5117V84.0625H54.4883C54.0703 84.7812 53.4551 85.1406 52.6426 85.1406C52.0449 85.1406 51.5762 84.9824 51.2363 84.666C50.9004 84.3496 50.7324 83.9297 50.7324 83.4062C50.7324 82.2852 51.3926 81.6328 52.7129 81.4492L54.5117 81.1973C54.5117 80.1777 54.0996 79.668 53.2754 79.668C52.5527 79.668 51.9004 79.9141 51.3184 80.4062V79.4219C51.9082 79.0469 52.5879 78.8594 53.3574 78.8594C54.7676 78.8594 55.4727 79.6055 55.4727 81.0977V85ZM54.5117 81.9648L53.0645 82.1641C52.6191 82.2266 52.2832 82.3379 52.0566 82.498C51.8301 82.6543 51.7168 82.9336 51.7168 83.3359C51.7168 83.6289 51.8203 83.8691 52.0273 84.0566C52.2383 84.2402 52.5176 84.332 52.8652 84.332C53.3418 84.332 53.7344 84.166 54.043 83.834C54.3555 83.498 54.5117 83.0742 54.5117 82.5625V81.9648ZM65.8027 85H64.8418V81.5547C64.8418 80.8906 64.7383 80.4102 64.5312 80.1133C64.3281 79.8164 63.9844 79.668 63.5 79.668C63.0898 79.668 62.7402 79.8555 62.4512 80.2305C62.166 80.6055 62.0234 81.0547 62.0234 81.5781V85H61.0625V81.4375C61.0625 80.2578 60.6074 79.668 59.6973 79.668C59.2754 79.668 58.9277 79.8457 58.6543 80.2012C58.3809 80.5527 58.2441 81.0117 58.2441 81.5781V85H57.2832V79H58.2441V79.9492H58.2676C58.6934 79.2227 59.3145 78.8594 60.1309 78.8594C60.541 78.8594 60.8984 78.9746 61.2031 79.2051C61.5078 79.4316 61.7168 79.7305 61.8301 80.1016C62.2754 79.2734 62.9395 78.8594 63.8223 78.8594C65.1426 78.8594 65.8027 79.6738 65.8027 81.3027V85ZM72.4414 82.2402H68.2051C68.2207 82.9082 68.4004 83.4238 68.7441 83.7871C69.0879 84.1504 69.5605 84.332 70.1621 84.332C70.8379 84.332 71.459 84.1094 72.0254 83.6641V84.5664C71.498 84.9492 70.8008 85.1406 69.9336 85.1406C69.0859 85.1406 68.4199 84.8691 67.9355 84.3262C67.4512 83.7793 67.209 83.0117 67.209 82.0234C67.209 81.0898 67.4727 80.3301 68 79.7441C68.5312 79.1543 69.1895 78.8594 69.9746 78.8594C70.7598 78.8594 71.3672 79.1133 71.7969 79.6211C72.2266 80.1289 72.4414 80.834 72.4414 81.7363V82.2402ZM71.457 81.4258C71.4531 80.8711 71.3184 80.4395 71.0527 80.1309C70.791 79.8223 70.4258 79.668 69.957 79.668C69.5039 79.668 69.1191 79.8301 68.8027 80.1543C68.4863 80.4785 68.291 80.9023 68.2168 81.4258H71.457ZM73.5371 84.7832V83.752C74.0605 84.1387 74.6367 84.332 75.2656 84.332C76.1094 84.332 76.5312 84.0508 76.5312 83.4883C76.5312 83.3281 76.4941 83.1934 76.4199 83.084C76.3496 82.9707 76.252 82.8711 76.127 82.7852C76.0059 82.6992 75.8613 82.623 75.6934 82.5566C75.5293 82.4863 75.3516 82.4141 75.1602 82.3398C74.8945 82.2344 74.6602 82.1289 74.457 82.0234C74.2578 81.9141 74.0898 81.793 73.9531 81.6602C73.8203 81.5234 73.7188 81.3691 73.6484 81.1973C73.582 81.0254 73.5488 80.8242 73.5488 80.5938C73.5488 80.3125 73.6133 80.0645 73.7422 79.8496C73.8711 79.6309 74.043 79.4492 74.2578 79.3047C74.4727 79.1562 74.7168 79.0449 74.9902 78.9707C75.2676 78.8965 75.5527 78.8594 75.8457 78.8594C76.3652 78.8594 76.8301 78.9492 77.2402 79.1289V80.1016C76.7988 79.8125 76.291 79.668 75.7168 79.668C75.5371 79.668 75.375 79.6895 75.2305 79.7324C75.0859 79.7715 74.9609 79.8281 74.8555 79.9023C74.7539 79.9766 74.6738 80.0664 74.6152 80.1719C74.5605 80.2734 74.5332 80.3867 74.5332 80.5117C74.5332 80.668 74.5605 80.7988 74.6152 80.9043C74.6738 81.0098 74.7578 81.1035 74.8672 81.1855C74.9766 81.2676 75.1094 81.3418 75.2656 81.4082C75.4219 81.4746 75.5996 81.5469 75.7988 81.625C76.0645 81.7266 76.3027 81.832 76.5137 81.9414C76.7246 82.0469 76.9043 82.168 77.0527 82.3047C77.2012 82.4375 77.3145 82.5918 77.3926 82.7676C77.4746 82.9434 77.5156 83.1523 77.5156 83.3945C77.5156 83.6914 77.4492 83.9492 77.3164 84.168C77.1875 84.3867 77.0137 84.5684 76.7949 84.7129C76.5762 84.8574 76.3242 84.9648 76.0391 85.0352C75.7539 85.1055 75.4551 85.1406 75.1426 85.1406C74.5254 85.1406 73.9902 85.0215 73.5371 84.7832Z" fill="#020057"/>
</svg>
