<svg width="100%" viewBox="0 0 100 96" fill="none" xmlns="http://www.w3.org/2000/svg">
<rect width="100" height="96" fill="#FBFBFE"/>
<path d="M41.4247 10.5757C41.1903 10.3414 40.8104 10.3414 40.5761 10.5757C40.3418 10.81 40.3418 11.1899 40.5761 11.4243L42.0974 12.9456C41.7833 13.4198 41.6004 13.9885 41.6004 14.6V25.4C41.6004 27.0568 42.9435 28.4 44.6004 28.4H55.4004C56.0118 28.4 56.5806 28.2171 57.0548 27.903L58.5761 29.4243C58.8104 29.6586 59.1903 29.6586 59.4247 29.4243C59.659 29.1899 59.659 28.81 59.4247 28.5757L41.4247 10.5757ZM56.1764 27.0246C55.9415 27.137 55.6783 27.2 55.4004 27.2H44.6004C43.6063 27.2 42.8004 26.3941 42.8004 25.4V16.4H45.5519L56.1764 27.0246ZM57.2004 16.4V24.6544L58.3706 25.8246C58.3902 25.6859 58.4004 25.5441 58.4004 25.4V14.6C58.4004 12.9431 57.0572 11.6 55.4004 11.6H44.6004C44.4563 11.6 44.3145 11.6102 44.1758 11.6298L48.946 16.4H57.2004Z" fill="#020057"/>
<path d="M20.4746 52.6484C19.8535 52.9766 19.0801 53.1406 18.1543 53.1406C16.959 53.1406 16.002 52.7559 15.2832 51.9863C14.5645 51.2168 14.2051 50.207 14.2051 48.957C14.2051 47.6133 14.6094 46.5273 15.418 45.6992C16.2266 44.8711 17.252 44.457 18.4941 44.457C19.291 44.457 19.9512 44.5723 20.4746 44.8027V45.8516C19.873 45.5156 19.209 45.3477 18.4824 45.3477C17.5176 45.3477 16.7344 45.6699 16.1328 46.3145C15.5352 46.959 15.2363 47.8203 15.2363 48.8984C15.2363 49.9219 15.5156 50.7383 16.0742 51.3477C16.6367 51.9531 17.373 52.2559 18.2832 52.2559C19.127 52.2559 19.8574 52.0684 20.4746 51.6934V52.6484ZM23.0176 53H22.0566V44.1172H23.0176V53ZM29.2578 53H28.2969V52.0625H28.2734C27.8555 52.7812 27.2402 53.1406 26.4277 53.1406C25.8301 53.1406 25.3613 52.9824 25.0215 52.666C24.6855 52.3496 24.5176 51.9297 24.5176 51.4062C24.5176 50.2852 25.1777 49.6328 26.498 49.4492L28.2969 49.1973C28.2969 48.1777 27.8848 47.668 27.0605 47.668C26.3379 47.668 25.6855 47.9141 25.1035 48.4062V47.4219C25.6934 47.0469 26.373 46.8594 27.1426 46.8594C28.5527 46.8594 29.2578 47.6055 29.2578 49.0977V53ZM28.2969 49.9648L26.8496 50.1641C26.4043 50.2266 26.0684 50.3379 25.8418 50.498C25.6152 50.6543 25.502 50.9336 25.502 51.3359C25.502 51.6289 25.6055 51.8691 25.8125 52.0566C26.0234 52.2402 26.3027 52.332 26.6504 52.332C27.127 52.332 27.5195 52.166 27.8281 51.834C28.1406 51.498 28.2969 51.0742 28.2969 50.5625V49.9648ZM34.1973 47.9727C34.0293 47.8438 33.7871 47.7793 33.4707 47.7793C33.0605 47.7793 32.7168 47.9727 32.4395 48.3594C32.166 48.7461 32.0293 49.2734 32.0293 49.9414V53H31.0684V47H32.0293V48.2363H32.0527C32.1895 47.8145 32.3984 47.4863 32.6797 47.252C32.9609 47.0137 33.2754 46.8945 33.623 46.8945C33.873 46.8945 34.0645 46.9219 34.1973 46.9766V47.9727ZM35.7324 45.4766C35.5605 45.4766 35.4141 45.418 35.293 45.3008C35.1719 45.1836 35.1113 45.0352 35.1113 44.8555C35.1113 44.6758 35.1719 44.5273 35.293 44.4102C35.4141 44.2891 35.5605 44.2285 35.7324 44.2285C35.9082 44.2285 36.0566 44.2891 36.1777 44.4102C36.3027 44.5273 36.3652 44.6758 36.3652 44.8555C36.3652 45.0273 36.3027 45.1738 36.1777 45.2949C36.0566 45.416 35.9082 45.4766 35.7324 45.4766ZM36.2012 53H35.2402V47H36.2012V53ZM40.9297 52.9414C40.7031 53.0664 40.4043 53.1289 40.0332 53.1289C38.9824 53.1289 38.457 52.543 38.457 51.3711V47.8203H37.4258V47H38.457V45.5352L39.418 45.2246V47H40.9297V47.8203H39.418V51.2012C39.418 51.6035 39.4863 51.8906 39.623 52.0625C39.7598 52.2344 39.9863 52.3203 40.3027 52.3203C40.5449 52.3203 40.7539 52.2539 40.9297 52.1211V52.9414ZM46.9883 47L44.2285 53.9609C43.7363 55.2031 43.0449 55.8242 42.1543 55.8242C41.9043 55.8242 41.6953 55.7988 41.5273 55.748V54.8867C41.7344 54.957 41.9238 54.9922 42.0957 54.9922C42.5801 54.9922 42.9434 54.7031 43.1855 54.125L43.666 52.9883L41.3223 47H42.3887L44.0117 51.6172C44.0312 51.6758 44.0723 51.8281 44.1348 52.0742H44.1699C44.1895 51.9805 44.2285 51.832 44.2871 51.6289L45.9922 47H46.9883ZM50.9697 47.276H61.7337V48.128H50.9697V47.276ZM51.7137 43.724H61.0497V44.588H51.7137V43.724ZM56.4897 48.632H57.4257V52.46C57.4257 52.66 57.4697 52.792 57.5577 52.856C57.6537 52.92 57.8577 52.952 58.1697 52.952C58.2417 52.952 58.3737 52.952 58.5657 52.952C58.7577 52.952 58.9697 52.952 59.2017 52.952C59.4337 52.952 59.6497 52.952 59.8497 52.952C60.0577 52.952 60.2057 52.952 60.2937 52.952C60.5017 52.952 60.6537 52.908 60.7497 52.82C60.8537 52.724 60.9257 52.54 60.9657 52.268C61.0057 51.988 61.0377 51.576 61.0617 51.032C61.1337 51.08 61.2217 51.132 61.3257 51.188C61.4297 51.236 61.5337 51.28 61.6377 51.32C61.7497 51.352 61.8457 51.38 61.9257 51.404C61.8857 52.044 61.8177 52.54 61.7217 52.892C61.6257 53.244 61.4697 53.488 61.2537 53.624C61.0457 53.768 60.7457 53.84 60.3537 53.84C60.3057 53.84 60.2017 53.84 60.0417 53.84C59.8897 53.84 59.7137 53.84 59.5137 53.84C59.3137 53.84 59.1137 53.84 58.9137 53.84C58.7137 53.84 58.5377 53.84 58.3857 53.84C58.2337 53.84 58.1337 53.84 58.0857 53.84C57.6697 53.84 57.3457 53.8 57.1137 53.72C56.8817 53.64 56.7177 53.496 56.6217 53.288C56.5337 53.088 56.4897 52.808 56.4897 52.448V48.632ZM55.7217 44.06H56.6337C56.6177 44.988 56.5857 45.876 56.5377 46.724C56.4897 47.564 56.3777 48.352 56.2017 49.088C56.0337 49.824 55.7657 50.504 55.3977 51.128C55.0297 51.744 54.5217 52.292 53.8737 52.772C53.2337 53.252 52.4097 53.656 51.4017 53.984C51.3457 53.872 51.2617 53.74 51.1497 53.588C51.0377 53.436 50.9297 53.316 50.8257 53.228C51.7937 52.924 52.5817 52.556 53.1897 52.124C53.8057 51.684 54.2817 51.18 54.6177 50.612C54.9617 50.044 55.2097 49.42 55.3617 48.74C55.5217 48.052 55.6177 47.32 55.6497 46.544C55.6897 45.76 55.7137 44.932 55.7217 44.06ZM66.0417 47.96H73.7457V48.824H66.0417V47.96ZM66.6417 44.888H73.1817V45.74H66.6417V44.888ZM69.3897 42.92H70.3137V48.572H69.3897V42.92ZM66.0537 52.496C66.5977 52.464 67.2337 52.432 67.9617 52.4C68.6977 52.36 69.4777 52.316 70.3017 52.268C71.1257 52.22 71.9497 52.172 72.7737 52.124V52.94C71.9817 53.004 71.1857 53.064 70.3857 53.12C69.5937 53.176 68.8337 53.228 68.1057 53.276C67.3857 53.324 66.7417 53.368 66.1737 53.408L66.0537 52.496ZM70.8777 50.444L71.6577 50.036C71.9617 50.388 72.2617 50.772 72.5577 51.188C72.8617 51.604 73.1377 52.016 73.3857 52.424C73.6337 52.824 73.8217 53.188 73.9497 53.516L73.1097 53.984C72.9897 53.656 72.8097 53.288 72.5697 52.88C72.3377 52.472 72.0737 52.056 71.7777 51.632C71.4817 51.2 71.1817 50.804 70.8777 50.444ZM68.5977 48.524L69.5697 48.8C69.3937 49.264 69.1977 49.752 68.9817 50.264C68.7737 50.776 68.5577 51.272 68.3337 51.752C68.1177 52.224 67.9097 52.64 67.7097 53L66.9177 52.724C67.0697 52.452 67.2217 52.14 67.3737 51.788C67.5337 51.436 67.6857 51.072 67.8297 50.696C67.9817 50.312 68.1217 49.936 68.2497 49.568C68.3857 49.2 68.5017 48.852 68.5977 48.524ZM63.4497 43.664L63.9417 43.004C64.2217 43.1 64.5097 43.22 64.8057 43.364C65.1017 43.5 65.3817 43.644 65.6457 43.796C65.9177 43.948 66.1417 44.096 66.3177 44.24L65.7897 44.984C65.6297 44.84 65.4177 44.688 65.1537 44.528C64.8897 44.368 64.6097 44.212 64.3137 44.06C64.0177 43.908 63.7297 43.776 63.4497 43.664ZM62.8137 46.976L63.2697 46.292C63.5497 46.372 63.8377 46.476 64.1337 46.604C64.4377 46.724 64.7257 46.856 64.9977 47C65.2777 47.136 65.5057 47.268 65.6817 47.396L65.1897 48.164C65.0217 48.028 64.8017 47.892 64.5297 47.756C64.2657 47.612 63.9817 47.472 63.6777 47.336C63.3817 47.192 63.0937 47.072 62.8137 46.976ZM63.2217 53.216C63.4297 52.904 63.6577 52.536 63.9057 52.112C64.1617 51.68 64.4177 51.224 64.6737 50.744C64.9377 50.264 65.1777 49.8 65.3937 49.352L66.0657 49.928C65.8657 50.352 65.6497 50.792 65.4177 51.248C65.1857 51.704 64.9457 52.152 64.6977 52.592C64.4577 53.032 64.2257 53.44 64.0017 53.816L63.2217 53.216ZM79.1937 44.036H85.0737V44.804H79.1937V44.036ZM81.6777 42.92H82.5657V46.244H81.6777V42.92ZM79.6617 47.576L80.0817 47.12C80.2897 47.216 80.5057 47.332 80.7297 47.468C80.9537 47.604 81.1617 47.74 81.3537 47.876C81.5537 48.012 81.7137 48.144 81.8337 48.272L81.4017 48.788C81.2177 48.604 80.9617 48.4 80.6337 48.176C80.3057 47.944 79.9817 47.744 79.6617 47.576ZM78.7857 48.668L79.2177 48.2C79.4337 48.304 79.6537 48.424 79.8777 48.56C80.1097 48.696 80.3257 48.836 80.5257 48.98C80.7257 49.124 80.8817 49.264 80.9937 49.4L80.5617 49.928C80.4417 49.8 80.2817 49.66 80.0817 49.508C79.8897 49.356 79.6777 49.208 79.4457 49.064C79.2217 48.912 79.0017 48.78 78.7857 48.668ZM78.7497 45.884H85.0257V46.664H78.7497V45.884ZM84.7377 45.884H84.8697L85.0137 45.848L85.5897 45.992C85.4617 46.392 85.3257 46.8 85.1817 47.216C85.0377 47.632 84.8937 47.984 84.7497 48.272L84.0297 48.08C84.1497 47.816 84.2737 47.492 84.4017 47.108C84.5377 46.724 84.6497 46.36 84.7377 46.016V45.884ZM78.4977 49.988H85.6977V50.78H78.4977V49.988ZM82.0137 47.132H82.8777V48.572C82.8777 48.932 82.8537 49.304 82.8057 49.688C82.7577 50.072 82.6577 50.46 82.5057 50.852C82.3537 51.236 82.1297 51.616 81.8337 51.992C81.5377 52.368 81.1457 52.724 80.6577 53.06C80.1777 53.404 79.5737 53.724 78.8457 54.02C78.8137 53.948 78.7657 53.868 78.7017 53.78C78.6457 53.692 78.5817 53.604 78.5097 53.516C78.4377 53.436 78.3697 53.368 78.3057 53.312C79.1457 52.992 79.8137 52.636 80.3097 52.244C80.8057 51.852 81.1737 51.444 81.4137 51.02C81.6617 50.596 81.8217 50.176 81.8937 49.76C81.9737 49.336 82.0137 48.932 82.0137 48.548V47.132ZM82.5417 51.74L83.0817 51.224C83.4097 51.432 83.7497 51.668 84.1017 51.932C84.4537 52.188 84.7857 52.448 85.0977 52.712C85.4097 52.968 85.6617 53.2 85.8537 53.408L85.2777 53.996C85.0857 53.788 84.8377 53.548 84.5337 53.276C84.2297 53.012 83.9017 52.744 83.5497 52.472C83.2057 52.2 82.8697 51.956 82.5417 51.74ZM75.6057 43.784L76.1817 43.196C76.3977 43.372 76.6257 43.568 76.8657 43.784C77.1057 43.992 77.3337 44.2 77.5497 44.408C77.7657 44.608 77.9377 44.792 78.0657 44.96L77.4537 45.62C77.3257 45.452 77.1577 45.26 76.9497 45.044C76.7417 44.828 76.5177 44.612 76.2777 44.396C76.0457 44.172 75.8217 43.968 75.6057 43.784ZM76.5177 53.708L76.3377 52.856L76.5537 52.46L78.5217 50.888C78.5617 51.008 78.6137 51.144 78.6777 51.296C78.7497 51.44 78.8137 51.556 78.8697 51.644C78.3977 52.028 78.0137 52.344 77.7177 52.592C77.4297 52.832 77.2057 53.024 77.0457 53.168C76.8857 53.312 76.7657 53.424 76.6857 53.504C76.6137 53.584 76.5577 53.652 76.5177 53.708ZM76.5177 53.72C76.4857 53.656 76.4377 53.584 76.3737 53.504C76.3177 53.424 76.2577 53.344 76.1937 53.264C76.1377 53.192 76.0857 53.132 76.0377 53.084C76.1097 53.028 76.1897 52.948 76.2777 52.844C76.3657 52.732 76.4417 52.604 76.5057 52.46C76.5697 52.308 76.6017 52.132 76.6017 51.932V46.688H77.4417V52.592C77.4417 52.592 77.3937 52.636 77.2977 52.724C77.2017 52.804 77.0937 52.904 76.9737 53.024C76.8537 53.152 76.7457 53.276 76.6497 53.396C76.5617 53.524 76.5177 53.632 76.5177 53.72ZM74.8257 46.688H77.1777V47.552H74.8257V46.688ZM38.132 60.576H42.572V61.452H38.132V60.576ZM32.576 59.664H38.432V60.516H32.576V59.664ZM33.98 62.112H37.088V62.928H33.98V62.112ZM33.98 64.608H37.088V65.424H33.98V64.608ZM42.296 60.576H42.464L42.62 60.54L43.196 60.696C43.004 62.296 42.68 63.684 42.224 64.86C41.768 66.028 41.2 67.02 40.52 67.836C39.848 68.644 39.08 69.296 38.216 69.792C38.144 69.68 38.052 69.548 37.94 69.396C37.828 69.252 37.724 69.136 37.628 69.048C38.42 68.64 39.136 68.056 39.776 67.296C40.416 66.536 40.952 65.612 41.384 64.524C41.824 63.436 42.128 62.188 42.296 60.78V60.576ZM39.224 61.5C39.44 62.652 39.744 63.724 40.136 64.716C40.528 65.708 41.016 66.58 41.6 67.332C42.192 68.076 42.9 68.66 43.724 69.084C43.66 69.14 43.588 69.212 43.508 69.3C43.428 69.388 43.352 69.476 43.28 69.564C43.208 69.66 43.148 69.748 43.1 69.828C42.228 69.34 41.484 68.7 40.868 67.908C40.26 67.108 39.752 66.184 39.344 65.136C38.944 64.08 38.616 62.924 38.36 61.668L39.224 61.5ZM33.5 59.988H34.364V67.776H33.5V59.988ZM36.716 59.988H37.592V69.936H36.716V59.988ZM32.324 67.524C32.724 67.468 33.18 67.408 33.692 67.344C34.204 67.272 34.748 67.196 35.324 67.116C35.908 67.028 36.492 66.94 37.076 66.852L37.124 67.68C36.3 67.816 35.476 67.952 34.652 68.088C33.836 68.216 33.116 68.324 32.492 68.412L32.324 67.524ZM46.592 64.188H53.444V62.976H45.548V62.208H54.332V64.944H46.592V64.188ZM46.124 64.188H47.024C46.96 64.524 46.884 64.88 46.796 65.256C46.708 65.624 46.62 65.98 46.532 66.324C46.444 66.668 46.36 66.976 46.28 67.248L45.392 67.116C45.472 66.852 45.556 66.556 45.644 66.228C45.74 65.892 45.828 65.548 45.908 65.196C45.996 64.836 46.068 64.5 46.124 64.188ZM46.256 66.06H54.356V66.828H46.028L46.256 66.06ZM54.128 66.06H55.028C55.028 66.06 55.024 66.104 55.016 66.192C55.016 66.28 55.012 66.356 55.004 66.42C54.924 67.26 54.836 67.884 54.74 68.292C54.644 68.7 54.52 68.98 54.368 69.132C54.264 69.236 54.152 69.308 54.032 69.348C53.92 69.396 53.776 69.424 53.6 69.432C53.448 69.44 53.236 69.444 52.964 69.444C52.692 69.444 52.4 69.436 52.088 69.42C52.08 69.292 52.052 69.152 52.004 69C51.964 68.84 51.908 68.704 51.836 68.592C52.124 68.624 52.396 68.644 52.652 68.652C52.916 68.66 53.1 68.66 53.204 68.652C53.308 68.652 53.392 68.648 53.456 68.64C53.528 68.624 53.588 68.596 53.636 68.556C53.74 68.452 53.828 68.224 53.9 67.872C53.98 67.52 54.056 66.952 54.128 66.168V66.06ZM49.556 62.412H50.444V69.96H49.556V62.412ZM49.316 66.288L50.024 66.612C49.744 66.956 49.412 67.288 49.028 67.608C48.652 67.92 48.244 68.212 47.804 68.484C47.364 68.756 46.912 69 46.448 69.216C45.992 69.432 45.544 69.616 45.104 69.768C45.064 69.696 45.008 69.612 44.936 69.516C44.872 69.428 44.804 69.34 44.732 69.252C44.66 69.172 44.588 69.104 44.516 69.048C44.956 68.928 45.404 68.772 45.86 68.58C46.324 68.388 46.768 68.172 47.192 67.932C47.624 67.684 48.02 67.424 48.38 67.152C48.748 66.872 49.06 66.584 49.316 66.288ZM45.956 59.964H49.832V60.684H45.956V59.964ZM50.588 59.964H55.436V60.684H50.588V59.964ZM46.208 58.86L47.048 59.088C46.904 59.48 46.728 59.868 46.52 60.252C46.312 60.628 46.088 60.984 45.848 61.32C45.616 61.648 45.38 61.936 45.14 62.184C45.084 62.136 45.012 62.084 44.924 62.028C44.836 61.964 44.744 61.904 44.648 61.848C44.552 61.784 44.468 61.732 44.396 61.692C44.772 61.34 45.12 60.916 45.44 60.42C45.76 59.916 46.016 59.396 46.208 58.86ZM50.936 58.86L51.788 59.076C51.564 59.676 51.264 60.244 50.888 60.78C50.512 61.308 50.12 61.756 49.712 62.124C49.664 62.076 49.592 62.02 49.496 61.956C49.408 61.892 49.316 61.828 49.22 61.764C49.132 61.7 49.048 61.648 48.968 61.608C49.392 61.272 49.776 60.868 50.12 60.396C50.464 59.916 50.736 59.404 50.936 58.86ZM46.628 60.516L47.384 60.24C47.52 60.48 47.652 60.748 47.78 61.044C47.916 61.34 48.012 61.592 48.068 61.8L47.276 62.112C47.228 61.896 47.14 61.64 47.012 61.344C46.892 61.048 46.764 60.772 46.628 60.516ZM51.656 60.504L52.4 60.24C52.608 60.472 52.812 60.74 53.012 61.044C53.212 61.34 53.36 61.6 53.456 61.824L52.664 62.136C52.584 61.912 52.448 61.648 52.256 61.344C52.064 61.04 51.864 60.76 51.656 60.504ZM57.476 60.084H66.548V60.996H57.476V60.084ZM58.244 64.008H65.612V64.908H58.244V64.008ZM56.78 68.172H67.208V69.084H56.78V68.172ZM25.1594 76.996H35.8994V77.86H25.1594V76.996ZM29.0834 79.828H33.8714V80.692H29.0834V79.828ZM33.5474 79.828H34.4834C34.4834 79.828 34.4794 79.856 34.4714 79.912C34.4714 79.968 34.4674 80.032 34.4594 80.104C34.4594 80.168 34.4554 80.224 34.4474 80.272C34.3674 81.416 34.2834 82.348 34.1954 83.068C34.1074 83.78 34.0074 84.328 33.8954 84.712C33.7834 85.096 33.6474 85.368 33.4874 85.528C33.3514 85.672 33.2034 85.772 33.0434 85.828C32.8834 85.884 32.6874 85.92 32.4554 85.936C32.2474 85.952 31.9594 85.956 31.5914 85.948C31.2234 85.94 30.8394 85.924 30.4394 85.9C30.4314 85.772 30.3954 85.624 30.3314 85.456C30.2754 85.296 30.2034 85.152 30.1154 85.024C30.5474 85.056 30.9554 85.076 31.3394 85.084C31.7234 85.1 31.9914 85.108 32.1434 85.108C32.2794 85.108 32.3914 85.1 32.4794 85.084C32.5754 85.068 32.6554 85.028 32.7194 84.964C32.8474 84.852 32.9594 84.616 33.0554 84.256C33.1514 83.888 33.2394 83.36 33.3194 82.672C33.3994 81.976 33.4754 81.08 33.5474 79.984V79.828ZM28.8674 77.476H29.8754C29.8434 78.116 29.7914 78.764 29.7194 79.42C29.6474 80.068 29.5314 80.712 29.3714 81.352C29.2194 81.984 28.9914 82.588 28.6874 83.164C28.3914 83.74 27.9994 84.268 27.5114 84.748C27.0234 85.228 26.4154 85.648 25.6874 86.008C25.6154 85.888 25.5154 85.756 25.3874 85.612C25.2674 85.476 25.1474 85.364 25.0274 85.276C25.7314 84.956 26.3114 84.576 26.7674 84.136C27.2234 83.688 27.5874 83.2 27.8594 82.672C28.1314 82.136 28.3354 81.576 28.4714 80.992C28.6074 80.408 28.6994 79.82 28.7474 79.228C28.8034 78.628 28.8434 78.044 28.8674 77.476ZM30.0194 74.884H30.9434V77.368H30.0194V74.884ZM41.2812 77.4766C41.1094 77.4766 40.9629 77.418 40.8418 77.3008C40.7207 77.1836 40.6602 77.0352 40.6602 76.8555C40.6602 76.6758 40.7207 76.5273 40.8418 76.4102C40.9629 76.2891 41.1094 76.2285 41.2812 76.2285C41.457 76.2285 41.6055 76.2891 41.7266 76.4102C41.8516 76.5273 41.9141 76.6758 41.9141 76.8555C41.9141 77.0273 41.8516 77.1738 41.7266 77.2949C41.6055 77.416 41.457 77.4766 41.2812 77.4766ZM41.75 85H40.7891V79H41.75V85ZM48.0898 77.4883H44.8086V80.3945H47.8438V81.2793H44.8086V85H43.8242V76.5977H48.0898V77.4883ZM52.6836 79.9727C52.5156 79.8438 52.2734 79.7793 51.957 79.7793C51.5469 79.7793 51.2031 79.9727 50.9258 80.3594C50.6523 80.7461 50.5156 81.2734 50.5156 81.9414V85H49.5547V79H50.5156V80.2363H50.5391C50.6758 79.8145 50.8848 79.4863 51.166 79.252C51.4473 79.0137 51.7617 78.8945 52.1094 78.8945C52.3594 78.8945 52.5508 78.9219 52.6836 78.9766V79.9727ZM58.0215 85H57.0605V84.0625H57.0371C56.6191 84.7812 56.0039 85.1406 55.1914 85.1406C54.5938 85.1406 54.125 84.9824 53.7852 84.666C53.4492 84.3496 53.2812 83.9297 53.2812 83.4062C53.2812 82.2852 53.9414 81.6328 55.2617 81.4492L57.0605 81.1973C57.0605 80.1777 56.6484 79.668 55.8242 79.668C55.1016 79.668 54.4492 79.9141 53.8672 80.4062V79.4219C54.457 79.0469 55.1367 78.8594 55.9062 78.8594C57.3164 78.8594 58.0215 79.6055 58.0215 81.0977V85ZM57.0605 81.9648L55.6133 82.1641C55.168 82.2266 54.832 82.3379 54.6055 82.498C54.3789 82.6543 54.2656 82.9336 54.2656 83.3359C54.2656 83.6289 54.3691 83.8691 54.5762 84.0566C54.7871 84.2402 55.0664 84.332 55.4141 84.332C55.8906 84.332 56.2832 84.166 56.5918 83.834C56.9043 83.498 57.0605 83.0742 57.0605 82.5625V81.9648ZM68.3516 85H67.3906V81.5547C67.3906 80.8906 67.2871 80.4102 67.0801 80.1133C66.877 79.8164 66.5332 79.668 66.0488 79.668C65.6387 79.668 65.2891 79.8555 65 80.2305C64.7148 80.6055 64.5723 81.0547 64.5723 81.5781V85H63.6113V81.4375C63.6113 80.2578 63.1562 79.668 62.2461 79.668C61.8242 79.668 61.4766 79.8457 61.2031 80.2012C60.9297 80.5527 60.793 81.0117 60.793 81.5781V85H59.832V79H60.793V79.9492H60.8164C61.2422 79.2227 61.8633 78.8594 62.6797 78.8594C63.0898 78.8594 63.4473 78.9746 63.752 79.2051C64.0566 79.4316 64.2656 79.7305 64.3789 80.1016C64.8242 79.2734 65.4883 78.8594 66.3711 78.8594C67.6914 78.8594 68.3516 79.6738 68.3516 81.3027V85ZM74.9902 82.2402H70.7539C70.7695 82.9082 70.9492 83.4238 71.293 83.7871C71.6367 84.1504 72.1094 84.332 72.7109 84.332C73.3867 84.332 74.0078 84.1094 74.5742 83.6641V84.5664C74.0469 84.9492 73.3496 85.1406 72.4824 85.1406C71.6348 85.1406 70.9688 84.8691 70.4844 84.3262C70 83.7793 69.7578 83.0117 69.7578 82.0234C69.7578 81.0898 70.0215 80.3301 70.5488 79.7441C71.0801 79.1543 71.7383 78.8594 72.5234 78.8594C73.3086 78.8594 73.916 79.1133 74.3457 79.6211C74.7754 80.1289 74.9902 80.834 74.9902 81.7363V82.2402ZM74.0059 81.4258C74.002 80.8711 73.8672 80.4395 73.6016 80.1309C73.3398 79.8223 72.9746 79.668 72.5059 79.668C72.0527 79.668 71.668 79.8301 71.3516 80.1543C71.0352 80.4785 70.8398 80.9023 70.7656 81.4258H74.0059Z" fill="#020057"/>
</svg>
