<svg width="100%" viewBox="0 0 148 147" fill="none" xmlns="http://www.w3.org/2000/svg">
<g filter="url(#filter0_dd_3872_63022)">
<rect x="8" y="4" width="132" height="132" fill="#FBFBFE"/>
<rect x="8.5" y="4.5" width="131" height="131" stroke="#827DFF" stroke-dasharray="4 4"/>
<rect width="100" height="112" transform="translate(24 14)" fill="#FBFBFE"/>
<path d="M65.4247 24.5758C65.1903 24.3414 64.8104 24.3414 64.5761 24.5758C64.3418 24.8101 64.3418 25.19 64.5761 25.4243L66.0974 26.9456C65.7833 27.4199 65.6004 27.9886 65.6004 28.6V39.4C65.6004 41.0569 66.9435 42.4 68.6004 42.4H79.4004C80.0118 42.4 80.5806 42.2171 81.0548 41.903L82.5761 43.4243C82.8104 43.6586 83.1903 43.6586 83.4247 43.4243C83.659 43.19 83.659 42.8101 83.4247 42.5758L65.4247 24.5758ZM80.1764 41.0246C79.9415 41.1371 79.6783 41.2 79.4004 41.2H68.6004C67.6063 41.2 66.8004 40.3941 66.8004 39.4V30.4H69.5519L80.1764 41.0246ZM81.2004 30.4V38.6544L82.3706 39.8246C82.3902 39.6859 82.4004 39.5442 82.4004 39.4V28.6C82.4004 26.9432 81.0572 25.6 79.4004 25.6H68.6004C68.4563 25.6 68.3145 25.6102 68.1758 25.6298L72.946 30.4H81.2004Z" fill="#020057"/>
<path d="M53.041 66.6484C52.4199 66.9766 51.6465 67.1406 50.7207 67.1406C49.5254 67.1406 48.5684 66.7559 47.8496 65.9863C47.1309 65.2168 46.7715 64.207 46.7715 62.957C46.7715 61.6133 47.1758 60.5273 47.9844 59.6992C48.793 58.8711 49.8184 58.457 51.0605 58.457C51.8574 58.457 52.5176 58.5723 53.041 58.8027V59.8516C52.4395 59.5156 51.7754 59.3477 51.0488 59.3477C50.084 59.3477 49.3008 59.6699 48.6992 60.3145C48.1016 60.959 47.8027 61.8203 47.8027 62.8984C47.8027 63.9219 48.082 64.7383 48.6406 65.3477C49.2031 65.9531 49.9395 66.2559 50.8496 66.2559C51.6934 66.2559 52.4238 66.0684 53.041 65.6934V66.6484ZM55.584 67H54.623V58.1172H55.584V67ZM61.8242 67H60.8633V66.0625H60.8398C60.4219 66.7812 59.8066 67.1406 58.9941 67.1406C58.3965 67.1406 57.9277 66.9824 57.5879 66.666C57.252 66.3496 57.084 65.9297 57.084 65.4062C57.084 64.2852 57.7441 63.6328 59.0645 63.4492L60.8633 63.1973C60.8633 62.1777 60.4512 61.668 59.627 61.668C58.9043 61.668 58.252 61.9141 57.6699 62.4062V61.4219C58.2598 61.0469 58.9395 60.8594 59.709 60.8594C61.1191 60.8594 61.8242 61.6055 61.8242 63.0977V67ZM60.8633 63.9648L59.416 64.1641C58.9707 64.2266 58.6348 64.3379 58.4082 64.498C58.1816 64.6543 58.0684 64.9336 58.0684 65.3359C58.0684 65.6289 58.1719 65.8691 58.3789 66.0566C58.5898 66.2402 58.8691 66.332 59.2168 66.332C59.6934 66.332 60.0859 66.166 60.3945 65.834C60.707 65.498 60.8633 65.0742 60.8633 64.5625V63.9648ZM66.7637 61.9727C66.5957 61.8438 66.3535 61.7793 66.0371 61.7793C65.627 61.7793 65.2832 61.9727 65.0059 62.3594C64.7324 62.7461 64.5957 63.2734 64.5957 63.9414V67H63.6348V61H64.5957V62.2363H64.6191C64.7559 61.8145 64.9648 61.4863 65.2461 61.252C65.5273 61.0137 65.8418 60.8945 66.1895 60.8945C66.4395 60.8945 66.6309 60.9219 66.7637 60.9766V61.9727ZM68.2988 59.4766C68.127 59.4766 67.9805 59.418 67.8594 59.3008C67.7383 59.1836 67.6777 59.0352 67.6777 58.8555C67.6777 58.6758 67.7383 58.5273 67.8594 58.4102C67.9805 58.2891 68.127 58.2285 68.2988 58.2285C68.4746 58.2285 68.623 58.2891 68.7441 58.4102C68.8691 58.5273 68.9316 58.6758 68.9316 58.8555C68.9316 59.0273 68.8691 59.1738 68.7441 59.2949C68.623 59.416 68.4746 59.4766 68.2988 59.4766ZM68.7676 67H67.8066V61H68.7676V67ZM73.4961 66.9414C73.2695 67.0664 72.9707 67.1289 72.5996 67.1289C71.5488 67.1289 71.0234 66.543 71.0234 65.3711V61.8203H69.9922V61H71.0234V59.5352L71.9844 59.2246V61H73.4961V61.8203H71.9844V65.2012C71.9844 65.6035 72.0527 65.8906 72.1895 66.0625C72.3262 66.2344 72.5527 66.3203 72.8691 66.3203C73.1113 66.3203 73.3203 66.2539 73.4961 66.1211V66.9414ZM79.5547 61L76.7949 67.9609C76.3027 69.2031 75.6113 69.8242 74.7207 69.8242C74.4707 69.8242 74.2617 69.7988 74.0938 69.748V68.8867C74.3008 68.957 74.4902 68.9922 74.6621 68.9922C75.1465 68.9922 75.5098 68.7031 75.752 68.125L76.2324 66.9883L73.8887 61H74.9551L76.5781 65.6172C76.5977 65.6758 76.6387 65.8281 76.7012 66.0742H76.7363C76.7559 65.9805 76.7949 65.832 76.8535 65.6289L78.5586 61H79.5547ZM88.8652 67H87.5176L84.8691 64.1172H84.8457V67H83.8848V58.1172H84.8457V63.748H84.8691L87.3887 61H88.6484L85.8652 63.8945L88.8652 67ZM94.1445 67H93.1836V66.0625H93.1602C92.7422 66.7812 92.127 67.1406 91.3145 67.1406C90.7168 67.1406 90.248 66.9824 89.9082 66.666C89.5723 66.3496 89.4043 65.9297 89.4043 65.4062C89.4043 64.2852 90.0645 63.6328 91.3848 63.4492L93.1836 63.1973C93.1836 62.1777 92.7715 61.668 91.9473 61.668C91.2246 61.668 90.5723 61.9141 89.9902 62.4062V61.4219C90.5801 61.0469 91.2598 60.8594 92.0293 60.8594C93.4395 60.8594 94.1445 61.6055 94.1445 63.0977V67ZM93.1836 63.9648L91.7363 64.1641C91.291 64.2266 90.9551 64.3379 90.7285 64.498C90.502 64.6543 90.3887 64.9336 90.3887 65.3359C90.3887 65.6289 90.4922 65.8691 90.6992 66.0566C90.9102 66.2402 91.1895 66.332 91.5371 66.332C92.0137 66.332 92.4062 66.166 92.7148 65.834C93.0273 65.498 93.1836 65.0742 93.1836 64.5625V63.9648ZM100.936 67H99.9746V63.5781C99.9746 62.3047 99.5098 61.668 98.5801 61.668C98.0996 61.668 97.7012 61.8496 97.3848 62.2129C97.0723 62.5723 96.916 63.0273 96.916 63.5781V67H95.9551V61H96.916V61.9961H96.9395C97.3926 61.2383 98.0488 60.8594 98.9082 60.8594C99.5645 60.8594 100.066 61.0723 100.414 61.498C100.762 61.9199 100.936 62.5312 100.936 63.332V67ZM44.1113 75.4766C43.9395 75.4766 43.793 75.418 43.6719 75.3008C43.5508 75.1836 43.4902 75.0352 43.4902 74.8555C43.4902 74.6758 43.5508 74.5273 43.6719 74.4102C43.793 74.2891 43.9395 74.2285 44.1113 74.2285C44.2871 74.2285 44.4355 74.2891 44.5566 74.4102C44.6816 74.5273 44.7441 74.6758 44.7441 74.8555C44.7441 75.0273 44.6816 75.1738 44.5566 75.2949C44.4355 75.416 44.2871 75.4766 44.1113 75.4766ZM44.5801 83H43.6191V77H44.5801V83ZM50.9199 75.4883H47.6387V78.3945H50.6738V79.2793H47.6387V83H46.6543V74.5977H50.9199V75.4883ZM55.5137 77.9727C55.3457 77.8438 55.1035 77.7793 54.7871 77.7793C54.377 77.7793 54.0332 77.9727 53.7559 78.3594C53.4824 78.7461 53.3457 79.2734 53.3457 79.9414V83H52.3848V77H53.3457V78.2363H53.3691C53.5059 77.8145 53.7148 77.4863 53.9961 77.252C54.2773 77.0137 54.5918 76.8945 54.9395 76.8945C55.1895 76.8945 55.3809 76.9219 55.5137 76.9766V77.9727ZM60.8516 83H59.8906V82.0625H59.8672C59.4492 82.7812 58.834 83.1406 58.0215 83.1406C57.4238 83.1406 56.9551 82.9824 56.6152 82.666C56.2793 82.3496 56.1113 81.9297 56.1113 81.4062C56.1113 80.2852 56.7715 79.6328 58.0918 79.4492L59.8906 79.1973C59.8906 78.1777 59.4785 77.668 58.6543 77.668C57.9316 77.668 57.2793 77.9141 56.6973 78.4062V77.4219C57.2871 77.0469 57.9668 76.8594 58.7363 76.8594C60.1465 76.8594 60.8516 77.6055 60.8516 79.0977V83ZM59.8906 79.9648L58.4434 80.1641C57.998 80.2266 57.6621 80.3379 57.4355 80.498C57.209 80.6543 57.0957 80.9336 57.0957 81.3359C57.0957 81.6289 57.1992 81.8691 57.4062 82.0566C57.6172 82.2402 57.8965 82.332 58.2441 82.332C58.7207 82.332 59.1133 82.166 59.4219 81.834C59.7344 81.498 59.8906 81.0742 59.8906 80.5625V79.9648ZM71.1816 83H70.2207V79.5547C70.2207 78.8906 70.1172 78.4102 69.9102 78.1133C69.707 77.8164 69.3633 77.668 68.8789 77.668C68.4688 77.668 68.1191 77.8555 67.8301 78.2305C67.5449 78.6055 67.4023 79.0547 67.4023 79.5781V83H66.4414V79.4375C66.4414 78.2578 65.9863 77.668 65.0762 77.668C64.6543 77.668 64.3066 77.8457 64.0332 78.2012C63.7598 78.5527 63.623 79.0117 63.623 79.5781V83H62.6621V77H63.623V77.9492H63.6465C64.0723 77.2227 64.6934 76.8594 65.5098 76.8594C65.9199 76.8594 66.2773 76.9746 66.582 77.2051C66.8867 77.4316 67.0957 77.7305 67.209 78.1016C67.6543 77.2734 68.3184 76.8594 69.2012 76.8594C70.5215 76.8594 71.1816 77.6738 71.1816 79.3027V83ZM77.8203 80.2402H73.584C73.5996 80.9082 73.7793 81.4238 74.123 81.7871C74.4668 82.1504 74.9395 82.332 75.541 82.332C76.2168 82.332 76.8379 82.1094 77.4043 81.6641V82.5664C76.877 82.9492 76.1797 83.1406 75.3125 83.1406C74.4648 83.1406 73.7988 82.8691 73.3145 82.3262C72.8301 81.7793 72.5879 81.0117 72.5879 80.0234C72.5879 79.0898 72.8516 78.3301 73.3789 77.7441C73.9102 77.1543 74.5684 76.8594 75.3535 76.8594C76.1387 76.8594 76.7461 77.1133 77.1758 77.6211C77.6055 78.1289 77.8203 78.834 77.8203 79.7363V80.2402ZM76.8359 79.4258C76.832 78.8711 76.6973 78.4395 76.4316 78.1309C76.1699 77.8223 75.8047 77.668 75.3359 77.668C74.8828 77.668 74.498 77.8301 74.1816 78.1543C73.8652 78.4785 73.6699 78.9023 73.5957 79.4258H76.8359ZM78.916 82.7832V81.752C79.4395 82.1387 80.0156 82.332 80.6445 82.332C81.4883 82.332 81.9102 82.0508 81.9102 81.4883C81.9102 81.3281 81.873 81.1934 81.7988 81.084C81.7285 80.9707 81.6309 80.8711 81.5059 80.7852C81.3848 80.6992 81.2402 80.623 81.0723 80.5566C80.9082 80.4863 80.7305 80.4141 80.5391 80.3398C80.2734 80.2344 80.0391 80.1289 79.8359 80.0234C79.6367 79.9141 79.4688 79.793 79.332 79.6602C79.1992 79.5234 79.0977 79.3691 79.0273 79.1973C78.9609 79.0254 78.9277 78.8242 78.9277 78.5938C78.9277 78.3125 78.9922 78.0645 79.1211 77.8496C79.25 77.6309 79.4219 77.4492 79.6367 77.3047C79.8516 77.1562 80.0957 77.0449 80.3691 76.9707C80.6465 76.8965 80.9316 76.8594 81.2246 76.8594C81.7441 76.8594 82.209 76.9492 82.6191 77.1289V78.1016C82.1777 77.8125 81.6699 77.668 81.0957 77.668C80.916 77.668 80.7539 77.6895 80.6094 77.7324C80.4648 77.7715 80.3398 77.8281 80.2344 77.9023C80.1328 77.9766 80.0527 78.0664 79.9941 78.1719C79.9395 78.2734 79.9121 78.3867 79.9121 78.5117C79.9121 78.668 79.9395 78.7988 79.9941 78.9043C80.0527 79.0098 80.1367 79.1035 80.2461 79.1855C80.3555 79.2676 80.4883 79.3418 80.6445 79.4082C80.8008 79.4746 80.9785 79.5469 81.1777 79.625C81.4434 79.7266 81.6816 79.832 81.8926 79.9414C82.1035 80.0469 82.2832 80.168 82.4316 80.3047C82.5801 80.4375 82.6934 80.5918 82.7715 80.7676C82.8535 80.9434 82.8945 81.1523 82.8945 81.3945C82.8945 81.6914 82.8281 81.9492 82.6953 82.168C82.5664 82.3867 82.3926 82.5684 82.1738 82.7129C81.9551 82.8574 81.7031 82.9648 81.418 83.0352C81.1328 83.1055 80.834 83.1406 80.5215 83.1406C79.9043 83.1406 79.3691 83.0215 78.916 82.7832ZM92.3867 77L89.9961 83H89.0527L86.7793 77H87.834L89.3574 81.3594C89.4707 81.6797 89.541 81.959 89.5684 82.1973H89.5918C89.6309 81.8965 89.6934 81.625 89.7793 81.3828L91.373 77H92.3867ZM97.7188 83H96.7578V82.0625H96.7344C96.3164 82.7812 95.7012 83.1406 94.8887 83.1406C94.291 83.1406 93.8223 82.9824 93.4824 82.666C93.1465 82.3496 92.9785 81.9297 92.9785 81.4062C92.9785 80.2852 93.6387 79.6328 94.959 79.4492L96.7578 79.1973C96.7578 78.1777 96.3457 77.668 95.5215 77.668C94.7988 77.668 94.1465 77.9141 93.5645 78.4062V77.4219C94.1543 77.0469 94.834 76.8594 95.6035 76.8594C97.0137 76.8594 97.7188 77.6055 97.7188 79.0977V83ZM96.7578 79.9648L95.3105 80.1641C94.8652 80.2266 94.5293 80.3379 94.3027 80.498C94.0762 80.6543 93.9629 80.9336 93.9629 81.3359C93.9629 81.6289 94.0664 81.8691 94.2734 82.0566C94.4844 82.2402 94.7637 82.332 95.1113 82.332C95.5879 82.332 95.9805 82.166 96.2891 81.834C96.6016 81.498 96.7578 81.0742 96.7578 80.5625V79.9648ZM104.51 83H103.549V79.5781C103.549 78.3047 103.084 77.668 102.154 77.668C101.674 77.668 101.275 77.8496 100.959 78.2129C100.646 78.5723 100.49 79.0273 100.49 79.5781V83H99.5293V77H100.49V77.9961H100.514C100.967 77.2383 101.623 76.8594 102.482 76.8594C103.139 76.8594 103.641 77.0723 103.988 77.498C104.336 77.9199 104.51 78.5312 104.51 79.332V83ZM49.5898 99H48.6289V97.9805H48.6055C48.1602 98.7539 47.4727 99.1406 46.543 99.1406C45.7891 99.1406 45.1855 98.873 44.7324 98.3379C44.2832 97.7988 44.0586 97.0664 44.0586 96.1406C44.0586 95.1484 44.3086 94.3535 44.8086 93.7559C45.3086 93.1582 45.9746 92.8594 46.8066 92.8594C47.6309 92.8594 48.2305 93.1836 48.6055 93.832H48.6289V90.1172H49.5898V99ZM48.6289 96.2871V95.4023C48.6289 94.918 48.4688 94.5078 48.1484 94.1719C47.8281 93.8359 47.4219 93.668 46.9297 93.668C46.3438 93.668 45.8828 93.8828 45.5469 94.3125C45.2109 94.7422 45.043 95.3359 45.043 96.0938C45.043 96.7852 45.2031 97.332 45.5234 97.7344C45.8477 98.1328 46.2812 98.332 46.8242 98.332C47.3594 98.332 47.793 98.1387 48.125 97.752C48.4609 97.3652 48.6289 96.877 48.6289 96.2871ZM56.3574 96.2402H52.1211C52.1367 96.9082 52.3164 97.4238 52.6602 97.7871C53.0039 98.1504 53.4766 98.332 54.0781 98.332C54.7539 98.332 55.375 98.1094 55.9414 97.6641V98.5664C55.4141 98.9492 54.7168 99.1406 53.8496 99.1406C53.002 99.1406 52.3359 98.8691 51.8516 98.3262C51.3672 97.7793 51.125 97.0117 51.125 96.0234C51.125 95.0898 51.3887 94.3301 51.916 93.7441C52.4473 93.1543 53.1055 92.8594 53.8906 92.8594C54.6758 92.8594 55.2832 93.1133 55.7129 93.6211C56.1426 94.1289 56.3574 94.834 56.3574 95.7363V96.2402ZM55.373 95.4258C55.3691 94.8711 55.2344 94.4395 54.9688 94.1309C54.707 93.8223 54.3418 93.668 53.873 93.668C53.4199 93.668 53.0352 93.8301 52.7188 94.1543C52.4023 94.4785 52.207 94.9023 52.1328 95.4258H55.373ZM60.9453 93.9727C60.7773 93.8438 60.5352 93.7793 60.2188 93.7793C59.8086 93.7793 59.4648 93.9727 59.1875 94.3594C58.9141 94.7461 58.7773 95.2734 58.7773 95.9414V99H57.8164V93H58.7773V94.2363H58.8008C58.9375 93.8145 59.1465 93.4863 59.4277 93.252C59.709 93.0137 60.0234 92.8945 60.3711 92.8945C60.6211 92.8945 60.8125 92.9219 60.9453 92.9766V93.9727ZM67.1094 99H66.1484V97.9805H66.125C65.6797 98.7539 64.9922 99.1406 64.0625 99.1406C63.3086 99.1406 62.7051 98.873 62.252 98.3379C61.8027 97.7988 61.5781 97.0664 61.5781 96.1406C61.5781 95.1484 61.8281 94.3535 62.3281 93.7559C62.8281 93.1582 63.4941 92.8594 64.3262 92.8594C65.1504 92.8594 65.75 93.1836 66.125 93.832H66.1484V90.1172H67.1094V99ZM66.1484 96.2871V95.4023C66.1484 94.918 65.9883 94.5078 65.668 94.1719C65.3477 93.8359 64.9414 93.668 64.4492 93.668C63.8633 93.668 63.4023 93.8828 63.0664 94.3125C62.7305 94.7422 62.5625 95.3359 62.5625 96.0938C62.5625 96.7852 62.7227 97.332 63.043 97.7344C63.3672 98.1328 63.8008 98.332 64.3438 98.332C64.8789 98.332 65.3125 98.1387 65.6445 97.752C65.9805 97.3652 66.1484 96.877 66.1484 96.2871ZM73.877 96.2402H69.6406C69.6562 96.9082 69.8359 97.4238 70.1797 97.7871C70.5234 98.1504 70.9961 98.332 71.5977 98.332C72.2734 98.332 72.8945 98.1094 73.4609 97.6641V98.5664C72.9336 98.9492 72.2363 99.1406 71.3691 99.1406C70.5215 99.1406 69.8555 98.8691 69.3711 98.3262C68.8867 97.7793 68.6445 97.0117 68.6445 96.0234C68.6445 95.0898 68.9082 94.3301 69.4355 93.7441C69.9668 93.1543 70.625 92.8594 71.4102 92.8594C72.1953 92.8594 72.8027 93.1133 73.2324 93.6211C73.6621 94.1289 73.877 94.834 73.877 95.7363V96.2402ZM72.8926 95.4258C72.8887 94.8711 72.7539 94.4395 72.4883 94.1309C72.2266 93.8223 71.8613 93.668 71.3926 93.668C70.9395 93.668 70.5547 93.8301 70.2383 94.1543C69.9219 94.4785 69.7266 94.9023 69.6523 95.4258H72.8926ZM80.3164 99H79.3555V95.5781C79.3555 94.3047 78.8906 93.668 77.9609 93.668C77.4805 93.668 77.082 93.8496 76.7656 94.2129C76.4531 94.5723 76.2969 95.0273 76.2969 95.5781V99H75.3359V93H76.2969V93.9961H76.3203C76.7734 93.2383 77.4297 92.8594 78.2891 92.8594C78.9453 92.8594 79.4473 93.0723 79.7949 93.498C80.1426 93.9199 80.3164 94.5312 80.3164 95.332V99ZM90.4062 99H89.4453V95.5781C89.4453 94.3047 88.9805 93.668 88.0508 93.668C87.5703 93.668 87.1719 93.8496 86.8555 94.2129C86.543 94.5723 86.3867 95.0273 86.3867 95.5781V99H85.4258V93H86.3867V93.9961H86.4102C86.8633 93.2383 87.5195 92.8594 88.3789 92.8594C89.0352 92.8594 89.5371 93.0723 89.8848 93.498C90.2324 93.9199 90.4062 94.5312 90.4062 95.332V99ZM92.7148 91.4766C92.543 91.4766 92.3965 91.418 92.2754 91.3008C92.1543 91.1836 92.0938 91.0352 92.0938 90.8555C92.0938 90.6758 92.1543 90.5273 92.2754 90.4102C92.3965 90.2891 92.543 90.2285 92.7148 90.2285C92.8906 90.2285 93.0391 90.2891 93.1602 90.4102C93.2852 90.5273 93.3477 90.6758 93.3477 90.8555C93.3477 91.0273 93.2852 91.1738 93.1602 91.2949C93.0391 91.416 92.8906 91.4766 92.7148 91.4766ZM93.1836 99H92.2227V93H93.1836V99ZM99.9512 96.2402H95.7148C95.7305 96.9082 95.9102 97.4238 96.2539 97.7871C96.5977 98.1504 97.0703 98.332 97.6719 98.332C98.3477 98.332 98.9688 98.1094 99.5352 97.6641V98.5664C99.0078 98.9492 98.3105 99.1406 97.4434 99.1406C96.5957 99.1406 95.9297 98.8691 95.4453 98.3262C94.9609 97.7793 94.7188 97.0117 94.7188 96.0234C94.7188 95.0898 94.9824 94.3301 95.5098 93.7441C96.041 93.1543 96.6992 92.8594 97.4844 92.8594C98.2695 92.8594 98.877 93.1133 99.3066 93.6211C99.7363 94.1289 99.9512 94.834 99.9512 95.7363V96.2402ZM98.9668 95.4258C98.9629 94.8711 98.8281 94.4395 98.5625 94.1309C98.3008 93.8223 97.9355 93.668 97.4668 93.668C97.0137 93.668 96.6289 93.8301 96.3125 94.1543C95.9961 94.4785 95.8008 94.9023 95.7266 95.4258H98.9668ZM104.193 98.9414C103.967 99.0664 103.668 99.1289 103.297 99.1289C102.246 99.1289 101.721 98.543 101.721 97.3711V93.8203H100.689V93H101.721V91.5352L102.682 91.2246V93H104.193V93.8203H102.682V97.2012C102.682 97.6035 102.75 97.8906 102.887 98.0625C103.023 98.2344 103.25 98.3203 103.566 98.3203C103.809 98.3203 104.018 98.2539 104.193 98.1211V98.9414ZM62.0879 115H61.127V106.117H62.0879V115ZM68.8555 112.24H64.6191C64.6348 112.908 64.8145 113.424 65.1582 113.787C65.502 114.15 65.9746 114.332 66.5762 114.332C67.252 114.332 67.873 114.109 68.4395 113.664V114.566C67.9121 114.949 67.2148 115.141 66.3477 115.141C65.5 115.141 64.834 114.869 64.3496 114.326C63.8652 113.779 63.623 113.012 63.623 112.023C63.623 111.09 63.8867 110.33 64.4141 109.744C64.9453 109.154 65.6035 108.859 66.3887 108.859C67.1738 108.859 67.7812 109.113 68.2109 109.621C68.6406 110.129 68.8555 110.834 68.8555 111.736V112.24ZM67.8711 111.426C67.8672 110.871 67.7324 110.439 67.4668 110.131C67.2051 109.822 66.8398 109.668 66.3711 109.668C65.918 109.668 65.5332 109.83 65.2168 110.154C64.9004 110.479 64.7051 110.902 64.6309 111.426H67.8711ZM74.498 109.275L70.9473 114.18H74.4629V115H69.5352V114.701L73.0859 109.82H69.8691V109H74.498V109.275ZM80.5625 112.24H76.3262C76.3418 112.908 76.5215 113.424 76.8652 113.787C77.209 114.15 77.6816 114.332 78.2832 114.332C78.959 114.332 79.5801 114.109 80.1465 113.664V114.566C79.6191 114.949 78.9219 115.141 78.0547 115.141C77.207 115.141 76.541 114.869 76.0566 114.326C75.5723 113.779 75.3301 113.012 75.3301 112.023C75.3301 111.09 75.5938 110.33 76.1211 109.744C76.6523 109.154 77.3105 108.859 78.0957 108.859C78.8809 108.859 79.4883 109.113 79.918 109.621C80.3477 110.129 80.5625 110.834 80.5625 111.736V112.24ZM79.5781 111.426C79.5742 110.871 79.4395 110.439 79.1738 110.131C78.9121 109.822 78.5469 109.668 78.0781 109.668C77.625 109.668 77.2402 109.83 76.9238 110.154C76.6074 110.479 76.4121 110.902 76.3379 111.426H79.5781ZM87.002 115H86.041V111.578C86.041 110.305 85.5762 109.668 84.6465 109.668C84.166 109.668 83.7676 109.85 83.4512 110.213C83.1387 110.572 82.9824 111.027 82.9824 111.578V115H82.0215V109H82.9824V109.996H83.0059C83.459 109.238 84.1152 108.859 84.9746 108.859C85.6309 108.859 86.1328 109.072 86.4805 109.498C86.8281 109.92 87.002 110.531 87.002 111.332V115Z" fill="#020057"/>
</g>
<defs>
<filter id="filter0_dd_3872_63022" x="0.8" y="2.38419e-07" width="146.4" height="146.4" filterUnits="userSpaceOnUse" color-interpolation-filters="sRGB">
<feFlood flood-opacity="0" result="BackgroundImageFix"/>
<feColorMatrix in="SourceAlpha" type="matrix" values="0 0 0 0 0 0 0 0 0 0 0 0 0 0 0 0 0 0 127 0" result="hardAlpha"/>
<feOffset dy="3.2"/>
<feGaussianBlur stdDeviation="3.6"/>
<feColorMatrix type="matrix" values="0 0 0 0 0.513726 0 0 0 0 0.494118 0 0 0 0 1 0 0 0 0.12 0"/>
<feBlend mode="normal" in2="BackgroundImageFix" result="effect1_dropShadow_3872_63022"/>
<feColorMatrix in="SourceAlpha" type="matrix" values="0 0 0 0 0 0 0 0 0 0 0 0 0 0 0 0 0 0 127 0" result="hardAlpha"/>
<feOffset dy="0.6"/>
<feGaussianBlur stdDeviation="0.9"/>
<feColorMatrix type="matrix" values="0 0 0 0 0.513726 0 0 0 0 0.494118 0 0 0 0 1 0 0 0 0.1 0"/>
<feBlend mode="normal" in2="effect1_dropShadow_3872_63022" result="effect2_dropShadow_3872_63022"/>
<feBlend mode="normal" in="SourceGraphic" in2="effect2_dropShadow_3872_63022" result="shape"/>
</filter>
</defs>
</svg>
