<svg width="100%" viewBox="0 0 100 112" fill="none" xmlns="http://www.w3.org/2000/svg">
<rect width="100" height="112" fill="#FBFBFE"/>
<path d="M41.4247 10.5758C41.1903 10.3414 40.8104 10.3414 40.5761 10.5758C40.3418 10.8101 40.3418 11.19 40.5761 11.4243L42.0974 12.9456C41.7833 13.4199 41.6004 13.9886 41.6004 14.6V25.4C41.6004 27.0569 42.9435 28.4 44.6004 28.4H55.4004C56.0118 28.4 56.5806 28.2171 57.0548 27.903L58.5761 29.4243C58.8104 29.6586 59.1903 29.6586 59.4247 29.4243C59.659 29.19 59.659 28.8101 59.4247 28.5758L41.4247 10.5758ZM56.1764 27.0246C55.9415 27.1371 55.6783 27.2 55.4004 27.2H44.6004C43.6063 27.2 42.8004 26.3941 42.8004 25.4V16.4H45.5519L56.1764 27.0246ZM57.2004 16.4V24.6544L58.3706 25.8246C58.3902 25.6859 58.4004 25.5442 58.4004 25.4V14.6C58.4004 12.9432 57.0572 11.6 55.4004 11.6H44.6004C44.4563 11.6 44.3145 11.6102 44.1758 11.6298L48.946 16.4H57.2004Z" fill="#020057"/>
<path d="M29.041 52.6484C28.4199 52.9766 27.6465 53.1406 26.7207 53.1406C25.5254 53.1406 24.5684 52.7559 23.8496 51.9863C23.1309 51.2168 22.7715 50.207 22.7715 48.957C22.7715 47.6133 23.1758 46.5273 23.9844 45.6992C24.793 44.8711 25.8184 44.457 27.0605 44.457C27.8574 44.457 28.5176 44.5723 29.041 44.8027V45.8516C28.4395 45.5156 27.7754 45.3477 27.0488 45.3477C26.084 45.3477 25.3008 45.6699 24.6992 46.3145C24.1016 46.959 23.8027 47.8203 23.8027 48.8984C23.8027 49.9219 24.082 50.7383 24.6406 51.3477C25.2031 51.9531 25.9395 52.2559 26.8496 52.2559C27.6934 52.2559 28.4238 52.0684 29.041 51.6934V52.6484ZM31.584 53H30.623V44.1172H31.584V53ZM37.8242 53H36.8633V52.0625H36.8398C36.4219 52.7812 35.8066 53.1406 34.9941 53.1406C34.3965 53.1406 33.9277 52.9824 33.5879 52.666C33.252 52.3496 33.084 51.9297 33.084 51.4062C33.084 50.2852 33.7441 49.6328 35.0645 49.4492L36.8633 49.1973C36.8633 48.1777 36.4512 47.668 35.627 47.668C34.9043 47.668 34.252 47.9141 33.6699 48.4062V47.4219C34.2598 47.0469 34.9395 46.8594 35.709 46.8594C37.1191 46.8594 37.8242 47.6055 37.8242 49.0977V53ZM36.8633 49.9648L35.416 50.1641C34.9707 50.2266 34.6348 50.3379 34.4082 50.498C34.1816 50.6543 34.0684 50.9336 34.0684 51.3359C34.0684 51.6289 34.1719 51.8691 34.3789 52.0566C34.5898 52.2402 34.8691 52.332 35.2168 52.332C35.6934 52.332 36.0859 52.166 36.3945 51.834C36.707 51.498 36.8633 51.0742 36.8633 50.5625V49.9648ZM42.7637 47.9727C42.5957 47.8438 42.3535 47.7793 42.0371 47.7793C41.627 47.7793 41.2832 47.9727 41.0059 48.3594C40.7324 48.7461 40.5957 49.2734 40.5957 49.9414V53H39.6348V47H40.5957V48.2363H40.6191C40.7559 47.8145 40.9648 47.4863 41.2461 47.252C41.5273 47.0137 41.8418 46.8945 42.1895 46.8945C42.4395 46.8945 42.6309 46.9219 42.7637 46.9766V47.9727ZM44.2988 45.4766C44.127 45.4766 43.9805 45.418 43.8594 45.3008C43.7383 45.1836 43.6777 45.0352 43.6777 44.8555C43.6777 44.6758 43.7383 44.5273 43.8594 44.4102C43.9805 44.2891 44.127 44.2285 44.2988 44.2285C44.4746 44.2285 44.623 44.2891 44.7441 44.4102C44.8691 44.5273 44.9316 44.6758 44.9316 44.8555C44.9316 45.0273 44.8691 45.1738 44.7441 45.2949C44.623 45.416 44.4746 45.4766 44.2988 45.4766ZM44.7676 53H43.8066V47H44.7676V53ZM49.4961 52.9414C49.2695 53.0664 48.9707 53.1289 48.5996 53.1289C47.5488 53.1289 47.0234 52.543 47.0234 51.3711V47.8203H45.9922V47H47.0234V45.5352L47.9844 45.2246V47H49.4961V47.8203H47.9844V51.2012C47.9844 51.6035 48.0527 51.8906 48.1895 52.0625C48.3262 52.2344 48.5527 52.3203 48.8691 52.3203C49.1113 52.3203 49.3203 52.2539 49.4961 52.1211V52.9414ZM55.5547 47L52.7949 53.9609C52.3027 55.2031 51.6113 55.8242 50.7207 55.8242C50.4707 55.8242 50.2617 55.7988 50.0938 55.748V54.8867C50.3008 54.957 50.4902 54.9922 50.6621 54.9922C51.1465 54.9922 51.5098 54.7031 51.752 54.125L52.2324 52.9883L49.8887 47H50.9551L52.5781 51.6172C52.5977 51.6758 52.6387 51.8281 52.7012 52.0742H52.7363C52.7559 51.9805 52.7949 51.832 52.8535 51.6289L54.5586 47H55.5547ZM64.8652 53H63.5176L60.8691 50.1172H60.8457V53H59.8848V44.1172H60.8457V49.748H60.8691L63.3887 47H64.6484L61.8652 49.8945L64.8652 53ZM70.1445 53H69.1836V52.0625H69.1602C68.7422 52.7812 68.127 53.1406 67.3145 53.1406C66.7168 53.1406 66.248 52.9824 65.9082 52.666C65.5723 52.3496 65.4043 51.9297 65.4043 51.4062C65.4043 50.2852 66.0645 49.6328 67.3848 49.4492L69.1836 49.1973C69.1836 48.1777 68.7715 47.668 67.9473 47.668C67.2246 47.668 66.5723 47.9141 65.9902 48.4062V47.4219C66.5801 47.0469 67.2598 46.8594 68.0293 46.8594C69.4395 46.8594 70.1445 47.6055 70.1445 49.0977V53ZM69.1836 49.9648L67.7363 50.1641C67.291 50.2266 66.9551 50.3379 66.7285 50.498C66.502 50.6543 66.3887 50.9336 66.3887 51.3359C66.3887 51.6289 66.4922 51.8691 66.6992 52.0566C66.9102 52.2402 67.1895 52.332 67.5371 52.332C68.0137 52.332 68.4062 52.166 68.7148 51.834C69.0273 51.498 69.1836 51.0742 69.1836 50.5625V49.9648ZM76.9355 53H75.9746V49.5781C75.9746 48.3047 75.5098 47.668 74.5801 47.668C74.0996 47.668 73.7012 47.8496 73.3848 48.2129C73.0723 48.5723 72.916 49.0273 72.916 49.5781V53H71.9551V47H72.916V47.9961H72.9395C73.3926 47.2383 74.0488 46.8594 74.9082 46.8594C75.5645 46.8594 76.0664 47.0723 76.4141 47.498C76.7617 47.9199 76.9355 48.5312 76.9355 49.332V53ZM20.1113 61.4766C19.9395 61.4766 19.793 61.418 19.6719 61.3008C19.5508 61.1836 19.4902 61.0352 19.4902 60.8555C19.4902 60.6758 19.5508 60.5273 19.6719 60.4102C19.793 60.2891 19.9395 60.2285 20.1113 60.2285C20.2871 60.2285 20.4355 60.2891 20.5566 60.4102C20.6816 60.5273 20.7441 60.6758 20.7441 60.8555C20.7441 61.0273 20.6816 61.1738 20.5566 61.2949C20.4355 61.416 20.2871 61.4766 20.1113 61.4766ZM20.5801 69H19.6191V63H20.5801V69ZM26.9199 61.4883H23.6387V64.3945H26.6738V65.2793H23.6387V69H22.6543V60.5977H26.9199V61.4883ZM31.5137 63.9727C31.3457 63.8438 31.1035 63.7793 30.7871 63.7793C30.377 63.7793 30.0332 63.9727 29.7559 64.3594C29.4824 64.7461 29.3457 65.2734 29.3457 65.9414V69H28.3848V63H29.3457V64.2363H29.3691C29.5059 63.8145 29.7148 63.4863 29.9961 63.252C30.2773 63.0137 30.5918 62.8945 30.9395 62.8945C31.1895 62.8945 31.3809 62.9219 31.5137 62.9766V63.9727ZM36.8516 69H35.8906V68.0625H35.8672C35.4492 68.7812 34.834 69.1406 34.0215 69.1406C33.4238 69.1406 32.9551 68.9824 32.6152 68.666C32.2793 68.3496 32.1113 67.9297 32.1113 67.4062C32.1113 66.2852 32.7715 65.6328 34.0918 65.4492L35.8906 65.1973C35.8906 64.1777 35.4785 63.668 34.6543 63.668C33.9316 63.668 33.2793 63.9141 32.6973 64.4062V63.4219C33.2871 63.0469 33.9668 62.8594 34.7363 62.8594C36.1465 62.8594 36.8516 63.6055 36.8516 65.0977V69ZM35.8906 65.9648L34.4434 66.1641C33.998 66.2266 33.6621 66.3379 33.4355 66.498C33.209 66.6543 33.0957 66.9336 33.0957 67.3359C33.0957 67.6289 33.1992 67.8691 33.4062 68.0566C33.6172 68.2402 33.8965 68.332 34.2441 68.332C34.7207 68.332 35.1133 68.166 35.4219 67.834C35.7344 67.498 35.8906 67.0742 35.8906 66.5625V65.9648ZM47.1816 69H46.2207V65.5547C46.2207 64.8906 46.1172 64.4102 45.9102 64.1133C45.707 63.8164 45.3633 63.668 44.8789 63.668C44.4688 63.668 44.1191 63.8555 43.8301 64.2305C43.5449 64.6055 43.4023 65.0547 43.4023 65.5781V69H42.4414V65.4375C42.4414 64.2578 41.9863 63.668 41.0762 63.668C40.6543 63.668 40.3066 63.8457 40.0332 64.2012C39.7598 64.5527 39.623 65.0117 39.623 65.5781V69H38.6621V63H39.623V63.9492H39.6465C40.0723 63.2227 40.6934 62.8594 41.5098 62.8594C41.9199 62.8594 42.2773 62.9746 42.582 63.2051C42.8867 63.4316 43.0957 63.7305 43.209 64.1016C43.6543 63.2734 44.3184 62.8594 45.2012 62.8594C46.5215 62.8594 47.1816 63.6738 47.1816 65.3027V69ZM53.8203 66.2402H49.584C49.5996 66.9082 49.7793 67.4238 50.123 67.7871C50.4668 68.1504 50.9395 68.332 51.541 68.332C52.2168 68.332 52.8379 68.1094 53.4043 67.6641V68.5664C52.877 68.9492 52.1797 69.1406 51.3125 69.1406C50.4648 69.1406 49.7988 68.8691 49.3145 68.3262C48.8301 67.7793 48.5879 67.0117 48.5879 66.0234C48.5879 65.0898 48.8516 64.3301 49.3789 63.7441C49.9102 63.1543 50.5684 62.8594 51.3535 62.8594C52.1387 62.8594 52.7461 63.1133 53.1758 63.6211C53.6055 64.1289 53.8203 64.834 53.8203 65.7363V66.2402ZM52.8359 65.4258C52.832 64.8711 52.6973 64.4395 52.4316 64.1309C52.1699 63.8223 51.8047 63.668 51.3359 63.668C50.8828 63.668 50.498 63.8301 50.1816 64.1543C49.8652 64.4785 49.6699 64.9023 49.5957 65.4258H52.8359ZM54.916 68.7832V67.752C55.4395 68.1387 56.0156 68.332 56.6445 68.332C57.4883 68.332 57.9102 68.0508 57.9102 67.4883C57.9102 67.3281 57.873 67.1934 57.7988 67.084C57.7285 66.9707 57.6309 66.8711 57.5059 66.7852C57.3848 66.6992 57.2402 66.623 57.0723 66.5566C56.9082 66.4863 56.7305 66.4141 56.5391 66.3398C56.2734 66.2344 56.0391 66.1289 55.8359 66.0234C55.6367 65.9141 55.4688 65.793 55.332 65.6602C55.1992 65.5234 55.0977 65.3691 55.0273 65.1973C54.9609 65.0254 54.9277 64.8242 54.9277 64.5938C54.9277 64.3125 54.9922 64.0645 55.1211 63.8496C55.25 63.6309 55.4219 63.4492 55.6367 63.3047C55.8516 63.1562 56.0957 63.0449 56.3691 62.9707C56.6465 62.8965 56.9316 62.8594 57.2246 62.8594C57.7441 62.8594 58.209 62.9492 58.6191 63.1289V64.1016C58.1777 63.8125 57.6699 63.668 57.0957 63.668C56.916 63.668 56.7539 63.6895 56.6094 63.7324C56.4648 63.7715 56.3398 63.8281 56.2344 63.9023C56.1328 63.9766 56.0527 64.0664 55.9941 64.1719C55.9395 64.2734 55.9121 64.3867 55.9121 64.5117C55.9121 64.668 55.9395 64.7988 55.9941 64.9043C56.0527 65.0098 56.1367 65.1035 56.2461 65.1855C56.3555 65.2676 56.4883 65.3418 56.6445 65.4082C56.8008 65.4746 56.9785 65.5469 57.1777 65.625C57.4434 65.7266 57.6816 65.832 57.8926 65.9414C58.1035 66.0469 58.2832 66.168 58.4316 66.3047C58.5801 66.4375 58.6934 66.5918 58.7715 66.7676C58.8535 66.9434 58.8945 67.1523 58.8945 67.3945C58.8945 67.6914 58.8281 67.9492 58.6953 68.168C58.5664 68.3867 58.3926 68.5684 58.1738 68.7129C57.9551 68.8574 57.7031 68.9648 57.418 69.0352C57.1328 69.1055 56.834 69.1406 56.5215 69.1406C55.9043 69.1406 55.3691 69.0215 54.916 68.7832ZM68.3867 63L65.9961 69H65.0527L62.7793 63H63.834L65.3574 67.3594C65.4707 67.6797 65.541 67.959 65.5684 68.1973H65.5918C65.6309 67.8965 65.6934 67.625 65.7793 67.3828L67.373 63H68.3867ZM73.7188 69H72.7578V68.0625H72.7344C72.3164 68.7812 71.7012 69.1406 70.8887 69.1406C70.291 69.1406 69.8223 68.9824 69.4824 68.666C69.1465 68.3496 68.9785 67.9297 68.9785 67.4062C68.9785 66.2852 69.6387 65.6328 70.959 65.4492L72.7578 65.1973C72.7578 64.1777 72.3457 63.668 71.5215 63.668C70.7988 63.668 70.1465 63.9141 69.5645 64.4062V63.4219C70.1543 63.0469 70.834 62.8594 71.6035 62.8594C73.0137 62.8594 73.7188 63.6055 73.7188 65.0977V69ZM72.7578 65.9648L71.3105 66.1641C70.8652 66.2266 70.5293 66.3379 70.3027 66.498C70.0762 66.6543 69.9629 66.9336 69.9629 67.3359C69.9629 67.6289 70.0664 67.8691 70.2734 68.0566C70.4844 68.2402 70.7637 68.332 71.1113 68.332C71.5879 68.332 71.9805 68.166 72.2891 67.834C72.6016 67.498 72.7578 67.0742 72.7578 66.5625V65.9648ZM80.5098 69H79.5488V65.5781C79.5488 64.3047 79.084 63.668 78.1543 63.668C77.6738 63.668 77.2754 63.8496 76.959 64.2129C76.6465 64.5723 76.4902 65.0273 76.4902 65.5781V69H75.5293V63H76.4902V63.9961H76.5137C76.9668 63.2383 77.623 62.8594 78.4824 62.8594C79.1387 62.8594 79.6406 63.0723 79.9883 63.498C80.3359 63.9199 80.5098 64.5312 80.5098 65.332V69ZM25.5898 85H24.6289V83.9805H24.6055C24.1602 84.7539 23.4727 85.1406 22.543 85.1406C21.7891 85.1406 21.1855 84.873 20.7324 84.3379C20.2832 83.7988 20.0586 83.0664 20.0586 82.1406C20.0586 81.1484 20.3086 80.3535 20.8086 79.7559C21.3086 79.1582 21.9746 78.8594 22.8066 78.8594C23.6309 78.8594 24.2305 79.1836 24.6055 79.832H24.6289V76.1172H25.5898V85ZM24.6289 82.2871V81.4023C24.6289 80.918 24.4688 80.5078 24.1484 80.1719C23.8281 79.8359 23.4219 79.668 22.9297 79.668C22.3438 79.668 21.8828 79.8828 21.5469 80.3125C21.2109 80.7422 21.043 81.3359 21.043 82.0938C21.043 82.7852 21.2031 83.332 21.5234 83.7344C21.8477 84.1328 22.2812 84.332 22.8242 84.332C23.3594 84.332 23.793 84.1387 24.125 83.752C24.4609 83.3652 24.6289 82.877 24.6289 82.2871ZM32.3574 82.2402H28.1211C28.1367 82.9082 28.3164 83.4238 28.6602 83.7871C29.0039 84.1504 29.4766 84.332 30.0781 84.332C30.7539 84.332 31.375 84.1094 31.9414 83.6641V84.5664C31.4141 84.9492 30.7168 85.1406 29.8496 85.1406C29.002 85.1406 28.3359 84.8691 27.8516 84.3262C27.3672 83.7793 27.125 83.0117 27.125 82.0234C27.125 81.0898 27.3887 80.3301 27.916 79.7441C28.4473 79.1543 29.1055 78.8594 29.8906 78.8594C30.6758 78.8594 31.2832 79.1133 31.7129 79.6211C32.1426 80.1289 32.3574 80.834 32.3574 81.7363V82.2402ZM31.373 81.4258C31.3691 80.8711 31.2344 80.4395 30.9688 80.1309C30.707 79.8223 30.3418 79.668 29.873 79.668C29.4199 79.668 29.0352 79.8301 28.7188 80.1543C28.4023 80.4785 28.207 80.9023 28.1328 81.4258H31.373ZM36.9453 79.9727C36.7773 79.8438 36.5352 79.7793 36.2188 79.7793C35.8086 79.7793 35.4648 79.9727 35.1875 80.3594C34.9141 80.7461 34.7773 81.2734 34.7773 81.9414V85H33.8164V79H34.7773V80.2363H34.8008C34.9375 79.8145 35.1465 79.4863 35.4277 79.252C35.709 79.0137 36.0234 78.8945 36.3711 78.8945C36.6211 78.8945 36.8125 78.9219 36.9453 78.9766V79.9727ZM43.1094 85H42.1484V83.9805H42.125C41.6797 84.7539 40.9922 85.1406 40.0625 85.1406C39.3086 85.1406 38.7051 84.873 38.252 84.3379C37.8027 83.7988 37.5781 83.0664 37.5781 82.1406C37.5781 81.1484 37.8281 80.3535 38.3281 79.7559C38.8281 79.1582 39.4941 78.8594 40.3262 78.8594C41.1504 78.8594 41.75 79.1836 42.125 79.832H42.1484V76.1172H43.1094V85ZM42.1484 82.2871V81.4023C42.1484 80.918 41.9883 80.5078 41.668 80.1719C41.3477 79.8359 40.9414 79.668 40.4492 79.668C39.8633 79.668 39.4023 79.8828 39.0664 80.3125C38.7305 80.7422 38.5625 81.3359 38.5625 82.0938C38.5625 82.7852 38.7227 83.332 39.043 83.7344C39.3672 84.1328 39.8008 84.332 40.3438 84.332C40.8789 84.332 41.3125 84.1387 41.6445 83.752C41.9805 83.3652 42.1484 82.877 42.1484 82.2871ZM49.877 82.2402H45.6406C45.6562 82.9082 45.8359 83.4238 46.1797 83.7871C46.5234 84.1504 46.9961 84.332 47.5977 84.332C48.2734 84.332 48.8945 84.1094 49.4609 83.6641V84.5664C48.9336 84.9492 48.2363 85.1406 47.3691 85.1406C46.5215 85.1406 45.8555 84.8691 45.3711 84.3262C44.8867 83.7793 44.6445 83.0117 44.6445 82.0234C44.6445 81.0898 44.9082 80.3301 45.4355 79.7441C45.9668 79.1543 46.625 78.8594 47.4102 78.8594C48.1953 78.8594 48.8027 79.1133 49.2324 79.6211C49.6621 80.1289 49.877 80.834 49.877 81.7363V82.2402ZM48.8926 81.4258C48.8887 80.8711 48.7539 80.4395 48.4883 80.1309C48.2266 79.8223 47.8613 79.668 47.3926 79.668C46.9395 79.668 46.5547 79.8301 46.2383 80.1543C45.9219 80.4785 45.7266 80.9023 45.6523 81.4258H48.8926ZM56.3164 85H55.3555V81.5781C55.3555 80.3047 54.8906 79.668 53.9609 79.668C53.4805 79.668 53.082 79.8496 52.7656 80.2129C52.4531 80.5723 52.2969 81.0273 52.2969 81.5781V85H51.3359V79H52.2969V79.9961H52.3203C52.7734 79.2383 53.4297 78.8594 54.2891 78.8594C54.9453 78.8594 55.4473 79.0723 55.7949 79.498C56.1426 79.9199 56.3164 80.5312 56.3164 81.332V85ZM66.4062 85H65.4453V81.5781C65.4453 80.3047 64.9805 79.668 64.0508 79.668C63.5703 79.668 63.1719 79.8496 62.8555 80.2129C62.543 80.5723 62.3867 81.0273 62.3867 81.5781V85H61.4258V79H62.3867V79.9961H62.4102C62.8633 79.2383 63.5195 78.8594 64.3789 78.8594C65.0352 78.8594 65.5371 79.0723 65.8848 79.498C66.2324 79.9199 66.4062 80.5312 66.4062 81.332V85ZM68.7148 77.4766C68.543 77.4766 68.3965 77.418 68.2754 77.3008C68.1543 77.1836 68.0938 77.0352 68.0938 76.8555C68.0938 76.6758 68.1543 76.5273 68.2754 76.4102C68.3965 76.2891 68.543 76.2285 68.7148 76.2285C68.8906 76.2285 69.0391 76.2891 69.1602 76.4102C69.2852 76.5273 69.3477 76.6758 69.3477 76.8555C69.3477 77.0273 69.2852 77.1738 69.1602 77.2949C69.0391 77.416 68.8906 77.4766 68.7148 77.4766ZM69.1836 85H68.2227V79H69.1836V85ZM75.9512 82.2402H71.7148C71.7305 82.9082 71.9102 83.4238 72.2539 83.7871C72.5977 84.1504 73.0703 84.332 73.6719 84.332C74.3477 84.332 74.9688 84.1094 75.5352 83.6641V84.5664C75.0078 84.9492 74.3105 85.1406 73.4434 85.1406C72.5957 85.1406 71.9297 84.8691 71.4453 84.3262C70.9609 83.7793 70.7188 83.0117 70.7188 82.0234C70.7188 81.0898 70.9824 80.3301 71.5098 79.7441C72.041 79.1543 72.6992 78.8594 73.4844 78.8594C74.2695 78.8594 74.877 79.1133 75.3066 79.6211C75.7363 80.1289 75.9512 80.834 75.9512 81.7363V82.2402ZM74.9668 81.4258C74.9629 80.8711 74.8281 80.4395 74.5625 80.1309C74.3008 79.8223 73.9355 79.668 73.4668 79.668C73.0137 79.668 72.6289 79.8301 72.3125 80.1543C71.9961 80.4785 71.8008 80.9023 71.7266 81.4258H74.9668ZM80.1934 84.9414C79.9668 85.0664 79.668 85.1289 79.2969 85.1289C78.2461 85.1289 77.7207 84.543 77.7207 83.3711V79.8203H76.6895V79H77.7207V77.5352L78.6816 77.2246V79H80.1934V79.8203H78.6816V83.2012C78.6816 83.6035 78.75 83.8906 78.8867 84.0625C79.0234 84.2344 79.25 84.3203 79.5664 84.3203C79.8086 84.3203 80.0176 84.2539 80.1934 84.1211V84.9414ZM38.0879 101H37.127V92.1172H38.0879V101ZM44.8555 98.2402H40.6191C40.6348 98.9082 40.8145 99.4238 41.1582 99.7871C41.502 100.15 41.9746 100.332 42.5762 100.332C43.252 100.332 43.873 100.109 44.4395 99.6641V100.566C43.9121 100.949 43.2148 101.141 42.3477 101.141C41.5 101.141 40.834 100.869 40.3496 100.326C39.8652 99.7793 39.623 99.0117 39.623 98.0234C39.623 97.0898 39.8867 96.3301 40.4141 95.7441C40.9453 95.1543 41.6035 94.8594 42.3887 94.8594C43.1738 94.8594 43.7812 95.1133 44.2109 95.6211C44.6406 96.1289 44.8555 96.834 44.8555 97.7363V98.2402ZM43.8711 97.4258C43.8672 96.8711 43.7324 96.4395 43.4668 96.1309C43.2051 95.8223 42.8398 95.668 42.3711 95.668C41.918 95.668 41.5332 95.8301 41.2168 96.1543C40.9004 96.4785 40.7051 96.9023 40.6309 97.4258H43.8711ZM50.498 95.2754L46.9473 100.18H50.4629V101H45.5352V100.701L49.0859 95.8203H45.8691V95H50.498V95.2754ZM56.5625 98.2402H52.3262C52.3418 98.9082 52.5215 99.4238 52.8652 99.7871C53.209 100.15 53.6816 100.332 54.2832 100.332C54.959 100.332 55.5801 100.109 56.1465 99.6641V100.566C55.6191 100.949 54.9219 101.141 54.0547 101.141C53.207 101.141 52.541 100.869 52.0566 100.326C51.5723 99.7793 51.3301 99.0117 51.3301 98.0234C51.3301 97.0898 51.5938 96.3301 52.1211 95.7441C52.6523 95.1543 53.3105 94.8594 54.0957 94.8594C54.8809 94.8594 55.4883 95.1133 55.918 95.6211C56.3477 96.1289 56.5625 96.834 56.5625 97.7363V98.2402ZM55.5781 97.4258C55.5742 96.8711 55.4395 96.4395 55.1738 96.1309C54.9121 95.8223 54.5469 95.668 54.0781 95.668C53.625 95.668 53.2402 95.8301 52.9238 96.1543C52.6074 96.4785 52.4121 96.9023 52.3379 97.4258H55.5781ZM63.002 101H62.041V97.5781C62.041 96.3047 61.5762 95.668 60.6465 95.668C60.166 95.668 59.7676 95.8496 59.4512 96.2129C59.1387 96.5723 58.9824 97.0273 58.9824 97.5781V101H58.0215V95H58.9824V95.9961H59.0059C59.459 95.2383 60.1152 94.8594 60.9746 94.8594C61.6309 94.8594 62.1328 95.0723 62.4805 95.498C62.8281 95.9199 63.002 96.5312 63.002 97.332V101Z" fill="#020057"/>
</svg>
