<svg width="100%" viewBox="0 0 148 147" fill="none" xmlns="http://www.w3.org/2000/svg">
<g filter="url(#filter0_dd_3872_63015)">
<rect x="8" y="4" width="132" height="132" fill="#FBFBFE"/>
<rect x="8.5" y="4.5" width="131" height="131" stroke="#827DFF" stroke-dasharray="4 4"/>
<rect width="100" height="96" transform="translate(24 22)" fill="#FBFBFE"/>
<path d="M65.4247 32.5756C65.1903 32.3413 64.8104 32.3413 64.5761 32.5756C64.3418 32.81 64.3418 33.1899 64.5761 33.4242L66.0974 34.9455C65.7833 35.4197 65.6004 35.9885 65.6004 36.5999V47.3999C65.6004 49.0568 66.9435 50.3999 68.6004 50.3999H79.4004C80.0118 50.3999 80.5806 50.217 81.0548 49.9029L82.5761 51.4242C82.8104 51.6585 83.1903 51.6585 83.4247 51.4242C83.659 51.1899 83.659 50.81 83.4247 50.5756L65.4247 32.5756ZM80.1764 49.0245C79.9415 49.1369 79.6783 49.1999 79.4004 49.1999H68.6004C67.6063 49.1999 66.8004 48.394 66.8004 47.3999V38.3999H69.5519L80.1764 49.0245ZM81.2004 38.3999V46.6543L82.3706 47.8245C82.3902 47.6858 82.4004 47.544 82.4004 47.3999V36.5999C82.4004 34.943 81.0572 33.5999 79.4004 33.5999H68.6004C68.4563 33.5999 68.3145 33.6101 68.1758 33.6297L72.946 38.3999H81.2004Z" fill="#020057"/>
<path d="M49.8418 74.6484C49.2207 74.9766 48.4473 75.1406 47.5215 75.1406C46.3262 75.1406 45.3691 74.7559 44.6504 73.9863C43.9316 73.2168 43.5723 72.207 43.5723 70.957C43.5723 69.6133 43.9766 68.5273 44.7852 67.6992C45.5938 66.8711 46.6191 66.457 47.8613 66.457C48.6582 66.457 49.3184 66.5723 49.8418 66.8027V67.8516C49.2402 67.5156 48.5762 67.3477 47.8496 67.3477C46.8848 67.3477 46.1016 67.6699 45.5 68.3145C44.9023 68.959 44.6035 69.8203 44.6035 70.8984C44.6035 71.9219 44.8828 72.7383 45.4414 73.3477C46.0039 73.9531 46.7402 74.2559 47.6504 74.2559C48.4941 74.2559 49.2246 74.0684 49.8418 73.6934V74.6484ZM52.3848 75H51.4238V66.1172H52.3848V75ZM58.625 75H57.6641V74.0625H57.6406C57.2227 74.7812 56.6074 75.1406 55.7949 75.1406C55.1973 75.1406 54.7285 74.9824 54.3887 74.666C54.0527 74.3496 53.8848 73.9297 53.8848 73.4062C53.8848 72.2852 54.5449 71.6328 55.8652 71.4492L57.6641 71.1973C57.6641 70.1777 57.252 69.668 56.4277 69.668C55.7051 69.668 55.0527 69.9141 54.4707 70.4062V69.4219C55.0605 69.0469 55.7402 68.8594 56.5098 68.8594C57.9199 68.8594 58.625 69.6055 58.625 71.0977V75ZM57.6641 71.9648L56.2168 72.1641C55.7715 72.2266 55.4355 72.3379 55.209 72.498C54.9824 72.6543 54.8691 72.9336 54.8691 73.3359C54.8691 73.6289 54.9727 73.8691 55.1797 74.0566C55.3906 74.2402 55.6699 74.332 56.0176 74.332C56.4941 74.332 56.8867 74.166 57.1953 73.834C57.5078 73.498 57.6641 73.0742 57.6641 72.5625V71.9648ZM63.5645 69.9727C63.3965 69.8438 63.1543 69.7793 62.8379 69.7793C62.4277 69.7793 62.084 69.9727 61.8066 70.3594C61.5332 70.7461 61.3965 71.2734 61.3965 71.9414V75H60.4355V69H61.3965V70.2363H61.4199C61.5566 69.8145 61.7656 69.4863 62.0469 69.252C62.3281 69.0137 62.6426 68.8945 62.9902 68.8945C63.2402 68.8945 63.4316 68.9219 63.5645 68.9766V69.9727ZM65.0996 67.4766C64.9277 67.4766 64.7812 67.418 64.6602 67.3008C64.5391 67.1836 64.4785 67.0352 64.4785 66.8555C64.4785 66.6758 64.5391 66.5273 64.6602 66.4102C64.7812 66.2891 64.9277 66.2285 65.0996 66.2285C65.2754 66.2285 65.4238 66.2891 65.5449 66.4102C65.6699 66.5273 65.7324 66.6758 65.7324 66.8555C65.7324 67.0273 65.6699 67.1738 65.5449 67.2949C65.4238 67.416 65.2754 67.4766 65.0996 67.4766ZM65.5684 75H64.6074V69H65.5684V75ZM70.2969 74.9414C70.0703 75.0664 69.7715 75.1289 69.4004 75.1289C68.3496 75.1289 67.8242 74.543 67.8242 73.3711V69.8203H66.793V69H67.8242V67.5352L68.7852 67.2246V69H70.2969V69.8203H68.7852V73.2012C68.7852 73.6035 68.8535 73.8906 68.9902 74.0625C69.127 74.2344 69.3535 74.3203 69.6699 74.3203C69.9121 74.3203 70.1211 74.2539 70.2969 74.1211V74.9414ZM76.3555 69L73.5957 75.9609C73.1035 77.2031 72.4121 77.8242 71.5215 77.8242C71.2715 77.8242 71.0625 77.7988 70.8945 77.748V76.8867C71.1016 76.957 71.291 76.9922 71.4629 76.9922C71.9473 76.9922 72.3105 76.7031 72.5527 76.125L73.0332 74.9883L70.6895 69H71.7559L73.3789 73.6172C73.3984 73.6758 73.4395 73.8281 73.502 74.0742H73.5371C73.5566 73.9805 73.5957 73.832 73.6543 73.6289L75.3594 69H76.3555ZM84.7754 74.7246C84.3145 75.002 83.7676 75.1406 83.1348 75.1406C82.2793 75.1406 81.5879 74.8633 81.0605 74.3086C80.5371 73.75 80.2754 73.0273 80.2754 72.1406C80.2754 71.1523 80.5586 70.3594 81.125 69.7617C81.6914 69.1602 82.4473 68.8594 83.3926 68.8594C83.9199 68.8594 84.3848 68.957 84.7871 69.1523V70.1367C84.3418 69.8242 83.8652 69.668 83.3574 69.668C82.7441 69.668 82.2402 69.8887 81.8457 70.3301C81.4551 70.7676 81.2598 71.3438 81.2598 72.0586C81.2598 72.7617 81.4434 73.3164 81.8105 73.7227C82.1816 74.1289 82.6777 74.332 83.2988 74.332C83.8223 74.332 84.3145 74.1582 84.7754 73.8105V74.7246ZM90.5234 75H89.5625V74.0625H89.5391C89.1211 74.7812 88.5059 75.1406 87.6934 75.1406C87.0957 75.1406 86.627 74.9824 86.2871 74.666C85.9512 74.3496 85.7832 73.9297 85.7832 73.4062C85.7832 72.2852 86.4434 71.6328 87.7637 71.4492L89.5625 71.1973C89.5625 70.1777 89.1504 69.668 88.3262 69.668C87.6035 69.668 86.9512 69.9141 86.3691 70.4062V69.4219C86.959 69.0469 87.6387 68.8594 88.4082 68.8594C89.8184 68.8594 90.5234 69.6055 90.5234 71.0977V75ZM89.5625 71.9648L88.1152 72.1641C87.6699 72.2266 87.334 72.3379 87.1074 72.498C86.8809 72.6543 86.7676 72.9336 86.7676 73.3359C86.7676 73.6289 86.8711 73.8691 87.0781 74.0566C87.2891 74.2402 87.5684 74.332 87.916 74.332C88.3926 74.332 88.7852 74.166 89.0938 73.834C89.4062 73.498 89.5625 73.0742 89.5625 72.5625V71.9648ZM97.3145 75H96.3535V71.5781C96.3535 70.3047 95.8887 69.668 94.959 69.668C94.4785 69.668 94.0801 69.8496 93.7637 70.2129C93.4512 70.5723 93.2949 71.0273 93.2949 71.5781V75H92.334V69H93.2949V69.9961H93.3184C93.7715 69.2383 94.4277 68.8594 95.2871 68.8594C95.9434 68.8594 96.4453 69.0723 96.793 69.498C97.1406 69.9199 97.3145 70.5312 97.3145 71.332V75ZM100.314 66.457L99.4941 69.0703H98.8027L99.4531 66.457H100.314ZM104.668 74.9414C104.441 75.0664 104.143 75.1289 103.771 75.1289C102.721 75.1289 102.195 74.543 102.195 73.3711V69.8203H101.164V69H102.195V67.5352L103.156 67.2246V69H104.668V69.8203H103.156V73.2012C103.156 73.6035 103.225 73.8906 103.361 74.0625C103.498 74.2344 103.725 74.3203 104.041 74.3203C104.283 74.3203 104.492 74.2539 104.668 74.1211V74.9414ZM36.1309 85.9727C35.9629 85.8438 35.7207 85.7793 35.4043 85.7793C34.9941 85.7793 34.6504 85.9727 34.373 86.3594C34.0996 86.7461 33.9629 87.2734 33.9629 87.9414V91H33.002V85H33.9629V86.2363H33.9863C34.123 85.8145 34.332 85.4863 34.6133 85.252C34.8945 85.0137 35.209 84.8945 35.5566 84.8945C35.8066 84.8945 35.998 84.9219 36.1309 84.9766V85.9727ZM41.9961 88.2402H37.7598C37.7754 88.9082 37.9551 89.4238 38.2988 89.7871C38.6426 90.1504 39.1152 90.332 39.7168 90.332C40.3926 90.332 41.0137 90.1094 41.5801 89.6641V90.5664C41.0527 90.9492 40.3555 91.1406 39.4883 91.1406C38.6406 91.1406 37.9746 90.8691 37.4902 90.3262C37.0059 89.7793 36.7637 89.0117 36.7637 88.0234C36.7637 87.0898 37.0273 86.3301 37.5547 85.7441C38.0859 85.1543 38.7441 84.8594 39.5293 84.8594C40.3145 84.8594 40.9219 85.1133 41.3516 85.6211C41.7812 86.1289 41.9961 86.834 41.9961 87.7363V88.2402ZM41.0117 87.4258C41.0078 86.8711 40.873 86.4395 40.6074 86.1309C40.3457 85.8223 39.9805 85.668 39.5117 85.668C39.0586 85.668 38.6738 85.8301 38.3574 86.1543C38.041 86.4785 37.8457 86.9023 37.7715 87.4258H41.0117ZM47.75 91H46.7891V90.0625H46.7656C46.3477 90.7812 45.7324 91.1406 44.9199 91.1406C44.3223 91.1406 43.8535 90.9824 43.5137 90.666C43.1777 90.3496 43.0098 89.9297 43.0098 89.4062C43.0098 88.2852 43.6699 87.6328 44.9902 87.4492L46.7891 87.1973C46.7891 86.1777 46.377 85.668 45.5527 85.668C44.8301 85.668 44.1777 85.9141 43.5957 86.4062V85.4219C44.1855 85.0469 44.8652 84.8594 45.6348 84.8594C47.0449 84.8594 47.75 85.6055 47.75 87.0977V91ZM46.7891 87.9648L45.3418 88.1641C44.8965 88.2266 44.5605 88.3379 44.334 88.498C44.1074 88.6543 43.9941 88.9336 43.9941 89.3359C43.9941 89.6289 44.0977 89.8691 44.3047 90.0566C44.5156 90.2402 44.7949 90.332 45.1426 90.332C45.6191 90.332 46.0117 90.166 46.3203 89.834C46.6328 89.498 46.7891 89.0742 46.7891 88.5625V87.9648ZM54.6816 91H53.7207V89.9805H53.6973C53.252 90.7539 52.5645 91.1406 51.6348 91.1406C50.8809 91.1406 50.2773 90.873 49.8242 90.3379C49.375 89.7988 49.1504 89.0664 49.1504 88.1406C49.1504 87.1484 49.4004 86.3535 49.9004 85.7559C50.4004 85.1582 51.0664 84.8594 51.8984 84.8594C52.7227 84.8594 53.3223 85.1836 53.6973 85.832H53.7207V82.1172H54.6816V91ZM53.7207 88.2871V87.4023C53.7207 86.918 53.5605 86.5078 53.2402 86.1719C52.9199 85.8359 52.5137 85.668 52.0215 85.668C51.4355 85.668 50.9746 85.8828 50.6387 86.3125C50.3027 86.7422 50.1348 87.3359 50.1348 88.0938C50.1348 88.7852 50.2949 89.332 50.6152 89.7344C50.9395 90.1328 51.373 90.332 51.916 90.332C52.4512 90.332 52.8848 90.1387 53.2168 89.752C53.5527 89.3652 53.7207 88.877 53.7207 88.2871ZM62.7031 90.9414C62.4766 91.0664 62.1777 91.1289 61.8066 91.1289C60.7559 91.1289 60.2305 90.543 60.2305 89.3711V85.8203H59.1992V85H60.2305V83.5352L61.1914 83.2246V85H62.7031V85.8203H61.1914V89.2012C61.1914 89.6035 61.2598 89.8906 61.3965 90.0625C61.5332 90.2344 61.7598 90.3203 62.0762 90.3203C62.3184 90.3203 62.5273 90.2539 62.7031 90.1211V90.9414ZM68.9668 91H68.0059V87.543C68.0059 86.293 67.541 85.668 66.6113 85.668C66.1426 85.668 65.748 85.8496 65.4277 86.2129C65.1074 86.5723 64.9473 87.0352 64.9473 87.6016V91H63.9863V82.1172H64.9473V85.9961H64.9707C65.4316 85.2383 66.0879 84.8594 66.9395 84.8594C68.291 84.8594 68.9668 85.6738 68.9668 87.3027V91ZM71.2754 83.4766C71.1035 83.4766 70.957 83.418 70.8359 83.3008C70.7148 83.1836 70.6543 83.0352 70.6543 82.8555C70.6543 82.6758 70.7148 82.5273 70.8359 82.4102C70.957 82.2891 71.1035 82.2285 71.2754 82.2285C71.4512 82.2285 71.5996 82.2891 71.7207 82.4102C71.8457 82.5273 71.9082 82.6758 71.9082 82.8555C71.9082 83.0273 71.8457 83.1738 71.7207 83.2949C71.5996 83.416 71.4512 83.4766 71.2754 83.4766ZM71.7441 91H70.7832V85H71.7441V91ZM76.8184 85.9727C76.6504 85.8438 76.4082 85.7793 76.0918 85.7793C75.6816 85.7793 75.3379 85.9727 75.0605 86.3594C74.7871 86.7461 74.6504 87.2734 74.6504 87.9414V91H73.6895V85H74.6504V86.2363H74.6738C74.8105 85.8145 75.0195 85.4863 75.3008 85.252C75.582 85.0137 75.8965 84.8945 76.2441 84.8945C76.4941 84.8945 76.6855 84.9219 76.8184 84.9766V85.9727ZM82.9824 91H82.0215V89.9805H81.998C81.5527 90.7539 80.8652 91.1406 79.9355 91.1406C79.1816 91.1406 78.5781 90.873 78.125 90.3379C77.6758 89.7988 77.4512 89.0664 77.4512 88.1406C77.4512 87.1484 77.7012 86.3535 78.2012 85.7559C78.7012 85.1582 79.3672 84.8594 80.1992 84.8594C81.0234 84.8594 81.623 85.1836 81.998 85.832H82.0215V82.1172H82.9824V91ZM82.0215 88.2871V87.4023C82.0215 86.918 81.8613 86.5078 81.541 86.1719C81.2207 85.8359 80.8145 85.668 80.3223 85.668C79.7363 85.668 79.2754 85.8828 78.9395 86.3125C78.6035 86.7422 78.4355 87.3359 78.4355 88.0938C78.4355 88.7852 78.5957 89.332 78.916 89.7344C79.2402 90.1328 79.6738 90.332 80.2168 90.332C80.752 90.332 81.1855 90.1387 81.5176 89.752C81.8535 89.3652 82.0215 88.877 82.0215 88.2871ZM87.998 88.0352H84.7988V87.2793H87.998V88.0352ZM90.7168 90.1328H90.6934V93.7598H89.7324V85H90.6934V86.0547H90.7168C91.1895 85.2578 91.8809 84.8594 92.791 84.8594C93.5645 84.8594 94.168 85.1289 94.6016 85.668C95.0352 86.2031 95.252 86.9219 95.252 87.8242C95.252 88.8281 95.0078 89.6328 94.5195 90.2383C94.0312 90.8398 93.3633 91.1406 92.5156 91.1406C91.7383 91.1406 91.1387 90.8047 90.7168 90.1328ZM90.6934 87.7129V88.5508C90.6934 89.0469 90.8535 89.4688 91.1738 89.8164C91.498 90.1602 91.9082 90.332 92.4043 90.332C92.9863 90.332 93.4414 90.1094 93.7695 89.6641C94.1016 89.2188 94.2676 88.5996 94.2676 87.8066C94.2676 87.1387 94.1133 86.6152 93.8047 86.2363C93.4961 85.8574 93.0781 85.668 92.5508 85.668C91.9922 85.668 91.543 85.8633 91.2031 86.2539C90.8633 86.6406 90.6934 87.127 90.6934 87.7129ZM101.082 91H100.121V90.0625H100.098C99.6797 90.7812 99.0645 91.1406 98.252 91.1406C97.6543 91.1406 97.1855 90.9824 96.8457 90.666C96.5098 90.3496 96.3418 89.9297 96.3418 89.4062C96.3418 88.2852 97.002 87.6328 98.3223 87.4492L100.121 87.1973C100.121 86.1777 99.709 85.668 98.8848 85.668C98.1621 85.668 97.5098 85.9141 96.9277 86.4062V85.4219C97.5176 85.0469 98.1973 84.8594 98.9668 84.8594C100.377 84.8594 101.082 85.6055 101.082 87.0977V91ZM100.121 87.9648L98.6738 88.1641C98.2285 88.2266 97.8926 88.3379 97.666 88.498C97.4395 88.6543 97.3262 88.9336 97.3262 89.3359C97.3262 89.6289 97.4297 89.8691 97.6367 90.0566C97.8477 90.2402 98.127 90.332 98.4746 90.332C98.9512 90.332 99.3438 90.166 99.6523 89.834C99.9648 89.498 100.121 89.0742 100.121 88.5625V87.9648ZM106.021 85.9727C105.854 85.8438 105.611 85.7793 105.295 85.7793C104.885 85.7793 104.541 85.9727 104.264 86.3594C103.99 86.7461 103.854 87.2734 103.854 87.9414V91H102.893V85H103.854V86.2363H103.877C104.014 85.8145 104.223 85.4863 104.504 85.252C104.785 85.0137 105.1 84.8945 105.447 84.8945C105.697 84.8945 105.889 84.9219 106.021 84.9766V85.9727ZM109.848 90.9414C109.621 91.0664 109.322 91.1289 108.951 91.1289C107.9 91.1289 107.375 90.543 107.375 89.3711V85.8203H106.344V85H107.375V83.5352L108.336 83.2246V85H109.848V85.8203H108.336V89.2012C108.336 89.6035 108.404 89.8906 108.541 90.0625C108.678 90.2344 108.904 90.3203 109.221 90.3203C109.463 90.3203 109.672 90.2539 109.848 90.1211V90.9414ZM115.906 85L113.146 91.9609C112.654 93.2031 111.963 93.8242 111.072 93.8242C110.822 93.8242 110.613 93.7988 110.445 93.748V92.8867C110.652 92.957 110.842 92.9922 111.014 92.9922C111.498 92.9922 111.861 92.7031 112.104 92.125L112.584 90.9883L110.24 85H111.307L112.93 89.6172C112.949 89.6758 112.99 89.8281 113.053 90.0742H113.088C113.107 89.9805 113.146 89.832 113.205 89.6289L114.91 85H115.906ZM55.0859 99.4766C54.9141 99.4766 54.7676 99.418 54.6465 99.3008C54.5254 99.1836 54.4648 99.0352 54.4648 98.8555C54.4648 98.6758 54.5254 98.5273 54.6465 98.4102C54.7676 98.2891 54.9141 98.2285 55.0859 98.2285C55.2617 98.2285 55.4102 98.2891 55.5312 98.4102C55.6562 98.5273 55.7188 98.6758 55.7188 98.8555C55.7188 99.0273 55.6562 99.1738 55.5312 99.2949C55.4102 99.416 55.2617 99.4766 55.0859 99.4766ZM55.5547 107H54.5938V101H55.5547V107ZM61.8945 99.4883H58.6133V102.395H61.6484V103.279H58.6133V107H57.6289V98.5977H61.8945V99.4883ZM66.4883 101.973C66.3203 101.844 66.0781 101.779 65.7617 101.779C65.3516 101.779 65.0078 101.973 64.7305 102.359C64.457 102.746 64.3203 103.273 64.3203 103.941V107H63.3594V101H64.3203V102.236H64.3438C64.4805 101.814 64.6895 101.486 64.9707 101.252C65.252 101.014 65.5664 100.895 65.9141 100.895C66.1641 100.895 66.3555 100.922 66.4883 100.977V101.973ZM71.8262 107H70.8652V106.062H70.8418C70.4238 106.781 69.8086 107.141 68.9961 107.141C68.3984 107.141 67.9297 106.982 67.5898 106.666C67.2539 106.35 67.0859 105.93 67.0859 105.406C67.0859 104.285 67.7461 103.633 69.0664 103.449L70.8652 103.197C70.8652 102.178 70.4531 101.668 69.6289 101.668C68.9062 101.668 68.2539 101.914 67.6719 102.406V101.422C68.2617 101.047 68.9414 100.859 69.7109 100.859C71.1211 100.859 71.8262 101.605 71.8262 103.098V107ZM70.8652 103.965L69.418 104.164C68.9727 104.227 68.6367 104.338 68.4102 104.498C68.1836 104.654 68.0703 104.934 68.0703 105.336C68.0703 105.629 68.1738 105.869 68.3809 106.057C68.5918 106.24 68.8711 106.332 69.2188 106.332C69.6953 106.332 70.0879 106.166 70.3965 105.834C70.709 105.498 70.8652 105.074 70.8652 104.562V103.965ZM82.1562 107H81.1953V103.555C81.1953 102.891 81.0918 102.41 80.8848 102.113C80.6816 101.816 80.3379 101.668 79.8535 101.668C79.4434 101.668 79.0938 101.855 78.8047 102.23C78.5195 102.605 78.377 103.055 78.377 103.578V107H77.416V103.438C77.416 102.258 76.9609 101.668 76.0508 101.668C75.6289 101.668 75.2812 101.846 75.0078 102.201C74.7344 102.553 74.5977 103.012 74.5977 103.578V107H73.6367V101H74.5977V101.949H74.6211C75.0469 101.223 75.668 100.859 76.4844 100.859C76.8945 100.859 77.252 100.975 77.5566 101.205C77.8613 101.432 78.0703 101.73 78.1836 102.102C78.6289 101.273 79.293 100.859 80.1758 100.859C81.4961 100.859 82.1562 101.674 82.1562 103.303V107ZM88.7949 104.24H84.5586C84.5742 104.908 84.7539 105.424 85.0977 105.787C85.4414 106.15 85.9141 106.332 86.5156 106.332C87.1914 106.332 87.8125 106.109 88.3789 105.664V106.566C87.8516 106.949 87.1543 107.141 86.2871 107.141C85.4395 107.141 84.7734 106.869 84.2891 106.326C83.8047 105.779 83.5625 105.012 83.5625 104.023C83.5625 103.09 83.8262 102.33 84.3535 101.744C84.8848 101.154 85.543 100.859 86.3281 100.859C87.1133 100.859 87.7207 101.113 88.1504 101.621C88.5801 102.129 88.7949 102.834 88.7949 103.736V104.24ZM87.8105 103.426C87.8066 102.871 87.6719 102.439 87.4062 102.131C87.1445 101.822 86.7793 101.668 86.3105 101.668C85.8574 101.668 85.4727 101.83 85.1562 102.154C84.8398 102.479 84.6445 102.902 84.5703 103.426H87.8105ZM89.8906 106.783V105.752C90.4141 106.139 90.9902 106.332 91.6191 106.332C92.4629 106.332 92.8848 106.051 92.8848 105.488C92.8848 105.328 92.8477 105.193 92.7734 105.084C92.7031 104.971 92.6055 104.871 92.4805 104.785C92.3594 104.699 92.2148 104.623 92.0469 104.557C91.8828 104.486 91.7051 104.414 91.5137 104.34C91.248 104.234 91.0137 104.129 90.8105 104.023C90.6113 103.914 90.4434 103.793 90.3066 103.66C90.1738 103.523 90.0723 103.369 90.002 103.197C89.9355 103.025 89.9023 102.824 89.9023 102.594C89.9023 102.312 89.9668 102.064 90.0957 101.85C90.2246 101.631 90.3965 101.449 90.6113 101.305C90.8262 101.156 91.0703 101.045 91.3438 100.971C91.6211 100.896 91.9062 100.859 92.1992 100.859C92.7188 100.859 93.1836 100.949 93.5938 101.129V102.102C93.1523 101.812 92.6445 101.668 92.0703 101.668C91.8906 101.668 91.7285 101.689 91.584 101.732C91.4395 101.771 91.3145 101.828 91.209 101.902C91.1074 101.977 91.0273 102.066 90.9688 102.172C90.9141 102.273 90.8867 102.387 90.8867 102.512C90.8867 102.668 90.9141 102.799 90.9688 102.904C91.0273 103.01 91.1113 103.104 91.2207 103.186C91.3301 103.268 91.4629 103.342 91.6191 103.408C91.7754 103.475 91.9531 103.547 92.1523 103.625C92.418 103.727 92.6562 103.832 92.8672 103.941C93.0781 104.047 93.2578 104.168 93.4062 104.305C93.5547 104.438 93.668 104.592 93.7461 104.768C93.8281 104.943 93.8691 105.152 93.8691 105.395C93.8691 105.691 93.8027 105.949 93.6699 106.168C93.541 106.387 93.3672 106.568 93.1484 106.713C92.9297 106.857 92.6777 106.965 92.3926 107.035C92.1074 107.105 91.8086 107.141 91.4961 107.141C90.8789 107.141 90.3438 107.021 89.8906 106.783Z" fill="#020057"/>
</g>
<defs>
<filter id="filter0_dd_3872_63015" x="0.8" y="2.38419e-07" width="146.4" height="146.4" filterUnits="userSpaceOnUse" color-interpolation-filters="sRGB">
<feFlood flood-opacity="0" result="BackgroundImageFix"/>
<feColorMatrix in="SourceAlpha" type="matrix" values="0 0 0 0 0 0 0 0 0 0 0 0 0 0 0 0 0 0 127 0" result="hardAlpha"/>
<feOffset dy="3.2"/>
<feGaussianBlur stdDeviation="3.6"/>
<feColorMatrix type="matrix" values="0 0 0 0 0.513726 0 0 0 0 0.494118 0 0 0 0 1 0 0 0 0.12 0"/>
<feBlend mode="normal" in2="BackgroundImageFix" result="effect1_dropShadow_3872_63015"/>
<feColorMatrix in="SourceAlpha" type="matrix" values="0 0 0 0 0 0 0 0 0 0 0 0 0 0 0 0 0 0 127 0" result="hardAlpha"/>
<feOffset dy="0.6"/>
<feGaussianBlur stdDeviation="0.9"/>
<feColorMatrix type="matrix" values="0 0 0 0 0.513726 0 0 0 0 0.494118 0 0 0 0 1 0 0 0 0.1 0"/>
<feBlend mode="normal" in2="effect1_dropShadow_3872_63015" result="effect2_dropShadow_3872_63015"/>
<feBlend mode="normal" in="SourceGraphic" in2="effect2_dropShadow_3872_63015" result="shape"/>
</filter>
</defs>
</svg>
