<svg width="100" height="96" viewBox="0 0 100 96" fill="none" xmlns="http://www.w3.org/2000/svg">
<rect width="100" height="96" fill="#FBFBFE"/>
<path d="M41.4247 10.5756C41.1903 10.3413 40.8104 10.3413 40.5761 10.5756C40.3418 10.81 40.3418 11.1899 40.5761 11.4242L42.0974 12.9455C41.7833 13.4197 41.6004 13.9885 41.6004 14.5999V25.3999C41.6004 27.0568 42.9435 28.3999 44.6004 28.3999H55.4004C56.0118 28.3999 56.5806 28.217 57.0548 27.9029L58.5761 29.4242C58.8104 29.6585 59.1903 29.6585 59.4247 29.4242C59.659 29.1899 59.659 28.81 59.4247 28.5756L41.4247 10.5756ZM56.1764 27.0245C55.9415 27.1369 55.6783 27.1999 55.4004 27.1999H44.6004C43.6063 27.1999 42.8004 26.394 42.8004 25.3999V16.3999H45.5519L56.1764 27.0245ZM57.2004 16.3999V24.6543L58.3706 25.8245C58.3902 25.6858 58.4004 25.544 58.4004 25.3999V14.5999C58.4004 12.943 57.0572 11.5999 55.4004 11.5999H44.6004C44.4563 11.5999 44.3145 11.6101 44.1758 11.6297L48.946 16.3999H57.2004Z" fill="#020057"/>
<path d="M25.8418 52.6484C25.2207 52.9766 24.4473 53.1406 23.5215 53.1406C22.3262 53.1406 21.3691 52.7559 20.6504 51.9863C19.9316 51.2168 19.5723 50.207 19.5723 48.957C19.5723 47.6133 19.9766 46.5273 20.7852 45.6992C21.5938 44.8711 22.6191 44.457 23.8613 44.457C24.6582 44.457 25.3184 44.5723 25.8418 44.8027V45.8516C25.2402 45.5156 24.5762 45.3477 23.8496 45.3477C22.8848 45.3477 22.1016 45.6699 21.5 46.3145C20.9023 46.959 20.6035 47.8203 20.6035 48.8984C20.6035 49.9219 20.8828 50.7383 21.4414 51.3477C22.0039 51.9531 22.7402 52.2559 23.6504 52.2559C24.4941 52.2559 25.2246 52.0684 25.8418 51.6934V52.6484ZM28.3848 53H27.4238V44.1172H28.3848V53ZM34.625 53H33.6641V52.0625H33.6406C33.2227 52.7812 32.6074 53.1406 31.7949 53.1406C31.1973 53.1406 30.7285 52.9824 30.3887 52.666C30.0527 52.3496 29.8848 51.9297 29.8848 51.4062C29.8848 50.2852 30.5449 49.6328 31.8652 49.4492L33.6641 49.1973C33.6641 48.1777 33.252 47.668 32.4277 47.668C31.7051 47.668 31.0527 47.9141 30.4707 48.4062V47.4219C31.0605 47.0469 31.7402 46.8594 32.5098 46.8594C33.9199 46.8594 34.625 47.6055 34.625 49.0977V53ZM33.6641 49.9648L32.2168 50.1641C31.7715 50.2266 31.4355 50.3379 31.209 50.498C30.9824 50.6543 30.8691 50.9336 30.8691 51.3359C30.8691 51.6289 30.9727 51.8691 31.1797 52.0566C31.3906 52.2402 31.6699 52.332 32.0176 52.332C32.4941 52.332 32.8867 52.166 33.1953 51.834C33.5078 51.498 33.6641 51.0742 33.6641 50.5625V49.9648ZM39.5645 47.9727C39.3965 47.8438 39.1543 47.7793 38.8379 47.7793C38.4277 47.7793 38.084 47.9727 37.8066 48.3594C37.5332 48.7461 37.3965 49.2734 37.3965 49.9414V53H36.4355V47H37.3965V48.2363H37.4199C37.5566 47.8145 37.7656 47.4863 38.0469 47.252C38.3281 47.0137 38.6426 46.8945 38.9902 46.8945C39.2402 46.8945 39.4316 46.9219 39.5645 46.9766V47.9727ZM41.0996 45.4766C40.9277 45.4766 40.7812 45.418 40.6602 45.3008C40.5391 45.1836 40.4785 45.0352 40.4785 44.8555C40.4785 44.6758 40.5391 44.5273 40.6602 44.4102C40.7812 44.2891 40.9277 44.2285 41.0996 44.2285C41.2754 44.2285 41.4238 44.2891 41.5449 44.4102C41.6699 44.5273 41.7324 44.6758 41.7324 44.8555C41.7324 45.0273 41.6699 45.1738 41.5449 45.2949C41.4238 45.416 41.2754 45.4766 41.0996 45.4766ZM41.5684 53H40.6074V47H41.5684V53ZM46.2969 52.9414C46.0703 53.0664 45.7715 53.1289 45.4004 53.1289C44.3496 53.1289 43.8242 52.543 43.8242 51.3711V47.8203H42.793V47H43.8242V45.5352L44.7852 45.2246V47H46.2969V47.8203H44.7852V51.2012C44.7852 51.6035 44.8535 51.8906 44.9902 52.0625C45.127 52.2344 45.3535 52.3203 45.6699 52.3203C45.9121 52.3203 46.1211 52.2539 46.2969 52.1211V52.9414ZM52.3555 47L49.5957 53.9609C49.1035 55.2031 48.4121 55.8242 47.5215 55.8242C47.2715 55.8242 47.0625 55.7988 46.8945 55.748V54.8867C47.1016 54.957 47.291 54.9922 47.4629 54.9922C47.9473 54.9922 48.3105 54.7031 48.5527 54.125L49.0332 52.9883L46.6895 47H47.7559L49.3789 51.6172C49.3984 51.6758 49.4395 51.8281 49.502 52.0742H49.5371C49.5566 51.9805 49.5957 51.832 49.6543 51.6289L51.3594 47H52.3555ZM60.7754 52.7246C60.3145 53.002 59.7676 53.1406 59.1348 53.1406C58.2793 53.1406 57.5879 52.8633 57.0605 52.3086C56.5371 51.75 56.2754 51.0273 56.2754 50.1406C56.2754 49.1523 56.5586 48.3594 57.125 47.7617C57.6914 47.1602 58.4473 46.8594 59.3926 46.8594C59.9199 46.8594 60.3848 46.957 60.7871 47.1523V48.1367C60.3418 47.8242 59.8652 47.668 59.3574 47.668C58.7441 47.668 58.2402 47.8887 57.8457 48.3301C57.4551 48.7676 57.2598 49.3438 57.2598 50.0586C57.2598 50.7617 57.4434 51.3164 57.8105 51.7227C58.1816 52.1289 58.6777 52.332 59.2988 52.332C59.8223 52.332 60.3145 52.1582 60.7754 51.8105V52.7246ZM66.5234 53H65.5625V52.0625H65.5391C65.1211 52.7812 64.5059 53.1406 63.6934 53.1406C63.0957 53.1406 62.627 52.9824 62.2871 52.666C61.9512 52.3496 61.7832 51.9297 61.7832 51.4062C61.7832 50.2852 62.4434 49.6328 63.7637 49.4492L65.5625 49.1973C65.5625 48.1777 65.1504 47.668 64.3262 47.668C63.6035 47.668 62.9512 47.9141 62.3691 48.4062V47.4219C62.959 47.0469 63.6387 46.8594 64.4082 46.8594C65.8184 46.8594 66.5234 47.6055 66.5234 49.0977V53ZM65.5625 49.9648L64.1152 50.1641C63.6699 50.2266 63.334 50.3379 63.1074 50.498C62.8809 50.6543 62.7676 50.9336 62.7676 51.3359C62.7676 51.6289 62.8711 51.8691 63.0781 52.0566C63.2891 52.2402 63.5684 52.332 63.916 52.332C64.3926 52.332 64.7852 52.166 65.0938 51.834C65.4062 51.498 65.5625 51.0742 65.5625 50.5625V49.9648ZM73.3145 53H72.3535V49.5781C72.3535 48.3047 71.8887 47.668 70.959 47.668C70.4785 47.668 70.0801 47.8496 69.7637 48.2129C69.4512 48.5723 69.2949 49.0273 69.2949 49.5781V53H68.334V47H69.2949V47.9961H69.3184C69.7715 47.2383 70.4277 46.8594 71.2871 46.8594C71.9434 46.8594 72.4453 47.0723 72.793 47.498C73.1406 47.9199 73.3145 48.5312 73.3145 49.332V53ZM76.3145 44.457L75.4941 47.0703H74.8027L75.4531 44.457H76.3145ZM80.668 52.9414C80.4414 53.0664 80.1426 53.1289 79.7715 53.1289C78.7207 53.1289 78.1953 52.543 78.1953 51.3711V47.8203H77.1641V47H78.1953V45.5352L79.1562 45.2246V47H80.668V47.8203H79.1562V51.2012C79.1562 51.6035 79.2246 51.8906 79.3613 52.0625C79.498 52.2344 79.7246 52.3203 80.041 52.3203C80.2832 52.3203 80.4922 52.2539 80.668 52.1211V52.9414ZM12.1309 63.9727C11.9629 63.8438 11.7207 63.7793 11.4043 63.7793C10.9941 63.7793 10.6504 63.9727 10.373 64.3594C10.0996 64.7461 9.96289 65.2734 9.96289 65.9414V69H9.00195V63H9.96289V64.2363H9.98633C10.123 63.8145 10.332 63.4863 10.6133 63.252C10.8945 63.0137 11.209 62.8945 11.5566 62.8945C11.8066 62.8945 11.998 62.9219 12.1309 62.9766V63.9727ZM17.9961 66.2402H13.7598C13.7754 66.9082 13.9551 67.4238 14.2988 67.7871C14.6426 68.1504 15.1152 68.332 15.7168 68.332C16.3926 68.332 17.0137 68.1094 17.5801 67.6641V68.5664C17.0527 68.9492 16.3555 69.1406 15.4883 69.1406C14.6406 69.1406 13.9746 68.8691 13.4902 68.3262C13.0059 67.7793 12.7637 67.0117 12.7637 66.0234C12.7637 65.0898 13.0273 64.3301 13.5547 63.7441C14.0859 63.1543 14.7441 62.8594 15.5293 62.8594C16.3145 62.8594 16.9219 63.1133 17.3516 63.6211C17.7812 64.1289 17.9961 64.834 17.9961 65.7363V66.2402ZM17.0117 65.4258C17.0078 64.8711 16.873 64.4395 16.6074 64.1309C16.3457 63.8223 15.9805 63.668 15.5117 63.668C15.0586 63.668 14.6738 63.8301 14.3574 64.1543C14.041 64.4785 13.8457 64.9023 13.7715 65.4258H17.0117ZM23.75 69H22.7891V68.0625H22.7656C22.3477 68.7812 21.7324 69.1406 20.9199 69.1406C20.3223 69.1406 19.8535 68.9824 19.5137 68.666C19.1777 68.3496 19.0098 67.9297 19.0098 67.4062C19.0098 66.2852 19.6699 65.6328 20.9902 65.4492L22.7891 65.1973C22.7891 64.1777 22.377 63.668 21.5527 63.668C20.8301 63.668 20.1777 63.9141 19.5957 64.4062V63.4219C20.1855 63.0469 20.8652 62.8594 21.6348 62.8594C23.0449 62.8594 23.75 63.6055 23.75 65.0977V69ZM22.7891 65.9648L21.3418 66.1641C20.8965 66.2266 20.5605 66.3379 20.334 66.498C20.1074 66.6543 19.9941 66.9336 19.9941 67.3359C19.9941 67.6289 20.0977 67.8691 20.3047 68.0566C20.5156 68.2402 20.7949 68.332 21.1426 68.332C21.6191 68.332 22.0117 68.166 22.3203 67.834C22.6328 67.498 22.7891 67.0742 22.7891 66.5625V65.9648ZM30.6816 69H29.7207V67.9805H29.6973C29.252 68.7539 28.5645 69.1406 27.6348 69.1406C26.8809 69.1406 26.2773 68.873 25.8242 68.3379C25.375 67.7988 25.1504 67.0664 25.1504 66.1406C25.1504 65.1484 25.4004 64.3535 25.9004 63.7559C26.4004 63.1582 27.0664 62.8594 27.8984 62.8594C28.7227 62.8594 29.3223 63.1836 29.6973 63.832H29.7207V60.1172H30.6816V69ZM29.7207 66.2871V65.4023C29.7207 64.918 29.5605 64.5078 29.2402 64.1719C28.9199 63.8359 28.5137 63.668 28.0215 63.668C27.4355 63.668 26.9746 63.8828 26.6387 64.3125C26.3027 64.7422 26.1348 65.3359 26.1348 66.0938C26.1348 66.7852 26.2949 67.332 26.6152 67.7344C26.9395 68.1328 27.373 68.332 27.916 68.332C28.4512 68.332 28.8848 68.1387 29.2168 67.752C29.5527 67.3652 29.7207 66.877 29.7207 66.2871ZM38.7031 68.9414C38.4766 69.0664 38.1777 69.1289 37.8066 69.1289C36.7559 69.1289 36.2305 68.543 36.2305 67.3711V63.8203H35.1992V63H36.2305V61.5352L37.1914 61.2246V63H38.7031V63.8203H37.1914V67.2012C37.1914 67.6035 37.2598 67.8906 37.3965 68.0625C37.5332 68.2344 37.7598 68.3203 38.0762 68.3203C38.3184 68.3203 38.5273 68.2539 38.7031 68.1211V68.9414ZM44.9668 69H44.0059V65.543C44.0059 64.293 43.541 63.668 42.6113 63.668C42.1426 63.668 41.748 63.8496 41.4277 64.2129C41.1074 64.5723 40.9473 65.0352 40.9473 65.6016V69H39.9863V60.1172H40.9473V63.9961H40.9707C41.4316 63.2383 42.0879 62.8594 42.9395 62.8594C44.291 62.8594 44.9668 63.6738 44.9668 65.3027V69ZM47.2754 61.4766C47.1035 61.4766 46.957 61.418 46.8359 61.3008C46.7148 61.1836 46.6543 61.0352 46.6543 60.8555C46.6543 60.6758 46.7148 60.5273 46.8359 60.4102C46.957 60.2891 47.1035 60.2285 47.2754 60.2285C47.4512 60.2285 47.5996 60.2891 47.7207 60.4102C47.8457 60.5273 47.9082 60.6758 47.9082 60.8555C47.9082 61.0273 47.8457 61.1738 47.7207 61.2949C47.5996 61.416 47.4512 61.4766 47.2754 61.4766ZM47.7441 69H46.7832V63H47.7441V69ZM52.8184 63.9727C52.6504 63.8438 52.4082 63.7793 52.0918 63.7793C51.6816 63.7793 51.3379 63.9727 51.0605 64.3594C50.7871 64.7461 50.6504 65.2734 50.6504 65.9414V69H49.6895V63H50.6504V64.2363H50.6738C50.8105 63.8145 51.0195 63.4863 51.3008 63.252C51.582 63.0137 51.8965 62.8945 52.2441 62.8945C52.4941 62.8945 52.6855 62.9219 52.8184 62.9766V63.9727ZM58.9824 69H58.0215V67.9805H57.998C57.5527 68.7539 56.8652 69.1406 55.9355 69.1406C55.1816 69.1406 54.5781 68.873 54.125 68.3379C53.6758 67.7988 53.4512 67.0664 53.4512 66.1406C53.4512 65.1484 53.7012 64.3535 54.2012 63.7559C54.7012 63.1582 55.3672 62.8594 56.1992 62.8594C57.0234 62.8594 57.623 63.1836 57.998 63.832H58.0215V60.1172H58.9824V69ZM58.0215 66.2871V65.4023C58.0215 64.918 57.8613 64.5078 57.541 64.1719C57.2207 63.8359 56.8145 63.668 56.3223 63.668C55.7363 63.668 55.2754 63.8828 54.9395 64.3125C54.6035 64.7422 54.4355 65.3359 54.4355 66.0938C54.4355 66.7852 54.5957 67.332 54.916 67.7344C55.2402 68.1328 55.6738 68.332 56.2168 68.332C56.752 68.332 57.1855 68.1387 57.5176 67.752C57.8535 67.3652 58.0215 66.877 58.0215 66.2871ZM63.998 66.0352H60.7988V65.2793H63.998V66.0352ZM66.7168 68.1328H66.6934V71.7598H65.7324V63H66.6934V64.0547H66.7168C67.1895 63.2578 67.8809 62.8594 68.791 62.8594C69.5645 62.8594 70.168 63.1289 70.6016 63.668C71.0352 64.2031 71.252 64.9219 71.252 65.8242C71.252 66.8281 71.0078 67.6328 70.5195 68.2383C70.0312 68.8398 69.3633 69.1406 68.5156 69.1406C67.7383 69.1406 67.1387 68.8047 66.7168 68.1328ZM66.6934 65.7129V66.5508C66.6934 67.0469 66.8535 67.4688 67.1738 67.8164C67.498 68.1602 67.9082 68.332 68.4043 68.332C68.9863 68.332 69.4414 68.1094 69.7695 67.6641C70.1016 67.2188 70.2676 66.5996 70.2676 65.8066C70.2676 65.1387 70.1133 64.6152 69.8047 64.2363C69.4961 63.8574 69.0781 63.668 68.5508 63.668C67.9922 63.668 67.543 63.8633 67.2031 64.2539C66.8633 64.6406 66.6934 65.127 66.6934 65.7129ZM77.082 69H76.1211V68.0625H76.0977C75.6797 68.7812 75.0645 69.1406 74.252 69.1406C73.6543 69.1406 73.1855 68.9824 72.8457 68.666C72.5098 68.3496 72.3418 67.9297 72.3418 67.4062C72.3418 66.2852 73.002 65.6328 74.3223 65.4492L76.1211 65.1973C76.1211 64.1777 75.709 63.668 74.8848 63.668C74.1621 63.668 73.5098 63.9141 72.9277 64.4062V63.4219C73.5176 63.0469 74.1973 62.8594 74.9668 62.8594C76.377 62.8594 77.082 63.6055 77.082 65.0977V69ZM76.1211 65.9648L74.6738 66.1641C74.2285 66.2266 73.8926 66.3379 73.666 66.498C73.4395 66.6543 73.3262 66.9336 73.3262 67.3359C73.3262 67.6289 73.4297 67.8691 73.6367 68.0566C73.8477 68.2402 74.127 68.332 74.4746 68.332C74.9512 68.332 75.3438 68.166 75.6523 67.834C75.9648 67.498 76.1211 67.0742 76.1211 66.5625V65.9648ZM82.0215 63.9727C81.8535 63.8438 81.6113 63.7793 81.2949 63.7793C80.8848 63.7793 80.541 63.9727 80.2637 64.3594C79.9902 64.7461 79.8535 65.2734 79.8535 65.9414V69H78.8926V63H79.8535V64.2363H79.877C80.0137 63.8145 80.2227 63.4863 80.5039 63.252C80.7852 63.0137 81.0996 62.8945 81.4473 62.8945C81.6973 62.8945 81.8887 62.9219 82.0215 62.9766V63.9727ZM85.8477 68.9414C85.6211 69.0664 85.3223 69.1289 84.9512 69.1289C83.9004 69.1289 83.375 68.543 83.375 67.3711V63.8203H82.3438V63H83.375V61.5352L84.3359 61.2246V63H85.8477V63.8203H84.3359V67.2012C84.3359 67.6035 84.4043 67.8906 84.541 68.0625C84.6777 68.2344 84.9043 68.3203 85.2207 68.3203C85.4629 68.3203 85.6719 68.2539 85.8477 68.1211V68.9414ZM91.9062 63L89.1465 69.9609C88.6543 71.2031 87.9629 71.8242 87.0723 71.8242C86.8223 71.8242 86.6133 71.7988 86.4453 71.748V70.8867C86.6523 70.957 86.8418 70.9922 87.0137 70.9922C87.498 70.9922 87.8613 70.7031 88.1035 70.125L88.584 68.9883L86.2402 63H87.3066L88.9297 67.6172C88.9492 67.6758 88.9902 67.8281 89.0527 68.0742H89.0879C89.1074 67.9805 89.1465 67.832 89.2051 67.6289L90.9102 63H91.9062ZM31.0859 77.4766C30.9141 77.4766 30.7676 77.418 30.6465 77.3008C30.5254 77.1836 30.4648 77.0352 30.4648 76.8555C30.4648 76.6758 30.5254 76.5273 30.6465 76.4102C30.7676 76.2891 30.9141 76.2285 31.0859 76.2285C31.2617 76.2285 31.4102 76.2891 31.5312 76.4102C31.6562 76.5273 31.7188 76.6758 31.7188 76.8555C31.7188 77.0273 31.6562 77.1738 31.5312 77.2949C31.4102 77.416 31.2617 77.4766 31.0859 77.4766ZM31.5547 85H30.5938V79H31.5547V85ZM37.8945 77.4883H34.6133V80.3945H37.6484V81.2793H34.6133V85H33.6289V76.5977H37.8945V77.4883ZM42.4883 79.9727C42.3203 79.8438 42.0781 79.7793 41.7617 79.7793C41.3516 79.7793 41.0078 79.9727 40.7305 80.3594C40.457 80.7461 40.3203 81.2734 40.3203 81.9414V85H39.3594V79H40.3203V80.2363H40.3438C40.4805 79.8145 40.6895 79.4863 40.9707 79.252C41.252 79.0137 41.5664 78.8945 41.9141 78.8945C42.1641 78.8945 42.3555 78.9219 42.4883 78.9766V79.9727ZM47.8262 85H46.8652V84.0625H46.8418C46.4238 84.7812 45.8086 85.1406 44.9961 85.1406C44.3984 85.1406 43.9297 84.9824 43.5898 84.666C43.2539 84.3496 43.0859 83.9297 43.0859 83.4062C43.0859 82.2852 43.7461 81.6328 45.0664 81.4492L46.8652 81.1973C46.8652 80.1777 46.4531 79.668 45.6289 79.668C44.9062 79.668 44.2539 79.9141 43.6719 80.4062V79.4219C44.2617 79.0469 44.9414 78.8594 45.7109 78.8594C47.1211 78.8594 47.8262 79.6055 47.8262 81.0977V85ZM46.8652 81.9648L45.418 82.1641C44.9727 82.2266 44.6367 82.3379 44.4102 82.498C44.1836 82.6543 44.0703 82.9336 44.0703 83.3359C44.0703 83.6289 44.1738 83.8691 44.3809 84.0566C44.5918 84.2402 44.8711 84.332 45.2188 84.332C45.6953 84.332 46.0879 84.166 46.3965 83.834C46.709 83.498 46.8652 83.0742 46.8652 82.5625V81.9648ZM58.1562 85H57.1953V81.5547C57.1953 80.8906 57.0918 80.4102 56.8848 80.1133C56.6816 79.8164 56.3379 79.668 55.8535 79.668C55.4434 79.668 55.0938 79.8555 54.8047 80.2305C54.5195 80.6055 54.377 81.0547 54.377 81.5781V85H53.416V81.4375C53.416 80.2578 52.9609 79.668 52.0508 79.668C51.6289 79.668 51.2812 79.8457 51.0078 80.2012C50.7344 80.5527 50.5977 81.0117 50.5977 81.5781V85H49.6367V79H50.5977V79.9492H50.6211C51.0469 79.2227 51.668 78.8594 52.4844 78.8594C52.8945 78.8594 53.252 78.9746 53.5566 79.2051C53.8613 79.4316 54.0703 79.7305 54.1836 80.1016C54.6289 79.2734 55.293 78.8594 56.1758 78.8594C57.4961 78.8594 58.1562 79.6738 58.1562 81.3027V85ZM64.7949 82.2402H60.5586C60.5742 82.9082 60.7539 83.4238 61.0977 83.7871C61.4414 84.1504 61.9141 84.332 62.5156 84.332C63.1914 84.332 63.8125 84.1094 64.3789 83.6641V84.5664C63.8516 84.9492 63.1543 85.1406 62.2871 85.1406C61.4395 85.1406 60.7734 84.8691 60.2891 84.3262C59.8047 83.7793 59.5625 83.0117 59.5625 82.0234C59.5625 81.0898 59.8262 80.3301 60.3535 79.7441C60.8848 79.1543 61.543 78.8594 62.3281 78.8594C63.1133 78.8594 63.7207 79.1133 64.1504 79.6211C64.5801 80.1289 64.7949 80.834 64.7949 81.7363V82.2402ZM63.8105 81.4258C63.8066 80.8711 63.6719 80.4395 63.4062 80.1309C63.1445 79.8223 62.7793 79.668 62.3105 79.668C61.8574 79.668 61.4727 79.8301 61.1562 80.1543C60.8398 80.4785 60.6445 80.9023 60.5703 81.4258H63.8105ZM65.8906 84.7832V83.752C66.4141 84.1387 66.9902 84.332 67.6191 84.332C68.4629 84.332 68.8848 84.0508 68.8848 83.4883C68.8848 83.3281 68.8477 83.1934 68.7734 83.084C68.7031 82.9707 68.6055 82.8711 68.4805 82.7852C68.3594 82.6992 68.2148 82.623 68.0469 82.5566C67.8828 82.4863 67.7051 82.4141 67.5137 82.3398C67.248 82.2344 67.0137 82.1289 66.8105 82.0234C66.6113 81.9141 66.4434 81.793 66.3066 81.6602C66.1738 81.5234 66.0723 81.3691 66.002 81.1973C65.9355 81.0254 65.9023 80.8242 65.9023 80.5938C65.9023 80.3125 65.9668 80.0645 66.0957 79.8496C66.2246 79.6309 66.3965 79.4492 66.6113 79.3047C66.8262 79.1562 67.0703 79.0449 67.3438 78.9707C67.6211 78.8965 67.9062 78.8594 68.1992 78.8594C68.7188 78.8594 69.1836 78.9492 69.5938 79.1289V80.1016C69.1523 79.8125 68.6445 79.668 68.0703 79.668C67.8906 79.668 67.7285 79.6895 67.584 79.7324C67.4395 79.7715 67.3145 79.8281 67.209 79.9023C67.1074 79.9766 67.0273 80.0664 66.9688 80.1719C66.9141 80.2734 66.8867 80.3867 66.8867 80.5117C66.8867 80.668 66.9141 80.7988 66.9688 80.9043C67.0273 81.0098 67.1113 81.1035 67.2207 81.1855C67.3301 81.2676 67.4629 81.3418 67.6191 81.4082C67.7754 81.4746 67.9531 81.5469 68.1523 81.625C68.418 81.7266 68.6562 81.832 68.8672 81.9414C69.0781 82.0469 69.2578 82.168 69.4062 82.3047C69.5547 82.4375 69.668 82.5918 69.7461 82.7676C69.8281 82.9434 69.8691 83.1523 69.8691 83.3945C69.8691 83.6914 69.8027 83.9492 69.6699 84.168C69.541 84.3867 69.3672 84.5684 69.1484 84.7129C68.9297 84.8574 68.6777 84.9648 68.3926 85.0352C68.1074 85.1055 67.8086 85.1406 67.4961 85.1406C66.8789 85.1406 66.3438 85.0215 65.8906 84.7832Z" fill="#020057"/>
</svg>
