<svg width="100%" viewBox="0 0 100 96" fill="none" xmlns="http://www.w3.org/2000/svg">
<rect width="100" height="96" fill="#FBFBFE"/>
<path d="M41.4247 10.5758C41.1903 10.3414 40.8104 10.3414 40.5761 10.5758C40.3418 10.8101 40.3418 11.19 40.5761 11.4243L42.0974 12.9456C41.7833 13.4199 41.6004 13.9886 41.6004 14.6V25.4C41.6004 27.0569 42.9435 28.4 44.6004 28.4H55.4004C56.0118 28.4 56.5806 28.2171 57.0548 27.903L58.5761 29.4243C58.8104 29.6586 59.1903 29.6586 59.4247 29.4243C59.659 29.19 59.659 28.8101 59.4247 28.5758L41.4247 10.5758ZM56.1764 27.0246C55.9415 27.1371 55.6783 27.2 55.4004 27.2H44.6004C43.6063 27.2 42.8004 26.3941 42.8004 25.4V16.4H45.5519L56.1764 27.0246ZM57.2004 16.4V24.6544L58.3706 25.8246C58.3902 25.6859 58.4004 25.5442 58.4004 25.4V14.6C58.4004 12.9432 57.0572 11.6 55.4004 11.6H44.6004C44.4563 11.6 44.3145 11.6102 44.1758 11.6298L48.946 16.4H57.2004Z" fill="#020057"/>
<path d="M18.1895 52.6484C17.5684 52.9766 16.7949 53.1406 15.8691 53.1406C14.6738 53.1406 13.7168 52.7559 12.998 51.9863C12.2793 51.2168 11.9199 50.207 11.9199 48.957C11.9199 47.6133 12.3242 46.5273 13.1328 45.6992C13.9414 44.8711 14.9668 44.457 16.209 44.457C17.0059 44.457 17.666 44.5723 18.1895 44.8027V45.8516C17.5879 45.5156 16.9238 45.3477 16.1973 45.3477C15.2324 45.3477 14.4492 45.6699 13.8477 46.3145C13.25 46.959 12.9512 47.8203 12.9512 48.8984C12.9512 49.9219 13.2305 50.7383 13.7891 51.3477C14.3516 51.9531 15.0879 52.2559 15.998 52.2559C16.8418 52.2559 17.5723 52.0684 18.1895 51.6934V52.6484ZM20.7324 53H19.7715V44.1172H20.7324V53ZM26.9727 53H26.0117V52.0625H25.9883C25.5703 52.7812 24.9551 53.1406 24.1426 53.1406C23.5449 53.1406 23.0762 52.9824 22.7363 52.666C22.4004 52.3496 22.2324 51.9297 22.2324 51.4062C22.2324 50.2852 22.8926 49.6328 24.2129 49.4492L26.0117 49.1973C26.0117 48.1777 25.5996 47.668 24.7754 47.668C24.0527 47.668 23.4004 47.9141 22.8184 48.4062V47.4219C23.4082 47.0469 24.0879 46.8594 24.8574 46.8594C26.2676 46.8594 26.9727 47.6055 26.9727 49.0977V53ZM26.0117 49.9648L24.5645 50.1641C24.1191 50.2266 23.7832 50.3379 23.5566 50.498C23.3301 50.6543 23.2168 50.9336 23.2168 51.3359C23.2168 51.6289 23.3203 51.8691 23.5273 52.0566C23.7383 52.2402 24.0176 52.332 24.3652 52.332C24.8418 52.332 25.2344 52.166 25.543 51.834C25.8555 51.498 26.0117 51.0742 26.0117 50.5625V49.9648ZM31.9121 47.9727C31.7441 47.8438 31.502 47.7793 31.1855 47.7793C30.7754 47.7793 30.4316 47.9727 30.1543 48.3594C29.8809 48.7461 29.7441 49.2734 29.7441 49.9414V53H28.7832V47H29.7441V48.2363H29.7676C29.9043 47.8145 30.1133 47.4863 30.3945 47.252C30.6758 47.0137 30.9902 46.8945 31.3379 46.8945C31.5879 46.8945 31.7793 46.9219 31.9121 46.9766V47.9727ZM33.4473 45.4766C33.2754 45.4766 33.1289 45.418 33.0078 45.3008C32.8867 45.1836 32.8262 45.0352 32.8262 44.8555C32.8262 44.6758 32.8867 44.5273 33.0078 44.4102C33.1289 44.2891 33.2754 44.2285 33.4473 44.2285C33.623 44.2285 33.7715 44.2891 33.8926 44.4102C34.0176 44.5273 34.0801 44.6758 34.0801 44.8555C34.0801 45.0273 34.0176 45.1738 33.8926 45.2949C33.7715 45.416 33.623 45.4766 33.4473 45.4766ZM33.916 53H32.9551V47H33.916V53ZM38.6445 52.9414C38.418 53.0664 38.1191 53.1289 37.748 53.1289C36.6973 53.1289 36.1719 52.543 36.1719 51.3711V47.8203H35.1406V47H36.1719V45.5352L37.1328 45.2246V47H38.6445V47.8203H37.1328V51.2012C37.1328 51.6035 37.2012 51.8906 37.3379 52.0625C37.4746 52.2344 37.7012 52.3203 38.0176 52.3203C38.2598 52.3203 38.4688 52.2539 38.6445 52.1211V52.9414ZM44.7031 47L41.9434 53.9609C41.4512 55.2031 40.7598 55.8242 39.8691 55.8242C39.6191 55.8242 39.4102 55.7988 39.2422 55.748V54.8867C39.4492 54.957 39.6387 54.9922 39.8105 54.9922C40.2949 54.9922 40.6582 54.7031 40.9004 54.125L41.3809 52.9883L39.0371 47H40.1035L41.7266 51.6172C41.7461 51.6758 41.7871 51.8281 41.8496 52.0742H41.8848C41.9043 51.9805 41.9434 51.832 42.002 51.6289L43.707 47H44.7031ZM54.0137 53H53.0527V49.5781C53.0527 48.3047 52.5879 47.668 51.6582 47.668C51.1777 47.668 50.7793 47.8496 50.4629 48.2129C50.1504 48.5723 49.9941 49.0273 49.9941 49.5781V53H49.0332V47H49.9941V47.9961H50.0176C50.4707 47.2383 51.127 46.8594 51.9863 46.8594C52.6426 46.8594 53.1445 47.0723 53.4922 47.498C53.8398 47.9199 54.0137 48.5312 54.0137 49.332V53ZM60.6523 50.2402H56.416C56.4316 50.9082 56.6113 51.4238 56.9551 51.7871C57.2988 52.1504 57.7715 52.332 58.373 52.332C59.0488 52.332 59.6699 52.1094 60.2363 51.6641V52.5664C59.709 52.9492 59.0117 53.1406 58.1445 53.1406C57.2969 53.1406 56.6309 52.8691 56.1465 52.3262C55.6621 51.7793 55.4199 51.0117 55.4199 50.0234C55.4199 49.0898 55.6836 48.3301 56.2109 47.7441C56.7422 47.1543 57.4004 46.8594 58.1855 46.8594C58.9707 46.8594 59.5781 47.1133 60.0078 47.6211C60.4375 48.1289 60.6523 48.834 60.6523 49.7363V50.2402ZM59.668 49.4258C59.6641 48.8711 59.5293 48.4395 59.2637 48.1309C59.002 47.8223 58.6367 47.668 58.168 47.668C57.7148 47.668 57.3301 47.8301 57.0137 48.1543C56.6973 48.4785 56.502 48.9023 56.4277 49.4258H59.668ZM66.3887 52.1328H66.3652V55.7598H65.4043V47H66.3652V48.0547H66.3887C66.8613 47.2578 67.5527 46.8594 68.4629 46.8594C69.2363 46.8594 69.8398 47.1289 70.2734 47.668C70.707 48.2031 70.9238 48.9219 70.9238 49.8242C70.9238 50.8281 70.6797 51.6328 70.1914 52.2383C69.7031 52.8398 69.0352 53.1406 68.1875 53.1406C67.4102 53.1406 66.8105 52.8047 66.3887 52.1328ZM66.3652 49.7129V50.5508C66.3652 51.0469 66.5254 51.4688 66.8457 51.8164C67.1699 52.1602 67.5801 52.332 68.0762 52.332C68.6582 52.332 69.1133 52.1094 69.4414 51.6641C69.7734 51.2188 69.9395 50.5996 69.9395 49.8066C69.9395 49.1387 69.7852 48.6152 69.4766 48.2363C69.168 47.8574 68.75 47.668 68.2227 47.668C67.6641 47.668 67.2148 47.8633 66.875 48.2539C66.5352 48.6406 66.3652 49.127 66.3652 49.7129ZM77.2812 50.2402H73.0449C73.0605 50.9082 73.2402 51.4238 73.584 51.7871C73.9277 52.1504 74.4004 52.332 75.002 52.332C75.6777 52.332 76.2988 52.1094 76.8652 51.6641V52.5664C76.3379 52.9492 75.6406 53.1406 74.7734 53.1406C73.9258 53.1406 73.2598 52.8691 72.7754 52.3262C72.291 51.7793 72.0488 51.0117 72.0488 50.0234C72.0488 49.0898 72.3125 48.3301 72.8398 47.7441C73.3711 47.1543 74.0293 46.8594 74.8145 46.8594C75.5996 46.8594 76.207 47.1133 76.6367 47.6211C77.0664 48.1289 77.2812 48.834 77.2812 49.7363V50.2402ZM76.2969 49.4258C76.293 48.8711 76.1582 48.4395 75.8926 48.1309C75.6309 47.8223 75.2656 47.668 74.7969 47.668C74.3438 47.668 73.959 47.8301 73.6426 48.1543C73.3262 48.4785 73.1309 48.9023 73.0566 49.4258H76.2969ZM83.5918 53H82.6309V52.0508H82.6074C82.209 52.7773 81.5918 53.1406 80.7559 53.1406C79.3262 53.1406 78.6113 52.2891 78.6113 50.5859V47H79.5664V50.4336C79.5664 51.6992 80.0508 52.332 81.0195 52.332C81.4883 52.332 81.873 52.1602 82.1738 51.8164C82.4785 51.4688 82.6309 51.0156 82.6309 50.457V47H83.5918V53ZM88.3203 52.9414C88.0938 53.0664 87.7949 53.1289 87.4238 53.1289C86.373 53.1289 85.8477 52.543 85.8477 51.3711V47.8203H84.8164V47H85.8477V45.5352L86.8086 45.2246V47H88.3203V47.8203H86.8086V51.2012C86.8086 51.6035 86.877 51.8906 87.0137 52.0625C87.1504 52.2344 87.377 52.3203 87.6934 52.3203C87.9355 52.3203 88.1445 52.2539 88.3203 52.1211V52.9414ZM24.2598 68.1328H24.2363V71.7598H23.2754V63H24.2363V64.0547H24.2598C24.7324 63.2578 25.4238 62.8594 26.334 62.8594C27.1074 62.8594 27.7109 63.1289 28.1445 63.668C28.5781 64.2031 28.7949 64.9219 28.7949 65.8242C28.7949 66.8281 28.5508 67.6328 28.0625 68.2383C27.5742 68.8398 26.9062 69.1406 26.0586 69.1406C25.2812 69.1406 24.6816 68.8047 24.2598 68.1328ZM24.2363 65.7129V66.5508C24.2363 67.0469 24.3965 67.4688 24.7168 67.8164C25.041 68.1602 25.4512 68.332 25.9473 68.332C26.5293 68.332 26.9844 68.1094 27.3125 67.6641C27.6445 67.2188 27.8105 66.5996 27.8105 65.8066C27.8105 65.1387 27.6562 64.6152 27.3477 64.2363C27.0391 63.8574 26.6211 63.668 26.0938 63.668C25.5352 63.668 25.0859 63.8633 24.7461 64.2539C24.4062 64.6406 24.2363 65.127 24.2363 65.7129ZM34.625 69H33.6641V68.0625H33.6406C33.2227 68.7812 32.6074 69.1406 31.7949 69.1406C31.1973 69.1406 30.7285 68.9824 30.3887 68.666C30.0527 68.3496 29.8848 67.9297 29.8848 67.4062C29.8848 66.2852 30.5449 65.6328 31.8652 65.4492L33.6641 65.1973C33.6641 64.1777 33.252 63.668 32.4277 63.668C31.7051 63.668 31.0527 63.9141 30.4707 64.4062V63.4219C31.0605 63.0469 31.7402 62.8594 32.5098 62.8594C33.9199 62.8594 34.625 63.6055 34.625 65.0977V69ZM33.6641 65.9648L32.2168 66.1641C31.7715 66.2266 31.4355 66.3379 31.209 66.498C30.9824 66.6543 30.8691 66.9336 30.8691 67.3359C30.8691 67.6289 30.9727 67.8691 31.1797 68.0566C31.3906 68.2402 31.6699 68.332 32.0176 68.332C32.4941 68.332 32.8867 68.166 33.1953 67.834C33.5078 67.498 33.6641 67.0742 33.6641 66.5625V65.9648ZM36.0723 68.7832V67.752C36.5957 68.1387 37.1719 68.332 37.8008 68.332C38.6445 68.332 39.0664 68.0508 39.0664 67.4883C39.0664 67.3281 39.0293 67.1934 38.9551 67.084C38.8848 66.9707 38.7871 66.8711 38.6621 66.7852C38.541 66.6992 38.3965 66.623 38.2285 66.5566C38.0645 66.4863 37.8867 66.4141 37.6953 66.3398C37.4297 66.2344 37.1953 66.1289 36.9922 66.0234C36.793 65.9141 36.625 65.793 36.4883 65.6602C36.3555 65.5234 36.2539 65.3691 36.1836 65.1973C36.1172 65.0254 36.084 64.8242 36.084 64.5938C36.084 64.3125 36.1484 64.0645 36.2773 63.8496C36.4062 63.6309 36.5781 63.4492 36.793 63.3047C37.0078 63.1562 37.252 63.0449 37.5254 62.9707C37.8027 62.8965 38.0879 62.8594 38.3809 62.8594C38.9004 62.8594 39.3652 62.9492 39.7754 63.1289V64.1016C39.334 63.8125 38.8262 63.668 38.252 63.668C38.0723 63.668 37.9102 63.6895 37.7656 63.7324C37.6211 63.7715 37.4961 63.8281 37.3906 63.9023C37.2891 63.9766 37.209 64.0664 37.1504 64.1719C37.0957 64.2734 37.0684 64.3867 37.0684 64.5117C37.0684 64.668 37.0957 64.7988 37.1504 64.9043C37.209 65.0098 37.293 65.1035 37.4023 65.1855C37.5117 65.2676 37.6445 65.3418 37.8008 65.4082C37.957 65.4746 38.1348 65.5469 38.334 65.625C38.5996 65.7266 38.8379 65.832 39.0488 65.9414C39.2598 66.0469 39.4395 66.168 39.5879 66.3047C39.7363 66.4375 39.8496 66.5918 39.9277 66.7676C40.0098 66.9434 40.0508 67.1523 40.0508 67.3945C40.0508 67.6914 39.9844 67.9492 39.8516 68.168C39.7227 68.3867 39.5488 68.5684 39.3301 68.7129C39.1113 68.8574 38.8594 68.9648 38.5742 69.0352C38.2891 69.1055 37.9902 69.1406 37.6777 69.1406C37.0605 69.1406 36.5254 69.0215 36.0723 68.7832ZM45.7871 69H44.8262V60.1172H45.7871V69ZM48.2246 61.4766C48.0527 61.4766 47.9062 61.418 47.7852 61.3008C47.6641 61.1836 47.6035 61.0352 47.6035 60.8555C47.6035 60.6758 47.6641 60.5273 47.7852 60.4102C47.9062 60.2891 48.0527 60.2285 48.2246 60.2285C48.4004 60.2285 48.5488 60.2891 48.6699 60.4102C48.7949 60.5273 48.8574 60.6758 48.8574 60.8555C48.8574 61.0273 48.7949 61.1738 48.6699 61.2949C48.5488 61.416 48.4004 61.4766 48.2246 61.4766ZM48.6934 69H47.7324V63H48.6934V69ZM53.7676 63.9727C53.5996 63.8438 53.3574 63.7793 53.041 63.7793C52.6309 63.7793 52.2871 63.9727 52.0098 64.3594C51.7363 64.7461 51.5996 65.2734 51.5996 65.9414V69H50.6387V63H51.5996V64.2363H51.623C51.7598 63.8145 51.9688 63.4863 52.25 63.252C52.5312 63.0137 52.8457 62.8945 53.1934 62.8945C53.4434 62.8945 53.6348 62.9219 53.7676 62.9766V63.9727ZM59.6328 66.2402H55.3965C55.4121 66.9082 55.5918 67.4238 55.9355 67.7871C56.2793 68.1504 56.752 68.332 57.3535 68.332C58.0293 68.332 58.6504 68.1094 59.2168 67.6641V68.5664C58.6895 68.9492 57.9922 69.1406 57.125 69.1406C56.2773 69.1406 55.6113 68.8691 55.127 68.3262C54.6426 67.7793 54.4004 67.0117 54.4004 66.0234C54.4004 65.0898 54.6641 64.3301 55.1914 63.7441C55.7227 63.1543 56.3809 62.8594 57.166 62.8594C57.9512 62.8594 58.5586 63.1133 58.9883 63.6211C59.418 64.1289 59.6328 64.834 59.6328 65.7363V66.2402ZM58.6484 65.4258C58.6445 64.8711 58.5098 64.4395 58.2441 64.1309C57.9824 63.8223 57.6172 63.668 57.1484 63.668C56.6953 63.668 56.3105 63.8301 55.9941 64.1543C55.6777 64.4785 55.4824 64.9023 55.4082 65.4258H58.6484ZM65.3457 69H64.3848V60.1172H65.3457V69ZM72.1133 66.2402H67.877C67.8926 66.9082 68.0723 67.4238 68.416 67.7871C68.7598 68.1504 69.2324 68.332 69.834 68.332C70.5098 68.332 71.1309 68.1094 71.6973 67.6641V68.5664C71.1699 68.9492 70.4727 69.1406 69.6055 69.1406C68.7578 69.1406 68.0918 68.8691 67.6074 68.3262C67.123 67.7793 66.8809 67.0117 66.8809 66.0234C66.8809 65.0898 67.1445 64.3301 67.6719 63.7441C68.2031 63.1543 68.8613 62.8594 69.6465 62.8594C70.4316 62.8594 71.0391 63.1133 71.4688 63.6211C71.8984 64.1289 72.1133 64.834 72.1133 65.7363V66.2402ZM71.1289 65.4258C71.125 64.8711 70.9902 64.4395 70.7246 64.1309C70.4629 63.8223 70.0977 63.668 69.6289 63.668C69.1758 63.668 68.791 63.8301 68.4746 64.1543C68.1582 64.4785 67.9629 64.9023 67.8887 65.4258H71.1289ZM73.209 68.7832V67.752C73.7324 68.1387 74.3086 68.332 74.9375 68.332C75.7812 68.332 76.2031 68.0508 76.2031 67.4883C76.2031 67.3281 76.166 67.1934 76.0918 67.084C76.0215 66.9707 75.9238 66.8711 75.7988 66.7852C75.6777 66.6992 75.5332 66.623 75.3652 66.5566C75.2012 66.4863 75.0234 66.4141 74.832 66.3398C74.5664 66.2344 74.332 66.1289 74.1289 66.0234C73.9297 65.9141 73.7617 65.793 73.625 65.6602C73.4922 65.5234 73.3906 65.3691 73.3203 65.1973C73.2539 65.0254 73.2207 64.8242 73.2207 64.5938C73.2207 64.3125 73.2852 64.0645 73.4141 63.8496C73.543 63.6309 73.7148 63.4492 73.9297 63.3047C74.1445 63.1562 74.3887 63.0449 74.6621 62.9707C74.9395 62.8965 75.2246 62.8594 75.5176 62.8594C76.0371 62.8594 76.502 62.9492 76.9121 63.1289V64.1016C76.4707 63.8125 75.9629 63.668 75.3887 63.668C75.209 63.668 75.0469 63.6895 74.9023 63.7324C74.7578 63.7715 74.6328 63.8281 74.5273 63.9023C74.4258 63.9766 74.3457 64.0664 74.2871 64.1719C74.2324 64.2734 74.2051 64.3867 74.2051 64.5117C74.2051 64.668 74.2324 64.7988 74.2871 64.9043C74.3457 65.0098 74.4297 65.1035 74.5391 65.1855C74.6484 65.2676 74.7812 65.3418 74.9375 65.4082C75.0938 65.4746 75.2715 65.5469 75.4707 65.625C75.7363 65.7266 75.9746 65.832 76.1855 65.9414C76.3965 66.0469 76.5762 66.168 76.7246 66.3047C76.873 66.4375 76.9863 66.5918 77.0645 66.7676C77.1465 66.9434 77.1875 67.1523 77.1875 67.3945C77.1875 67.6914 77.1211 67.9492 76.9883 68.168C76.8594 68.3867 76.6855 68.5684 76.4668 68.7129C76.248 68.8574 75.9961 68.9648 75.7109 69.0352C75.4258 69.1055 75.127 69.1406 74.8145 69.1406C74.1973 69.1406 73.6621 69.0215 73.209 68.7832ZM9.85742 77.4766C9.68555 77.4766 9.53906 77.418 9.41797 77.3008C9.29688 77.1836 9.23633 77.0352 9.23633 76.8555C9.23633 76.6758 9.29688 76.5273 9.41797 76.4102C9.53906 76.2891 9.68555 76.2285 9.85742 76.2285C10.0332 76.2285 10.1816 76.2891 10.3027 76.4102C10.4277 76.5273 10.4902 76.6758 10.4902 76.8555C10.4902 77.0273 10.4277 77.1738 10.3027 77.2949C10.1816 77.416 10.0332 77.4766 9.85742 77.4766ZM10.3262 85H9.36523V79H10.3262V85ZM16.666 77.4883H13.3848V80.3945H16.4199V81.2793H13.3848V85H12.4004V76.5977H16.666V77.4883ZM21.2598 79.9727C21.0918 79.8438 20.8496 79.7793 20.5332 79.7793C20.123 79.7793 19.7793 79.9727 19.502 80.3594C19.2285 80.7461 19.0918 81.2734 19.0918 81.9414V85H18.1309V79H19.0918V80.2363H19.1152C19.252 79.8145 19.4609 79.4863 19.7422 79.252C20.0234 79.0137 20.3379 78.8945 20.6855 78.8945C20.9355 78.8945 21.127 78.9219 21.2598 78.9766V79.9727ZM26.5977 85H25.6367V84.0625H25.6133C25.1953 84.7812 24.5801 85.1406 23.7676 85.1406C23.1699 85.1406 22.7012 84.9824 22.3613 84.666C22.0254 84.3496 21.8574 83.9297 21.8574 83.4062C21.8574 82.2852 22.5176 81.6328 23.8379 81.4492L25.6367 81.1973C25.6367 80.1777 25.2246 79.668 24.4004 79.668C23.6777 79.668 23.0254 79.9141 22.4434 80.4062V79.4219C23.0332 79.0469 23.7129 78.8594 24.4824 78.8594C25.8926 78.8594 26.5977 79.6055 26.5977 81.0977V85ZM25.6367 81.9648L24.1895 82.1641C23.7441 82.2266 23.4082 82.3379 23.1816 82.498C22.9551 82.6543 22.8418 82.9336 22.8418 83.3359C22.8418 83.6289 22.9453 83.8691 23.1523 84.0566C23.3633 84.2402 23.6426 84.332 23.9902 84.332C24.4668 84.332 24.8594 84.166 25.168 83.834C25.4805 83.498 25.6367 83.0742 25.6367 82.5625V81.9648ZM36.9277 85H35.9668V81.5547C35.9668 80.8906 35.8633 80.4102 35.6562 80.1133C35.4531 79.8164 35.1094 79.668 34.625 79.668C34.2148 79.668 33.8652 79.8555 33.5762 80.2305C33.291 80.6055 33.1484 81.0547 33.1484 81.5781V85H32.1875V81.4375C32.1875 80.2578 31.7324 79.668 30.8223 79.668C30.4004 79.668 30.0527 79.8457 29.7793 80.2012C29.5059 80.5527 29.3691 81.0117 29.3691 81.5781V85H28.4082V79H29.3691V79.9492H29.3926C29.8184 79.2227 30.4395 78.8594 31.2559 78.8594C31.666 78.8594 32.0234 78.9746 32.3281 79.2051C32.6328 79.4316 32.8418 79.7305 32.9551 80.1016C33.4004 79.2734 34.0645 78.8594 34.9473 78.8594C36.2676 78.8594 36.9277 79.6738 36.9277 81.3027V85ZM43.5664 82.2402H39.3301C39.3457 82.9082 39.5254 83.4238 39.8691 83.7871C40.2129 84.1504 40.6855 84.332 41.2871 84.332C41.9629 84.332 42.584 84.1094 43.1504 83.6641V84.5664C42.623 84.9492 41.9258 85.1406 41.0586 85.1406C40.2109 85.1406 39.5449 84.8691 39.0605 84.3262C38.5762 83.7793 38.334 83.0117 38.334 82.0234C38.334 81.0898 38.5977 80.3301 39.125 79.7441C39.6562 79.1543 40.3145 78.8594 41.0996 78.8594C41.8848 78.8594 42.4922 79.1133 42.9219 79.6211C43.3516 80.1289 43.5664 80.834 43.5664 81.7363V82.2402ZM42.582 81.4258C42.5781 80.8711 42.4434 80.4395 42.1777 80.1309C41.916 79.8223 41.5508 79.668 41.082 79.668C40.6289 79.668 40.2441 79.8301 39.9277 80.1543C39.6113 80.4785 39.416 80.9023 39.3418 81.4258H42.582ZM44.6621 84.7832V83.752C45.1855 84.1387 45.7617 84.332 46.3906 84.332C47.2344 84.332 47.6562 84.0508 47.6562 83.4883C47.6562 83.3281 47.6191 83.1934 47.5449 83.084C47.4746 82.9707 47.377 82.8711 47.252 82.7852C47.1309 82.6992 46.9863 82.623 46.8184 82.5566C46.6543 82.4863 46.4766 82.4141 46.2852 82.3398C46.0195 82.2344 45.7852 82.1289 45.582 82.0234C45.3828 81.9141 45.2148 81.793 45.0781 81.6602C44.9453 81.5234 44.8438 81.3691 44.7734 81.1973C44.707 81.0254 44.6738 80.8242 44.6738 80.5938C44.6738 80.3125 44.7383 80.0645 44.8672 79.8496C44.9961 79.6309 45.168 79.4492 45.3828 79.3047C45.5977 79.1562 45.8418 79.0449 46.1152 78.9707C46.3926 78.8965 46.6777 78.8594 46.9707 78.8594C47.4902 78.8594 47.9551 78.9492 48.3652 79.1289V80.1016C47.9238 79.8125 47.416 79.668 46.8418 79.668C46.6621 79.668 46.5 79.6895 46.3555 79.7324C46.2109 79.7715 46.0859 79.8281 45.9805 79.9023C45.8789 79.9766 45.7988 80.0664 45.7402 80.1719C45.6855 80.2734 45.6582 80.3867 45.6582 80.5117C45.6582 80.668 45.6855 80.7988 45.7402 80.9043C45.7988 81.0098 45.8828 81.1035 45.9922 81.1855C46.1016 81.2676 46.2344 81.3418 46.3906 81.4082C46.5469 81.4746 46.7246 81.5469 46.9238 81.625C47.1895 81.7266 47.4277 81.832 47.6387 81.9414C47.8496 82.0469 48.0293 82.168 48.1777 82.3047C48.3262 82.4375 48.4395 82.5918 48.5176 82.7676C48.5996 82.9434 48.6406 83.1523 48.6406 83.3945C48.6406 83.6914 48.5742 83.9492 48.4414 84.168C48.3125 84.3867 48.1387 84.5684 47.9199 84.7129C47.7012 84.8574 47.4492 84.9648 47.1641 85.0352C46.8789 85.1055 46.5801 85.1406 46.2676 85.1406C45.6504 85.1406 45.1152 85.0215 44.6621 84.7832ZM58.5371 85H57.5762V83.9805H57.5527C57.1074 84.7539 56.4199 85.1406 55.4902 85.1406C54.7363 85.1406 54.1328 84.873 53.6797 84.3379C53.2305 83.7988 53.0059 83.0664 53.0059 82.1406C53.0059 81.1484 53.2559 80.3535 53.7559 79.7559C54.2559 79.1582 54.9219 78.8594 55.7539 78.8594C56.5781 78.8594 57.1777 79.1836 57.5527 79.832H57.5762V76.1172H58.5371V85ZM57.5762 82.2871V81.4023C57.5762 80.918 57.416 80.5078 57.0957 80.1719C56.7754 79.8359 56.3691 79.668 55.877 79.668C55.291 79.668 54.8301 79.8828 54.4941 80.3125C54.1582 80.7422 53.9902 81.3359 53.9902 82.0938C53.9902 82.7852 54.1504 83.332 54.4707 83.7344C54.7949 84.1328 55.2285 84.332 55.7715 84.332C56.3066 84.332 56.7402 84.1387 57.0723 83.752C57.4082 83.3652 57.5762 82.877 57.5762 82.2871ZM65.3047 82.2402H61.0684C61.084 82.9082 61.2637 83.4238 61.6074 83.7871C61.9512 84.1504 62.4238 84.332 63.0254 84.332C63.7012 84.332 64.3223 84.1094 64.8887 83.6641V84.5664C64.3613 84.9492 63.6641 85.1406 62.7969 85.1406C61.9492 85.1406 61.2832 84.8691 60.7988 84.3262C60.3145 83.7793 60.0723 83.0117 60.0723 82.0234C60.0723 81.0898 60.3359 80.3301 60.8633 79.7441C61.3945 79.1543 62.0527 78.8594 62.8379 78.8594C63.623 78.8594 64.2305 79.1133 64.6602 79.6211C65.0898 80.1289 65.3047 80.834 65.3047 81.7363V82.2402ZM64.3203 81.4258C64.3164 80.8711 64.1816 80.4395 63.916 80.1309C63.6543 79.8223 63.2891 79.668 62.8203 79.668C62.3672 79.668 61.9824 79.8301 61.666 80.1543C61.3496 80.4785 61.1543 80.9023 61.0801 81.4258H64.3203ZM72.8398 84.9414C72.6133 85.0664 72.3145 85.1289 71.9434 85.1289C70.8926 85.1289 70.3672 84.543 70.3672 83.3711V79.8203H69.3359V79H70.3672V77.5352L71.3281 77.2246V79H72.8398V79.8203H71.3281V83.2012C71.3281 83.6035 71.3965 83.8906 71.5332 84.0625C71.6699 84.2344 71.8965 84.3203 72.2129 84.3203C72.4551 84.3203 72.6641 84.2539 72.8398 84.1211V84.9414ZM74.6152 77.4766C74.4434 77.4766 74.2969 77.418 74.1758 77.3008C74.0547 77.1836 73.9941 77.0352 73.9941 76.8555C73.9941 76.6758 74.0547 76.5273 74.1758 76.4102C74.2969 76.2891 74.4434 76.2285 74.6152 76.2285C74.791 76.2285 74.9395 76.2891 75.0605 76.4102C75.1855 76.5273 75.248 76.6758 75.248 76.8555C75.248 77.0273 75.1855 77.1738 75.0605 77.2949C74.9395 77.416 74.791 77.4766 74.6152 77.4766ZM75.084 85H74.123V79H75.084V85ZM81.8516 82.2402H77.6152C77.6309 82.9082 77.8105 83.4238 78.1543 83.7871C78.498 84.1504 78.9707 84.332 79.5723 84.332C80.248 84.332 80.8691 84.1094 81.4355 83.6641V84.5664C80.9082 84.9492 80.2109 85.1406 79.3438 85.1406C78.4961 85.1406 77.8301 84.8691 77.3457 84.3262C76.8613 83.7793 76.6191 83.0117 76.6191 82.0234C76.6191 81.0898 76.8828 80.3301 77.4102 79.7441C77.9414 79.1543 78.5996 78.8594 79.3848 78.8594C80.1699 78.8594 80.7773 79.1133 81.207 79.6211C81.6367 80.1289 81.8516 80.834 81.8516 81.7363V82.2402ZM80.8672 81.4258C80.8633 80.8711 80.7285 80.4395 80.4629 80.1309C80.2012 79.8223 79.8359 79.668 79.3672 79.668C78.9141 79.668 78.5293 79.8301 78.2129 80.1543C77.8965 80.4785 77.7012 80.9023 77.627 81.4258H80.8672ZM86.4395 79.9727C86.2715 79.8438 86.0293 79.7793 85.7129 79.7793C85.3027 79.7793 84.959 79.9727 84.6816 80.3594C84.4082 80.7461 84.2715 81.2734 84.2715 81.9414V85H83.3105V79H84.2715V80.2363H84.2949C84.4316 79.8145 84.6406 79.4863 84.9219 79.252C85.2031 79.0137 85.5176 78.8945 85.8652 78.8945C86.1152 78.8945 86.3066 78.9219 86.4395 78.9766V79.9727ZM87.1191 84.7832V83.752C87.6426 84.1387 88.2188 84.332 88.8477 84.332C89.6914 84.332 90.1133 84.0508 90.1133 83.4883C90.1133 83.3281 90.0762 83.1934 90.002 83.084C89.9316 82.9707 89.834 82.8711 89.709 82.7852C89.5879 82.6992 89.4434 82.623 89.2754 82.5566C89.1113 82.4863 88.9336 82.4141 88.7422 82.3398C88.4766 82.2344 88.2422 82.1289 88.0391 82.0234C87.8398 81.9141 87.6719 81.793 87.5352 81.6602C87.4023 81.5234 87.3008 81.3691 87.2305 81.1973C87.1641 81.0254 87.1309 80.8242 87.1309 80.5938C87.1309 80.3125 87.1953 80.0645 87.3242 79.8496C87.4531 79.6309 87.625 79.4492 87.8398 79.3047C88.0547 79.1562 88.2988 79.0449 88.5723 78.9707C88.8496 78.8965 89.1348 78.8594 89.4277 78.8594C89.9473 78.8594 90.4121 78.9492 90.8223 79.1289V80.1016C90.3809 79.8125 89.873 79.668 89.2988 79.668C89.1191 79.668 88.957 79.6895 88.8125 79.7324C88.668 79.7715 88.543 79.8281 88.4375 79.9023C88.3359 79.9766 88.2559 80.0664 88.1973 80.1719C88.1426 80.2734 88.1152 80.3867 88.1152 80.5117C88.1152 80.668 88.1426 80.7988 88.1973 80.9043C88.2559 81.0098 88.3398 81.1035 88.4492 81.1855C88.5586 81.2676 88.6914 81.3418 88.8477 81.4082C89.0039 81.4746 89.1816 81.5469 89.3809 81.625C89.6465 81.7266 89.8848 81.832 90.0957 81.9414C90.3066 82.0469 90.4863 82.168 90.6348 82.3047C90.7832 82.4375 90.8965 82.5918 90.9746 82.7676C91.0566 82.9434 91.0977 83.1523 91.0977 83.3945C91.0977 83.6914 91.0312 83.9492 90.8984 84.168C90.7695 84.3867 90.5957 84.5684 90.377 84.7129C90.1582 84.8574 89.9062 84.9648 89.6211 85.0352C89.3359 85.1055 89.0371 85.1406 88.7246 85.1406C88.1074 85.1406 87.5723 85.0215 87.1191 84.7832Z" fill="#020057"/>
</svg>
