<svg width="100%" viewBox="0 0 148 147" fill="none" xmlns="http://www.w3.org/2000/svg">
<g filter="url(#filter0_dd_3872_63017)">
<rect x="8" y="4" width="132" height="132" fill="#FBFBFE"/>
<rect x="8.5" y="4.5" width="131" height="131" stroke="#827DFF" stroke-dasharray="4 4"/>
<rect width="100" height="112" transform="translate(24 14)" fill="#FBFBFE"/>
<path d="M65.4247 24.5758C65.1903 24.3414 64.8104 24.3414 64.5761 24.5758C64.3418 24.8101 64.3418 25.19 64.5761 25.4243L66.0974 26.9456C65.7833 27.4199 65.6004 27.9886 65.6004 28.6V39.4C65.6004 41.0569 66.9435 42.4 68.6004 42.4H79.4004C80.0118 42.4 80.5806 42.2171 81.0548 41.903L82.5761 43.4243C82.8104 43.6586 83.1903 43.6586 83.4247 43.4243C83.659 43.19 83.659 42.8101 83.4247 42.5758L65.4247 24.5758ZM80.1764 41.0246C79.9415 41.1371 79.6783 41.2 79.4004 41.2H68.6004C67.6063 41.2 66.8004 40.3941 66.8004 39.4V30.4H69.5519L80.1764 41.0246ZM81.2004 30.4V38.6544L82.3706 39.8246C82.3902 39.6859 82.4004 39.5442 82.4004 39.4V28.6C82.4004 26.9432 81.0572 25.6 79.4004 25.6H68.6004C68.4563 25.6 68.3145 25.6102 68.1758 25.6298L72.946 30.4H81.2004Z" fill="#020057"/>
<path d="M55.5605 66.6484C54.9395 66.9766 54.166 67.1406 53.2402 67.1406C52.0449 67.1406 51.0879 66.7559 50.3691 65.9863C49.6504 65.2168 49.291 64.207 49.291 62.957C49.291 61.6133 49.6953 60.5273 50.5039 59.6992C51.3125 58.8711 52.3379 58.457 53.5801 58.457C54.377 58.457 55.0371 58.5723 55.5605 58.8027V59.8516C54.959 59.5156 54.2949 59.3477 53.5684 59.3477C52.6035 59.3477 51.8203 59.6699 51.2188 60.3145C50.6211 60.959 50.3223 61.8203 50.3223 62.8984C50.3223 63.9219 50.6016 64.7383 51.1602 65.3477C51.7227 65.9531 52.459 66.2559 53.3691 66.2559C54.2129 66.2559 54.9434 66.0684 55.5605 65.6934V66.6484ZM58.1035 67H57.1426V58.1172H58.1035V67ZM64.3438 67H63.3828V66.0625H63.3594C62.9414 66.7812 62.3262 67.1406 61.5137 67.1406C60.916 67.1406 60.4473 66.9824 60.1074 66.666C59.7715 66.3496 59.6035 65.9297 59.6035 65.4062C59.6035 64.2852 60.2637 63.6328 61.584 63.4492L63.3828 63.1973C63.3828 62.1777 62.9707 61.668 62.1465 61.668C61.4238 61.668 60.7715 61.9141 60.1895 62.4062V61.4219C60.7793 61.0469 61.459 60.8594 62.2285 60.8594C63.6387 60.8594 64.3438 61.6055 64.3438 63.0977V67ZM63.3828 63.9648L61.9355 64.1641C61.4902 64.2266 61.1543 64.3379 60.9277 64.498C60.7012 64.6543 60.5879 64.9336 60.5879 65.3359C60.5879 65.6289 60.6914 65.8691 60.8984 66.0566C61.1094 66.2402 61.3887 66.332 61.7363 66.332C62.2129 66.332 62.6055 66.166 62.9141 65.834C63.2266 65.498 63.3828 65.0742 63.3828 64.5625V63.9648ZM69.2832 61.9727C69.1152 61.8438 68.873 61.7793 68.5566 61.7793C68.1465 61.7793 67.8027 61.9727 67.5254 62.3594C67.252 62.7461 67.1152 63.2734 67.1152 63.9414V67H66.1543V61H67.1152V62.2363H67.1387C67.2754 61.8145 67.4844 61.4863 67.7656 61.252C68.0469 61.0137 68.3613 60.8945 68.709 60.8945C68.959 60.8945 69.1504 60.9219 69.2832 60.9766V61.9727ZM70.8184 59.4766C70.6465 59.4766 70.5 59.418 70.3789 59.3008C70.2578 59.1836 70.1973 59.0352 70.1973 58.8555C70.1973 58.6758 70.2578 58.5273 70.3789 58.4102C70.5 58.2891 70.6465 58.2285 70.8184 58.2285C70.9941 58.2285 71.1426 58.2891 71.2637 58.4102C71.3887 58.5273 71.4512 58.6758 71.4512 58.8555C71.4512 59.0273 71.3887 59.1738 71.2637 59.2949C71.1426 59.416 70.9941 59.4766 70.8184 59.4766ZM71.2871 67H70.3262V61H71.2871V67ZM76.0156 66.9414C75.7891 67.0664 75.4902 67.1289 75.1191 67.1289C74.0684 67.1289 73.543 66.543 73.543 65.3711V61.8203H72.5117V61H73.543V59.5352L74.5039 59.2246V61H76.0156V61.8203H74.5039V65.2012C74.5039 65.6035 74.5723 65.8906 74.709 66.0625C74.8457 66.2344 75.0723 66.3203 75.3887 66.3203C75.6309 66.3203 75.8398 66.2539 76.0156 66.1211V66.9414ZM82.0742 61L79.3145 67.9609C78.8223 69.2031 78.1309 69.8242 77.2402 69.8242C76.9902 69.8242 76.7812 69.7988 76.6133 69.748V68.8867C76.8203 68.957 77.0098 68.9922 77.1816 68.9922C77.666 68.9922 78.0293 68.7031 78.2715 68.125L78.752 66.9883L76.4082 61H77.4746L79.0977 65.6172C79.1172 65.6758 79.1582 65.8281 79.2207 66.0742H79.2559C79.2754 65.9805 79.3145 65.832 79.373 65.6289L81.0781 61H82.0742ZM91.3848 67H90.4238V63.5781C90.4238 62.3047 89.959 61.668 89.0293 61.668C88.5488 61.668 88.1504 61.8496 87.834 62.2129C87.5215 62.5723 87.3652 63.0273 87.3652 63.5781V67H86.4043V61H87.3652V61.9961H87.3887C87.8418 61.2383 88.498 60.8594 89.3574 60.8594C90.0137 60.8594 90.5156 61.0723 90.8633 61.498C91.2109 61.9199 91.3848 62.5312 91.3848 63.332V67ZM95.709 67.1406C94.8223 67.1406 94.1133 66.8613 93.582 66.3027C93.0547 65.7402 92.791 64.9961 92.791 64.0703C92.791 63.0625 93.0664 62.2754 93.6172 61.709C94.168 61.1426 94.9121 60.8594 95.8496 60.8594C96.7441 60.8594 97.4414 61.1348 97.9414 61.6855C98.4453 62.2363 98.6973 63 98.6973 63.9766C98.6973 64.9336 98.4258 65.7012 97.8828 66.2793C97.3438 66.8535 96.6191 67.1406 95.709 67.1406ZM95.7793 61.668C95.1621 61.668 94.6738 61.8789 94.3145 62.3008C93.9551 62.7188 93.7754 63.2969 93.7754 64.0352C93.7754 64.7461 93.957 65.3066 94.3203 65.7168C94.6836 66.127 95.1699 66.332 95.7793 66.332C96.4004 66.332 96.877 66.1309 97.209 65.7285C97.5449 65.3262 97.7129 64.7539 97.7129 64.0117C97.7129 63.2617 97.5449 62.6836 97.209 62.2773C96.877 61.8711 96.4004 61.668 95.7793 61.668ZM47.75 82.1328H47.7266V85.7598H46.7656V77H47.7266V78.0547H47.75C48.2227 77.2578 48.9141 76.8594 49.8242 76.8594C50.5977 76.8594 51.2012 77.1289 51.6348 77.668C52.0684 78.2031 52.2852 78.9219 52.2852 79.8242C52.2852 80.8281 52.041 81.6328 51.5527 82.2383C51.0645 82.8398 50.3965 83.1406 49.5488 83.1406C48.7715 83.1406 48.1719 82.8047 47.75 82.1328ZM47.7266 79.7129V80.5508C47.7266 81.0469 47.8867 81.4688 48.207 81.8164C48.5312 82.1602 48.9414 82.332 49.4375 82.332C50.0195 82.332 50.4746 82.1094 50.8027 81.6641C51.1348 81.2188 51.3008 80.5996 51.3008 79.8066C51.3008 79.1387 51.1465 78.6152 50.8379 78.2363C50.5293 77.8574 50.1113 77.668 49.584 77.668C49.0254 77.668 48.5762 77.8633 48.2363 78.2539C47.8965 78.6406 47.7266 79.127 47.7266 79.7129ZM58.6719 83H57.7109V82.0508H57.6875C57.2891 82.7773 56.6719 83.1406 55.8359 83.1406C54.4062 83.1406 53.6914 82.2891 53.6914 80.5859V77H54.6465V80.4336C54.6465 81.6992 55.1309 82.332 56.0996 82.332C56.5684 82.332 56.9531 82.1602 57.2539 81.8164C57.5586 81.4688 57.7109 81.0156 57.7109 80.457V77H58.6719V83ZM65.4395 80.2402H61.2031C61.2188 80.9082 61.3984 81.4238 61.7422 81.7871C62.0859 82.1504 62.5586 82.332 63.1602 82.332C63.8359 82.332 64.457 82.1094 65.0234 81.6641V82.5664C64.4961 82.9492 63.7988 83.1406 62.9316 83.1406C62.084 83.1406 61.418 82.8691 60.9336 82.3262C60.4492 81.7793 60.207 81.0117 60.207 80.0234C60.207 79.0898 60.4707 78.3301 60.998 77.7441C61.5293 77.1543 62.1875 76.8594 62.9727 76.8594C63.7578 76.8594 64.3652 77.1133 64.7949 77.6211C65.2246 78.1289 65.4395 78.834 65.4395 79.7363V80.2402ZM64.4551 79.4258C64.4512 78.8711 64.3164 78.4395 64.0508 78.1309C63.7891 77.8223 63.4238 77.668 62.9551 77.668C62.502 77.668 62.1172 77.8301 61.8008 78.1543C61.4844 78.4785 61.2891 78.9023 61.2148 79.4258H64.4551ZM72.0195 83H71.0586V81.9805H71.0352C70.5898 82.7539 69.9023 83.1406 68.9727 83.1406C68.2188 83.1406 67.6152 82.873 67.1621 82.3379C66.7129 81.7988 66.4883 81.0664 66.4883 80.1406C66.4883 79.1484 66.7383 78.3535 67.2383 77.7559C67.7383 77.1582 68.4043 76.8594 69.2363 76.8594C70.0605 76.8594 70.6602 77.1836 71.0352 77.832H71.0586V74.1172H72.0195V83ZM71.0586 80.2871V79.4023C71.0586 78.918 70.8984 78.5078 70.5781 78.1719C70.2578 77.8359 69.8516 77.668 69.3594 77.668C68.7734 77.668 68.3125 77.8828 67.9766 78.3125C67.6406 78.7422 67.4727 79.3359 67.4727 80.0938C67.4727 80.7852 67.6328 81.332 67.9531 81.7344C68.2773 82.1328 68.7109 82.332 69.2539 82.332C69.7891 82.332 70.2227 82.1387 70.5547 81.752C70.8906 81.3652 71.0586 80.877 71.0586 80.2871ZM78.7871 80.2402H74.5508C74.5664 80.9082 74.7461 81.4238 75.0898 81.7871C75.4336 82.1504 75.9062 82.332 76.5078 82.332C77.1836 82.332 77.8047 82.1094 78.3711 81.6641V82.5664C77.8438 82.9492 77.1465 83.1406 76.2793 83.1406C75.4316 83.1406 74.7656 82.8691 74.2812 82.3262C73.7969 81.7793 73.5547 81.0117 73.5547 80.0234C73.5547 79.0898 73.8184 78.3301 74.3457 77.7441C74.877 77.1543 75.5352 76.8594 76.3203 76.8594C77.1055 76.8594 77.7129 77.1133 78.1426 77.6211C78.5723 78.1289 78.7871 78.834 78.7871 79.7363V80.2402ZM77.8027 79.4258C77.7988 78.8711 77.6641 78.4395 77.3984 78.1309C77.1367 77.8223 76.7715 77.668 76.3027 77.668C75.8496 77.668 75.4648 77.8301 75.1484 78.1543C74.832 78.4785 74.6367 78.9023 74.5625 79.4258H77.8027ZM84.5 83H83.5391V74.1172H84.5V83ZM91.2676 80.2402H87.0312C87.0469 80.9082 87.2266 81.4238 87.5703 81.7871C87.9141 82.1504 88.3867 82.332 88.9883 82.332C89.6641 82.332 90.2852 82.1094 90.8516 81.6641V82.5664C90.3242 82.9492 89.627 83.1406 88.7598 83.1406C87.9121 83.1406 87.2461 82.8691 86.7617 82.3262C86.2773 81.7793 86.0352 81.0117 86.0352 80.0234C86.0352 79.0898 86.2988 78.3301 86.8262 77.7441C87.3574 77.1543 88.0156 76.8594 88.8008 76.8594C89.5859 76.8594 90.1934 77.1133 90.623 77.6211C91.0527 78.1289 91.2676 78.834 91.2676 79.7363V80.2402ZM90.2832 79.4258C90.2793 78.8711 90.1445 78.4395 89.8789 78.1309C89.6172 77.8223 89.252 77.668 88.7832 77.668C88.3301 77.668 87.9453 77.8301 87.6289 78.1543C87.3125 78.4785 87.1172 78.9023 87.043 79.4258H90.2832ZM97.5488 80.2402H93.3125C93.3281 80.9082 93.5078 81.4238 93.8516 81.7871C94.1953 82.1504 94.668 82.332 95.2695 82.332C95.9453 82.332 96.5664 82.1094 97.1328 81.6641V82.5664C96.6055 82.9492 95.9082 83.1406 95.041 83.1406C94.1934 83.1406 93.5273 82.8691 93.043 82.3262C92.5586 81.7793 92.3164 81.0117 92.3164 80.0234C92.3164 79.0898 92.5801 78.3301 93.1074 77.7441C93.6387 77.1543 94.2969 76.8594 95.082 76.8594C95.8672 76.8594 96.4746 77.1133 96.9043 77.6211C97.334 78.1289 97.5488 78.834 97.5488 79.7363V80.2402ZM96.5645 79.4258C96.5605 78.8711 96.4258 78.4395 96.1602 78.1309C95.8984 77.8223 95.5332 77.668 95.0645 77.668C94.6113 77.668 94.2266 77.8301 93.9102 78.1543C93.5938 78.4785 93.3984 78.9023 93.3242 79.4258H96.5645ZM102.137 77.9727C101.969 77.8438 101.727 77.7793 101.41 77.7793C101 77.7793 100.656 77.9727 100.379 78.3594C100.105 78.7461 99.9688 79.2734 99.9688 79.9414V83H99.0078V77H99.9688V78.2363H99.9922C100.129 77.8145 100.338 77.4863 100.619 77.252C100.9 77.0137 101.215 76.8945 101.562 76.8945C101.812 76.8945 102.004 76.9219 102.137 76.9766V77.9727ZM46.7656 91.4766C46.5938 91.4766 46.4473 91.418 46.3262 91.3008C46.2051 91.1836 46.1445 91.0352 46.1445 90.8555C46.1445 90.6758 46.2051 90.5273 46.3262 90.4102C46.4473 90.2891 46.5938 90.2285 46.7656 90.2285C46.9414 90.2285 47.0898 90.2891 47.2109 90.4102C47.3359 90.5273 47.3984 90.6758 47.3984 90.8555C47.3984 91.0273 47.3359 91.1738 47.2109 91.2949C47.0898 91.416 46.9414 91.4766 46.7656 91.4766ZM47.2344 99H46.2734V93H47.2344V99ZM53.5742 91.4883H50.293V94.3945H53.3281V95.2793H50.293V99H49.3086V90.5977H53.5742V91.4883ZM58.168 93.9727C58 93.8438 57.7578 93.7793 57.4414 93.7793C57.0312 93.7793 56.6875 93.9727 56.4102 94.3594C56.1367 94.7461 56 95.2734 56 95.9414V99H55.0391V93H56V94.2363H56.0234C56.1602 93.8145 56.3691 93.4863 56.6504 93.252C56.9316 93.0137 57.2461 92.8945 57.5938 92.8945C57.8438 92.8945 58.0352 92.9219 58.168 92.9766V93.9727ZM63.5059 99H62.5449V98.0625H62.5215C62.1035 98.7812 61.4883 99.1406 60.6758 99.1406C60.0781 99.1406 59.6094 98.9824 59.2695 98.666C58.9336 98.3496 58.7656 97.9297 58.7656 97.4062C58.7656 96.2852 59.4258 95.6328 60.7461 95.4492L62.5449 95.1973C62.5449 94.1777 62.1328 93.668 61.3086 93.668C60.5859 93.668 59.9336 93.9141 59.3516 94.4062V93.4219C59.9414 93.0469 60.6211 92.8594 61.3906 92.8594C62.8008 92.8594 63.5059 93.6055 63.5059 95.0977V99ZM62.5449 95.9648L61.0977 96.1641C60.6523 96.2266 60.3164 96.3379 60.0898 96.498C59.8633 96.6543 59.75 96.9336 59.75 97.3359C59.75 97.6289 59.8535 97.8691 60.0605 98.0566C60.2715 98.2402 60.5508 98.332 60.8984 98.332C61.375 98.332 61.7676 98.166 62.0762 97.834C62.3887 97.498 62.5449 97.0742 62.5449 96.5625V95.9648ZM73.8359 99H72.875V95.5547C72.875 94.8906 72.7715 94.4102 72.5645 94.1133C72.3613 93.8164 72.0176 93.668 71.5332 93.668C71.123 93.668 70.7734 93.8555 70.4844 94.2305C70.1992 94.6055 70.0566 95.0547 70.0566 95.5781V99H69.0957V95.4375C69.0957 94.2578 68.6406 93.668 67.7305 93.668C67.3086 93.668 66.9609 93.8457 66.6875 94.2012C66.4141 94.5527 66.2773 95.0117 66.2773 95.5781V99H65.3164V93H66.2773V93.9492H66.3008C66.7266 93.2227 67.3477 92.8594 68.1641 92.8594C68.5742 92.8594 68.9316 92.9746 69.2363 93.2051C69.541 93.4316 69.75 93.7305 69.8633 94.1016C70.3086 93.2734 70.9727 92.8594 71.8555 92.8594C73.1758 92.8594 73.8359 93.6738 73.8359 95.3027V99ZM80.4746 96.2402H76.2383C76.2539 96.9082 76.4336 97.4238 76.7773 97.7871C77.1211 98.1504 77.5938 98.332 78.1953 98.332C78.8711 98.332 79.4922 98.1094 80.0586 97.6641V98.5664C79.5312 98.9492 78.834 99.1406 77.9668 99.1406C77.1191 99.1406 76.4531 98.8691 75.9688 98.3262C75.4844 97.7793 75.2422 97.0117 75.2422 96.0234C75.2422 95.0898 75.5059 94.3301 76.0332 93.7441C76.5645 93.1543 77.2227 92.8594 78.0078 92.8594C78.793 92.8594 79.4004 93.1133 79.8301 93.6211C80.2598 94.1289 80.4746 94.834 80.4746 95.7363V96.2402ZM79.4902 95.4258C79.4863 94.8711 79.3516 94.4395 79.0859 94.1309C78.8242 93.8223 78.459 93.668 77.9902 93.668C77.5371 93.668 77.1523 93.8301 76.8359 94.1543C76.5195 94.4785 76.3242 94.9023 76.25 95.4258H79.4902ZM81.5703 98.7832V97.752C82.0938 98.1387 82.6699 98.332 83.2988 98.332C84.1426 98.332 84.5645 98.0508 84.5645 97.4883C84.5645 97.3281 84.5273 97.1934 84.4531 97.084C84.3828 96.9707 84.2852 96.8711 84.1602 96.7852C84.0391 96.6992 83.8945 96.623 83.7266 96.5566C83.5625 96.4863 83.3848 96.4141 83.1934 96.3398C82.9277 96.2344 82.6934 96.1289 82.4902 96.0234C82.291 95.9141 82.123 95.793 81.9863 95.6602C81.8535 95.5234 81.752 95.3691 81.6816 95.1973C81.6152 95.0254 81.582 94.8242 81.582 94.5938C81.582 94.3125 81.6465 94.0645 81.7754 93.8496C81.9043 93.6309 82.0762 93.4492 82.291 93.3047C82.5059 93.1562 82.75 93.0449 83.0234 92.9707C83.3008 92.8965 83.5859 92.8594 83.8789 92.8594C84.3984 92.8594 84.8633 92.9492 85.2734 93.1289V94.1016C84.832 93.8125 84.3242 93.668 83.75 93.668C83.5703 93.668 83.4082 93.6895 83.2637 93.7324C83.1191 93.7715 82.9941 93.8281 82.8887 93.9023C82.7871 93.9766 82.707 94.0664 82.6484 94.1719C82.5938 94.2734 82.5664 94.3867 82.5664 94.5117C82.5664 94.668 82.5938 94.7988 82.6484 94.9043C82.707 95.0098 82.791 95.1035 82.9004 95.1855C83.0098 95.2676 83.1426 95.3418 83.2988 95.4082C83.4551 95.4746 83.6328 95.5469 83.832 95.625C84.0977 95.7266 84.3359 95.832 84.5469 95.9414C84.7578 96.0469 84.9375 96.168 85.0859 96.3047C85.2344 96.4375 85.3477 96.5918 85.4258 96.7676C85.5078 96.9434 85.5488 97.1523 85.5488 97.3945C85.5488 97.6914 85.4824 97.9492 85.3496 98.168C85.2207 98.3867 85.0469 98.5684 84.8281 98.7129C84.6094 98.8574 84.3574 98.9648 84.0723 99.0352C83.7871 99.1055 83.4883 99.1406 83.1758 99.1406C82.5586 99.1406 82.0234 99.0215 81.5703 98.7832ZM95.4453 99H94.4844V97.9805H94.4609C94.0156 98.7539 93.3281 99.1406 92.3984 99.1406C91.6445 99.1406 91.041 98.873 90.5879 98.3379C90.1387 97.7988 89.9141 97.0664 89.9141 96.1406C89.9141 95.1484 90.1641 94.3535 90.6641 93.7559C91.1641 93.1582 91.8301 92.8594 92.6621 92.8594C93.4863 92.8594 94.0859 93.1836 94.4609 93.832H94.4844V90.1172H95.4453V99ZM94.4844 96.2871V95.4023C94.4844 94.918 94.3242 94.5078 94.0039 94.1719C93.6836 93.8359 93.2773 93.668 92.7852 93.668C92.1992 93.668 91.7383 93.8828 91.4023 94.3125C91.0664 94.7422 90.8984 95.3359 90.8984 96.0938C90.8984 96.7852 91.0586 97.332 91.3789 97.7344C91.7031 98.1328 92.1367 98.332 92.6797 98.332C93.2148 98.332 93.6484 98.1387 93.9805 97.752C94.3164 97.3652 94.4844 96.877 94.4844 96.2871ZM102.213 96.2402H97.9766C97.9922 96.9082 98.1719 97.4238 98.5156 97.7871C98.8594 98.1504 99.332 98.332 99.9336 98.332C100.609 98.332 101.23 98.1094 101.797 97.6641V98.5664C101.27 98.9492 100.572 99.1406 99.7051 99.1406C98.8574 99.1406 98.1914 98.8691 97.707 98.3262C97.2227 97.7793 96.9805 97.0117 96.9805 96.0234C96.9805 95.0898 97.2441 94.3301 97.7715 93.7441C98.3027 93.1543 98.9609 92.8594 99.7461 92.8594C100.531 92.8594 101.139 93.1133 101.568 93.6211C101.998 94.1289 102.213 94.834 102.213 95.7363V96.2402ZM101.229 95.4258C101.225 94.8711 101.09 94.4395 100.824 94.1309C100.562 93.8223 100.197 93.668 99.7285 93.668C99.2754 93.668 98.8906 93.8301 98.5742 94.1543C98.2578 94.4785 98.0625 94.9023 97.9883 95.4258H101.229ZM56.4336 114.941C56.207 115.066 55.9082 115.129 55.5371 115.129C54.4863 115.129 53.9609 114.543 53.9609 113.371V109.82H52.9297V109H53.9609V107.535L54.9219 107.225V109H56.4336V109.82H54.9219V113.201C54.9219 113.604 54.9902 113.891 55.127 114.062C55.2637 114.234 55.4902 114.32 55.8066 114.32C56.0488 114.32 56.2578 114.254 56.4336 114.121V114.941ZM62.5391 112.24H58.3027C58.3184 112.908 58.498 113.424 58.8418 113.787C59.1855 114.15 59.6582 114.332 60.2598 114.332C60.9355 114.332 61.5566 114.109 62.123 113.664V114.566C61.5957 114.949 60.8984 115.141 60.0312 115.141C59.1836 115.141 58.5176 114.869 58.0332 114.326C57.5488 113.779 57.3066 113.012 57.3066 112.023C57.3066 111.09 57.5703 110.33 58.0977 109.744C58.6289 109.154 59.2871 108.859 60.0723 108.859C60.8574 108.859 61.4648 109.113 61.8945 109.621C62.3242 110.129 62.5391 110.834 62.5391 111.736V112.24ZM61.5547 111.426C61.5508 110.871 61.416 110.439 61.1504 110.131C60.8887 109.822 60.5234 109.668 60.0547 109.668C59.6016 109.668 59.2168 109.83 58.9004 110.154C58.584 110.479 58.3887 110.902 58.3145 111.426H61.5547ZM67.127 109.973C66.959 109.844 66.7168 109.779 66.4004 109.779C65.9902 109.779 65.6465 109.973 65.3691 110.359C65.0957 110.746 64.959 111.273 64.959 111.941V115H63.998V109H64.959V110.236H64.9824C65.1191 109.814 65.3281 109.486 65.6094 109.252C65.8906 109.014 66.2051 108.895 66.5527 108.895C66.8027 108.895 66.9941 108.922 67.127 108.977V109.973ZM72.2598 114.725C71.7988 115.002 71.252 115.141 70.6191 115.141C69.7637 115.141 69.0723 114.863 68.5449 114.309C68.0215 113.75 67.7598 113.027 67.7598 112.141C67.7598 111.152 68.043 110.359 68.6094 109.762C69.1758 109.16 69.9316 108.859 70.877 108.859C71.4043 108.859 71.8691 108.957 72.2715 109.152V110.137C71.8262 109.824 71.3496 109.668 70.8418 109.668C70.2285 109.668 69.7246 109.889 69.3301 110.33C68.9395 110.768 68.7441 111.344 68.7441 112.059C68.7441 112.762 68.9277 113.316 69.2949 113.723C69.666 114.129 70.1621 114.332 70.7832 114.332C71.3066 114.332 71.7988 114.158 72.2598 113.811V114.725ZM78.5352 112.24H74.2988C74.3145 112.908 74.4941 113.424 74.8379 113.787C75.1816 114.15 75.6543 114.332 76.2559 114.332C76.9316 114.332 77.5527 114.109 78.1191 113.664V114.566C77.5918 114.949 76.8945 115.141 76.0273 115.141C75.1797 115.141 74.5137 114.869 74.0293 114.326C73.5449 113.779 73.3027 113.012 73.3027 112.023C73.3027 111.09 73.5664 110.33 74.0938 109.744C74.625 109.154 75.2832 108.859 76.0684 108.859C76.8535 108.859 77.4609 109.113 77.8906 109.621C78.3203 110.129 78.5352 110.834 78.5352 111.736V112.24ZM77.5508 111.426C77.5469 110.871 77.4121 110.439 77.1465 110.131C76.8848 109.822 76.5195 109.668 76.0508 109.668C75.5977 109.668 75.2129 109.83 74.8965 110.154C74.5801 110.479 74.3848 110.902 74.3105 111.426H77.5508ZM83.123 109.973C82.9551 109.844 82.7129 109.779 82.3965 109.779C81.9863 109.779 81.6426 109.973 81.3652 110.359C81.0918 110.746 80.9551 111.273 80.9551 111.941V115H79.9941V109H80.9551V110.236H80.9785C81.1152 109.814 81.3242 109.486 81.6055 109.252C81.8867 109.014 82.2012 108.895 82.5488 108.895C82.7988 108.895 82.9902 108.922 83.123 108.977V109.973ZM86.6738 115.141C85.7871 115.141 85.0781 114.861 84.5469 114.303C84.0195 113.74 83.7559 112.996 83.7559 112.07C83.7559 111.062 84.0312 110.275 84.582 109.709C85.1328 109.143 85.877 108.859 86.8145 108.859C87.709 108.859 88.4062 109.135 88.9062 109.686C89.4102 110.236 89.6621 111 89.6621 111.977C89.6621 112.934 89.3906 113.701 88.8477 114.279C88.3086 114.854 87.584 115.141 86.6738 115.141ZM86.7441 109.668C86.127 109.668 85.6387 109.879 85.2793 110.301C84.9199 110.719 84.7402 111.297 84.7402 112.035C84.7402 112.746 84.9219 113.307 85.2852 113.717C85.6484 114.127 86.1348 114.332 86.7441 114.332C87.3652 114.332 87.8418 114.131 88.1738 113.729C88.5098 113.326 88.6777 112.754 88.6777 112.012C88.6777 111.262 88.5098 110.684 88.1738 110.277C87.8418 109.871 87.3652 109.668 86.7441 109.668ZM90.834 114.783V113.752C91.3574 114.139 91.9336 114.332 92.5625 114.332C93.4062 114.332 93.8281 114.051 93.8281 113.488C93.8281 113.328 93.791 113.193 93.7168 113.084C93.6465 112.971 93.5488 112.871 93.4238 112.785C93.3027 112.699 93.1582 112.623 92.9902 112.557C92.8262 112.486 92.6484 112.414 92.457 112.34C92.1914 112.234 91.957 112.129 91.7539 112.023C91.5547 111.914 91.3867 111.793 91.25 111.66C91.1172 111.523 91.0156 111.369 90.9453 111.197C90.8789 111.025 90.8457 110.824 90.8457 110.594C90.8457 110.312 90.9102 110.064 91.0391 109.85C91.168 109.631 91.3398 109.449 91.5547 109.305C91.7695 109.156 92.0137 109.045 92.2871 108.971C92.5645 108.896 92.8496 108.859 93.1426 108.859C93.6621 108.859 94.127 108.949 94.5371 109.129V110.102C94.0957 109.812 93.5879 109.668 93.0137 109.668C92.834 109.668 92.6719 109.689 92.5273 109.732C92.3828 109.771 92.2578 109.828 92.1523 109.902C92.0508 109.977 91.9707 110.066 91.9121 110.172C91.8574 110.273 91.8301 110.387 91.8301 110.512C91.8301 110.668 91.8574 110.799 91.9121 110.904C91.9707 111.01 92.0547 111.104 92.1641 111.186C92.2734 111.268 92.4062 111.342 92.5625 111.408C92.7188 111.475 92.8965 111.547 93.0957 111.625C93.3613 111.727 93.5996 111.832 93.8105 111.941C94.0215 112.047 94.2012 112.168 94.3496 112.305C94.498 112.438 94.6113 112.592 94.6895 112.768C94.7715 112.943 94.8125 113.152 94.8125 113.395C94.8125 113.691 94.7461 113.949 94.6133 114.168C94.4844 114.387 94.3105 114.568 94.0918 114.713C93.873 114.857 93.6211 114.965 93.3359 115.035C93.0508 115.105 92.752 115.141 92.4395 115.141C91.8223 115.141 91.2871 115.021 90.834 114.783Z" fill="#020057"/>
</g>
<defs>
<filter id="filter0_dd_3872_63017" x="0.8" y="2.38419e-07" width="146.4" height="146.4" filterUnits="userSpaceOnUse" color-interpolation-filters="sRGB">
<feFlood flood-opacity="0" result="BackgroundImageFix"/>
<feColorMatrix in="SourceAlpha" type="matrix" values="0 0 0 0 0 0 0 0 0 0 0 0 0 0 0 0 0 0 127 0" result="hardAlpha"/>
<feOffset dy="3.2"/>
<feGaussianBlur stdDeviation="3.6"/>
<feColorMatrix type="matrix" values="0 0 0 0 0.513726 0 0 0 0 0.494118 0 0 0 0 1 0 0 0 0.12 0"/>
<feBlend mode="normal" in2="BackgroundImageFix" result="effect1_dropShadow_3872_63017"/>
<feColorMatrix in="SourceAlpha" type="matrix" values="0 0 0 0 0 0 0 0 0 0 0 0 0 0 0 0 0 0 127 0" result="hardAlpha"/>
<feOffset dy="0.6"/>
<feGaussianBlur stdDeviation="0.9"/>
<feColorMatrix type="matrix" values="0 0 0 0 0.513726 0 0 0 0 0.494118 0 0 0 0 1 0 0 0 0.1 0"/>
<feBlend mode="normal" in2="effect1_dropShadow_3872_63017" result="effect2_dropShadow_3872_63017"/>
<feBlend mode="normal" in="SourceGraphic" in2="effect2_dropShadow_3872_63017" result="shape"/>
</filter>
</defs>
</svg>
