<svg width="100%" viewBox="0 0 148 147" fill="none" xmlns="http://www.w3.org/2000/svg">
<g filter="url(#filter0_dd_3872_63016)">
<rect x="8" y="4" width="132" height="132" fill="#FBFBFE"/>
<rect x="8.5" y="4.5" width="131" height="131" stroke="#827DFF" stroke-dasharray="4 4"/>
<rect width="100" height="128" transform="translate(24 6)" fill="#FBFBFE"/>
<path d="M65.4247 16.5756C65.1903 16.3413 64.8104 16.3413 64.5761 16.5756C64.3418 16.81 64.3418 17.1899 64.5761 17.4242L66.0974 18.9455C65.7833 19.4197 65.6004 19.9885 65.6004 20.5999V31.3999C65.6004 33.0568 66.9435 34.3999 68.6004 34.3999H79.4004C80.0118 34.3999 80.5806 34.217 81.0548 33.9029L82.5761 35.4242C82.8104 35.6585 83.1903 35.6585 83.4247 35.4242C83.659 35.1899 83.659 34.81 83.4247 34.5756L65.4247 16.5756ZM80.1764 33.0245C79.9415 33.1369 79.6783 33.1999 79.4004 33.1999H68.6004C67.6063 33.1999 66.8004 32.394 66.8004 31.3999V22.3999H69.5519L80.1764 33.0245ZM81.2004 22.3999V30.6543L82.3706 31.8245C82.3902 31.6858 82.4004 31.544 82.4004 31.3999V20.5999C82.4004 18.943 81.0572 17.5999 79.4004 17.5999H68.6004C68.4563 17.5999 68.3145 17.6101 68.1758 17.6297L72.946 22.3999H81.2004Z" fill="#020057"/>
<path d="M49.6426 58.6484C49.0215 58.9766 48.248 59.1406 47.3223 59.1406C46.127 59.1406 45.1699 58.7559 44.4512 57.9863C43.7324 57.2168 43.373 56.207 43.373 54.957C43.373 53.6133 43.7773 52.5273 44.5859 51.6992C45.3945 50.8711 46.4199 50.457 47.6621 50.457C48.459 50.457 49.1191 50.5723 49.6426 50.8027V51.8516C49.041 51.5156 48.377 51.3477 47.6504 51.3477C46.6855 51.3477 45.9023 51.6699 45.3008 52.3145C44.7031 52.959 44.4043 53.8203 44.4043 54.8984C44.4043 55.9219 44.6836 56.7383 45.2422 57.3477C45.8047 57.9531 46.541 58.2559 47.4512 58.2559C48.2949 58.2559 49.0254 58.0684 49.6426 57.6934V58.6484ZM52.1855 59H51.2246V50.1172H52.1855V59ZM58.4258 59H57.4648V58.0625H57.4414C57.0234 58.7812 56.4082 59.1406 55.5957 59.1406C54.998 59.1406 54.5293 58.9824 54.1895 58.666C53.8535 58.3496 53.6855 57.9297 53.6855 57.4062C53.6855 56.2852 54.3457 55.6328 55.666 55.4492L57.4648 55.1973C57.4648 54.1777 57.0527 53.668 56.2285 53.668C55.5059 53.668 54.8535 53.9141 54.2715 54.4062V53.4219C54.8613 53.0469 55.541 52.8594 56.3105 52.8594C57.7207 52.8594 58.4258 53.6055 58.4258 55.0977V59ZM57.4648 55.9648L56.0176 56.1641C55.5723 56.2266 55.2363 56.3379 55.0098 56.498C54.7832 56.6543 54.6699 56.9336 54.6699 57.3359C54.6699 57.6289 54.7734 57.8691 54.9805 58.0566C55.1914 58.2402 55.4707 58.332 55.8184 58.332C56.2949 58.332 56.6875 58.166 56.9961 57.834C57.3086 57.498 57.4648 57.0742 57.4648 56.5625V55.9648ZM63.3652 53.9727C63.1973 53.8438 62.9551 53.7793 62.6387 53.7793C62.2285 53.7793 61.8848 53.9727 61.6074 54.3594C61.334 54.7461 61.1973 55.2734 61.1973 55.9414V59H60.2363V53H61.1973V54.2363H61.2207C61.3574 53.8145 61.5664 53.4863 61.8477 53.252C62.1289 53.0137 62.4434 52.8945 62.791 52.8945C63.041 52.8945 63.2324 52.9219 63.3652 52.9766V53.9727ZM64.9004 51.4766C64.7285 51.4766 64.582 51.418 64.4609 51.3008C64.3398 51.1836 64.2793 51.0352 64.2793 50.8555C64.2793 50.6758 64.3398 50.5273 64.4609 50.4102C64.582 50.2891 64.7285 50.2285 64.9004 50.2285C65.0762 50.2285 65.2246 50.2891 65.3457 50.4102C65.4707 50.5273 65.5332 50.6758 65.5332 50.8555C65.5332 51.0273 65.4707 51.1738 65.3457 51.2949C65.2246 51.416 65.0762 51.4766 64.9004 51.4766ZM65.3691 59H64.4082V53H65.3691V59ZM70.0977 58.9414C69.8711 59.0664 69.5723 59.1289 69.2012 59.1289C68.1504 59.1289 67.625 58.543 67.625 57.3711V53.8203H66.5938V53H67.625V51.5352L68.5859 51.2246V53H70.0977V53.8203H68.5859V57.2012C68.5859 57.6035 68.6543 57.8906 68.791 58.0625C68.9277 58.2344 69.1543 58.3203 69.4707 58.3203C69.7129 58.3203 69.9219 58.2539 70.0977 58.1211V58.9414ZM76.1562 53L73.3965 59.9609C72.9043 61.2031 72.2129 61.8242 71.3223 61.8242C71.0723 61.8242 70.8633 61.7988 70.6953 61.748V60.8867C70.9023 60.957 71.0918 60.9922 71.2637 60.9922C71.748 60.9922 72.1113 60.7031 72.3535 60.125L72.834 58.9883L70.4902 53H71.5566L73.1797 57.6172C73.1992 57.6758 73.2402 57.8281 73.3027 58.0742H73.3379C73.3574 57.9805 73.3965 57.832 73.4551 57.6289L75.1602 53H76.1562ZM85.4668 59H84.1191L81.4707 56.1172H81.4473V59H80.4863V50.1172H81.4473V55.748H81.4707L83.9902 53H85.25L82.4668 55.8945L85.4668 59ZM90.7461 59H89.7852V58.0625H89.7617C89.3438 58.7812 88.7285 59.1406 87.916 59.1406C87.3184 59.1406 86.8496 58.9824 86.5098 58.666C86.1738 58.3496 86.0059 57.9297 86.0059 57.4062C86.0059 56.2852 86.666 55.6328 87.9863 55.4492L89.7852 55.1973C89.7852 54.1777 89.373 53.668 88.5488 53.668C87.8262 53.668 87.1738 53.9141 86.5918 54.4062V53.4219C87.1816 53.0469 87.8613 52.8594 88.6309 52.8594C90.041 52.8594 90.7461 53.6055 90.7461 55.0977V59ZM89.7852 55.9648L88.3379 56.1641C87.8926 56.2266 87.5566 56.3379 87.3301 56.498C87.1035 56.6543 86.9902 56.9336 86.9902 57.3359C86.9902 57.6289 87.0938 57.8691 87.3008 58.0566C87.5117 58.2402 87.791 58.332 88.1387 58.332C88.6152 58.332 89.0078 58.166 89.3164 57.834C89.6289 57.498 89.7852 57.0742 89.7852 56.5625V55.9648ZM97.5371 59H96.5762V55.5781C96.5762 54.3047 96.1113 53.668 95.1816 53.668C94.7012 53.668 94.3027 53.8496 93.9863 54.2129C93.6738 54.5723 93.5176 55.0273 93.5176 55.5781V59H92.5566V53H93.5176V53.9961H93.541C93.9941 53.2383 94.6504 52.8594 95.5098 52.8594C96.166 52.8594 96.668 53.0723 97.0156 53.498C97.3633 53.9199 97.5371 54.5312 97.5371 55.332V59ZM104.334 59H103.373V55.5781C103.373 54.3047 102.908 53.668 101.979 53.668C101.498 53.668 101.1 53.8496 100.783 54.2129C100.471 54.5723 100.314 55.0273 100.314 55.5781V59H99.3535V53H100.314V53.9961H100.338C100.791 53.2383 101.447 52.8594 102.307 52.8594C102.963 52.8594 103.465 53.0723 103.812 53.498C104.16 53.9199 104.334 54.5312 104.334 55.332V59ZM43.8125 75H42.4648L39.8164 72.1172H39.793V75H38.832V66.1172H39.793V71.748H39.8164L42.3359 69H43.5957L40.8125 71.8945L43.8125 75ZM49.6191 72.2402H45.3828C45.3984 72.9082 45.5781 73.4238 45.9219 73.7871C46.2656 74.1504 46.7383 74.332 47.3398 74.332C48.0156 74.332 48.6367 74.1094 49.2031 73.6641V74.5664C48.6758 74.9492 47.9785 75.1406 47.1113 75.1406C46.2637 75.1406 45.5977 74.8691 45.1133 74.3262C44.6289 73.7793 44.3867 73.0117 44.3867 72.0234C44.3867 71.0898 44.6504 70.3301 45.1777 69.7441C45.709 69.1543 46.3672 68.8594 47.1523 68.8594C47.9375 68.8594 48.5449 69.1133 48.9746 69.6211C49.4043 70.1289 49.6191 70.834 49.6191 71.7363V72.2402ZM48.6348 71.4258C48.6309 70.8711 48.4961 70.4395 48.2305 70.1309C47.9688 69.8223 47.6035 69.668 47.1348 69.668C46.6816 69.668 46.2969 69.8301 45.9805 70.1543C45.6641 70.4785 45.4688 70.9023 45.3945 71.4258H48.6348ZM51.5703 67.4766C51.3984 67.4766 51.252 67.418 51.1309 67.3008C51.0098 67.1836 50.9492 67.0352 50.9492 66.8555C50.9492 66.6758 51.0098 66.5273 51.1309 66.4102C51.252 66.2891 51.3984 66.2285 51.5703 66.2285C51.7461 66.2285 51.8945 66.2891 52.0156 66.4102C52.1406 66.5273 52.2031 66.6758 52.2031 66.8555C52.2031 67.0273 52.1406 67.1738 52.0156 67.2949C51.8945 67.416 51.7461 67.4766 51.5703 67.4766ZM52.0391 75H51.0781V69H52.0391V75ZM58.9648 75H58.0039V71.5781C58.0039 70.3047 57.5391 69.668 56.6094 69.668C56.1289 69.668 55.7305 69.8496 55.4141 70.2129C55.1016 70.5723 54.9453 71.0273 54.9453 71.5781V75H53.9844V69H54.9453V69.9961H54.9688C55.4219 69.2383 56.0781 68.8594 56.9375 68.8594C57.5938 68.8594 58.0957 69.0723 58.4434 69.498C58.791 69.9199 58.9648 70.5312 58.9648 71.332V75ZM65.6035 72.2402H61.3672C61.3828 72.9082 61.5625 73.4238 61.9062 73.7871C62.25 74.1504 62.7227 74.332 63.3242 74.332C64 74.332 64.6211 74.1094 65.1875 73.6641V74.5664C64.6602 74.9492 63.9629 75.1406 63.0957 75.1406C62.248 75.1406 61.582 74.8691 61.0977 74.3262C60.6133 73.7793 60.3711 73.0117 60.3711 72.0234C60.3711 71.0898 60.6348 70.3301 61.1621 69.7441C61.6934 69.1543 62.3516 68.8594 63.1367 68.8594C63.9219 68.8594 64.5293 69.1133 64.959 69.6211C65.3887 70.1289 65.6035 70.834 65.6035 71.7363V72.2402ZM64.6191 71.4258C64.6152 70.8711 64.4805 70.4395 64.2148 70.1309C63.9531 69.8223 63.5879 69.668 63.1191 69.668C62.666 69.668 62.2812 69.8301 61.9648 70.1543C61.6484 70.4785 61.4531 70.9023 61.3789 71.4258H64.6191ZM70.8477 67.4766C70.6758 67.4766 70.5293 67.418 70.4082 67.3008C70.2871 67.1836 70.2266 67.0352 70.2266 66.8555C70.2266 66.6758 70.2871 66.5273 70.4082 66.4102C70.5293 66.2891 70.6758 66.2285 70.8477 66.2285C71.0234 66.2285 71.1719 66.2891 71.293 66.4102C71.418 66.5273 71.4805 66.6758 71.4805 66.8555C71.4805 67.0273 71.418 67.1738 71.293 67.2949C71.1719 67.416 71.0234 67.4766 70.8477 67.4766ZM71.3164 75H70.3555V69H71.3164V75ZM77.6562 67.4883H74.375V70.3945H77.4102V71.2793H74.375V75H73.3906V66.5977H77.6562V67.4883ZM82.25 69.9727C82.082 69.8438 81.8398 69.7793 81.5234 69.7793C81.1133 69.7793 80.7695 69.9727 80.4922 70.3594C80.2188 70.7461 80.082 71.2734 80.082 71.9414V75H79.1211V69H80.082V70.2363H80.1055C80.2422 69.8145 80.4512 69.4863 80.7324 69.252C81.0137 69.0137 81.3281 68.8945 81.6758 68.8945C81.9258 68.8945 82.1172 68.9219 82.25 68.9766V69.9727ZM87.5879 75H86.627V74.0625H86.6035C86.1855 74.7812 85.5703 75.1406 84.7578 75.1406C84.1602 75.1406 83.6914 74.9824 83.3516 74.666C83.0156 74.3496 82.8477 73.9297 82.8477 73.4062C82.8477 72.2852 83.5078 71.6328 84.8281 71.4492L86.627 71.1973C86.627 70.1777 86.2148 69.668 85.3906 69.668C84.668 69.668 84.0156 69.9141 83.4336 70.4062V69.4219C84.0234 69.0469 84.7031 68.8594 85.4727 68.8594C86.8828 68.8594 87.5879 69.6055 87.5879 71.0977V75ZM86.627 71.9648L85.1797 72.1641C84.7344 72.2266 84.3984 72.3379 84.1719 72.498C83.9453 72.6543 83.832 72.9336 83.832 73.3359C83.832 73.6289 83.9355 73.8691 84.1426 74.0566C84.3535 74.2402 84.6328 74.332 84.9805 74.332C85.457 74.332 85.8496 74.166 86.1582 73.834C86.4707 73.498 86.627 73.0742 86.627 72.5625V71.9648ZM97.918 75H96.957V71.5547C96.957 70.8906 96.8535 70.4102 96.6465 70.1133C96.4434 69.8164 96.0996 69.668 95.6152 69.668C95.2051 69.668 94.8555 69.8555 94.5664 70.2305C94.2812 70.6055 94.1387 71.0547 94.1387 71.5781V75H93.1777V71.4375C93.1777 70.2578 92.7227 69.668 91.8125 69.668C91.3906 69.668 91.043 69.8457 90.7695 70.2012C90.4961 70.5527 90.3594 71.0117 90.3594 71.5781V75H89.3984V69H90.3594V69.9492H90.3828C90.8086 69.2227 91.4297 68.8594 92.2461 68.8594C92.6562 68.8594 93.0137 68.9746 93.3184 69.2051C93.623 69.4316 93.832 69.7305 93.9453 70.1016C94.3906 69.2734 95.0547 68.8594 95.9375 68.8594C97.2578 68.8594 97.918 69.6738 97.918 71.3027V75ZM104.557 72.2402H100.32C100.336 72.9082 100.516 73.4238 100.859 73.7871C101.203 74.1504 101.676 74.332 102.277 74.332C102.953 74.332 103.574 74.1094 104.141 73.6641V74.5664C103.613 74.9492 102.916 75.1406 102.049 75.1406C101.201 75.1406 100.535 74.8691 100.051 74.3262C99.5664 73.7793 99.3242 73.0117 99.3242 72.0234C99.3242 71.0898 99.5879 70.3301 100.115 69.7441C100.646 69.1543 101.305 68.8594 102.09 68.8594C102.875 68.8594 103.482 69.1133 103.912 69.6211C104.342 70.1289 104.557 70.834 104.557 71.7363V72.2402ZM103.572 71.4258C103.568 70.8711 103.434 70.4395 103.168 70.1309C102.906 69.8223 102.541 69.668 102.072 69.668C101.619 69.668 101.234 69.8301 100.918 70.1543C100.602 70.4785 100.406 70.9023 100.332 71.4258H103.572ZM105.652 74.7832V73.752C106.176 74.1387 106.752 74.332 107.381 74.332C108.225 74.332 108.646 74.0508 108.646 73.4883C108.646 73.3281 108.609 73.1934 108.535 73.084C108.465 72.9707 108.367 72.8711 108.242 72.7852C108.121 72.6992 107.977 72.623 107.809 72.5566C107.645 72.4863 107.467 72.4141 107.275 72.3398C107.01 72.2344 106.775 72.1289 106.572 72.0234C106.373 71.9141 106.205 71.793 106.068 71.6602C105.936 71.5234 105.834 71.3691 105.764 71.1973C105.697 71.0254 105.664 70.8242 105.664 70.5938C105.664 70.3125 105.729 70.0645 105.857 69.8496C105.986 69.6309 106.158 69.4492 106.373 69.3047C106.588 69.1562 106.832 69.0449 107.105 68.9707C107.383 68.8965 107.668 68.8594 107.961 68.8594C108.48 68.8594 108.945 68.9492 109.355 69.1289V70.1016C108.914 69.8125 108.406 69.668 107.832 69.668C107.652 69.668 107.49 69.6895 107.346 69.7324C107.201 69.7715 107.076 69.8281 106.971 69.9023C106.869 69.9766 106.789 70.0664 106.73 70.1719C106.676 70.2734 106.648 70.3867 106.648 70.5117C106.648 70.668 106.676 70.7988 106.73 70.9043C106.789 71.0098 106.873 71.1035 106.982 71.1855C107.092 71.2676 107.225 71.3418 107.381 71.4082C107.537 71.4746 107.715 71.5469 107.914 71.625C108.18 71.7266 108.418 71.832 108.629 71.9414C108.84 72.0469 109.02 72.168 109.168 72.3047C109.316 72.4375 109.43 72.5918 109.508 72.7676C109.59 72.9434 109.631 73.1523 109.631 73.3945C109.631 73.6914 109.564 73.9492 109.432 74.168C109.303 74.3867 109.129 74.5684 108.91 74.7129C108.691 74.8574 108.439 74.9648 108.154 75.0352C107.869 75.1055 107.57 75.1406 107.258 75.1406C106.641 75.1406 106.105 75.0215 105.652 74.7832ZM69.8984 85L67.5078 91H66.5645L64.291 85H65.3457L66.8691 89.3594C66.9824 89.6797 67.0527 89.959 67.0801 90.1973H67.1035C67.1426 89.8965 67.2051 89.625 67.291 89.3828L68.8848 85H69.8984ZM73.4434 91.1406C72.5566 91.1406 71.8477 90.8613 71.3164 90.3027C70.7891 89.7402 70.5254 88.9961 70.5254 88.0703C70.5254 87.0625 70.8008 86.2754 71.3516 85.709C71.9023 85.1426 72.6465 84.8594 73.584 84.8594C74.4785 84.8594 75.1758 85.1348 75.6758 85.6855C76.1797 86.2363 76.4316 87 76.4316 87.9766C76.4316 88.9336 76.1602 89.7012 75.6172 90.2793C75.0781 90.8535 74.3535 91.1406 73.4434 91.1406ZM73.5137 85.668C72.8965 85.668 72.4082 85.8789 72.0488 86.3008C71.6895 86.7188 71.5098 87.2969 71.5098 88.0352C71.5098 88.7461 71.6914 89.3066 72.0547 89.7168C72.418 90.127 72.9043 90.332 73.5137 90.332C74.1348 90.332 74.6113 90.1309 74.9434 89.7285C75.2793 89.3262 75.4473 88.7539 75.4473 88.0117C75.4473 87.2617 75.2793 86.6836 74.9434 86.2773C74.6113 85.8711 74.1348 85.668 73.5137 85.668ZM82.9473 91H81.9863V87.5781C81.9863 86.3047 81.5215 85.668 80.5918 85.668C80.1113 85.668 79.7129 85.8496 79.3965 86.2129C79.084 86.5723 78.9277 87.0273 78.9277 87.5781V91H77.9668V85H78.9277V85.9961H78.9512C79.4043 85.2383 80.0605 84.8594 80.9199 84.8594C81.5762 84.8594 82.0781 85.0723 82.4258 85.498C82.7734 85.9199 82.9473 86.5312 82.9473 87.332V91ZM38.0586 107V98.5977H40.3789C43.3398 98.5977 44.8203 99.9629 44.8203 102.693C44.8203 103.99 44.4082 105.033 43.584 105.822C42.7637 106.607 41.6641 107 40.2852 107H38.0586ZM39.043 99.4883V106.109H40.2969C41.3984 106.109 42.2559 105.814 42.8691 105.225C43.4824 104.635 43.7891 103.799 43.7891 102.717C43.7891 100.564 42.6445 99.4883 40.3555 99.4883H39.043ZM49.4727 101.973C49.3047 101.844 49.0625 101.779 48.7461 101.779C48.3359 101.779 47.9922 101.973 47.7148 102.359C47.4414 102.746 47.3047 103.273 47.3047 103.941V107H46.3438V101H47.3047V102.236H47.3281C47.4648 101.814 47.6738 101.486 47.9551 101.252C48.2363 101.014 48.5508 100.895 48.8984 100.895C49.1484 100.895 49.3398 100.922 49.4727 100.977V101.973ZM51.0078 99.4766C50.8359 99.4766 50.6895 99.418 50.5684 99.3008C50.4473 99.1836 50.3867 99.0352 50.3867 98.8555C50.3867 98.6758 50.4473 98.5273 50.5684 98.4102C50.6895 98.2891 50.8359 98.2285 51.0078 98.2285C51.1836 98.2285 51.332 98.2891 51.4531 98.4102C51.5781 98.5273 51.6406 98.6758 51.6406 98.8555C51.6406 99.0273 51.5781 99.1738 51.4531 99.2949C51.332 99.416 51.1836 99.4766 51.0078 99.4766ZM51.4766 107H50.5156V101H51.4766V107ZM56.2051 106.941C55.9785 107.066 55.6797 107.129 55.3086 107.129C54.2578 107.129 53.7324 106.543 53.7324 105.371V101.82H52.7012V101H53.7324V99.5352L54.6934 99.2246V101H56.2051V101.82H54.6934V105.201C54.6934 105.604 54.7617 105.891 54.8984 106.062C55.0352 106.234 55.2617 106.32 55.5781 106.32C55.8203 106.32 56.0293 106.254 56.2051 106.121V106.941ZM60.2715 106.941C60.0449 107.066 59.7461 107.129 59.375 107.129C58.3242 107.129 57.7988 106.543 57.7988 105.371V101.82H56.7676V101H57.7988V99.5352L58.7598 99.2246V101H60.2715V101.82H58.7598V105.201C58.7598 105.604 58.8281 105.891 58.9648 106.062C59.1016 106.234 59.3281 106.32 59.6445 106.32C59.8867 106.32 60.0957 106.254 60.2715 106.121V106.941ZM65.8496 107H64.8887V106.062H64.8652C64.4473 106.781 63.832 107.141 63.0195 107.141C62.4219 107.141 61.9531 106.982 61.6133 106.666C61.2773 106.35 61.1094 105.93 61.1094 105.406C61.1094 104.285 61.7695 103.633 63.0898 103.449L64.8887 103.197C64.8887 102.178 64.4766 101.668 63.6523 101.668C62.9297 101.668 62.2773 101.914 61.6953 102.406V101.422C62.2852 101.047 62.9648 100.859 63.7344 100.859C65.1445 100.859 65.8496 101.605 65.8496 103.098V107ZM64.8887 103.965L63.4414 104.164C62.9961 104.227 62.6602 104.338 62.4336 104.498C62.207 104.654 62.0938 104.934 62.0938 105.336C62.0938 105.629 62.1973 105.869 62.4043 106.057C62.6152 106.24 62.8945 106.332 63.2422 106.332C63.7188 106.332 64.1113 106.166 64.4199 105.834C64.7324 105.498 64.8887 105.074 64.8887 104.562V103.965ZM72.6406 107H71.6797V103.578C71.6797 102.305 71.2148 101.668 70.2852 101.668C69.8047 101.668 69.4062 101.85 69.0898 102.213C68.7773 102.572 68.6211 103.027 68.6211 103.578V107H67.6602V101H68.6211V101.996H68.6445C69.0977 101.238 69.7539 100.859 70.6133 100.859C71.2695 100.859 71.7715 101.072 72.1191 101.498C72.4668 101.92 72.6406 102.531 72.6406 103.332V107ZM75.4414 106.133H75.418V107H74.457V98.1172H75.418V102.055H75.4414C75.9141 101.258 76.6055 100.859 77.5156 100.859C78.2852 100.859 78.8867 101.129 79.3203 101.668C79.7578 102.203 79.9766 102.922 79.9766 103.824C79.9766 104.828 79.7324 105.633 79.2441 106.238C78.7559 106.84 78.0879 107.141 77.2402 107.141C76.4473 107.141 75.8477 106.805 75.4414 106.133ZM75.418 103.713V104.551C75.418 105.047 75.5781 105.469 75.8984 105.816C76.2227 106.16 76.6328 106.332 77.1289 106.332C77.7109 106.332 78.166 106.109 78.4941 105.664C78.8262 105.219 78.9922 104.6 78.9922 103.807C78.9922 103.139 78.8379 102.615 78.5293 102.236C78.2207 101.857 77.8027 101.668 77.2754 101.668C76.7168 101.668 76.2676 101.863 75.9277 102.254C75.5879 102.641 75.418 103.127 75.418 103.713ZM82.0039 99.4766C81.832 99.4766 81.6855 99.418 81.5645 99.3008C81.4434 99.1836 81.3828 99.0352 81.3828 98.8555C81.3828 98.6758 81.4434 98.5273 81.5645 98.4102C81.6855 98.2891 81.832 98.2285 82.0039 98.2285C82.1797 98.2285 82.3281 98.2891 82.4492 98.4102C82.5742 98.5273 82.6367 98.6758 82.6367 98.8555C82.6367 99.0273 82.5742 99.1738 82.4492 99.2949C82.3281 99.416 82.1797 99.4766 82.0039 99.4766ZM82.4727 107H81.5117V101H82.4727V107ZM89.2402 104.24H85.0039C85.0195 104.908 85.1992 105.424 85.543 105.787C85.8867 106.15 86.3594 106.332 86.9609 106.332C87.6367 106.332 88.2578 106.109 88.8242 105.664V106.566C88.2969 106.949 87.5996 107.141 86.7324 107.141C85.8848 107.141 85.2188 106.869 84.7344 106.326C84.25 105.779 84.0078 105.012 84.0078 104.023C84.0078 103.09 84.2715 102.33 84.7988 101.744C85.3301 101.154 85.9883 100.859 86.7734 100.859C87.5586 100.859 88.166 101.113 88.5957 101.621C89.0254 102.129 89.2402 102.834 89.2402 103.736V104.24ZM88.2559 103.426C88.252 102.871 88.1172 102.439 87.8516 102.131C87.5898 101.822 87.2246 101.668 86.7559 101.668C86.3027 101.668 85.918 101.83 85.6016 102.154C85.2852 102.479 85.0898 102.902 85.0156 103.426H88.2559ZM93.4824 106.941C93.2559 107.066 92.957 107.129 92.5859 107.129C91.5352 107.129 91.0098 106.543 91.0098 105.371V101.82H89.9785V101H91.0098V99.5352L91.9707 99.2246V101H93.4824V101.82H91.9707V105.201C91.9707 105.604 92.0391 105.891 92.1758 106.062C92.3125 106.234 92.5391 106.32 92.8555 106.32C93.0977 106.32 93.3066 106.254 93.4824 106.121V106.941ZM99.5879 104.24H95.3516C95.3672 104.908 95.5469 105.424 95.8906 105.787C96.2344 106.15 96.707 106.332 97.3086 106.332C97.9844 106.332 98.6055 106.109 99.1719 105.664V106.566C98.6445 106.949 97.9473 107.141 97.0801 107.141C96.2324 107.141 95.5664 106.869 95.082 106.326C94.5977 105.779 94.3555 105.012 94.3555 104.023C94.3555 103.09 94.6191 102.33 95.1465 101.744C95.6777 101.154 96.3359 100.859 97.1211 100.859C97.9062 100.859 98.5137 101.113 98.9434 101.621C99.373 102.129 99.5879 102.834 99.5879 103.736V104.24ZM98.6035 103.426C98.5996 102.871 98.4648 102.439 98.1992 102.131C97.9375 101.822 97.5723 101.668 97.1035 101.668C96.6504 101.668 96.2656 101.83 95.9492 102.154C95.6328 102.479 95.4375 102.902 95.3633 103.426H98.6035ZM104.176 101.973C104.008 101.844 103.766 101.779 103.449 101.779C103.039 101.779 102.695 101.973 102.418 102.359C102.145 102.746 102.008 103.273 102.008 103.941V107H101.047V101H102.008V102.236H102.031C102.168 101.814 102.377 101.486 102.658 101.252C102.939 101.014 103.254 100.895 103.602 100.895C103.852 100.895 104.043 100.922 104.176 100.977V101.973ZM110.199 107H109.238V103.578C109.238 102.305 108.773 101.668 107.844 101.668C107.363 101.668 106.965 101.85 106.648 102.213C106.336 102.572 106.18 103.027 106.18 103.578V107H105.219V101H106.18V101.996H106.203C106.656 101.238 107.312 100.859 108.172 100.859C108.828 100.859 109.33 101.072 109.678 101.498C110.025 101.92 110.199 102.531 110.199 103.332V107ZM62.252 123H61.291V114.117H62.252V123ZM69.0195 120.24H64.7832C64.7988 120.908 64.9785 121.424 65.3223 121.787C65.666 122.15 66.1387 122.332 66.7402 122.332C67.416 122.332 68.0371 122.109 68.6035 121.664V122.566C68.0762 122.949 67.3789 123.141 66.5117 123.141C65.6641 123.141 64.998 122.869 64.5137 122.326C64.0293 121.779 63.7871 121.012 63.7871 120.023C63.7871 119.09 64.0508 118.33 64.5781 117.744C65.1094 117.154 65.7676 116.859 66.5527 116.859C67.3379 116.859 67.9453 117.113 68.375 117.621C68.8047 118.129 69.0195 118.834 69.0195 119.736V120.24ZM68.0352 119.426C68.0312 118.871 67.8965 118.439 67.6309 118.131C67.3691 117.822 67.0039 117.668 66.5352 117.668C66.082 117.668 65.6973 117.83 65.3809 118.154C65.0645 118.479 64.8691 118.902 64.7949 119.426H68.0352ZM70.1152 122.783V121.752C70.6387 122.139 71.2148 122.332 71.8438 122.332C72.6875 122.332 73.1094 122.051 73.1094 121.488C73.1094 121.328 73.0723 121.193 72.998 121.084C72.9277 120.971 72.8301 120.871 72.7051 120.785C72.584 120.699 72.4395 120.623 72.2715 120.557C72.1074 120.486 71.9297 120.414 71.7383 120.34C71.4727 120.234 71.2383 120.129 71.0352 120.023C70.8359 119.914 70.668 119.793 70.5312 119.66C70.3984 119.523 70.2969 119.369 70.2266 119.197C70.1602 119.025 70.127 118.824 70.127 118.594C70.127 118.312 70.1914 118.064 70.3203 117.85C70.4492 117.631 70.6211 117.449 70.8359 117.305C71.0508 117.156 71.2949 117.045 71.5684 116.971C71.8457 116.896 72.1309 116.859 72.4238 116.859C72.9434 116.859 73.4082 116.949 73.8184 117.129V118.102C73.377 117.812 72.8691 117.668 72.2949 117.668C72.1152 117.668 71.9531 117.689 71.8086 117.732C71.6641 117.771 71.5391 117.828 71.4336 117.902C71.332 117.977 71.252 118.066 71.1934 118.172C71.1387 118.273 71.1113 118.387 71.1113 118.512C71.1113 118.668 71.1387 118.799 71.1934 118.904C71.252 119.01 71.3359 119.104 71.4453 119.186C71.5547 119.268 71.6875 119.342 71.8438 119.408C72 119.475 72.1777 119.547 72.377 119.625C72.6426 119.727 72.8809 119.832 73.0918 119.941C73.3027 120.047 73.4824 120.168 73.6309 120.305C73.7793 120.438 73.8926 120.592 73.9707 120.768C74.0527 120.943 74.0938 121.152 74.0938 121.395C74.0938 121.691 74.0273 121.949 73.8945 122.168C73.7656 122.387 73.5918 122.568 73.373 122.713C73.1543 122.857 72.9023 122.965 72.6172 123.035C72.332 123.105 72.0332 123.141 71.7207 123.141C71.1035 123.141 70.5684 123.021 70.1152 122.783ZM80.3984 120.24H76.1621C76.1777 120.908 76.3574 121.424 76.7012 121.787C77.0449 122.15 77.5176 122.332 78.1191 122.332C78.7949 122.332 79.416 122.109 79.9824 121.664V122.566C79.4551 122.949 78.7578 123.141 77.8906 123.141C77.043 123.141 76.377 122.869 75.8926 122.326C75.4082 121.779 75.166 121.012 75.166 120.023C75.166 119.09 75.4297 118.33 75.957 117.744C76.4883 117.154 77.1465 116.859 77.9316 116.859C78.7168 116.859 79.3242 117.113 79.7539 117.621C80.1836 118.129 80.3984 118.834 80.3984 119.736V120.24ZM79.4141 119.426C79.4102 118.871 79.2754 118.439 79.0098 118.131C78.748 117.822 78.3828 117.668 77.9141 117.668C77.4609 117.668 77.0762 117.83 76.7598 118.154C76.4434 118.479 76.248 118.902 76.1738 119.426H79.4141ZM86.8379 123H85.877V119.578C85.877 118.305 85.4121 117.668 84.4824 117.668C84.002 117.668 83.6035 117.85 83.2871 118.213C82.9746 118.572 82.8184 119.027 82.8184 119.578V123H81.8574V117H82.8184V117.996H82.8418C83.2949 117.238 83.9512 116.859 84.8105 116.859C85.4668 116.859 85.9688 117.072 86.3164 117.498C86.6641 117.92 86.8379 118.531 86.8379 119.332V123Z" fill="#020057"/>
</g>
<defs>
<filter id="filter0_dd_3872_63016" x="0.8" y="2.38419e-07" width="146.4" height="146.4" filterUnits="userSpaceOnUse" color-interpolation-filters="sRGB">
<feFlood flood-opacity="0" result="BackgroundImageFix"/>
<feColorMatrix in="SourceAlpha" type="matrix" values="0 0 0 0 0 0 0 0 0 0 0 0 0 0 0 0 0 0 127 0" result="hardAlpha"/>
<feOffset dy="3.2"/>
<feGaussianBlur stdDeviation="3.6"/>
<feColorMatrix type="matrix" values="0 0 0 0 0.513726 0 0 0 0 0.494118 0 0 0 0 1 0 0 0 0.12 0"/>
<feBlend mode="normal" in2="BackgroundImageFix" result="effect1_dropShadow_3872_63016"/>
<feColorMatrix in="SourceAlpha" type="matrix" values="0 0 0 0 0 0 0 0 0 0 0 0 0 0 0 0 0 0 127 0" result="hardAlpha"/>
<feOffset dy="0.6"/>
<feGaussianBlur stdDeviation="0.9"/>
<feColorMatrix type="matrix" values="0 0 0 0 0.513726 0 0 0 0 0.494118 0 0 0 0 1 0 0 0 0.1 0"/>
<feBlend mode="normal" in2="effect1_dropShadow_3872_63016" result="effect2_dropShadow_3872_63016"/>
<feBlend mode="normal" in="SourceGraphic" in2="effect2_dropShadow_3872_63016" result="shape"/>
</filter>
</defs>
</svg>
