<svg width="100%" viewBox="0 0 100 128" fill="none" xmlns="http://www.w3.org/2000/svg">
<rect width="100" height="128" fill="#FBFBFE"/>
<path d="M41.4247 10.5756C41.1903 10.3413 40.8104 10.3413 40.5761 10.5756C40.3418 10.81 40.3418 11.1899 40.5761 11.4242L42.0974 12.9455C41.7833 13.4197 41.6004 13.9885 41.6004 14.5999V25.3999C41.6004 27.0568 42.9435 28.3999 44.6004 28.3999H55.4004C56.0118 28.3999 56.5806 28.217 57.0548 27.9029L58.5761 29.4242C58.8104 29.6585 59.1903 29.6585 59.4247 29.4242C59.659 29.1899 59.659 28.81 59.4247 28.5756L41.4247 10.5756ZM56.1764 27.0245C55.9415 27.1369 55.6783 27.1999 55.4004 27.1999H44.6004C43.6063 27.1999 42.8004 26.394 42.8004 25.3999V16.3999H45.5519L56.1764 27.0245ZM57.2004 16.3999V24.6543L58.3706 25.8245C58.3902 25.6858 58.4004 25.544 58.4004 25.3999V14.5999C58.4004 12.943 57.0572 11.5999 55.4004 11.5999H44.6004C44.4563 11.5999 44.3145 11.6101 44.1758 11.6297L48.946 16.3999H57.2004Z" fill="#020057"/>
<path d="M25.6426 52.6484C25.0215 52.9766 24.248 53.1406 23.3223 53.1406C22.127 53.1406 21.1699 52.7559 20.4512 51.9863C19.7324 51.2168 19.373 50.207 19.373 48.957C19.373 47.6133 19.7773 46.5273 20.5859 45.6992C21.3945 44.8711 22.4199 44.457 23.6621 44.457C24.459 44.457 25.1191 44.5723 25.6426 44.8027V45.8516C25.041 45.5156 24.377 45.3477 23.6504 45.3477C22.6855 45.3477 21.9023 45.6699 21.3008 46.3145C20.7031 46.959 20.4043 47.8203 20.4043 48.8984C20.4043 49.9219 20.6836 50.7383 21.2422 51.3477C21.8047 51.9531 22.541 52.2559 23.4512 52.2559C24.2949 52.2559 25.0254 52.0684 25.6426 51.6934V52.6484ZM28.1855 53H27.2246V44.1172H28.1855V53ZM34.4258 53H33.4648V52.0625H33.4414C33.0234 52.7812 32.4082 53.1406 31.5957 53.1406C30.998 53.1406 30.5293 52.9824 30.1895 52.666C29.8535 52.3496 29.6855 51.9297 29.6855 51.4062C29.6855 50.2852 30.3457 49.6328 31.666 49.4492L33.4648 49.1973C33.4648 48.1777 33.0527 47.668 32.2285 47.668C31.5059 47.668 30.8535 47.9141 30.2715 48.4062V47.4219C30.8613 47.0469 31.541 46.8594 32.3105 46.8594C33.7207 46.8594 34.4258 47.6055 34.4258 49.0977V53ZM33.4648 49.9648L32.0176 50.1641C31.5723 50.2266 31.2363 50.3379 31.0098 50.498C30.7832 50.6543 30.6699 50.9336 30.6699 51.3359C30.6699 51.6289 30.7734 51.8691 30.9805 52.0566C31.1914 52.2402 31.4707 52.332 31.8184 52.332C32.2949 52.332 32.6875 52.166 32.9961 51.834C33.3086 51.498 33.4648 51.0742 33.4648 50.5625V49.9648ZM39.3652 47.9727C39.1973 47.8438 38.9551 47.7793 38.6387 47.7793C38.2285 47.7793 37.8848 47.9727 37.6074 48.3594C37.334 48.7461 37.1973 49.2734 37.1973 49.9414V53H36.2363V47H37.1973V48.2363H37.2207C37.3574 47.8145 37.5664 47.4863 37.8477 47.252C38.1289 47.0137 38.4434 46.8945 38.791 46.8945C39.041 46.8945 39.2324 46.9219 39.3652 46.9766V47.9727ZM40.9004 45.4766C40.7285 45.4766 40.582 45.418 40.4609 45.3008C40.3398 45.1836 40.2793 45.0352 40.2793 44.8555C40.2793 44.6758 40.3398 44.5273 40.4609 44.4102C40.582 44.2891 40.7285 44.2285 40.9004 44.2285C41.0762 44.2285 41.2246 44.2891 41.3457 44.4102C41.4707 44.5273 41.5332 44.6758 41.5332 44.8555C41.5332 45.0273 41.4707 45.1738 41.3457 45.2949C41.2246 45.416 41.0762 45.4766 40.9004 45.4766ZM41.3691 53H40.4082V47H41.3691V53ZM46.0977 52.9414C45.8711 53.0664 45.5723 53.1289 45.2012 53.1289C44.1504 53.1289 43.625 52.543 43.625 51.3711V47.8203H42.5938V47H43.625V45.5352L44.5859 45.2246V47H46.0977V47.8203H44.5859V51.2012C44.5859 51.6035 44.6543 51.8906 44.791 52.0625C44.9277 52.2344 45.1543 52.3203 45.4707 52.3203C45.7129 52.3203 45.9219 52.2539 46.0977 52.1211V52.9414ZM52.1562 47L49.3965 53.9609C48.9043 55.2031 48.2129 55.8242 47.3223 55.8242C47.0723 55.8242 46.8633 55.7988 46.6953 55.748V54.8867C46.9023 54.957 47.0918 54.9922 47.2637 54.9922C47.748 54.9922 48.1113 54.7031 48.3535 54.125L48.834 52.9883L46.4902 47H47.5566L49.1797 51.6172C49.1992 51.6758 49.2402 51.8281 49.3027 52.0742H49.3379C49.3574 51.9805 49.3965 51.832 49.4551 51.6289L51.1602 47H52.1562ZM61.4668 53H60.1191L57.4707 50.1172H57.4473V53H56.4863V44.1172H57.4473V49.748H57.4707L59.9902 47H61.25L58.4668 49.8945L61.4668 53ZM66.7461 53H65.7852V52.0625H65.7617C65.3438 52.7812 64.7285 53.1406 63.916 53.1406C63.3184 53.1406 62.8496 52.9824 62.5098 52.666C62.1738 52.3496 62.0059 51.9297 62.0059 51.4062C62.0059 50.2852 62.666 49.6328 63.9863 49.4492L65.7852 49.1973C65.7852 48.1777 65.373 47.668 64.5488 47.668C63.8262 47.668 63.1738 47.9141 62.5918 48.4062V47.4219C63.1816 47.0469 63.8613 46.8594 64.6309 46.8594C66.041 46.8594 66.7461 47.6055 66.7461 49.0977V53ZM65.7852 49.9648L64.3379 50.1641C63.8926 50.2266 63.5566 50.3379 63.3301 50.498C63.1035 50.6543 62.9902 50.9336 62.9902 51.3359C62.9902 51.6289 63.0938 51.8691 63.3008 52.0566C63.5117 52.2402 63.791 52.332 64.1387 52.332C64.6152 52.332 65.0078 52.166 65.3164 51.834C65.6289 51.498 65.7852 51.0742 65.7852 50.5625V49.9648ZM73.5371 53H72.5762V49.5781C72.5762 48.3047 72.1113 47.668 71.1816 47.668C70.7012 47.668 70.3027 47.8496 69.9863 48.2129C69.6738 48.5723 69.5176 49.0273 69.5176 49.5781V53H68.5566V47H69.5176V47.9961H69.541C69.9941 47.2383 70.6504 46.8594 71.5098 46.8594C72.166 46.8594 72.668 47.0723 73.0156 47.498C73.3633 47.9199 73.5371 48.5312 73.5371 49.332V53ZM80.334 53H79.373V49.5781C79.373 48.3047 78.9082 47.668 77.9785 47.668C77.498 47.668 77.0996 47.8496 76.7832 48.2129C76.4707 48.5723 76.3145 49.0273 76.3145 49.5781V53H75.3535V47H76.3145V47.9961H76.3379C76.791 47.2383 77.4473 46.8594 78.3066 46.8594C78.9629 46.8594 79.4648 47.0723 79.8125 47.498C80.1602 47.9199 80.334 48.5312 80.334 49.332V53ZM19.8125 69H18.4648L15.8164 66.1172H15.793V69H14.832V60.1172H15.793V65.748H15.8164L18.3359 63H19.5957L16.8125 65.8945L19.8125 69ZM25.6191 66.2402H21.3828C21.3984 66.9082 21.5781 67.4238 21.9219 67.7871C22.2656 68.1504 22.7383 68.332 23.3398 68.332C24.0156 68.332 24.6367 68.1094 25.2031 67.6641V68.5664C24.6758 68.9492 23.9785 69.1406 23.1113 69.1406C22.2637 69.1406 21.5977 68.8691 21.1133 68.3262C20.6289 67.7793 20.3867 67.0117 20.3867 66.0234C20.3867 65.0898 20.6504 64.3301 21.1777 63.7441C21.709 63.1543 22.3672 62.8594 23.1523 62.8594C23.9375 62.8594 24.5449 63.1133 24.9746 63.6211C25.4043 64.1289 25.6191 64.834 25.6191 65.7363V66.2402ZM24.6348 65.4258C24.6309 64.8711 24.4961 64.4395 24.2305 64.1309C23.9688 63.8223 23.6035 63.668 23.1348 63.668C22.6816 63.668 22.2969 63.8301 21.9805 64.1543C21.6641 64.4785 21.4688 64.9023 21.3945 65.4258H24.6348ZM27.5703 61.4766C27.3984 61.4766 27.252 61.418 27.1309 61.3008C27.0098 61.1836 26.9492 61.0352 26.9492 60.8555C26.9492 60.6758 27.0098 60.5273 27.1309 60.4102C27.252 60.2891 27.3984 60.2285 27.5703 60.2285C27.7461 60.2285 27.8945 60.2891 28.0156 60.4102C28.1406 60.5273 28.2031 60.6758 28.2031 60.8555C28.2031 61.0273 28.1406 61.1738 28.0156 61.2949C27.8945 61.416 27.7461 61.4766 27.5703 61.4766ZM28.0391 69H27.0781V63H28.0391V69ZM34.9648 69H34.0039V65.5781C34.0039 64.3047 33.5391 63.668 32.6094 63.668C32.1289 63.668 31.7305 63.8496 31.4141 64.2129C31.1016 64.5723 30.9453 65.0273 30.9453 65.5781V69H29.9844V63H30.9453V63.9961H30.9688C31.4219 63.2383 32.0781 62.8594 32.9375 62.8594C33.5938 62.8594 34.0957 63.0723 34.4434 63.498C34.791 63.9199 34.9648 64.5312 34.9648 65.332V69ZM41.6035 66.2402H37.3672C37.3828 66.9082 37.5625 67.4238 37.9062 67.7871C38.25 68.1504 38.7227 68.332 39.3242 68.332C40 68.332 40.6211 68.1094 41.1875 67.6641V68.5664C40.6602 68.9492 39.9629 69.1406 39.0957 69.1406C38.248 69.1406 37.582 68.8691 37.0977 68.3262C36.6133 67.7793 36.3711 67.0117 36.3711 66.0234C36.3711 65.0898 36.6348 64.3301 37.1621 63.7441C37.6934 63.1543 38.3516 62.8594 39.1367 62.8594C39.9219 62.8594 40.5293 63.1133 40.959 63.6211C41.3887 64.1289 41.6035 64.834 41.6035 65.7363V66.2402ZM40.6191 65.4258C40.6152 64.8711 40.4805 64.4395 40.2148 64.1309C39.9531 63.8223 39.5879 63.668 39.1191 63.668C38.666 63.668 38.2812 63.8301 37.9648 64.1543C37.6484 64.4785 37.4531 64.9023 37.3789 65.4258H40.6191ZM46.8477 61.4766C46.6758 61.4766 46.5293 61.418 46.4082 61.3008C46.2871 61.1836 46.2266 61.0352 46.2266 60.8555C46.2266 60.6758 46.2871 60.5273 46.4082 60.4102C46.5293 60.2891 46.6758 60.2285 46.8477 60.2285C47.0234 60.2285 47.1719 60.2891 47.293 60.4102C47.418 60.5273 47.4805 60.6758 47.4805 60.8555C47.4805 61.0273 47.418 61.1738 47.293 61.2949C47.1719 61.416 47.0234 61.4766 46.8477 61.4766ZM47.3164 69H46.3555V63H47.3164V69ZM53.6562 61.4883H50.375V64.3945H53.4102V65.2793H50.375V69H49.3906V60.5977H53.6562V61.4883ZM58.25 63.9727C58.082 63.8438 57.8398 63.7793 57.5234 63.7793C57.1133 63.7793 56.7695 63.9727 56.4922 64.3594C56.2188 64.7461 56.082 65.2734 56.082 65.9414V69H55.1211V63H56.082V64.2363H56.1055C56.2422 63.8145 56.4512 63.4863 56.7324 63.252C57.0137 63.0137 57.3281 62.8945 57.6758 62.8945C57.9258 62.8945 58.1172 62.9219 58.25 62.9766V63.9727ZM63.5879 69H62.627V68.0625H62.6035C62.1855 68.7812 61.5703 69.1406 60.7578 69.1406C60.1602 69.1406 59.6914 68.9824 59.3516 68.666C59.0156 68.3496 58.8477 67.9297 58.8477 67.4062C58.8477 66.2852 59.5078 65.6328 60.8281 65.4492L62.627 65.1973C62.627 64.1777 62.2148 63.668 61.3906 63.668C60.668 63.668 60.0156 63.9141 59.4336 64.4062V63.4219C60.0234 63.0469 60.7031 62.8594 61.4727 62.8594C62.8828 62.8594 63.5879 63.6055 63.5879 65.0977V69ZM62.627 65.9648L61.1797 66.1641C60.7344 66.2266 60.3984 66.3379 60.1719 66.498C59.9453 66.6543 59.832 66.9336 59.832 67.3359C59.832 67.6289 59.9355 67.8691 60.1426 68.0566C60.3535 68.2402 60.6328 68.332 60.9805 68.332C61.457 68.332 61.8496 68.166 62.1582 67.834C62.4707 67.498 62.627 67.0742 62.627 66.5625V65.9648ZM73.918 69H72.957V65.5547C72.957 64.8906 72.8535 64.4102 72.6465 64.1133C72.4434 63.8164 72.0996 63.668 71.6152 63.668C71.2051 63.668 70.8555 63.8555 70.5664 64.2305C70.2812 64.6055 70.1387 65.0547 70.1387 65.5781V69H69.1777V65.4375C69.1777 64.2578 68.7227 63.668 67.8125 63.668C67.3906 63.668 67.043 63.8457 66.7695 64.2012C66.4961 64.5527 66.3594 65.0117 66.3594 65.5781V69H65.3984V63H66.3594V63.9492H66.3828C66.8086 63.2227 67.4297 62.8594 68.2461 62.8594C68.6562 62.8594 69.0137 62.9746 69.3184 63.2051C69.623 63.4316 69.832 63.7305 69.9453 64.1016C70.3906 63.2734 71.0547 62.8594 71.9375 62.8594C73.2578 62.8594 73.918 63.6738 73.918 65.3027V69ZM80.5566 66.2402H76.3203C76.3359 66.9082 76.5156 67.4238 76.8594 67.7871C77.2031 68.1504 77.6758 68.332 78.2773 68.332C78.9531 68.332 79.5742 68.1094 80.1406 67.6641V68.5664C79.6133 68.9492 78.916 69.1406 78.0488 69.1406C77.2012 69.1406 76.5352 68.8691 76.0508 68.3262C75.5664 67.7793 75.3242 67.0117 75.3242 66.0234C75.3242 65.0898 75.5879 64.3301 76.1152 63.7441C76.6465 63.1543 77.3047 62.8594 78.0898 62.8594C78.875 62.8594 79.4824 63.1133 79.9121 63.6211C80.3418 64.1289 80.5566 64.834 80.5566 65.7363V66.2402ZM79.5723 65.4258C79.5684 64.8711 79.4336 64.4395 79.168 64.1309C78.9062 63.8223 78.541 63.668 78.0723 63.668C77.6191 63.668 77.2344 63.8301 76.918 64.1543C76.6016 64.4785 76.4062 64.9023 76.332 65.4258H79.5723ZM81.6523 68.7832V67.752C82.1758 68.1387 82.752 68.332 83.3809 68.332C84.2246 68.332 84.6465 68.0508 84.6465 67.4883C84.6465 67.3281 84.6094 67.1934 84.5352 67.084C84.4648 66.9707 84.3672 66.8711 84.2422 66.7852C84.1211 66.6992 83.9766 66.623 83.8086 66.5566C83.6445 66.4863 83.4668 66.4141 83.2754 66.3398C83.0098 66.2344 82.7754 66.1289 82.5723 66.0234C82.373 65.9141 82.2051 65.793 82.0684 65.6602C81.9355 65.5234 81.834 65.3691 81.7637 65.1973C81.6973 65.0254 81.6641 64.8242 81.6641 64.5938C81.6641 64.3125 81.7285 64.0645 81.8574 63.8496C81.9863 63.6309 82.1582 63.4492 82.373 63.3047C82.5879 63.1562 82.832 63.0449 83.1055 62.9707C83.3828 62.8965 83.668 62.8594 83.9609 62.8594C84.4805 62.8594 84.9453 62.9492 85.3555 63.1289V64.1016C84.9141 63.8125 84.4062 63.668 83.832 63.668C83.6523 63.668 83.4902 63.6895 83.3457 63.7324C83.2012 63.7715 83.0762 63.8281 82.9707 63.9023C82.8691 63.9766 82.7891 64.0664 82.7305 64.1719C82.6758 64.2734 82.6484 64.3867 82.6484 64.5117C82.6484 64.668 82.6758 64.7988 82.7305 64.9043C82.7891 65.0098 82.873 65.1035 82.9824 65.1855C83.0918 65.2676 83.2246 65.3418 83.3809 65.4082C83.5371 65.4746 83.7148 65.5469 83.9141 65.625C84.1797 65.7266 84.418 65.832 84.6289 65.9414C84.8398 66.0469 85.0195 66.168 85.168 66.3047C85.3164 66.4375 85.4297 66.5918 85.5078 66.7676C85.5898 66.9434 85.6309 67.1523 85.6309 67.3945C85.6309 67.6914 85.5645 67.9492 85.4316 68.168C85.3027 68.3867 85.1289 68.5684 84.9102 68.7129C84.6914 68.8574 84.4395 68.9648 84.1543 69.0352C83.8691 69.1055 83.5703 69.1406 83.2578 69.1406C82.6406 69.1406 82.1055 69.0215 81.6523 68.7832ZM45.8984 79L43.5078 85H42.5645L40.291 79H41.3457L42.8691 83.3594C42.9824 83.6797 43.0527 83.959 43.0801 84.1973H43.1035C43.1426 83.8965 43.2051 83.625 43.291 83.3828L44.8848 79H45.8984ZM49.4434 85.1406C48.5566 85.1406 47.8477 84.8613 47.3164 84.3027C46.7891 83.7402 46.5254 82.9961 46.5254 82.0703C46.5254 81.0625 46.8008 80.2754 47.3516 79.709C47.9023 79.1426 48.6465 78.8594 49.584 78.8594C50.4785 78.8594 51.1758 79.1348 51.6758 79.6855C52.1797 80.2363 52.4316 81 52.4316 81.9766C52.4316 82.9336 52.1602 83.7012 51.6172 84.2793C51.0781 84.8535 50.3535 85.1406 49.4434 85.1406ZM49.5137 79.668C48.8965 79.668 48.4082 79.8789 48.0488 80.3008C47.6895 80.7188 47.5098 81.2969 47.5098 82.0352C47.5098 82.7461 47.6914 83.3066 48.0547 83.7168C48.418 84.127 48.9043 84.332 49.5137 84.332C50.1348 84.332 50.6113 84.1309 50.9434 83.7285C51.2793 83.3262 51.4473 82.7539 51.4473 82.0117C51.4473 81.2617 51.2793 80.6836 50.9434 80.2773C50.6113 79.8711 50.1348 79.668 49.5137 79.668ZM58.9473 85H57.9863V81.5781C57.9863 80.3047 57.5215 79.668 56.5918 79.668C56.1113 79.668 55.7129 79.8496 55.3965 80.2129C55.084 80.5723 54.9277 81.0273 54.9277 81.5781V85H53.9668V79H54.9277V79.9961H54.9512C55.4043 79.2383 56.0605 78.8594 56.9199 78.8594C57.5762 78.8594 58.0781 79.0723 58.4258 79.498C58.7734 79.9199 58.9473 80.5312 58.9473 81.332V85ZM14.0586 101V92.5977H16.3789C19.3398 92.5977 20.8203 93.9629 20.8203 96.6934C20.8203 97.9902 20.4082 99.0332 19.584 99.8223C18.7637 100.607 17.6641 101 16.2852 101H14.0586ZM15.043 93.4883V100.109H16.2969C17.3984 100.109 18.2559 99.8145 18.8691 99.2246C19.4824 98.6348 19.7891 97.7988 19.7891 96.7168C19.7891 94.5645 18.6445 93.4883 16.3555 93.4883H15.043ZM25.4727 95.9727C25.3047 95.8438 25.0625 95.7793 24.7461 95.7793C24.3359 95.7793 23.9922 95.9727 23.7148 96.3594C23.4414 96.7461 23.3047 97.2734 23.3047 97.9414V101H22.3438V95H23.3047V96.2363H23.3281C23.4648 95.8145 23.6738 95.4863 23.9551 95.252C24.2363 95.0137 24.5508 94.8945 24.8984 94.8945C25.1484 94.8945 25.3398 94.9219 25.4727 94.9766V95.9727ZM27.0078 93.4766C26.8359 93.4766 26.6895 93.418 26.5684 93.3008C26.4473 93.1836 26.3867 93.0352 26.3867 92.8555C26.3867 92.6758 26.4473 92.5273 26.5684 92.4102C26.6895 92.2891 26.8359 92.2285 27.0078 92.2285C27.1836 92.2285 27.332 92.2891 27.4531 92.4102C27.5781 92.5273 27.6406 92.6758 27.6406 92.8555C27.6406 93.0273 27.5781 93.1738 27.4531 93.2949C27.332 93.416 27.1836 93.4766 27.0078 93.4766ZM27.4766 101H26.5156V95H27.4766V101ZM32.2051 100.941C31.9785 101.066 31.6797 101.129 31.3086 101.129C30.2578 101.129 29.7324 100.543 29.7324 99.3711V95.8203H28.7012V95H29.7324V93.5352L30.6934 93.2246V95H32.2051V95.8203H30.6934V99.2012C30.6934 99.6035 30.7617 99.8906 30.8984 100.062C31.0352 100.234 31.2617 100.32 31.5781 100.32C31.8203 100.32 32.0293 100.254 32.2051 100.121V100.941ZM36.2715 100.941C36.0449 101.066 35.7461 101.129 35.375 101.129C34.3242 101.129 33.7988 100.543 33.7988 99.3711V95.8203H32.7676V95H33.7988V93.5352L34.7598 93.2246V95H36.2715V95.8203H34.7598V99.2012C34.7598 99.6035 34.8281 99.8906 34.9648 100.062C35.1016 100.234 35.3281 100.32 35.6445 100.32C35.8867 100.32 36.0957 100.254 36.2715 100.121V100.941ZM41.8496 101H40.8887V100.062H40.8652C40.4473 100.781 39.832 101.141 39.0195 101.141C38.4219 101.141 37.9531 100.982 37.6133 100.666C37.2773 100.35 37.1094 99.9297 37.1094 99.4062C37.1094 98.2852 37.7695 97.6328 39.0898 97.4492L40.8887 97.1973C40.8887 96.1777 40.4766 95.668 39.6523 95.668C38.9297 95.668 38.2773 95.9141 37.6953 96.4062V95.4219C38.2852 95.0469 38.9648 94.8594 39.7344 94.8594C41.1445 94.8594 41.8496 95.6055 41.8496 97.0977V101ZM40.8887 97.9648L39.4414 98.1641C38.9961 98.2266 38.6602 98.3379 38.4336 98.498C38.207 98.6543 38.0938 98.9336 38.0938 99.3359C38.0938 99.6289 38.1973 99.8691 38.4043 100.057C38.6152 100.24 38.8945 100.332 39.2422 100.332C39.7188 100.332 40.1113 100.166 40.4199 99.834C40.7324 99.498 40.8887 99.0742 40.8887 98.5625V97.9648ZM48.6406 101H47.6797V97.5781C47.6797 96.3047 47.2148 95.668 46.2852 95.668C45.8047 95.668 45.4062 95.8496 45.0898 96.2129C44.7773 96.5723 44.6211 97.0273 44.6211 97.5781V101H43.6602V95H44.6211V95.9961H44.6445C45.0977 95.2383 45.7539 94.8594 46.6133 94.8594C47.2695 94.8594 47.7715 95.0723 48.1191 95.498C48.4668 95.9199 48.6406 96.5312 48.6406 97.332V101ZM51.4414 100.133H51.418V101H50.457V92.1172H51.418V96.0547H51.4414C51.9141 95.2578 52.6055 94.8594 53.5156 94.8594C54.2852 94.8594 54.8867 95.1289 55.3203 95.668C55.7578 96.2031 55.9766 96.9219 55.9766 97.8242C55.9766 98.8281 55.7324 99.6328 55.2441 100.238C54.7559 100.84 54.0879 101.141 53.2402 101.141C52.4473 101.141 51.8477 100.805 51.4414 100.133ZM51.418 97.7129V98.5508C51.418 99.0469 51.5781 99.4688 51.8984 99.8164C52.2227 100.16 52.6328 100.332 53.1289 100.332C53.7109 100.332 54.166 100.109 54.4941 99.6641C54.8262 99.2188 54.9922 98.5996 54.9922 97.8066C54.9922 97.1387 54.8379 96.6152 54.5293 96.2363C54.2207 95.8574 53.8027 95.668 53.2754 95.668C52.7168 95.668 52.2676 95.8633 51.9277 96.2539C51.5879 96.6406 51.418 97.127 51.418 97.7129ZM58.0039 93.4766C57.832 93.4766 57.6855 93.418 57.5645 93.3008C57.4434 93.1836 57.3828 93.0352 57.3828 92.8555C57.3828 92.6758 57.4434 92.5273 57.5645 92.4102C57.6855 92.2891 57.832 92.2285 58.0039 92.2285C58.1797 92.2285 58.3281 92.2891 58.4492 92.4102C58.5742 92.5273 58.6367 92.6758 58.6367 92.8555C58.6367 93.0273 58.5742 93.1738 58.4492 93.2949C58.3281 93.416 58.1797 93.4766 58.0039 93.4766ZM58.4727 101H57.5117V95H58.4727V101ZM65.2402 98.2402H61.0039C61.0195 98.9082 61.1992 99.4238 61.543 99.7871C61.8867 100.15 62.3594 100.332 62.9609 100.332C63.6367 100.332 64.2578 100.109 64.8242 99.6641V100.566C64.2969 100.949 63.5996 101.141 62.7324 101.141C61.8848 101.141 61.2188 100.869 60.7344 100.326C60.25 99.7793 60.0078 99.0117 60.0078 98.0234C60.0078 97.0898 60.2715 96.3301 60.7988 95.7441C61.3301 95.1543 61.9883 94.8594 62.7734 94.8594C63.5586 94.8594 64.166 95.1133 64.5957 95.6211C65.0254 96.1289 65.2402 96.834 65.2402 97.7363V98.2402ZM64.2559 97.4258C64.252 96.8711 64.1172 96.4395 63.8516 96.1309C63.5898 95.8223 63.2246 95.668 62.7559 95.668C62.3027 95.668 61.918 95.8301 61.6016 96.1543C61.2852 96.4785 61.0898 96.9023 61.0156 97.4258H64.2559ZM69.4824 100.941C69.2559 101.066 68.957 101.129 68.5859 101.129C67.5352 101.129 67.0098 100.543 67.0098 99.3711V95.8203H65.9785V95H67.0098V93.5352L67.9707 93.2246V95H69.4824V95.8203H67.9707V99.2012C67.9707 99.6035 68.0391 99.8906 68.1758 100.062C68.3125 100.234 68.5391 100.32 68.8555 100.32C69.0977 100.32 69.3066 100.254 69.4824 100.121V100.941ZM75.5879 98.2402H71.3516C71.3672 98.9082 71.5469 99.4238 71.8906 99.7871C72.2344 100.15 72.707 100.332 73.3086 100.332C73.9844 100.332 74.6055 100.109 75.1719 99.6641V100.566C74.6445 100.949 73.9473 101.141 73.0801 101.141C72.2324 101.141 71.5664 100.869 71.082 100.326C70.5977 99.7793 70.3555 99.0117 70.3555 98.0234C70.3555 97.0898 70.6191 96.3301 71.1465 95.7441C71.6777 95.1543 72.3359 94.8594 73.1211 94.8594C73.9062 94.8594 74.5137 95.1133 74.9434 95.6211C75.373 96.1289 75.5879 96.834 75.5879 97.7363V98.2402ZM74.6035 97.4258C74.5996 96.8711 74.4648 96.4395 74.1992 96.1309C73.9375 95.8223 73.5723 95.668 73.1035 95.668C72.6504 95.668 72.2656 95.8301 71.9492 96.1543C71.6328 96.4785 71.4375 96.9023 71.3633 97.4258H74.6035ZM80.1758 95.9727C80.0078 95.8438 79.7656 95.7793 79.4492 95.7793C79.0391 95.7793 78.6953 95.9727 78.418 96.3594C78.1445 96.7461 78.0078 97.2734 78.0078 97.9414V101H77.0469V95H78.0078V96.2363H78.0312C78.168 95.8145 78.377 95.4863 78.6582 95.252C78.9395 95.0137 79.2539 94.8945 79.6016 94.8945C79.8516 94.8945 80.043 94.9219 80.1758 94.9766V95.9727ZM86.1992 101H85.2383V97.5781C85.2383 96.3047 84.7734 95.668 83.8438 95.668C83.3633 95.668 82.9648 95.8496 82.6484 96.2129C82.3359 96.5723 82.1797 97.0273 82.1797 97.5781V101H81.2188V95H82.1797V95.9961H82.2031C82.6562 95.2383 83.3125 94.8594 84.1719 94.8594C84.8281 94.8594 85.3301 95.0723 85.6777 95.498C86.0254 95.9199 86.1992 96.5312 86.1992 97.332V101ZM38.252 117H37.291V108.117H38.252V117ZM45.0195 114.24H40.7832C40.7988 114.908 40.9785 115.424 41.3223 115.787C41.666 116.15 42.1387 116.332 42.7402 116.332C43.416 116.332 44.0371 116.109 44.6035 115.664V116.566C44.0762 116.949 43.3789 117.141 42.5117 117.141C41.6641 117.141 40.998 116.869 40.5137 116.326C40.0293 115.779 39.7871 115.012 39.7871 114.023C39.7871 113.09 40.0508 112.33 40.5781 111.744C41.1094 111.154 41.7676 110.859 42.5527 110.859C43.3379 110.859 43.9453 111.113 44.375 111.621C44.8047 112.129 45.0195 112.834 45.0195 113.736V114.24ZM44.0352 113.426C44.0312 112.871 43.8965 112.439 43.6309 112.131C43.3691 111.822 43.0039 111.668 42.5352 111.668C42.082 111.668 41.6973 111.83 41.3809 112.154C41.0645 112.479 40.8691 112.902 40.7949 113.426H44.0352ZM46.1152 116.783V115.752C46.6387 116.139 47.2148 116.332 47.8438 116.332C48.6875 116.332 49.1094 116.051 49.1094 115.488C49.1094 115.328 49.0723 115.193 48.998 115.084C48.9277 114.971 48.8301 114.871 48.7051 114.785C48.584 114.699 48.4395 114.623 48.2715 114.557C48.1074 114.486 47.9297 114.414 47.7383 114.34C47.4727 114.234 47.2383 114.129 47.0352 114.023C46.8359 113.914 46.668 113.793 46.5312 113.66C46.3984 113.523 46.2969 113.369 46.2266 113.197C46.1602 113.025 46.127 112.824 46.127 112.594C46.127 112.312 46.1914 112.064 46.3203 111.85C46.4492 111.631 46.6211 111.449 46.8359 111.305C47.0508 111.156 47.2949 111.045 47.5684 110.971C47.8457 110.896 48.1309 110.859 48.4238 110.859C48.9434 110.859 49.4082 110.949 49.8184 111.129V112.102C49.377 111.812 48.8691 111.668 48.2949 111.668C48.1152 111.668 47.9531 111.689 47.8086 111.732C47.6641 111.771 47.5391 111.828 47.4336 111.902C47.332 111.977 47.252 112.066 47.1934 112.172C47.1387 112.273 47.1113 112.387 47.1113 112.512C47.1113 112.668 47.1387 112.799 47.1934 112.904C47.252 113.01 47.3359 113.104 47.4453 113.186C47.5547 113.268 47.6875 113.342 47.8438 113.408C48 113.475 48.1777 113.547 48.377 113.625C48.6426 113.727 48.8809 113.832 49.0918 113.941C49.3027 114.047 49.4824 114.168 49.6309 114.305C49.7793 114.438 49.8926 114.592 49.9707 114.768C50.0527 114.943 50.0938 115.152 50.0938 115.395C50.0938 115.691 50.0273 115.949 49.8945 116.168C49.7656 116.387 49.5918 116.568 49.373 116.713C49.1543 116.857 48.9023 116.965 48.6172 117.035C48.332 117.105 48.0332 117.141 47.7207 117.141C47.1035 117.141 46.5684 117.021 46.1152 116.783ZM56.3984 114.24H52.1621C52.1777 114.908 52.3574 115.424 52.7012 115.787C53.0449 116.15 53.5176 116.332 54.1191 116.332C54.7949 116.332 55.416 116.109 55.9824 115.664V116.566C55.4551 116.949 54.7578 117.141 53.8906 117.141C53.043 117.141 52.377 116.869 51.8926 116.326C51.4082 115.779 51.166 115.012 51.166 114.023C51.166 113.09 51.4297 112.33 51.957 111.744C52.4883 111.154 53.1465 110.859 53.9316 110.859C54.7168 110.859 55.3242 111.113 55.7539 111.621C56.1836 112.129 56.3984 112.834 56.3984 113.736V114.24ZM55.4141 113.426C55.4102 112.871 55.2754 112.439 55.0098 112.131C54.748 111.822 54.3828 111.668 53.9141 111.668C53.4609 111.668 53.0762 111.83 52.7598 112.154C52.4434 112.479 52.248 112.902 52.1738 113.426H55.4141ZM62.8379 117H61.877V113.578C61.877 112.305 61.4121 111.668 60.4824 111.668C60.002 111.668 59.6035 111.85 59.2871 112.213C58.9746 112.572 58.8184 113.027 58.8184 113.578V117H57.8574V111H58.8184V111.996H58.8418C59.2949 111.238 59.9512 110.859 60.8105 110.859C61.4668 110.859 61.9688 111.072 62.3164 111.498C62.6641 111.92 62.8379 112.531 62.8379 113.332V117Z" fill="#020057"/>
</svg>
