<svg width="100%" viewBox="0 0 40 40" fill="none" xmlns="http://www.w3.org/2000/svg">
<rect width="40" height="40" fill="#FBFBFE"/>
<path d="M11.4247 10.5758C11.1903 10.3414 10.8104 10.3414 10.5761 10.5758C10.3418 10.8101 10.3418 11.19 10.5761 11.4243L12.0974 12.9456C11.7833 13.4199 11.6004 13.9886 11.6004 14.6V25.4C11.6004 27.0569 12.9435 28.4 14.6004 28.4H25.4004C26.0118 28.4 26.5806 28.2171 27.0548 27.903L28.5761 29.4243C28.8104 29.6586 29.1903 29.6586 29.4247 29.4243C29.659 29.19 29.659 28.8101 29.4247 28.5758L11.4247 10.5758ZM26.1764 27.0246C25.9415 27.1371 25.6783 27.2 25.4004 27.2H14.6004C13.6063 27.2 12.8004 26.3941 12.8004 25.4V16.4H15.5519L26.1764 27.0246ZM27.2004 16.4V24.6544L28.3706 25.8246C28.3902 25.6859 28.4004 25.5442 28.4004 25.4V14.6C28.4004 12.9432 27.0572 11.6 25.4004 11.6H14.6004C14.4563 11.6 14.3145 11.6102 14.1758 11.6298L18.946 16.4H27.2004Z" fill="#020057"/>
</svg>
