<svg width="100%" viewBox="0 0 148 147" fill="none" xmlns="http://www.w3.org/2000/svg">
<g filter="url(#filter0_dd_3872_63019)">
<rect x="8" y="4" width="132" height="132" fill="#FBFBFE"/>
<rect x="8.5" y="4.5" width="131" height="131" stroke="#827DFF" stroke-dasharray="4 4"/>
<rect width="100" height="96" transform="translate(24 22)" fill="#FBFBFE"/>
<path d="M65.4247 32.5758C65.1903 32.3414 64.8104 32.3414 64.5761 32.5758C64.3418 32.8101 64.3418 33.19 64.5761 33.4243L66.0974 34.9456C65.7833 35.4199 65.6004 35.9886 65.6004 36.6V47.4C65.6004 49.0569 66.9435 50.4 68.6004 50.4H79.4004C80.0118 50.4 80.5806 50.2171 81.0548 49.903L82.5761 51.4243C82.8104 51.6586 83.1903 51.6586 83.4247 51.4243C83.659 51.19 83.659 50.8101 83.4247 50.5758L65.4247 32.5758ZM80.1764 49.0246C79.9415 49.1371 79.6783 49.2 79.4004 49.2H68.6004C67.6063 49.2 66.8004 48.3941 66.8004 47.4V38.4H69.5519L80.1764 49.0246ZM81.2004 38.4V46.6544L82.3706 47.8246C82.3902 47.6859 82.4004 47.5442 82.4004 47.4V36.6C82.4004 34.9432 81.0572 33.6 79.4004 33.6H68.6004C68.4563 33.6 68.3145 33.6102 68.1758 33.6298L72.946 38.4H81.2004Z" fill="#020057"/>
<path d="M40.0742 74.6484C39.4531 74.9766 38.6797 75.1406 37.7539 75.1406C36.5586 75.1406 35.6016 74.7559 34.8828 73.9863C34.1641 73.2168 33.8047 72.207 33.8047 70.957C33.8047 69.6133 34.209 68.5273 35.0176 67.6992C35.8262 66.8711 36.8516 66.457 38.0938 66.457C38.8906 66.457 39.5508 66.5723 40.0742 66.8027V67.8516C39.4727 67.5156 38.8086 67.3477 38.082 67.3477C37.1172 67.3477 36.334 67.6699 35.7324 68.3145C35.1348 68.959 34.8359 69.8203 34.8359 70.8984C34.8359 71.9219 35.1152 72.7383 35.6738 73.3477C36.2363 73.9531 36.9727 74.2559 37.8828 74.2559C38.7266 74.2559 39.457 74.0684 40.0742 73.6934V74.6484ZM42.6172 75H41.6562V66.1172H42.6172V75ZM48.8574 75H47.8965V74.0625H47.873C47.4551 74.7812 46.8398 75.1406 46.0273 75.1406C45.4297 75.1406 44.9609 74.9824 44.6211 74.666C44.2852 74.3496 44.1172 73.9297 44.1172 73.4062C44.1172 72.2852 44.7773 71.6328 46.0977 71.4492L47.8965 71.1973C47.8965 70.1777 47.4844 69.668 46.6602 69.668C45.9375 69.668 45.2852 69.9141 44.7031 70.4062V69.4219C45.293 69.0469 45.9727 68.8594 46.7422 68.8594C48.1523 68.8594 48.8574 69.6055 48.8574 71.0977V75ZM47.8965 71.9648L46.4492 72.1641C46.0039 72.2266 45.668 72.3379 45.4414 72.498C45.2148 72.6543 45.1016 72.9336 45.1016 73.3359C45.1016 73.6289 45.2051 73.8691 45.4121 74.0566C45.623 74.2402 45.9023 74.332 46.25 74.332C46.7266 74.332 47.1191 74.166 47.4277 73.834C47.7402 73.498 47.8965 73.0742 47.8965 72.5625V71.9648ZM53.7969 69.9727C53.6289 69.8438 53.3867 69.7793 53.0703 69.7793C52.6602 69.7793 52.3164 69.9727 52.0391 70.3594C51.7656 70.7461 51.6289 71.2734 51.6289 71.9414V75H50.668V69H51.6289V70.2363H51.6523C51.7891 69.8145 51.998 69.4863 52.2793 69.252C52.5605 69.0137 52.875 68.8945 53.2227 68.8945C53.4727 68.8945 53.6641 68.9219 53.7969 68.9766V69.9727ZM55.332 67.4766C55.1602 67.4766 55.0137 67.418 54.8926 67.3008C54.7715 67.1836 54.7109 67.0352 54.7109 66.8555C54.7109 66.6758 54.7715 66.5273 54.8926 66.4102C55.0137 66.2891 55.1602 66.2285 55.332 66.2285C55.5078 66.2285 55.6562 66.2891 55.7773 66.4102C55.9023 66.5273 55.9648 66.6758 55.9648 66.8555C55.9648 67.0273 55.9023 67.1738 55.7773 67.2949C55.6562 67.416 55.5078 67.4766 55.332 67.4766ZM55.8008 75H54.8398V69H55.8008V75ZM60.5293 74.9414C60.3027 75.0664 60.0039 75.1289 59.6328 75.1289C58.582 75.1289 58.0566 74.543 58.0566 73.3711V69.8203H57.0254V69H58.0566V67.5352L59.0176 67.2246V69H60.5293V69.8203H59.0176V73.2012C59.0176 73.6035 59.0859 73.8906 59.2227 74.0625C59.3594 74.2344 59.5859 74.3203 59.9023 74.3203C60.1445 74.3203 60.3535 74.2539 60.5293 74.1211V74.9414ZM66.5879 69L63.8281 75.9609C63.3359 77.2031 62.6445 77.8242 61.7539 77.8242C61.5039 77.8242 61.2949 77.7988 61.127 77.748V76.8867C61.334 76.957 61.5234 76.9922 61.6953 76.9922C62.1797 76.9922 62.543 76.7031 62.7852 76.125L63.2656 74.9883L60.9219 69H61.9883L63.6113 73.6172C63.6309 73.6758 63.6719 73.8281 63.7344 74.0742H63.7695C63.7891 73.9805 63.8281 73.832 63.8867 73.6289L65.5918 69H66.5879ZM75.8984 75H74.9375V71.5781C74.9375 70.3047 74.4727 69.668 73.543 69.668C73.0625 69.668 72.6641 69.8496 72.3477 70.2129C72.0352 70.5723 71.8789 71.0273 71.8789 71.5781V75H70.918V69H71.8789V69.9961H71.9023C72.3555 69.2383 73.0117 68.8594 73.8711 68.8594C74.5273 68.8594 75.0293 69.0723 75.377 69.498C75.7246 69.9199 75.8984 70.5312 75.8984 71.332V75ZM80.2227 75.1406C79.3359 75.1406 78.627 74.8613 78.0957 74.3027C77.5684 73.7402 77.3047 72.9961 77.3047 72.0703C77.3047 71.0625 77.5801 70.2754 78.1309 69.709C78.6816 69.1426 79.4258 68.8594 80.3633 68.8594C81.2578 68.8594 81.9551 69.1348 82.4551 69.6855C82.959 70.2363 83.2109 71 83.2109 71.9766C83.2109 72.9336 82.9395 73.7012 82.3965 74.2793C81.8574 74.8535 81.1328 75.1406 80.2227 75.1406ZM80.293 69.668C79.6758 69.668 79.1875 69.8789 78.8281 70.3008C78.4688 70.7188 78.2891 71.2969 78.2891 72.0352C78.2891 72.7461 78.4707 73.3066 78.834 73.7168C79.1973 74.127 79.6836 74.332 80.293 74.332C80.9141 74.332 81.3906 74.1309 81.7227 73.7285C82.0586 73.3262 82.2266 72.7539 82.2266 72.0117C82.2266 71.2617 82.0586 70.6836 81.7227 70.2773C81.3906 69.8711 80.9141 69.668 80.293 69.668ZM89.7266 75H88.7656V71.5781C88.7656 70.3047 88.3008 69.668 87.3711 69.668C86.8906 69.668 86.4922 69.8496 86.1758 70.2129C85.8633 70.5723 85.707 71.0273 85.707 71.5781V75H84.7461V69H85.707V69.9961H85.7305C86.1836 69.2383 86.8398 68.8594 87.6992 68.8594C88.3555 68.8594 88.8574 69.0723 89.2051 69.498C89.5527 69.9199 89.7266 70.5312 89.7266 71.332V75ZM95.8203 74.1328H95.7969V77.7598H94.8359V69H95.7969V70.0547H95.8203C96.293 69.2578 96.9844 68.8594 97.8945 68.8594C98.668 68.8594 99.2715 69.1289 99.7051 69.668C100.139 70.2031 100.355 70.9219 100.355 71.8242C100.355 72.8281 100.111 73.6328 99.623 74.2383C99.1348 74.8398 98.4668 75.1406 97.6191 75.1406C96.8418 75.1406 96.2422 74.8047 95.8203 74.1328ZM95.7969 71.7129V72.5508C95.7969 73.0469 95.957 73.4688 96.2773 73.8164C96.6016 74.1602 97.0117 74.332 97.5078 74.332C98.0898 74.332 98.5449 74.1094 98.873 73.6641C99.2051 73.2188 99.3711 72.5996 99.3711 71.8066C99.3711 71.1387 99.2168 70.6152 98.9082 70.2363C98.5996 69.8574 98.1816 69.668 97.6543 69.668C97.0957 69.668 96.6465 69.8633 96.3066 70.2539C95.9668 70.6406 95.7969 71.127 95.7969 71.7129ZM106.742 75H105.781V74.0508H105.758C105.359 74.7773 104.742 75.1406 103.906 75.1406C102.477 75.1406 101.762 74.2891 101.762 72.5859V69H102.717V72.4336C102.717 73.6992 103.201 74.332 104.17 74.332C104.639 74.332 105.023 74.1602 105.324 73.8164C105.629 73.4688 105.781 73.0156 105.781 72.457V69H106.742V75ZM111.195 75.1406C110.309 75.1406 109.6 74.8613 109.068 74.3027C108.541 73.7402 108.277 72.9961 108.277 72.0703C108.277 71.0625 108.553 70.2754 109.104 69.709C109.654 69.1426 110.398 68.8594 111.336 68.8594C112.23 68.8594 112.928 69.1348 113.428 69.6855C113.932 70.2363 114.184 71 114.184 71.9766C114.184 72.9336 113.912 73.7012 113.369 74.2793C112.83 74.8535 112.105 75.1406 111.195 75.1406ZM111.266 69.668C110.648 69.668 110.16 69.8789 109.801 70.3008C109.441 70.7188 109.262 71.2969 109.262 72.0352C109.262 72.7461 109.443 73.3066 109.807 73.7168C110.17 74.127 110.656 74.332 111.266 74.332C111.887 74.332 112.363 74.1309 112.695 73.7285C113.031 73.3262 113.199 72.7539 113.199 72.0117C113.199 71.2617 113.031 70.6836 112.695 70.2773C112.363 69.8711 111.887 69.668 111.266 69.668ZM112.092 67.8633H111.348L109.812 65.9414H110.797L112.092 67.8633ZM52.8066 91H51.8457V82.1172H52.8066V91ZM59.5742 88.2402H55.3379C55.3535 88.9082 55.5332 89.4238 55.877 89.7871C56.2207 90.1504 56.6934 90.332 57.2949 90.332C57.9707 90.332 58.5918 90.1094 59.1582 89.6641V90.5664C58.6309 90.9492 57.9336 91.1406 57.0664 91.1406C56.2188 91.1406 55.5527 90.8691 55.0684 90.3262C54.584 89.7793 54.3418 89.0117 54.3418 88.0234C54.3418 87.0898 54.6055 86.3301 55.1328 85.7441C55.6641 85.1543 56.3223 84.8594 57.1074 84.8594C57.8926 84.8594 58.5 85.1133 58.9297 85.6211C59.3594 86.1289 59.5742 86.834 59.5742 87.7363V88.2402ZM58.5898 87.4258C58.5859 86.8711 58.4512 86.4395 58.1855 86.1309C57.9238 85.8223 57.5586 85.668 57.0898 85.668C56.6367 85.668 56.252 85.8301 55.9355 86.1543C55.6191 86.4785 55.4238 86.9023 55.3496 87.4258H58.5898ZM66.1543 90.5195C66.1543 92.7227 65.0996 93.8242 62.9902 93.8242C62.248 93.8242 61.5996 93.6836 61.0449 93.4023V92.4414C61.7207 92.8164 62.3652 93.0039 62.9785 93.0039C64.4551 93.0039 65.1934 92.2188 65.1934 90.6484V89.9922H65.1699C64.7129 90.7578 64.0254 91.1406 63.1074 91.1406C62.3613 91.1406 61.7598 90.875 61.3027 90.3438C60.8496 89.8086 60.623 89.0918 60.623 88.1934C60.623 87.1738 60.8672 86.3633 61.3555 85.7617C61.8477 85.1602 62.5195 84.8594 63.3711 84.8594C64.1797 84.8594 64.7793 85.1836 65.1699 85.832H65.1934V85H66.1543V90.5195ZM65.1934 88.2871V87.4023C65.1934 86.9258 65.0312 86.5176 64.707 86.1777C64.3867 85.8379 63.9863 85.668 63.5059 85.668C62.9121 85.668 62.4473 85.8848 62.1113 86.3184C61.7754 86.748 61.6074 87.3516 61.6074 88.1289C61.6074 88.7969 61.7676 89.332 62.0879 89.7344C62.4121 90.1328 62.8398 90.332 63.3711 90.332C63.9102 90.332 64.3477 90.1406 64.6836 89.7578C65.0234 89.375 65.1934 88.8848 65.1934 88.2871ZM73.2207 90.5195C73.2207 92.7227 72.166 93.8242 70.0566 93.8242C69.3145 93.8242 68.666 93.6836 68.1113 93.4023V92.4414C68.7871 92.8164 69.4316 93.0039 70.0449 93.0039C71.5215 93.0039 72.2598 92.2188 72.2598 90.6484V89.9922H72.2363C71.7793 90.7578 71.0918 91.1406 70.1738 91.1406C69.4277 91.1406 68.8262 90.875 68.3691 90.3438C67.916 89.8086 67.6895 89.0918 67.6895 88.1934C67.6895 87.1738 67.9336 86.3633 68.4219 85.7617C68.9141 85.1602 69.5859 84.8594 70.4375 84.8594C71.2461 84.8594 71.8457 85.1836 72.2363 85.832H72.2598V85H73.2207V90.5195ZM72.2598 88.2871V87.4023C72.2598 86.9258 72.0977 86.5176 71.7734 86.1777C71.4531 85.8379 71.0527 85.668 70.5723 85.668C69.9785 85.668 69.5137 85.8848 69.1777 86.3184C68.8418 86.748 68.6738 87.3516 68.6738 88.1289C68.6738 88.7969 68.834 89.332 69.1543 89.7344C69.4785 90.1328 69.9062 90.332 70.4375 90.332C70.9766 90.332 71.4141 90.1406 71.75 89.7578C72.0898 89.375 72.2598 88.8848 72.2598 88.2871ZM79.9883 88.2402H75.752C75.7676 88.9082 75.9473 89.4238 76.291 89.7871C76.6348 90.1504 77.1074 90.332 77.709 90.332C78.3848 90.332 79.0059 90.1094 79.5723 89.6641V90.5664C79.0449 90.9492 78.3477 91.1406 77.4805 91.1406C76.6328 91.1406 75.9668 90.8691 75.4824 90.3262C74.998 89.7793 74.7559 89.0117 74.7559 88.0234C74.7559 87.0898 75.0195 86.3301 75.5469 85.7441C76.0781 85.1543 76.7363 84.8594 77.5215 84.8594C78.3066 84.8594 78.9141 85.1133 79.3438 85.6211C79.7734 86.1289 79.9883 86.834 79.9883 87.7363V88.2402ZM79.0039 87.4258C79 86.8711 78.8652 86.4395 78.5996 86.1309C78.3379 85.8223 77.9727 85.668 77.5039 85.668C77.0508 85.668 76.666 85.8301 76.3496 86.1543C76.0332 86.4785 75.8379 86.9023 75.7637 87.4258H79.0039ZM84.5762 85.9727C84.4082 85.8438 84.166 85.7793 83.8496 85.7793C83.4395 85.7793 83.0957 85.9727 82.8184 86.3594C82.5449 86.7461 82.4082 87.2734 82.4082 87.9414V91H81.4473V85H82.4082V86.2363H82.4316C82.5684 85.8145 82.7773 85.4863 83.0586 85.252C83.3398 85.0137 83.6543 84.8945 84.002 84.8945C84.252 84.8945 84.4434 84.9219 84.5762 84.9766V85.9727ZM90.4414 88.2402H86.2051C86.2207 88.9082 86.4004 89.4238 86.7441 89.7871C87.0879 90.1504 87.5605 90.332 88.1621 90.332C88.8379 90.332 89.459 90.1094 90.0254 89.6641V90.5664C89.498 90.9492 88.8008 91.1406 87.9336 91.1406C87.0859 91.1406 86.4199 90.8691 85.9355 90.3262C85.4512 89.7793 85.209 89.0117 85.209 88.0234C85.209 87.0898 85.4727 86.3301 86 85.7441C86.5312 85.1543 87.1895 84.8594 87.9746 84.8594C88.7598 84.8594 89.3672 85.1133 89.7969 85.6211C90.2266 86.1289 90.4414 86.834 90.4414 87.7363V88.2402ZM89.457 87.4258C89.4531 86.8711 89.3184 86.4395 89.0527 86.1309C88.791 85.8223 88.4258 85.668 87.957 85.668C87.5039 85.668 87.1191 85.8301 86.8027 86.1543C86.4863 86.4785 86.291 86.9023 86.2168 87.4258H89.457ZM95.6855 83.4766C95.5137 83.4766 95.3672 83.418 95.2461 83.3008C95.125 83.1836 95.0645 83.0352 95.0645 82.8555C95.0645 82.6758 95.125 82.5273 95.2461 82.4102C95.3672 82.2891 95.5137 82.2285 95.6855 82.2285C95.8613 82.2285 96.0098 82.2891 96.1309 82.4102C96.2559 82.5273 96.3184 82.6758 96.3184 82.8555C96.3184 83.0273 96.2559 83.1738 96.1309 83.2949C96.0098 83.416 95.8613 83.4766 95.6855 83.4766ZM96.1543 91H95.1934V85H96.1543V91ZM37.9297 99.4766C37.7578 99.4766 37.6113 99.418 37.4902 99.3008C37.3691 99.1836 37.3086 99.0352 37.3086 98.8555C37.3086 98.6758 37.3691 98.5273 37.4902 98.4102C37.6113 98.2891 37.7578 98.2285 37.9297 98.2285C38.1055 98.2285 38.2539 98.2891 38.375 98.4102C38.5 98.5273 38.5625 98.6758 38.5625 98.8555C38.5625 99.0273 38.5 99.1738 38.375 99.2949C38.2539 99.416 38.1055 99.4766 37.9297 99.4766ZM38.3984 107H37.4375V101H38.3984V107ZM44.7383 99.4883H41.457V102.395H44.4922V103.279H41.457V107H40.4727V98.5977H44.7383V99.4883ZM49.332 101.973C49.1641 101.844 48.9219 101.779 48.6055 101.779C48.1953 101.779 47.8516 101.973 47.5742 102.359C47.3008 102.746 47.1641 103.273 47.1641 103.941V107H46.2031V101H47.1641V102.236H47.1875C47.3242 101.814 47.5332 101.486 47.8145 101.252C48.0957 101.014 48.4102 100.895 48.7578 100.895C49.0078 100.895 49.1992 100.922 49.332 100.977V101.973ZM54.6699 107H53.709V106.062H53.6855C53.2676 106.781 52.6523 107.141 51.8398 107.141C51.2422 107.141 50.7734 106.982 50.4336 106.666C50.0977 106.35 49.9297 105.93 49.9297 105.406C49.9297 104.285 50.5898 103.633 51.9102 103.449L53.709 103.197C53.709 102.178 53.2969 101.668 52.4727 101.668C51.75 101.668 51.0977 101.914 50.5156 102.406V101.422C51.1055 101.047 51.7852 100.859 52.5547 100.859C53.9648 100.859 54.6699 101.605 54.6699 103.098V107ZM53.709 103.965L52.2617 104.164C51.8164 104.227 51.4805 104.338 51.2539 104.498C51.0273 104.654 50.9141 104.934 50.9141 105.336C50.9141 105.629 51.0176 105.869 51.2246 106.057C51.4355 106.24 51.7148 106.332 52.0625 106.332C52.5391 106.332 52.9316 106.166 53.2402 105.834C53.5527 105.498 53.709 105.074 53.709 104.562V103.965ZM65 107H64.0391V103.555C64.0391 102.891 63.9355 102.41 63.7285 102.113C63.5254 101.816 63.1816 101.668 62.6973 101.668C62.2871 101.668 61.9375 101.855 61.6484 102.23C61.3633 102.605 61.2207 103.055 61.2207 103.578V107H60.2598V103.438C60.2598 102.258 59.8047 101.668 58.8945 101.668C58.4727 101.668 58.125 101.846 57.8516 102.201C57.5781 102.553 57.4414 103.012 57.4414 103.578V107H56.4805V101H57.4414V101.949H57.4648C57.8906 101.223 58.5117 100.859 59.3281 100.859C59.7383 100.859 60.0957 100.975 60.4004 101.205C60.7051 101.432 60.9141 101.73 61.0273 102.102C61.4727 101.273 62.1367 100.859 63.0195 100.859C64.3398 100.859 65 101.674 65 103.303V107ZM71.6387 104.24H67.4023C67.418 104.908 67.5977 105.424 67.9414 105.787C68.2852 106.15 68.7578 106.332 69.3594 106.332C70.0352 106.332 70.6562 106.109 71.2227 105.664V106.566C70.6953 106.949 69.998 107.141 69.1309 107.141C68.2832 107.141 67.6172 106.869 67.1328 106.326C66.6484 105.779 66.4062 105.012 66.4062 104.023C66.4062 103.09 66.6699 102.33 67.1973 101.744C67.7285 101.154 68.3867 100.859 69.1719 100.859C69.957 100.859 70.5645 101.113 70.9941 101.621C71.4238 102.129 71.6387 102.834 71.6387 103.736V104.24ZM70.6543 103.426C70.6504 102.871 70.5156 102.439 70.25 102.131C69.9883 101.822 69.623 101.668 69.1543 101.668C68.7012 101.668 68.3164 101.83 68 102.154C67.6836 102.479 67.4883 102.902 67.4141 103.426H70.6543ZM81.5117 107H80.5508V105.98H80.5273C80.082 106.754 79.3945 107.141 78.4648 107.141C77.7109 107.141 77.1074 106.873 76.6543 106.338C76.2051 105.799 75.9805 105.066 75.9805 104.141C75.9805 103.148 76.2305 102.354 76.7305 101.756C77.2305 101.158 77.8965 100.859 78.7285 100.859C79.5527 100.859 80.1523 101.184 80.5273 101.832H80.5508V98.1172H81.5117V107ZM80.5508 104.287V103.402C80.5508 102.918 80.3906 102.508 80.0703 102.172C79.75 101.836 79.3438 101.668 78.8516 101.668C78.2656 101.668 77.8047 101.883 77.4688 102.312C77.1328 102.742 76.9648 103.336 76.9648 104.094C76.9648 104.785 77.125 105.332 77.4453 105.734C77.7695 106.133 78.2031 106.332 78.7461 106.332C79.2812 106.332 79.7148 106.139 80.0469 105.752C80.3828 105.365 80.5508 104.877 80.5508 104.287ZM83.9492 99.4766C83.7773 99.4766 83.6309 99.418 83.5098 99.3008C83.3887 99.1836 83.3281 99.0352 83.3281 98.8555C83.3281 98.6758 83.3887 98.5273 83.5098 98.4102C83.6309 98.2891 83.7773 98.2285 83.9492 98.2285C84.125 98.2285 84.2734 98.2891 84.3945 98.4102C84.5195 98.5273 84.582 98.6758 84.582 98.8555C84.582 99.0273 84.5195 99.1738 84.3945 99.2949C84.2734 99.416 84.125 99.4766 83.9492 99.4766ZM84.418 107H83.457V101H84.418V107ZM92.4395 106.941C92.2129 107.066 91.9141 107.129 91.543 107.129C90.4922 107.129 89.9668 106.543 89.9668 105.371V101.82H88.9355V101H89.9668V99.5352L90.9277 99.2246V101H92.4395V101.82H90.9277V105.201C90.9277 105.604 90.9961 105.891 91.1328 106.062C91.2695 106.234 91.4961 106.32 91.8125 106.32C92.0547 106.32 92.2637 106.254 92.4395 106.121V106.941ZM98.5449 104.24H94.3086C94.3242 104.908 94.5039 105.424 94.8477 105.787C95.1914 106.15 95.6641 106.332 96.2656 106.332C96.9414 106.332 97.5625 106.109 98.1289 105.664V106.566C97.6016 106.949 96.9043 107.141 96.0371 107.141C95.1895 107.141 94.5234 106.869 94.0391 106.326C93.5547 105.779 93.3125 105.012 93.3125 104.023C93.3125 103.09 93.5762 102.33 94.1035 101.744C94.6348 101.154 95.293 100.859 96.0781 100.859C96.8633 100.859 97.4707 101.113 97.9004 101.621C98.3301 102.129 98.5449 102.834 98.5449 103.736V104.24ZM97.5605 103.426C97.5566 102.871 97.4219 102.439 97.1562 102.131C96.8945 101.822 96.5293 101.668 96.0605 101.668C95.6074 101.668 95.2227 101.83 94.9062 102.154C94.5898 102.479 94.3945 102.902 94.3203 103.426H97.5605ZM103.133 101.973C102.965 101.844 102.723 101.779 102.406 101.779C101.996 101.779 101.652 101.973 101.375 102.359C101.102 102.746 100.965 103.273 100.965 103.941V107H100.004V101H100.965V102.236H100.988C101.125 101.814 101.334 101.486 101.615 101.252C101.896 101.014 102.211 100.895 102.559 100.895C102.809 100.895 103 100.922 103.133 100.977V101.973ZM108.359 101.275L104.809 106.18H108.324V107H103.396V106.701L106.947 101.82H103.73V101H108.359V101.275ZM110.094 99.4766C109.922 99.4766 109.775 99.418 109.654 99.3008C109.533 99.1836 109.473 99.0352 109.473 98.8555C109.473 98.6758 109.533 98.5273 109.654 98.4102C109.775 98.2891 109.922 98.2285 110.094 98.2285C110.27 98.2285 110.418 98.2891 110.539 98.4102C110.664 98.5273 110.727 98.6758 110.727 98.8555C110.727 99.0273 110.664 99.1738 110.539 99.2949C110.418 99.416 110.27 99.4766 110.094 99.4766ZM110.562 107H109.602V101H110.562V107Z" fill="#020057"/>
</g>
<defs>
<filter id="filter0_dd_3872_63019" x="0.8" y="2.38419e-07" width="146.4" height="146.4" filterUnits="userSpaceOnUse" color-interpolation-filters="sRGB">
<feFlood flood-opacity="0" result="BackgroundImageFix"/>
<feColorMatrix in="SourceAlpha" type="matrix" values="0 0 0 0 0 0 0 0 0 0 0 0 0 0 0 0 0 0 127 0" result="hardAlpha"/>
<feOffset dy="3.2"/>
<feGaussianBlur stdDeviation="3.6"/>
<feColorMatrix type="matrix" values="0 0 0 0 0.513726 0 0 0 0 0.494118 0 0 0 0 1 0 0 0 0.12 0"/>
<feBlend mode="normal" in2="BackgroundImageFix" result="effect1_dropShadow_3872_63019"/>
<feColorMatrix in="SourceAlpha" type="matrix" values="0 0 0 0 0 0 0 0 0 0 0 0 0 0 0 0 0 0 127 0" result="hardAlpha"/>
<feOffset dy="0.6"/>
<feGaussianBlur stdDeviation="0.9"/>
<feColorMatrix type="matrix" values="0 0 0 0 0.513726 0 0 0 0 0.494118 0 0 0 0 1 0 0 0 0.1 0"/>
<feBlend mode="normal" in2="effect1_dropShadow_3872_63019" result="effect2_dropShadow_3872_63019"/>
<feBlend mode="normal" in="SourceGraphic" in2="effect2_dropShadow_3872_63019" result="shape"/>
</filter>
</defs>
</svg>
