<svg width="100" height="96" viewBox="0 0 100 96" fill="none" xmlns="http://www.w3.org/2000/svg">
<rect width="100" height="96" fill="#FBFBFE"/>
<path d="M41.4247 10.5758C41.1903 10.3414 40.8104 10.3414 40.5761 10.5758C40.3418 10.8101 40.3418 11.19 40.5761 11.4243L42.0974 12.9456C41.7833 13.4199 41.6004 13.9886 41.6004 14.6V25.4C41.6004 27.0569 42.9435 28.4 44.6004 28.4H55.4004C56.0118 28.4 56.5806 28.2171 57.0548 27.903L58.5761 29.4243C58.8104 29.6586 59.1903 29.6586 59.4247 29.4243C59.659 29.19 59.659 28.8101 59.4247 28.5758L41.4247 10.5758ZM56.1764 27.0246C55.9415 27.1371 55.6783 27.2 55.4004 27.2H44.6004C43.6063 27.2 42.8004 26.3941 42.8004 25.4V16.4H45.5519L56.1764 27.0246ZM57.2004 16.4V24.6544L58.3706 25.8246C58.3902 25.6859 58.4004 25.5442 58.4004 25.4V14.6C58.4004 12.9432 57.0572 11.6 55.4004 11.6H44.6004C44.4563 11.6 44.3145 11.6102 44.1758 11.6298L48.946 16.4H57.2004Z" fill="#020057"/>
<path d="M16.0742 52.6484C15.4531 52.9766 14.6797 53.1406 13.7539 53.1406C12.5586 53.1406 11.6016 52.7559 10.8828 51.9863C10.1641 51.2168 9.80469 50.207 9.80469 48.957C9.80469 47.6133 10.209 46.5273 11.0176 45.6992C11.8262 44.8711 12.8516 44.457 14.0938 44.457C14.8906 44.457 15.5508 44.5723 16.0742 44.8027V45.8516C15.4727 45.5156 14.8086 45.3477 14.082 45.3477C13.1172 45.3477 12.334 45.6699 11.7324 46.3145C11.1348 46.959 10.8359 47.8203 10.8359 48.8984C10.8359 49.9219 11.1152 50.7383 11.6738 51.3477C12.2363 51.9531 12.9727 52.2559 13.8828 52.2559C14.7266 52.2559 15.457 52.0684 16.0742 51.6934V52.6484ZM18.6172 53H17.6562V44.1172H18.6172V53ZM24.8574 53H23.8965V52.0625H23.873C23.4551 52.7812 22.8398 53.1406 22.0273 53.1406C21.4297 53.1406 20.9609 52.9824 20.6211 52.666C20.2852 52.3496 20.1172 51.9297 20.1172 51.4062C20.1172 50.2852 20.7773 49.6328 22.0977 49.4492L23.8965 49.1973C23.8965 48.1777 23.4844 47.668 22.6602 47.668C21.9375 47.668 21.2852 47.9141 20.7031 48.4062V47.4219C21.293 47.0469 21.9727 46.8594 22.7422 46.8594C24.1523 46.8594 24.8574 47.6055 24.8574 49.0977V53ZM23.8965 49.9648L22.4492 50.1641C22.0039 50.2266 21.668 50.3379 21.4414 50.498C21.2148 50.6543 21.1016 50.9336 21.1016 51.3359C21.1016 51.6289 21.2051 51.8691 21.4121 52.0566C21.623 52.2402 21.9023 52.332 22.25 52.332C22.7266 52.332 23.1191 52.166 23.4277 51.834C23.7402 51.498 23.8965 51.0742 23.8965 50.5625V49.9648ZM29.7969 47.9727C29.6289 47.8438 29.3867 47.7793 29.0703 47.7793C28.6602 47.7793 28.3164 47.9727 28.0391 48.3594C27.7656 48.7461 27.6289 49.2734 27.6289 49.9414V53H26.668V47H27.6289V48.2363H27.6523C27.7891 47.8145 27.998 47.4863 28.2793 47.252C28.5605 47.0137 28.875 46.8945 29.2227 46.8945C29.4727 46.8945 29.6641 46.9219 29.7969 46.9766V47.9727ZM31.332 45.4766C31.1602 45.4766 31.0137 45.418 30.8926 45.3008C30.7715 45.1836 30.7109 45.0352 30.7109 44.8555C30.7109 44.6758 30.7715 44.5273 30.8926 44.4102C31.0137 44.2891 31.1602 44.2285 31.332 44.2285C31.5078 44.2285 31.6562 44.2891 31.7773 44.4102C31.9023 44.5273 31.9648 44.6758 31.9648 44.8555C31.9648 45.0273 31.9023 45.1738 31.7773 45.2949C31.6562 45.416 31.5078 45.4766 31.332 45.4766ZM31.8008 53H30.8398V47H31.8008V53ZM36.5293 52.9414C36.3027 53.0664 36.0039 53.1289 35.6328 53.1289C34.582 53.1289 34.0566 52.543 34.0566 51.3711V47.8203H33.0254V47H34.0566V45.5352L35.0176 45.2246V47H36.5293V47.8203H35.0176V51.2012C35.0176 51.6035 35.0859 51.8906 35.2227 52.0625C35.3594 52.2344 35.5859 52.3203 35.9023 52.3203C36.1445 52.3203 36.3535 52.2539 36.5293 52.1211V52.9414ZM42.5879 47L39.8281 53.9609C39.3359 55.2031 38.6445 55.8242 37.7539 55.8242C37.5039 55.8242 37.2949 55.7988 37.127 55.748V54.8867C37.334 54.957 37.5234 54.9922 37.6953 54.9922C38.1797 54.9922 38.543 54.7031 38.7852 54.125L39.2656 52.9883L36.9219 47H37.9883L39.6113 51.6172C39.6309 51.6758 39.6719 51.8281 39.7344 52.0742H39.7695C39.7891 51.9805 39.8281 51.832 39.8867 51.6289L41.5918 47H42.5879ZM51.8984 53H50.9375V49.5781C50.9375 48.3047 50.4727 47.668 49.543 47.668C49.0625 47.668 48.6641 47.8496 48.3477 48.2129C48.0352 48.5723 47.8789 49.0273 47.8789 49.5781V53H46.918V47H47.8789V47.9961H47.9023C48.3555 47.2383 49.0117 46.8594 49.8711 46.8594C50.5273 46.8594 51.0293 47.0723 51.377 47.498C51.7246 47.9199 51.8984 48.5312 51.8984 49.332V53ZM56.2227 53.1406C55.3359 53.1406 54.627 52.8613 54.0957 52.3027C53.5684 51.7402 53.3047 50.9961 53.3047 50.0703C53.3047 49.0625 53.5801 48.2754 54.1309 47.709C54.6816 47.1426 55.4258 46.8594 56.3633 46.8594C57.2578 46.8594 57.9551 47.1348 58.4551 47.6855C58.959 48.2363 59.2109 49 59.2109 49.9766C59.2109 50.9336 58.9395 51.7012 58.3965 52.2793C57.8574 52.8535 57.1328 53.1406 56.2227 53.1406ZM56.293 47.668C55.6758 47.668 55.1875 47.8789 54.8281 48.3008C54.4688 48.7188 54.2891 49.2969 54.2891 50.0352C54.2891 50.7461 54.4707 51.3066 54.834 51.7168C55.1973 52.127 55.6836 52.332 56.293 52.332C56.9141 52.332 57.3906 52.1309 57.7227 51.7285C58.0586 51.3262 58.2266 50.7539 58.2266 50.0117C58.2266 49.2617 58.0586 48.6836 57.7227 48.2773C57.3906 47.8711 56.9141 47.668 56.293 47.668ZM65.7266 53H64.7656V49.5781C64.7656 48.3047 64.3008 47.668 63.3711 47.668C62.8906 47.668 62.4922 47.8496 62.1758 48.2129C61.8633 48.5723 61.707 49.0273 61.707 49.5781V53H60.7461V47H61.707V47.9961H61.7305C62.1836 47.2383 62.8398 46.8594 63.6992 46.8594C64.3555 46.8594 64.8574 47.0723 65.2051 47.498C65.5527 47.9199 65.7266 48.5312 65.7266 49.332V53ZM71.8203 52.1328H71.7969V55.7598H70.8359V47H71.7969V48.0547H71.8203C72.293 47.2578 72.9844 46.8594 73.8945 46.8594C74.668 46.8594 75.2715 47.1289 75.7051 47.668C76.1387 48.2031 76.3555 48.9219 76.3555 49.8242C76.3555 50.8281 76.1113 51.6328 75.623 52.2383C75.1348 52.8398 74.4668 53.1406 73.6191 53.1406C72.8418 53.1406 72.2422 52.8047 71.8203 52.1328ZM71.7969 49.7129V50.5508C71.7969 51.0469 71.957 51.4688 72.2773 51.8164C72.6016 52.1602 73.0117 52.332 73.5078 52.332C74.0898 52.332 74.5449 52.1094 74.873 51.6641C75.2051 51.2188 75.3711 50.5996 75.3711 49.8066C75.3711 49.1387 75.2168 48.6152 74.9082 48.2363C74.5996 47.8574 74.1816 47.668 73.6543 47.668C73.0957 47.668 72.6465 47.8633 72.3066 48.2539C71.9668 48.6406 71.7969 49.127 71.7969 49.7129ZM82.7422 53H81.7812V52.0508H81.7578C81.3594 52.7773 80.7422 53.1406 79.9062 53.1406C78.4766 53.1406 77.7617 52.2891 77.7617 50.5859V47H78.7168V50.4336C78.7168 51.6992 79.2012 52.332 80.1699 52.332C80.6387 52.332 81.0234 52.1602 81.3242 51.8164C81.6289 51.4688 81.7812 51.0156 81.7812 50.457V47H82.7422V53ZM87.1953 53.1406C86.3086 53.1406 85.5996 52.8613 85.0684 52.3027C84.541 51.7402 84.2773 50.9961 84.2773 50.0703C84.2773 49.0625 84.5527 48.2754 85.1035 47.709C85.6543 47.1426 86.3984 46.8594 87.3359 46.8594C88.2305 46.8594 88.9277 47.1348 89.4277 47.6855C89.9316 48.2363 90.1836 49 90.1836 49.9766C90.1836 50.9336 89.9121 51.7012 89.3691 52.2793C88.8301 52.8535 88.1055 53.1406 87.1953 53.1406ZM87.2656 47.668C86.6484 47.668 86.1602 47.8789 85.8008 48.3008C85.4414 48.7188 85.2617 49.2969 85.2617 50.0352C85.2617 50.7461 85.4434 51.3066 85.8066 51.7168C86.1699 52.127 86.6562 52.332 87.2656 52.332C87.8867 52.332 88.3633 52.1309 88.6953 51.7285C89.0312 51.3262 89.1992 50.7539 89.1992 50.0117C89.1992 49.2617 89.0312 48.6836 88.6953 48.2773C88.3633 47.8711 87.8867 47.668 87.2656 47.668ZM88.0918 45.8633H87.3477L85.8125 43.9414H86.7969L88.0918 45.8633ZM28.8066 69H27.8457V60.1172H28.8066V69ZM35.5742 66.2402H31.3379C31.3535 66.9082 31.5332 67.4238 31.877 67.7871C32.2207 68.1504 32.6934 68.332 33.2949 68.332C33.9707 68.332 34.5918 68.1094 35.1582 67.6641V68.5664C34.6309 68.9492 33.9336 69.1406 33.0664 69.1406C32.2188 69.1406 31.5527 68.8691 31.0684 68.3262C30.584 67.7793 30.3418 67.0117 30.3418 66.0234C30.3418 65.0898 30.6055 64.3301 31.1328 63.7441C31.6641 63.1543 32.3223 62.8594 33.1074 62.8594C33.8926 62.8594 34.5 63.1133 34.9297 63.6211C35.3594 64.1289 35.5742 64.834 35.5742 65.7363V66.2402ZM34.5898 65.4258C34.5859 64.8711 34.4512 64.4395 34.1855 64.1309C33.9238 63.8223 33.5586 63.668 33.0898 63.668C32.6367 63.668 32.252 63.8301 31.9355 64.1543C31.6191 64.4785 31.4238 64.9023 31.3496 65.4258H34.5898ZM42.1543 68.5195C42.1543 70.7227 41.0996 71.8242 38.9902 71.8242C38.248 71.8242 37.5996 71.6836 37.0449 71.4023V70.4414C37.7207 70.8164 38.3652 71.0039 38.9785 71.0039C40.4551 71.0039 41.1934 70.2188 41.1934 68.6484V67.9922H41.1699C40.7129 68.7578 40.0254 69.1406 39.1074 69.1406C38.3613 69.1406 37.7598 68.875 37.3027 68.3438C36.8496 67.8086 36.623 67.0918 36.623 66.1934C36.623 65.1738 36.8672 64.3633 37.3555 63.7617C37.8477 63.1602 38.5195 62.8594 39.3711 62.8594C40.1797 62.8594 40.7793 63.1836 41.1699 63.832H41.1934V63H42.1543V68.5195ZM41.1934 66.2871V65.4023C41.1934 64.9258 41.0312 64.5176 40.707 64.1777C40.3867 63.8379 39.9863 63.668 39.5059 63.668C38.9121 63.668 38.4473 63.8848 38.1113 64.3184C37.7754 64.748 37.6074 65.3516 37.6074 66.1289C37.6074 66.7969 37.7676 67.332 38.0879 67.7344C38.4121 68.1328 38.8398 68.332 39.3711 68.332C39.9102 68.332 40.3477 68.1406 40.6836 67.7578C41.0234 67.375 41.1934 66.8848 41.1934 66.2871ZM49.2207 68.5195C49.2207 70.7227 48.166 71.8242 46.0566 71.8242C45.3145 71.8242 44.666 71.6836 44.1113 71.4023V70.4414C44.7871 70.8164 45.4316 71.0039 46.0449 71.0039C47.5215 71.0039 48.2598 70.2188 48.2598 68.6484V67.9922H48.2363C47.7793 68.7578 47.0918 69.1406 46.1738 69.1406C45.4277 69.1406 44.8262 68.875 44.3691 68.3438C43.916 67.8086 43.6895 67.0918 43.6895 66.1934C43.6895 65.1738 43.9336 64.3633 44.4219 63.7617C44.9141 63.1602 45.5859 62.8594 46.4375 62.8594C47.2461 62.8594 47.8457 63.1836 48.2363 63.832H48.2598V63H49.2207V68.5195ZM48.2598 66.2871V65.4023C48.2598 64.9258 48.0977 64.5176 47.7734 64.1777C47.4531 63.8379 47.0527 63.668 46.5723 63.668C45.9785 63.668 45.5137 63.8848 45.1777 64.3184C44.8418 64.748 44.6738 65.3516 44.6738 66.1289C44.6738 66.7969 44.834 67.332 45.1543 67.7344C45.4785 68.1328 45.9062 68.332 46.4375 68.332C46.9766 68.332 47.4141 68.1406 47.75 67.7578C48.0898 67.375 48.2598 66.8848 48.2598 66.2871ZM55.9883 66.2402H51.752C51.7676 66.9082 51.9473 67.4238 52.291 67.7871C52.6348 68.1504 53.1074 68.332 53.709 68.332C54.3848 68.332 55.0059 68.1094 55.5723 67.6641V68.5664C55.0449 68.9492 54.3477 69.1406 53.4805 69.1406C52.6328 69.1406 51.9668 68.8691 51.4824 68.3262C50.998 67.7793 50.7559 67.0117 50.7559 66.0234C50.7559 65.0898 51.0195 64.3301 51.5469 63.7441C52.0781 63.1543 52.7363 62.8594 53.5215 62.8594C54.3066 62.8594 54.9141 63.1133 55.3438 63.6211C55.7734 64.1289 55.9883 64.834 55.9883 65.7363V66.2402ZM55.0039 65.4258C55 64.8711 54.8652 64.4395 54.5996 64.1309C54.3379 63.8223 53.9727 63.668 53.5039 63.668C53.0508 63.668 52.666 63.8301 52.3496 64.1543C52.0332 64.4785 51.8379 64.9023 51.7637 65.4258H55.0039ZM60.5762 63.9727C60.4082 63.8438 60.166 63.7793 59.8496 63.7793C59.4395 63.7793 59.0957 63.9727 58.8184 64.3594C58.5449 64.7461 58.4082 65.2734 58.4082 65.9414V69H57.4473V63H58.4082V64.2363H58.4316C58.5684 63.8145 58.7773 63.4863 59.0586 63.252C59.3398 63.0137 59.6543 62.8945 60.002 62.8945C60.252 62.8945 60.4434 62.9219 60.5762 62.9766V63.9727ZM66.4414 66.2402H62.2051C62.2207 66.9082 62.4004 67.4238 62.7441 67.7871C63.0879 68.1504 63.5605 68.332 64.1621 68.332C64.8379 68.332 65.459 68.1094 66.0254 67.6641V68.5664C65.498 68.9492 64.8008 69.1406 63.9336 69.1406C63.0859 69.1406 62.4199 68.8691 61.9355 68.3262C61.4512 67.7793 61.209 67.0117 61.209 66.0234C61.209 65.0898 61.4727 64.3301 62 63.7441C62.5312 63.1543 63.1895 62.8594 63.9746 62.8594C64.7598 62.8594 65.3672 63.1133 65.7969 63.6211C66.2266 64.1289 66.4414 64.834 66.4414 65.7363V66.2402ZM65.457 65.4258C65.4531 64.8711 65.3184 64.4395 65.0527 64.1309C64.791 63.8223 64.4258 63.668 63.957 63.668C63.5039 63.668 63.1191 63.8301 62.8027 64.1543C62.4863 64.4785 62.291 64.9023 62.2168 65.4258H65.457ZM71.6855 61.4766C71.5137 61.4766 71.3672 61.418 71.2461 61.3008C71.125 61.1836 71.0645 61.0352 71.0645 60.8555C71.0645 60.6758 71.125 60.5273 71.2461 60.4102C71.3672 60.2891 71.5137 60.2285 71.6855 60.2285C71.8613 60.2285 72.0098 60.2891 72.1309 60.4102C72.2559 60.5273 72.3184 60.6758 72.3184 60.8555C72.3184 61.0273 72.2559 61.1738 72.1309 61.2949C72.0098 61.416 71.8613 61.4766 71.6855 61.4766ZM72.1543 69H71.1934V63H72.1543V69ZM13.9297 77.4766C13.7578 77.4766 13.6113 77.418 13.4902 77.3008C13.3691 77.1836 13.3086 77.0352 13.3086 76.8555C13.3086 76.6758 13.3691 76.5273 13.4902 76.4102C13.6113 76.2891 13.7578 76.2285 13.9297 76.2285C14.1055 76.2285 14.2539 76.2891 14.375 76.4102C14.5 76.5273 14.5625 76.6758 14.5625 76.8555C14.5625 77.0273 14.5 77.1738 14.375 77.2949C14.2539 77.416 14.1055 77.4766 13.9297 77.4766ZM14.3984 85H13.4375V79H14.3984V85ZM20.7383 77.4883H17.457V80.3945H20.4922V81.2793H17.457V85H16.4727V76.5977H20.7383V77.4883ZM25.332 79.9727C25.1641 79.8438 24.9219 79.7793 24.6055 79.7793C24.1953 79.7793 23.8516 79.9727 23.5742 80.3594C23.3008 80.7461 23.1641 81.2734 23.1641 81.9414V85H22.2031V79H23.1641V80.2363H23.1875C23.3242 79.8145 23.5332 79.4863 23.8145 79.252C24.0957 79.0137 24.4102 78.8945 24.7578 78.8945C25.0078 78.8945 25.1992 78.9219 25.332 78.9766V79.9727ZM30.6699 85H29.709V84.0625H29.6855C29.2676 84.7812 28.6523 85.1406 27.8398 85.1406C27.2422 85.1406 26.7734 84.9824 26.4336 84.666C26.0977 84.3496 25.9297 83.9297 25.9297 83.4062C25.9297 82.2852 26.5898 81.6328 27.9102 81.4492L29.709 81.1973C29.709 80.1777 29.2969 79.668 28.4727 79.668C27.75 79.668 27.0977 79.9141 26.5156 80.4062V79.4219C27.1055 79.0469 27.7852 78.8594 28.5547 78.8594C29.9648 78.8594 30.6699 79.6055 30.6699 81.0977V85ZM29.709 81.9648L28.2617 82.1641C27.8164 82.2266 27.4805 82.3379 27.2539 82.498C27.0273 82.6543 26.9141 82.9336 26.9141 83.3359C26.9141 83.6289 27.0176 83.8691 27.2246 84.0566C27.4355 84.2402 27.7148 84.332 28.0625 84.332C28.5391 84.332 28.9316 84.166 29.2402 83.834C29.5527 83.498 29.709 83.0742 29.709 82.5625V81.9648ZM41 85H40.0391V81.5547C40.0391 80.8906 39.9355 80.4102 39.7285 80.1133C39.5254 79.8164 39.1816 79.668 38.6973 79.668C38.2871 79.668 37.9375 79.8555 37.6484 80.2305C37.3633 80.6055 37.2207 81.0547 37.2207 81.5781V85H36.2598V81.4375C36.2598 80.2578 35.8047 79.668 34.8945 79.668C34.4727 79.668 34.125 79.8457 33.8516 80.2012C33.5781 80.5527 33.4414 81.0117 33.4414 81.5781V85H32.4805V79H33.4414V79.9492H33.4648C33.8906 79.2227 34.5117 78.8594 35.3281 78.8594C35.7383 78.8594 36.0957 78.9746 36.4004 79.2051C36.7051 79.4316 36.9141 79.7305 37.0273 80.1016C37.4727 79.2734 38.1367 78.8594 39.0195 78.8594C40.3398 78.8594 41 79.6738 41 81.3027V85ZM47.6387 82.2402H43.4023C43.418 82.9082 43.5977 83.4238 43.9414 83.7871C44.2852 84.1504 44.7578 84.332 45.3594 84.332C46.0352 84.332 46.6562 84.1094 47.2227 83.6641V84.5664C46.6953 84.9492 45.998 85.1406 45.1309 85.1406C44.2832 85.1406 43.6172 84.8691 43.1328 84.3262C42.6484 83.7793 42.4062 83.0117 42.4062 82.0234C42.4062 81.0898 42.6699 80.3301 43.1973 79.7441C43.7285 79.1543 44.3867 78.8594 45.1719 78.8594C45.957 78.8594 46.5645 79.1133 46.9941 79.6211C47.4238 80.1289 47.6387 80.834 47.6387 81.7363V82.2402ZM46.6543 81.4258C46.6504 80.8711 46.5156 80.4395 46.25 80.1309C45.9883 79.8223 45.623 79.668 45.1543 79.668C44.7012 79.668 44.3164 79.8301 44 80.1543C43.6836 80.4785 43.4883 80.9023 43.4141 81.4258H46.6543ZM57.5117 85H56.5508V83.9805H56.5273C56.082 84.7539 55.3945 85.1406 54.4648 85.1406C53.7109 85.1406 53.1074 84.873 52.6543 84.3379C52.2051 83.7988 51.9805 83.0664 51.9805 82.1406C51.9805 81.1484 52.2305 80.3535 52.7305 79.7559C53.2305 79.1582 53.8965 78.8594 54.7285 78.8594C55.5527 78.8594 56.1523 79.1836 56.5273 79.832H56.5508V76.1172H57.5117V85ZM56.5508 82.2871V81.4023C56.5508 80.918 56.3906 80.5078 56.0703 80.1719C55.75 79.8359 55.3438 79.668 54.8516 79.668C54.2656 79.668 53.8047 79.8828 53.4688 80.3125C53.1328 80.7422 52.9648 81.3359 52.9648 82.0938C52.9648 82.7852 53.125 83.332 53.4453 83.7344C53.7695 84.1328 54.2031 84.332 54.7461 84.332C55.2812 84.332 55.7148 84.1387 56.0469 83.752C56.3828 83.3652 56.5508 82.877 56.5508 82.2871ZM59.9492 77.4766C59.7773 77.4766 59.6309 77.418 59.5098 77.3008C59.3887 77.1836 59.3281 77.0352 59.3281 76.8555C59.3281 76.6758 59.3887 76.5273 59.5098 76.4102C59.6309 76.2891 59.7773 76.2285 59.9492 76.2285C60.125 76.2285 60.2734 76.2891 60.3945 76.4102C60.5195 76.5273 60.582 76.6758 60.582 76.8555C60.582 77.0273 60.5195 77.1738 60.3945 77.2949C60.2734 77.416 60.125 77.4766 59.9492 77.4766ZM60.418 85H59.457V79H60.418V85ZM68.4395 84.9414C68.2129 85.0664 67.9141 85.1289 67.543 85.1289C66.4922 85.1289 65.9668 84.543 65.9668 83.3711V79.8203H64.9355V79H65.9668V77.5352L66.9277 77.2246V79H68.4395V79.8203H66.9277V83.2012C66.9277 83.6035 66.9961 83.8906 67.1328 84.0625C67.2695 84.2344 67.4961 84.3203 67.8125 84.3203C68.0547 84.3203 68.2637 84.2539 68.4395 84.1211V84.9414ZM74.5449 82.2402H70.3086C70.3242 82.9082 70.5039 83.4238 70.8477 83.7871C71.1914 84.1504 71.6641 84.332 72.2656 84.332C72.9414 84.332 73.5625 84.1094 74.1289 83.6641V84.5664C73.6016 84.9492 72.9043 85.1406 72.0371 85.1406C71.1895 85.1406 70.5234 84.8691 70.0391 84.3262C69.5547 83.7793 69.3125 83.0117 69.3125 82.0234C69.3125 81.0898 69.5762 80.3301 70.1035 79.7441C70.6348 79.1543 71.293 78.8594 72.0781 78.8594C72.8633 78.8594 73.4707 79.1133 73.9004 79.6211C74.3301 80.1289 74.5449 80.834 74.5449 81.7363V82.2402ZM73.5605 81.4258C73.5566 80.8711 73.4219 80.4395 73.1562 80.1309C72.8945 79.8223 72.5293 79.668 72.0605 79.668C71.6074 79.668 71.2227 79.8301 70.9062 80.1543C70.5898 80.4785 70.3945 80.9023 70.3203 81.4258H73.5605ZM79.1328 79.9727C78.9648 79.8438 78.7227 79.7793 78.4062 79.7793C77.9961 79.7793 77.6523 79.9727 77.375 80.3594C77.1016 80.7461 76.9648 81.2734 76.9648 81.9414V85H76.0039V79H76.9648V80.2363H76.9883C77.125 79.8145 77.334 79.4863 77.6152 79.252C77.8965 79.0137 78.2109 78.8945 78.5586 78.8945C78.8086 78.8945 79 78.9219 79.1328 78.9766V79.9727ZM84.3594 79.2754L80.8086 84.1797H84.3242V85H79.3965V84.7012L82.9473 79.8203H79.7305V79H84.3594V79.2754ZM86.0938 77.4766C85.9219 77.4766 85.7754 77.418 85.6543 77.3008C85.5332 77.1836 85.4727 77.0352 85.4727 76.8555C85.4727 76.6758 85.5332 76.5273 85.6543 76.4102C85.7754 76.2891 85.9219 76.2285 86.0938 76.2285C86.2695 76.2285 86.418 76.2891 86.5391 76.4102C86.6641 76.5273 86.7266 76.6758 86.7266 76.8555C86.7266 77.0273 86.6641 77.1738 86.5391 77.2949C86.418 77.416 86.2695 77.4766 86.0938 77.4766ZM86.5625 85H85.6016V79H86.5625V85Z" fill="#020057"/>
</svg>
