<svg width="100%" viewBox="0 0 100 112" fill="none" xmlns="http://www.w3.org/2000/svg">
<rect width="100" height="112" fill="#FBFBFE"/>
<path d="M41.4247 10.5758C41.1903 10.3414 40.8104 10.3414 40.5761 10.5758C40.3418 10.8101 40.3418 11.19 40.5761 11.4243L42.0974 12.9456C41.7833 13.4199 41.6004 13.9886 41.6004 14.6V25.4C41.6004 27.0569 42.9435 28.4 44.6004 28.4H55.4004C56.0118 28.4 56.5806 28.2171 57.0548 27.903L58.5761 29.4243C58.8104 29.6586 59.1903 29.6586 59.4247 29.4243C59.659 29.19 59.659 28.8101 59.4247 28.5758L41.4247 10.5758ZM56.1764 27.0246C55.9415 27.1371 55.6783 27.2 55.4004 27.2H44.6004C43.6063 27.2 42.8004 26.3941 42.8004 25.4V16.4H45.5519L56.1764 27.0246ZM57.2004 16.4V24.6544L58.3706 25.8246C58.3902 25.6859 58.4004 25.5442 58.4004 25.4V14.6C58.4004 12.9432 57.0572 11.6 55.4004 11.6H44.6004C44.4563 11.6 44.3145 11.6102 44.1758 11.6298L48.946 16.4H57.2004Z" fill="#020057"/>
<path d="M20.4746 52.6484C19.8535 52.9766 19.0801 53.1406 18.1543 53.1406C16.959 53.1406 16.002 52.7559 15.2832 51.9863C14.5645 51.2168 14.2051 50.207 14.2051 48.957C14.2051 47.6133 14.6094 46.5273 15.418 45.6992C16.2266 44.8711 17.252 44.457 18.4941 44.457C19.291 44.457 19.9512 44.5723 20.4746 44.8027V45.8516C19.873 45.5156 19.209 45.3477 18.4824 45.3477C17.5176 45.3477 16.7344 45.6699 16.1328 46.3145C15.5352 46.959 15.2363 47.8203 15.2363 48.8984C15.2363 49.9219 15.5156 50.7383 16.0742 51.3477C16.6367 51.9531 17.373 52.2559 18.2832 52.2559C19.127 52.2559 19.8574 52.0684 20.4746 51.6934V52.6484ZM23.0176 53H22.0566V44.1172H23.0176V53ZM29.2578 53H28.2969V52.0625H28.2734C27.8555 52.7812 27.2402 53.1406 26.4277 53.1406C25.8301 53.1406 25.3613 52.9824 25.0215 52.666C24.6855 52.3496 24.5176 51.9297 24.5176 51.4062C24.5176 50.2852 25.1777 49.6328 26.498 49.4492L28.2969 49.1973C28.2969 48.1777 27.8848 47.668 27.0605 47.668C26.3379 47.668 25.6855 47.9141 25.1035 48.4062V47.4219C25.6934 47.0469 26.373 46.8594 27.1426 46.8594C28.5527 46.8594 29.2578 47.6055 29.2578 49.0977V53ZM28.2969 49.9648L26.8496 50.1641C26.4043 50.2266 26.0684 50.3379 25.8418 50.498C25.6152 50.6543 25.502 50.9336 25.502 51.3359C25.502 51.6289 25.6055 51.8691 25.8125 52.0566C26.0234 52.2402 26.3027 52.332 26.6504 52.332C27.127 52.332 27.5195 52.166 27.8281 51.834C28.1406 51.498 28.2969 51.0742 28.2969 50.5625V49.9648ZM34.1973 47.9727C34.0293 47.8438 33.7871 47.7793 33.4707 47.7793C33.0605 47.7793 32.7168 47.9727 32.4395 48.3594C32.166 48.7461 32.0293 49.2734 32.0293 49.9414V53H31.0684V47H32.0293V48.2363H32.0527C32.1895 47.8145 32.3984 47.4863 32.6797 47.252C32.9609 47.0137 33.2754 46.8945 33.623 46.8945C33.873 46.8945 34.0645 46.9219 34.1973 46.9766V47.9727ZM35.7324 45.4766C35.5605 45.4766 35.4141 45.418 35.293 45.3008C35.1719 45.1836 35.1113 45.0352 35.1113 44.8555C35.1113 44.6758 35.1719 44.5273 35.293 44.4102C35.4141 44.2891 35.5605 44.2285 35.7324 44.2285C35.9082 44.2285 36.0566 44.2891 36.1777 44.4102C36.3027 44.5273 36.3652 44.6758 36.3652 44.8555C36.3652 45.0273 36.3027 45.1738 36.1777 45.2949C36.0566 45.416 35.9082 45.4766 35.7324 45.4766ZM36.2012 53H35.2402V47H36.2012V53ZM40.9297 52.9414C40.7031 53.0664 40.4043 53.1289 40.0332 53.1289C38.9824 53.1289 38.457 52.543 38.457 51.3711V47.8203H37.4258V47H38.457V45.5352L39.418 45.2246V47H40.9297V47.8203H39.418V51.2012C39.418 51.6035 39.4863 51.8906 39.623 52.0625C39.7598 52.2344 39.9863 52.3203 40.3027 52.3203C40.5449 52.3203 40.7539 52.2539 40.9297 52.1211V52.9414ZM46.9883 47L44.2285 53.9609C43.7363 55.2031 43.0449 55.8242 42.1543 55.8242C41.9043 55.8242 41.6953 55.7988 41.5273 55.748V54.8867C41.7344 54.957 41.9238 54.9922 42.0957 54.9922C42.5801 54.9922 42.9434 54.7031 43.1855 54.125L43.666 52.9883L41.3223 47H42.3887L44.0117 51.6172C44.0312 51.6758 44.0723 51.8281 44.1348 52.0742H44.1699C44.1895 51.9805 44.2285 51.832 44.2871 51.6289L45.9922 47H46.9883ZM55.1337 45.908C55.4777 45.94 55.8137 45.964 56.1417 45.98C56.4697 45.996 56.8137 46.004 57.1737 46.004C57.8937 46.004 58.6097 45.976 59.3217 45.92C60.0337 45.864 60.6937 45.776 61.3017 45.656V46.58C60.6617 46.684 59.9857 46.76 59.2737 46.808C58.5697 46.856 57.8617 46.884 57.1497 46.892C56.8057 46.892 56.4697 46.884 56.1417 46.868C55.8217 46.852 55.4857 46.832 55.1337 46.808V45.908ZM59.3337 43.76C59.3177 43.88 59.3017 44 59.2857 44.12C59.2777 44.24 59.2697 44.36 59.2617 44.48C59.2537 44.624 59.2457 44.808 59.2377 45.032C59.2297 45.256 59.2257 45.496 59.2257 45.752C59.2257 46 59.2257 46.244 59.2257 46.484C59.2257 46.94 59.2337 47.396 59.2497 47.852C59.2657 48.308 59.2857 48.752 59.3097 49.184C59.3337 49.616 59.3537 50.024 59.3697 50.408C59.3937 50.784 59.4057 51.128 59.4057 51.44C59.4057 51.68 59.3697 51.916 59.2977 52.148C59.2337 52.38 59.1217 52.588 58.9617 52.772C58.8097 52.956 58.5977 53.1 58.3257 53.204C58.0617 53.316 57.7297 53.372 57.3297 53.372C56.5217 53.372 55.9017 53.22 55.4697 52.916C55.0457 52.612 54.8337 52.192 54.8337 51.656C54.8337 51.32 54.9297 51.016 55.1217 50.744C55.3217 50.464 55.6017 50.244 55.9617 50.084C56.3297 49.924 56.7777 49.844 57.3057 49.844C57.8177 49.844 58.2857 49.904 58.7097 50.024C59.1417 50.136 59.5377 50.288 59.8977 50.48C60.2657 50.664 60.6017 50.872 60.9057 51.104C61.2097 51.328 61.4897 51.552 61.7457 51.776L61.2177 52.58C60.8017 52.18 60.3817 51.832 59.9577 51.536C59.5417 51.24 59.1097 51.008 58.6617 50.84C58.2137 50.672 57.7377 50.588 57.2337 50.588C56.7777 50.588 56.4057 50.68 56.1177 50.864C55.8377 51.04 55.6977 51.272 55.6977 51.56C55.6977 51.864 55.8337 52.1 56.1057 52.268C56.3777 52.428 56.7297 52.508 57.1617 52.508C57.5057 52.508 57.7697 52.452 57.9537 52.34C58.1457 52.228 58.2777 52.076 58.3497 51.884C58.4297 51.692 58.4697 51.464 58.4697 51.2C58.4697 50.984 58.4617 50.692 58.4457 50.324C58.4297 49.956 58.4097 49.556 58.3857 49.124C58.3617 48.684 58.3417 48.236 58.3257 47.78C58.3097 47.324 58.3017 46.896 58.3017 46.496C58.3017 46.088 58.3017 45.704 58.3017 45.344C58.3017 44.984 58.3017 44.7 58.3017 44.492C58.3017 44.388 58.2977 44.268 58.2897 44.132C58.2817 43.988 58.2697 43.864 58.2537 43.76H59.3337ZM53.4057 43.832C53.3817 43.896 53.3537 43.98 53.3217 44.084C53.2977 44.18 53.2737 44.28 53.2497 44.384C53.2337 44.488 53.2177 44.576 53.2017 44.648C53.1537 44.872 53.1017 45.14 53.0457 45.452C52.9977 45.756 52.9457 46.088 52.8897 46.448C52.8337 46.8 52.7817 47.16 52.7337 47.528C52.6937 47.888 52.6617 48.236 52.6377 48.572C52.6137 48.908 52.6017 49.212 52.6017 49.484C52.6017 49.772 52.6097 50.048 52.6257 50.312C52.6497 50.576 52.6817 50.856 52.7217 51.152C52.7857 50.968 52.8577 50.772 52.9377 50.564C53.0177 50.356 53.0977 50.148 53.1777 49.94C53.2657 49.732 53.3417 49.548 53.4057 49.388L53.8977 49.772C53.8017 50.044 53.6937 50.352 53.5737 50.696C53.4617 51.032 53.3537 51.356 53.2497 51.668C53.1537 51.972 53.0857 52.224 53.0457 52.424C53.0297 52.504 53.0137 52.596 52.9977 52.7C52.9897 52.804 52.9897 52.892 52.9977 52.964C52.9977 53.02 52.9977 53.088 52.9977 53.168C53.0057 53.248 53.0137 53.32 53.0217 53.384L52.1817 53.444C52.0617 53.012 51.9537 52.476 51.8577 51.836C51.7697 51.188 51.7257 50.46 51.7257 49.652C51.7257 49.204 51.7457 48.74 51.7857 48.26C51.8337 47.772 51.8857 47.296 51.9417 46.832C52.0057 46.368 52.0657 45.944 52.1217 45.56C52.1857 45.168 52.2377 44.848 52.2777 44.6C52.2937 44.464 52.3097 44.32 52.3257 44.168C52.3417 44.016 52.3497 43.876 52.3497 43.748L53.4057 43.832ZM70.9857 47.492C70.9857 48.292 70.9337 49 70.8297 49.616C70.7337 50.232 70.5577 50.78 70.3017 51.26C70.0457 51.74 69.6937 52.168 69.2457 52.544C68.8057 52.912 68.2417 53.248 67.5537 53.552L66.7497 52.796C67.3017 52.58 67.7817 52.344 68.1897 52.088C68.5977 51.832 68.9377 51.512 69.2097 51.128C69.4817 50.744 69.6857 50.264 69.8217 49.688C69.9577 49.112 70.0257 48.404 70.0257 47.564V44.648C70.0257 44.408 70.0177 44.2 70.0017 44.024C69.9857 43.84 69.9737 43.72 69.9657 43.664H71.0457C71.0377 43.72 71.0257 43.84 71.0097 44.024C70.9937 44.2 70.9857 44.408 70.9857 44.648V47.492ZM66.6657 43.736C66.6577 43.792 66.6457 43.9 66.6297 44.06C66.6137 44.22 66.6057 44.404 66.6057 44.612V49.004C66.6057 49.148 66.6097 49.3 66.6177 49.46C66.6257 49.612 66.6337 49.748 66.6417 49.868C66.6497 49.98 66.6537 50.056 66.6537 50.096H65.5977C65.5977 50.056 65.6017 49.98 65.6097 49.868C65.6177 49.756 65.6257 49.624 65.6337 49.472C65.6417 49.312 65.6457 49.156 65.6457 49.004V44.612C65.6457 44.476 65.6417 44.332 65.6337 44.18C65.6257 44.02 65.6137 43.872 65.5977 43.736H66.6657ZM63.1497 46.064C63.1897 46.072 63.2697 46.084 63.3897 46.1C63.5177 46.108 63.6697 46.12 63.8457 46.136C64.0217 46.144 64.1897 46.148 64.3497 46.148H72.3057C72.5697 46.148 72.7977 46.14 72.9897 46.124C73.1817 46.108 73.3217 46.096 73.4097 46.088V47.108C73.3377 47.1 73.2017 47.092 73.0017 47.084C72.8017 47.076 72.5697 47.072 72.3057 47.072H64.3497C64.1817 47.072 64.0137 47.076 63.8457 47.084C63.6777 47.084 63.5297 47.088 63.4017 47.096C63.2817 47.104 63.1977 47.108 63.1497 47.108V46.064ZM75.5697 47.804C75.6897 47.812 75.8377 47.824 76.0137 47.84C76.1897 47.848 76.3817 47.856 76.5897 47.864C76.8057 47.864 77.0217 47.864 77.2377 47.864C77.3657 47.864 77.5617 47.864 77.8257 47.864C78.0977 47.864 78.4137 47.864 78.7737 47.864C79.1337 47.864 79.5137 47.864 79.9137 47.864C80.3217 47.864 80.7257 47.864 81.1257 47.864C81.5337 47.864 81.9177 47.864 82.2777 47.864C82.6457 47.864 82.9617 47.864 83.2257 47.864C83.4897 47.864 83.6857 47.864 83.8137 47.864C84.1177 47.864 84.3777 47.856 84.5937 47.84C84.8097 47.824 84.9817 47.812 85.1097 47.804V48.98C84.9897 48.972 84.8097 48.96 84.5697 48.944C84.3377 48.928 84.0897 48.92 83.8257 48.92C83.6977 48.92 83.4977 48.92 83.2257 48.92C82.9537 48.92 82.6377 48.92 82.2777 48.92C81.9257 48.92 81.5457 48.92 81.1377 48.92C80.7297 48.92 80.3217 48.92 79.9137 48.92C79.5137 48.92 79.1337 48.92 78.7737 48.92C78.4217 48.92 78.1097 48.92 77.8377 48.92C77.5657 48.92 77.3657 48.92 77.2377 48.92C76.9097 48.92 76.5977 48.928 76.3017 48.944C76.0057 48.952 75.7617 48.964 75.5697 48.98V47.804ZM22.2294 60.36C22.3334 60.504 22.4534 60.684 22.5894 60.9C22.7254 61.108 22.8574 61.324 22.9854 61.548C23.1214 61.772 23.2334 61.98 23.3214 62.172L22.6374 62.484C22.5414 62.276 22.4334 62.068 22.3134 61.86C22.2014 61.644 22.0814 61.436 21.9534 61.236C21.8334 61.028 21.7054 60.836 21.5694 60.66L22.2294 60.36ZM23.6814 59.76C23.7854 59.896 23.9054 60.068 24.0414 60.276C24.1854 60.484 24.3254 60.7 24.4614 60.924C24.5974 61.148 24.7134 61.352 24.8094 61.536L24.1374 61.872C24.0334 61.664 23.9214 61.456 23.8014 61.248C23.6814 61.04 23.5534 60.836 23.4174 60.636C23.2894 60.436 23.1574 60.248 23.0214 60.072L23.6814 59.76ZM18.0174 68.1C18.0174 67.988 18.0174 67.764 18.0174 67.428C18.0174 67.092 18.0174 66.692 18.0174 66.228C18.0174 65.756 18.0174 65.26 18.0174 64.74C18.0174 64.22 18.0174 63.716 18.0174 63.228C18.0174 62.74 18.0174 62.308 18.0174 61.932C18.0174 61.556 18.0174 61.284 18.0174 61.116C18.0174 60.948 18.0094 60.744 17.9934 60.504C17.9854 60.264 17.9614 60.052 17.9214 59.868H19.1094C19.0854 60.052 19.0654 60.264 19.0494 60.504C19.0334 60.736 19.0254 60.94 19.0254 61.116C19.0254 61.428 19.0254 61.804 19.0254 62.244C19.0254 62.676 19.0254 63.14 19.0254 63.636C19.0254 64.124 19.0254 64.612 19.0254 65.1C19.0254 65.58 19.0254 66.032 19.0254 66.456C19.0254 66.872 19.0254 67.228 19.0254 67.524C19.0254 67.812 19.0254 68.004 19.0254 68.1C19.0254 68.22 19.0254 68.368 19.0254 68.544C19.0334 68.72 19.0454 68.892 19.0614 69.06C19.0774 69.236 19.0894 69.388 19.0974 69.516H17.9454C17.9694 69.324 17.9854 69.096 17.9934 68.832C18.0094 68.568 18.0174 68.324 18.0174 68.1ZM18.8094 63.012C19.2014 63.132 19.6374 63.276 20.1174 63.444C20.5974 63.604 21.0814 63.776 21.5694 63.96C22.0654 64.144 22.5334 64.332 22.9734 64.524C23.4214 64.708 23.8134 64.884 24.1494 65.052L23.7294 66.072C23.3854 65.888 22.9974 65.7 22.5654 65.508C22.1414 65.316 21.7014 65.128 21.2454 64.944C20.7894 64.76 20.3494 64.596 19.9254 64.452C19.5094 64.308 19.1374 64.184 18.8094 64.08V63.012ZM35.7534 60.636C35.7534 60.852 35.8294 61.04 35.9814 61.2C36.1334 61.352 36.3214 61.428 36.5454 61.428C36.7614 61.428 36.9454 61.352 37.0974 61.2C37.2574 61.04 37.3374 60.852 37.3374 60.636C37.3374 60.412 37.2574 60.224 37.0974 60.072C36.9454 59.912 36.7614 59.832 36.5454 59.832C36.3214 59.832 36.1334 59.912 35.9814 60.072C35.8294 60.224 35.7534 60.412 35.7534 60.636ZM35.2014 60.636C35.2014 60.388 35.2614 60.164 35.3814 59.964C35.5014 59.756 35.6614 59.592 35.8614 59.472C36.0694 59.344 36.2974 59.28 36.5454 59.28C36.7854 59.28 37.0094 59.344 37.2174 59.472C37.4254 59.592 37.5894 59.756 37.7094 59.964C37.8294 60.164 37.8894 60.388 37.8894 60.636C37.8894 60.884 37.8294 61.108 37.7094 61.308C37.5894 61.508 37.4254 61.672 37.2174 61.8C37.0094 61.92 36.7854 61.98 36.5454 61.98C36.2974 61.98 36.0694 61.92 35.8614 61.8C35.6614 61.672 35.5014 61.508 35.3814 61.308C35.2614 61.108 35.2014 60.884 35.2014 60.636ZM28.9734 65.388C29.1014 65.076 29.2254 64.736 29.3454 64.368C29.4734 64 29.5894 63.62 29.6934 63.228C29.8054 62.828 29.9014 62.436 29.9814 62.052C30.0614 61.66 30.1174 61.288 30.1494 60.936L31.2174 61.164C31.2014 61.252 31.1774 61.348 31.1454 61.452C31.1134 61.548 31.0854 61.648 31.0614 61.752C31.0374 61.856 31.0174 61.952 31.0014 62.04C30.9614 62.224 30.9054 62.464 30.8334 62.76C30.7614 63.056 30.6774 63.38 30.5814 63.732C30.4854 64.084 30.3814 64.44 30.2694 64.8C30.1574 65.152 30.0374 65.48 29.9094 65.784C29.7654 66.152 29.5974 66.532 29.4054 66.924C29.2214 67.308 29.0214 67.684 28.8054 68.052C28.5894 68.42 28.3694 68.764 28.1454 69.084L27.1254 68.652C27.5014 68.148 27.8494 67.604 28.1694 67.02C28.4974 66.428 28.7654 65.884 28.9734 65.388ZM34.8774 64.932C34.7574 64.62 34.6254 64.292 34.4814 63.948C34.3374 63.604 34.1854 63.26 34.0254 62.916C33.8654 62.564 33.7094 62.236 33.5574 61.932C33.4134 61.62 33.2734 61.356 33.1374 61.14L34.1094 60.816C34.2294 61.024 34.3614 61.28 34.5054 61.584C34.6574 61.888 34.8134 62.212 34.9734 62.556C35.1334 62.9 35.2894 63.248 35.4414 63.6C35.5934 63.952 35.7334 64.288 35.8614 64.608C35.9814 64.904 36.1094 65.236 36.2454 65.604C36.3814 65.964 36.5134 66.332 36.6414 66.708C36.7774 67.076 36.9014 67.436 37.0134 67.788C37.1254 68.132 37.2214 68.44 37.3014 68.712L36.2334 69.06C36.1374 68.652 36.0134 68.212 35.8614 67.74C35.7174 67.26 35.5614 66.78 35.3934 66.3C35.2254 65.812 35.0534 65.356 34.8774 64.932ZM39.5814 63.804C39.7014 63.812 39.8494 63.824 40.0254 63.84C40.2014 63.848 40.3934 63.856 40.6014 63.864C40.8174 63.864 41.0334 63.864 41.2494 63.864C41.3774 63.864 41.5734 63.864 41.8374 63.864C42.1094 63.864 42.4254 63.864 42.7854 63.864C43.1454 63.864 43.5254 63.864 43.9254 63.864C44.3334 63.864 44.7374 63.864 45.1374 63.864C45.5454 63.864 45.9294 63.864 46.2894 63.864C46.6574 63.864 46.9734 63.864 47.2374 63.864C47.5014 63.864 47.6974 63.864 47.8254 63.864C48.1294 63.864 48.3894 63.856 48.6054 63.84C48.8214 63.824 48.9934 63.812 49.1214 63.804V64.98C49.0014 64.972 48.8214 64.96 48.5814 64.944C48.3494 64.928 48.1014 64.92 47.8374 64.92C47.7094 64.92 47.5094 64.92 47.2374 64.92C46.9654 64.92 46.6494 64.92 46.2894 64.92C45.9374 64.92 45.5574 64.92 45.1494 64.92C44.7414 64.92 44.3334 64.92 43.9254 64.92C43.5254 64.92 43.1454 64.92 42.7854 64.92C42.4334 64.92 42.1214 64.92 41.8494 64.92C41.5774 64.92 41.3774 64.92 41.2494 64.92C40.9214 64.92 40.6094 64.928 40.3134 64.944C40.0174 64.952 39.7734 64.964 39.5814 64.98V63.804ZM52.9374 60.12C53.1054 60.136 53.2774 60.152 53.4534 60.168C53.6374 60.184 53.8254 60.192 54.0174 60.192C54.1614 60.192 54.3934 60.192 54.7134 60.192C55.0414 60.192 55.4134 60.192 55.8294 60.192C56.2454 60.192 56.6614 60.192 57.0774 60.192C57.4934 60.192 57.8614 60.192 58.1814 60.192C58.5094 60.192 58.7414 60.192 58.8774 60.192C59.0454 60.192 59.2294 60.188 59.4294 60.18C59.6374 60.164 59.8254 60.144 59.9934 60.12V61.116C59.8174 61.1 59.6294 61.092 59.4294 61.092C59.2374 61.084 59.0534 61.08 58.8774 61.08C58.7414 61.08 58.5134 61.08 58.1934 61.08C57.8734 61.08 57.5054 61.08 57.0894 61.08C56.6734 61.08 56.2574 61.08 55.8414 61.08C55.4254 61.08 55.0534 61.08 54.7254 61.08C54.3974 61.08 54.1654 61.08 54.0294 61.08C53.8374 61.08 53.6454 61.084 53.4534 61.092C53.2614 61.092 53.0894 61.1 52.9374 61.116V60.12ZM51.4974 63.132C51.6654 63.148 51.8334 63.164 52.0014 63.18C52.1774 63.188 52.3574 63.192 52.5414 63.192C52.6454 63.192 52.8494 63.192 53.1534 63.192C53.4654 63.192 53.8414 63.192 54.2814 63.192C54.7294 63.192 55.2094 63.192 55.7214 63.192C56.2334 63.192 56.7454 63.192 57.2574 63.192C57.7694 63.192 58.2454 63.192 58.6854 63.192C59.1254 63.192 59.4974 63.192 59.8014 63.192C60.1134 63.192 60.3134 63.192 60.4014 63.192C60.5294 63.192 60.6814 63.188 60.8574 63.18C61.0334 63.172 61.1934 63.156 61.3374 63.132V64.128C61.2094 64.12 61.0574 64.116 60.8814 64.116C60.7134 64.108 60.5534 64.104 60.4014 64.104C60.3134 64.104 60.1134 64.104 59.8014 64.104C59.4974 64.104 59.1254 64.104 58.6854 64.104C58.2454 64.104 57.7694 64.104 57.2574 64.104C56.7454 64.104 56.2334 64.104 55.7214 64.104C55.2094 64.104 54.7294 64.104 54.2814 64.104C53.8414 64.104 53.4654 64.104 53.1534 64.104C52.8494 64.104 52.6454 64.104 52.5414 64.104C52.3654 64.104 52.1894 64.104 52.0134 64.104C51.8374 64.104 51.6654 64.112 51.4974 64.128V63.132ZM57.1494 63.624C57.1494 64.376 57.0934 65.068 56.9814 65.7C56.8774 66.324 56.6934 66.884 56.4294 67.38C56.2854 67.652 56.0894 67.924 55.8414 68.196C55.6014 68.46 55.3294 68.712 55.0254 68.952C54.7294 69.192 54.4094 69.4 54.0654 69.576L53.1774 68.916C53.6414 68.724 54.0774 68.464 54.4854 68.136C54.8934 67.808 55.2134 67.456 55.4454 67.08C55.7494 66.6 55.9414 66.072 56.0214 65.496C56.1014 64.912 56.1414 64.288 56.1414 63.624H57.1494ZM63.1066 65.904C63.6346 65.776 64.1666 65.608 64.7026 65.4C65.2466 65.192 65.7546 64.972 66.2266 64.74C66.7066 64.508 67.1066 64.292 67.4266 64.092C67.8106 63.86 68.1786 63.604 68.5306 63.324C68.8906 63.036 69.2226 62.748 69.5266 62.46C69.8306 62.172 70.0826 61.9 70.2826 61.644L71.0266 62.364C70.8026 62.612 70.5186 62.888 70.1746 63.192C69.8386 63.488 69.4706 63.784 69.0706 64.08C68.6706 64.376 68.2586 64.652 67.8346 64.908C67.5866 65.06 67.2986 65.22 66.9706 65.388C66.6426 65.556 66.2946 65.724 65.9266 65.892C65.5586 66.06 65.1706 66.224 64.7626 66.384C64.3626 66.536 63.9626 66.672 63.5626 66.792L63.1066 65.904ZM67.3186 64.632L68.3146 64.392V68.88C68.3146 69 68.3146 69.128 68.3146 69.264C68.3226 69.408 68.3306 69.54 68.3386 69.66C68.3466 69.78 68.3586 69.872 68.3746 69.936H67.2706C67.2786 69.872 67.2866 69.78 67.2946 69.66C67.3026 69.54 67.3066 69.408 67.3066 69.264C67.3146 69.128 67.3186 69 67.3186 68.88V64.632ZM79.1866 64.752H80.0986V65.904H79.1866V64.752ZM79.1746 65.748L79.8946 66.072C79.5826 66.344 79.2226 66.604 78.8146 66.852C78.4066 67.092 77.9666 67.316 77.4946 67.524C77.0226 67.724 76.5426 67.904 76.0546 68.064C75.5666 68.216 75.0866 68.344 74.6146 68.448C74.5586 68.344 74.4786 68.224 74.3746 68.088C74.2786 67.952 74.1866 67.844 74.0986 67.764C74.5626 67.684 75.0346 67.576 75.5146 67.44C76.0026 67.304 76.4706 67.152 76.9186 66.984C77.3746 66.808 77.7986 66.616 78.1906 66.408C78.5826 66.192 78.9106 65.972 79.1746 65.748ZM80.1946 65.712C80.5706 66.656 81.1826 67.432 82.0306 68.04C82.8786 68.64 83.9306 69.048 85.1866 69.264C85.0906 69.344 84.9946 69.456 84.8986 69.6C84.8026 69.752 84.7266 69.88 84.6706 69.984C83.7906 69.808 83.0106 69.536 82.3306 69.168C81.6586 68.808 81.0826 68.356 80.6026 67.812C80.1226 67.26 79.7346 66.62 79.4386 65.892L80.1946 65.712ZM83.7346 66.312L84.3946 66.792C84.0186 67.056 83.5946 67.312 83.1226 67.56C82.6586 67.808 82.2266 68.016 81.8266 68.184L81.2626 67.74C81.5266 67.612 81.8106 67.468 82.1146 67.308C82.4186 67.14 82.7146 66.972 83.0026 66.804C83.2906 66.628 83.5346 66.464 83.7346 66.312ZM75.7666 69.108C76.1666 69.052 76.6306 68.988 77.1586 68.916C77.6866 68.836 78.2466 68.748 78.8386 68.652C79.4386 68.556 80.0386 68.464 80.6386 68.376L80.6746 69.096C79.8266 69.232 78.9826 69.368 78.1426 69.504C77.3026 69.648 76.5626 69.768 75.9226 69.864L75.7666 69.108ZM74.3026 65.472H84.9946V66.216H74.3026V65.472ZM80.9506 59.388H81.7786V63.432H80.9506V59.388ZM83.6986 59.04H84.5266V64.044C84.5266 64.276 84.4946 64.452 84.4306 64.572C84.3746 64.692 84.2586 64.784 84.0826 64.848C83.9146 64.912 83.6866 64.952 83.3986 64.968C83.1186 64.976 82.7666 64.98 82.3426 64.98C82.3266 64.868 82.2906 64.744 82.2346 64.608C82.1786 64.464 82.1186 64.336 82.0546 64.224C82.3826 64.232 82.6786 64.24 82.9426 64.248C83.2066 64.248 83.3826 64.244 83.4706 64.236C83.5586 64.236 83.6186 64.224 83.6506 64.2C83.6826 64.168 83.6986 64.116 83.6986 64.044V59.04ZM76.9546 58.92H77.7586V65.016H76.9546V58.92ZM79.2106 62.436H79.9666V63.912C79.9666 64.08 79.9466 64.212 79.9066 64.308C79.8666 64.396 79.7826 64.464 79.6546 64.512C79.5346 64.568 79.3826 64.6 79.1986 64.608C79.0146 64.616 78.7866 64.62 78.5146 64.62C78.4986 64.532 78.4666 64.436 78.4186 64.332C78.3706 64.228 78.3226 64.132 78.2746 64.044C78.4746 64.052 78.6426 64.056 78.7786 64.056C78.9226 64.056 79.0226 64.052 79.0786 64.044C79.1666 64.044 79.2106 64 79.2106 63.912V62.436ZM74.8546 62.436H79.5586V63.048H75.5746V64.692H74.8546V62.436ZM74.2546 61.152H80.3146V61.8H74.2546V61.152ZM75.5026 59.772H79.8946V60.408H75.2506L75.5026 59.772ZM75.3946 58.956L76.1026 59.124C75.9746 59.492 75.8186 59.856 75.6346 60.216C75.4586 60.576 75.2746 60.884 75.0826 61.14C75.0106 61.084 74.9066 61.024 74.7706 60.96C74.6346 60.888 74.5186 60.828 74.4226 60.78C74.6386 60.54 74.8266 60.26 74.9866 59.94C75.1546 59.612 75.2906 59.284 75.3946 58.956ZM77.0026 67.452L77.4706 66.984L77.8786 67.116V69.42H77.0026V67.452ZM17.645 76.804C17.565 77.428 17.461 78.08 17.333 78.76C17.213 79.44 17.057 80.1 16.865 80.74C16.625 81.564 16.357 82.252 16.061 82.804C15.773 83.356 15.461 83.772 15.125 84.052C14.789 84.332 14.437 84.472 14.069 84.472C13.717 84.472 13.377 84.344 13.049 84.088C12.721 83.832 12.453 83.464 12.245 82.984C12.037 82.496 11.933 81.924 11.933 81.268C11.933 80.612 12.065 79.992 12.329 79.408C12.601 78.824 12.973 78.308 13.445 77.86C13.925 77.404 14.485 77.044 15.125 76.78C15.765 76.516 16.449 76.384 17.177 76.384C17.881 76.384 18.513 76.5 19.073 76.732C19.641 76.964 20.125 77.284 20.525 77.692C20.925 78.092 21.233 78.56 21.449 79.096C21.665 79.624 21.773 80.192 21.773 80.8C21.773 81.64 21.593 82.38 21.233 83.02C20.881 83.66 20.369 84.18 19.697 84.58C19.033 84.98 18.225 85.244 17.273 85.372L16.709 84.484C16.901 84.46 17.085 84.436 17.261 84.412C17.437 84.388 17.597 84.36 17.741 84.328C18.125 84.24 18.497 84.104 18.857 83.92C19.225 83.728 19.553 83.488 19.841 83.2C20.129 82.904 20.357 82.556 20.525 82.156C20.701 81.748 20.789 81.284 20.789 80.764C20.789 80.276 20.709 79.824 20.549 79.408C20.389 78.984 20.153 78.612 19.841 78.292C19.529 77.972 19.149 77.72 18.701 77.536C18.253 77.352 17.741 77.26 17.165 77.26C16.509 77.26 15.913 77.38 15.377 77.62C14.849 77.86 14.397 78.176 14.021 78.568C13.653 78.952 13.369 79.376 13.169 79.84C12.969 80.296 12.869 80.744 12.869 81.184C12.869 81.688 12.933 82.104 13.061 82.432C13.197 82.752 13.357 82.988 13.541 83.14C13.733 83.292 13.921 83.368 14.105 83.368C14.297 83.368 14.493 83.276 14.693 83.092C14.893 82.9 15.097 82.596 15.305 82.18C15.513 81.756 15.717 81.208 15.917 80.536C16.093 79.96 16.241 79.348 16.361 78.7C16.489 78.052 16.581 77.416 16.637 76.792L17.645 76.804ZM27.6348 77.4766C27.4629 77.4766 27.3164 77.418 27.1953 77.3008C27.0742 77.1836 27.0137 77.0352 27.0137 76.8555C27.0137 76.6758 27.0742 76.5273 27.1953 76.4102C27.3164 76.2891 27.4629 76.2285 27.6348 76.2285C27.8105 76.2285 27.959 76.2891 28.0801 76.4102C28.2051 76.5273 28.2676 76.6758 28.2676 76.8555C28.2676 77.0273 28.2051 77.1738 28.0801 77.2949C27.959 77.416 27.8105 77.4766 27.6348 77.4766ZM28.1035 85H27.1426V79H28.1035V85ZM34.4434 77.4883H31.1621V80.3945H34.1973V81.2793H31.1621V85H30.1777V76.5977H34.4434V77.4883ZM39.0371 79.9727C38.8691 79.8438 38.627 79.7793 38.3105 79.7793C37.9004 79.7793 37.5566 79.9727 37.2793 80.3594C37.0059 80.7461 36.8691 81.2734 36.8691 81.9414V85H35.9082V79H36.8691V80.2363H36.8926C37.0293 79.8145 37.2383 79.4863 37.5195 79.252C37.8008 79.0137 38.1152 78.8945 38.4629 78.8945C38.7129 78.8945 38.9043 78.9219 39.0371 78.9766V79.9727ZM44.375 85H43.4141V84.0625H43.3906C42.9727 84.7812 42.3574 85.1406 41.5449 85.1406C40.9473 85.1406 40.4785 84.9824 40.1387 84.666C39.8027 84.3496 39.6348 83.9297 39.6348 83.4062C39.6348 82.2852 40.2949 81.6328 41.6152 81.4492L43.4141 81.1973C43.4141 80.1777 43.002 79.668 42.1777 79.668C41.4551 79.668 40.8027 79.9141 40.2207 80.4062V79.4219C40.8105 79.0469 41.4902 78.8594 42.2598 78.8594C43.6699 78.8594 44.375 79.6055 44.375 81.0977V85ZM43.4141 81.9648L41.9668 82.1641C41.5215 82.2266 41.1855 82.3379 40.959 82.498C40.7324 82.6543 40.6191 82.9336 40.6191 83.3359C40.6191 83.6289 40.7227 83.8691 40.9297 84.0566C41.1406 84.2402 41.4199 84.332 41.7676 84.332C42.2441 84.332 42.6367 84.166 42.9453 83.834C43.2578 83.498 43.4141 83.0742 43.4141 82.5625V81.9648ZM54.7051 85H53.7441V81.5547C53.7441 80.8906 53.6406 80.4102 53.4336 80.1133C53.2305 79.8164 52.8867 79.668 52.4023 79.668C51.9922 79.668 51.6426 79.8555 51.3535 80.2305C51.0684 80.6055 50.9258 81.0547 50.9258 81.5781V85H49.9648V81.4375C49.9648 80.2578 49.5098 79.668 48.5996 79.668C48.1777 79.668 47.8301 79.8457 47.5566 80.2012C47.2832 80.5527 47.1465 81.0117 47.1465 81.5781V85H46.1855V79H47.1465V79.9492H47.1699C47.5957 79.2227 48.2168 78.8594 49.0332 78.8594C49.4434 78.8594 49.8008 78.9746 50.1055 79.2051C50.4102 79.4316 50.6191 79.7305 50.7324 80.1016C51.1777 79.2734 51.8418 78.8594 52.7246 78.8594C54.0449 78.8594 54.7051 79.6738 54.7051 81.3027V85ZM61.3438 82.2402H57.1074C57.123 82.9082 57.3027 83.4238 57.6465 83.7871C57.9902 84.1504 58.4629 84.332 59.0645 84.332C59.7402 84.332 60.3613 84.1094 60.9277 83.6641V84.5664C60.4004 84.9492 59.7031 85.1406 58.8359 85.1406C57.9883 85.1406 57.3223 84.8691 56.8379 84.3262C56.3535 83.7793 56.1113 83.0117 56.1113 82.0234C56.1113 81.0898 56.375 80.3301 56.9023 79.7441C57.4336 79.1543 58.0918 78.8594 58.877 78.8594C59.6621 78.8594 60.2695 79.1133 60.6992 79.6211C61.1289 80.1289 61.3438 80.834 61.3438 81.7363V82.2402ZM60.3594 81.4258C60.3555 80.8711 60.2207 80.4395 59.9551 80.1309C59.6934 79.8223 59.3281 79.668 58.8594 79.668C58.4062 79.668 58.0215 79.8301 57.7051 80.1543C57.3887 80.4785 57.1934 80.9023 57.1191 81.4258H60.3594ZM70.643 75.508C70.595 75.748 70.531 76.032 70.451 76.36C70.379 76.68 70.259 77.044 70.091 77.452C69.947 77.812 69.767 78.184 69.551 78.568C69.343 78.952 69.119 79.3 68.879 79.612C69.031 79.516 69.203 79.436 69.395 79.372C69.587 79.3 69.783 79.248 69.983 79.216C70.191 79.184 70.379 79.168 70.547 79.168C71.011 79.168 71.403 79.3 71.723 79.564C72.043 79.82 72.203 80.196 72.203 80.692C72.203 80.844 72.203 81.04 72.203 81.28C72.203 81.512 72.203 81.76 72.203 82.024C72.211 82.28 72.219 82.532 72.227 82.78C72.235 83.028 72.239 83.244 72.239 83.428H71.315C71.323 83.268 71.331 83.08 71.339 82.864C71.347 82.648 71.351 82.42 71.351 82.18C71.359 81.94 71.359 81.712 71.351 81.496C71.351 81.28 71.351 81.096 71.351 80.944C71.351 80.592 71.243 80.336 71.027 80.176C70.819 80.008 70.555 79.924 70.235 79.924C69.859 79.924 69.487 80.008 69.119 80.176C68.759 80.336 68.443 80.544 68.171 80.8C67.995 80.968 67.819 81.16 67.643 81.376C67.475 81.584 67.287 81.808 67.079 82.048L66.263 81.448C66.839 80.888 67.319 80.364 67.703 79.876C68.087 79.388 68.399 78.936 68.639 78.52C68.879 78.096 69.067 77.716 69.203 77.38C69.331 77.044 69.435 76.708 69.515 76.372C69.595 76.028 69.643 75.712 69.659 75.424L70.643 75.508ZM66.539 76.804C66.859 76.844 67.207 76.876 67.583 76.9C67.959 76.924 68.287 76.936 68.567 76.936C69.103 76.936 69.679 76.924 70.295 76.9C70.911 76.868 71.531 76.824 72.155 76.768C72.787 76.712 73.387 76.632 73.955 76.528L73.943 77.416C73.527 77.488 73.083 77.548 72.611 77.596C72.139 77.636 71.659 77.672 71.171 77.704C70.683 77.728 70.211 77.748 69.755 77.764C69.307 77.772 68.891 77.776 68.507 77.776C68.339 77.776 68.143 77.776 67.919 77.776C67.703 77.768 67.475 77.76 67.235 77.752C66.995 77.736 66.763 77.72 66.539 77.704V76.804ZM75.707 79.708C75.603 79.732 75.487 79.768 75.359 79.816C75.239 79.856 75.115 79.9 74.987 79.948C74.867 79.996 74.751 80.044 74.639 80.092C74.223 80.252 73.739 80.448 73.187 80.68C72.635 80.912 72.071 81.18 71.495 81.484C71.095 81.684 70.743 81.896 70.439 82.12C70.135 82.336 69.895 82.564 69.719 82.804C69.543 83.036 69.455 83.292 69.455 83.572C69.455 83.804 69.507 83.992 69.611 84.136C69.723 84.28 69.879 84.392 70.079 84.472C70.279 84.544 70.507 84.592 70.763 84.616C71.027 84.64 71.315 84.652 71.627 84.652C72.091 84.652 72.619 84.628 73.211 84.58C73.811 84.524 74.375 84.452 74.903 84.364L74.879 85.324C74.575 85.364 74.231 85.4 73.847 85.432C73.471 85.464 73.087 85.488 72.695 85.504C72.311 85.528 71.943 85.54 71.591 85.54C71.023 85.54 70.503 85.488 70.031 85.384C69.567 85.28 69.195 85.096 68.915 84.832C68.635 84.568 68.495 84.192 68.495 83.704C68.495 83.344 68.579 83.016 68.747 82.72C68.915 82.416 69.139 82.14 69.419 81.892C69.707 81.644 70.023 81.416 70.367 81.208C70.711 80.992 71.063 80.796 71.423 80.62C71.807 80.412 72.167 80.232 72.503 80.08C72.847 79.928 73.171 79.788 73.475 79.66C73.779 79.532 74.063 79.404 74.327 79.276C74.503 79.196 74.671 79.12 74.831 79.048C74.991 78.976 75.151 78.896 75.311 78.808L75.707 79.708ZM81.911 79.528H88.499V81.652H87.659V80.26H82.727V81.652H81.911V79.528ZM85.751 81.064H86.603V84.676C86.603 84.82 86.619 84.912 86.651 84.952C86.683 84.992 86.763 85.012 86.891 85.012C86.931 85.012 87.003 85.012 87.107 85.012C87.219 85.012 87.331 85.012 87.443 85.012C87.555 85.012 87.635 85.012 87.683 85.012C87.771 85.012 87.835 84.976 87.875 84.904C87.923 84.832 87.955 84.684 87.971 84.46C87.995 84.228 88.011 83.884 88.019 83.428C88.083 83.476 88.159 83.524 88.247 83.572C88.335 83.612 88.427 83.652 88.523 83.692C88.619 83.724 88.707 83.752 88.787 83.776C88.763 84.312 88.715 84.728 88.643 85.024C88.579 85.328 88.479 85.536 88.343 85.648C88.207 85.76 88.019 85.816 87.779 85.816C87.739 85.816 87.671 85.816 87.575 85.816C87.479 85.816 87.375 85.816 87.263 85.816C87.159 85.816 87.059 85.816 86.963 85.816C86.875 85.816 86.811 85.816 86.771 85.816C86.499 85.816 86.287 85.78 86.135 85.708C85.991 85.644 85.891 85.528 85.835 85.36C85.779 85.2 85.751 84.972 85.751 84.676V81.064ZM83.687 81.052H84.539C84.507 81.7 84.451 82.284 84.371 82.804C84.291 83.316 84.159 83.772 83.975 84.172C83.791 84.564 83.531 84.908 83.195 85.204C82.867 85.508 82.435 85.764 81.899 85.972C81.867 85.9 81.819 85.82 81.755 85.732C81.699 85.644 81.635 85.556 81.563 85.468C81.499 85.388 81.435 85.32 81.371 85.264C81.859 85.088 82.251 84.876 82.547 84.628C82.843 84.38 83.067 84.088 83.219 83.752C83.379 83.408 83.491 83.016 83.555 82.576C83.619 82.128 83.663 81.62 83.687 81.052ZM81.959 76H88.451V76.756H81.959V76ZM82.355 77.884H88.091V78.64H82.355V77.884ZM84.695 74.908H85.583V78.28H84.695V74.908ZM78.095 78.556H81.335V79.264H78.095V78.556ZM78.167 75.34H81.299V76.06H78.167V75.34ZM78.095 80.152H81.335V80.872H78.095V80.152ZM77.579 76.912H81.671V77.668H77.579V76.912ZM78.515 81.772H81.347V85.264H78.515V84.52H80.579V82.516H78.515V81.772ZM78.083 81.772H78.851V85.828H78.083V81.772ZM16.8576 92.204C17.0096 92.212 17.1656 92.22 17.3256 92.228C17.4936 92.236 17.6376 92.24 17.7576 92.24C17.9176 92.24 18.1216 92.236 18.3696 92.228C18.6256 92.22 18.8896 92.208 19.1616 92.192C19.4336 92.176 19.6896 92.164 19.9296 92.156C20.1696 92.14 20.3496 92.128 20.4696 92.12C20.5896 92.104 20.6976 92.088 20.7936 92.072C20.8976 92.048 20.9896 92.02 21.0696 91.988L21.6696 92.48C21.6136 92.544 21.5576 92.608 21.5016 92.672C21.4536 92.736 21.4056 92.804 21.3576 92.876C21.2296 93.084 21.0776 93.38 20.9016 93.764C20.7256 94.14 20.5376 94.552 20.3376 95C20.1456 95.44 19.9536 95.864 19.7616 96.272C19.6416 96.544 19.5096 96.84 19.3656 97.16C19.2296 97.472 19.0896 97.792 18.9456 98.12C18.8016 98.44 18.6576 98.74 18.5136 99.02C18.3776 99.3 18.2456 99.532 18.1176 99.716C17.9016 100.02 17.6736 100.236 17.4336 100.364C17.1936 100.484 16.9176 100.544 16.6056 100.544C16.1576 100.544 15.7856 100.396 15.4896 100.1C15.1936 99.804 15.0456 99.404 15.0456 98.9C15.0456 98.452 15.1456 98.036 15.3456 97.652C15.5536 97.26 15.8376 96.92 16.1976 96.632C16.5656 96.344 17.0016 96.12 17.5056 95.96C18.0176 95.8 18.5776 95.72 19.1856 95.72C19.8576 95.72 20.5056 95.8 21.1296 95.96C21.7616 96.112 22.3496 96.312 22.8936 96.56C23.4456 96.8 23.9456 97.056 24.3936 97.328C24.8496 97.592 25.2376 97.84 25.5576 98.072L25.1136 99.104C24.7616 98.8 24.3656 98.5 23.9256 98.204C23.4856 97.9 23.0056 97.624 22.4856 97.376C21.9656 97.128 21.4136 96.928 20.8296 96.776C20.2536 96.624 19.6576 96.548 19.0416 96.548C18.3856 96.548 17.8216 96.66 17.3496 96.884C16.8856 97.1 16.5296 97.38 16.2816 97.724C16.0416 98.06 15.9216 98.412 15.9216 98.78C15.9216 99.044 15.9936 99.248 16.1376 99.392C16.2896 99.528 16.4576 99.596 16.6416 99.596C16.7776 99.596 16.9016 99.564 17.0136 99.5C17.1256 99.436 17.2416 99.328 17.3616 99.176C17.4896 99.008 17.6176 98.804 17.7456 98.564C17.8736 98.324 18.0016 98.064 18.1296 97.784C18.2576 97.504 18.3816 97.22 18.5016 96.932C18.6216 96.644 18.7416 96.376 18.8616 96.128C19.0216 95.776 19.1816 95.412 19.3416 95.036C19.5096 94.66 19.6736 94.296 19.8336 93.944C20.0016 93.592 20.1536 93.272 20.2896 92.984C20.1696 92.992 19.9976 93 19.7736 93.008C19.5576 93.016 19.3216 93.028 19.0656 93.044C18.8096 93.052 18.5656 93.064 18.3336 93.08C18.1096 93.088 17.9296 93.096 17.7936 93.104C17.6656 93.112 17.5216 93.124 17.3616 93.14C17.2016 93.148 17.0496 93.16 16.9056 93.176L16.8576 92.204ZM24.3576 94.832C24.3176 95.68 24.2336 96.452 24.1056 97.148C23.9776 97.844 23.7816 98.472 23.5176 99.032C23.2536 99.592 22.8936 100.096 22.4376 100.544C21.9816 100.984 21.4056 101.376 20.7096 101.72L19.9176 101.06C20.6216 100.764 21.1936 100.412 21.6336 100.004C22.0736 99.588 22.4136 99.144 22.6536 98.672C22.9016 98.192 23.0736 97.708 23.1696 97.22C23.2736 96.732 23.3456 96.268 23.3856 95.828C23.3936 95.644 23.3976 95.456 23.3976 95.264C23.4056 95.072 23.4016 94.892 23.3856 94.724L24.3576 94.832ZM32.3136 92.576H36.7536V93.452H32.3136V92.576ZM26.7576 91.664H32.6136V92.516H26.7576V91.664ZM28.1616 94.112H31.2696V94.928H28.1616V94.112ZM28.1616 96.608H31.2696V97.424H28.1616V96.608ZM36.4776 92.576H36.6456L36.8016 92.54L37.3776 92.696C37.1856 94.296 36.8616 95.684 36.4056 96.86C35.9496 98.028 35.3816 99.02 34.7016 99.836C34.0296 100.644 33.2616 101.296 32.3976 101.792C32.3256 101.68 32.2336 101.548 32.1216 101.396C32.0096 101.252 31.9056 101.136 31.8096 101.048C32.6016 100.64 33.3176 100.056 33.9576 99.296C34.5976 98.536 35.1336 97.612 35.5656 96.524C36.0056 95.436 36.3096 94.188 36.4776 92.78V92.576ZM33.4056 93.5C33.6216 94.652 33.9256 95.724 34.3176 96.716C34.7096 97.708 35.1976 98.58 35.7816 99.332C36.3736 100.076 37.0816 100.66 37.9056 101.084C37.8416 101.14 37.7696 101.212 37.6896 101.3C37.6096 101.388 37.5336 101.476 37.4616 101.564C37.3896 101.66 37.3296 101.748 37.2816 101.828C36.4096 101.34 35.6656 100.7 35.0496 99.908C34.4416 99.108 33.9336 98.184 33.5256 97.136C33.1256 96.08 32.7976 94.924 32.5416 93.668L33.4056 93.5ZM27.6816 91.988H28.5456V99.776H27.6816V91.988ZM30.8976 91.988H31.7736V101.936H30.8976V91.988ZM26.5056 99.524C26.9056 99.468 27.3616 99.408 27.8736 99.344C28.3856 99.272 28.9296 99.196 29.5056 99.116C30.0896 99.028 30.6736 98.94 31.2576 98.852L31.3056 99.68C30.4816 99.816 29.6576 99.952 28.8336 100.088C28.0176 100.216 27.2976 100.324 26.6736 100.412L26.5056 99.524ZM49.8696 100.088C49.5496 100.408 49.2056 100.656 48.8376 100.832C48.4696 101 48.0776 101.084 47.6616 101.084C47.2696 101.084 46.9496 100.956 46.7016 100.7C46.4536 100.444 46.3296 100.068 46.3296 99.572C46.3296 99.236 46.3536 98.872 46.4016 98.48C46.4496 98.088 46.5016 97.688 46.5576 97.28C46.6136 96.864 46.6656 96.472 46.7136 96.104C46.7616 95.728 46.7856 95.392 46.7856 95.096C46.7856 94.752 46.7016 94.504 46.5336 94.352C46.3656 94.192 46.1256 94.112 45.8136 94.112C45.5336 94.112 45.2216 94.196 44.8776 94.364C44.5336 94.524 44.1816 94.744 43.8216 95.024C43.4616 95.296 43.1096 95.604 42.7656 95.948C42.4216 96.284 42.1056 96.62 41.8176 96.956L41.8416 95.768C41.9936 95.608 42.1856 95.42 42.4176 95.204C42.6576 94.988 42.9216 94.764 43.2096 94.532C43.5056 94.3 43.8176 94.084 44.1456 93.884C44.4736 93.684 44.7976 93.524 45.1176 93.404C45.4456 93.284 45.7576 93.224 46.0536 93.224C46.4296 93.224 46.7416 93.292 46.9896 93.428C47.2376 93.556 47.4216 93.744 47.5416 93.992C47.6616 94.232 47.7216 94.512 47.7216 94.832C47.7216 95.128 47.6976 95.472 47.6496 95.864C47.6096 96.248 47.5576 96.648 47.4936 97.064C47.4376 97.48 47.3856 97.884 47.3376 98.276C47.2976 98.668 47.2776 99.016 47.2776 99.32C47.2776 99.52 47.3256 99.692 47.4216 99.836C47.5256 99.98 47.6856 100.052 47.9016 100.052C48.1896 100.052 48.4856 99.968 48.7896 99.8C49.1016 99.624 49.4096 99.376 49.7136 99.056L49.8696 100.088ZM41.8056 94.352C41.7096 94.36 41.5616 94.38 41.3616 94.412C41.1696 94.436 40.9496 94.464 40.7016 94.496C40.4536 94.528 40.2016 94.564 39.9456 94.604C39.6896 94.636 39.4496 94.668 39.2256 94.7L39.1296 93.716C39.2576 93.724 39.3816 93.728 39.5016 93.728C39.6296 93.72 39.7656 93.712 39.9096 93.704C40.0776 93.696 40.2816 93.68 40.5216 93.656C40.7696 93.624 41.0256 93.592 41.2896 93.56C41.5616 93.52 41.8136 93.48 42.0456 93.44C42.2856 93.392 42.4736 93.344 42.6096 93.296L42.9576 93.716C42.8856 93.812 42.8056 93.932 42.7176 94.076C42.6296 94.212 42.5416 94.352 42.4536 94.496C42.3656 94.64 42.2896 94.768 42.2256 94.88L41.8536 96.512C41.7176 96.728 41.5496 96.984 41.3496 97.28C41.1496 97.576 40.9376 97.888 40.7136 98.216C40.4976 98.536 40.2776 98.856 40.0536 99.176C39.8296 99.488 39.6256 99.776 39.4416 100.04L38.8296 99.212C38.9816 99.028 39.1576 98.804 39.3576 98.54C39.5656 98.268 39.7816 97.976 40.0056 97.664C40.2376 97.352 40.4616 97.048 40.6776 96.752C40.9016 96.448 41.0976 96.168 41.2656 95.912C41.4416 95.656 41.5736 95.448 41.6616 95.288L41.7096 94.676L41.8056 94.352ZM41.6976 92.36C41.6976 92.224 41.6936 92.08 41.6856 91.928C41.6856 91.776 41.6736 91.624 41.6496 91.472L42.7776 91.508C42.7456 91.668 42.7056 91.92 42.6576 92.264C42.6096 92.6 42.5616 93 42.5136 93.464C42.4736 93.928 42.4296 94.416 42.3816 94.928C42.3416 95.44 42.3096 95.948 42.2856 96.452C42.2616 96.948 42.2496 97.408 42.2496 97.832C42.2496 98.192 42.2496 98.528 42.2496 98.84C42.2496 99.144 42.2536 99.448 42.2616 99.752C42.2696 100.048 42.2816 100.372 42.2976 100.724C42.3056 100.828 42.3136 100.948 42.3216 101.084C42.3296 101.22 42.3416 101.344 42.3576 101.456H41.3136C41.3296 101.344 41.3376 101.22 41.3376 101.084C41.3456 100.956 41.3496 100.844 41.3496 100.748C41.3576 100.364 41.3616 100.024 41.3616 99.728C41.3616 99.432 41.3616 99.128 41.3616 98.816C41.3696 98.496 41.3776 98.116 41.3856 97.676C41.3856 97.5 41.3936 97.26 41.4096 96.956C41.4256 96.644 41.4456 96.304 41.4696 95.936C41.4936 95.56 41.5176 95.18 41.5416 94.796C41.5656 94.412 41.5896 94.052 41.6136 93.716C41.6376 93.372 41.6576 93.08 41.6736 92.84C41.6896 92.6 41.6976 92.44 41.6976 92.36ZM57.0576 91.472C57.0416 91.576 57.0256 91.692 57.0096 91.82C57.0016 91.948 56.9936 92.1 56.9856 92.276C56.9856 92.396 56.9816 92.576 56.9736 92.816C56.9736 93.056 56.9736 93.328 56.9736 93.632C56.9736 93.928 56.9736 94.228 56.9736 94.532C56.9736 94.836 56.9736 95.116 56.9736 95.372C56.9736 95.772 56.9816 96.192 56.9976 96.632C57.0136 97.072 57.0336 97.5 57.0576 97.916C57.0816 98.332 57.1016 98.712 57.1176 99.056C57.1336 99.4 57.1416 99.672 57.1416 99.872C57.1416 100.152 57.0736 100.42 56.9376 100.676C56.8096 100.932 56.5896 101.14 56.2776 101.3C55.9736 101.468 55.5576 101.552 55.0296 101.552C54.1656 101.552 53.5056 101.4 53.0496 101.096C52.5936 100.8 52.3656 100.364 52.3656 99.788C52.3656 99.42 52.4736 99.1 52.6896 98.828C52.9136 98.556 53.2336 98.344 53.6496 98.192C54.0656 98.032 54.5616 97.952 55.1376 97.952C55.7696 97.952 56.3616 98.028 56.9136 98.18C57.4736 98.324 57.9856 98.508 58.4496 98.732C58.9136 98.956 59.3256 99.192 59.6856 99.44C60.0456 99.68 60.3416 99.896 60.5736 100.088L60.0216 100.94C59.7496 100.684 59.4336 100.428 59.0736 100.172C58.7216 99.916 58.3336 99.68 57.9096 99.464C57.4936 99.248 57.0416 99.076 56.5536 98.948C56.0736 98.812 55.5616 98.744 55.0176 98.744C54.4416 98.744 54.0016 98.84 53.6976 99.032C53.4016 99.224 53.2536 99.46 53.2536 99.74C53.2536 99.916 53.3096 100.08 53.4216 100.232C53.5336 100.376 53.7136 100.492 53.9616 100.58C54.2096 100.668 54.5296 100.712 54.9216 100.712C55.1536 100.712 55.3656 100.684 55.5576 100.628C55.7496 100.564 55.9016 100.456 56.0136 100.304C56.1336 100.152 56.1936 99.94 56.1936 99.668C56.1936 99.436 56.1856 99.136 56.1696 98.768C56.1616 98.392 56.1496 97.996 56.1336 97.58C56.1176 97.156 56.1016 96.748 56.0856 96.356C56.0776 95.964 56.0736 95.636 56.0736 95.372C56.0736 95.1 56.0736 94.824 56.0736 94.544C56.0736 94.256 56.0736 93.972 56.0736 93.692C56.0736 93.412 56.0736 93.144 56.0736 92.888C56.0816 92.632 56.0856 92.4 56.0856 92.192C56.0856 92.096 56.0816 91.972 56.0736 91.82C56.0656 91.668 56.0536 91.552 56.0376 91.472H57.0576ZM52.4616 92.78C52.6616 92.812 52.8936 92.844 53.1576 92.876C53.4216 92.908 53.6976 92.94 53.9856 92.972C54.2816 92.996 54.5616 93.016 54.8256 93.032C55.0976 93.04 55.3336 93.044 55.5336 93.044C56.2936 93.044 57.0696 93.016 57.8616 92.96C58.6616 92.904 59.4496 92.812 60.2256 92.684L60.2136 93.56C59.7736 93.608 59.2936 93.656 58.7736 93.704C58.2536 93.752 57.7176 93.792 57.1656 93.824C56.6216 93.856 56.0816 93.872 55.5456 93.872C55.2656 93.872 54.9336 93.86 54.5496 93.836C54.1656 93.812 53.7856 93.784 53.4096 93.752C53.0416 93.72 52.7296 93.692 52.4736 93.668L52.4616 92.78ZM52.4016 95.324C52.6176 95.356 52.8576 95.388 53.1216 95.42C53.3856 95.452 53.6576 95.476 53.9376 95.492C54.2176 95.508 54.4856 95.524 54.7416 95.54C54.9976 95.548 55.2256 95.552 55.4256 95.552C56.0096 95.552 56.5736 95.54 57.1176 95.516C57.6696 95.484 58.2096 95.444 58.7376 95.396C59.2736 95.34 59.8016 95.272 60.3216 95.192L60.3096 96.092C59.9096 96.148 59.5096 96.196 59.1096 96.236C58.7176 96.268 58.3216 96.296 57.9216 96.32C57.5296 96.344 57.1256 96.364 56.7096 96.38C56.3016 96.388 55.8696 96.392 55.4136 96.392C55.1416 96.392 54.8256 96.384 54.4656 96.368C54.1136 96.352 53.7536 96.332 53.3856 96.308C53.0256 96.284 52.7016 96.256 52.4136 96.224L52.4016 95.324ZM70.6984 91.748C70.6904 91.812 70.6824 91.896 70.6744 92C70.6664 92.104 70.6584 92.212 70.6504 92.324C70.6504 92.428 70.6464 92.524 70.6384 92.612C70.6384 92.86 70.6344 93.116 70.6264 93.38C70.6264 93.644 70.6224 93.9 70.6144 94.148C70.6144 94.388 70.6104 94.612 70.6024 94.82C70.5944 95.124 70.5824 95.46 70.5664 95.828C70.5584 96.188 70.5424 96.532 70.5184 96.86C70.5024 97.188 70.4704 97.456 70.4224 97.664C70.3664 97.928 70.2664 98.108 70.1224 98.204C69.9864 98.3 69.7784 98.348 69.4984 98.348C69.3544 98.348 69.1784 98.34 68.9704 98.324C68.7624 98.3 68.5624 98.276 68.3704 98.252C68.1784 98.228 68.0264 98.204 67.9144 98.18L67.9384 97.352C68.1464 97.4 68.3624 97.44 68.5864 97.472C68.8184 97.496 69.0024 97.508 69.1384 97.508C69.2904 97.508 69.3984 97.488 69.4624 97.448C69.5344 97.408 69.5784 97.32 69.5944 97.184C69.6264 97.024 69.6504 96.816 69.6664 96.56C69.6824 96.296 69.6944 96.012 69.7024 95.708C69.7184 95.396 69.7304 95.1 69.7384 94.82C69.7384 94.596 69.7384 94.36 69.7384 94.112C69.7384 93.856 69.7384 93.604 69.7384 93.356C69.7384 93.1 69.7384 92.864 69.7384 92.648C69.7384 92.56 69.7344 92.46 69.7264 92.348C69.7264 92.236 69.7224 92.128 69.7144 92.024C69.7064 91.912 69.6944 91.82 69.6784 91.748H70.6984ZM65.9464 92.12C65.9304 92.264 65.9184 92.416 65.9104 92.576C65.9024 92.736 65.8984 92.908 65.8984 93.092C65.8984 93.348 65.8944 93.676 65.8864 94.076C65.8864 94.468 65.8824 94.888 65.8744 95.336C65.8744 95.776 65.8744 96.208 65.8744 96.632C65.8744 97.056 65.8744 97.436 65.8744 97.772C65.8744 98.108 65.8784 98.36 65.8864 98.528C65.9024 98.848 65.9224 99.12 65.9464 99.344C65.9784 99.568 66.0584 99.748 66.1864 99.884C66.3144 100.02 66.5224 100.12 66.8104 100.184C67.0984 100.248 67.5024 100.28 68.0224 100.28C68.4544 100.28 68.8944 100.268 69.3424 100.244C69.7904 100.212 70.2104 100.176 70.6024 100.136C71.0024 100.088 71.3304 100.04 71.5864 99.992L71.5504 101.012C71.2864 101.036 70.9584 101.064 70.5664 101.096C70.1744 101.128 69.7624 101.152 69.3304 101.168C68.8984 101.192 68.4784 101.204 68.0704 101.204C67.3744 101.204 66.8224 101.16 66.4144 101.072C66.0064 100.984 65.7024 100.844 65.5024 100.652C65.3024 100.452 65.1664 100.188 65.0944 99.86C65.0304 99.532 64.9904 99.132 64.9744 98.66C64.9744 98.492 64.9704 98.256 64.9624 97.952C64.9624 97.64 64.9624 97.292 64.9624 96.908C64.9624 96.516 64.9624 96.12 64.9624 95.72C64.9624 95.32 64.9624 94.94 64.9624 94.58C64.9704 94.22 64.9744 93.912 64.9744 93.656C64.9744 93.4 64.9744 93.228 64.9744 93.14C64.9744 92.956 64.9664 92.788 64.9504 92.636C64.9424 92.476 64.9264 92.304 64.9024 92.12H65.9464ZM62.3584 95C62.5504 95 62.7504 94.992 62.9584 94.976C63.1744 94.96 63.3904 94.944 63.6064 94.928C63.8704 94.904 64.2464 94.868 64.7344 94.82C65.2224 94.772 65.7744 94.72 66.3904 94.664C67.0144 94.608 67.6584 94.552 68.3224 94.496C68.9864 94.432 69.6304 94.376 70.2544 94.328C70.8864 94.272 71.4504 94.232 71.9464 94.208C72.0984 94.192 72.2544 94.18 72.4144 94.172C72.5824 94.164 72.7384 94.156 72.8824 94.148V95.084C72.8184 95.076 72.7304 95.076 72.6184 95.084C72.5144 95.084 72.3984 95.084 72.2704 95.084C72.1504 95.084 72.0384 95.084 71.9344 95.084C71.6144 95.092 71.2264 95.112 70.7704 95.144C70.3144 95.168 69.8184 95.204 69.2824 95.252C68.7544 95.292 68.2144 95.34 67.6624 95.396C67.1104 95.444 66.5784 95.496 66.0664 95.552C65.5544 95.608 65.0904 95.66 64.6744 95.708C64.2664 95.748 63.9344 95.784 63.6784 95.816C63.5584 95.832 63.4224 95.852 63.2704 95.876C63.1264 95.892 62.9824 95.912 62.8384 95.936C62.6944 95.952 62.5704 95.968 62.4664 95.984L62.3584 95ZM80.3824 92.096C80.3344 92.16 80.2744 92.248 80.2024 92.36C80.1384 92.464 80.0704 92.572 79.9984 92.684C79.8624 92.884 79.6984 93.152 79.5064 93.488C79.3224 93.816 79.1224 94.172 78.9064 94.556C78.6904 94.932 78.4784 95.304 78.2704 95.672C78.0704 96.04 77.8944 96.372 77.7424 96.668C78.0304 96.404 78.3264 96.216 78.6304 96.104C78.9424 95.984 79.2424 95.924 79.5304 95.924C79.9304 95.924 80.2584 96.048 80.5144 96.296C80.7784 96.544 80.9184 96.904 80.9344 97.376C80.9424 97.616 80.9464 97.872 80.9464 98.144C80.9544 98.408 80.9584 98.668 80.9584 98.924C80.9584 99.172 80.9664 99.396 80.9824 99.596C81.0064 99.9 81.1104 100.12 81.2944 100.256C81.4784 100.384 81.6984 100.448 81.9544 100.448C82.2824 100.448 82.5784 100.36 82.8424 100.184C83.1144 100 83.3504 99.76 83.5504 99.464C83.7584 99.168 83.9304 98.848 84.0664 98.504C84.2024 98.16 84.3104 97.832 84.3904 97.52L85.1824 98.168C84.9744 98.808 84.7184 99.376 84.4144 99.872C84.1104 100.36 83.7424 100.744 83.3104 101.024C82.8864 101.304 82.3824 101.444 81.7984 101.444C81.3744 101.444 81.0344 101.364 80.7784 101.204C80.5304 101.052 80.3504 100.86 80.2384 100.628C80.1344 100.396 80.0744 100.16 80.0584 99.92C80.0504 99.688 80.0424 99.436 80.0344 99.164C80.0344 98.892 80.0344 98.624 80.0344 98.36C80.0344 98.096 80.0264 97.856 80.0104 97.64C79.9944 97.376 79.9104 97.172 79.7584 97.028C79.6144 96.876 79.4064 96.8 79.1344 96.8C78.8144 96.8 78.5024 96.896 78.1984 97.088C77.9024 97.272 77.6304 97.512 77.3824 97.808C77.1424 98.104 76.9464 98.412 76.7944 98.732C76.7064 98.908 76.6064 99.12 76.4944 99.368C76.3904 99.616 76.2904 99.872 76.1944 100.136C76.0984 100.4 76.0104 100.648 75.9304 100.88C75.8584 101.112 75.8024 101.304 75.7624 101.456L74.7304 101.096C74.8744 100.688 75.0624 100.224 75.2944 99.704C75.5264 99.184 75.7784 98.64 76.0504 98.072C76.3224 97.496 76.6024 96.928 76.8904 96.368C77.1784 95.8 77.4504 95.268 77.7064 94.772C77.9704 94.268 78.2064 93.828 78.4144 93.452C78.6224 93.068 78.7784 92.78 78.8824 92.588C78.9544 92.444 79.0264 92.3 79.0984 92.156C79.1784 92.004 79.2544 91.84 79.3264 91.664L80.3824 92.096Z" fill="#020057"/>
</svg>
