<svg width="100%" viewBox="0 0 148 147" fill="none" xmlns="http://www.w3.org/2000/svg">
<g filter="url(#filter0_dd_3872_63020)">
<rect x="8" y="4" width="132" height="132" fill="#FBFBFE"/>
<rect x="8.5" y="4.5" width="131" height="131" stroke="#827DFF" stroke-dasharray="4 4"/>
<rect width="100" height="112" transform="translate(24 14)" fill="#FBFBFE"/>
<path d="M65.4247 24.5758C65.1903 24.3414 64.8104 24.3414 64.5761 24.5758C64.3418 24.8101 64.3418 25.19 64.5761 25.4243L66.0974 26.9456C65.7833 27.4199 65.6004 27.9886 65.6004 28.6V39.4C65.6004 41.0569 66.9435 42.4 68.6004 42.4H79.4004C80.0118 42.4 80.5806 42.2171 81.0548 41.903L82.5761 43.4243C82.8104 43.6586 83.1903 43.6586 83.4247 43.4243C83.659 43.19 83.659 42.8101 83.4247 42.5758L65.4247 24.5758ZM80.1764 41.0246C79.9415 41.1371 79.6783 41.2 79.4004 41.2H68.6004C67.6063 41.2 66.8004 40.3941 66.8004 39.4V30.4H69.5519L80.1764 41.0246ZM81.2004 30.4V38.6544L82.3706 39.8246C82.3902 39.6859 82.4004 39.5442 82.4004 39.4V28.6C82.4004 26.9432 81.0572 25.6 79.4004 25.6H68.6004C68.4563 25.6 68.3145 25.6102 68.1758 25.6298L72.946 30.4H81.2004Z" fill="#020057"/>
<path d="M44.4746 66.6484C43.8535 66.9766 43.0801 67.1406 42.1543 67.1406C40.959 67.1406 40.002 66.7559 39.2832 65.9863C38.5645 65.2168 38.2051 64.207 38.2051 62.957C38.2051 61.6133 38.6094 60.5273 39.418 59.6992C40.2266 58.8711 41.252 58.457 42.4941 58.457C43.291 58.457 43.9512 58.5723 44.4746 58.8027V59.8516C43.873 59.5156 43.209 59.3477 42.4824 59.3477C41.5176 59.3477 40.7344 59.6699 40.1328 60.3145C39.5352 60.959 39.2363 61.8203 39.2363 62.8984C39.2363 63.9219 39.5156 64.7383 40.0742 65.3477C40.6367 65.9531 41.373 66.2559 42.2832 66.2559C43.127 66.2559 43.8574 66.0684 44.4746 65.6934V66.6484ZM47.0176 67H46.0566V58.1172H47.0176V67ZM53.2578 67H52.2969V66.0625H52.2734C51.8555 66.7812 51.2402 67.1406 50.4277 67.1406C49.8301 67.1406 49.3613 66.9824 49.0215 66.666C48.6855 66.3496 48.5176 65.9297 48.5176 65.4062C48.5176 64.2852 49.1777 63.6328 50.498 63.4492L52.2969 63.1973C52.2969 62.1777 51.8848 61.668 51.0605 61.668C50.3379 61.668 49.6855 61.9141 49.1035 62.4062V61.4219C49.6934 61.0469 50.373 60.8594 51.1426 60.8594C52.5527 60.8594 53.2578 61.6055 53.2578 63.0977V67ZM52.2969 63.9648L50.8496 64.1641C50.4043 64.2266 50.0684 64.3379 49.8418 64.498C49.6152 64.6543 49.502 64.9336 49.502 65.3359C49.502 65.6289 49.6055 65.8691 49.8125 66.0566C50.0234 66.2402 50.3027 66.332 50.6504 66.332C51.127 66.332 51.5195 66.166 51.8281 65.834C52.1406 65.498 52.2969 65.0742 52.2969 64.5625V63.9648ZM58.1973 61.9727C58.0293 61.8438 57.7871 61.7793 57.4707 61.7793C57.0605 61.7793 56.7168 61.9727 56.4395 62.3594C56.166 62.7461 56.0293 63.2734 56.0293 63.9414V67H55.0684V61H56.0293V62.2363H56.0527C56.1895 61.8145 56.3984 61.4863 56.6797 61.252C56.9609 61.0137 57.2754 60.8945 57.623 60.8945C57.873 60.8945 58.0645 60.9219 58.1973 60.9766V61.9727ZM59.7324 59.4766C59.5605 59.4766 59.4141 59.418 59.293 59.3008C59.1719 59.1836 59.1113 59.0352 59.1113 58.8555C59.1113 58.6758 59.1719 58.5273 59.293 58.4102C59.4141 58.2891 59.5605 58.2285 59.7324 58.2285C59.9082 58.2285 60.0566 58.2891 60.1777 58.4102C60.3027 58.5273 60.3652 58.6758 60.3652 58.8555C60.3652 59.0273 60.3027 59.1738 60.1777 59.2949C60.0566 59.416 59.9082 59.4766 59.7324 59.4766ZM60.2012 67H59.2402V61H60.2012V67ZM64.9297 66.9414C64.7031 67.0664 64.4043 67.1289 64.0332 67.1289C62.9824 67.1289 62.457 66.543 62.457 65.3711V61.8203H61.4258V61H62.457V59.5352L63.418 59.2246V61H64.9297V61.8203H63.418V65.2012C63.418 65.6035 63.4863 65.8906 63.623 66.0625C63.7598 66.2344 63.9863 66.3203 64.3027 66.3203C64.5449 66.3203 64.7539 66.2539 64.9297 66.1211V66.9414ZM70.9883 61L68.2285 67.9609C67.7363 69.2031 67.0449 69.8242 66.1543 69.8242C65.9043 69.8242 65.6953 69.7988 65.5273 69.748V68.8867C65.7344 68.957 65.9238 68.9922 66.0957 68.9922C66.5801 68.9922 66.9434 68.7031 67.1855 68.125L67.666 66.9883L65.3223 61H66.3887L68.0117 65.6172C68.0312 65.6758 68.0723 65.8281 68.1348 66.0742H68.1699C68.1895 65.9805 68.2285 65.832 68.2871 65.6289L69.9922 61H70.9883ZM79.1337 59.908C79.4777 59.94 79.8137 59.964 80.1417 59.98C80.4697 59.996 80.8137 60.004 81.1737 60.004C81.8937 60.004 82.6097 59.976 83.3217 59.92C84.0337 59.864 84.6937 59.776 85.3017 59.656V60.58C84.6617 60.684 83.9857 60.76 83.2737 60.808C82.5697 60.856 81.8617 60.884 81.1497 60.892C80.8057 60.892 80.4697 60.884 80.1417 60.868C79.8217 60.852 79.4857 60.832 79.1337 60.808V59.908ZM83.3337 57.76C83.3177 57.88 83.3017 58 83.2857 58.12C83.2777 58.24 83.2697 58.36 83.2617 58.48C83.2537 58.624 83.2457 58.808 83.2377 59.032C83.2297 59.256 83.2257 59.496 83.2257 59.752C83.2257 60 83.2257 60.244 83.2257 60.484C83.2257 60.94 83.2337 61.396 83.2497 61.852C83.2657 62.308 83.2857 62.752 83.3097 63.184C83.3337 63.616 83.3537 64.024 83.3697 64.408C83.3937 64.784 83.4057 65.128 83.4057 65.44C83.4057 65.68 83.3697 65.916 83.2977 66.148C83.2337 66.38 83.1217 66.588 82.9617 66.772C82.8097 66.956 82.5977 67.1 82.3257 67.204C82.0617 67.316 81.7297 67.372 81.3297 67.372C80.5217 67.372 79.9017 67.22 79.4697 66.916C79.0457 66.612 78.8337 66.192 78.8337 65.656C78.8337 65.32 78.9297 65.016 79.1217 64.744C79.3217 64.464 79.6017 64.244 79.9617 64.084C80.3297 63.924 80.7777 63.844 81.3057 63.844C81.8177 63.844 82.2857 63.904 82.7097 64.024C83.1417 64.136 83.5377 64.288 83.8977 64.48C84.2657 64.664 84.6017 64.872 84.9057 65.104C85.2097 65.328 85.4897 65.552 85.7457 65.776L85.2177 66.58C84.8017 66.18 84.3817 65.832 83.9577 65.536C83.5417 65.24 83.1097 65.008 82.6617 64.84C82.2137 64.672 81.7377 64.588 81.2337 64.588C80.7777 64.588 80.4057 64.68 80.1177 64.864C79.8377 65.04 79.6977 65.272 79.6977 65.56C79.6977 65.864 79.8337 66.1 80.1057 66.268C80.3777 66.428 80.7297 66.508 81.1617 66.508C81.5057 66.508 81.7697 66.452 81.9537 66.34C82.1457 66.228 82.2777 66.076 82.3497 65.884C82.4297 65.692 82.4697 65.464 82.4697 65.2C82.4697 64.984 82.4617 64.692 82.4457 64.324C82.4297 63.956 82.4097 63.556 82.3857 63.124C82.3617 62.684 82.3417 62.236 82.3257 61.78C82.3097 61.324 82.3017 60.896 82.3017 60.496C82.3017 60.088 82.3017 59.704 82.3017 59.344C82.3017 58.984 82.3017 58.7 82.3017 58.492C82.3017 58.388 82.2977 58.268 82.2897 58.132C82.2817 57.988 82.2697 57.864 82.2537 57.76H83.3337ZM77.4057 57.832C77.3817 57.896 77.3537 57.98 77.3217 58.084C77.2977 58.18 77.2737 58.28 77.2497 58.384C77.2337 58.488 77.2177 58.576 77.2017 58.648C77.1537 58.872 77.1017 59.14 77.0457 59.452C76.9977 59.756 76.9457 60.088 76.8897 60.448C76.8337 60.8 76.7817 61.16 76.7337 61.528C76.6937 61.888 76.6617 62.236 76.6377 62.572C76.6137 62.908 76.6017 63.212 76.6017 63.484C76.6017 63.772 76.6097 64.048 76.6257 64.312C76.6497 64.576 76.6817 64.856 76.7217 65.152C76.7857 64.968 76.8577 64.772 76.9377 64.564C77.0177 64.356 77.0977 64.148 77.1777 63.94C77.2657 63.732 77.3417 63.548 77.4057 63.388L77.8977 63.772C77.8017 64.044 77.6937 64.352 77.5737 64.696C77.4617 65.032 77.3537 65.356 77.2497 65.668C77.1537 65.972 77.0857 66.224 77.0457 66.424C77.0297 66.504 77.0137 66.596 76.9977 66.7C76.9897 66.804 76.9897 66.892 76.9977 66.964C76.9977 67.02 76.9977 67.088 76.9977 67.168C77.0057 67.248 77.0137 67.32 77.0217 67.384L76.1817 67.444C76.0617 67.012 75.9537 66.476 75.8577 65.836C75.7697 65.188 75.7257 64.46 75.7257 63.652C75.7257 63.204 75.7457 62.74 75.7857 62.26C75.8337 61.772 75.8857 61.296 75.9417 60.832C76.0057 60.368 76.0657 59.944 76.1217 59.56C76.1857 59.168 76.2377 58.848 76.2777 58.6C76.2937 58.464 76.3097 58.32 76.3257 58.168C76.3417 58.016 76.3497 57.876 76.3497 57.748L77.4057 57.832ZM94.9857 61.492C94.9857 62.292 94.9337 63 94.8297 63.616C94.7337 64.232 94.5577 64.78 94.3017 65.26C94.0457 65.74 93.6937 66.168 93.2457 66.544C92.8057 66.912 92.2417 67.248 91.5537 67.552L90.7497 66.796C91.3017 66.58 91.7817 66.344 92.1897 66.088C92.5977 65.832 92.9377 65.512 93.2097 65.128C93.4817 64.744 93.6857 64.264 93.8217 63.688C93.9577 63.112 94.0257 62.404 94.0257 61.564V58.648C94.0257 58.408 94.0177 58.2 94.0017 58.024C93.9857 57.84 93.9737 57.72 93.9657 57.664H95.0457C95.0377 57.72 95.0257 57.84 95.0097 58.024C94.9937 58.2 94.9857 58.408 94.9857 58.648V61.492ZM90.6657 57.736C90.6577 57.792 90.6457 57.9 90.6297 58.06C90.6137 58.22 90.6057 58.404 90.6057 58.612V63.004C90.6057 63.148 90.6097 63.3 90.6177 63.46C90.6257 63.612 90.6337 63.748 90.6417 63.868C90.6497 63.98 90.6537 64.056 90.6537 64.096H89.5977C89.5977 64.056 89.6017 63.98 89.6097 63.868C89.6177 63.756 89.6257 63.624 89.6337 63.472C89.6417 63.312 89.6457 63.156 89.6457 63.004V58.612C89.6457 58.476 89.6417 58.332 89.6337 58.18C89.6257 58.02 89.6137 57.872 89.5977 57.736H90.6657ZM87.1497 60.064C87.1897 60.072 87.2697 60.084 87.3897 60.1C87.5177 60.108 87.6697 60.12 87.8457 60.136C88.0217 60.144 88.1897 60.148 88.3497 60.148H96.3057C96.5697 60.148 96.7977 60.14 96.9897 60.124C97.1817 60.108 97.3217 60.096 97.4097 60.088V61.108C97.3377 61.1 97.2017 61.092 97.0017 61.084C96.8017 61.076 96.5697 61.072 96.3057 61.072H88.3497C88.1817 61.072 88.0137 61.076 87.8457 61.084C87.6777 61.084 87.5297 61.088 87.4017 61.096C87.2817 61.104 87.1977 61.108 87.1497 61.108V60.064ZM99.5697 61.804C99.6897 61.812 99.8377 61.824 100.014 61.84C100.19 61.848 100.382 61.856 100.59 61.864C100.806 61.864 101.022 61.864 101.238 61.864C101.366 61.864 101.562 61.864 101.826 61.864C102.098 61.864 102.414 61.864 102.774 61.864C103.134 61.864 103.514 61.864 103.914 61.864C104.322 61.864 104.726 61.864 105.126 61.864C105.534 61.864 105.918 61.864 106.278 61.864C106.646 61.864 106.962 61.864 107.226 61.864C107.49 61.864 107.686 61.864 107.814 61.864C108.118 61.864 108.378 61.856 108.594 61.84C108.81 61.824 108.982 61.812 109.11 61.804V62.98C108.99 62.972 108.81 62.96 108.57 62.944C108.338 62.928 108.09 62.92 107.826 62.92C107.698 62.92 107.498 62.92 107.226 62.92C106.954 62.92 106.638 62.92 106.278 62.92C105.926 62.92 105.546 62.92 105.138 62.92C104.73 62.92 104.322 62.92 103.914 62.92C103.514 62.92 103.134 62.92 102.774 62.92C102.422 62.92 102.11 62.92 101.838 62.92C101.566 62.92 101.366 62.92 101.238 62.92C100.91 62.92 100.598 62.928 100.302 62.944C100.006 62.952 99.7617 62.964 99.5697 62.98V61.804ZM46.2294 74.36C46.3334 74.504 46.4534 74.684 46.5894 74.9C46.7254 75.108 46.8574 75.324 46.9854 75.548C47.1214 75.772 47.2334 75.98 47.3214 76.172L46.6374 76.484C46.5414 76.276 46.4334 76.068 46.3134 75.86C46.2014 75.644 46.0814 75.436 45.9534 75.236C45.8334 75.028 45.7054 74.836 45.5694 74.66L46.2294 74.36ZM47.6814 73.76C47.7854 73.896 47.9054 74.068 48.0414 74.276C48.1854 74.484 48.3254 74.7 48.4614 74.924C48.5974 75.148 48.7134 75.352 48.8094 75.536L48.1374 75.872C48.0334 75.664 47.9214 75.456 47.8014 75.248C47.6814 75.04 47.5534 74.836 47.4174 74.636C47.2894 74.436 47.1574 74.248 47.0214 74.072L47.6814 73.76ZM42.0174 82.1C42.0174 81.988 42.0174 81.764 42.0174 81.428C42.0174 81.092 42.0174 80.692 42.0174 80.228C42.0174 79.756 42.0174 79.26 42.0174 78.74C42.0174 78.22 42.0174 77.716 42.0174 77.228C42.0174 76.74 42.0174 76.308 42.0174 75.932C42.0174 75.556 42.0174 75.284 42.0174 75.116C42.0174 74.948 42.0094 74.744 41.9934 74.504C41.9854 74.264 41.9614 74.052 41.9214 73.868H43.1094C43.0854 74.052 43.0654 74.264 43.0494 74.504C43.0334 74.736 43.0254 74.94 43.0254 75.116C43.0254 75.428 43.0254 75.804 43.0254 76.244C43.0254 76.676 43.0254 77.14 43.0254 77.636C43.0254 78.124 43.0254 78.612 43.0254 79.1C43.0254 79.58 43.0254 80.032 43.0254 80.456C43.0254 80.872 43.0254 81.228 43.0254 81.524C43.0254 81.812 43.0254 82.004 43.0254 82.1C43.0254 82.22 43.0254 82.368 43.0254 82.544C43.0334 82.72 43.0454 82.892 43.0614 83.06C43.0774 83.236 43.0894 83.388 43.0974 83.516H41.9454C41.9694 83.324 41.9854 83.096 41.9934 82.832C42.0094 82.568 42.0174 82.324 42.0174 82.1ZM42.8094 77.012C43.2014 77.132 43.6374 77.276 44.1174 77.444C44.5974 77.604 45.0814 77.776 45.5694 77.96C46.0654 78.144 46.5334 78.332 46.9734 78.524C47.4214 78.708 47.8134 78.884 48.1494 79.052L47.7294 80.072C47.3854 79.888 46.9974 79.7 46.5654 79.508C46.1414 79.316 45.7014 79.128 45.2454 78.944C44.7894 78.76 44.3494 78.596 43.9254 78.452C43.5094 78.308 43.1374 78.184 42.8094 78.08V77.012ZM59.7534 74.636C59.7534 74.852 59.8294 75.04 59.9814 75.2C60.1334 75.352 60.3214 75.428 60.5454 75.428C60.7614 75.428 60.9454 75.352 61.0974 75.2C61.2574 75.04 61.3374 74.852 61.3374 74.636C61.3374 74.412 61.2574 74.224 61.0974 74.072C60.9454 73.912 60.7614 73.832 60.5454 73.832C60.3214 73.832 60.1334 73.912 59.9814 74.072C59.8294 74.224 59.7534 74.412 59.7534 74.636ZM59.2014 74.636C59.2014 74.388 59.2614 74.164 59.3814 73.964C59.5014 73.756 59.6614 73.592 59.8614 73.472C60.0694 73.344 60.2974 73.28 60.5454 73.28C60.7854 73.28 61.0094 73.344 61.2174 73.472C61.4254 73.592 61.5894 73.756 61.7094 73.964C61.8294 74.164 61.8894 74.388 61.8894 74.636C61.8894 74.884 61.8294 75.108 61.7094 75.308C61.5894 75.508 61.4254 75.672 61.2174 75.8C61.0094 75.92 60.7854 75.98 60.5454 75.98C60.2974 75.98 60.0694 75.92 59.8614 75.8C59.6614 75.672 59.5014 75.508 59.3814 75.308C59.2614 75.108 59.2014 74.884 59.2014 74.636ZM52.9734 79.388C53.1014 79.076 53.2254 78.736 53.3454 78.368C53.4734 78 53.5894 77.62 53.6934 77.228C53.8054 76.828 53.9014 76.436 53.9814 76.052C54.0614 75.66 54.1174 75.288 54.1494 74.936L55.2174 75.164C55.2014 75.252 55.1774 75.348 55.1454 75.452C55.1134 75.548 55.0854 75.648 55.0614 75.752C55.0374 75.856 55.0174 75.952 55.0014 76.04C54.9614 76.224 54.9054 76.464 54.8334 76.76C54.7614 77.056 54.6774 77.38 54.5814 77.732C54.4854 78.084 54.3814 78.44 54.2694 78.8C54.1574 79.152 54.0374 79.48 53.9094 79.784C53.7654 80.152 53.5974 80.532 53.4054 80.924C53.2214 81.308 53.0214 81.684 52.8054 82.052C52.5894 82.42 52.3694 82.764 52.1454 83.084L51.1254 82.652C51.5014 82.148 51.8494 81.604 52.1694 81.02C52.4974 80.428 52.7654 79.884 52.9734 79.388ZM58.8774 78.932C58.7574 78.62 58.6254 78.292 58.4814 77.948C58.3374 77.604 58.1854 77.26 58.0254 76.916C57.8654 76.564 57.7094 76.236 57.5574 75.932C57.4134 75.62 57.2734 75.356 57.1374 75.14L58.1094 74.816C58.2294 75.024 58.3614 75.28 58.5054 75.584C58.6574 75.888 58.8134 76.212 58.9734 76.556C59.1334 76.9 59.2894 77.248 59.4414 77.6C59.5934 77.952 59.7334 78.288 59.8614 78.608C59.9814 78.904 60.1094 79.236 60.2454 79.604C60.3814 79.964 60.5134 80.332 60.6414 80.708C60.7774 81.076 60.9014 81.436 61.0134 81.788C61.1254 82.132 61.2214 82.44 61.3014 82.712L60.2334 83.06C60.1374 82.652 60.0134 82.212 59.8614 81.74C59.7174 81.26 59.5614 80.78 59.3934 80.3C59.2254 79.812 59.0534 79.356 58.8774 78.932ZM63.5814 77.804C63.7014 77.812 63.8494 77.824 64.0254 77.84C64.2014 77.848 64.3934 77.856 64.6014 77.864C64.8174 77.864 65.0334 77.864 65.2494 77.864C65.3774 77.864 65.5734 77.864 65.8374 77.864C66.1094 77.864 66.4254 77.864 66.7854 77.864C67.1454 77.864 67.5254 77.864 67.9254 77.864C68.3334 77.864 68.7374 77.864 69.1374 77.864C69.5454 77.864 69.9294 77.864 70.2894 77.864C70.6574 77.864 70.9734 77.864 71.2374 77.864C71.5014 77.864 71.6974 77.864 71.8254 77.864C72.1294 77.864 72.3894 77.856 72.6054 77.84C72.8214 77.824 72.9934 77.812 73.1214 77.804V78.98C73.0014 78.972 72.8214 78.96 72.5814 78.944C72.3494 78.928 72.1014 78.92 71.8374 78.92C71.7094 78.92 71.5094 78.92 71.2374 78.92C70.9654 78.92 70.6494 78.92 70.2894 78.92C69.9374 78.92 69.5574 78.92 69.1494 78.92C68.7414 78.92 68.3334 78.92 67.9254 78.92C67.5254 78.92 67.1454 78.92 66.7854 78.92C66.4334 78.92 66.1214 78.92 65.8494 78.92C65.5774 78.92 65.3774 78.92 65.2494 78.92C64.9214 78.92 64.6094 78.928 64.3134 78.944C64.0174 78.952 63.7734 78.964 63.5814 78.98V77.804ZM76.9374 74.12C77.1054 74.136 77.2774 74.152 77.4534 74.168C77.6374 74.184 77.8254 74.192 78.0174 74.192C78.1614 74.192 78.3934 74.192 78.7134 74.192C79.0414 74.192 79.4134 74.192 79.8294 74.192C80.2454 74.192 80.6614 74.192 81.0774 74.192C81.4934 74.192 81.8614 74.192 82.1814 74.192C82.5094 74.192 82.7414 74.192 82.8774 74.192C83.0454 74.192 83.2294 74.188 83.4294 74.18C83.6374 74.164 83.8254 74.144 83.9934 74.12V75.116C83.8174 75.1 83.6294 75.092 83.4294 75.092C83.2374 75.084 83.0534 75.08 82.8774 75.08C82.7414 75.08 82.5134 75.08 82.1934 75.08C81.8734 75.08 81.5054 75.08 81.0894 75.08C80.6734 75.08 80.2574 75.08 79.8414 75.08C79.4254 75.08 79.0534 75.08 78.7254 75.08C78.3974 75.08 78.1654 75.08 78.0294 75.08C77.8374 75.08 77.6454 75.084 77.4534 75.092C77.2614 75.092 77.0894 75.1 76.9374 75.116V74.12ZM75.4974 77.132C75.6654 77.148 75.8334 77.164 76.0014 77.18C76.1774 77.188 76.3574 77.192 76.5414 77.192C76.6454 77.192 76.8494 77.192 77.1534 77.192C77.4654 77.192 77.8414 77.192 78.2814 77.192C78.7294 77.192 79.2094 77.192 79.7214 77.192C80.2334 77.192 80.7454 77.192 81.2574 77.192C81.7694 77.192 82.2454 77.192 82.6854 77.192C83.1254 77.192 83.4974 77.192 83.8014 77.192C84.1134 77.192 84.3134 77.192 84.4014 77.192C84.5294 77.192 84.6814 77.188 84.8574 77.18C85.0334 77.172 85.1934 77.156 85.3374 77.132V78.128C85.2094 78.12 85.0574 78.116 84.8814 78.116C84.7134 78.108 84.5534 78.104 84.4014 78.104C84.3134 78.104 84.1134 78.104 83.8014 78.104C83.4974 78.104 83.1254 78.104 82.6854 78.104C82.2454 78.104 81.7694 78.104 81.2574 78.104C80.7454 78.104 80.2334 78.104 79.7214 78.104C79.2094 78.104 78.7294 78.104 78.2814 78.104C77.8414 78.104 77.4654 78.104 77.1534 78.104C76.8494 78.104 76.6454 78.104 76.5414 78.104C76.3654 78.104 76.1894 78.104 76.0134 78.104C75.8374 78.104 75.6654 78.112 75.4974 78.128V77.132ZM81.1494 77.624C81.1494 78.376 81.0934 79.068 80.9814 79.7C80.8774 80.324 80.6934 80.884 80.4294 81.38C80.2854 81.652 80.0894 81.924 79.8414 82.196C79.6014 82.46 79.3294 82.712 79.0254 82.952C78.7294 83.192 78.4094 83.4 78.0654 83.576L77.1774 82.916C77.6414 82.724 78.0774 82.464 78.4854 82.136C78.8934 81.808 79.2134 81.456 79.4454 81.08C79.7494 80.6 79.9414 80.072 80.0214 79.496C80.1014 78.912 80.1414 78.288 80.1414 77.624H81.1494ZM87.1066 79.904C87.6346 79.776 88.1666 79.608 88.7026 79.4C89.2466 79.192 89.7546 78.972 90.2266 78.74C90.7066 78.508 91.1066 78.292 91.4266 78.092C91.8106 77.86 92.1786 77.604 92.5306 77.324C92.8906 77.036 93.2226 76.748 93.5266 76.46C93.8306 76.172 94.0826 75.9 94.2826 75.644L95.0266 76.364C94.8026 76.612 94.5186 76.888 94.1746 77.192C93.8386 77.488 93.4706 77.784 93.0706 78.08C92.6706 78.376 92.2586 78.652 91.8346 78.908C91.5866 79.06 91.2986 79.22 90.9706 79.388C90.6426 79.556 90.2946 79.724 89.9266 79.892C89.5586 80.06 89.1706 80.224 88.7626 80.384C88.3626 80.536 87.9626 80.672 87.5626 80.792L87.1066 79.904ZM91.3186 78.632L92.3146 78.392V82.88C92.3146 83 92.3146 83.128 92.3146 83.264C92.3226 83.408 92.3306 83.54 92.3386 83.66C92.3466 83.78 92.3586 83.872 92.3746 83.936H91.2706C91.2786 83.872 91.2866 83.78 91.2946 83.66C91.3026 83.54 91.3066 83.408 91.3066 83.264C91.3146 83.128 91.3186 83 91.3186 82.88V78.632ZM103.187 78.752H104.099V79.904H103.187V78.752ZM103.175 79.748L103.895 80.072C103.583 80.344 103.223 80.604 102.815 80.852C102.407 81.092 101.967 81.316 101.495 81.524C101.023 81.724 100.543 81.904 100.055 82.064C99.5666 82.216 99.0866 82.344 98.6146 82.448C98.5586 82.344 98.4786 82.224 98.3746 82.088C98.2786 81.952 98.1866 81.844 98.0986 81.764C98.5626 81.684 99.0346 81.576 99.5146 81.44C100.003 81.304 100.471 81.152 100.919 80.984C101.375 80.808 101.799 80.616 102.191 80.408C102.583 80.192 102.911 79.972 103.175 79.748ZM104.195 79.712C104.571 80.656 105.183 81.432 106.031 82.04C106.879 82.64 107.931 83.048 109.187 83.264C109.091 83.344 108.995 83.456 108.899 83.6C108.803 83.752 108.727 83.88 108.671 83.984C107.791 83.808 107.011 83.536 106.331 83.168C105.659 82.808 105.083 82.356 104.603 81.812C104.123 81.26 103.735 80.62 103.439 79.892L104.195 79.712ZM107.735 80.312L108.395 80.792C108.019 81.056 107.595 81.312 107.123 81.56C106.659 81.808 106.227 82.016 105.827 82.184L105.263 81.74C105.527 81.612 105.811 81.468 106.115 81.308C106.419 81.14 106.715 80.972 107.003 80.804C107.291 80.628 107.535 80.464 107.735 80.312ZM99.7666 83.108C100.167 83.052 100.631 82.988 101.159 82.916C101.687 82.836 102.247 82.748 102.839 82.652C103.439 82.556 104.039 82.464 104.639 82.376L104.675 83.096C103.827 83.232 102.983 83.368 102.143 83.504C101.303 83.648 100.563 83.768 99.9226 83.864L99.7666 83.108ZM98.3026 79.472H108.995V80.216H98.3026V79.472ZM104.951 73.388H105.779V77.432H104.951V73.388ZM107.699 73.04H108.527V78.044C108.527 78.276 108.495 78.452 108.431 78.572C108.375 78.692 108.259 78.784 108.083 78.848C107.915 78.912 107.687 78.952 107.399 78.968C107.119 78.976 106.767 78.98 106.343 78.98C106.327 78.868 106.291 78.744 106.235 78.608C106.179 78.464 106.119 78.336 106.055 78.224C106.383 78.232 106.679 78.24 106.943 78.248C107.207 78.248 107.383 78.244 107.471 78.236C107.559 78.236 107.619 78.224 107.651 78.2C107.683 78.168 107.699 78.116 107.699 78.044V73.04ZM100.955 72.92H101.759V79.016H100.955V72.92ZM103.211 76.436H103.967V77.912C103.967 78.08 103.947 78.212 103.907 78.308C103.867 78.396 103.783 78.464 103.655 78.512C103.535 78.568 103.383 78.6 103.199 78.608C103.015 78.616 102.787 78.62 102.515 78.62C102.499 78.532 102.467 78.436 102.419 78.332C102.371 78.228 102.323 78.132 102.275 78.044C102.475 78.052 102.643 78.056 102.779 78.056C102.923 78.056 103.023 78.052 103.079 78.044C103.167 78.044 103.211 78 103.211 77.912V76.436ZM98.8546 76.436H103.559V77.048H99.5746V78.692H98.8546V76.436ZM98.2546 75.152H104.315V75.8H98.2546V75.152ZM99.5026 73.772H103.895V74.408H99.2506L99.5026 73.772ZM99.3946 72.956L100.103 73.124C99.9746 73.492 99.8186 73.856 99.6346 74.216C99.4586 74.576 99.2746 74.884 99.0826 75.14C99.0106 75.084 98.9066 75.024 98.7706 74.96C98.6346 74.888 98.5186 74.828 98.4226 74.78C98.6386 74.54 98.8266 74.26 98.9866 73.94C99.1546 73.612 99.2906 73.284 99.3946 72.956ZM101.003 81.452L101.471 80.984L101.879 81.116V83.42H101.003V81.452ZM41.645 90.804C41.565 91.428 41.461 92.08 41.333 92.76C41.213 93.44 41.057 94.1 40.865 94.74C40.625 95.564 40.357 96.252 40.061 96.804C39.773 97.356 39.461 97.772 39.125 98.052C38.789 98.332 38.437 98.472 38.069 98.472C37.717 98.472 37.377 98.344 37.049 98.088C36.721 97.832 36.453 97.464 36.245 96.984C36.037 96.496 35.933 95.924 35.933 95.268C35.933 94.612 36.065 93.992 36.329 93.408C36.601 92.824 36.973 92.308 37.445 91.86C37.925 91.404 38.485 91.044 39.125 90.78C39.765 90.516 40.449 90.384 41.177 90.384C41.881 90.384 42.513 90.5 43.073 90.732C43.641 90.964 44.125 91.284 44.525 91.692C44.925 92.092 45.233 92.56 45.449 93.096C45.665 93.624 45.773 94.192 45.773 94.8C45.773 95.64 45.593 96.38 45.233 97.02C44.881 97.66 44.369 98.18 43.697 98.58C43.033 98.98 42.225 99.244 41.273 99.372L40.709 98.484C40.901 98.46 41.085 98.436 41.261 98.412C41.437 98.388 41.597 98.36 41.741 98.328C42.125 98.24 42.497 98.104 42.857 97.92C43.225 97.728 43.553 97.488 43.841 97.2C44.129 96.904 44.357 96.556 44.525 96.156C44.701 95.748 44.789 95.284 44.789 94.764C44.789 94.276 44.709 93.824 44.549 93.408C44.389 92.984 44.153 92.612 43.841 92.292C43.529 91.972 43.149 91.72 42.701 91.536C42.253 91.352 41.741 91.26 41.165 91.26C40.509 91.26 39.913 91.38 39.377 91.62C38.849 91.86 38.397 92.176 38.021 92.568C37.653 92.952 37.369 93.376 37.169 93.84C36.969 94.296 36.869 94.744 36.869 95.184C36.869 95.688 36.933 96.104 37.061 96.432C37.197 96.752 37.357 96.988 37.541 97.14C37.733 97.292 37.921 97.368 38.105 97.368C38.297 97.368 38.493 97.276 38.693 97.092C38.893 96.9 39.097 96.596 39.305 96.18C39.513 95.756 39.717 95.208 39.917 94.536C40.093 93.96 40.241 93.348 40.361 92.7C40.489 92.052 40.581 91.416 40.637 90.792L41.645 90.804ZM51.6348 91.4766C51.4629 91.4766 51.3164 91.418 51.1953 91.3008C51.0742 91.1836 51.0137 91.0352 51.0137 90.8555C51.0137 90.6758 51.0742 90.5273 51.1953 90.4102C51.3164 90.2891 51.4629 90.2285 51.6348 90.2285C51.8105 90.2285 51.959 90.2891 52.0801 90.4102C52.2051 90.5273 52.2676 90.6758 52.2676 90.8555C52.2676 91.0273 52.2051 91.1738 52.0801 91.2949C51.959 91.416 51.8105 91.4766 51.6348 91.4766ZM52.1035 99H51.1426V93H52.1035V99ZM58.4434 91.4883H55.1621V94.3945H58.1973V95.2793H55.1621V99H54.1777V90.5977H58.4434V91.4883ZM63.0371 93.9727C62.8691 93.8438 62.627 93.7793 62.3105 93.7793C61.9004 93.7793 61.5566 93.9727 61.2793 94.3594C61.0059 94.7461 60.8691 95.2734 60.8691 95.9414V99H59.9082V93H60.8691V94.2363H60.8926C61.0293 93.8145 61.2383 93.4863 61.5195 93.252C61.8008 93.0137 62.1152 92.8945 62.4629 92.8945C62.7129 92.8945 62.9043 92.9219 63.0371 92.9766V93.9727ZM68.375 99H67.4141V98.0625H67.3906C66.9727 98.7812 66.3574 99.1406 65.5449 99.1406C64.9473 99.1406 64.4785 98.9824 64.1387 98.666C63.8027 98.3496 63.6348 97.9297 63.6348 97.4062C63.6348 96.2852 64.2949 95.6328 65.6152 95.4492L67.4141 95.1973C67.4141 94.1777 67.002 93.668 66.1777 93.668C65.4551 93.668 64.8027 93.9141 64.2207 94.4062V93.4219C64.8105 93.0469 65.4902 92.8594 66.2598 92.8594C67.6699 92.8594 68.375 93.6055 68.375 95.0977V99ZM67.4141 95.9648L65.9668 96.1641C65.5215 96.2266 65.1855 96.3379 64.959 96.498C64.7324 96.6543 64.6191 96.9336 64.6191 97.3359C64.6191 97.6289 64.7227 97.8691 64.9297 98.0566C65.1406 98.2402 65.4199 98.332 65.7676 98.332C66.2441 98.332 66.6367 98.166 66.9453 97.834C67.2578 97.498 67.4141 97.0742 67.4141 96.5625V95.9648ZM78.7051 99H77.7441V95.5547C77.7441 94.8906 77.6406 94.4102 77.4336 94.1133C77.2305 93.8164 76.8867 93.668 76.4023 93.668C75.9922 93.668 75.6426 93.8555 75.3535 94.2305C75.0684 94.6055 74.9258 95.0547 74.9258 95.5781V99H73.9648V95.4375C73.9648 94.2578 73.5098 93.668 72.5996 93.668C72.1777 93.668 71.8301 93.8457 71.5566 94.2012C71.2832 94.5527 71.1465 95.0117 71.1465 95.5781V99H70.1855V93H71.1465V93.9492H71.1699C71.5957 93.2227 72.2168 92.8594 73.0332 92.8594C73.4434 92.8594 73.8008 92.9746 74.1055 93.2051C74.4102 93.4316 74.6191 93.7305 74.7324 94.1016C75.1777 93.2734 75.8418 92.8594 76.7246 92.8594C78.0449 92.8594 78.7051 93.6738 78.7051 95.3027V99ZM85.3438 96.2402H81.1074C81.123 96.9082 81.3027 97.4238 81.6465 97.7871C81.9902 98.1504 82.4629 98.332 83.0645 98.332C83.7402 98.332 84.3613 98.1094 84.9277 97.6641V98.5664C84.4004 98.9492 83.7031 99.1406 82.8359 99.1406C81.9883 99.1406 81.3223 98.8691 80.8379 98.3262C80.3535 97.7793 80.1113 97.0117 80.1113 96.0234C80.1113 95.0898 80.375 94.3301 80.9023 93.7441C81.4336 93.1543 82.0918 92.8594 82.877 92.8594C83.6621 92.8594 84.2695 93.1133 84.6992 93.6211C85.1289 94.1289 85.3438 94.834 85.3438 95.7363V96.2402ZM84.3594 95.4258C84.3555 94.8711 84.2207 94.4395 83.9551 94.1309C83.6934 93.8223 83.3281 93.668 82.8594 93.668C82.4062 93.668 82.0215 93.8301 81.7051 94.1543C81.3887 94.4785 81.1934 94.9023 81.1191 95.4258H84.3594ZM94.643 89.508C94.595 89.748 94.531 90.032 94.451 90.36C94.379 90.68 94.259 91.044 94.091 91.452C93.947 91.812 93.767 92.184 93.551 92.568C93.343 92.952 93.119 93.3 92.879 93.612C93.031 93.516 93.203 93.436 93.395 93.372C93.587 93.3 93.783 93.248 93.983 93.216C94.191 93.184 94.379 93.168 94.547 93.168C95.011 93.168 95.403 93.3 95.723 93.564C96.043 93.82 96.203 94.196 96.203 94.692C96.203 94.844 96.203 95.04 96.203 95.28C96.203 95.512 96.203 95.76 96.203 96.024C96.211 96.28 96.219 96.532 96.227 96.78C96.235 97.028 96.239 97.244 96.239 97.428H95.315C95.323 97.268 95.331 97.08 95.339 96.864C95.347 96.648 95.351 96.42 95.351 96.18C95.359 95.94 95.359 95.712 95.351 95.496C95.351 95.28 95.351 95.096 95.351 94.944C95.351 94.592 95.243 94.336 95.027 94.176C94.819 94.008 94.555 93.924 94.235 93.924C93.859 93.924 93.487 94.008 93.119 94.176C92.759 94.336 92.443 94.544 92.171 94.8C91.995 94.968 91.819 95.16 91.643 95.376C91.475 95.584 91.287 95.808 91.079 96.048L90.263 95.448C90.839 94.888 91.319 94.364 91.703 93.876C92.087 93.388 92.399 92.936 92.639 92.52C92.879 92.096 93.067 91.716 93.203 91.38C93.331 91.044 93.435 90.708 93.515 90.372C93.595 90.028 93.643 89.712 93.659 89.424L94.643 89.508ZM90.539 90.804C90.859 90.844 91.207 90.876 91.583 90.9C91.959 90.924 92.287 90.936 92.567 90.936C93.103 90.936 93.679 90.924 94.295 90.9C94.911 90.868 95.531 90.824 96.155 90.768C96.787 90.712 97.387 90.632 97.955 90.528L97.943 91.416C97.527 91.488 97.083 91.548 96.611 91.596C96.139 91.636 95.659 91.672 95.171 91.704C94.683 91.728 94.211 91.748 93.755 91.764C93.307 91.772 92.891 91.776 92.507 91.776C92.339 91.776 92.143 91.776 91.919 91.776C91.703 91.768 91.475 91.76 91.235 91.752C90.995 91.736 90.763 91.72 90.539 91.704V90.804ZM99.707 93.708C99.603 93.732 99.487 93.768 99.359 93.816C99.239 93.856 99.115 93.9 98.987 93.948C98.867 93.996 98.751 94.044 98.639 94.092C98.223 94.252 97.739 94.448 97.187 94.68C96.635 94.912 96.071 95.18 95.495 95.484C95.095 95.684 94.743 95.896 94.439 96.12C94.135 96.336 93.895 96.564 93.719 96.804C93.543 97.036 93.455 97.292 93.455 97.572C93.455 97.804 93.507 97.992 93.611 98.136C93.723 98.28 93.879 98.392 94.079 98.472C94.279 98.544 94.507 98.592 94.763 98.616C95.027 98.64 95.315 98.652 95.627 98.652C96.091 98.652 96.619 98.628 97.211 98.58C97.811 98.524 98.375 98.452 98.903 98.364L98.879 99.324C98.575 99.364 98.231 99.4 97.847 99.432C97.471 99.464 97.087 99.488 96.695 99.504C96.311 99.528 95.943 99.54 95.591 99.54C95.023 99.54 94.503 99.488 94.031 99.384C93.567 99.28 93.195 99.096 92.915 98.832C92.635 98.568 92.495 98.192 92.495 97.704C92.495 97.344 92.579 97.016 92.747 96.72C92.915 96.416 93.139 96.14 93.419 95.892C93.707 95.644 94.023 95.416 94.367 95.208C94.711 94.992 95.063 94.796 95.423 94.62C95.807 94.412 96.167 94.232 96.503 94.08C96.847 93.928 97.171 93.788 97.475 93.66C97.779 93.532 98.063 93.404 98.327 93.276C98.503 93.196 98.671 93.12 98.831 93.048C98.991 92.976 99.151 92.896 99.311 92.808L99.707 93.708ZM105.911 93.528H112.499V95.652H111.659V94.26H106.727V95.652H105.911V93.528ZM109.751 95.064H110.603V98.676C110.603 98.82 110.619 98.912 110.651 98.952C110.683 98.992 110.763 99.012 110.891 99.012C110.931 99.012 111.003 99.012 111.107 99.012C111.219 99.012 111.331 99.012 111.443 99.012C111.555 99.012 111.635 99.012 111.683 99.012C111.771 99.012 111.835 98.976 111.875 98.904C111.923 98.832 111.955 98.684 111.971 98.46C111.995 98.228 112.011 97.884 112.019 97.428C112.083 97.476 112.159 97.524 112.247 97.572C112.335 97.612 112.427 97.652 112.523 97.692C112.619 97.724 112.707 97.752 112.787 97.776C112.763 98.312 112.715 98.728 112.643 99.024C112.579 99.328 112.479 99.536 112.343 99.648C112.207 99.76 112.019 99.816 111.779 99.816C111.739 99.816 111.671 99.816 111.575 99.816C111.479 99.816 111.375 99.816 111.263 99.816C111.159 99.816 111.059 99.816 110.963 99.816C110.875 99.816 110.811 99.816 110.771 99.816C110.499 99.816 110.287 99.78 110.135 99.708C109.991 99.644 109.891 99.528 109.835 99.36C109.779 99.2 109.751 98.972 109.751 98.676V95.064ZM107.687 95.052H108.539C108.507 95.7 108.451 96.284 108.371 96.804C108.291 97.316 108.159 97.772 107.975 98.172C107.791 98.564 107.531 98.908 107.195 99.204C106.867 99.508 106.435 99.764 105.899 99.972C105.867 99.9 105.819 99.82 105.755 99.732C105.699 99.644 105.635 99.556 105.563 99.468C105.499 99.388 105.435 99.32 105.371 99.264C105.859 99.088 106.251 98.876 106.547 98.628C106.843 98.38 107.067 98.088 107.219 97.752C107.379 97.408 107.491 97.016 107.555 96.576C107.619 96.128 107.663 95.62 107.687 95.052ZM105.959 90H112.451V90.756H105.959V90ZM106.355 91.884H112.091V92.64H106.355V91.884ZM108.695 88.908H109.583V92.28H108.695V88.908ZM102.095 92.556H105.335V93.264H102.095V92.556ZM102.167 89.34H105.299V90.06H102.167V89.34ZM102.095 94.152H105.335V94.872H102.095V94.152ZM101.579 90.912H105.671V91.668H101.579V90.912ZM102.515 95.772H105.347V99.264H102.515V98.52H104.579V96.516H102.515V95.772ZM102.083 95.772H102.851V99.828H102.083V95.772ZM40.8576 106.204C41.0096 106.212 41.1656 106.22 41.3256 106.228C41.4936 106.236 41.6376 106.24 41.7576 106.24C41.9176 106.24 42.1216 106.236 42.3696 106.228C42.6256 106.22 42.8896 106.208 43.1616 106.192C43.4336 106.176 43.6896 106.164 43.9296 106.156C44.1696 106.14 44.3496 106.128 44.4696 106.12C44.5896 106.104 44.6976 106.088 44.7936 106.072C44.8976 106.048 44.9896 106.02 45.0696 105.988L45.6696 106.48C45.6136 106.544 45.5576 106.608 45.5016 106.672C45.4536 106.736 45.4056 106.804 45.3576 106.876C45.2296 107.084 45.0776 107.38 44.9016 107.764C44.7256 108.14 44.5376 108.552 44.3376 109C44.1456 109.44 43.9536 109.864 43.7616 110.272C43.6416 110.544 43.5096 110.84 43.3656 111.16C43.2296 111.472 43.0896 111.792 42.9456 112.12C42.8016 112.44 42.6576 112.74 42.5136 113.02C42.3776 113.3 42.2456 113.532 42.1176 113.716C41.9016 114.02 41.6736 114.236 41.4336 114.364C41.1936 114.484 40.9176 114.544 40.6056 114.544C40.1576 114.544 39.7856 114.396 39.4896 114.1C39.1936 113.804 39.0456 113.404 39.0456 112.9C39.0456 112.452 39.1456 112.036 39.3456 111.652C39.5536 111.26 39.8376 110.92 40.1976 110.632C40.5656 110.344 41.0016 110.12 41.5056 109.96C42.0176 109.8 42.5776 109.72 43.1856 109.72C43.8576 109.72 44.5056 109.8 45.1296 109.96C45.7616 110.112 46.3496 110.312 46.8936 110.56C47.4456 110.8 47.9456 111.056 48.3936 111.328C48.8496 111.592 49.2376 111.84 49.5576 112.072L49.1136 113.104C48.7616 112.8 48.3656 112.5 47.9256 112.204C47.4856 111.9 47.0056 111.624 46.4856 111.376C45.9656 111.128 45.4136 110.928 44.8296 110.776C44.2536 110.624 43.6576 110.548 43.0416 110.548C42.3856 110.548 41.8216 110.66 41.3496 110.884C40.8856 111.1 40.5296 111.38 40.2816 111.724C40.0416 112.06 39.9216 112.412 39.9216 112.78C39.9216 113.044 39.9936 113.248 40.1376 113.392C40.2896 113.528 40.4576 113.596 40.6416 113.596C40.7776 113.596 40.9016 113.564 41.0136 113.5C41.1256 113.436 41.2416 113.328 41.3616 113.176C41.4896 113.008 41.6176 112.804 41.7456 112.564C41.8736 112.324 42.0016 112.064 42.1296 111.784C42.2576 111.504 42.3816 111.22 42.5016 110.932C42.6216 110.644 42.7416 110.376 42.8616 110.128C43.0216 109.776 43.1816 109.412 43.3416 109.036C43.5096 108.66 43.6736 108.296 43.8336 107.944C44.0016 107.592 44.1536 107.272 44.2896 106.984C44.1696 106.992 43.9976 107 43.7736 107.008C43.5576 107.016 43.3216 107.028 43.0656 107.044C42.8096 107.052 42.5656 107.064 42.3336 107.08C42.1096 107.088 41.9296 107.096 41.7936 107.104C41.6656 107.112 41.5216 107.124 41.3616 107.14C41.2016 107.148 41.0496 107.16 40.9056 107.176L40.8576 106.204ZM48.3576 108.832C48.3176 109.68 48.2336 110.452 48.1056 111.148C47.9776 111.844 47.7816 112.472 47.5176 113.032C47.2536 113.592 46.8936 114.096 46.4376 114.544C45.9816 114.984 45.4056 115.376 44.7096 115.72L43.9176 115.06C44.6216 114.764 45.1936 114.412 45.6336 114.004C46.0736 113.588 46.4136 113.144 46.6536 112.672C46.9016 112.192 47.0736 111.708 47.1696 111.22C47.2736 110.732 47.3456 110.268 47.3856 109.828C47.3936 109.644 47.3976 109.456 47.3976 109.264C47.4056 109.072 47.4016 108.892 47.3856 108.724L48.3576 108.832ZM56.3136 106.576H60.7536V107.452H56.3136V106.576ZM50.7576 105.664H56.6136V106.516H50.7576V105.664ZM52.1616 108.112H55.2696V108.928H52.1616V108.112ZM52.1616 110.608H55.2696V111.424H52.1616V110.608ZM60.4776 106.576H60.6456L60.8016 106.54L61.3776 106.696C61.1856 108.296 60.8616 109.684 60.4056 110.86C59.9496 112.028 59.3816 113.02 58.7016 113.836C58.0296 114.644 57.2616 115.296 56.3976 115.792C56.3256 115.68 56.2336 115.548 56.1216 115.396C56.0096 115.252 55.9056 115.136 55.8096 115.048C56.6016 114.64 57.3176 114.056 57.9576 113.296C58.5976 112.536 59.1336 111.612 59.5656 110.524C60.0056 109.436 60.3096 108.188 60.4776 106.78V106.576ZM57.4056 107.5C57.6216 108.652 57.9256 109.724 58.3176 110.716C58.7096 111.708 59.1976 112.58 59.7816 113.332C60.3736 114.076 61.0816 114.66 61.9056 115.084C61.8416 115.14 61.7696 115.212 61.6896 115.3C61.6096 115.388 61.5336 115.476 61.4616 115.564C61.3896 115.66 61.3296 115.748 61.2816 115.828C60.4096 115.34 59.6656 114.7 59.0496 113.908C58.4416 113.108 57.9336 112.184 57.5256 111.136C57.1256 110.08 56.7976 108.924 56.5416 107.668L57.4056 107.5ZM51.6816 105.988H52.5456V113.776H51.6816V105.988ZM54.8976 105.988H55.7736V115.936H54.8976V105.988ZM50.5056 113.524C50.9056 113.468 51.3616 113.408 51.8736 113.344C52.3856 113.272 52.9296 113.196 53.5056 113.116C54.0896 113.028 54.6736 112.94 55.2576 112.852L55.3056 113.68C54.4816 113.816 53.6576 113.952 52.8336 114.088C52.0176 114.216 51.2976 114.324 50.6736 114.412L50.5056 113.524ZM73.8696 114.088C73.5496 114.408 73.2056 114.656 72.8376 114.832C72.4696 115 72.0776 115.084 71.6616 115.084C71.2696 115.084 70.9496 114.956 70.7016 114.7C70.4536 114.444 70.3296 114.068 70.3296 113.572C70.3296 113.236 70.3536 112.872 70.4016 112.48C70.4496 112.088 70.5016 111.688 70.5576 111.28C70.6136 110.864 70.6656 110.472 70.7136 110.104C70.7616 109.728 70.7856 109.392 70.7856 109.096C70.7856 108.752 70.7016 108.504 70.5336 108.352C70.3656 108.192 70.1256 108.112 69.8136 108.112C69.5336 108.112 69.2216 108.196 68.8776 108.364C68.5336 108.524 68.1816 108.744 67.8216 109.024C67.4616 109.296 67.1096 109.604 66.7656 109.948C66.4216 110.284 66.1056 110.62 65.8176 110.956L65.8416 109.768C65.9936 109.608 66.1856 109.42 66.4176 109.204C66.6576 108.988 66.9216 108.764 67.2096 108.532C67.5056 108.3 67.8176 108.084 68.1456 107.884C68.4736 107.684 68.7976 107.524 69.1176 107.404C69.4456 107.284 69.7576 107.224 70.0536 107.224C70.4296 107.224 70.7416 107.292 70.9896 107.428C71.2376 107.556 71.4216 107.744 71.5416 107.992C71.6616 108.232 71.7216 108.512 71.7216 108.832C71.7216 109.128 71.6976 109.472 71.6496 109.864C71.6096 110.248 71.5576 110.648 71.4936 111.064C71.4376 111.48 71.3856 111.884 71.3376 112.276C71.2976 112.668 71.2776 113.016 71.2776 113.32C71.2776 113.52 71.3256 113.692 71.4216 113.836C71.5256 113.98 71.6856 114.052 71.9016 114.052C72.1896 114.052 72.4856 113.968 72.7896 113.8C73.1016 113.624 73.4096 113.376 73.7136 113.056L73.8696 114.088ZM65.8056 108.352C65.7096 108.36 65.5616 108.38 65.3616 108.412C65.1696 108.436 64.9496 108.464 64.7016 108.496C64.4536 108.528 64.2016 108.564 63.9456 108.604C63.6896 108.636 63.4496 108.668 63.2256 108.7L63.1296 107.716C63.2576 107.724 63.3816 107.728 63.5016 107.728C63.6296 107.72 63.7656 107.712 63.9096 107.704C64.0776 107.696 64.2816 107.68 64.5216 107.656C64.7696 107.624 65.0256 107.592 65.2896 107.56C65.5616 107.52 65.8136 107.48 66.0456 107.44C66.2856 107.392 66.4736 107.344 66.6096 107.296L66.9576 107.716C66.8856 107.812 66.8056 107.932 66.7176 108.076C66.6296 108.212 66.5416 108.352 66.4536 108.496C66.3656 108.64 66.2896 108.768 66.2256 108.88L65.8536 110.512C65.7176 110.728 65.5496 110.984 65.3496 111.28C65.1496 111.576 64.9376 111.888 64.7136 112.216C64.4976 112.536 64.2776 112.856 64.0536 113.176C63.8296 113.488 63.6256 113.776 63.4416 114.04L62.8296 113.212C62.9816 113.028 63.1576 112.804 63.3576 112.54C63.5656 112.268 63.7816 111.976 64.0056 111.664C64.2376 111.352 64.4616 111.048 64.6776 110.752C64.9016 110.448 65.0976 110.168 65.2656 109.912C65.4416 109.656 65.5736 109.448 65.6616 109.288L65.7096 108.676L65.8056 108.352ZM65.6976 106.36C65.6976 106.224 65.6936 106.08 65.6856 105.928C65.6856 105.776 65.6736 105.624 65.6496 105.472L66.7776 105.508C66.7456 105.668 66.7056 105.92 66.6576 106.264C66.6096 106.6 66.5616 107 66.5136 107.464C66.4736 107.928 66.4296 108.416 66.3816 108.928C66.3416 109.44 66.3096 109.948 66.2856 110.452C66.2616 110.948 66.2496 111.408 66.2496 111.832C66.2496 112.192 66.2496 112.528 66.2496 112.84C66.2496 113.144 66.2536 113.448 66.2616 113.752C66.2696 114.048 66.2816 114.372 66.2976 114.724C66.3056 114.828 66.3136 114.948 66.3216 115.084C66.3296 115.22 66.3416 115.344 66.3576 115.456H65.3136C65.3296 115.344 65.3376 115.22 65.3376 115.084C65.3456 114.956 65.3496 114.844 65.3496 114.748C65.3576 114.364 65.3616 114.024 65.3616 113.728C65.3616 113.432 65.3616 113.128 65.3616 112.816C65.3696 112.496 65.3776 112.116 65.3856 111.676C65.3856 111.5 65.3936 111.26 65.4096 110.956C65.4256 110.644 65.4456 110.304 65.4696 109.936C65.4936 109.56 65.5176 109.18 65.5416 108.796C65.5656 108.412 65.5896 108.052 65.6136 107.716C65.6376 107.372 65.6576 107.08 65.6736 106.84C65.6896 106.6 65.6976 106.44 65.6976 106.36ZM81.0576 105.472C81.0416 105.576 81.0256 105.692 81.0096 105.82C81.0016 105.948 80.9936 106.1 80.9856 106.276C80.9856 106.396 80.9816 106.576 80.9736 106.816C80.9736 107.056 80.9736 107.328 80.9736 107.632C80.9736 107.928 80.9736 108.228 80.9736 108.532C80.9736 108.836 80.9736 109.116 80.9736 109.372C80.9736 109.772 80.9816 110.192 80.9976 110.632C81.0136 111.072 81.0336 111.5 81.0576 111.916C81.0816 112.332 81.1016 112.712 81.1176 113.056C81.1336 113.4 81.1416 113.672 81.1416 113.872C81.1416 114.152 81.0736 114.42 80.9376 114.676C80.8096 114.932 80.5896 115.14 80.2776 115.3C79.9736 115.468 79.5576 115.552 79.0296 115.552C78.1656 115.552 77.5056 115.4 77.0496 115.096C76.5936 114.8 76.3656 114.364 76.3656 113.788C76.3656 113.42 76.4736 113.1 76.6896 112.828C76.9136 112.556 77.2336 112.344 77.6496 112.192C78.0656 112.032 78.5616 111.952 79.1376 111.952C79.7696 111.952 80.3616 112.028 80.9136 112.18C81.4736 112.324 81.9856 112.508 82.4496 112.732C82.9136 112.956 83.3256 113.192 83.6856 113.44C84.0456 113.68 84.3416 113.896 84.5736 114.088L84.0216 114.94C83.7496 114.684 83.4336 114.428 83.0736 114.172C82.7216 113.916 82.3336 113.68 81.9096 113.464C81.4936 113.248 81.0416 113.076 80.5536 112.948C80.0736 112.812 79.5616 112.744 79.0176 112.744C78.4416 112.744 78.0016 112.84 77.6976 113.032C77.4016 113.224 77.2536 113.46 77.2536 113.74C77.2536 113.916 77.3096 114.08 77.4216 114.232C77.5336 114.376 77.7136 114.492 77.9616 114.58C78.2096 114.668 78.5296 114.712 78.9216 114.712C79.1536 114.712 79.3656 114.684 79.5576 114.628C79.7496 114.564 79.9016 114.456 80.0136 114.304C80.1336 114.152 80.1936 113.94 80.1936 113.668C80.1936 113.436 80.1856 113.136 80.1696 112.768C80.1616 112.392 80.1496 111.996 80.1336 111.58C80.1176 111.156 80.1016 110.748 80.0856 110.356C80.0776 109.964 80.0736 109.636 80.0736 109.372C80.0736 109.1 80.0736 108.824 80.0736 108.544C80.0736 108.256 80.0736 107.972 80.0736 107.692C80.0736 107.412 80.0736 107.144 80.0736 106.888C80.0816 106.632 80.0856 106.4 80.0856 106.192C80.0856 106.096 80.0816 105.972 80.0736 105.82C80.0656 105.668 80.0536 105.552 80.0376 105.472H81.0576ZM76.4616 106.78C76.6616 106.812 76.8936 106.844 77.1576 106.876C77.4216 106.908 77.6976 106.94 77.9856 106.972C78.2816 106.996 78.5616 107.016 78.8256 107.032C79.0976 107.04 79.3336 107.044 79.5336 107.044C80.2936 107.044 81.0696 107.016 81.8616 106.96C82.6616 106.904 83.4496 106.812 84.2256 106.684L84.2136 107.56C83.7736 107.608 83.2936 107.656 82.7736 107.704C82.2536 107.752 81.7176 107.792 81.1656 107.824C80.6216 107.856 80.0816 107.872 79.5456 107.872C79.2656 107.872 78.9336 107.86 78.5496 107.836C78.1656 107.812 77.7856 107.784 77.4096 107.752C77.0416 107.72 76.7296 107.692 76.4736 107.668L76.4616 106.78ZM76.4016 109.324C76.6176 109.356 76.8576 109.388 77.1216 109.42C77.3856 109.452 77.6576 109.476 77.9376 109.492C78.2176 109.508 78.4856 109.524 78.7416 109.54C78.9976 109.548 79.2256 109.552 79.4256 109.552C80.0096 109.552 80.5736 109.54 81.1176 109.516C81.6696 109.484 82.2096 109.444 82.7376 109.396C83.2736 109.34 83.8016 109.272 84.3216 109.192L84.3096 110.092C83.9096 110.148 83.5096 110.196 83.1096 110.236C82.7176 110.268 82.3216 110.296 81.9216 110.32C81.5296 110.344 81.1256 110.364 80.7096 110.38C80.3016 110.388 79.8696 110.392 79.4136 110.392C79.1416 110.392 78.8256 110.384 78.4656 110.368C78.1136 110.352 77.7536 110.332 77.3856 110.308C77.0256 110.284 76.7016 110.256 76.4136 110.224L76.4016 109.324ZM94.6984 105.748C94.6904 105.812 94.6824 105.896 94.6744 106C94.6664 106.104 94.6584 106.212 94.6504 106.324C94.6504 106.428 94.6464 106.524 94.6384 106.612C94.6384 106.86 94.6344 107.116 94.6264 107.38C94.6264 107.644 94.6224 107.9 94.6144 108.148C94.6144 108.388 94.6104 108.612 94.6024 108.82C94.5944 109.124 94.5824 109.46 94.5664 109.828C94.5584 110.188 94.5424 110.532 94.5184 110.86C94.5024 111.188 94.4704 111.456 94.4224 111.664C94.3664 111.928 94.2664 112.108 94.1224 112.204C93.9864 112.3 93.7784 112.348 93.4984 112.348C93.3544 112.348 93.1784 112.34 92.9704 112.324C92.7624 112.3 92.5624 112.276 92.3704 112.252C92.1784 112.228 92.0264 112.204 91.9144 112.18L91.9384 111.352C92.1464 111.4 92.3624 111.44 92.5864 111.472C92.8184 111.496 93.0024 111.508 93.1384 111.508C93.2904 111.508 93.3984 111.488 93.4624 111.448C93.5344 111.408 93.5784 111.32 93.5944 111.184C93.6264 111.024 93.6504 110.816 93.6664 110.56C93.6824 110.296 93.6944 110.012 93.7024 109.708C93.7184 109.396 93.7304 109.1 93.7384 108.82C93.7384 108.596 93.7384 108.36 93.7384 108.112C93.7384 107.856 93.7384 107.604 93.7384 107.356C93.7384 107.1 93.7384 106.864 93.7384 106.648C93.7384 106.56 93.7344 106.46 93.7264 106.348C93.7264 106.236 93.7224 106.128 93.7144 106.024C93.7064 105.912 93.6944 105.82 93.6784 105.748H94.6984ZM89.9464 106.12C89.9304 106.264 89.9184 106.416 89.9104 106.576C89.9024 106.736 89.8984 106.908 89.8984 107.092C89.8984 107.348 89.8944 107.676 89.8864 108.076C89.8864 108.468 89.8824 108.888 89.8744 109.336C89.8744 109.776 89.8744 110.208 89.8744 110.632C89.8744 111.056 89.8744 111.436 89.8744 111.772C89.8744 112.108 89.8784 112.36 89.8864 112.528C89.9024 112.848 89.9224 113.12 89.9464 113.344C89.9784 113.568 90.0584 113.748 90.1864 113.884C90.3144 114.02 90.5224 114.12 90.8104 114.184C91.0984 114.248 91.5024 114.28 92.0224 114.28C92.4544 114.28 92.8944 114.268 93.3424 114.244C93.7904 114.212 94.2104 114.176 94.6024 114.136C95.0024 114.088 95.3304 114.04 95.5864 113.992L95.5504 115.012C95.2864 115.036 94.9584 115.064 94.5664 115.096C94.1744 115.128 93.7624 115.152 93.3304 115.168C92.8984 115.192 92.4784 115.204 92.0704 115.204C91.3744 115.204 90.8224 115.16 90.4144 115.072C90.0064 114.984 89.7024 114.844 89.5024 114.652C89.3024 114.452 89.1664 114.188 89.0944 113.86C89.0304 113.532 88.9904 113.132 88.9744 112.66C88.9744 112.492 88.9704 112.256 88.9624 111.952C88.9624 111.64 88.9624 111.292 88.9624 110.908C88.9624 110.516 88.9624 110.12 88.9624 109.72C88.9624 109.32 88.9624 108.94 88.9624 108.58C88.9704 108.22 88.9744 107.912 88.9744 107.656C88.9744 107.4 88.9744 107.228 88.9744 107.14C88.9744 106.956 88.9664 106.788 88.9504 106.636C88.9424 106.476 88.9264 106.304 88.9024 106.12H89.9464ZM86.3584 109C86.5504 109 86.7504 108.992 86.9584 108.976C87.1744 108.96 87.3904 108.944 87.6064 108.928C87.8704 108.904 88.2464 108.868 88.7344 108.82C89.2224 108.772 89.7744 108.72 90.3904 108.664C91.0144 108.608 91.6584 108.552 92.3224 108.496C92.9864 108.432 93.6304 108.376 94.2544 108.328C94.8864 108.272 95.4504 108.232 95.9464 108.208C96.0984 108.192 96.2544 108.18 96.4144 108.172C96.5824 108.164 96.7384 108.156 96.8824 108.148V109.084C96.8184 109.076 96.7304 109.076 96.6184 109.084C96.5144 109.084 96.3984 109.084 96.2704 109.084C96.1504 109.084 96.0384 109.084 95.9344 109.084C95.6144 109.092 95.2264 109.112 94.7704 109.144C94.3144 109.168 93.8184 109.204 93.2824 109.252C92.7544 109.292 92.2144 109.34 91.6624 109.396C91.1104 109.444 90.5784 109.496 90.0664 109.552C89.5544 109.608 89.0904 109.66 88.6744 109.708C88.2664 109.748 87.9344 109.784 87.6784 109.816C87.5584 109.832 87.4224 109.852 87.2704 109.876C87.1264 109.892 86.9824 109.912 86.8384 109.936C86.6944 109.952 86.5704 109.968 86.4664 109.984L86.3584 109ZM104.382 106.096C104.334 106.16 104.274 106.248 104.202 106.36C104.138 106.464 104.07 106.572 103.998 106.684C103.862 106.884 103.698 107.152 103.506 107.488C103.322 107.816 103.122 108.172 102.906 108.556C102.69 108.932 102.478 109.304 102.27 109.672C102.07 110.04 101.894 110.372 101.742 110.668C102.03 110.404 102.326 110.216 102.63 110.104C102.942 109.984 103.242 109.924 103.53 109.924C103.93 109.924 104.258 110.048 104.514 110.296C104.778 110.544 104.918 110.904 104.934 111.376C104.942 111.616 104.946 111.872 104.946 112.144C104.954 112.408 104.958 112.668 104.958 112.924C104.958 113.172 104.966 113.396 104.982 113.596C105.006 113.9 105.11 114.12 105.294 114.256C105.478 114.384 105.698 114.448 105.954 114.448C106.282 114.448 106.578 114.36 106.842 114.184C107.114 114 107.35 113.76 107.55 113.464C107.758 113.168 107.93 112.848 108.066 112.504C108.202 112.16 108.31 111.832 108.39 111.52L109.182 112.168C108.974 112.808 108.718 113.376 108.414 113.872C108.11 114.36 107.742 114.744 107.31 115.024C106.886 115.304 106.382 115.444 105.798 115.444C105.374 115.444 105.034 115.364 104.778 115.204C104.53 115.052 104.35 114.86 104.238 114.628C104.134 114.396 104.074 114.16 104.058 113.92C104.05 113.688 104.042 113.436 104.034 113.164C104.034 112.892 104.034 112.624 104.034 112.36C104.034 112.096 104.026 111.856 104.01 111.64C103.994 111.376 103.91 111.172 103.758 111.028C103.614 110.876 103.406 110.8 103.134 110.8C102.814 110.8 102.502 110.896 102.198 111.088C101.902 111.272 101.63 111.512 101.382 111.808C101.142 112.104 100.946 112.412 100.794 112.732C100.706 112.908 100.606 113.12 100.494 113.368C100.39 113.616 100.29 113.872 100.194 114.136C100.098 114.4 100.01 114.648 99.9304 114.88C99.8584 115.112 99.8024 115.304 99.7624 115.456L98.7304 115.096C98.8744 114.688 99.0624 114.224 99.2944 113.704C99.5264 113.184 99.7784 112.64 100.05 112.072C100.322 111.496 100.602 110.928 100.89 110.368C101.178 109.8 101.45 109.268 101.706 108.772C101.97 108.268 102.206 107.828 102.414 107.452C102.622 107.068 102.778 106.78 102.882 106.588C102.954 106.444 103.026 106.3 103.098 106.156C103.178 106.004 103.254 105.84 103.326 105.664L104.382 106.096Z" fill="#020057"/>
</g>
<defs>
<filter id="filter0_dd_3872_63020" x="0.8" y="2.38419e-07" width="146.4" height="146.4" filterUnits="userSpaceOnUse" color-interpolation-filters="sRGB">
<feFlood flood-opacity="0" result="BackgroundImageFix"/>
<feColorMatrix in="SourceAlpha" type="matrix" values="0 0 0 0 0 0 0 0 0 0 0 0 0 0 0 0 0 0 127 0" result="hardAlpha"/>
<feOffset dy="3.2"/>
<feGaussianBlur stdDeviation="3.6"/>
<feColorMatrix type="matrix" values="0 0 0 0 0.513726 0 0 0 0 0.494118 0 0 0 0 1 0 0 0 0.12 0"/>
<feBlend mode="normal" in2="BackgroundImageFix" result="effect1_dropShadow_3872_63020"/>
<feColorMatrix in="SourceAlpha" type="matrix" values="0 0 0 0 0 0 0 0 0 0 0 0 0 0 0 0 0 0 127 0" result="hardAlpha"/>
<feOffset dy="0.6"/>
<feGaussianBlur stdDeviation="0.9"/>
<feColorMatrix type="matrix" values="0 0 0 0 0.513726 0 0 0 0 0.494118 0 0 0 0 1 0 0 0 0.1 0"/>
<feBlend mode="normal" in2="effect1_dropShadow_3872_63020" result="effect2_dropShadow_3872_63020"/>
<feBlend mode="normal" in="SourceGraphic" in2="effect2_dropShadow_3872_63020" result="shape"/>
</filter>
</defs>
</svg>
