<svg width="100%" viewBox="0 0 148 147" fill="none" xmlns="http://www.w3.org/2000/svg">
<g filter="url(#filter0_dd_3872_63021)">
<rect x="8" y="4" width="132" height="132" fill="#FBFBFE"/>
<rect x="8.5" y="4.5" width="131" height="131" stroke="#827DFF" stroke-dasharray="4 4"/>
<rect width="100" height="96" transform="translate(24 22)" fill="#FBFBFE"/>
<path d="M65.4247 32.5758C65.1903 32.3414 64.8104 32.3414 64.5761 32.5758C64.3418 32.8101 64.3418 33.19 64.5761 33.4243L66.0974 34.9456C65.7833 35.4199 65.6004 35.9886 65.6004 36.6V47.4C65.6004 49.0569 66.9435 50.4 68.6004 50.4H79.4004C80.0118 50.4 80.5806 50.2171 81.0548 49.903L82.5761 51.4243C82.8104 51.6586 83.1903 51.6586 83.4247 51.4243C83.659 51.19 83.659 50.8101 83.4247 50.5758L65.4247 32.5758ZM80.1764 49.0246C79.9415 49.1371 79.6783 49.2 79.4004 49.2H68.6004C67.6063 49.2 66.8004 48.3941 66.8004 47.4V38.4H69.5519L80.1764 49.0246ZM81.2004 38.4V46.6544L82.3706 47.8246C82.3902 47.6859 82.4004 47.5442 82.4004 47.4V36.6C82.4004 34.9432 81.0572 33.6 79.4004 33.6H68.6004C68.4563 33.6 68.3145 33.6102 68.1758 33.6298L72.946 38.4H81.2004Z" fill="#020057"/>
<path d="M51.4355 74.6484C50.8145 74.9766 50.041 75.1406 49.1152 75.1406C47.9199 75.1406 46.9629 74.7559 46.2441 73.9863C45.5254 73.2168 45.166 72.207 45.166 70.957C45.166 69.6133 45.5703 68.5273 46.3789 67.6992C47.1875 66.8711 48.2129 66.457 49.4551 66.457C50.252 66.457 50.9121 66.5723 51.4355 66.8027V67.8516C50.834 67.5156 50.1699 67.3477 49.4434 67.3477C48.4785 67.3477 47.6953 67.6699 47.0938 68.3145C46.4961 68.959 46.1973 69.8203 46.1973 70.8984C46.1973 71.9219 46.4766 72.7383 47.0352 73.3477C47.5977 73.9531 48.334 74.2559 49.2441 74.2559C50.0879 74.2559 50.8184 74.0684 51.4355 73.6934V74.6484ZM53.9785 75H53.0176V66.1172H53.9785V75ZM60.2188 75H59.2578V74.0625H59.2344C58.8164 74.7812 58.2012 75.1406 57.3887 75.1406C56.791 75.1406 56.3223 74.9824 55.9824 74.666C55.6465 74.3496 55.4785 73.9297 55.4785 73.4062C55.4785 72.2852 56.1387 71.6328 57.459 71.4492L59.2578 71.1973C59.2578 70.1777 58.8457 69.668 58.0215 69.668C57.2988 69.668 56.6465 69.9141 56.0645 70.4062V69.4219C56.6543 69.0469 57.334 68.8594 58.1035 68.8594C59.5137 68.8594 60.2188 69.6055 60.2188 71.0977V75ZM59.2578 71.9648L57.8105 72.1641C57.3652 72.2266 57.0293 72.3379 56.8027 72.498C56.5762 72.6543 56.4629 72.9336 56.4629 73.3359C56.4629 73.6289 56.5664 73.8691 56.7734 74.0566C56.9844 74.2402 57.2637 74.332 57.6113 74.332C58.0879 74.332 58.4805 74.166 58.7891 73.834C59.1016 73.498 59.2578 73.0742 59.2578 72.5625V71.9648ZM65.1582 69.9727C64.9902 69.8438 64.748 69.7793 64.4316 69.7793C64.0215 69.7793 63.6777 69.9727 63.4004 70.3594C63.127 70.7461 62.9902 71.2734 62.9902 71.9414V75H62.0293V69H62.9902V70.2363H63.0137C63.1504 69.8145 63.3594 69.4863 63.6406 69.252C63.9219 69.0137 64.2363 68.8945 64.584 68.8945C64.834 68.8945 65.0254 68.9219 65.1582 68.9766V69.9727ZM66.6934 67.4766C66.5215 67.4766 66.375 67.418 66.2539 67.3008C66.1328 67.1836 66.0723 67.0352 66.0723 66.8555C66.0723 66.6758 66.1328 66.5273 66.2539 66.4102C66.375 66.2891 66.5215 66.2285 66.6934 66.2285C66.8691 66.2285 67.0176 66.2891 67.1387 66.4102C67.2637 66.5273 67.3262 66.6758 67.3262 66.8555C67.3262 67.0273 67.2637 67.1738 67.1387 67.2949C67.0176 67.416 66.8691 67.4766 66.6934 67.4766ZM67.1621 75H66.2012V69H67.1621V75ZM71.8906 74.9414C71.6641 75.0664 71.3652 75.1289 70.9941 75.1289C69.9434 75.1289 69.418 74.543 69.418 73.3711V69.8203H68.3867V69H69.418V67.5352L70.3789 67.2246V69H71.8906V69.8203H70.3789V73.2012C70.3789 73.6035 70.4473 73.8906 70.584 74.0625C70.7207 74.2344 70.9473 74.3203 71.2637 74.3203C71.5059 74.3203 71.7148 74.2539 71.8906 74.1211V74.9414ZM77.9492 69L75.1895 75.9609C74.6973 77.2031 74.0059 77.8242 73.1152 77.8242C72.8652 77.8242 72.6562 77.7988 72.4883 77.748V76.8867C72.6953 76.957 72.8848 76.9922 73.0566 76.9922C73.541 76.9922 73.9043 76.7031 74.1465 76.125L74.627 74.9883L72.2832 69H73.3496L74.9727 73.6172C74.9922 73.6758 75.0332 73.8281 75.0957 74.0742H75.1309C75.1504 73.9805 75.1895 73.832 75.248 73.6289L76.9531 69H77.9492ZM79.9337 68.34H87.3137V69.144H79.9337V68.34ZM78.6017 70.596H88.4417V71.412H78.6017V70.596ZM79.9337 65.472H80.9177V68.748H79.9337V65.472ZM79.8617 74.856H87.3737V75.672H79.8617V74.856ZM79.8617 72.504H80.8577V75.072H79.8617V72.504ZM93.4137 72.492H94.2657C94.9297 72.492 95.5377 72.484 96.0897 72.468C96.6417 72.452 97.1737 72.42 97.6857 72.372C98.2057 72.324 98.7377 72.252 99.2817 72.156L99.3777 72.972C98.8257 73.068 98.2857 73.144 97.7577 73.2C97.2297 73.248 96.6817 73.28 96.1137 73.296C95.5537 73.312 94.9377 73.32 94.2657 73.32H93.4137V72.492ZM93.4137 66.06H98.4657V66.888H94.4097V72.78H93.4137V66.06ZM94.1577 69.108H98.2257V69.912H94.1577V69.108ZM100.29 65.076H101.286V75.936H100.29V65.076ZM101.058 69.432H103.062V70.272H101.058V69.432ZM39.5704 82.012H40.3864V83.956C40.3864 84.556 40.3104 85.144 40.1584 85.72C40.0144 86.296 39.8064 86.836 39.5344 87.34C39.2624 87.844 38.9424 88.292 38.5744 88.684C38.2064 89.076 37.8064 89.388 37.3744 89.62L36.7624 88.816C37.1624 88.616 37.5304 88.348 37.8664 88.012C38.2104 87.668 38.5104 87.276 38.7664 86.836C39.0224 86.396 39.2184 85.932 39.3544 85.444C39.4984 84.948 39.5704 84.452 39.5704 83.956V82.012ZM39.7504 82.012H40.5544V83.956C40.5544 84.436 40.6224 84.912 40.7584 85.384C40.9024 85.856 41.1024 86.3 41.3584 86.716C41.6144 87.132 41.9064 87.504 42.2344 87.832C42.5704 88.16 42.9304 88.42 43.3144 88.612L42.7024 89.404C42.2784 89.188 41.8864 88.892 41.5264 88.516C41.1744 88.14 40.8624 87.712 40.5904 87.232C40.3264 86.744 40.1184 86.224 39.9664 85.672C39.8224 85.112 39.7504 84.54 39.7504 83.956V82.012ZM44.2624 81.076H45.2584V91.936H44.2624V81.076ZM45.0304 85.468H47.0344V86.32H45.0304V85.468ZM52.1152 83.4766C51.9434 83.4766 51.7969 83.418 51.6758 83.3008C51.5547 83.1836 51.4941 83.0352 51.4941 82.8555C51.4941 82.6758 51.5547 82.5273 51.6758 82.4102C51.7969 82.2891 51.9434 82.2285 52.1152 82.2285C52.291 82.2285 52.4395 82.2891 52.5605 82.4102C52.6855 82.5273 52.748 82.6758 52.748 82.8555C52.748 83.0273 52.6855 83.1738 52.5605 83.2949C52.4395 83.416 52.291 83.4766 52.1152 83.4766ZM52.584 91H51.623V85H52.584V91ZM58.9238 83.4883H55.6426V86.3945H58.6777V87.2793H55.6426V91H54.6582V82.5977H58.9238V83.4883ZM63.5176 85.9727C63.3496 85.8438 63.1074 85.7793 62.791 85.7793C62.3809 85.7793 62.0371 85.9727 61.7598 86.3594C61.4863 86.7461 61.3496 87.2734 61.3496 87.9414V91H60.3887V85H61.3496V86.2363H61.373C61.5098 85.8145 61.7188 85.4863 62 85.252C62.2812 85.0137 62.5957 84.8945 62.9434 84.8945C63.1934 84.8945 63.3848 84.9219 63.5176 84.9766V85.9727ZM68.8555 91H67.8945V90.0625H67.8711C67.4531 90.7812 66.8379 91.1406 66.0254 91.1406C65.4277 91.1406 64.959 90.9824 64.6191 90.666C64.2832 90.3496 64.1152 89.9297 64.1152 89.4062C64.1152 88.2852 64.7754 87.6328 66.0957 87.4492L67.8945 87.1973C67.8945 86.1777 67.4824 85.668 66.6582 85.668C65.9355 85.668 65.2832 85.9141 64.7012 86.4062V85.4219C65.291 85.0469 65.9707 84.8594 66.7402 84.8594C68.1504 84.8594 68.8555 85.6055 68.8555 87.0977V91ZM67.8945 87.9648L66.4473 88.1641C66.002 88.2266 65.666 88.3379 65.4395 88.498C65.2129 88.6543 65.0996 88.9336 65.0996 89.3359C65.0996 89.6289 65.2031 89.8691 65.4102 90.0566C65.6211 90.2402 65.9004 90.332 66.248 90.332C66.7246 90.332 67.1172 90.166 67.4258 89.834C67.7383 89.498 67.8945 89.0742 67.8945 88.5625V87.9648ZM79.1855 91H78.2246V87.5547C78.2246 86.8906 78.1211 86.4102 77.9141 86.1133C77.7109 85.8164 77.3672 85.668 76.8828 85.668C76.4727 85.668 76.123 85.8555 75.834 86.2305C75.5488 86.6055 75.4062 87.0547 75.4062 87.5781V91H74.4453V87.4375C74.4453 86.2578 73.9902 85.668 73.0801 85.668C72.6582 85.668 72.3105 85.8457 72.0371 86.2012C71.7637 86.5527 71.627 87.0117 71.627 87.5781V91H70.666V85H71.627V85.9492H71.6504C72.0762 85.2227 72.6973 84.8594 73.5137 84.8594C73.9238 84.8594 74.2812 84.9746 74.5859 85.2051C74.8906 85.4316 75.0996 85.7305 75.2129 86.1016C75.6582 85.2734 76.3223 84.8594 77.2051 84.8594C78.5254 84.8594 79.1855 85.6738 79.1855 87.3027V91ZM85.8242 88.2402H81.5879C81.6035 88.9082 81.7832 89.4238 82.127 89.7871C82.4707 90.1504 82.9434 90.332 83.5449 90.332C84.2207 90.332 84.8418 90.1094 85.4082 89.6641V90.5664C84.8809 90.9492 84.1836 91.1406 83.3164 91.1406C82.4688 91.1406 81.8027 90.8691 81.3184 90.3262C80.834 89.7793 80.5918 89.0117 80.5918 88.0234C80.5918 87.0898 80.8555 86.3301 81.3828 85.7441C81.9141 85.1543 82.5723 84.8594 83.3574 84.8594C84.1426 84.8594 84.75 85.1133 85.1797 85.6211C85.6094 86.1289 85.8242 86.834 85.8242 87.7363V88.2402ZM84.8398 87.4258C84.8359 86.8711 84.7012 86.4395 84.4355 86.1309C84.1738 85.8223 83.8086 85.668 83.3398 85.668C82.8867 85.668 82.502 85.8301 82.1855 86.1543C81.8691 86.4785 81.6738 86.9023 81.5996 87.4258H84.8398ZM91.8065 81.268C93.0065 81.268 93.9425 81.432 94.6145 81.76C95.2865 82.08 95.6225 82.54 95.6225 83.14C95.6225 83.748 95.2865 84.216 94.6145 84.544C93.9425 84.864 93.0065 85.024 91.8065 85.024C90.6145 85.024 89.6785 84.864 88.9985 84.544C88.3265 84.216 87.9905 83.748 87.9905 83.14C87.9905 82.54 88.3265 82.08 88.9985 81.76C89.6785 81.432 90.6145 81.268 91.8065 81.268ZM91.8065 82.012C91.2225 82.012 90.7225 82.056 90.3065 82.144C89.8905 82.232 89.5705 82.36 89.3465 82.528C89.1305 82.696 89.0225 82.9 89.0225 83.14C89.0225 83.38 89.1305 83.588 89.3465 83.764C89.5705 83.932 89.8905 84.06 90.3065 84.148C90.7225 84.228 91.2225 84.268 91.8065 84.268C92.3985 84.268 92.9025 84.228 93.3185 84.148C93.7345 84.06 94.0505 83.932 94.2665 83.764C94.4905 83.588 94.6025 83.38 94.6025 83.14C94.6025 82.9 94.4905 82.696 94.2665 82.528C94.0505 82.36 93.7345 82.232 93.3185 82.144C92.9025 82.056 92.3985 82.012 91.8065 82.012ZM86.9105 85.756H96.7145V86.56H86.9105V85.756ZM88.0985 87.484H95.4545V89.932H89.0945V91.24H88.1225V89.2H94.4825V88.252H88.0985V87.484ZM88.1225 91.036H95.7785V91.816H88.1225V91.036ZM109.139 81.076H110.135V86.836H109.139V81.076ZM102.611 91.024H103.271C103.791 91.024 104.251 91.016 104.651 91C105.059 90.992 105.443 90.972 105.803 90.94C106.163 90.908 106.535 90.856 106.919 90.784L107.027 91.54C106.627 91.612 106.239 91.664 105.863 91.696C105.495 91.736 105.103 91.76 104.687 91.768C104.271 91.784 103.799 91.792 103.271 91.792H102.611V91.024ZM102.599 87.316H106.187V89.836H103.571V91.444H102.611V89.116H105.215V88.084H102.599V87.316ZM106.655 87.316H110.135V91.852H109.151V88.132H106.655V87.316ZM104.291 81.568C104.835 81.568 105.315 81.672 105.731 81.88C106.155 82.088 106.487 82.376 106.727 82.744C106.967 83.104 107.087 83.524 107.087 84.004C107.087 84.484 106.967 84.908 106.727 85.276C106.487 85.644 106.155 85.932 105.731 86.14C105.315 86.34 104.835 86.44 104.291 86.44C103.755 86.44 103.275 86.34 102.851 86.14C102.427 85.932 102.091 85.644 101.843 85.276C101.603 84.908 101.483 84.484 101.483 84.004C101.483 83.524 101.603 83.104 101.843 82.744C102.091 82.376 102.427 82.088 102.851 81.88C103.275 81.672 103.755 81.568 104.291 81.568ZM104.291 82.396C103.939 82.396 103.623 82.464 103.343 82.6C103.071 82.736 102.855 82.928 102.695 83.176C102.535 83.416 102.455 83.692 102.455 84.004C102.455 84.324 102.535 84.608 102.695 84.856C102.855 85.096 103.071 85.284 103.343 85.42C103.623 85.556 103.939 85.624 104.291 85.624C104.643 85.624 104.955 85.556 105.227 85.42C105.507 85.284 105.727 85.096 105.887 84.856C106.047 84.608 106.127 84.324 106.127 84.004C106.127 83.692 106.047 83.416 105.887 83.176C105.727 82.928 105.507 82.736 105.227 82.6C104.955 82.464 104.643 82.396 104.291 82.396ZM43.0858 97.268C44.2858 97.268 45.2218 97.432 45.8938 97.76C46.5658 98.08 46.9018 98.54 46.9018 99.14C46.9018 99.748 46.5658 100.216 45.8938 100.544C45.2218 100.864 44.2858 101.024 43.0858 101.024C41.8938 101.024 40.9578 100.864 40.2778 100.544C39.6058 100.216 39.2698 99.748 39.2698 99.14C39.2698 98.54 39.6058 98.08 40.2778 97.76C40.9578 97.432 41.8938 97.268 43.0858 97.268ZM43.0858 98.012C42.5018 98.012 42.0018 98.056 41.5858 98.144C41.1698 98.232 40.8498 98.36 40.6258 98.528C40.4098 98.696 40.3018 98.9 40.3018 99.14C40.3018 99.38 40.4098 99.588 40.6258 99.764C40.8498 99.932 41.1698 100.06 41.5858 100.148C42.0018 100.228 42.5018 100.268 43.0858 100.268C43.6778 100.268 44.1818 100.228 44.5978 100.148C45.0138 100.06 45.3298 99.932 45.5458 99.764C45.7698 99.588 45.8818 99.38 45.8818 99.14C45.8818 98.9 45.7698 98.696 45.5458 98.528C45.3298 98.36 45.0138 98.232 44.5978 98.144C44.1818 98.056 43.6778 98.012 43.0858 98.012ZM38.1898 101.756H47.9938V102.56H38.1898V101.756ZM39.3778 103.484H46.7338V105.932H40.3738V107.24H39.4018V105.2H45.7618V104.252H39.3778V103.484ZM39.4018 107.036H47.0578V107.816H39.4018V107.036ZM56.9139 97.46H57.7899V98.072C57.7899 98.488 57.7099 98.88 57.5499 99.248C57.3899 99.608 57.1699 99.94 56.8899 100.244C56.6179 100.548 56.2979 100.82 55.9299 101.06C55.5619 101.3 55.1619 101.5 54.7299 101.66C54.3059 101.82 53.8699 101.936 53.4219 102.008L53.0139 101.204C53.4139 101.148 53.8019 101.052 54.1779 100.916C54.5619 100.78 54.9179 100.616 55.2459 100.424C55.5739 100.224 55.8619 100 56.1099 99.752C56.3659 99.504 56.5619 99.24 56.6979 98.96C56.8419 98.672 56.9139 98.376 56.9139 98.072V97.46ZM57.0819 97.46H57.9459V98.072C57.9459 98.376 58.0179 98.668 58.1619 98.948C58.3059 99.228 58.5019 99.492 58.7499 99.74C59.0059 99.988 59.2979 100.212 59.6259 100.412C59.9539 100.612 60.3059 100.78 60.6819 100.916C61.0659 101.052 61.4539 101.148 61.8459 101.204L61.4499 102.008C61.0019 101.936 60.5659 101.82 60.1419 101.66C59.7179 101.492 59.3179 101.288 58.9419 101.048C58.5739 100.808 58.2499 100.536 57.9699 100.232C57.6979 99.928 57.4819 99.596 57.3219 99.236C57.1619 98.868 57.0819 98.48 57.0819 98.072V97.46ZM56.9139 103.808H57.8979V107.936H56.9139V103.808ZM52.5219 103.184H62.3259V104.012H52.5219V103.184ZM68.0899 103.448H69.0259V104.792H70.9219V103.448H71.8459V107.792H68.0899V103.448ZM69.0259 105.548V107.012H70.9219V105.548H69.0259ZM73.9459 103.376H74.7259V104.288C74.7259 104.776 74.6419 105.256 74.4739 105.728C74.3059 106.192 74.0539 106.612 73.7179 106.988C73.3899 107.364 72.9779 107.66 72.4819 107.876L71.9779 107.12C72.4099 106.936 72.7739 106.692 73.0699 106.388C73.3659 106.084 73.5859 105.748 73.7299 105.38C73.8739 105.012 73.9459 104.648 73.9459 104.288V103.376ZM74.1619 103.376H74.9299V104.288C74.9299 104.672 75.0019 105.052 75.1459 105.428C75.2979 105.796 75.5219 106.128 75.8179 106.424C76.1139 106.72 76.4779 106.952 76.9099 107.12L76.3939 107.876C75.8899 107.668 75.4739 107.38 75.1459 107.012C74.8179 106.644 74.5699 106.224 74.4019 105.752C74.2419 105.28 74.1619 104.792 74.1619 104.288V103.376ZM72.3019 99.62H75.2179V100.448H72.3019V99.62ZM69.8179 97.556C70.3539 97.556 70.8299 97.664 71.2459 97.88C71.6699 98.088 72.0019 98.38 72.2419 98.756C72.4819 99.124 72.6019 99.556 72.6019 100.052C72.6019 100.54 72.4819 100.976 72.2419 101.36C72.0019 101.736 71.6699 102.032 71.2459 102.248C70.8299 102.456 70.3539 102.56 69.8179 102.56C69.2739 102.56 68.7899 102.456 68.3659 102.248C67.9499 102.032 67.6219 101.736 67.3819 101.36C67.1419 100.976 67.0219 100.54 67.0219 100.052C67.0219 99.556 67.1419 99.124 67.3819 98.756C67.6219 98.38 67.9499 98.088 68.3659 97.88C68.7899 97.664 69.2739 97.556 69.8179 97.556ZM69.8179 98.384C69.4579 98.384 69.1379 98.456 68.8579 98.6C68.5859 98.736 68.3699 98.932 68.2099 99.188C68.0499 99.436 67.9699 99.724 67.9699 100.052C67.9699 100.38 68.0499 100.672 68.2099 100.928C68.3699 101.176 68.5859 101.372 68.8579 101.516C69.1379 101.66 69.4579 101.732 69.8179 101.732C70.1699 101.732 70.4819 101.66 70.7539 101.516C71.0339 101.372 71.2539 101.176 71.4139 100.928C71.5739 100.672 71.6539 100.38 71.6539 100.052C71.6539 99.724 71.5739 99.436 71.4139 99.188C71.2539 98.932 71.0339 98.736 70.7539 98.6C70.4819 98.456 70.1699 98.384 69.8179 98.384ZM74.7859 97.076H75.7819V102.824H74.7859V97.076ZM79.129 103.592H80.113V104.84H85.429V103.592H86.413V107.792H79.129V103.592ZM80.113 105.62V106.988H85.429V105.62H80.113ZM77.893 102.02H87.697V102.836H77.893V102.02ZM82.285 97.196H83.149V97.688C83.149 98.064 83.069 98.42 82.909 98.756C82.749 99.084 82.529 99.388 82.249 99.668C81.977 99.94 81.657 100.184 81.289 100.4C80.929 100.616 80.537 100.796 80.113 100.94C79.697 101.084 79.265 101.192 78.817 101.264L78.445 100.472C78.837 100.416 79.217 100.328 79.585 100.208C79.961 100.088 80.313 99.944 80.641 99.776C80.969 99.6 81.257 99.404 81.505 99.188C81.753 98.964 81.945 98.728 82.081 98.48C82.217 98.224 82.285 97.96 82.285 97.688V97.196ZM82.453 97.196H83.305V97.688C83.305 97.952 83.373 98.212 83.509 98.468C83.653 98.716 83.849 98.952 84.097 99.176C84.345 99.392 84.629 99.588 84.949 99.764C85.277 99.94 85.625 100.092 85.993 100.22C86.369 100.34 86.749 100.424 87.133 100.472L86.773 101.264C86.325 101.192 85.889 101.084 85.465 100.94C85.049 100.796 84.657 100.616 84.289 100.4C83.929 100.176 83.609 99.924 83.329 99.644C83.057 99.364 82.841 99.06 82.681 98.732C82.529 98.404 82.453 98.056 82.453 97.688V97.196ZM96.828 97.076H97.812V107.936H96.828V97.076ZM89.616 98.144H90.6V104.864H89.616V98.144ZM89.616 104.276H90.504C91.336 104.276 92.18 104.24 93.036 104.168C93.9 104.088 94.788 103.956 95.7 103.772L95.832 104.612C94.888 104.812 93.98 104.952 93.108 105.032C92.236 105.104 91.368 105.14 90.504 105.14H89.616V104.276ZM107.315 97.076H108.311V107.948H107.315V97.076ZM108.083 101.36H110.087V102.188H108.083V101.36ZM100.439 104.396H101.291C101.955 104.396 102.563 104.388 103.115 104.372C103.675 104.348 104.211 104.308 104.723 104.252C105.243 104.196 105.771 104.12 106.307 104.024L106.427 104.876C105.867 104.972 105.323 105.048 104.795 105.104C104.275 105.16 103.731 105.196 103.163 105.212C102.595 105.228 101.971 105.236 101.291 105.236H100.439V104.396ZM100.439 98.132H105.467V98.948H101.423V104.78H100.439V98.132Z" fill="#020057"/>
</g>
<defs>
<filter id="filter0_dd_3872_63021" x="0.8" y="2.38419e-07" width="146.4" height="146.4" filterUnits="userSpaceOnUse" color-interpolation-filters="sRGB">
<feFlood flood-opacity="0" result="BackgroundImageFix"/>
<feColorMatrix in="SourceAlpha" type="matrix" values="0 0 0 0 0 0 0 0 0 0 0 0 0 0 0 0 0 0 127 0" result="hardAlpha"/>
<feOffset dy="3.2"/>
<feGaussianBlur stdDeviation="3.6"/>
<feColorMatrix type="matrix" values="0 0 0 0 0.513726 0 0 0 0 0.494118 0 0 0 0 1 0 0 0 0.12 0"/>
<feBlend mode="normal" in2="BackgroundImageFix" result="effect1_dropShadow_3872_63021"/>
<feColorMatrix in="SourceAlpha" type="matrix" values="0 0 0 0 0 0 0 0 0 0 0 0 0 0 0 0 0 0 127 0" result="hardAlpha"/>
<feOffset dy="0.6"/>
<feGaussianBlur stdDeviation="0.9"/>
<feColorMatrix type="matrix" values="0 0 0 0 0.513726 0 0 0 0 0.494118 0 0 0 0 1 0 0 0 0.1 0"/>
<feBlend mode="normal" in2="effect1_dropShadow_3872_63021" result="effect2_dropShadow_3872_63021"/>
<feBlend mode="normal" in="SourceGraphic" in2="effect2_dropShadow_3872_63021" result="shape"/>
</filter>
</defs>
</svg>
