<svg width="100" height="96" viewBox="0 0 100 96" fill="none" xmlns="http://www.w3.org/2000/svg">
<rect width="100" height="96" fill="#FBFBFE"/>
<path d="M41.4247 10.5758C41.1903 10.3414 40.8104 10.3414 40.5761 10.5758C40.3418 10.8101 40.3418 11.19 40.5761 11.4243L42.0974 12.9456C41.7833 13.4199 41.6004 13.9886 41.6004 14.6V25.4C41.6004 27.0569 42.9435 28.4 44.6004 28.4H55.4004C56.0118 28.4 56.5806 28.2171 57.0548 27.903L58.5761 29.4243C58.8104 29.6586 59.1903 29.6586 59.4247 29.4243C59.659 29.19 59.659 28.8101 59.4247 28.5758L41.4247 10.5758ZM56.1764 27.0246C55.9415 27.1371 55.6783 27.2 55.4004 27.2H44.6004C43.6063 27.2 42.8004 26.3941 42.8004 25.4V16.4H45.5519L56.1764 27.0246ZM57.2004 16.4V24.6544L58.3706 25.8246C58.3902 25.6859 58.4004 25.5442 58.4004 25.4V14.6C58.4004 12.9432 57.0572 11.6 55.4004 11.6H44.6004C44.4563 11.6 44.3145 11.6102 44.1758 11.6298L48.946 16.4H57.2004Z" fill="#020057"/>
<path d="M27.4355 52.6484C26.8145 52.9766 26.041 53.1406 25.1152 53.1406C23.9199 53.1406 22.9629 52.7559 22.2441 51.9863C21.5254 51.2168 21.166 50.207 21.166 48.957C21.166 47.6133 21.5703 46.5273 22.3789 45.6992C23.1875 44.8711 24.2129 44.457 25.4551 44.457C26.252 44.457 26.9121 44.5723 27.4355 44.8027V45.8516C26.834 45.5156 26.1699 45.3477 25.4434 45.3477C24.4785 45.3477 23.6953 45.6699 23.0938 46.3145C22.4961 46.959 22.1973 47.8203 22.1973 48.8984C22.1973 49.9219 22.4766 50.7383 23.0352 51.3477C23.5977 51.9531 24.334 52.2559 25.2441 52.2559C26.0879 52.2559 26.8184 52.0684 27.4355 51.6934V52.6484ZM29.9785 53H29.0176V44.1172H29.9785V53ZM36.2188 53H35.2578V52.0625H35.2344C34.8164 52.7812 34.2012 53.1406 33.3887 53.1406C32.791 53.1406 32.3223 52.9824 31.9824 52.666C31.6465 52.3496 31.4785 51.9297 31.4785 51.4062C31.4785 50.2852 32.1387 49.6328 33.459 49.4492L35.2578 49.1973C35.2578 48.1777 34.8457 47.668 34.0215 47.668C33.2988 47.668 32.6465 47.9141 32.0645 48.4062V47.4219C32.6543 47.0469 33.334 46.8594 34.1035 46.8594C35.5137 46.8594 36.2188 47.6055 36.2188 49.0977V53ZM35.2578 49.9648L33.8105 50.1641C33.3652 50.2266 33.0293 50.3379 32.8027 50.498C32.5762 50.6543 32.4629 50.9336 32.4629 51.3359C32.4629 51.6289 32.5664 51.8691 32.7734 52.0566C32.9844 52.2402 33.2637 52.332 33.6113 52.332C34.0879 52.332 34.4805 52.166 34.7891 51.834C35.1016 51.498 35.2578 51.0742 35.2578 50.5625V49.9648ZM41.1582 47.9727C40.9902 47.8438 40.748 47.7793 40.4316 47.7793C40.0215 47.7793 39.6777 47.9727 39.4004 48.3594C39.127 48.7461 38.9902 49.2734 38.9902 49.9414V53H38.0293V47H38.9902V48.2363H39.0137C39.1504 47.8145 39.3594 47.4863 39.6406 47.252C39.9219 47.0137 40.2363 46.8945 40.584 46.8945C40.834 46.8945 41.0254 46.9219 41.1582 46.9766V47.9727ZM42.6934 45.4766C42.5215 45.4766 42.375 45.418 42.2539 45.3008C42.1328 45.1836 42.0723 45.0352 42.0723 44.8555C42.0723 44.6758 42.1328 44.5273 42.2539 44.4102C42.375 44.2891 42.5215 44.2285 42.6934 44.2285C42.8691 44.2285 43.0176 44.2891 43.1387 44.4102C43.2637 44.5273 43.3262 44.6758 43.3262 44.8555C43.3262 45.0273 43.2637 45.1738 43.1387 45.2949C43.0176 45.416 42.8691 45.4766 42.6934 45.4766ZM43.1621 53H42.2012V47H43.1621V53ZM47.8906 52.9414C47.6641 53.0664 47.3652 53.1289 46.9941 53.1289C45.9434 53.1289 45.418 52.543 45.418 51.3711V47.8203H44.3867V47H45.418V45.5352L46.3789 45.2246V47H47.8906V47.8203H46.3789V51.2012C46.3789 51.6035 46.4473 51.8906 46.584 52.0625C46.7207 52.2344 46.9473 52.3203 47.2637 52.3203C47.5059 52.3203 47.7148 52.2539 47.8906 52.1211V52.9414ZM53.9492 47L51.1895 53.9609C50.6973 55.2031 50.0059 55.8242 49.1152 55.8242C48.8652 55.8242 48.6562 55.7988 48.4883 55.748V54.8867C48.6953 54.957 48.8848 54.9922 49.0566 54.9922C49.541 54.9922 49.9043 54.7031 50.1465 54.125L50.627 52.9883L48.2832 47H49.3496L50.9727 51.6172C50.9922 51.6758 51.0332 51.8281 51.0957 52.0742H51.1309C51.1504 51.9805 51.1895 51.832 51.248 51.6289L52.9531 47H53.9492ZM55.9337 46.34H63.3137V47.144H55.9337V46.34ZM54.6017 48.596H64.4417V49.412H54.6017V48.596ZM55.9337 43.472H56.9177V46.748H55.9337V43.472ZM55.8617 52.856H63.3737V53.672H55.8617V52.856ZM55.8617 50.504H56.8577V53.072H55.8617V50.504ZM69.4137 50.492H70.2657C70.9297 50.492 71.5377 50.484 72.0897 50.468C72.6417 50.452 73.1737 50.42 73.6857 50.372C74.2057 50.324 74.7377 50.252 75.2817 50.156L75.3777 50.972C74.8257 51.068 74.2857 51.144 73.7577 51.2C73.2297 51.248 72.6817 51.28 72.1137 51.296C71.5537 51.312 70.9377 51.32 70.2657 51.32H69.4137V50.492ZM69.4137 44.06H74.4657V44.888H70.4097V50.78H69.4137V44.06ZM70.1577 47.108H74.2257V47.912H70.1577V47.108ZM76.2897 43.076H77.2857V53.936H76.2897V43.076ZM77.0577 47.432H79.0617V48.272H77.0577V47.432ZM15.5704 60.012H16.3864V61.956C16.3864 62.556 16.3104 63.144 16.1584 63.72C16.0144 64.296 15.8064 64.836 15.5344 65.34C15.2624 65.844 14.9424 66.292 14.5744 66.684C14.2064 67.076 13.8064 67.388 13.3744 67.62L12.7624 66.816C13.1624 66.616 13.5304 66.348 13.8664 66.012C14.2104 65.668 14.5104 65.276 14.7664 64.836C15.0224 64.396 15.2184 63.932 15.3544 63.444C15.4984 62.948 15.5704 62.452 15.5704 61.956V60.012ZM15.7504 60.012H16.5544V61.956C16.5544 62.436 16.6224 62.912 16.7584 63.384C16.9024 63.856 17.1024 64.3 17.3584 64.716C17.6144 65.132 17.9064 65.504 18.2344 65.832C18.5704 66.16 18.9304 66.42 19.3144 66.612L18.7024 67.404C18.2784 67.188 17.8864 66.892 17.5264 66.516C17.1744 66.14 16.8624 65.712 16.5904 65.232C16.3264 64.744 16.1184 64.224 15.9664 63.672C15.8224 63.112 15.7504 62.54 15.7504 61.956V60.012ZM20.2624 59.076H21.2584V69.936H20.2624V59.076ZM21.0304 63.468H23.0344V64.32H21.0304V63.468ZM28.1152 61.4766C27.9434 61.4766 27.7969 61.418 27.6758 61.3008C27.5547 61.1836 27.4941 61.0352 27.4941 60.8555C27.4941 60.6758 27.5547 60.5273 27.6758 60.4102C27.7969 60.2891 27.9434 60.2285 28.1152 60.2285C28.291 60.2285 28.4395 60.2891 28.5605 60.4102C28.6855 60.5273 28.748 60.6758 28.748 60.8555C28.748 61.0273 28.6855 61.1738 28.5605 61.2949C28.4395 61.416 28.291 61.4766 28.1152 61.4766ZM28.584 69H27.623V63H28.584V69ZM34.9238 61.4883H31.6426V64.3945H34.6777V65.2793H31.6426V69H30.6582V60.5977H34.9238V61.4883ZM39.5176 63.9727C39.3496 63.8438 39.1074 63.7793 38.791 63.7793C38.3809 63.7793 38.0371 63.9727 37.7598 64.3594C37.4863 64.7461 37.3496 65.2734 37.3496 65.9414V69H36.3887V63H37.3496V64.2363H37.373C37.5098 63.8145 37.7188 63.4863 38 63.252C38.2812 63.0137 38.5957 62.8945 38.9434 62.8945C39.1934 62.8945 39.3848 62.9219 39.5176 62.9766V63.9727ZM44.8555 69H43.8945V68.0625H43.8711C43.4531 68.7812 42.8379 69.1406 42.0254 69.1406C41.4277 69.1406 40.959 68.9824 40.6191 68.666C40.2832 68.3496 40.1152 67.9297 40.1152 67.4062C40.1152 66.2852 40.7754 65.6328 42.0957 65.4492L43.8945 65.1973C43.8945 64.1777 43.4824 63.668 42.6582 63.668C41.9355 63.668 41.2832 63.9141 40.7012 64.4062V63.4219C41.291 63.0469 41.9707 62.8594 42.7402 62.8594C44.1504 62.8594 44.8555 63.6055 44.8555 65.0977V69ZM43.8945 65.9648L42.4473 66.1641C42.002 66.2266 41.666 66.3379 41.4395 66.498C41.2129 66.6543 41.0996 66.9336 41.0996 67.3359C41.0996 67.6289 41.2031 67.8691 41.4102 68.0566C41.6211 68.2402 41.9004 68.332 42.248 68.332C42.7246 68.332 43.1172 68.166 43.4258 67.834C43.7383 67.498 43.8945 67.0742 43.8945 66.5625V65.9648ZM55.1855 69H54.2246V65.5547C54.2246 64.8906 54.1211 64.4102 53.9141 64.1133C53.7109 63.8164 53.3672 63.668 52.8828 63.668C52.4727 63.668 52.123 63.8555 51.834 64.2305C51.5488 64.6055 51.4062 65.0547 51.4062 65.5781V69H50.4453V65.4375C50.4453 64.2578 49.9902 63.668 49.0801 63.668C48.6582 63.668 48.3105 63.8457 48.0371 64.2012C47.7637 64.5527 47.627 65.0117 47.627 65.5781V69H46.666V63H47.627V63.9492H47.6504C48.0762 63.2227 48.6973 62.8594 49.5137 62.8594C49.9238 62.8594 50.2812 62.9746 50.5859 63.2051C50.8906 63.4316 51.0996 63.7305 51.2129 64.1016C51.6582 63.2734 52.3223 62.8594 53.2051 62.8594C54.5254 62.8594 55.1855 63.6738 55.1855 65.3027V69ZM61.8242 66.2402H57.5879C57.6035 66.9082 57.7832 67.4238 58.127 67.7871C58.4707 68.1504 58.9434 68.332 59.5449 68.332C60.2207 68.332 60.8418 68.1094 61.4082 67.6641V68.5664C60.8809 68.9492 60.1836 69.1406 59.3164 69.1406C58.4688 69.1406 57.8027 68.8691 57.3184 68.3262C56.834 67.7793 56.5918 67.0117 56.5918 66.0234C56.5918 65.0898 56.8555 64.3301 57.3828 63.7441C57.9141 63.1543 58.5723 62.8594 59.3574 62.8594C60.1426 62.8594 60.75 63.1133 61.1797 63.6211C61.6094 64.1289 61.8242 64.834 61.8242 65.7363V66.2402ZM60.8398 65.4258C60.8359 64.8711 60.7012 64.4395 60.4355 64.1309C60.1738 63.8223 59.8086 63.668 59.3398 63.668C58.8867 63.668 58.502 63.8301 58.1855 64.1543C57.8691 64.4785 57.6738 64.9023 57.5996 65.4258H60.8398ZM67.8065 59.268C69.0065 59.268 69.9425 59.432 70.6145 59.76C71.2865 60.08 71.6225 60.54 71.6225 61.14C71.6225 61.748 71.2865 62.216 70.6145 62.544C69.9425 62.864 69.0065 63.024 67.8065 63.024C66.6145 63.024 65.6785 62.864 64.9985 62.544C64.3265 62.216 63.9905 61.748 63.9905 61.14C63.9905 60.54 64.3265 60.08 64.9985 59.76C65.6785 59.432 66.6145 59.268 67.8065 59.268ZM67.8065 60.012C67.2225 60.012 66.7225 60.056 66.3065 60.144C65.8905 60.232 65.5705 60.36 65.3465 60.528C65.1305 60.696 65.0225 60.9 65.0225 61.14C65.0225 61.38 65.1305 61.588 65.3465 61.764C65.5705 61.932 65.8905 62.06 66.3065 62.148C66.7225 62.228 67.2225 62.268 67.8065 62.268C68.3985 62.268 68.9025 62.228 69.3185 62.148C69.7345 62.06 70.0505 61.932 70.2665 61.764C70.4905 61.588 70.6025 61.38 70.6025 61.14C70.6025 60.9 70.4905 60.696 70.2665 60.528C70.0505 60.36 69.7345 60.232 69.3185 60.144C68.9025 60.056 68.3985 60.012 67.8065 60.012ZM62.9105 63.756H72.7145V64.56H62.9105V63.756ZM64.0985 65.484H71.4545V67.932H65.0945V69.24H64.1225V67.2H70.4825V66.252H64.0985V65.484ZM64.1225 69.036H71.7785V69.816H64.1225V69.036ZM85.1386 59.076H86.1346V64.836H85.1386V59.076ZM78.6106 69.024H79.2706C79.7906 69.024 80.2506 69.016 80.6506 69C81.0586 68.992 81.4426 68.972 81.8026 68.94C82.1626 68.908 82.5346 68.856 82.9186 68.784L83.0266 69.54C82.6266 69.612 82.2386 69.664 81.8626 69.696C81.4946 69.736 81.1026 69.76 80.6866 69.768C80.2706 69.784 79.7986 69.792 79.2706 69.792H78.6106V69.024ZM78.5986 65.316H82.1866V67.836H79.5706V69.444H78.6106V67.116H81.2146V66.084H78.5986V65.316ZM82.6546 65.316H86.1346V69.852H85.1506V66.132H82.6546V65.316ZM80.2906 59.568C80.8346 59.568 81.3146 59.672 81.7306 59.88C82.1546 60.088 82.4866 60.376 82.7266 60.744C82.9666 61.104 83.0866 61.524 83.0866 62.004C83.0866 62.484 82.9666 62.908 82.7266 63.276C82.4866 63.644 82.1546 63.932 81.7306 64.14C81.3146 64.34 80.8346 64.44 80.2906 64.44C79.7546 64.44 79.2746 64.34 78.8506 64.14C78.4266 63.932 78.0906 63.644 77.8426 63.276C77.6026 62.908 77.4826 62.484 77.4826 62.004C77.4826 61.524 77.6026 61.104 77.8426 60.744C78.0906 60.376 78.4266 60.088 78.8506 59.88C79.2746 59.672 79.7546 59.568 80.2906 59.568ZM80.2906 60.396C79.9386 60.396 79.6226 60.464 79.3426 60.6C79.0706 60.736 78.8546 60.928 78.6946 61.176C78.5346 61.416 78.4546 61.692 78.4546 62.004C78.4546 62.324 78.5346 62.608 78.6946 62.856C78.8546 63.096 79.0706 63.284 79.3426 63.42C79.6226 63.556 79.9386 63.624 80.2906 63.624C80.6426 63.624 80.9546 63.556 81.2266 63.42C81.5066 63.284 81.7266 63.096 81.8866 62.856C82.0466 62.608 82.1266 62.324 82.1266 62.004C82.1266 61.692 82.0466 61.416 81.8866 61.176C81.7266 60.928 81.5066 60.736 81.2266 60.6C80.9546 60.464 80.6426 60.396 80.2906 60.396ZM19.0858 75.268C20.2858 75.268 21.2218 75.432 21.8938 75.76C22.5658 76.08 22.9018 76.54 22.9018 77.14C22.9018 77.748 22.5658 78.216 21.8938 78.544C21.2218 78.864 20.2858 79.024 19.0858 79.024C17.8938 79.024 16.9578 78.864 16.2778 78.544C15.6058 78.216 15.2698 77.748 15.2698 77.14C15.2698 76.54 15.6058 76.08 16.2778 75.76C16.9578 75.432 17.8938 75.268 19.0858 75.268ZM19.0858 76.012C18.5018 76.012 18.0018 76.056 17.5858 76.144C17.1698 76.232 16.8498 76.36 16.6258 76.528C16.4098 76.696 16.3018 76.9 16.3018 77.14C16.3018 77.38 16.4098 77.588 16.6258 77.764C16.8498 77.932 17.1698 78.06 17.5858 78.148C18.0018 78.228 18.5018 78.268 19.0858 78.268C19.6778 78.268 20.1818 78.228 20.5978 78.148C21.0138 78.06 21.3298 77.932 21.5458 77.764C21.7698 77.588 21.8818 77.38 21.8818 77.14C21.8818 76.9 21.7698 76.696 21.5458 76.528C21.3298 76.36 21.0138 76.232 20.5978 76.144C20.1818 76.056 19.6778 76.012 19.0858 76.012ZM14.1898 79.756H23.9938V80.56H14.1898V79.756ZM15.3778 81.484H22.7338V83.932H16.3738V85.24H15.4018V83.2H21.7618V82.252H15.3778V81.484ZM15.4018 85.036H23.0578V85.816H15.4018V85.036ZM32.9139 75.46H33.7899V76.072C33.7899 76.488 33.7099 76.88 33.5499 77.248C33.3899 77.608 33.1699 77.94 32.8899 78.244C32.6179 78.548 32.2979 78.82 31.9299 79.06C31.5619 79.3 31.1619 79.5 30.7299 79.66C30.3059 79.82 29.8699 79.936 29.4219 80.008L29.0139 79.204C29.4139 79.148 29.8019 79.052 30.1779 78.916C30.5619 78.78 30.9179 78.616 31.2459 78.424C31.5739 78.224 31.8619 78 32.1099 77.752C32.3659 77.504 32.5619 77.24 32.6979 76.96C32.8419 76.672 32.9139 76.376 32.9139 76.072V75.46ZM33.0819 75.46H33.9459V76.072C33.9459 76.376 34.0179 76.668 34.1619 76.948C34.3059 77.228 34.5019 77.492 34.7499 77.74C35.0059 77.988 35.2979 78.212 35.6259 78.412C35.9539 78.612 36.3059 78.78 36.6819 78.916C37.0659 79.052 37.4539 79.148 37.8459 79.204L37.4499 80.008C37.0019 79.936 36.5659 79.82 36.1419 79.66C35.7179 79.492 35.3179 79.288 34.9419 79.048C34.5739 78.808 34.2499 78.536 33.9699 78.232C33.6979 77.928 33.4819 77.596 33.3219 77.236C33.1619 76.868 33.0819 76.48 33.0819 76.072V75.46ZM32.9139 81.808H33.8979V85.936H32.9139V81.808ZM28.5219 81.184H38.3259V82.012H28.5219V81.184ZM44.0899 81.448H45.0259V82.792H46.9219V81.448H47.8459V85.792H44.0899V81.448ZM45.0259 83.548V85.012H46.9219V83.548H45.0259ZM49.9459 81.376H50.7259V82.288C50.7259 82.776 50.6419 83.256 50.4739 83.728C50.3059 84.192 50.0539 84.612 49.7179 84.988C49.3899 85.364 48.9779 85.66 48.4819 85.876L47.9779 85.12C48.4099 84.936 48.7739 84.692 49.0699 84.388C49.3659 84.084 49.5859 83.748 49.7299 83.38C49.8739 83.012 49.9459 82.648 49.9459 82.288V81.376ZM50.1619 81.376H50.9299V82.288C50.9299 82.672 51.0019 83.052 51.1459 83.428C51.2979 83.796 51.5219 84.128 51.8179 84.424C52.1139 84.72 52.4779 84.952 52.9099 85.12L52.3939 85.876C51.8899 85.668 51.4739 85.38 51.1459 85.012C50.8179 84.644 50.5699 84.224 50.4019 83.752C50.2419 83.28 50.1619 82.792 50.1619 82.288V81.376ZM48.3019 77.62H51.2179V78.448H48.3019V77.62ZM45.8179 75.556C46.3539 75.556 46.8299 75.664 47.2459 75.88C47.6699 76.088 48.0019 76.38 48.2419 76.756C48.4819 77.124 48.6019 77.556 48.6019 78.052C48.6019 78.54 48.4819 78.976 48.2419 79.36C48.0019 79.736 47.6699 80.032 47.2459 80.248C46.8299 80.456 46.3539 80.56 45.8179 80.56C45.2739 80.56 44.7899 80.456 44.3659 80.248C43.9499 80.032 43.6219 79.736 43.3819 79.36C43.1419 78.976 43.0219 78.54 43.0219 78.052C43.0219 77.556 43.1419 77.124 43.3819 76.756C43.6219 76.38 43.9499 76.088 44.3659 75.88C44.7899 75.664 45.2739 75.556 45.8179 75.556ZM45.8179 76.384C45.4579 76.384 45.1379 76.456 44.8579 76.6C44.5859 76.736 44.3699 76.932 44.2099 77.188C44.0499 77.436 43.9699 77.724 43.9699 78.052C43.9699 78.38 44.0499 78.672 44.2099 78.928C44.3699 79.176 44.5859 79.372 44.8579 79.516C45.1379 79.66 45.4579 79.732 45.8179 79.732C46.1699 79.732 46.4819 79.66 46.7539 79.516C47.0339 79.372 47.2539 79.176 47.4139 78.928C47.5739 78.672 47.6539 78.38 47.6539 78.052C47.6539 77.724 47.5739 77.436 47.4139 77.188C47.2539 76.932 47.0339 76.736 46.7539 76.6C46.4819 76.456 46.1699 76.384 45.8179 76.384ZM50.7859 75.076H51.7819V80.824H50.7859V75.076ZM55.129 81.592H56.113V82.84H61.429V81.592H62.413V85.792H55.129V81.592ZM56.113 83.62V84.988H61.429V83.62H56.113ZM53.893 80.02H63.697V80.836H53.893V80.02ZM58.285 75.196H59.149V75.688C59.149 76.064 59.069 76.42 58.909 76.756C58.749 77.084 58.529 77.388 58.249 77.668C57.977 77.94 57.657 78.184 57.289 78.4C56.929 78.616 56.537 78.796 56.113 78.94C55.697 79.084 55.265 79.192 54.817 79.264L54.445 78.472C54.837 78.416 55.217 78.328 55.585 78.208C55.961 78.088 56.313 77.944 56.641 77.776C56.969 77.6 57.257 77.404 57.505 77.188C57.753 76.964 57.945 76.728 58.081 76.48C58.217 76.224 58.285 75.96 58.285 75.688V75.196ZM58.453 75.196H59.305V75.688C59.305 75.952 59.373 76.212 59.509 76.468C59.653 76.716 59.849 76.952 60.097 77.176C60.345 77.392 60.629 77.588 60.949 77.764C61.277 77.94 61.625 78.092 61.993 78.22C62.369 78.34 62.749 78.424 63.133 78.472L62.773 79.264C62.325 79.192 61.889 79.084 61.465 78.94C61.049 78.796 60.657 78.616 60.289 78.4C59.929 78.176 59.609 77.924 59.329 77.644C59.057 77.364 58.841 77.06 58.681 76.732C58.529 76.404 58.453 76.056 58.453 75.688V75.196ZM72.828 75.076H73.812V85.936H72.828V75.076ZM65.616 76.144H66.6V82.864H65.616V76.144ZM65.616 82.276H66.504C67.336 82.276 68.18 82.24 69.036 82.168C69.9 82.088 70.788 81.956 71.7 81.772L71.832 82.612C70.888 82.812 69.98 82.952 69.108 83.032C68.236 83.104 67.368 83.14 66.504 83.14H65.616V82.276ZM83.3151 75.076H84.3111V85.948H83.3151V75.076ZM84.0831 79.36H86.0871V80.188H84.0831V79.36ZM76.4391 82.396H77.2911C77.9551 82.396 78.5631 82.388 79.1151 82.372C79.6751 82.348 80.2111 82.308 80.7231 82.252C81.2431 82.196 81.7711 82.12 82.3071 82.024L82.4271 82.876C81.8671 82.972 81.3231 83.048 80.7951 83.104C80.2751 83.16 79.7311 83.196 79.1631 83.212C78.5951 83.228 77.9711 83.236 77.2911 83.236H76.4391V82.396ZM76.4391 76.132H81.4671V76.948H77.4231V82.78H76.4391V76.132Z" fill="#020057"/>
</svg>
