<svg width="100" height="112" viewBox="0 0 100 112" fill="none" xmlns="http://www.w3.org/2000/svg">
<rect width="100" height="112" fill="#FBFBFE"/>
<path d="M41.4247 10.5758C41.1903 10.3414 40.8104 10.3414 40.5761 10.5758C40.3418 10.8101 40.3418 11.19 40.5761 11.4243L42.0974 12.9456C41.7833 13.4199 41.6004 13.9886 41.6004 14.6V25.4C41.6004 27.0569 42.9435 28.4 44.6004 28.4H55.4004C56.0118 28.4 56.5806 28.2171 57.0548 27.903L58.5761 29.4243C58.8104 29.6586 59.1903 29.6586 59.4247 29.4243C59.659 29.19 59.659 28.8101 59.4247 28.5758L41.4247 10.5758ZM56.1764 27.0246C55.9415 27.1371 55.6783 27.2 55.4004 27.2H44.6004C43.6063 27.2 42.8004 26.3941 42.8004 25.4V16.4H45.5519L56.1764 27.0246ZM57.2004 16.4V24.6544L58.3706 25.8246C58.3902 25.6859 58.4004 25.5442 58.4004 25.4V14.6C58.4004 12.9432 57.0572 11.6 55.4004 11.6H44.6004C44.4563 11.6 44.3145 11.6102 44.1758 11.6298L48.946 16.4H57.2004Z" fill="#020057"/>
<path d="M20.0059 53.1406C18.8145 53.1406 17.8594 52.748 17.1406 51.9629C16.4258 51.1777 16.0684 50.1562 16.0684 48.8984C16.0684 47.5469 16.4336 46.4688 17.1641 45.6641C17.8945 44.8594 18.8887 44.457 20.1465 44.457C21.3066 44.457 22.2402 44.8477 22.9473 45.6289C23.6582 46.4102 24.0137 47.4316 24.0137 48.6934C24.0137 50.0645 23.6504 51.1484 22.9238 51.9453C22.1973 52.7422 21.2246 53.1406 20.0059 53.1406ZM20.0762 45.3477C19.1934 45.3477 18.4766 45.666 17.9258 46.3027C17.375 46.9395 17.0996 47.7754 17.0996 48.8105C17.0996 49.8457 17.3672 50.6797 17.9023 51.3125C18.4414 51.9414 19.1426 52.2559 20.0059 52.2559C20.9277 52.2559 21.6543 51.9551 22.1855 51.3535C22.7168 50.752 22.9824 49.9102 22.9824 48.8281C22.9824 47.7188 22.7246 46.8613 22.209 46.2559C21.6934 45.6504 20.9824 45.3477 20.0762 45.3477ZM34.6777 52.6484C34.0566 52.9766 33.2832 53.1406 32.3574 53.1406C31.1621 53.1406 30.2051 52.7559 29.4863 51.9863C28.7676 51.2168 28.4082 50.207 28.4082 48.957C28.4082 47.6133 28.8125 46.5273 29.6211 45.6992C30.4297 44.8711 31.4551 44.457 32.6973 44.457C33.4941 44.457 34.1543 44.5723 34.6777 44.8027V45.8516C34.0762 45.5156 33.4121 45.3477 32.6855 45.3477C31.7207 45.3477 30.9375 45.6699 30.3359 46.3145C29.7383 46.959 29.4395 47.8203 29.4395 48.8984C29.4395 49.9219 29.7188 50.7383 30.2773 51.3477C30.8398 51.9531 31.5762 52.2559 32.4863 52.2559C33.3301 52.2559 34.0605 52.0684 34.6777 51.6934V52.6484ZM37.2207 53H36.2598V44.1172H37.2207V53ZM43.4609 53H42.5V52.0625H42.4766C42.0586 52.7812 41.4434 53.1406 40.6309 53.1406C40.0332 53.1406 39.5645 52.9824 39.2246 52.666C38.8887 52.3496 38.7207 51.9297 38.7207 51.4062C38.7207 50.2852 39.3809 49.6328 40.7012 49.4492L42.5 49.1973C42.5 48.1777 42.0879 47.668 41.2637 47.668C40.541 47.668 39.8887 47.9141 39.3066 48.4062V47.4219C39.8965 47.0469 40.5762 46.8594 41.3457 46.8594C42.7559 46.8594 43.4609 47.6055 43.4609 49.0977V53ZM42.5 49.9648L41.0527 50.1641C40.6074 50.2266 40.2715 50.3379 40.0449 50.498C39.8184 50.6543 39.7051 50.9336 39.7051 51.3359C39.7051 51.6289 39.8086 51.8691 40.0156 52.0566C40.2266 52.2402 40.5059 52.332 40.8535 52.332C41.3301 52.332 41.7227 52.166 42.0312 51.834C42.3438 51.498 42.5 51.0742 42.5 50.5625V49.9648ZM48.4004 47.9727C48.2324 47.8438 47.9902 47.7793 47.6738 47.7793C47.2637 47.7793 46.9199 47.9727 46.6426 48.3594C46.3691 48.7461 46.2324 49.2734 46.2324 49.9414V53H45.2715V47H46.2324V48.2363H46.2559C46.3926 47.8145 46.6016 47.4863 46.8828 47.252C47.1641 47.0137 47.4785 46.8945 47.8262 46.8945C48.0762 46.8945 48.2676 46.9219 48.4004 46.9766V47.9727ZM49.9355 45.4766C49.7637 45.4766 49.6172 45.418 49.4961 45.3008C49.375 45.1836 49.3145 45.0352 49.3145 44.8555C49.3145 44.6758 49.375 44.5273 49.4961 44.4102C49.6172 44.2891 49.7637 44.2285 49.9355 44.2285C50.1113 44.2285 50.2598 44.2891 50.3809 44.4102C50.5059 44.5273 50.5684 44.6758 50.5684 44.8555C50.5684 45.0273 50.5059 45.1738 50.3809 45.2949C50.2598 45.416 50.1113 45.4766 49.9355 45.4766ZM50.4043 53H49.4434V47H50.4043V53ZM55.1328 52.9414C54.9062 53.0664 54.6074 53.1289 54.2363 53.1289C53.1855 53.1289 52.6602 52.543 52.6602 51.3711V47.8203H51.6289V47H52.6602V45.5352L53.6211 45.2246V47H55.1328V47.8203H53.6211V51.2012C53.6211 51.6035 53.6895 51.8906 53.8262 52.0625C53.9629 52.2344 54.1895 52.3203 54.5059 52.3203C54.748 52.3203 54.957 52.2539 55.1328 52.1211V52.9414ZM61.1914 47L58.4316 53.9609C57.9395 55.2031 57.248 55.8242 56.3574 55.8242C56.1074 55.8242 55.8984 55.7988 55.7305 55.748V54.8867C55.9375 54.957 56.127 54.9922 56.2988 54.9922C56.7832 54.9922 57.1465 54.7031 57.3887 54.125L57.8691 52.9883L55.5254 47H56.5918L58.2148 51.6172C58.2344 51.6758 58.2754 51.8281 58.3379 52.0742H58.373C58.3926 51.9805 58.4316 51.832 58.4902 51.6289L60.1953 47H61.1914ZM70.502 53H69.541V49.5781C69.541 48.3047 69.0762 47.668 68.1465 47.668C67.666 47.668 67.2676 47.8496 66.9512 48.2129C66.6387 48.5723 66.4824 49.0273 66.4824 49.5781V53H65.5215V47H66.4824V47.9961H66.5059C66.959 47.2383 67.6152 46.8594 68.4746 46.8594C69.1309 46.8594 69.6328 47.0723 69.9805 47.498C70.3281 47.9199 70.502 48.5312 70.502 49.332V53ZM76.6133 53H75.6523V52.0625H75.6289C75.2109 52.7812 74.5957 53.1406 73.7832 53.1406C73.1855 53.1406 72.7168 52.9824 72.377 52.666C72.041 52.3496 71.873 51.9297 71.873 51.4062C71.873 50.2852 72.5332 49.6328 73.8535 49.4492L75.6523 49.1973C75.6523 48.1777 75.2402 47.668 74.416 47.668C73.6934 47.668 73.041 47.9141 72.459 48.4062V47.4219C73.0488 47.0469 73.7285 46.8594 74.498 46.8594C75.9082 46.8594 76.6133 47.6055 76.6133 49.0977V53ZM75.6523 49.9648L74.2051 50.1641C73.7598 50.2266 73.4238 50.3379 73.1973 50.498C72.9707 50.6543 72.8574 50.9336 72.8574 51.3359C72.8574 51.6289 72.9609 51.8691 73.168 52.0566C73.3789 52.2402 73.6582 52.332 74.0059 52.332C74.4824 52.332 74.875 52.166 75.1836 51.834C75.4961 51.498 75.6523 51.0742 75.6523 50.5625V49.9648ZM76.291 44.457C76.291 44.8672 76.1973 45.2031 76.0098 45.4648C75.8223 45.7227 75.5684 45.8516 75.248 45.8516C74.9707 45.8516 74.6543 45.75 74.2988 45.5469C73.998 45.3789 73.7656 45.2949 73.6016 45.2949C73.2578 45.2949 73.0859 45.5156 73.0859 45.957H72.5352C72.5352 45.5391 72.6289 45.2051 72.8164 44.9551C73.0039 44.7012 73.2656 44.5742 73.6016 44.5742C73.8555 44.5742 74.1465 44.6758 74.4746 44.8789C74.7637 45.0508 75.0137 45.1367 75.2246 45.1367C75.5527 45.1367 75.7168 44.9102 75.7168 44.457H76.291ZM80.9316 53.1406C80.0449 53.1406 79.3359 52.8613 78.8047 52.3027C78.2773 51.7402 78.0137 50.9961 78.0137 50.0703C78.0137 49.0625 78.2891 48.2754 78.8398 47.709C79.3906 47.1426 80.1348 46.8594 81.0723 46.8594C81.9668 46.8594 82.6641 47.1348 83.1641 47.6855C83.668 48.2363 83.9199 49 83.9199 49.9766C83.9199 50.9336 83.6484 51.7012 83.1055 52.2793C82.5664 52.8535 81.8418 53.1406 80.9316 53.1406ZM81.002 47.668C80.3848 47.668 79.8965 47.8789 79.5371 48.3008C79.1777 48.7188 78.998 49.2969 78.998 50.0352C78.998 50.7461 79.1797 51.3066 79.543 51.7168C79.9062 52.127 80.3926 52.332 81.002 52.332C81.623 52.332 82.0996 52.1309 82.4316 51.7285C82.7676 51.3262 82.9355 50.7539 82.9355 50.0117C82.9355 49.2617 82.7676 48.6836 82.4316 48.2773C82.0996 47.8711 81.623 47.668 81.002 47.668ZM29.9141 68.1328H29.8906V71.7598H28.9297V63H29.8906V64.0547H29.9141C30.3867 63.2578 31.0781 62.8594 31.9883 62.8594C32.7617 62.8594 33.3652 63.1289 33.7988 63.668C34.2324 64.2031 34.4492 64.9219 34.4492 65.8242C34.4492 66.8281 34.2051 67.6328 33.7168 68.2383C33.2285 68.8398 32.5605 69.1406 31.7129 69.1406C30.9355 69.1406 30.3359 68.8047 29.9141 68.1328ZM29.8906 65.7129V66.5508C29.8906 67.0469 30.0508 67.4688 30.3711 67.8164C30.6953 68.1602 31.1055 68.332 31.6016 68.332C32.1836 68.332 32.6387 68.1094 32.9668 67.6641C33.2988 67.2188 33.4648 66.5996 33.4648 65.8066C33.4648 65.1387 33.3105 64.6152 33.002 64.2363C32.6934 63.8574 32.2754 63.668 31.748 63.668C31.1895 63.668 30.7402 63.8633 30.4004 64.2539C30.0605 64.6406 29.8906 65.127 29.8906 65.7129ZM38.4922 69.1406C37.6055 69.1406 36.8965 68.8613 36.3652 68.3027C35.8379 67.7402 35.5742 66.9961 35.5742 66.0703C35.5742 65.0625 35.8496 64.2754 36.4004 63.709C36.9512 63.1426 37.6953 62.8594 38.6328 62.8594C39.5273 62.8594 40.2246 63.1348 40.7246 63.6855C41.2285 64.2363 41.4805 65 41.4805 65.9766C41.4805 66.9336 41.209 67.7012 40.666 68.2793C40.127 68.8535 39.4023 69.1406 38.4922 69.1406ZM38.5625 63.668C37.9453 63.668 37.457 63.8789 37.0977 64.3008C36.7383 64.7188 36.5586 65.2969 36.5586 66.0352C36.5586 66.7461 36.7402 67.3066 37.1035 67.7168C37.4668 68.127 37.9531 68.332 38.5625 68.332C39.1836 68.332 39.6602 68.1309 39.9922 67.7285C40.3281 67.3262 40.4961 66.7539 40.4961 66.0117C40.4961 65.2617 40.3281 64.6836 39.9922 64.2773C39.6602 63.8711 39.1836 63.668 38.5625 63.668ZM48.1367 69H47.1758V67.9805H47.1523C46.707 68.7539 46.0195 69.1406 45.0898 69.1406C44.3359 69.1406 43.7324 68.873 43.2793 68.3379C42.8301 67.7988 42.6055 67.0664 42.6055 66.1406C42.6055 65.1484 42.8555 64.3535 43.3555 63.7559C43.8555 63.1582 44.5215 62.8594 45.3535 62.8594C46.1777 62.8594 46.7773 63.1836 47.1523 63.832H47.1758V60.1172H48.1367V69ZM47.1758 66.2871V65.4023C47.1758 64.918 47.0156 64.5078 46.6953 64.1719C46.375 63.8359 45.9688 63.668 45.4766 63.668C44.8906 63.668 44.4297 63.8828 44.0938 64.3125C43.7578 64.7422 43.5898 65.3359 43.5898 66.0938C43.5898 66.7852 43.75 67.332 44.0703 67.7344C44.3945 68.1328 44.8281 68.332 45.3711 68.332C45.9062 68.332 46.3398 68.1387 46.6719 67.752C47.0078 67.3652 47.1758 66.877 47.1758 66.2871ZM54.9043 66.2402H50.668C50.6836 66.9082 50.8633 67.4238 51.207 67.7871C51.5508 68.1504 52.0234 68.332 52.625 68.332C53.3008 68.332 53.9219 68.1094 54.4883 67.6641V68.5664C53.9609 68.9492 53.2637 69.1406 52.3965 69.1406C51.5488 69.1406 50.8828 68.8691 50.3984 68.3262C49.9141 67.7793 49.6719 67.0117 49.6719 66.0234C49.6719 65.0898 49.9355 64.3301 50.4629 63.7441C50.9941 63.1543 51.6523 62.8594 52.4375 62.8594C53.2227 62.8594 53.8301 63.1133 54.2598 63.6211C54.6895 64.1289 54.9043 64.834 54.9043 65.7363V66.2402ZM53.9199 65.4258C53.916 64.8711 53.7812 64.4395 53.5156 64.1309C53.2539 63.8223 52.8887 63.668 52.4199 63.668C51.9668 63.668 51.582 63.8301 51.2656 64.1543C50.9492 64.4785 50.7539 64.9023 50.6797 65.4258H53.9199ZM60.6172 69H59.6562V60.1172H60.6172V69ZM67.3848 66.2402H63.1484C63.1641 66.9082 63.3438 67.4238 63.6875 67.7871C64.0312 68.1504 64.5039 68.332 65.1055 68.332C65.7812 68.332 66.4023 68.1094 66.9688 67.6641V68.5664C66.4414 68.9492 65.7441 69.1406 64.877 69.1406C64.0293 69.1406 63.3633 68.8691 62.8789 68.3262C62.3945 67.7793 62.1523 67.0117 62.1523 66.0234C62.1523 65.0898 62.416 64.3301 62.9434 63.7441C63.4746 63.1543 64.1328 62.8594 64.918 62.8594C65.7031 62.8594 66.3105 63.1133 66.7402 63.6211C67.1699 64.1289 67.3848 64.834 67.3848 65.7363V66.2402ZM66.4004 65.4258C66.3965 64.8711 66.2617 64.4395 65.9961 64.1309C65.7344 63.8223 65.3691 63.668 64.9004 63.668C64.4473 63.668 64.0625 63.8301 63.7461 64.1543C63.4297 64.4785 63.2344 64.9023 63.1602 65.4258H66.4004ZM71.9727 63.9727C71.8047 63.8438 71.5625 63.7793 71.2461 63.7793C70.8359 63.7793 70.4922 63.9727 70.2148 64.3594C69.9414 64.7461 69.8047 65.2734 69.8047 65.9414V69H68.8438V63H69.8047V64.2363H69.8281C69.9648 63.8145 70.1738 63.4863 70.4551 63.252C70.7363 63.0137 71.0508 62.8945 71.3984 62.8945C71.6484 62.8945 71.8398 62.9219 71.9727 62.9766V63.9727ZM22.7656 77.4766C22.5938 77.4766 22.4473 77.418 22.3262 77.3008C22.2051 77.1836 22.1445 77.0352 22.1445 76.8555C22.1445 76.6758 22.2051 76.5273 22.3262 76.4102C22.4473 76.2891 22.5938 76.2285 22.7656 76.2285C22.9414 76.2285 23.0898 76.2891 23.2109 76.4102C23.3359 76.5273 23.3984 76.6758 23.3984 76.8555C23.3984 77.0273 23.3359 77.1738 23.2109 77.2949C23.0898 77.416 22.9414 77.4766 22.7656 77.4766ZM23.2344 85H22.2734V79H23.2344V85ZM29.5742 77.4883H26.293V80.3945H29.3281V81.2793H26.293V85H25.3086V76.5977H29.5742V77.4883ZM34.168 79.9727C34 79.8438 33.7578 79.7793 33.4414 79.7793C33.0312 79.7793 32.6875 79.9727 32.4102 80.3594C32.1367 80.7461 32 81.2734 32 81.9414V85H31.0391V79H32V80.2363H32.0234C32.1602 79.8145 32.3691 79.4863 32.6504 79.252C32.9316 79.0137 33.2461 78.8945 33.5938 78.8945C33.8438 78.8945 34.0352 78.9219 34.168 78.9766V79.9727ZM39.5059 85H38.5449V84.0625H38.5215C38.1035 84.7812 37.4883 85.1406 36.6758 85.1406C36.0781 85.1406 35.6094 84.9824 35.2695 84.666C34.9336 84.3496 34.7656 83.9297 34.7656 83.4062C34.7656 82.2852 35.4258 81.6328 36.7461 81.4492L38.5449 81.1973C38.5449 80.1777 38.1328 79.668 37.3086 79.668C36.5859 79.668 35.9336 79.9141 35.3516 80.4062V79.4219C35.9414 79.0469 36.6211 78.8594 37.3906 78.8594C38.8008 78.8594 39.5059 79.6055 39.5059 81.0977V85ZM38.5449 81.9648L37.0977 82.1641C36.6523 82.2266 36.3164 82.3379 36.0898 82.498C35.8633 82.6543 35.75 82.9336 35.75 83.3359C35.75 83.6289 35.8535 83.8691 36.0605 84.0566C36.2715 84.2402 36.5508 84.332 36.8984 84.332C37.375 84.332 37.7676 84.166 38.0762 83.834C38.3887 83.498 38.5449 83.0742 38.5449 82.5625V81.9648ZM49.8359 85H48.875V81.5547C48.875 80.8906 48.7715 80.4102 48.5645 80.1133C48.3613 79.8164 48.0176 79.668 47.5332 79.668C47.123 79.668 46.7734 79.8555 46.4844 80.2305C46.1992 80.6055 46.0566 81.0547 46.0566 81.5781V85H45.0957V81.4375C45.0957 80.2578 44.6406 79.668 43.7305 79.668C43.3086 79.668 42.9609 79.8457 42.6875 80.2012C42.4141 80.5527 42.2773 81.0117 42.2773 81.5781V85H41.3164V79H42.2773V79.9492H42.3008C42.7266 79.2227 43.3477 78.8594 44.1641 78.8594C44.5742 78.8594 44.9316 78.9746 45.2363 79.2051C45.541 79.4316 45.75 79.7305 45.8633 80.1016C46.3086 79.2734 46.9727 78.8594 47.8555 78.8594C49.1758 78.8594 49.8359 79.6738 49.8359 81.3027V85ZM56.4746 82.2402H52.2383C52.2539 82.9082 52.4336 83.4238 52.7773 83.7871C53.1211 84.1504 53.5938 84.332 54.1953 84.332C54.8711 84.332 55.4922 84.1094 56.0586 83.6641V84.5664C55.5312 84.9492 54.834 85.1406 53.9668 85.1406C53.1191 85.1406 52.4531 84.8691 51.9688 84.3262C51.4844 83.7793 51.2422 83.0117 51.2422 82.0234C51.2422 81.0898 51.5059 80.3301 52.0332 79.7441C52.5645 79.1543 53.2227 78.8594 54.0078 78.8594C54.793 78.8594 55.4004 79.1133 55.8301 79.6211C56.2598 80.1289 56.4746 80.834 56.4746 81.7363V82.2402ZM55.4902 81.4258C55.4863 80.8711 55.3516 80.4395 55.0859 80.1309C54.8242 79.8223 54.459 79.668 53.9902 79.668C53.5371 79.668 53.1523 79.8301 52.8359 80.1543C52.5195 80.4785 52.3242 80.9023 52.25 81.4258H55.4902ZM57.5703 84.7832V83.752C58.0938 84.1387 58.6699 84.332 59.2988 84.332C60.1426 84.332 60.5645 84.0508 60.5645 83.4883C60.5645 83.3281 60.5273 83.1934 60.4531 83.084C60.3828 82.9707 60.2852 82.8711 60.1602 82.7852C60.0391 82.6992 59.8945 82.623 59.7266 82.5566C59.5625 82.4863 59.3848 82.4141 59.1934 82.3398C58.9277 82.2344 58.6934 82.1289 58.4902 82.0234C58.291 81.9141 58.123 81.793 57.9863 81.6602C57.8535 81.5234 57.752 81.3691 57.6816 81.1973C57.6152 81.0254 57.582 80.8242 57.582 80.5938C57.582 80.3125 57.6465 80.0645 57.7754 79.8496C57.9043 79.6309 58.0762 79.4492 58.291 79.3047C58.5059 79.1562 58.75 79.0449 59.0234 78.9707C59.3008 78.8965 59.5859 78.8594 59.8789 78.8594C60.3984 78.8594 60.8633 78.9492 61.2734 79.1289V80.1016C60.832 79.8125 60.3242 79.668 59.75 79.668C59.5703 79.668 59.4082 79.6895 59.2637 79.7324C59.1191 79.7715 58.9941 79.8281 58.8887 79.9023C58.7871 79.9766 58.707 80.0664 58.6484 80.1719C58.5938 80.2734 58.5664 80.3867 58.5664 80.5117C58.5664 80.668 58.5938 80.7988 58.6484 80.9043C58.707 81.0098 58.791 81.1035 58.9004 81.1855C59.0098 81.2676 59.1426 81.3418 59.2988 81.4082C59.4551 81.4746 59.6328 81.5469 59.832 81.625C60.0977 81.7266 60.3359 81.832 60.5469 81.9414C60.7578 82.0469 60.9375 82.168 61.0859 82.3047C61.2344 82.4375 61.3477 82.5918 61.4258 82.7676C61.5078 82.9434 61.5488 83.1523 61.5488 83.3945C61.5488 83.6914 61.4824 83.9492 61.3496 84.168C61.2207 84.3867 61.0469 84.5684 60.8281 84.7129C60.6094 84.8574 60.3574 84.9648 60.0723 85.0352C59.7871 85.1055 59.4883 85.1406 59.1758 85.1406C58.5586 85.1406 58.0234 85.0215 57.5703 84.7832ZM71.4453 85H70.4844V83.9805H70.4609C70.0156 84.7539 69.3281 85.1406 68.3984 85.1406C67.6445 85.1406 67.041 84.873 66.5879 84.3379C66.1387 83.7988 65.9141 83.0664 65.9141 82.1406C65.9141 81.1484 66.1641 80.3535 66.6641 79.7559C67.1641 79.1582 67.8301 78.8594 68.6621 78.8594C69.4863 78.8594 70.0859 79.1836 70.4609 79.832H70.4844V76.1172H71.4453V85ZM70.4844 82.2871V81.4023C70.4844 80.918 70.3242 80.5078 70.0039 80.1719C69.6836 79.8359 69.2773 79.668 68.7852 79.668C68.1992 79.668 67.7383 79.8828 67.4023 80.3125C67.0664 80.7422 66.8984 81.3359 66.8984 82.0938C66.8984 82.7852 67.0586 83.332 67.3789 83.7344C67.7031 84.1328 68.1367 84.332 68.6797 84.332C69.2148 84.332 69.6484 84.1387 69.9805 83.752C70.3164 83.3652 70.4844 82.877 70.4844 82.2871ZM78.2129 82.2402H73.9766C73.9922 82.9082 74.1719 83.4238 74.5156 83.7871C74.8594 84.1504 75.332 84.332 75.9336 84.332C76.6094 84.332 77.2305 84.1094 77.7969 83.6641V84.5664C77.2695 84.9492 76.5723 85.1406 75.7051 85.1406C74.8574 85.1406 74.1914 84.8691 73.707 84.3262C73.2227 83.7793 72.9805 83.0117 72.9805 82.0234C72.9805 81.0898 73.2441 80.3301 73.7715 79.7441C74.3027 79.1543 74.9609 78.8594 75.7461 78.8594C76.5312 78.8594 77.1387 79.1133 77.5684 79.6211C77.998 80.1289 78.2129 80.834 78.2129 81.7363V82.2402ZM77.2285 81.4258C77.2246 80.8711 77.0898 80.4395 76.8242 80.1309C76.5625 79.8223 76.1973 79.668 75.7285 79.668C75.2754 79.668 74.8906 79.8301 74.5742 80.1543C74.2578 80.4785 74.0625 80.9023 73.9883 81.4258H77.2285ZM30.9805 100.941C30.7539 101.066 30.4551 101.129 30.084 101.129C29.0332 101.129 28.5078 100.543 28.5078 99.3711V95.8203H27.4766V95H28.5078V93.5352L29.4688 93.2246V95H30.9805V95.8203H29.4688V99.2012C29.4688 99.6035 29.5371 99.8906 29.6738 100.062C29.8105 100.234 30.0371 100.32 30.3535 100.32C30.5957 100.32 30.8047 100.254 30.9805 100.121V100.941ZM37.0859 98.2402H32.8496C32.8652 98.9082 33.0449 99.4238 33.3887 99.7871C33.7324 100.15 34.2051 100.332 34.8066 100.332C35.4824 100.332 36.1035 100.109 36.6699 99.6641V100.566C36.1426 100.949 35.4453 101.141 34.5781 101.141C33.7305 101.141 33.0645 100.869 32.5801 100.326C32.0957 99.7793 31.8535 99.0117 31.8535 98.0234C31.8535 97.0898 32.1172 96.3301 32.6445 95.7441C33.1758 95.1543 33.834 94.8594 34.6191 94.8594C35.4043 94.8594 36.0117 95.1133 36.4414 95.6211C36.8711 96.1289 37.0859 96.834 37.0859 97.7363V98.2402ZM36.1016 97.4258C36.0977 96.8711 35.9629 96.4395 35.6973 96.1309C35.4355 95.8223 35.0703 95.668 34.6016 95.668C34.1484 95.668 33.7637 95.8301 33.4473 96.1543C33.1309 96.4785 32.9355 96.9023 32.8613 97.4258H36.1016ZM41.6738 95.9727C41.5059 95.8438 41.2637 95.7793 40.9473 95.7793C40.5371 95.7793 40.1934 95.9727 39.916 96.3594C39.6426 96.7461 39.5059 97.2734 39.5059 97.9414V101H38.5449V95H39.5059V96.2363H39.5293C39.666 95.8145 39.875 95.4863 40.1562 95.252C40.4375 95.0137 40.752 94.8945 41.0996 94.8945C41.3496 94.8945 41.541 94.9219 41.6738 94.9766V95.9727ZM46.8066 100.725C46.3457 101.002 45.7988 101.141 45.166 101.141C44.3105 101.141 43.6191 100.863 43.0918 100.309C42.5684 99.75 42.3066 99.0273 42.3066 98.1406C42.3066 97.1523 42.5898 96.3594 43.1562 95.7617C43.7227 95.1602 44.4785 94.8594 45.4238 94.8594C45.9512 94.8594 46.416 94.957 46.8184 95.1523V96.1367C46.373 95.8242 45.8965 95.668 45.3887 95.668C44.7754 95.668 44.2715 95.8887 43.877 96.3301C43.4863 96.7676 43.291 97.3438 43.291 98.0586C43.291 98.7617 43.4746 99.3164 43.8418 99.7227C44.2129 100.129 44.709 100.332 45.3301 100.332C45.8535 100.332 46.3457 100.158 46.8066 99.8105V100.725ZM53.082 98.2402H48.8457C48.8613 98.9082 49.041 99.4238 49.3848 99.7871C49.7285 100.15 50.2012 100.332 50.8027 100.332C51.4785 100.332 52.0996 100.109 52.666 99.6641V100.566C52.1387 100.949 51.4414 101.141 50.5742 101.141C49.7266 101.141 49.0605 100.869 48.5762 100.326C48.0918 99.7793 47.8496 99.0117 47.8496 98.0234C47.8496 97.0898 48.1133 96.3301 48.6406 95.7441C49.1719 95.1543 49.8301 94.8594 50.6152 94.8594C51.4004 94.8594 52.0078 95.1133 52.4375 95.6211C52.8672 96.1289 53.082 96.834 53.082 97.7363V98.2402ZM52.0977 97.4258C52.0938 96.8711 51.959 96.4395 51.6934 96.1309C51.4316 95.8223 51.0664 95.668 50.5977 95.668C50.1445 95.668 49.7598 95.8301 49.4434 96.1543C49.127 96.4785 48.9316 96.9023 48.8574 97.4258H52.0977ZM55.0332 93.4766C54.8613 93.4766 54.7148 93.418 54.5938 93.3008C54.4727 93.1836 54.4121 93.0352 54.4121 92.8555C54.4121 92.6758 54.4727 92.5273 54.5938 92.4102C54.7148 92.2891 54.8613 92.2285 55.0332 92.2285C55.209 92.2285 55.3574 92.2891 55.4785 92.4102C55.6035 92.5273 55.666 92.6758 55.666 92.8555C55.666 93.0273 55.6035 93.1738 55.4785 93.2949C55.3574 93.416 55.209 93.4766 55.0332 93.4766ZM55.502 101H54.541V95H55.502V101ZM60.5762 95.9727C60.4082 95.8438 60.166 95.7793 59.8496 95.7793C59.4395 95.7793 59.0957 95.9727 58.8184 96.3594C58.5449 96.7461 58.4082 97.2734 58.4082 97.9414V101H57.4473V95H58.4082V96.2363H58.4316C58.5684 95.8145 58.7773 95.4863 59.0586 95.252C59.3398 95.0137 59.6543 94.8945 60.002 94.8945C60.252 94.8945 60.4434 94.9219 60.5762 94.9766V95.9727ZM64.127 101.141C63.2402 101.141 62.5312 100.861 62 100.303C61.4727 99.7402 61.209 98.9961 61.209 98.0703C61.209 97.0625 61.4844 96.2754 62.0352 95.709C62.5859 95.1426 63.3301 94.8594 64.2676 94.8594C65.1621 94.8594 65.8594 95.1348 66.3594 95.6855C66.8633 96.2363 67.1152 97 67.1152 97.9766C67.1152 98.9336 66.8438 99.7012 66.3008 100.279C65.7617 100.854 65.0371 101.141 64.127 101.141ZM64.1973 95.668C63.5801 95.668 63.0918 95.8789 62.7324 96.3008C62.373 96.7188 62.1934 97.2969 62.1934 98.0352C62.1934 98.7461 62.375 99.3066 62.7383 99.7168C63.1016 100.127 63.5879 100.332 64.1973 100.332C64.8184 100.332 65.2949 100.131 65.627 99.7285C65.9629 99.3262 66.1309 98.7539 66.1309 98.0117C66.1309 97.2617 65.9629 96.6836 65.627 96.2773C65.2949 95.8711 64.8184 95.668 64.1973 95.668ZM68.2871 100.783V99.752C68.8105 100.139 69.3867 100.332 70.0156 100.332C70.8594 100.332 71.2812 100.051 71.2812 99.4883C71.2812 99.3281 71.2441 99.1934 71.1699 99.084C71.0996 98.9707 71.002 98.8711 70.877 98.7852C70.7559 98.6992 70.6113 98.623 70.4434 98.5566C70.2793 98.4863 70.1016 98.4141 69.9102 98.3398C69.6445 98.2344 69.4102 98.1289 69.207 98.0234C69.0078 97.9141 68.8398 97.793 68.7031 97.6602C68.5703 97.5234 68.4688 97.3691 68.3984 97.1973C68.332 97.0254 68.2988 96.8242 68.2988 96.5938C68.2988 96.3125 68.3633 96.0645 68.4922 95.8496C68.6211 95.6309 68.793 95.4492 69.0078 95.3047C69.2227 95.1562 69.4668 95.0449 69.7402 94.9707C70.0176 94.8965 70.3027 94.8594 70.5957 94.8594C71.1152 94.8594 71.5801 94.9492 71.9902 95.1289V96.1016C71.5488 95.8125 71.041 95.668 70.4668 95.668C70.2871 95.668 70.125 95.6895 69.9805 95.7324C69.8359 95.7715 69.7109 95.8281 69.6055 95.9023C69.5039 95.9766 69.4238 96.0664 69.3652 96.1719C69.3105 96.2734 69.2832 96.3867 69.2832 96.5117C69.2832 96.668 69.3105 96.7988 69.3652 96.9043C69.4238 97.0098 69.5078 97.1035 69.6172 97.1855C69.7266 97.2676 69.8594 97.3418 70.0156 97.4082C70.1719 97.4746 70.3496 97.5469 70.5488 97.625C70.8145 97.7266 71.0527 97.832 71.2637 97.9414C71.4746 98.0469 71.6543 98.168 71.8027 98.3047C71.9512 98.4375 72.0645 98.5918 72.1426 98.7676C72.2246 98.9434 72.2656 99.1523 72.2656 99.3945C72.2656 99.6914 72.1992 99.9492 72.0664 100.168C71.9375 100.387 71.7637 100.568 71.5449 100.713C71.3262 100.857 71.0742 100.965 70.7891 101.035C70.5039 101.105 70.2051 101.141 69.8926 101.141C69.2754 101.141 68.7402 101.021 68.2871 100.783Z" fill="#020057"/>
</svg>
