<svg width="100%" viewBox="0 0 148 147" fill="none" xmlns="http://www.w3.org/2000/svg">
<g filter="url(#filter0_dd_3872_63023)">
<rect x="8" y="4" width="132" height="132" fill="#FBFBFE"/>
<rect x="8.5" y="4.5" width="131" height="131" stroke="#827DFF" stroke-dasharray="4 4"/>
<rect width="100" height="112" transform="translate(24 14)" fill="#FBFBFE"/>
<path d="M65.4247 24.5758C65.1903 24.3414 64.8104 24.3414 64.5761 24.5758C64.3418 24.8101 64.3418 25.19 64.5761 25.4243L66.0974 26.9456C65.7833 27.4199 65.6004 27.9886 65.6004 28.6V39.4C65.6004 41.0569 66.9435 42.4 68.6004 42.4H79.4004C80.0118 42.4 80.5806 42.2171 81.0548 41.903L82.5761 43.4243C82.8104 43.6586 83.1903 43.6586 83.4247 43.4243C83.659 43.19 83.659 42.8101 83.4247 42.5758L65.4247 24.5758ZM80.1764 41.0246C79.9415 41.1371 79.6783 41.2 79.4004 41.2H68.6004C67.6063 41.2 66.8004 40.3941 66.8004 39.4V30.4H69.5519L80.1764 41.0246ZM81.2004 30.4V38.6544L82.3706 39.8246C82.3902 39.6859 82.4004 39.5442 82.4004 39.4V28.6C82.4004 26.9432 81.0572 25.6 79.4004 25.6H68.6004C68.4563 25.6 68.3145 25.6102 68.1758 25.6298L72.946 30.4H81.2004Z" fill="#020057"/>
<path d="M44.0059 67.1406C42.8145 67.1406 41.8594 66.748 41.1406 65.9629C40.4258 65.1777 40.0684 64.1562 40.0684 62.8984C40.0684 61.5469 40.4336 60.4688 41.1641 59.6641C41.8945 58.8594 42.8887 58.457 44.1465 58.457C45.3066 58.457 46.2402 58.8477 46.9473 59.6289C47.6582 60.4102 48.0137 61.4316 48.0137 62.6934C48.0137 64.0645 47.6504 65.1484 46.9238 65.9453C46.1973 66.7422 45.2246 67.1406 44.0059 67.1406ZM44.0762 59.3477C43.1934 59.3477 42.4766 59.666 41.9258 60.3027C41.375 60.9395 41.0996 61.7754 41.0996 62.8105C41.0996 63.8457 41.3672 64.6797 41.9023 65.3125C42.4414 65.9414 43.1426 66.2559 44.0059 66.2559C44.9277 66.2559 45.6543 65.9551 46.1855 65.3535C46.7168 64.752 46.9824 63.9102 46.9824 62.8281C46.9824 61.7188 46.7246 60.8613 46.209 60.2559C45.6934 59.6504 44.9824 59.3477 44.0762 59.3477ZM58.6777 66.6484C58.0566 66.9766 57.2832 67.1406 56.3574 67.1406C55.1621 67.1406 54.2051 66.7559 53.4863 65.9863C52.7676 65.2168 52.4082 64.207 52.4082 62.957C52.4082 61.6133 52.8125 60.5273 53.6211 59.6992C54.4297 58.8711 55.4551 58.457 56.6973 58.457C57.4941 58.457 58.1543 58.5723 58.6777 58.8027V59.8516C58.0762 59.5156 57.4121 59.3477 56.6855 59.3477C55.7207 59.3477 54.9375 59.6699 54.3359 60.3145C53.7383 60.959 53.4395 61.8203 53.4395 62.8984C53.4395 63.9219 53.7188 64.7383 54.2773 65.3477C54.8398 65.9531 55.5762 66.2559 56.4863 66.2559C57.3301 66.2559 58.0605 66.0684 58.6777 65.6934V66.6484ZM61.2207 67H60.2598V58.1172H61.2207V67ZM67.4609 67H66.5V66.0625H66.4766C66.0586 66.7812 65.4434 67.1406 64.6309 67.1406C64.0332 67.1406 63.5645 66.9824 63.2246 66.666C62.8887 66.3496 62.7207 65.9297 62.7207 65.4062C62.7207 64.2852 63.3809 63.6328 64.7012 63.4492L66.5 63.1973C66.5 62.1777 66.0879 61.668 65.2637 61.668C64.541 61.668 63.8887 61.9141 63.3066 62.4062V61.4219C63.8965 61.0469 64.5762 60.8594 65.3457 60.8594C66.7559 60.8594 67.4609 61.6055 67.4609 63.0977V67ZM66.5 63.9648L65.0527 64.1641C64.6074 64.2266 64.2715 64.3379 64.0449 64.498C63.8184 64.6543 63.7051 64.9336 63.7051 65.3359C63.7051 65.6289 63.8086 65.8691 64.0156 66.0566C64.2266 66.2402 64.5059 66.332 64.8535 66.332C65.3301 66.332 65.7227 66.166 66.0312 65.834C66.3438 65.498 66.5 65.0742 66.5 64.5625V63.9648ZM72.4004 61.9727C72.2324 61.8438 71.9902 61.7793 71.6738 61.7793C71.2637 61.7793 70.9199 61.9727 70.6426 62.3594C70.3691 62.7461 70.2324 63.2734 70.2324 63.9414V67H69.2715V61H70.2324V62.2363H70.2559C70.3926 61.8145 70.6016 61.4863 70.8828 61.252C71.1641 61.0137 71.4785 60.8945 71.8262 60.8945C72.0762 60.8945 72.2676 60.9219 72.4004 60.9766V61.9727ZM73.9355 59.4766C73.7637 59.4766 73.6172 59.418 73.4961 59.3008C73.375 59.1836 73.3145 59.0352 73.3145 58.8555C73.3145 58.6758 73.375 58.5273 73.4961 58.4102C73.6172 58.2891 73.7637 58.2285 73.9355 58.2285C74.1113 58.2285 74.2598 58.2891 74.3809 58.4102C74.5059 58.5273 74.5684 58.6758 74.5684 58.8555C74.5684 59.0273 74.5059 59.1738 74.3809 59.2949C74.2598 59.416 74.1113 59.4766 73.9355 59.4766ZM74.4043 67H73.4434V61H74.4043V67ZM79.1328 66.9414C78.9062 67.0664 78.6074 67.1289 78.2363 67.1289C77.1855 67.1289 76.6602 66.543 76.6602 65.3711V61.8203H75.6289V61H76.6602V59.5352L77.6211 59.2246V61H79.1328V61.8203H77.6211V65.2012C77.6211 65.6035 77.6895 65.8906 77.8262 66.0625C77.9629 66.2344 78.1895 66.3203 78.5059 66.3203C78.748 66.3203 78.957 66.2539 79.1328 66.1211V66.9414ZM85.1914 61L82.4316 67.9609C81.9395 69.2031 81.248 69.8242 80.3574 69.8242C80.1074 69.8242 79.8984 69.7988 79.7305 69.748V68.8867C79.9375 68.957 80.127 68.9922 80.2988 68.9922C80.7832 68.9922 81.1465 68.7031 81.3887 68.125L81.8691 66.9883L79.5254 61H80.5918L82.2148 65.6172C82.2344 65.6758 82.2754 65.8281 82.3379 66.0742H82.373C82.3926 65.9805 82.4316 65.832 82.4902 65.6289L84.1953 61H85.1914ZM94.502 67H93.541V63.5781C93.541 62.3047 93.0762 61.668 92.1465 61.668C91.666 61.668 91.2676 61.8496 90.9512 62.2129C90.6387 62.5723 90.4824 63.0273 90.4824 63.5781V67H89.5215V61H90.4824V61.9961H90.5059C90.959 61.2383 91.6152 60.8594 92.4746 60.8594C93.1309 60.8594 93.6328 61.0723 93.9805 61.498C94.3281 61.9199 94.502 62.5312 94.502 63.332V67ZM100.613 67H99.6523V66.0625H99.6289C99.2109 66.7812 98.5957 67.1406 97.7832 67.1406C97.1855 67.1406 96.7168 66.9824 96.377 66.666C96.041 66.3496 95.873 65.9297 95.873 65.4062C95.873 64.2852 96.5332 63.6328 97.8535 63.4492L99.6523 63.1973C99.6523 62.1777 99.2402 61.668 98.416 61.668C97.6934 61.668 97.041 61.9141 96.459 62.4062V61.4219C97.0488 61.0469 97.7285 60.8594 98.498 60.8594C99.9082 60.8594 100.613 61.6055 100.613 63.0977V67ZM99.6523 63.9648L98.2051 64.1641C97.7598 64.2266 97.4238 64.3379 97.1973 64.498C96.9707 64.6543 96.8574 64.9336 96.8574 65.3359C96.8574 65.6289 96.9609 65.8691 97.168 66.0566C97.3789 66.2402 97.6582 66.332 98.0059 66.332C98.4824 66.332 98.875 66.166 99.1836 65.834C99.4961 65.498 99.6523 65.0742 99.6523 64.5625V63.9648ZM100.291 58.457C100.291 58.8672 100.197 59.2031 100.01 59.4648C99.8223 59.7227 99.5684 59.8516 99.248 59.8516C98.9707 59.8516 98.6543 59.75 98.2988 59.5469C97.998 59.3789 97.7656 59.2949 97.6016 59.2949C97.2578 59.2949 97.0859 59.5156 97.0859 59.957H96.5352C96.5352 59.5391 96.6289 59.2051 96.8164 58.9551C97.0039 58.7012 97.2656 58.5742 97.6016 58.5742C97.8555 58.5742 98.1465 58.6758 98.4746 58.8789C98.7637 59.0508 99.0137 59.1367 99.2246 59.1367C99.5527 59.1367 99.7168 58.9102 99.7168 58.457H100.291ZM104.932 67.1406C104.045 67.1406 103.336 66.8613 102.805 66.3027C102.277 65.7402 102.014 64.9961 102.014 64.0703C102.014 63.0625 102.289 62.2754 102.84 61.709C103.391 61.1426 104.135 60.8594 105.072 60.8594C105.967 60.8594 106.664 61.1348 107.164 61.6855C107.668 62.2363 107.92 63 107.92 63.9766C107.92 64.9336 107.648 65.7012 107.105 66.2793C106.566 66.8535 105.842 67.1406 104.932 67.1406ZM105.002 61.668C104.385 61.668 103.896 61.8789 103.537 62.3008C103.178 62.7188 102.998 63.2969 102.998 64.0352C102.998 64.7461 103.18 65.3066 103.543 65.7168C103.906 66.127 104.393 66.332 105.002 66.332C105.623 66.332 106.1 66.1309 106.432 65.7285C106.768 65.3262 106.936 64.7539 106.936 64.0117C106.936 63.2617 106.768 62.6836 106.432 62.2773C106.1 61.8711 105.623 61.668 105.002 61.668ZM53.9141 82.1328H53.8906V85.7598H52.9297V77H53.8906V78.0547H53.9141C54.3867 77.2578 55.0781 76.8594 55.9883 76.8594C56.7617 76.8594 57.3652 77.1289 57.7988 77.668C58.2324 78.2031 58.4492 78.9219 58.4492 79.8242C58.4492 80.8281 58.2051 81.6328 57.7168 82.2383C57.2285 82.8398 56.5605 83.1406 55.7129 83.1406C54.9355 83.1406 54.3359 82.8047 53.9141 82.1328ZM53.8906 79.7129V80.5508C53.8906 81.0469 54.0508 81.4688 54.3711 81.8164C54.6953 82.1602 55.1055 82.332 55.6016 82.332C56.1836 82.332 56.6387 82.1094 56.9668 81.6641C57.2988 81.2188 57.4648 80.5996 57.4648 79.8066C57.4648 79.1387 57.3105 78.6152 57.002 78.2363C56.6934 77.8574 56.2754 77.668 55.748 77.668C55.1895 77.668 54.7402 77.8633 54.4004 78.2539C54.0605 78.6406 53.8906 79.127 53.8906 79.7129ZM62.4922 83.1406C61.6055 83.1406 60.8965 82.8613 60.3652 82.3027C59.8379 81.7402 59.5742 80.9961 59.5742 80.0703C59.5742 79.0625 59.8496 78.2754 60.4004 77.709C60.9512 77.1426 61.6953 76.8594 62.6328 76.8594C63.5273 76.8594 64.2246 77.1348 64.7246 77.6855C65.2285 78.2363 65.4805 79 65.4805 79.9766C65.4805 80.9336 65.209 81.7012 64.666 82.2793C64.127 82.8535 63.4023 83.1406 62.4922 83.1406ZM62.5625 77.668C61.9453 77.668 61.457 77.8789 61.0977 78.3008C60.7383 78.7188 60.5586 79.2969 60.5586 80.0352C60.5586 80.7461 60.7402 81.3066 61.1035 81.7168C61.4668 82.127 61.9531 82.332 62.5625 82.332C63.1836 82.332 63.6602 82.1309 63.9922 81.7285C64.3281 81.3262 64.4961 80.7539 64.4961 80.0117C64.4961 79.2617 64.3281 78.6836 63.9922 78.2773C63.6602 77.8711 63.1836 77.668 62.5625 77.668ZM72.1367 83H71.1758V81.9805H71.1523C70.707 82.7539 70.0195 83.1406 69.0898 83.1406C68.3359 83.1406 67.7324 82.873 67.2793 82.3379C66.8301 81.7988 66.6055 81.0664 66.6055 80.1406C66.6055 79.1484 66.8555 78.3535 67.3555 77.7559C67.8555 77.1582 68.5215 76.8594 69.3535 76.8594C70.1777 76.8594 70.7773 77.1836 71.1523 77.832H71.1758V74.1172H72.1367V83ZM71.1758 80.2871V79.4023C71.1758 78.918 71.0156 78.5078 70.6953 78.1719C70.375 77.8359 69.9688 77.668 69.4766 77.668C68.8906 77.668 68.4297 77.8828 68.0938 78.3125C67.7578 78.7422 67.5898 79.3359 67.5898 80.0938C67.5898 80.7852 67.75 81.332 68.0703 81.7344C68.3945 82.1328 68.8281 82.332 69.3711 82.332C69.9062 82.332 70.3398 82.1387 70.6719 81.752C71.0078 81.3652 71.1758 80.877 71.1758 80.2871ZM78.9043 80.2402H74.668C74.6836 80.9082 74.8633 81.4238 75.207 81.7871C75.5508 82.1504 76.0234 82.332 76.625 82.332C77.3008 82.332 77.9219 82.1094 78.4883 81.6641V82.5664C77.9609 82.9492 77.2637 83.1406 76.3965 83.1406C75.5488 83.1406 74.8828 82.8691 74.3984 82.3262C73.9141 81.7793 73.6719 81.0117 73.6719 80.0234C73.6719 79.0898 73.9355 78.3301 74.4629 77.7441C74.9941 77.1543 75.6523 76.8594 76.4375 76.8594C77.2227 76.8594 77.8301 77.1133 78.2598 77.6211C78.6895 78.1289 78.9043 78.834 78.9043 79.7363V80.2402ZM77.9199 79.4258C77.916 78.8711 77.7812 78.4395 77.5156 78.1309C77.2539 77.8223 76.8887 77.668 76.4199 77.668C75.9668 77.668 75.582 77.8301 75.2656 78.1543C74.9492 78.4785 74.7539 78.9023 74.6797 79.4258H77.9199ZM84.6172 83H83.6562V74.1172H84.6172V83ZM91.3848 80.2402H87.1484C87.1641 80.9082 87.3438 81.4238 87.6875 81.7871C88.0312 82.1504 88.5039 82.332 89.1055 82.332C89.7812 82.332 90.4023 82.1094 90.9688 81.6641V82.5664C90.4414 82.9492 89.7441 83.1406 88.877 83.1406C88.0293 83.1406 87.3633 82.8691 86.8789 82.3262C86.3945 81.7793 86.1523 81.0117 86.1523 80.0234C86.1523 79.0898 86.416 78.3301 86.9434 77.7441C87.4746 77.1543 88.1328 76.8594 88.918 76.8594C89.7031 76.8594 90.3105 77.1133 90.7402 77.6211C91.1699 78.1289 91.3848 78.834 91.3848 79.7363V80.2402ZM90.4004 79.4258C90.3965 78.8711 90.2617 78.4395 89.9961 78.1309C89.7344 77.8223 89.3691 77.668 88.9004 77.668C88.4473 77.668 88.0625 77.8301 87.7461 78.1543C87.4297 78.4785 87.2344 78.9023 87.1602 79.4258H90.4004ZM95.9727 77.9727C95.8047 77.8438 95.5625 77.7793 95.2461 77.7793C94.8359 77.7793 94.4922 77.9727 94.2148 78.3594C93.9414 78.7461 93.8047 79.2734 93.8047 79.9414V83H92.8438V77H93.8047V78.2363H93.8281C93.9648 77.8145 94.1738 77.4863 94.4551 77.252C94.7363 77.0137 95.0508 76.8945 95.3984 76.8945C95.6484 76.8945 95.8398 76.9219 95.9727 76.9766V77.9727ZM46.7656 91.4766C46.5938 91.4766 46.4473 91.418 46.3262 91.3008C46.2051 91.1836 46.1445 91.0352 46.1445 90.8555C46.1445 90.6758 46.2051 90.5273 46.3262 90.4102C46.4473 90.2891 46.5938 90.2285 46.7656 90.2285C46.9414 90.2285 47.0898 90.2891 47.2109 90.4102C47.3359 90.5273 47.3984 90.6758 47.3984 90.8555C47.3984 91.0273 47.3359 91.1738 47.2109 91.2949C47.0898 91.416 46.9414 91.4766 46.7656 91.4766ZM47.2344 99H46.2734V93H47.2344V99ZM53.5742 91.4883H50.293V94.3945H53.3281V95.2793H50.293V99H49.3086V90.5977H53.5742V91.4883ZM58.168 93.9727C58 93.8438 57.7578 93.7793 57.4414 93.7793C57.0312 93.7793 56.6875 93.9727 56.4102 94.3594C56.1367 94.7461 56 95.2734 56 95.9414V99H55.0391V93H56V94.2363H56.0234C56.1602 93.8145 56.3691 93.4863 56.6504 93.252C56.9316 93.0137 57.2461 92.8945 57.5938 92.8945C57.8438 92.8945 58.0352 92.9219 58.168 92.9766V93.9727ZM63.5059 99H62.5449V98.0625H62.5215C62.1035 98.7812 61.4883 99.1406 60.6758 99.1406C60.0781 99.1406 59.6094 98.9824 59.2695 98.666C58.9336 98.3496 58.7656 97.9297 58.7656 97.4062C58.7656 96.2852 59.4258 95.6328 60.7461 95.4492L62.5449 95.1973C62.5449 94.1777 62.1328 93.668 61.3086 93.668C60.5859 93.668 59.9336 93.9141 59.3516 94.4062V93.4219C59.9414 93.0469 60.6211 92.8594 61.3906 92.8594C62.8008 92.8594 63.5059 93.6055 63.5059 95.0977V99ZM62.5449 95.9648L61.0977 96.1641C60.6523 96.2266 60.3164 96.3379 60.0898 96.498C59.8633 96.6543 59.75 96.9336 59.75 97.3359C59.75 97.6289 59.8535 97.8691 60.0605 98.0566C60.2715 98.2402 60.5508 98.332 60.8984 98.332C61.375 98.332 61.7676 98.166 62.0762 97.834C62.3887 97.498 62.5449 97.0742 62.5449 96.5625V95.9648ZM73.8359 99H72.875V95.5547C72.875 94.8906 72.7715 94.4102 72.5645 94.1133C72.3613 93.8164 72.0176 93.668 71.5332 93.668C71.123 93.668 70.7734 93.8555 70.4844 94.2305C70.1992 94.6055 70.0566 95.0547 70.0566 95.5781V99H69.0957V95.4375C69.0957 94.2578 68.6406 93.668 67.7305 93.668C67.3086 93.668 66.9609 93.8457 66.6875 94.2012C66.4141 94.5527 66.2773 95.0117 66.2773 95.5781V99H65.3164V93H66.2773V93.9492H66.3008C66.7266 93.2227 67.3477 92.8594 68.1641 92.8594C68.5742 92.8594 68.9316 92.9746 69.2363 93.2051C69.541 93.4316 69.75 93.7305 69.8633 94.1016C70.3086 93.2734 70.9727 92.8594 71.8555 92.8594C73.1758 92.8594 73.8359 93.6738 73.8359 95.3027V99ZM80.4746 96.2402H76.2383C76.2539 96.9082 76.4336 97.4238 76.7773 97.7871C77.1211 98.1504 77.5938 98.332 78.1953 98.332C78.8711 98.332 79.4922 98.1094 80.0586 97.6641V98.5664C79.5312 98.9492 78.834 99.1406 77.9668 99.1406C77.1191 99.1406 76.4531 98.8691 75.9688 98.3262C75.4844 97.7793 75.2422 97.0117 75.2422 96.0234C75.2422 95.0898 75.5059 94.3301 76.0332 93.7441C76.5645 93.1543 77.2227 92.8594 78.0078 92.8594C78.793 92.8594 79.4004 93.1133 79.8301 93.6211C80.2598 94.1289 80.4746 94.834 80.4746 95.7363V96.2402ZM79.4902 95.4258C79.4863 94.8711 79.3516 94.4395 79.0859 94.1309C78.8242 93.8223 78.459 93.668 77.9902 93.668C77.5371 93.668 77.1523 93.8301 76.8359 94.1543C76.5195 94.4785 76.3242 94.9023 76.25 95.4258H79.4902ZM81.5703 98.7832V97.752C82.0938 98.1387 82.6699 98.332 83.2988 98.332C84.1426 98.332 84.5645 98.0508 84.5645 97.4883C84.5645 97.3281 84.5273 97.1934 84.4531 97.084C84.3828 96.9707 84.2852 96.8711 84.1602 96.7852C84.0391 96.6992 83.8945 96.623 83.7266 96.5566C83.5625 96.4863 83.3848 96.4141 83.1934 96.3398C82.9277 96.2344 82.6934 96.1289 82.4902 96.0234C82.291 95.9141 82.123 95.793 81.9863 95.6602C81.8535 95.5234 81.752 95.3691 81.6816 95.1973C81.6152 95.0254 81.582 94.8242 81.582 94.5938C81.582 94.3125 81.6465 94.0645 81.7754 93.8496C81.9043 93.6309 82.0762 93.4492 82.291 93.3047C82.5059 93.1562 82.75 93.0449 83.0234 92.9707C83.3008 92.8965 83.5859 92.8594 83.8789 92.8594C84.3984 92.8594 84.8633 92.9492 85.2734 93.1289V94.1016C84.832 93.8125 84.3242 93.668 83.75 93.668C83.5703 93.668 83.4082 93.6895 83.2637 93.7324C83.1191 93.7715 82.9941 93.8281 82.8887 93.9023C82.7871 93.9766 82.707 94.0664 82.6484 94.1719C82.5938 94.2734 82.5664 94.3867 82.5664 94.5117C82.5664 94.668 82.5938 94.7988 82.6484 94.9043C82.707 95.0098 82.791 95.1035 82.9004 95.1855C83.0098 95.2676 83.1426 95.3418 83.2988 95.4082C83.4551 95.4746 83.6328 95.5469 83.832 95.625C84.0977 95.7266 84.3359 95.832 84.5469 95.9414C84.7578 96.0469 84.9375 96.168 85.0859 96.3047C85.2344 96.4375 85.3477 96.5918 85.4258 96.7676C85.5078 96.9434 85.5488 97.1523 85.5488 97.3945C85.5488 97.6914 85.4824 97.9492 85.3496 98.168C85.2207 98.3867 85.0469 98.5684 84.8281 98.7129C84.6094 98.8574 84.3574 98.9648 84.0723 99.0352C83.7871 99.1055 83.4883 99.1406 83.1758 99.1406C82.5586 99.1406 82.0234 99.0215 81.5703 98.7832ZM95.4453 99H94.4844V97.9805H94.4609C94.0156 98.7539 93.3281 99.1406 92.3984 99.1406C91.6445 99.1406 91.041 98.873 90.5879 98.3379C90.1387 97.7988 89.9141 97.0664 89.9141 96.1406C89.9141 95.1484 90.1641 94.3535 90.6641 93.7559C91.1641 93.1582 91.8301 92.8594 92.6621 92.8594C93.4863 92.8594 94.0859 93.1836 94.4609 93.832H94.4844V90.1172H95.4453V99ZM94.4844 96.2871V95.4023C94.4844 94.918 94.3242 94.5078 94.0039 94.1719C93.6836 93.8359 93.2773 93.668 92.7852 93.668C92.1992 93.668 91.7383 93.8828 91.4023 94.3125C91.0664 94.7422 90.8984 95.3359 90.8984 96.0938C90.8984 96.7852 91.0586 97.332 91.3789 97.7344C91.7031 98.1328 92.1367 98.332 92.6797 98.332C93.2148 98.332 93.6484 98.1387 93.9805 97.752C94.3164 97.3652 94.4844 96.877 94.4844 96.2871ZM102.213 96.2402H97.9766C97.9922 96.9082 98.1719 97.4238 98.5156 97.7871C98.8594 98.1504 99.332 98.332 99.9336 98.332C100.609 98.332 101.23 98.1094 101.797 97.6641V98.5664C101.27 98.9492 100.572 99.1406 99.7051 99.1406C98.8574 99.1406 98.1914 98.8691 97.707 98.3262C97.2227 97.7793 96.9805 97.0117 96.9805 96.0234C96.9805 95.0898 97.2441 94.3301 97.7715 93.7441C98.3027 93.1543 98.9609 92.8594 99.7461 92.8594C100.531 92.8594 101.139 93.1133 101.568 93.6211C101.998 94.1289 102.213 94.834 102.213 95.7363V96.2402ZM101.229 95.4258C101.225 94.8711 101.09 94.4395 100.824 94.1309C100.562 93.8223 100.197 93.668 99.7285 93.668C99.2754 93.668 98.8906 93.8301 98.5742 94.1543C98.2578 94.4785 98.0625 94.9023 97.9883 95.4258H101.229ZM54.9805 114.941C54.7539 115.066 54.4551 115.129 54.084 115.129C53.0332 115.129 52.5078 114.543 52.5078 113.371V109.82H51.4766V109H52.5078V107.535L53.4688 107.225V109H54.9805V109.82H53.4688V113.201C53.4688 113.604 53.5371 113.891 53.6738 114.062C53.8105 114.234 54.0371 114.32 54.3535 114.32C54.5957 114.32 54.8047 114.254 54.9805 114.121V114.941ZM61.0859 112.24H56.8496C56.8652 112.908 57.0449 113.424 57.3887 113.787C57.7324 114.15 58.2051 114.332 58.8066 114.332C59.4824 114.332 60.1035 114.109 60.6699 113.664V114.566C60.1426 114.949 59.4453 115.141 58.5781 115.141C57.7305 115.141 57.0645 114.869 56.5801 114.326C56.0957 113.779 55.8535 113.012 55.8535 112.023C55.8535 111.09 56.1172 110.33 56.6445 109.744C57.1758 109.154 57.834 108.859 58.6191 108.859C59.4043 108.859 60.0117 109.113 60.4414 109.621C60.8711 110.129 61.0859 110.834 61.0859 111.736V112.24ZM60.1016 111.426C60.0977 110.871 59.9629 110.439 59.6973 110.131C59.4355 109.822 59.0703 109.668 58.6016 109.668C58.1484 109.668 57.7637 109.83 57.4473 110.154C57.1309 110.479 56.9355 110.902 56.8613 111.426H60.1016ZM65.6738 109.973C65.5059 109.844 65.2637 109.779 64.9473 109.779C64.5371 109.779 64.1934 109.973 63.916 110.359C63.6426 110.746 63.5059 111.273 63.5059 111.941V115H62.5449V109H63.5059V110.236H63.5293C63.666 109.814 63.875 109.486 64.1562 109.252C64.4375 109.014 64.752 108.895 65.0996 108.895C65.3496 108.895 65.541 108.922 65.6738 108.977V109.973ZM70.8066 114.725C70.3457 115.002 69.7988 115.141 69.166 115.141C68.3105 115.141 67.6191 114.863 67.0918 114.309C66.5684 113.75 66.3066 113.027 66.3066 112.141C66.3066 111.152 66.5898 110.359 67.1562 109.762C67.7227 109.16 68.4785 108.859 69.4238 108.859C69.9512 108.859 70.416 108.957 70.8184 109.152V110.137C70.373 109.824 69.8965 109.668 69.3887 109.668C68.7754 109.668 68.2715 109.889 67.877 110.33C67.4863 110.768 67.291 111.344 67.291 112.059C67.291 112.762 67.4746 113.316 67.8418 113.723C68.2129 114.129 68.709 114.332 69.3301 114.332C69.8535 114.332 70.3457 114.158 70.8066 113.811V114.725ZM77.082 112.24H72.8457C72.8613 112.908 73.041 113.424 73.3848 113.787C73.7285 114.15 74.2012 114.332 74.8027 114.332C75.4785 114.332 76.0996 114.109 76.666 113.664V114.566C76.1387 114.949 75.4414 115.141 74.5742 115.141C73.7266 115.141 73.0605 114.869 72.5762 114.326C72.0918 113.779 71.8496 113.012 71.8496 112.023C71.8496 111.09 72.1133 110.33 72.6406 109.744C73.1719 109.154 73.8301 108.859 74.6152 108.859C75.4004 108.859 76.0078 109.113 76.4375 109.621C76.8672 110.129 77.082 110.834 77.082 111.736V112.24ZM76.0977 111.426C76.0938 110.871 75.959 110.439 75.6934 110.131C75.4316 109.822 75.0664 109.668 74.5977 109.668C74.1445 109.668 73.7598 109.83 73.4434 110.154C73.127 110.479 72.9316 110.902 72.8574 111.426H76.0977ZM79.0332 107.477C78.8613 107.477 78.7148 107.418 78.5938 107.301C78.4727 107.184 78.4121 107.035 78.4121 106.855C78.4121 106.676 78.4727 106.527 78.5938 106.41C78.7148 106.289 78.8613 106.229 79.0332 106.229C79.209 106.229 79.3574 106.289 79.4785 106.41C79.6035 106.527 79.666 106.676 79.666 106.855C79.666 107.027 79.6035 107.174 79.4785 107.295C79.3574 107.416 79.209 107.477 79.0332 107.477ZM79.502 115H78.541V109H79.502V115ZM84.5762 109.973C84.4082 109.844 84.166 109.779 83.8496 109.779C83.4395 109.779 83.0957 109.973 82.8184 110.359C82.5449 110.746 82.4082 111.273 82.4082 111.941V115H81.4473V109H82.4082V110.236H82.4316C82.5684 109.814 82.7773 109.486 83.0586 109.252C83.3398 109.014 83.6543 108.895 84.002 108.895C84.252 108.895 84.4434 108.922 84.5762 108.977V109.973ZM88.127 115.141C87.2402 115.141 86.5312 114.861 86 114.303C85.4727 113.74 85.209 112.996 85.209 112.07C85.209 111.062 85.4844 110.275 86.0352 109.709C86.5859 109.143 87.3301 108.859 88.2676 108.859C89.1621 108.859 89.8594 109.135 90.3594 109.686C90.8633 110.236 91.1152 111 91.1152 111.977C91.1152 112.934 90.8438 113.701 90.3008 114.279C89.7617 114.854 89.0371 115.141 88.127 115.141ZM88.1973 109.668C87.5801 109.668 87.0918 109.879 86.7324 110.301C86.373 110.719 86.1934 111.297 86.1934 112.035C86.1934 112.746 86.375 113.307 86.7383 113.717C87.1016 114.127 87.5879 114.332 88.1973 114.332C88.8184 114.332 89.2949 114.131 89.627 113.729C89.9629 113.326 90.1309 112.754 90.1309 112.012C90.1309 111.262 89.9629 110.684 89.627 110.277C89.2949 109.871 88.8184 109.668 88.1973 109.668ZM92.2871 114.783V113.752C92.8105 114.139 93.3867 114.332 94.0156 114.332C94.8594 114.332 95.2812 114.051 95.2812 113.488C95.2812 113.328 95.2441 113.193 95.1699 113.084C95.0996 112.971 95.002 112.871 94.877 112.785C94.7559 112.699 94.6113 112.623 94.4434 112.557C94.2793 112.486 94.1016 112.414 93.9102 112.34C93.6445 112.234 93.4102 112.129 93.207 112.023C93.0078 111.914 92.8398 111.793 92.7031 111.66C92.5703 111.523 92.4688 111.369 92.3984 111.197C92.332 111.025 92.2988 110.824 92.2988 110.594C92.2988 110.312 92.3633 110.064 92.4922 109.85C92.6211 109.631 92.793 109.449 93.0078 109.305C93.2227 109.156 93.4668 109.045 93.7402 108.971C94.0176 108.896 94.3027 108.859 94.5957 108.859C95.1152 108.859 95.5801 108.949 95.9902 109.129V110.102C95.5488 109.812 95.041 109.668 94.4668 109.668C94.2871 109.668 94.125 109.689 93.9805 109.732C93.8359 109.771 93.7109 109.828 93.6055 109.902C93.5039 109.977 93.4238 110.066 93.3652 110.172C93.3105 110.273 93.2832 110.387 93.2832 110.512C93.2832 110.668 93.3105 110.799 93.3652 110.904C93.4238 111.01 93.5078 111.104 93.6172 111.186C93.7266 111.268 93.8594 111.342 94.0156 111.408C94.1719 111.475 94.3496 111.547 94.5488 111.625C94.8145 111.727 95.0527 111.832 95.2637 111.941C95.4746 112.047 95.6543 112.168 95.8027 112.305C95.9512 112.438 96.0645 112.592 96.1426 112.768C96.2246 112.943 96.2656 113.152 96.2656 113.395C96.2656 113.691 96.1992 113.949 96.0664 114.168C95.9375 114.387 95.7637 114.568 95.5449 114.713C95.3262 114.857 95.0742 114.965 94.7891 115.035C94.5039 115.105 94.2051 115.141 93.8926 115.141C93.2754 115.141 92.7402 115.021 92.2871 114.783Z" fill="#020057"/>
</g>
<defs>
<filter id="filter0_dd_3872_63023" x="0.8" y="2.38419e-07" width="146.4" height="146.4" filterUnits="userSpaceOnUse" color-interpolation-filters="sRGB">
<feFlood flood-opacity="0" result="BackgroundImageFix"/>
<feColorMatrix in="SourceAlpha" type="matrix" values="0 0 0 0 0 0 0 0 0 0 0 0 0 0 0 0 0 0 127 0" result="hardAlpha"/>
<feOffset dy="3.2"/>
<feGaussianBlur stdDeviation="3.6"/>
<feColorMatrix type="matrix" values="0 0 0 0 0.513726 0 0 0 0 0.494118 0 0 0 0 1 0 0 0 0.12 0"/>
<feBlend mode="normal" in2="BackgroundImageFix" result="effect1_dropShadow_3872_63023"/>
<feColorMatrix in="SourceAlpha" type="matrix" values="0 0 0 0 0 0 0 0 0 0 0 0 0 0 0 0 0 0 127 0" result="hardAlpha"/>
<feOffset dy="0.6"/>
<feGaussianBlur stdDeviation="0.9"/>
<feColorMatrix type="matrix" values="0 0 0 0 0.513726 0 0 0 0 0.494118 0 0 0 0 1 0 0 0 0.1 0"/>
<feBlend mode="normal" in2="effect1_dropShadow_3872_63023" result="effect2_dropShadow_3872_63023"/>
<feBlend mode="normal" in="SourceGraphic" in2="effect2_dropShadow_3872_63023" result="shape"/>
</filter>
</defs>
</svg>
