<svg width="100%" viewBox="0 0 148 147" fill="none" xmlns="http://www.w3.org/2000/svg">
<g filter="url(#filter0_dd_3872_63024)">
<rect x="8" y="4" width="132" height="132" fill="#FBFBFE"/>
<rect x="8.5" y="4.5" width="131" height="131" stroke="#827DFF" stroke-dasharray="4 4"/>
<rect width="100" height="128" transform="translate(24 6)" fill="#FBFBFE"/>
<path d="M65.4247 16.5758C65.1903 16.3414 64.8104 16.3414 64.5761 16.5758C64.3418 16.8101 64.3418 17.19 64.5761 17.4243L66.0974 18.9456C65.7833 19.4199 65.6004 19.9886 65.6004 20.6V31.4C65.6004 33.0569 66.9435 34.4 68.6004 34.4H79.4004C80.0118 34.4 80.5806 34.2171 81.0548 33.903L82.5761 35.4243C82.8104 35.6586 83.1903 35.6586 83.4247 35.4243C83.659 35.19 83.659 34.8101 83.4247 34.5758L65.4247 16.5758ZM80.1764 33.0246C79.9415 33.1371 79.6783 33.2 79.4004 33.2H68.6004C67.6063 33.2 66.8004 32.3941 66.8004 31.4V22.4H69.5519L80.1764 33.0246ZM81.2004 22.4V30.6544L82.3706 31.8246C82.3902 31.6859 82.4004 31.5442 82.4004 31.4V20.6C82.4004 18.9432 81.0572 17.6 79.4004 17.6H68.6004C68.4563 17.6 68.3145 17.6102 68.1758 17.6298L72.946 22.4H81.2004Z" fill="#020057"/>
<path d="M55.8711 58.6484C55.25 58.9766 54.4766 59.1406 53.5508 59.1406C52.3555 59.1406 51.3984 58.7559 50.6797 57.9863C49.9609 57.2168 49.6016 56.207 49.6016 54.957C49.6016 53.6133 50.0059 52.5273 50.8145 51.6992C51.623 50.8711 52.6484 50.457 53.8906 50.457C54.6875 50.457 55.3477 50.5723 55.8711 50.8027V51.8516C55.2695 51.5156 54.6055 51.3477 53.8789 51.3477C52.9141 51.3477 52.1309 51.6699 51.5293 52.3145C50.9316 52.959 50.6328 53.8203 50.6328 54.8984C50.6328 55.9219 50.9121 56.7383 51.4707 57.3477C52.0332 57.9531 52.7695 58.2559 53.6797 58.2559C54.5234 58.2559 55.2539 58.0684 55.8711 57.6934V58.6484ZM58.4141 59H57.4531V50.1172H58.4141V59ZM64.6543 59H63.6934V58.0625H63.6699C63.252 58.7812 62.6367 59.1406 61.8242 59.1406C61.2266 59.1406 60.7578 58.9824 60.418 58.666C60.082 58.3496 59.9141 57.9297 59.9141 57.4062C59.9141 56.2852 60.5742 55.6328 61.8945 55.4492L63.6934 55.1973C63.6934 54.1777 63.2812 53.668 62.457 53.668C61.7344 53.668 61.082 53.9141 60.5 54.4062V53.4219C61.0898 53.0469 61.7695 52.8594 62.5391 52.8594C63.9492 52.8594 64.6543 53.6055 64.6543 55.0977V59ZM63.6934 55.9648L62.2461 56.1641C61.8008 56.2266 61.4648 56.3379 61.2383 56.498C61.0117 56.6543 60.8984 56.9336 60.8984 57.3359C60.8984 57.6289 61.002 57.8691 61.209 58.0566C61.4199 58.2402 61.6992 58.332 62.0469 58.332C62.5234 58.332 62.916 58.166 63.2246 57.834C63.5371 57.498 63.6934 57.0742 63.6934 56.5625V55.9648ZM69.5938 53.9727C69.4258 53.8438 69.1836 53.7793 68.8672 53.7793C68.457 53.7793 68.1133 53.9727 67.8359 54.3594C67.5625 54.7461 67.4258 55.2734 67.4258 55.9414V59H66.4648V53H67.4258V54.2363H67.4492C67.5859 53.8145 67.7949 53.4863 68.0762 53.252C68.3574 53.0137 68.6719 52.8945 69.0195 52.8945C69.2695 52.8945 69.4609 52.9219 69.5938 52.9766V53.9727ZM71.1289 51.4766C70.957 51.4766 70.8105 51.418 70.6895 51.3008C70.5684 51.1836 70.5078 51.0352 70.5078 50.8555C70.5078 50.6758 70.5684 50.5273 70.6895 50.4102C70.8105 50.2891 70.957 50.2285 71.1289 50.2285C71.3047 50.2285 71.4531 50.2891 71.5742 50.4102C71.6992 50.5273 71.7617 50.6758 71.7617 50.8555C71.7617 51.0273 71.6992 51.1738 71.5742 51.2949C71.4531 51.416 71.3047 51.4766 71.1289 51.4766ZM71.5977 59H70.6367V53H71.5977V59ZM76.3262 58.9414C76.0996 59.0664 75.8008 59.1289 75.4297 59.1289C74.3789 59.1289 73.8535 58.543 73.8535 57.3711V53.8203H72.8223V53H73.8535V51.5352L74.8145 51.2246V53H76.3262V53.8203H74.8145V57.2012C74.8145 57.6035 74.8828 57.8906 75.0195 58.0625C75.1562 58.2344 75.3828 58.3203 75.6992 58.3203C75.9414 58.3203 76.1504 58.2539 76.3262 58.1211V58.9414ZM82.3848 53L79.625 59.9609C79.1328 61.2031 78.4414 61.8242 77.5508 61.8242C77.3008 61.8242 77.0918 61.7988 76.9238 61.748V60.8867C77.1309 60.957 77.3203 60.9922 77.4922 60.9922C77.9766 60.9922 78.3398 60.7031 78.582 60.125L79.0625 58.9883L76.7188 53H77.7852L79.4082 57.6172C79.4277 57.6758 79.4688 57.8281 79.5312 58.0742H79.5664C79.5859 57.9805 79.625 57.832 79.6836 57.6289L81.3887 53H82.3848ZM91.6953 59H90.7344V56.2754H87.6758V59H86.7148V53H87.6758V55.4609H90.7344V53H91.6953V59ZM98.4629 56.2402H94.2266C94.2422 56.9082 94.4219 57.4238 94.7656 57.7871C95.1094 58.1504 95.582 58.332 96.1836 58.332C96.8594 58.332 97.4805 58.1094 98.0469 57.6641V58.5664C97.5195 58.9492 96.8223 59.1406 95.9551 59.1406C95.1074 59.1406 94.4414 58.8691 93.957 58.3262C93.4727 57.7793 93.2305 57.0117 93.2305 56.0234C93.2305 55.0898 93.4941 54.3301 94.0215 53.7441C94.5527 53.1543 95.2109 52.8594 95.9961 52.8594C96.7812 52.8594 97.3887 53.1133 97.8184 53.6211C98.248 54.1289 98.4629 54.834 98.4629 55.7363V56.2402ZM97.4785 55.4258C97.4746 54.8711 97.3398 54.4395 97.0742 54.1309C96.8125 53.8223 96.4473 53.668 95.9785 53.668C95.5254 53.668 95.1406 53.8301 94.8242 54.1543C94.5078 54.4785 94.3125 54.9023 94.2383 55.4258H97.4785ZM63.6465 75H62.6973V70.0547C62.6113 70.3047 62.4785 70.6719 62.2988 71.1562L60.7988 75H59.9375L58.3906 71.1562C58.3086 70.9492 58.1758 70.582 57.9922 70.0547V75H57.166V69H58.3906L59.9727 72.9141C60.0859 73.1992 60.2305 73.5938 60.4062 74.0977L60.834 72.9375L62.3691 69H63.6465V75ZM68.0996 75.1406C67.2129 75.1406 66.5039 74.8613 65.9727 74.3027C65.4453 73.7402 65.1816 72.9961 65.1816 72.0703C65.1816 71.0625 65.457 70.2754 66.0078 69.709C66.5586 69.1426 67.3027 68.8594 68.2402 68.8594C69.1348 68.8594 69.832 69.1348 70.332 69.6855C70.8359 70.2363 71.0879 71 71.0879 71.9766C71.0879 72.9336 70.8164 73.7012 70.2734 74.2793C69.7344 74.8535 69.0098 75.1406 68.0996 75.1406ZM68.1699 69.668C67.5527 69.668 67.0645 69.8789 66.7051 70.3008C66.3457 70.7188 66.166 71.2969 66.166 72.0352C66.166 72.7461 66.3477 73.3066 66.7109 73.7168C67.0742 74.127 67.5605 74.332 68.1699 74.332C68.791 74.332 69.2676 74.1309 69.5996 73.7285C69.9355 73.3262 70.1035 72.7539 70.1035 72.0117C70.1035 71.2617 69.9355 70.6836 69.5996 70.2773C69.2676 69.8711 68.791 69.668 68.1699 69.668ZM80.5918 75H79.291L76.6074 72.0352H76.584V75H75.6699V72.0352H75.6465L72.957 75H71.6738L74.6504 71.9062L71.8555 69H73.0801L75.6465 71.8066H75.6699V69H76.584V71.8066H76.6074L79.1738 69H80.4102L77.6035 71.9062L80.5918 75ZM86.3984 72.2402H82.1621C82.1777 72.9082 82.3574 73.4238 82.7012 73.7871C83.0449 74.1504 83.5176 74.332 84.1191 74.332C84.7949 74.332 85.416 74.1094 85.9824 73.6641V74.5664C85.4551 74.9492 84.7578 75.1406 83.8906 75.1406C83.043 75.1406 82.377 74.8691 81.8926 74.3262C81.4082 73.7793 81.166 73.0117 81.166 72.0234C81.166 71.0898 81.4297 70.3301 81.957 69.7441C82.4883 69.1543 83.1465 68.8594 83.9316 68.8594C84.7168 68.8594 85.3242 69.1133 85.7539 69.6211C86.1836 70.1289 86.3984 70.834 86.3984 71.7363V72.2402ZM85.4141 71.4258C85.4102 70.8711 85.2754 70.4395 85.0098 70.1309C84.748 69.8223 84.3828 69.668 83.9141 69.668C83.4609 69.668 83.0762 69.8301 82.7598 70.1543C82.4434 70.4785 82.248 70.9023 82.1738 71.4258H85.4141ZM91.625 69.8203H89.8262V75H88.8652V69.8203H87.0605V69H91.625V69.8203ZM51.5703 91H50.6094V85.8203H47.5508V91H46.5898V85H51.5703V91ZM54.5 90.1328H54.4766V93.7598H53.5156V85H54.4766V86.0547H54.5C54.9727 85.2578 55.6641 84.8594 56.5742 84.8594C57.3477 84.8594 57.9512 85.1289 58.3848 85.668C58.8184 86.2031 59.0352 86.9219 59.0352 87.8242C59.0352 88.8281 58.791 89.6328 58.3027 90.2383C57.8145 90.8398 57.1465 91.1406 56.2988 91.1406C55.5215 91.1406 54.9219 90.8047 54.5 90.1328ZM54.4766 87.7129V88.5508C54.4766 89.0469 54.6367 89.4688 54.957 89.8164C55.2812 90.1602 55.6914 90.332 56.1875 90.332C56.7695 90.332 57.2246 90.1094 57.5527 89.6641C57.8848 89.2188 58.0508 88.5996 58.0508 87.8066C58.0508 87.1387 57.8965 86.6152 57.5879 86.2363C57.2793 85.8574 56.8613 85.668 56.334 85.668C55.7754 85.668 55.3262 85.8633 54.9863 86.2539C54.6465 86.6406 54.4766 87.127 54.4766 87.7129ZM63.0781 91.1406C62.1914 91.1406 61.4824 90.8613 60.9512 90.3027C60.4238 89.7402 60.1602 88.9961 60.1602 88.0703C60.1602 87.0625 60.4355 86.2754 60.9863 85.709C61.5371 85.1426 62.2812 84.8594 63.2188 84.8594C64.1133 84.8594 64.8105 85.1348 65.3105 85.6855C65.8145 86.2363 66.0664 87 66.0664 87.9766C66.0664 88.9336 65.7949 89.7012 65.252 90.2793C64.7129 90.8535 63.9883 91.1406 63.0781 91.1406ZM63.1484 85.668C62.5312 85.668 62.043 85.8789 61.6836 86.3008C61.3242 86.7188 61.1445 87.2969 61.1445 88.0352C61.1445 88.7461 61.3262 89.3066 61.6895 89.7168C62.0527 90.127 62.5391 90.332 63.1484 90.332C63.7695 90.332 64.2461 90.1309 64.5781 89.7285C64.9141 89.3262 65.082 88.7539 65.082 88.0117C65.082 87.2617 64.9141 86.6836 64.5781 86.2773C64.2461 85.8711 63.7695 85.668 63.1484 85.668ZM72.4355 91H71.4805V88.5859C70.7773 88.9688 70.1289 89.1602 69.5352 89.1602C68.1914 89.1602 67.5195 88.4492 67.5195 87.0273V85H68.4805V86.9805C68.4805 87.8594 68.8594 88.2988 69.6172 88.2988C70.1953 88.2988 70.8164 88.1309 71.4805 87.7949V85H72.4355V91ZM79.4141 91H78.5469V86.2129C78.4609 86.3809 78.3301 86.6172 78.1543 86.9219L75.3828 91H74.3867V85H75.2656V89.7285C75.3125 89.6152 75.4141 89.4219 75.5703 89.1484L78.418 85H79.4141V91ZM85.127 85.8203H83.3281V91H82.3672V85.8203H80.5625V85H85.127V85.8203ZM90.5762 91H89.6152V90.0625H89.5918C89.1738 90.7812 88.5586 91.1406 87.7461 91.1406C87.1484 91.1406 86.6797 90.9824 86.3398 90.666C86.0039 90.3496 85.8359 89.9297 85.8359 89.4062C85.8359 88.2852 86.4961 87.6328 87.8164 87.4492L89.6152 87.1973C89.6152 86.1777 89.2031 85.668 88.3789 85.668C87.6562 85.668 87.0039 85.9141 86.4219 86.4062V85.4219C87.0117 85.0469 87.6914 84.8594 88.4609 84.8594C89.8711 84.8594 90.5762 85.6055 90.5762 87.0977V91ZM89.6152 87.9648L88.168 88.1641C87.7227 88.2266 87.3867 88.3379 87.1602 88.498C86.9336 88.6543 86.8203 88.9336 86.8203 89.3359C86.8203 89.6289 86.9238 89.8691 87.1309 90.0566C87.3418 90.2402 87.6211 90.332 87.9688 90.332C88.4453 90.332 88.8379 90.166 89.1465 89.834C89.459 89.498 89.6152 89.0742 89.6152 88.5625V87.9648ZM96.1543 85.8203H94.3555V91H93.3945V85.8203H91.5898V85H96.1543V85.8203ZM97.3086 91V85H98.2695V87.3027H99.8867C100.5 87.3027 100.986 87.4629 101.346 87.7832C101.709 88.1035 101.891 88.5508 101.891 89.125C101.891 89.7031 101.709 90.1602 101.346 90.4961C100.982 90.832 100.523 91 99.9688 91H97.3086ZM98.2695 88.1289V90.1797H99.7109C100.508 90.1797 100.906 89.8281 100.906 89.125C100.906 88.4609 100.504 88.1289 99.6992 88.1289H98.2695ZM49.7188 106.725C49.2578 107.002 48.7109 107.141 48.0781 107.141C47.2227 107.141 46.5312 106.863 46.0039 106.309C45.4805 105.75 45.2188 105.027 45.2188 104.141C45.2188 103.152 45.502 102.359 46.0684 101.762C46.6348 101.16 47.3906 100.859 48.3359 100.859C48.8633 100.859 49.3281 100.957 49.7305 101.152V102.137C49.2852 101.824 48.8086 101.668 48.3008 101.668C47.6875 101.668 47.1836 101.889 46.7891 102.33C46.3984 102.768 46.2031 103.344 46.2031 104.059C46.2031 104.762 46.3867 105.316 46.7539 105.723C47.125 106.129 47.6211 106.332 48.2422 106.332C48.7656 106.332 49.2578 106.158 49.7188 105.811V106.725ZM54.9395 101.82H53.1406V107H52.1797V101.82H50.375V101H54.9395V101.82ZM58.6016 107.141C57.7148 107.141 57.0059 106.861 56.4746 106.303C55.9473 105.74 55.6836 104.996 55.6836 104.07C55.6836 103.062 55.959 102.275 56.5098 101.709C57.0605 101.143 57.8047 100.859 58.7422 100.859C59.6367 100.859 60.334 101.135 60.834 101.686C61.3379 102.236 61.5898 103 61.5898 103.977C61.5898 104.934 61.3184 105.701 60.7754 106.279C60.2363 106.854 59.5117 107.141 58.6016 107.141ZM58.6719 101.668C58.0547 101.668 57.5664 101.879 57.207 102.301C56.8477 102.719 56.668 103.297 56.668 104.035C56.668 104.746 56.8496 105.307 57.2129 105.717C57.5762 106.127 58.0625 106.332 58.6719 106.332C59.293 106.332 59.7695 106.131 60.1016 105.729C60.4375 105.326 60.6055 104.754 60.6055 104.012C60.6055 103.262 60.4375 102.684 60.1016 102.277C59.7695 101.871 59.293 101.668 58.6719 101.668ZM64.1094 106.133H64.0859V109.76H63.125V101H64.0859V102.055H64.1094C64.582 101.258 65.2734 100.859 66.1836 100.859C66.957 100.859 67.5605 101.129 67.9941 101.668C68.4277 102.203 68.6445 102.922 68.6445 103.824C68.6445 104.828 68.4004 105.633 67.9121 106.238C67.4238 106.84 66.7559 107.141 65.9082 107.141C65.1309 107.141 64.5312 106.805 64.1094 106.133ZM64.0859 103.713V104.551C64.0859 105.047 64.2461 105.469 64.5664 105.816C64.8906 106.16 65.3008 106.332 65.7969 106.332C66.3789 106.332 66.834 106.109 67.1621 105.664C67.4941 105.219 67.6602 104.6 67.6602 103.807C67.6602 103.139 67.5059 102.615 67.1973 102.236C66.8887 101.857 66.4707 101.668 65.9434 101.668C65.3848 101.668 64.9355 101.863 64.5957 102.254C64.2559 102.641 64.0859 103.127 64.0859 103.713ZM72.6875 107.141C71.8008 107.141 71.0918 106.861 70.5605 106.303C70.0332 105.74 69.7695 104.996 69.7695 104.07C69.7695 103.062 70.0449 102.275 70.5957 101.709C71.1465 101.143 71.8906 100.859 72.8281 100.859C73.7227 100.859 74.4199 101.135 74.9199 101.686C75.4238 102.236 75.6758 103 75.6758 103.977C75.6758 104.934 75.4043 105.701 74.8613 106.279C74.3223 106.854 73.5977 107.141 72.6875 107.141ZM72.7578 101.668C72.1406 101.668 71.6523 101.879 71.293 102.301C70.9336 102.719 70.7539 103.297 70.7539 104.035C70.7539 104.746 70.9355 105.307 71.2988 105.717C71.6621 106.127 72.1484 106.332 72.7578 106.332C73.3789 106.332 73.8555 106.131 74.1875 105.729C74.5234 105.326 74.6914 104.754 74.6914 104.012C74.6914 103.262 74.5234 102.684 74.1875 102.277C73.8555 101.871 73.3789 101.668 72.7578 101.668ZM82.1914 107H81.2305V104.275H78.1719V107H77.2109V101H78.1719V103.461H81.2305V101H82.1914V107ZM89.1172 107H88.1562V104.275H85.0977V107H84.1367V101H85.0977V103.461H88.1562V101H89.1172V107ZM96.0898 107H95.2227V102.213C95.1367 102.381 95.0059 102.617 94.8301 102.922L92.0586 107H91.0625V101H91.9414V105.729C91.9883 105.615 92.0898 105.422 92.2461 105.148L95.0938 101H96.0898V107ZM102.857 104.24H98.6211C98.6367 104.908 98.8164 105.424 99.1602 105.787C99.5039 106.15 99.9766 106.332 100.578 106.332C101.254 106.332 101.875 106.109 102.441 105.664V106.566C101.914 106.949 101.217 107.141 100.35 107.141C99.502 107.141 98.8359 106.869 98.3516 106.326C97.8672 105.779 97.625 105.012 97.625 104.023C97.625 103.09 97.8887 102.33 98.416 101.744C98.9473 101.154 99.6055 100.859 100.391 100.859C101.176 100.859 101.783 101.113 102.213 101.621C102.643 102.129 102.857 102.834 102.857 103.736V104.24ZM101.873 103.426C101.869 102.871 101.734 102.439 101.469 102.131C101.207 101.822 100.842 101.668 100.373 101.668C99.9199 101.668 99.5352 101.83 99.2188 102.154C98.9023 102.479 98.707 102.902 98.6328 103.426H101.873ZM40.9883 123.141V125.824H40.1211V123.141H39.9336C39.0586 123.141 38.3516 122.857 37.8125 122.291C37.2734 121.725 37.0039 120.984 37.0039 120.07C37.0039 119.098 37.2754 118.32 37.8184 117.738C38.3652 117.152 39.0859 116.859 39.9805 116.859H40.1211V114.457H40.9883V116.859H41.1172C42.0195 116.859 42.7422 117.15 43.2852 117.732C43.832 118.311 44.1055 119.09 44.1055 120.07C44.1055 120.984 43.8379 121.725 43.3027 122.291C42.7676 122.857 42.0645 123.141 41.1934 123.141H40.9883ZM40.9883 117.668V122.332H41.1172C41.7266 122.332 42.2129 122.127 42.5762 121.717C42.9395 121.303 43.1211 120.742 43.1211 120.035C43.1211 119.293 42.9414 118.713 42.582 118.295C42.2266 117.877 41.748 117.668 41.1465 117.668H40.9883ZM40.1211 122.332V117.668H39.9805C39.3789 117.668 38.8965 117.879 38.5332 118.301C38.1699 118.719 37.9883 119.297 37.9883 120.035C37.9883 120.734 38.1699 121.293 38.5332 121.711C38.9004 122.125 39.3906 122.332 40.0039 122.332H40.1211ZM49.9473 123H48.9863V122.062H48.9629C48.5449 122.781 47.9297 123.141 47.1172 123.141C46.5195 123.141 46.0508 122.982 45.7109 122.666C45.375 122.35 45.207 121.93 45.207 121.406C45.207 120.285 45.8672 119.633 47.1875 119.449L48.9863 119.197C48.9863 118.178 48.5742 117.668 47.75 117.668C47.0273 117.668 46.375 117.914 45.793 118.406V117.422C46.3828 117.047 47.0625 116.859 47.832 116.859C49.2422 116.859 49.9473 117.605 49.9473 119.098V123ZM48.9863 119.965L47.5391 120.164C47.0938 120.227 46.7578 120.338 46.5312 120.498C46.3047 120.654 46.1914 120.934 46.1914 121.336C46.1914 121.629 46.2949 121.869 46.502 122.057C46.7129 122.24 46.9922 122.332 47.3398 122.332C47.8164 122.332 48.209 122.166 48.5176 121.834C48.8301 121.498 48.9863 121.074 48.9863 120.562V119.965ZM56.7852 123H55.918V118.213C55.832 118.381 55.7012 118.617 55.5254 118.922L52.7539 123H51.7578V117H52.6367V121.729C52.6836 121.615 52.7852 121.422 52.9414 121.148L55.7891 117H56.7852V123ZM56.4336 114.082C56.375 114.633 56.1523 115.068 55.7656 115.389C55.3828 115.705 54.9023 115.863 54.3242 115.863C53.7305 115.863 53.2461 115.705 52.8711 115.389C52.5 115.068 52.2969 114.633 52.2617 114.082H53.2109C53.2656 114.816 53.6406 115.184 54.3359 115.184C54.6484 115.184 54.9062 115.088 55.1094 114.896C55.3125 114.701 55.4375 114.43 55.4844 114.082H56.4336ZM63.1074 123H62.1523V117.814H60.7578C60.5977 119.756 60.3223 121.119 59.9316 121.904C59.5449 122.689 59.0234 123.082 58.3672 123.082C58.168 123.082 57.9961 123.055 57.8516 123V122.174C57.9883 122.244 58.1367 122.279 58.2969 122.279C59.1562 122.279 59.709 120.52 59.9551 117H63.1074V123ZM71.6211 123H70.6719V117H71.6211V123ZM65.0586 123V117H66.0195V119.303H67.6367C68.25 119.303 68.7363 119.463 69.0957 119.783C69.459 120.104 69.6406 120.551 69.6406 121.125C69.6406 121.703 69.459 122.16 69.0957 122.496C68.7324 122.832 68.2734 123 67.7188 123H65.0586ZM66.0195 120.129V122.18H67.4609C68.2578 122.18 68.6562 121.828 68.6562 121.125C68.6562 120.461 68.2539 120.129 67.4492 120.129H66.0195ZM77.3633 115.477C77.1914 115.477 77.0449 115.418 76.9238 115.301C76.8027 115.184 76.7422 115.035 76.7422 114.855C76.7422 114.676 76.8027 114.527 76.9238 114.41C77.0449 114.289 77.1914 114.229 77.3633 114.229C77.5391 114.229 77.6875 114.289 77.8086 114.41C77.9336 114.527 77.9961 114.676 77.9961 114.855C77.9961 115.027 77.9336 115.174 77.8086 115.295C77.6875 115.416 77.5391 115.477 77.3633 115.477ZM77.832 123H76.8711V117H77.832V123ZM84.1719 115.488H80.8906V118.395H83.9258V119.279H80.8906V123H79.9062V114.598H84.1719V115.488ZM88.7656 117.973C88.5977 117.844 88.3555 117.779 88.0391 117.779C87.6289 117.779 87.2852 117.973 87.0078 118.359C86.7344 118.746 86.5977 119.273 86.5977 119.941V123H85.6367V117H86.5977V118.236H86.6211C86.7578 117.814 86.9668 117.486 87.248 117.252C87.5293 117.014 87.8438 116.895 88.1914 116.895C88.4414 116.895 88.6328 116.922 88.7656 116.977V117.973ZM94.1035 123H93.1426V122.062H93.1191C92.7012 122.781 92.0859 123.141 91.2734 123.141C90.6758 123.141 90.207 122.982 89.8672 122.666C89.5312 122.35 89.3633 121.93 89.3633 121.406C89.3633 120.285 90.0234 119.633 91.3438 119.449L93.1426 119.197C93.1426 118.178 92.7305 117.668 91.9062 117.668C91.1836 117.668 90.5312 117.914 89.9492 118.406V117.422C90.5391 117.047 91.2188 116.859 91.9883 116.859C93.3984 116.859 94.1035 117.605 94.1035 119.098V123ZM93.1426 119.965L91.6953 120.164C91.25 120.227 90.9141 120.338 90.6875 120.498C90.4609 120.654 90.3477 120.934 90.3477 121.336C90.3477 121.629 90.4512 121.869 90.6582 122.057C90.8691 122.24 91.1484 122.332 91.4961 122.332C91.9727 122.332 92.3652 122.166 92.6738 121.834C92.9863 121.498 93.1426 121.074 93.1426 120.562V119.965ZM104.434 123H103.473V119.555C103.473 118.891 103.369 118.41 103.162 118.113C102.959 117.816 102.615 117.668 102.131 117.668C101.721 117.668 101.371 117.855 101.082 118.23C100.797 118.605 100.654 119.055 100.654 119.578V123H99.6934V119.438C99.6934 118.258 99.2383 117.668 98.3281 117.668C97.9062 117.668 97.5586 117.846 97.2852 118.201C97.0117 118.553 96.875 119.012 96.875 119.578V123H95.9141V117H96.875V117.949H96.8984C97.3242 117.223 97.9453 116.859 98.7617 116.859C99.1719 116.859 99.5293 116.975 99.834 117.205C100.139 117.432 100.348 117.73 100.461 118.102C100.906 117.273 101.57 116.859 102.453 116.859C103.773 116.859 104.434 117.674 104.434 119.303V123ZM111.072 120.24H106.836C106.852 120.908 107.031 121.424 107.375 121.787C107.719 122.15 108.191 122.332 108.793 122.332C109.469 122.332 110.09 122.109 110.656 121.664V122.566C110.129 122.949 109.432 123.141 108.564 123.141C107.717 123.141 107.051 122.869 106.566 122.326C106.082 121.779 105.84 121.012 105.84 120.023C105.84 119.09 106.104 118.33 106.631 117.744C107.162 117.154 107.82 116.859 108.605 116.859C109.391 116.859 109.998 117.113 110.428 117.621C110.857 118.129 111.072 118.834 111.072 119.736V120.24ZM110.088 119.426C110.084 118.871 109.949 118.439 109.684 118.131C109.422 117.822 109.057 117.668 108.588 117.668C108.135 117.668 107.75 117.83 107.434 118.154C107.117 118.479 106.922 118.902 106.848 119.426H110.088Z" fill="#020057"/>
</g>
<defs>
<filter id="filter0_dd_3872_63024" x="0.8" y="2.38419e-07" width="146.4" height="146.4" filterUnits="userSpaceOnUse" color-interpolation-filters="sRGB">
<feFlood flood-opacity="0" result="BackgroundImageFix"/>
<feColorMatrix in="SourceAlpha" type="matrix" values="0 0 0 0 0 0 0 0 0 0 0 0 0 0 0 0 0 0 127 0" result="hardAlpha"/>
<feOffset dy="3.2"/>
<feGaussianBlur stdDeviation="3.6"/>
<feColorMatrix type="matrix" values="0 0 0 0 0.513726 0 0 0 0 0.494118 0 0 0 0 1 0 0 0 0.12 0"/>
<feBlend mode="normal" in2="BackgroundImageFix" result="effect1_dropShadow_3872_63024"/>
<feColorMatrix in="SourceAlpha" type="matrix" values="0 0 0 0 0 0 0 0 0 0 0 0 0 0 0 0 0 0 127 0" result="hardAlpha"/>
<feOffset dy="0.6"/>
<feGaussianBlur stdDeviation="0.9"/>
<feColorMatrix type="matrix" values="0 0 0 0 0.513726 0 0 0 0 0.494118 0 0 0 0 1 0 0 0 0.1 0"/>
<feBlend mode="normal" in2="effect1_dropShadow_3872_63024" result="effect2_dropShadow_3872_63024"/>
<feBlend mode="normal" in="SourceGraphic" in2="effect2_dropShadow_3872_63024" result="shape"/>
</filter>
</defs>
</svg>
