<svg width="100" height="128" viewBox="0 0 100 128" fill="none" xmlns="http://www.w3.org/2000/svg">
<rect width="100" height="128" fill="#FBFBFE"/>
<path d="M41.4247 10.5758C41.1903 10.3414 40.8104 10.3414 40.5761 10.5758C40.3418 10.8101 40.3418 11.19 40.5761 11.4243L42.0974 12.9456C41.7833 13.4199 41.6004 13.9886 41.6004 14.6V25.4C41.6004 27.0569 42.9435 28.4 44.6004 28.4H55.4004C56.0118 28.4 56.5806 28.2171 57.0548 27.903L58.5761 29.4243C58.8104 29.6586 59.1903 29.6586 59.4247 29.4243C59.659 29.19 59.659 28.8101 59.4247 28.5758L41.4247 10.5758ZM56.1764 27.0246C55.9415 27.1371 55.6783 27.2 55.4004 27.2H44.6004C43.6063 27.2 42.8004 26.3941 42.8004 25.4V16.4H45.5519L56.1764 27.0246ZM57.2004 16.4V24.6544L58.3706 25.8246C58.3902 25.6859 58.4004 25.5442 58.4004 25.4V14.6C58.4004 12.9432 57.0572 11.6 55.4004 11.6H44.6004C44.4563 11.6 44.3145 11.6102 44.1758 11.6298L48.946 16.4H57.2004Z" fill="#020057"/>
<path d="M31.8711 52.6484C31.25 52.9766 30.4766 53.1406 29.5508 53.1406C28.3555 53.1406 27.3984 52.7559 26.6797 51.9863C25.9609 51.2168 25.6016 50.207 25.6016 48.957C25.6016 47.6133 26.0059 46.5273 26.8145 45.6992C27.623 44.8711 28.6484 44.457 29.8906 44.457C30.6875 44.457 31.3477 44.5723 31.8711 44.8027V45.8516C31.2695 45.5156 30.6055 45.3477 29.8789 45.3477C28.9141 45.3477 28.1309 45.6699 27.5293 46.3145C26.9316 46.959 26.6328 47.8203 26.6328 48.8984C26.6328 49.9219 26.9121 50.7383 27.4707 51.3477C28.0332 51.9531 28.7695 52.2559 29.6797 52.2559C30.5234 52.2559 31.2539 52.0684 31.8711 51.6934V52.6484ZM34.4141 53H33.4531V44.1172H34.4141V53ZM40.6543 53H39.6934V52.0625H39.6699C39.252 52.7812 38.6367 53.1406 37.8242 53.1406C37.2266 53.1406 36.7578 52.9824 36.418 52.666C36.082 52.3496 35.9141 51.9297 35.9141 51.4062C35.9141 50.2852 36.5742 49.6328 37.8945 49.4492L39.6934 49.1973C39.6934 48.1777 39.2812 47.668 38.457 47.668C37.7344 47.668 37.082 47.9141 36.5 48.4062V47.4219C37.0898 47.0469 37.7695 46.8594 38.5391 46.8594C39.9492 46.8594 40.6543 47.6055 40.6543 49.0977V53ZM39.6934 49.9648L38.2461 50.1641C37.8008 50.2266 37.4648 50.3379 37.2383 50.498C37.0117 50.6543 36.8984 50.9336 36.8984 51.3359C36.8984 51.6289 37.002 51.8691 37.209 52.0566C37.4199 52.2402 37.6992 52.332 38.0469 52.332C38.5234 52.332 38.916 52.166 39.2246 51.834C39.5371 51.498 39.6934 51.0742 39.6934 50.5625V49.9648ZM45.5938 47.9727C45.4258 47.8438 45.1836 47.7793 44.8672 47.7793C44.457 47.7793 44.1133 47.9727 43.8359 48.3594C43.5625 48.7461 43.4258 49.2734 43.4258 49.9414V53H42.4648V47H43.4258V48.2363H43.4492C43.5859 47.8145 43.7949 47.4863 44.0762 47.252C44.3574 47.0137 44.6719 46.8945 45.0195 46.8945C45.2695 46.8945 45.4609 46.9219 45.5938 46.9766V47.9727ZM47.1289 45.4766C46.957 45.4766 46.8105 45.418 46.6895 45.3008C46.5684 45.1836 46.5078 45.0352 46.5078 44.8555C46.5078 44.6758 46.5684 44.5273 46.6895 44.4102C46.8105 44.2891 46.957 44.2285 47.1289 44.2285C47.3047 44.2285 47.4531 44.2891 47.5742 44.4102C47.6992 44.5273 47.7617 44.6758 47.7617 44.8555C47.7617 45.0273 47.6992 45.1738 47.5742 45.2949C47.4531 45.416 47.3047 45.4766 47.1289 45.4766ZM47.5977 53H46.6367V47H47.5977V53ZM52.3262 52.9414C52.0996 53.0664 51.8008 53.1289 51.4297 53.1289C50.3789 53.1289 49.8535 52.543 49.8535 51.3711V47.8203H48.8223V47H49.8535V45.5352L50.8145 45.2246V47H52.3262V47.8203H50.8145V51.2012C50.8145 51.6035 50.8828 51.8906 51.0195 52.0625C51.1562 52.2344 51.3828 52.3203 51.6992 52.3203C51.9414 52.3203 52.1504 52.2539 52.3262 52.1211V52.9414ZM58.3848 47L55.625 53.9609C55.1328 55.2031 54.4414 55.8242 53.5508 55.8242C53.3008 55.8242 53.0918 55.7988 52.9238 55.748V54.8867C53.1309 54.957 53.3203 54.9922 53.4922 54.9922C53.9766 54.9922 54.3398 54.7031 54.582 54.125L55.0625 52.9883L52.7188 47H53.7852L55.4082 51.6172C55.4277 51.6758 55.4688 51.8281 55.5312 52.0742H55.5664C55.5859 51.9805 55.625 51.832 55.6836 51.6289L57.3887 47H58.3848ZM67.6953 53H66.7344V50.2754H63.6758V53H62.7148V47H63.6758V49.4609H66.7344V47H67.6953V53ZM74.4629 50.2402H70.2266C70.2422 50.9082 70.4219 51.4238 70.7656 51.7871C71.1094 52.1504 71.582 52.332 72.1836 52.332C72.8594 52.332 73.4805 52.1094 74.0469 51.6641V52.5664C73.5195 52.9492 72.8223 53.1406 71.9551 53.1406C71.1074 53.1406 70.4414 52.8691 69.957 52.3262C69.4727 51.7793 69.2305 51.0117 69.2305 50.0234C69.2305 49.0898 69.4941 48.3301 70.0215 47.7441C70.5527 47.1543 71.2109 46.8594 71.9961 46.8594C72.7812 46.8594 73.3887 47.1133 73.8184 47.6211C74.248 48.1289 74.4629 48.834 74.4629 49.7363V50.2402ZM73.4785 49.4258C73.4746 48.8711 73.3398 48.4395 73.0742 48.1309C72.8125 47.8223 72.4473 47.668 71.9785 47.668C71.5254 47.668 71.1406 47.8301 70.8242 48.1543C70.5078 48.4785 70.3125 48.9023 70.2383 49.4258H73.4785ZM39.6465 69H38.6973V64.0547C38.6113 64.3047 38.4785 64.6719 38.2988 65.1562L36.7988 69H35.9375L34.3906 65.1562C34.3086 64.9492 34.1758 64.582 33.9922 64.0547V69H33.166V63H34.3906L35.9727 66.9141C36.0859 67.1992 36.2305 67.5938 36.4062 68.0977L36.834 66.9375L38.3691 63H39.6465V69ZM44.0996 69.1406C43.2129 69.1406 42.5039 68.8613 41.9727 68.3027C41.4453 67.7402 41.1816 66.9961 41.1816 66.0703C41.1816 65.0625 41.457 64.2754 42.0078 63.709C42.5586 63.1426 43.3027 62.8594 44.2402 62.8594C45.1348 62.8594 45.832 63.1348 46.332 63.6855C46.8359 64.2363 47.0879 65 47.0879 65.9766C47.0879 66.9336 46.8164 67.7012 46.2734 68.2793C45.7344 68.8535 45.0098 69.1406 44.0996 69.1406ZM44.1699 63.668C43.5527 63.668 43.0645 63.8789 42.7051 64.3008C42.3457 64.7188 42.166 65.2969 42.166 66.0352C42.166 66.7461 42.3477 67.3066 42.7109 67.7168C43.0742 68.127 43.5605 68.332 44.1699 68.332C44.791 68.332 45.2676 68.1309 45.5996 67.7285C45.9355 67.3262 46.1035 66.7539 46.1035 66.0117C46.1035 65.2617 45.9355 64.6836 45.5996 64.2773C45.2676 63.8711 44.791 63.668 44.1699 63.668ZM56.5918 69H55.291L52.6074 66.0352H52.584V69H51.6699V66.0352H51.6465L48.957 69H47.6738L50.6504 65.9062L47.8555 63H49.0801L51.6465 65.8066H51.6699V63H52.584V65.8066H52.6074L55.1738 63H56.4102L53.6035 65.9062L56.5918 69ZM62.3984 66.2402H58.1621C58.1777 66.9082 58.3574 67.4238 58.7012 67.7871C59.0449 68.1504 59.5176 68.332 60.1191 68.332C60.7949 68.332 61.416 68.1094 61.9824 67.6641V68.5664C61.4551 68.9492 60.7578 69.1406 59.8906 69.1406C59.043 69.1406 58.377 68.8691 57.8926 68.3262C57.4082 67.7793 57.166 67.0117 57.166 66.0234C57.166 65.0898 57.4297 64.3301 57.957 63.7441C58.4883 63.1543 59.1465 62.8594 59.9316 62.8594C60.7168 62.8594 61.3242 63.1133 61.7539 63.6211C62.1836 64.1289 62.3984 64.834 62.3984 65.7363V66.2402ZM61.4141 65.4258C61.4102 64.8711 61.2754 64.4395 61.0098 64.1309C60.748 63.8223 60.3828 63.668 59.9141 63.668C59.4609 63.668 59.0762 63.8301 58.7598 64.1543C58.4434 64.4785 58.248 64.9023 58.1738 65.4258H61.4141ZM67.625 63.8203H65.8262V69H64.8652V63.8203H63.0605V63H67.625V63.8203ZM27.5703 85H26.6094V79.8203H23.5508V85H22.5898V79H27.5703V85ZM30.5 84.1328H30.4766V87.7598H29.5156V79H30.4766V80.0547H30.5C30.9727 79.2578 31.6641 78.8594 32.5742 78.8594C33.3477 78.8594 33.9512 79.1289 34.3848 79.668C34.8184 80.2031 35.0352 80.9219 35.0352 81.8242C35.0352 82.8281 34.791 83.6328 34.3027 84.2383C33.8145 84.8398 33.1465 85.1406 32.2988 85.1406C31.5215 85.1406 30.9219 84.8047 30.5 84.1328ZM30.4766 81.7129V82.5508C30.4766 83.0469 30.6367 83.4688 30.957 83.8164C31.2812 84.1602 31.6914 84.332 32.1875 84.332C32.7695 84.332 33.2246 84.1094 33.5527 83.6641C33.8848 83.2188 34.0508 82.5996 34.0508 81.8066C34.0508 81.1387 33.8965 80.6152 33.5879 80.2363C33.2793 79.8574 32.8613 79.668 32.334 79.668C31.7754 79.668 31.3262 79.8633 30.9863 80.2539C30.6465 80.6406 30.4766 81.127 30.4766 81.7129ZM39.0781 85.1406C38.1914 85.1406 37.4824 84.8613 36.9512 84.3027C36.4238 83.7402 36.1602 82.9961 36.1602 82.0703C36.1602 81.0625 36.4355 80.2754 36.9863 79.709C37.5371 79.1426 38.2812 78.8594 39.2188 78.8594C40.1133 78.8594 40.8105 79.1348 41.3105 79.6855C41.8145 80.2363 42.0664 81 42.0664 81.9766C42.0664 82.9336 41.7949 83.7012 41.252 84.2793C40.7129 84.8535 39.9883 85.1406 39.0781 85.1406ZM39.1484 79.668C38.5312 79.668 38.043 79.8789 37.6836 80.3008C37.3242 80.7188 37.1445 81.2969 37.1445 82.0352C37.1445 82.7461 37.3262 83.3066 37.6895 83.7168C38.0527 84.127 38.5391 84.332 39.1484 84.332C39.7695 84.332 40.2461 84.1309 40.5781 83.7285C40.9141 83.3262 41.082 82.7539 41.082 82.0117C41.082 81.2617 40.9141 80.6836 40.5781 80.2773C40.2461 79.8711 39.7695 79.668 39.1484 79.668ZM48.4355 85H47.4805V82.5859C46.7773 82.9688 46.1289 83.1602 45.5352 83.1602C44.1914 83.1602 43.5195 82.4492 43.5195 81.0273V79H44.4805V80.9805C44.4805 81.8594 44.8594 82.2988 45.6172 82.2988C46.1953 82.2988 46.8164 82.1309 47.4805 81.7949V79H48.4355V85ZM55.4141 85H54.5469V80.2129C54.4609 80.3809 54.3301 80.6172 54.1543 80.9219L51.3828 85H50.3867V79H51.2656V83.7285C51.3125 83.6152 51.4141 83.4219 51.5703 83.1484L54.418 79H55.4141V85ZM61.127 79.8203H59.3281V85H58.3672V79.8203H56.5625V79H61.127V79.8203ZM66.5762 85H65.6152V84.0625H65.5918C65.1738 84.7812 64.5586 85.1406 63.7461 85.1406C63.1484 85.1406 62.6797 84.9824 62.3398 84.666C62.0039 84.3496 61.8359 83.9297 61.8359 83.4062C61.8359 82.2852 62.4961 81.6328 63.8164 81.4492L65.6152 81.1973C65.6152 80.1777 65.2031 79.668 64.3789 79.668C63.6562 79.668 63.0039 79.9141 62.4219 80.4062V79.4219C63.0117 79.0469 63.6914 78.8594 64.4609 78.8594C65.8711 78.8594 66.5762 79.6055 66.5762 81.0977V85ZM65.6152 81.9648L64.168 82.1641C63.7227 82.2266 63.3867 82.3379 63.1602 82.498C62.9336 82.6543 62.8203 82.9336 62.8203 83.3359C62.8203 83.6289 62.9238 83.8691 63.1309 84.0566C63.3418 84.2402 63.6211 84.332 63.9688 84.332C64.4453 84.332 64.8379 84.166 65.1465 83.834C65.459 83.498 65.6152 83.0742 65.6152 82.5625V81.9648ZM72.1543 79.8203H70.3555V85H69.3945V79.8203H67.5898V79H72.1543V79.8203ZM73.3086 85V79H74.2695V81.3027H75.8867C76.5 81.3027 76.9863 81.4629 77.3457 81.7832C77.709 82.1035 77.8906 82.5508 77.8906 83.125C77.8906 83.7031 77.709 84.1602 77.3457 84.4961C76.9824 84.832 76.5234 85 75.9688 85H73.3086ZM74.2695 82.1289V84.1797H75.7109C76.5078 84.1797 76.9062 83.8281 76.9062 83.125C76.9062 82.4609 76.5039 82.1289 75.6992 82.1289H74.2695ZM25.7188 100.725C25.2578 101.002 24.7109 101.141 24.0781 101.141C23.2227 101.141 22.5312 100.863 22.0039 100.309C21.4805 99.75 21.2188 99.0273 21.2188 98.1406C21.2188 97.1523 21.502 96.3594 22.0684 95.7617C22.6348 95.1602 23.3906 94.8594 24.3359 94.8594C24.8633 94.8594 25.3281 94.957 25.7305 95.1523V96.1367C25.2852 95.8242 24.8086 95.668 24.3008 95.668C23.6875 95.668 23.1836 95.8887 22.7891 96.3301C22.3984 96.7676 22.2031 97.3438 22.2031 98.0586C22.2031 98.7617 22.3867 99.3164 22.7539 99.7227C23.125 100.129 23.6211 100.332 24.2422 100.332C24.7656 100.332 25.2578 100.158 25.7188 99.8105V100.725ZM30.9395 95.8203H29.1406V101H28.1797V95.8203H26.375V95H30.9395V95.8203ZM34.6016 101.141C33.7148 101.141 33.0059 100.861 32.4746 100.303C31.9473 99.7402 31.6836 98.9961 31.6836 98.0703C31.6836 97.0625 31.959 96.2754 32.5098 95.709C33.0605 95.1426 33.8047 94.8594 34.7422 94.8594C35.6367 94.8594 36.334 95.1348 36.834 95.6855C37.3379 96.2363 37.5898 97 37.5898 97.9766C37.5898 98.9336 37.3184 99.7012 36.7754 100.279C36.2363 100.854 35.5117 101.141 34.6016 101.141ZM34.6719 95.668C34.0547 95.668 33.5664 95.8789 33.207 96.3008C32.8477 96.7188 32.668 97.2969 32.668 98.0352C32.668 98.7461 32.8496 99.3066 33.2129 99.7168C33.5762 100.127 34.0625 100.332 34.6719 100.332C35.293 100.332 35.7695 100.131 36.1016 99.7285C36.4375 99.3262 36.6055 98.7539 36.6055 98.0117C36.6055 97.2617 36.4375 96.6836 36.1016 96.2773C35.7695 95.8711 35.293 95.668 34.6719 95.668ZM40.1094 100.133H40.0859V103.76H39.125V95H40.0859V96.0547H40.1094C40.582 95.2578 41.2734 94.8594 42.1836 94.8594C42.957 94.8594 43.5605 95.1289 43.9941 95.668C44.4277 96.2031 44.6445 96.9219 44.6445 97.8242C44.6445 98.8281 44.4004 99.6328 43.9121 100.238C43.4238 100.84 42.7559 101.141 41.9082 101.141C41.1309 101.141 40.5312 100.805 40.1094 100.133ZM40.0859 97.7129V98.5508C40.0859 99.0469 40.2461 99.4688 40.5664 99.8164C40.8906 100.16 41.3008 100.332 41.7969 100.332C42.3789 100.332 42.834 100.109 43.1621 99.6641C43.4941 99.2188 43.6602 98.5996 43.6602 97.8066C43.6602 97.1387 43.5059 96.6152 43.1973 96.2363C42.8887 95.8574 42.4707 95.668 41.9434 95.668C41.3848 95.668 40.9355 95.8633 40.5957 96.2539C40.2559 96.6406 40.0859 97.127 40.0859 97.7129ZM48.6875 101.141C47.8008 101.141 47.0918 100.861 46.5605 100.303C46.0332 99.7402 45.7695 98.9961 45.7695 98.0703C45.7695 97.0625 46.0449 96.2754 46.5957 95.709C47.1465 95.1426 47.8906 94.8594 48.8281 94.8594C49.7227 94.8594 50.4199 95.1348 50.9199 95.6855C51.4238 96.2363 51.6758 97 51.6758 97.9766C51.6758 98.9336 51.4043 99.7012 50.8613 100.279C50.3223 100.854 49.5977 101.141 48.6875 101.141ZM48.7578 95.668C48.1406 95.668 47.6523 95.8789 47.293 96.3008C46.9336 96.7188 46.7539 97.2969 46.7539 98.0352C46.7539 98.7461 46.9355 99.3066 47.2988 99.7168C47.6621 100.127 48.1484 100.332 48.7578 100.332C49.3789 100.332 49.8555 100.131 50.1875 99.7285C50.5234 99.3262 50.6914 98.7539 50.6914 98.0117C50.6914 97.2617 50.5234 96.6836 50.1875 96.2773C49.8555 95.8711 49.3789 95.668 48.7578 95.668ZM58.1914 101H57.2305V98.2754H54.1719V101H53.2109V95H54.1719V97.4609H57.2305V95H58.1914V101ZM65.1172 101H64.1562V98.2754H61.0977V101H60.1367V95H61.0977V97.4609H64.1562V95H65.1172V101ZM72.0898 101H71.2227V96.2129C71.1367 96.3809 71.0059 96.6172 70.8301 96.9219L68.0586 101H67.0625V95H67.9414V99.7285C67.9883 99.6152 68.0898 99.4219 68.2461 99.1484L71.0938 95H72.0898V101ZM78.8574 98.2402H74.6211C74.6367 98.9082 74.8164 99.4238 75.1602 99.7871C75.5039 100.15 75.9766 100.332 76.5781 100.332C77.2539 100.332 77.875 100.109 78.4414 99.6641V100.566C77.9141 100.949 77.2168 101.141 76.3496 101.141C75.502 101.141 74.8359 100.869 74.3516 100.326C73.8672 99.7793 73.625 99.0117 73.625 98.0234C73.625 97.0898 73.8887 96.3301 74.416 95.7441C74.9473 95.1543 75.6055 94.8594 76.3906 94.8594C77.1758 94.8594 77.7832 95.1133 78.2129 95.6211C78.6426 96.1289 78.8574 96.834 78.8574 97.7363V98.2402ZM77.873 97.4258C77.8691 96.8711 77.7344 96.4395 77.4688 96.1309C77.207 95.8223 76.8418 95.668 76.373 95.668C75.9199 95.668 75.5352 95.8301 75.2188 96.1543C74.9023 96.4785 74.707 96.9023 74.6328 97.4258H77.873ZM16.9883 117.141V119.824H16.1211V117.141H15.9336C15.0586 117.141 14.3516 116.857 13.8125 116.291C13.2734 115.725 13.0039 114.984 13.0039 114.07C13.0039 113.098 13.2754 112.32 13.8184 111.738C14.3652 111.152 15.0859 110.859 15.9805 110.859H16.1211V108.457H16.9883V110.859H17.1172C18.0195 110.859 18.7422 111.15 19.2852 111.732C19.832 112.311 20.1055 113.09 20.1055 114.07C20.1055 114.984 19.8379 115.725 19.3027 116.291C18.7676 116.857 18.0645 117.141 17.1934 117.141H16.9883ZM16.9883 111.668V116.332H17.1172C17.7266 116.332 18.2129 116.127 18.5762 115.717C18.9395 115.303 19.1211 114.742 19.1211 114.035C19.1211 113.293 18.9414 112.713 18.582 112.295C18.2266 111.877 17.748 111.668 17.1465 111.668H16.9883ZM16.1211 116.332V111.668H15.9805C15.3789 111.668 14.8965 111.879 14.5332 112.301C14.1699 112.719 13.9883 113.297 13.9883 114.035C13.9883 114.734 14.1699 115.293 14.5332 115.711C14.9004 116.125 15.3906 116.332 16.0039 116.332H16.1211ZM25.9473 117H24.9863V116.062H24.9629C24.5449 116.781 23.9297 117.141 23.1172 117.141C22.5195 117.141 22.0508 116.982 21.7109 116.666C21.375 116.35 21.207 115.93 21.207 115.406C21.207 114.285 21.8672 113.633 23.1875 113.449L24.9863 113.197C24.9863 112.178 24.5742 111.668 23.75 111.668C23.0273 111.668 22.375 111.914 21.793 112.406V111.422C22.3828 111.047 23.0625 110.859 23.832 110.859C25.2422 110.859 25.9473 111.605 25.9473 113.098V117ZM24.9863 113.965L23.5391 114.164C23.0938 114.227 22.7578 114.338 22.5312 114.498C22.3047 114.654 22.1914 114.934 22.1914 115.336C22.1914 115.629 22.2949 115.869 22.502 116.057C22.7129 116.24 22.9922 116.332 23.3398 116.332C23.8164 116.332 24.209 116.166 24.5176 115.834C24.8301 115.498 24.9863 115.074 24.9863 114.562V113.965ZM32.7852 117H31.918V112.213C31.832 112.381 31.7012 112.617 31.5254 112.922L28.7539 117H27.7578V111H28.6367V115.729C28.6836 115.615 28.7852 115.422 28.9414 115.148L31.7891 111H32.7852V117ZM32.4336 108.082C32.375 108.633 32.1523 109.068 31.7656 109.389C31.3828 109.705 30.9023 109.863 30.3242 109.863C29.7305 109.863 29.2461 109.705 28.8711 109.389C28.5 109.068 28.2969 108.633 28.2617 108.082H29.2109C29.2656 108.816 29.6406 109.184 30.3359 109.184C30.6484 109.184 30.9062 109.088 31.1094 108.896C31.3125 108.701 31.4375 108.43 31.4844 108.082H32.4336ZM39.1074 117H38.1523V111.814H36.7578C36.5977 113.756 36.3223 115.119 35.9316 115.904C35.5449 116.689 35.0234 117.082 34.3672 117.082C34.168 117.082 33.9961 117.055 33.8516 117V116.174C33.9883 116.244 34.1367 116.279 34.2969 116.279C35.1562 116.279 35.709 114.52 35.9551 111H39.1074V117ZM47.6211 117H46.6719V111H47.6211V117ZM41.0586 117V111H42.0195V113.303H43.6367C44.25 113.303 44.7363 113.463 45.0957 113.783C45.459 114.104 45.6406 114.551 45.6406 115.125C45.6406 115.703 45.459 116.16 45.0957 116.496C44.7324 116.832 44.2734 117 43.7188 117H41.0586ZM42.0195 114.129V116.18H43.4609C44.2578 116.18 44.6562 115.828 44.6562 115.125C44.6562 114.461 44.2539 114.129 43.4492 114.129H42.0195ZM53.3633 109.477C53.1914 109.477 53.0449 109.418 52.9238 109.301C52.8027 109.184 52.7422 109.035 52.7422 108.855C52.7422 108.676 52.8027 108.527 52.9238 108.41C53.0449 108.289 53.1914 108.229 53.3633 108.229C53.5391 108.229 53.6875 108.289 53.8086 108.41C53.9336 108.527 53.9961 108.676 53.9961 108.855C53.9961 109.027 53.9336 109.174 53.8086 109.295C53.6875 109.416 53.5391 109.477 53.3633 109.477ZM53.832 117H52.8711V111H53.832V117ZM60.1719 109.488H56.8906V112.395H59.9258V113.279H56.8906V117H55.9062V108.598H60.1719V109.488ZM64.7656 111.973C64.5977 111.844 64.3555 111.779 64.0391 111.779C63.6289 111.779 63.2852 111.973 63.0078 112.359C62.7344 112.746 62.5977 113.273 62.5977 113.941V117H61.6367V111H62.5977V112.236H62.6211C62.7578 111.814 62.9668 111.486 63.248 111.252C63.5293 111.014 63.8438 110.895 64.1914 110.895C64.4414 110.895 64.6328 110.922 64.7656 110.977V111.973ZM70.1035 117H69.1426V116.062H69.1191C68.7012 116.781 68.0859 117.141 67.2734 117.141C66.6758 117.141 66.207 116.982 65.8672 116.666C65.5312 116.35 65.3633 115.93 65.3633 115.406C65.3633 114.285 66.0234 113.633 67.3438 113.449L69.1426 113.197C69.1426 112.178 68.7305 111.668 67.9062 111.668C67.1836 111.668 66.5312 111.914 65.9492 112.406V111.422C66.5391 111.047 67.2188 110.859 67.9883 110.859C69.3984 110.859 70.1035 111.605 70.1035 113.098V117ZM69.1426 113.965L67.6953 114.164C67.25 114.227 66.9141 114.338 66.6875 114.498C66.4609 114.654 66.3477 114.934 66.3477 115.336C66.3477 115.629 66.4512 115.869 66.6582 116.057C66.8691 116.24 67.1484 116.332 67.4961 116.332C67.9727 116.332 68.3652 116.166 68.6738 115.834C68.9863 115.498 69.1426 115.074 69.1426 114.562V113.965ZM80.4336 117H79.4727V113.555C79.4727 112.891 79.3691 112.41 79.1621 112.113C78.959 111.816 78.6152 111.668 78.1309 111.668C77.7207 111.668 77.3711 111.855 77.082 112.23C76.7969 112.605 76.6543 113.055 76.6543 113.578V117H75.6934V113.438C75.6934 112.258 75.2383 111.668 74.3281 111.668C73.9062 111.668 73.5586 111.846 73.2852 112.201C73.0117 112.553 72.875 113.012 72.875 113.578V117H71.9141V111H72.875V111.949H72.8984C73.3242 111.223 73.9453 110.859 74.7617 110.859C75.1719 110.859 75.5293 110.975 75.834 111.205C76.1387 111.432 76.3477 111.73 76.4609 112.102C76.9062 111.273 77.5703 110.859 78.4531 110.859C79.7734 110.859 80.4336 111.674 80.4336 113.303V117ZM87.0723 114.24H82.8359C82.8516 114.908 83.0312 115.424 83.375 115.787C83.7188 116.15 84.1914 116.332 84.793 116.332C85.4688 116.332 86.0898 116.109 86.6562 115.664V116.566C86.1289 116.949 85.4316 117.141 84.5645 117.141C83.7168 117.141 83.0508 116.869 82.5664 116.326C82.082 115.779 81.8398 115.012 81.8398 114.023C81.8398 113.09 82.1035 112.33 82.6309 111.744C83.1621 111.154 83.8203 110.859 84.6055 110.859C85.3906 110.859 85.998 111.113 86.4277 111.621C86.8574 112.129 87.0723 112.834 87.0723 113.736V114.24ZM86.0879 113.426C86.084 112.871 85.9492 112.439 85.6836 112.131C85.4219 111.822 85.0566 111.668 84.5879 111.668C84.1348 111.668 83.75 111.83 83.4336 112.154C83.1172 112.479 82.9219 112.902 82.8477 113.426H86.0879Z" fill="#020057"/>
</svg>
