<svg width="100%" viewBox="0 0 100 112" fill="none" xmlns="http://www.w3.org/2000/svg">
<rect width="100" height="112" fill="#FBFBFE"/>
<path d="M41.4247 10.5758C41.1903 10.3414 40.8104 10.3414 40.5761 10.5758C40.3418 10.8101 40.3418 11.19 40.5761 11.4243L42.0974 12.9456C41.7833 13.4199 41.6004 13.9886 41.6004 14.6V25.4C41.6004 27.0569 42.9435 28.4 44.6004 28.4H55.4004C56.0118 28.4 56.5806 28.2171 57.0548 27.903L58.5761 29.4243C58.8104 29.6586 59.1903 29.6586 59.4247 29.4243C59.659 29.19 59.659 28.8101 59.4247 28.5758L41.4247 10.5758ZM56.1764 27.0246C55.9415 27.1371 55.6783 27.2 55.4004 27.2H44.6004C43.6063 27.2 42.8004 26.3941 42.8004 25.4V16.4H45.5519L56.1764 27.0246ZM57.2004 16.4V24.6544L58.3706 25.8246C58.3902 25.6859 58.4004 25.5442 58.4004 25.4V14.6C58.4004 12.9432 57.0572 11.6 55.4004 11.6H44.6004C44.4563 11.6 44.3145 11.6102 44.1758 11.6298L48.946 16.4H57.2004Z" fill="#020057"/>
<path d="M31.5605 52.6484C30.9395 52.9766 30.166 53.1406 29.2402 53.1406C28.0449 53.1406 27.0879 52.7559 26.3691 51.9863C25.6504 51.2168 25.291 50.207 25.291 48.957C25.291 47.6133 25.6953 46.5273 26.5039 45.6992C27.3125 44.8711 28.3379 44.457 29.5801 44.457C30.377 44.457 31.0371 44.5723 31.5605 44.8027V45.8516C30.959 45.5156 30.2949 45.3477 29.5684 45.3477C28.6035 45.3477 27.8203 45.6699 27.2188 46.3145C26.6211 46.959 26.3223 47.8203 26.3223 48.8984C26.3223 49.9219 26.6016 50.7383 27.1602 51.3477C27.7227 51.9531 28.459 52.2559 29.3691 52.2559C30.2129 52.2559 30.9434 52.0684 31.5605 51.6934V52.6484ZM34.1035 53H33.1426V44.1172H34.1035V53ZM40.3438 53H39.3828V52.0625H39.3594C38.9414 52.7812 38.3262 53.1406 37.5137 53.1406C36.916 53.1406 36.4473 52.9824 36.1074 52.666C35.7715 52.3496 35.6035 51.9297 35.6035 51.4062C35.6035 50.2852 36.2637 49.6328 37.584 49.4492L39.3828 49.1973C39.3828 48.1777 38.9707 47.668 38.1465 47.668C37.4238 47.668 36.7715 47.9141 36.1895 48.4062V47.4219C36.7793 47.0469 37.459 46.8594 38.2285 46.8594C39.6387 46.8594 40.3438 47.6055 40.3438 49.0977V53ZM39.3828 49.9648L37.9355 50.1641C37.4902 50.2266 37.1543 50.3379 36.9277 50.498C36.7012 50.6543 36.5879 50.9336 36.5879 51.3359C36.5879 51.6289 36.6914 51.8691 36.8984 52.0566C37.1094 52.2402 37.3887 52.332 37.7363 52.332C38.2129 52.332 38.6055 52.166 38.9141 51.834C39.2266 51.498 39.3828 51.0742 39.3828 50.5625V49.9648ZM45.2832 47.9727C45.1152 47.8438 44.873 47.7793 44.5566 47.7793C44.1465 47.7793 43.8027 47.9727 43.5254 48.3594C43.252 48.7461 43.1152 49.2734 43.1152 49.9414V53H42.1543V47H43.1152V48.2363H43.1387C43.2754 47.8145 43.4844 47.4863 43.7656 47.252C44.0469 47.0137 44.3613 46.8945 44.709 46.8945C44.959 46.8945 45.1504 46.9219 45.2832 46.9766V47.9727ZM46.8184 45.4766C46.6465 45.4766 46.5 45.418 46.3789 45.3008C46.2578 45.1836 46.1973 45.0352 46.1973 44.8555C46.1973 44.6758 46.2578 44.5273 46.3789 44.4102C46.5 44.2891 46.6465 44.2285 46.8184 44.2285C46.9941 44.2285 47.1426 44.2891 47.2637 44.4102C47.3887 44.5273 47.4512 44.6758 47.4512 44.8555C47.4512 45.0273 47.3887 45.1738 47.2637 45.2949C47.1426 45.416 46.9941 45.4766 46.8184 45.4766ZM47.2871 53H46.3262V47H47.2871V53ZM52.0156 52.9414C51.7891 53.0664 51.4902 53.1289 51.1191 53.1289C50.0684 53.1289 49.543 52.543 49.543 51.3711V47.8203H48.5117V47H49.543V45.5352L50.5039 45.2246V47H52.0156V47.8203H50.5039V51.2012C50.5039 51.6035 50.5723 51.8906 50.709 52.0625C50.8457 52.2344 51.0723 52.3203 51.3887 52.3203C51.6309 52.3203 51.8398 52.2539 52.0156 52.1211V52.9414ZM58.0742 47L55.3145 53.9609C54.8223 55.2031 54.1309 55.8242 53.2402 55.8242C52.9902 55.8242 52.7812 55.7988 52.6133 55.748V54.8867C52.8203 54.957 53.0098 54.9922 53.1816 54.9922C53.666 54.9922 54.0293 54.7031 54.2715 54.125L54.752 52.9883L52.4082 47H53.4746L55.0977 51.6172C55.1172 51.6758 55.1582 51.8281 55.2207 52.0742H55.2559C55.2754 51.9805 55.3145 51.832 55.373 51.6289L57.0781 47H58.0742ZM67.3848 53H66.4238V49.5781C66.4238 48.3047 65.959 47.668 65.0293 47.668C64.5488 47.668 64.1504 47.8496 63.834 48.2129C63.5215 48.5723 63.3652 49.0273 63.3652 49.5781V53H62.4043V47H63.3652V47.9961H63.3887C63.8418 47.2383 64.498 46.8594 65.3574 46.8594C66.0137 46.8594 66.5156 47.0723 66.8633 47.498C67.2109 47.9199 67.3848 48.5312 67.3848 49.332V53ZM71.709 53.1406C70.8223 53.1406 70.1133 52.8613 69.582 52.3027C69.0547 51.7402 68.791 50.9961 68.791 50.0703C68.791 49.0625 69.0664 48.2754 69.6172 47.709C70.168 47.1426 70.9121 46.8594 71.8496 46.8594C72.7441 46.8594 73.4414 47.1348 73.9414 47.6855C74.4453 48.2363 74.6973 49 74.6973 49.9766C74.6973 50.9336 74.4258 51.7012 73.8828 52.2793C73.3438 52.8535 72.6191 53.1406 71.709 53.1406ZM71.7793 47.668C71.1621 47.668 70.6738 47.8789 70.3145 48.3008C69.9551 48.7188 69.7754 49.2969 69.7754 50.0352C69.7754 50.7461 69.957 51.3066 70.3203 51.7168C70.6836 52.127 71.1699 52.332 71.7793 52.332C72.4004 52.332 72.877 52.1309 73.209 51.7285C73.5449 51.3262 73.7129 50.7539 73.7129 50.0117C73.7129 49.2617 73.5449 48.6836 73.209 48.2773C72.877 47.8711 72.4004 47.668 71.7793 47.668ZM23.75 68.1328H23.7266V71.7598H22.7656V63H23.7266V64.0547H23.75C24.2227 63.2578 24.9141 62.8594 25.8242 62.8594C26.5977 62.8594 27.2012 63.1289 27.6348 63.668C28.0684 64.2031 28.2852 64.9219 28.2852 65.8242C28.2852 66.8281 28.041 67.6328 27.5527 68.2383C27.0645 68.8398 26.3965 69.1406 25.5488 69.1406C24.7715 69.1406 24.1719 68.8047 23.75 68.1328ZM23.7266 65.7129V66.5508C23.7266 67.0469 23.8867 67.4688 24.207 67.8164C24.5312 68.1602 24.9414 68.332 25.4375 68.332C26.0195 68.332 26.4746 68.1094 26.8027 67.6641C27.1348 67.2188 27.3008 66.5996 27.3008 65.8066C27.3008 65.1387 27.1465 64.6152 26.8379 64.2363C26.5293 63.8574 26.1113 63.668 25.584 63.668C25.0254 63.668 24.5762 63.8633 24.2363 64.2539C23.8965 64.6406 23.7266 65.127 23.7266 65.7129ZM34.6719 69H33.7109V68.0508H33.6875C33.2891 68.7773 32.6719 69.1406 31.8359 69.1406C30.4062 69.1406 29.6914 68.2891 29.6914 66.5859V63H30.6465V66.4336C30.6465 67.6992 31.1309 68.332 32.0996 68.332C32.5684 68.332 32.9531 68.1602 33.2539 67.8164C33.5586 67.4688 33.7109 67.0156 33.7109 66.457V63H34.6719V69ZM41.4395 66.2402H37.2031C37.2188 66.9082 37.3984 67.4238 37.7422 67.7871C38.0859 68.1504 38.5586 68.332 39.1602 68.332C39.8359 68.332 40.457 68.1094 41.0234 67.6641V68.5664C40.4961 68.9492 39.7988 69.1406 38.9316 69.1406C38.084 69.1406 37.418 68.8691 36.9336 68.3262C36.4492 67.7793 36.207 67.0117 36.207 66.0234C36.207 65.0898 36.4707 64.3301 36.998 63.7441C37.5293 63.1543 38.1875 62.8594 38.9727 62.8594C39.7578 62.8594 40.3652 63.1133 40.7949 63.6211C41.2246 64.1289 41.4395 64.834 41.4395 65.7363V66.2402ZM40.4551 65.4258C40.4512 64.8711 40.3164 64.4395 40.0508 64.1309C39.7891 63.8223 39.4238 63.668 38.9551 63.668C38.502 63.668 38.1172 63.8301 37.8008 64.1543C37.4844 64.4785 37.2891 64.9023 37.2148 65.4258H40.4551ZM48.0195 69H47.0586V67.9805H47.0352C46.5898 68.7539 45.9023 69.1406 44.9727 69.1406C44.2188 69.1406 43.6152 68.873 43.1621 68.3379C42.7129 67.7988 42.4883 67.0664 42.4883 66.1406C42.4883 65.1484 42.7383 64.3535 43.2383 63.7559C43.7383 63.1582 44.4043 62.8594 45.2363 62.8594C46.0605 62.8594 46.6602 63.1836 47.0352 63.832H47.0586V60.1172H48.0195V69ZM47.0586 66.2871V65.4023C47.0586 64.918 46.8984 64.5078 46.5781 64.1719C46.2578 63.8359 45.8516 63.668 45.3594 63.668C44.7734 63.668 44.3125 63.8828 43.9766 64.3125C43.6406 64.7422 43.4727 65.3359 43.4727 66.0938C43.4727 66.7852 43.6328 67.332 43.9531 67.7344C44.2773 68.1328 44.7109 68.332 45.2539 68.332C45.7891 68.332 46.2227 68.1387 46.5547 67.752C46.8906 67.3652 47.0586 66.877 47.0586 66.2871ZM54.7871 66.2402H50.5508C50.5664 66.9082 50.7461 67.4238 51.0898 67.7871C51.4336 68.1504 51.9062 68.332 52.5078 68.332C53.1836 68.332 53.8047 68.1094 54.3711 67.6641V68.5664C53.8438 68.9492 53.1465 69.1406 52.2793 69.1406C51.4316 69.1406 50.7656 68.8691 50.2812 68.3262C49.7969 67.7793 49.5547 67.0117 49.5547 66.0234C49.5547 65.0898 49.8184 64.3301 50.3457 63.7441C50.877 63.1543 51.5352 62.8594 52.3203 62.8594C53.1055 62.8594 53.7129 63.1133 54.1426 63.6211C54.5723 64.1289 54.7871 64.834 54.7871 65.7363V66.2402ZM53.8027 65.4258C53.7988 64.8711 53.6641 64.4395 53.3984 64.1309C53.1367 63.8223 52.7715 63.668 52.3027 63.668C51.8496 63.668 51.4648 63.8301 51.1484 64.1543C50.832 64.4785 50.6367 64.9023 50.5625 65.4258H53.8027ZM60.5 69H59.5391V60.1172H60.5V69ZM67.2676 66.2402H63.0312C63.0469 66.9082 63.2266 67.4238 63.5703 67.7871C63.9141 68.1504 64.3867 68.332 64.9883 68.332C65.6641 68.332 66.2852 68.1094 66.8516 67.6641V68.5664C66.3242 68.9492 65.627 69.1406 64.7598 69.1406C63.9121 69.1406 63.2461 68.8691 62.7617 68.3262C62.2773 67.7793 62.0352 67.0117 62.0352 66.0234C62.0352 65.0898 62.2988 64.3301 62.8262 63.7441C63.3574 63.1543 64.0156 62.8594 64.8008 62.8594C65.5859 62.8594 66.1934 63.1133 66.623 63.6211C67.0527 64.1289 67.2676 64.834 67.2676 65.7363V66.2402ZM66.2832 65.4258C66.2793 64.8711 66.1445 64.4395 65.8789 64.1309C65.6172 63.8223 65.252 63.668 64.7832 63.668C64.3301 63.668 63.9453 63.8301 63.6289 64.1543C63.3125 64.4785 63.1172 64.9023 63.043 65.4258H66.2832ZM73.5488 66.2402H69.3125C69.3281 66.9082 69.5078 67.4238 69.8516 67.7871C70.1953 68.1504 70.668 68.332 71.2695 68.332C71.9453 68.332 72.5664 68.1094 73.1328 67.6641V68.5664C72.6055 68.9492 71.9082 69.1406 71.041 69.1406C70.1934 69.1406 69.5273 68.8691 69.043 68.3262C68.5586 67.7793 68.3164 67.0117 68.3164 66.0234C68.3164 65.0898 68.5801 64.3301 69.1074 63.7441C69.6387 63.1543 70.2969 62.8594 71.082 62.8594C71.8672 62.8594 72.4746 63.1133 72.9043 63.6211C73.334 64.1289 73.5488 64.834 73.5488 65.7363V66.2402ZM72.5645 65.4258C72.5605 64.8711 72.4258 64.4395 72.1602 64.1309C71.8984 63.8223 71.5332 63.668 71.0645 63.668C70.6113 63.668 70.2266 63.8301 69.9102 64.1543C69.5938 64.4785 69.3984 64.9023 69.3242 65.4258H72.5645ZM78.1367 63.9727C77.9688 63.8438 77.7266 63.7793 77.4102 63.7793C77 63.7793 76.6562 63.9727 76.3789 64.3594C76.1055 64.7461 75.9688 65.2734 75.9688 65.9414V69H75.0078V63H75.9688V64.2363H75.9922C76.1289 63.8145 76.3379 63.4863 76.6191 63.252C76.9004 63.0137 77.2148 62.8945 77.5625 62.8945C77.8125 62.8945 78.0039 62.9219 78.1367 62.9766V63.9727ZM22.7656 77.4766C22.5938 77.4766 22.4473 77.418 22.3262 77.3008C22.2051 77.1836 22.1445 77.0352 22.1445 76.8555C22.1445 76.6758 22.2051 76.5273 22.3262 76.4102C22.4473 76.2891 22.5938 76.2285 22.7656 76.2285C22.9414 76.2285 23.0898 76.2891 23.2109 76.4102C23.3359 76.5273 23.3984 76.6758 23.3984 76.8555C23.3984 77.0273 23.3359 77.1738 23.2109 77.2949C23.0898 77.416 22.9414 77.4766 22.7656 77.4766ZM23.2344 85H22.2734V79H23.2344V85ZM29.5742 77.4883H26.293V80.3945H29.3281V81.2793H26.293V85H25.3086V76.5977H29.5742V77.4883ZM34.168 79.9727C34 79.8438 33.7578 79.7793 33.4414 79.7793C33.0312 79.7793 32.6875 79.9727 32.4102 80.3594C32.1367 80.7461 32 81.2734 32 81.9414V85H31.0391V79H32V80.2363H32.0234C32.1602 79.8145 32.3691 79.4863 32.6504 79.252C32.9316 79.0137 33.2461 78.8945 33.5938 78.8945C33.8438 78.8945 34.0352 78.9219 34.168 78.9766V79.9727ZM39.5059 85H38.5449V84.0625H38.5215C38.1035 84.7812 37.4883 85.1406 36.6758 85.1406C36.0781 85.1406 35.6094 84.9824 35.2695 84.666C34.9336 84.3496 34.7656 83.9297 34.7656 83.4062C34.7656 82.2852 35.4258 81.6328 36.7461 81.4492L38.5449 81.1973C38.5449 80.1777 38.1328 79.668 37.3086 79.668C36.5859 79.668 35.9336 79.9141 35.3516 80.4062V79.4219C35.9414 79.0469 36.6211 78.8594 37.3906 78.8594C38.8008 78.8594 39.5059 79.6055 39.5059 81.0977V85ZM38.5449 81.9648L37.0977 82.1641C36.6523 82.2266 36.3164 82.3379 36.0898 82.498C35.8633 82.6543 35.75 82.9336 35.75 83.3359C35.75 83.6289 35.8535 83.8691 36.0605 84.0566C36.2715 84.2402 36.5508 84.332 36.8984 84.332C37.375 84.332 37.7676 84.166 38.0762 83.834C38.3887 83.498 38.5449 83.0742 38.5449 82.5625V81.9648ZM49.8359 85H48.875V81.5547C48.875 80.8906 48.7715 80.4102 48.5645 80.1133C48.3613 79.8164 48.0176 79.668 47.5332 79.668C47.123 79.668 46.7734 79.8555 46.4844 80.2305C46.1992 80.6055 46.0566 81.0547 46.0566 81.5781V85H45.0957V81.4375C45.0957 80.2578 44.6406 79.668 43.7305 79.668C43.3086 79.668 42.9609 79.8457 42.6875 80.2012C42.4141 80.5527 42.2773 81.0117 42.2773 81.5781V85H41.3164V79H42.2773V79.9492H42.3008C42.7266 79.2227 43.3477 78.8594 44.1641 78.8594C44.5742 78.8594 44.9316 78.9746 45.2363 79.2051C45.541 79.4316 45.75 79.7305 45.8633 80.1016C46.3086 79.2734 46.9727 78.8594 47.8555 78.8594C49.1758 78.8594 49.8359 79.6738 49.8359 81.3027V85ZM56.4746 82.2402H52.2383C52.2539 82.9082 52.4336 83.4238 52.7773 83.7871C53.1211 84.1504 53.5938 84.332 54.1953 84.332C54.8711 84.332 55.4922 84.1094 56.0586 83.6641V84.5664C55.5312 84.9492 54.834 85.1406 53.9668 85.1406C53.1191 85.1406 52.4531 84.8691 51.9688 84.3262C51.4844 83.7793 51.2422 83.0117 51.2422 82.0234C51.2422 81.0898 51.5059 80.3301 52.0332 79.7441C52.5645 79.1543 53.2227 78.8594 54.0078 78.8594C54.793 78.8594 55.4004 79.1133 55.8301 79.6211C56.2598 80.1289 56.4746 80.834 56.4746 81.7363V82.2402ZM55.4902 81.4258C55.4863 80.8711 55.3516 80.4395 55.0859 80.1309C54.8242 79.8223 54.459 79.668 53.9902 79.668C53.5371 79.668 53.1523 79.8301 52.8359 80.1543C52.5195 80.4785 52.3242 80.9023 52.25 81.4258H55.4902ZM57.5703 84.7832V83.752C58.0938 84.1387 58.6699 84.332 59.2988 84.332C60.1426 84.332 60.5645 84.0508 60.5645 83.4883C60.5645 83.3281 60.5273 83.1934 60.4531 83.084C60.3828 82.9707 60.2852 82.8711 60.1602 82.7852C60.0391 82.6992 59.8945 82.623 59.7266 82.5566C59.5625 82.4863 59.3848 82.4141 59.1934 82.3398C58.9277 82.2344 58.6934 82.1289 58.4902 82.0234C58.291 81.9141 58.123 81.793 57.9863 81.6602C57.8535 81.5234 57.752 81.3691 57.6816 81.1973C57.6152 81.0254 57.582 80.8242 57.582 80.5938C57.582 80.3125 57.6465 80.0645 57.7754 79.8496C57.9043 79.6309 58.0762 79.4492 58.291 79.3047C58.5059 79.1562 58.75 79.0449 59.0234 78.9707C59.3008 78.8965 59.5859 78.8594 59.8789 78.8594C60.3984 78.8594 60.8633 78.9492 61.2734 79.1289V80.1016C60.832 79.8125 60.3242 79.668 59.75 79.668C59.5703 79.668 59.4082 79.6895 59.2637 79.7324C59.1191 79.7715 58.9941 79.8281 58.8887 79.9023C58.7871 79.9766 58.707 80.0664 58.6484 80.1719C58.5938 80.2734 58.5664 80.3867 58.5664 80.5117C58.5664 80.668 58.5938 80.7988 58.6484 80.9043C58.707 81.0098 58.791 81.1035 58.9004 81.1855C59.0098 81.2676 59.1426 81.3418 59.2988 81.4082C59.4551 81.4746 59.6328 81.5469 59.832 81.625C60.0977 81.7266 60.3359 81.832 60.5469 81.9414C60.7578 82.0469 60.9375 82.168 61.0859 82.3047C61.2344 82.4375 61.3477 82.5918 61.4258 82.7676C61.5078 82.9434 61.5488 83.1523 61.5488 83.3945C61.5488 83.6914 61.4824 83.9492 61.3496 84.168C61.2207 84.3867 61.0469 84.5684 60.8281 84.7129C60.6094 84.8574 60.3574 84.9648 60.0723 85.0352C59.7871 85.1055 59.4883 85.1406 59.1758 85.1406C58.5586 85.1406 58.0234 85.0215 57.5703 84.7832ZM71.4453 85H70.4844V83.9805H70.4609C70.0156 84.7539 69.3281 85.1406 68.3984 85.1406C67.6445 85.1406 67.041 84.873 66.5879 84.3379C66.1387 83.7988 65.9141 83.0664 65.9141 82.1406C65.9141 81.1484 66.1641 80.3535 66.6641 79.7559C67.1641 79.1582 67.8301 78.8594 68.6621 78.8594C69.4863 78.8594 70.0859 79.1836 70.4609 79.832H70.4844V76.1172H71.4453V85ZM70.4844 82.2871V81.4023C70.4844 80.918 70.3242 80.5078 70.0039 80.1719C69.6836 79.8359 69.2773 79.668 68.7852 79.668C68.1992 79.668 67.7383 79.8828 67.4023 80.3125C67.0664 80.7422 66.8984 81.3359 66.8984 82.0938C66.8984 82.7852 67.0586 83.332 67.3789 83.7344C67.7031 84.1328 68.1367 84.332 68.6797 84.332C69.2148 84.332 69.6484 84.1387 69.9805 83.752C70.3164 83.3652 70.4844 82.877 70.4844 82.2871ZM78.2129 82.2402H73.9766C73.9922 82.9082 74.1719 83.4238 74.5156 83.7871C74.8594 84.1504 75.332 84.332 75.9336 84.332C76.6094 84.332 77.2305 84.1094 77.7969 83.6641V84.5664C77.2695 84.9492 76.5723 85.1406 75.7051 85.1406C74.8574 85.1406 74.1914 84.8691 73.707 84.3262C73.2227 83.7793 72.9805 83.0117 72.9805 82.0234C72.9805 81.0898 73.2441 80.3301 73.7715 79.7441C74.3027 79.1543 74.9609 78.8594 75.7461 78.8594C76.5312 78.8594 77.1387 79.1133 77.5684 79.6211C77.998 80.1289 78.2129 80.834 78.2129 81.7363V82.2402ZM77.2285 81.4258C77.2246 80.8711 77.0898 80.4395 76.8242 80.1309C76.5625 79.8223 76.1973 79.668 75.7285 79.668C75.2754 79.668 74.8906 79.8301 74.5742 80.1543C74.2578 80.4785 74.0625 80.9023 73.9883 81.4258H77.2285ZM32.4336 100.941C32.207 101.066 31.9082 101.129 31.5371 101.129C30.4863 101.129 29.9609 100.543 29.9609 99.3711V95.8203H28.9297V95H29.9609V93.5352L30.9219 93.2246V95H32.4336V95.8203H30.9219V99.2012C30.9219 99.6035 30.9902 99.8906 31.127 100.062C31.2637 100.234 31.4902 100.32 31.8066 100.32C32.0488 100.32 32.2578 100.254 32.4336 100.121V100.941ZM38.5391 98.2402H34.3027C34.3184 98.9082 34.498 99.4238 34.8418 99.7871C35.1855 100.15 35.6582 100.332 36.2598 100.332C36.9355 100.332 37.5566 100.109 38.123 99.6641V100.566C37.5957 100.949 36.8984 101.141 36.0312 101.141C35.1836 101.141 34.5176 100.869 34.0332 100.326C33.5488 99.7793 33.3066 99.0117 33.3066 98.0234C33.3066 97.0898 33.5703 96.3301 34.0977 95.7441C34.6289 95.1543 35.2871 94.8594 36.0723 94.8594C36.8574 94.8594 37.4648 95.1133 37.8945 95.6211C38.3242 96.1289 38.5391 96.834 38.5391 97.7363V98.2402ZM37.5547 97.4258C37.5508 96.8711 37.416 96.4395 37.1504 96.1309C36.8887 95.8223 36.5234 95.668 36.0547 95.668C35.6016 95.668 35.2168 95.8301 34.9004 96.1543C34.584 96.4785 34.3887 96.9023 34.3145 97.4258H37.5547ZM43.127 95.9727C42.959 95.8438 42.7168 95.7793 42.4004 95.7793C41.9902 95.7793 41.6465 95.9727 41.3691 96.3594C41.0957 96.7461 40.959 97.2734 40.959 97.9414V101H39.998V95H40.959V96.2363H40.9824C41.1191 95.8145 41.3281 95.4863 41.6094 95.252C41.8906 95.0137 42.2051 94.8945 42.5527 94.8945C42.8027 94.8945 42.9941 94.9219 43.127 94.9766V95.9727ZM48.2598 100.725C47.7988 101.002 47.252 101.141 46.6191 101.141C45.7637 101.141 45.0723 100.863 44.5449 100.309C44.0215 99.75 43.7598 99.0273 43.7598 98.1406C43.7598 97.1523 44.043 96.3594 44.6094 95.7617C45.1758 95.1602 45.9316 94.8594 46.877 94.8594C47.4043 94.8594 47.8691 94.957 48.2715 95.1523V96.1367C47.8262 95.8242 47.3496 95.668 46.8418 95.668C46.2285 95.668 45.7246 95.8887 45.3301 96.3301C44.9395 96.7676 44.7441 97.3438 44.7441 98.0586C44.7441 98.7617 44.9277 99.3164 45.2949 99.7227C45.666 100.129 46.1621 100.332 46.7832 100.332C47.3066 100.332 47.7988 100.158 48.2598 99.8105V100.725ZM54.5352 98.2402H50.2988C50.3145 98.9082 50.4941 99.4238 50.8379 99.7871C51.1816 100.15 51.6543 100.332 52.2559 100.332C52.9316 100.332 53.5527 100.109 54.1191 99.6641V100.566C53.5918 100.949 52.8945 101.141 52.0273 101.141C51.1797 101.141 50.5137 100.869 50.0293 100.326C49.5449 99.7793 49.3027 99.0117 49.3027 98.0234C49.3027 97.0898 49.5664 96.3301 50.0938 95.7441C50.625 95.1543 51.2832 94.8594 52.0684 94.8594C52.8535 94.8594 53.4609 95.1133 53.8906 95.6211C54.3203 96.1289 54.5352 96.834 54.5352 97.7363V98.2402ZM53.5508 97.4258C53.5469 96.8711 53.4121 96.4395 53.1465 96.1309C52.8848 95.8223 52.5195 95.668 52.0508 95.668C51.5977 95.668 51.2129 95.8301 50.8965 96.1543C50.5801 96.4785 50.3848 96.9023 50.3105 97.4258H53.5508ZM59.123 95.9727C58.9551 95.8438 58.7129 95.7793 58.3965 95.7793C57.9863 95.7793 57.6426 95.9727 57.3652 96.3594C57.0918 96.7461 56.9551 97.2734 56.9551 97.9414V101H55.9941V95H56.9551V96.2363H56.9785C57.1152 95.8145 57.3242 95.4863 57.6055 95.252C57.8867 95.0137 58.2012 94.8945 58.5488 94.8945C58.7988 94.8945 58.9902 94.9219 59.123 94.9766V95.9727ZM62.6738 101.141C61.7871 101.141 61.0781 100.861 60.5469 100.303C60.0195 99.7402 59.7559 98.9961 59.7559 98.0703C59.7559 97.0625 60.0312 96.2754 60.582 95.709C61.1328 95.1426 61.877 94.8594 62.8145 94.8594C63.709 94.8594 64.4062 95.1348 64.9062 95.6855C65.4102 96.2363 65.6621 97 65.6621 97.9766C65.6621 98.9336 65.3906 99.7012 64.8477 100.279C64.3086 100.854 63.584 101.141 62.6738 101.141ZM62.7441 95.668C62.127 95.668 61.6387 95.8789 61.2793 96.3008C60.9199 96.7188 60.7402 97.2969 60.7402 98.0352C60.7402 98.7461 60.9219 99.3066 61.2852 99.7168C61.6484 100.127 62.1348 100.332 62.7441 100.332C63.3652 100.332 63.8418 100.131 64.1738 99.7285C64.5098 99.3262 64.6777 98.7539 64.6777 98.0117C64.6777 97.2617 64.5098 96.6836 64.1738 96.2773C63.8418 95.8711 63.3652 95.668 62.7441 95.668ZM66.834 100.783V99.752C67.3574 100.139 67.9336 100.332 68.5625 100.332C69.4062 100.332 69.8281 100.051 69.8281 99.4883C69.8281 99.3281 69.791 99.1934 69.7168 99.084C69.6465 98.9707 69.5488 98.8711 69.4238 98.7852C69.3027 98.6992 69.1582 98.623 68.9902 98.5566C68.8262 98.4863 68.6484 98.4141 68.457 98.3398C68.1914 98.2344 67.957 98.1289 67.7539 98.0234C67.5547 97.9141 67.3867 97.793 67.25 97.6602C67.1172 97.5234 67.0156 97.3691 66.9453 97.1973C66.8789 97.0254 66.8457 96.8242 66.8457 96.5938C66.8457 96.3125 66.9102 96.0645 67.0391 95.8496C67.168 95.6309 67.3398 95.4492 67.5547 95.3047C67.7695 95.1562 68.0137 95.0449 68.2871 94.9707C68.5645 94.8965 68.8496 94.8594 69.1426 94.8594C69.6621 94.8594 70.127 94.9492 70.5371 95.1289V96.1016C70.0957 95.8125 69.5879 95.668 69.0137 95.668C68.834 95.668 68.6719 95.6895 68.5273 95.7324C68.3828 95.7715 68.2578 95.8281 68.1523 95.9023C68.0508 95.9766 67.9707 96.0664 67.9121 96.1719C67.8574 96.2734 67.8301 96.3867 67.8301 96.5117C67.8301 96.668 67.8574 96.7988 67.9121 96.9043C67.9707 97.0098 68.0547 97.1035 68.1641 97.1855C68.2734 97.2676 68.4062 97.3418 68.5625 97.4082C68.7188 97.4746 68.8965 97.5469 69.0957 97.625C69.3613 97.7266 69.5996 97.832 69.8105 97.9414C70.0215 98.0469 70.2012 98.168 70.3496 98.3047C70.498 98.4375 70.6113 98.5918 70.6895 98.7676C70.7715 98.9434 70.8125 99.1523 70.8125 99.3945C70.8125 99.6914 70.7461 99.9492 70.6133 100.168C70.4844 100.387 70.3105 100.568 70.0918 100.713C69.873 100.857 69.6211 100.965 69.3359 101.035C69.0508 101.105 68.752 101.141 68.4395 101.141C67.8223 101.141 67.2871 101.021 66.834 100.783Z" fill="#020057"/>
</svg>
