<svg width="100%" viewBox="0 0 100 112" fill="none" xmlns="http://www.w3.org/2000/svg">
<rect width="100" height="112" fill="#FBFBFE"/>
<path d="M41.4247 10.5758C41.1903 10.3414 40.8104 10.3414 40.5761 10.5758C40.3418 10.8101 40.3418 11.19 40.5761 11.4243L42.0974 12.9456C41.7833 13.4199 41.6004 13.9886 41.6004 14.6V25.4C41.6004 27.0569 42.9435 28.4 44.6004 28.4H55.4004C56.0118 28.4 56.5806 28.2171 57.0548 27.903L58.5761 29.4243C58.8104 29.6586 59.1903 29.6586 59.4247 29.4243C59.659 29.19 59.659 28.8101 59.4247 28.5758L41.4247 10.5758ZM56.1764 27.0246C55.9415 27.1371 55.6783 27.2 55.4004 27.2H44.6004C43.6063 27.2 42.8004 26.3941 42.8004 25.4V16.4H45.5519L56.1764 27.0246ZM57.2004 16.4V24.6544L58.3706 25.8246C58.3902 25.6859 58.4004 25.5442 58.4004 25.4V14.6C58.4004 12.9432 57.0572 11.6 55.4004 11.6H44.6004C44.4563 11.6 44.3145 11.6102 44.1758 11.6298L48.946 16.4H57.2004Z" fill="#020057"/>
<path d="M19.3379 52.6484C18.7168 52.9766 17.9434 53.1406 17.0176 53.1406C15.8223 53.1406 14.8652 52.7559 14.1465 51.9863C13.4277 51.2168 13.0684 50.207 13.0684 48.957C13.0684 47.6133 13.4727 46.5273 14.2812 45.6992C15.0898 44.8711 16.1152 44.457 17.3574 44.457C18.1543 44.457 18.8145 44.5723 19.3379 44.8027V45.8516C18.7363 45.5156 18.0723 45.3477 17.3457 45.3477C16.3809 45.3477 15.5977 45.6699 14.9961 46.3145C14.3984 46.959 14.0996 47.8203 14.0996 48.8984C14.0996 49.9219 14.3789 50.7383 14.9375 51.3477C15.5 51.9531 16.2363 52.2559 17.1465 52.2559C17.9902 52.2559 18.7207 52.0684 19.3379 51.6934V52.6484ZM21.8809 53H20.9199V44.1172H21.8809V53ZM28.1211 53H27.1602V52.0625H27.1367C26.7188 52.7812 26.1035 53.1406 25.291 53.1406C24.6934 53.1406 24.2246 52.9824 23.8848 52.666C23.5488 52.3496 23.3809 51.9297 23.3809 51.4062C23.3809 50.2852 24.041 49.6328 25.3613 49.4492L27.1602 49.1973C27.1602 48.1777 26.748 47.668 25.9238 47.668C25.2012 47.668 24.5488 47.9141 23.9668 48.4062V47.4219C24.5566 47.0469 25.2363 46.8594 26.0059 46.8594C27.416 46.8594 28.1211 47.6055 28.1211 49.0977V53ZM27.1602 49.9648L25.7129 50.1641C25.2676 50.2266 24.9316 50.3379 24.7051 50.498C24.4785 50.6543 24.3652 50.9336 24.3652 51.3359C24.3652 51.6289 24.4688 51.8691 24.6758 52.0566C24.8867 52.2402 25.166 52.332 25.5137 52.332C25.9902 52.332 26.3828 52.166 26.6914 51.834C27.0039 51.498 27.1602 51.0742 27.1602 50.5625V49.9648ZM33.0605 47.9727C32.8926 47.8438 32.6504 47.7793 32.334 47.7793C31.9238 47.7793 31.5801 47.9727 31.3027 48.3594C31.0293 48.7461 30.8926 49.2734 30.8926 49.9414V53H29.9316V47H30.8926V48.2363H30.916C31.0527 47.8145 31.2617 47.4863 31.543 47.252C31.8242 47.0137 32.1387 46.8945 32.4863 46.8945C32.7363 46.8945 32.9277 46.9219 33.0605 46.9766V47.9727ZM34.5957 45.4766C34.4238 45.4766 34.2773 45.418 34.1562 45.3008C34.0352 45.1836 33.9746 45.0352 33.9746 44.8555C33.9746 44.6758 34.0352 44.5273 34.1562 44.4102C34.2773 44.2891 34.4238 44.2285 34.5957 44.2285C34.7715 44.2285 34.9199 44.2891 35.041 44.4102C35.166 44.5273 35.2285 44.6758 35.2285 44.8555C35.2285 45.0273 35.166 45.1738 35.041 45.2949C34.9199 45.416 34.7715 45.4766 34.5957 45.4766ZM35.0645 53H34.1035V47H35.0645V53ZM39.793 52.9414C39.5664 53.0664 39.2676 53.1289 38.8965 53.1289C37.8457 53.1289 37.3203 52.543 37.3203 51.3711V47.8203H36.2891V47H37.3203V45.5352L38.2812 45.2246V47H39.793V47.8203H38.2812V51.2012C38.2812 51.6035 38.3496 51.8906 38.4863 52.0625C38.623 52.2344 38.8496 52.3203 39.166 52.3203C39.4082 52.3203 39.6172 52.2539 39.793 52.1211V52.9414ZM45.8516 47L43.0918 53.9609C42.5996 55.2031 41.9082 55.8242 41.0176 55.8242C40.7676 55.8242 40.5586 55.7988 40.3906 55.748V54.8867C40.5977 54.957 40.7871 54.9922 40.959 54.9922C41.4434 54.9922 41.8066 54.7031 42.0488 54.125L42.5293 52.9883L40.1855 47H41.252L42.875 51.6172C42.8945 51.6758 42.9355 51.8281 42.998 52.0742H43.0332C43.0527 51.9805 43.0918 51.832 43.1504 51.6289L44.8555 47H45.8516ZM55.0332 53H54.0723V52.0508H54.0488C53.6504 52.7773 53.0332 53.1406 52.1973 53.1406C50.7676 53.1406 50.0527 52.2891 50.0527 50.5859V47H51.0078V50.4336C51.0078 51.6992 51.4922 52.332 52.4609 52.332C52.9297 52.332 53.3145 52.1602 53.6152 51.8164C53.9199 51.4688 54.0723 51.0156 54.0723 50.457V47H55.0332V53ZM53.7207 45.8633C53.5645 45.8633 53.4297 45.8086 53.3164 45.6992C53.2031 45.5898 53.1465 45.4512 53.1465 45.2832C53.1465 45.1191 53.2012 44.9824 53.3105 44.873C53.4199 44.7637 53.5527 44.709 53.709 44.709C53.873 44.709 54.0117 44.7656 54.125 44.8789C54.2383 44.9883 54.2949 45.123 54.2949 45.2832C54.2949 45.4434 54.2402 45.5801 54.1309 45.6934C54.0215 45.8066 53.8848 45.8633 53.7207 45.8633ZM51.4707 45.8633C51.3066 45.8633 51.166 45.8066 51.0488 45.6934C50.9355 45.5762 50.8789 45.4395 50.8789 45.2832C50.8789 45.1191 50.9336 44.9824 51.043 44.873C51.1562 44.7637 51.293 44.709 51.4531 44.709C51.6133 44.709 51.752 44.7656 51.8691 44.8789C51.9863 44.9883 52.0449 45.123 52.0449 45.2832C52.0449 45.4434 51.9883 45.5801 51.875 45.6934C51.7617 45.8066 51.627 45.8633 51.4707 45.8633ZM61.0684 52.7246C60.6074 53.002 60.0605 53.1406 59.4277 53.1406C58.5723 53.1406 57.8809 52.8633 57.3535 52.3086C56.8301 51.75 56.5684 51.0273 56.5684 50.1406C56.5684 49.1523 56.8516 48.3594 57.418 47.7617C57.9844 47.1602 58.7402 46.8594 59.6855 46.8594C60.2129 46.8594 60.6777 46.957 61.0801 47.1523V48.1367C60.6348 47.8242 60.1582 47.668 59.6504 47.668C59.0371 47.668 58.5332 47.8887 58.1387 48.3301C57.748 48.7676 57.5527 49.3438 57.5527 50.0586C57.5527 50.7617 57.7363 51.3164 58.1035 51.7227C58.4746 52.1289 58.9707 52.332 59.5918 52.332C60.1152 52.332 60.6074 52.1582 61.0684 51.8105V52.7246ZM60.5645 54.5C60.5645 55.1875 60.0273 55.5312 58.9531 55.5312C58.8047 55.5312 58.6777 55.5273 58.5723 55.5195V54.9922C58.7402 55.0156 58.877 55.0273 58.9824 55.0273C59.5332 55.0273 59.8086 54.8516 59.8086 54.5C59.8086 54.1953 59.5566 54.043 59.0527 54.043C59.0137 54.043 58.9336 54.0508 58.8125 54.0664V53H59.4453V53.6094C59.7891 53.6094 60.0605 53.6875 60.2598 53.8438C60.4629 54 60.5645 54.2188 60.5645 54.5ZM67.373 53H66.4121V52.0508H66.3887C65.9902 52.7773 65.373 53.1406 64.5371 53.1406C63.1074 53.1406 62.3926 52.2891 62.3926 50.5859V47H63.3477V50.4336C63.3477 51.6992 63.832 52.332 64.8008 52.332C65.2695 52.332 65.6543 52.1602 65.9551 51.8164C66.2598 51.4688 66.4121 51.0156 66.4121 50.457V47H67.373V53ZM66.0605 45.8633C65.9043 45.8633 65.7695 45.8086 65.6562 45.6992C65.543 45.5898 65.4863 45.4512 65.4863 45.2832C65.4863 45.1191 65.541 44.9824 65.6504 44.873C65.7598 44.7637 65.8926 44.709 66.0488 44.709C66.2129 44.709 66.3516 44.7656 66.4648 44.8789C66.5781 44.9883 66.6348 45.123 66.6348 45.2832C66.6348 45.4434 66.5801 45.5801 66.4707 45.6934C66.3613 45.8066 66.2246 45.8633 66.0605 45.8633ZM63.8105 45.8633C63.6465 45.8633 63.5059 45.8066 63.3887 45.6934C63.2754 45.5762 63.2188 45.4395 63.2188 45.2832C63.2188 45.1191 63.2734 44.9824 63.3828 44.873C63.4961 44.7637 63.6328 44.709 63.793 44.709C63.9531 44.709 64.0918 44.7656 64.209 44.8789C64.3262 44.9883 64.3848 45.123 64.3848 45.2832C64.3848 45.4434 64.3281 45.5801 64.2148 45.6934C64.1016 45.8066 63.9668 45.8633 63.8105 45.8633ZM74.2988 53H73.3379V49.5781C73.3379 48.3047 72.873 47.668 71.9434 47.668C71.4629 47.668 71.0645 47.8496 70.748 48.2129C70.4355 48.5723 70.2793 49.0273 70.2793 49.5781V53H69.3184V47H70.2793V47.9961H70.3027C70.7559 47.2383 71.4121 46.8594 72.2715 46.8594C72.9277 46.8594 73.4297 47.0723 73.7773 47.498C74.125 47.9199 74.2988 48.5312 74.2988 49.332V53ZM80.2051 52.7246C79.7441 53.002 79.1973 53.1406 78.5645 53.1406C77.709 53.1406 77.0176 52.8633 76.4902 52.3086C75.9668 51.75 75.7051 51.0273 75.7051 50.1406C75.7051 49.1523 75.9883 48.3594 76.5547 47.7617C77.1211 47.1602 77.877 46.8594 78.8223 46.8594C79.3496 46.8594 79.8145 46.957 80.2168 47.1523V48.1367C79.7715 47.8242 79.2949 47.668 78.7871 47.668C78.1738 47.668 77.6699 47.8887 77.2754 48.3301C76.8848 48.7676 76.6895 49.3438 76.6895 50.0586C76.6895 50.7617 76.873 51.3164 77.2402 51.7227C77.6113 52.1289 78.1074 52.332 78.7285 52.332C79.252 52.332 79.7441 52.1582 80.2051 51.8105V52.7246ZM86.5098 53H85.5488V52.0508H85.5254C85.127 52.7773 84.5098 53.1406 83.6738 53.1406C82.2441 53.1406 81.5293 52.2891 81.5293 50.5859V47H82.4844V50.4336C82.4844 51.6992 82.9688 52.332 83.9375 52.332C84.4062 52.332 84.791 52.1602 85.0918 51.8164C85.3965 51.4688 85.5488 51.0156 85.5488 50.457V47H86.5098V53ZM85.1973 45.8633C85.041 45.8633 84.9062 45.8086 84.793 45.6992C84.6797 45.5898 84.623 45.4512 84.623 45.2832C84.623 45.1191 84.6777 44.9824 84.7871 44.873C84.8965 44.7637 85.0293 44.709 85.1855 44.709C85.3496 44.709 85.4883 44.7656 85.6016 44.8789C85.7148 44.9883 85.7715 45.123 85.7715 45.2832C85.7715 45.4434 85.7168 45.5801 85.6074 45.6934C85.498 45.8066 85.3613 45.8633 85.1973 45.8633ZM82.9473 45.8633C82.7832 45.8633 82.6426 45.8066 82.5254 45.6934C82.4121 45.5762 82.3555 45.4395 82.3555 45.2832C82.3555 45.1191 82.4102 44.9824 82.5195 44.873C82.6328 44.7637 82.7695 44.709 82.9297 44.709C83.0898 44.709 83.2285 44.7656 83.3457 44.8789C83.4629 44.9883 83.5215 45.123 83.5215 45.2832C83.5215 45.4434 83.4648 45.5801 83.3516 45.6934C83.2383 45.8066 83.1035 45.8633 82.9473 45.8633ZM30.4121 68.9414C30.1855 69.0664 29.8867 69.1289 29.5156 69.1289C28.4648 69.1289 27.9395 68.543 27.9395 67.3711V63.8203H26.9082V63H27.9395V61.5352L28.9004 61.2246V63H30.4121V63.8203H28.9004V67.2012C28.9004 67.6035 28.9688 67.8906 29.1055 68.0625C29.2422 68.2344 29.4688 68.3203 29.7852 68.3203C30.0273 68.3203 30.2363 68.2539 30.4121 68.1211V68.9414ZM35.9902 69H35.0293V68.0625H35.0059C34.5879 68.7812 33.9727 69.1406 33.1602 69.1406C32.5625 69.1406 32.0938 68.9824 31.7539 68.666C31.418 68.3496 31.25 67.9297 31.25 67.4062C31.25 66.2852 31.9102 65.6328 33.2305 65.4492L35.0293 65.1973C35.0293 64.1777 34.6172 63.668 33.793 63.668C33.0703 63.668 32.418 63.9141 31.8359 64.4062V63.4219C32.4258 63.0469 33.1055 62.8594 33.875 62.8594C35.2852 62.8594 35.9902 63.6055 35.9902 65.0977V69ZM35.0293 65.9648L33.582 66.1641C33.1367 66.2266 32.8008 66.3379 32.5742 66.498C32.3477 66.6543 32.2344 66.9336 32.2344 67.3359C32.2344 67.6289 32.3379 67.8691 32.5449 68.0566C32.7559 68.2402 33.0352 68.332 33.3828 68.332C33.8594 68.332 34.252 68.166 34.5605 67.834C34.873 67.498 35.0293 67.0742 35.0293 66.5625V65.9648ZM40.9297 63.9727C40.7617 63.8438 40.5195 63.7793 40.2031 63.7793C39.793 63.7793 39.4492 63.9727 39.1719 64.3594C38.8984 64.7461 38.7617 65.2734 38.7617 65.9414V69H37.8008V63H38.7617V64.2363H38.7852C38.9219 63.8145 39.1309 63.4863 39.4121 63.252C39.6934 63.0137 40.0078 62.8945 40.3555 62.8945C40.6055 62.8945 40.7969 62.9219 40.9297 62.9766V63.9727ZM46.2676 69H45.3066V68.0625H45.2832C44.8652 68.7812 44.25 69.1406 43.4375 69.1406C42.8398 69.1406 42.3711 68.9824 42.0312 68.666C41.6953 68.3496 41.5273 67.9297 41.5273 67.4062C41.5273 66.2852 42.1875 65.6328 43.5078 65.4492L45.3066 65.1973C45.3066 64.1777 44.8945 63.668 44.0703 63.668C43.3477 63.668 42.6953 63.9141 42.1133 64.4062V63.4219C42.7031 63.0469 43.3828 62.8594 44.1523 62.8594C45.5625 62.8594 46.2676 63.6055 46.2676 65.0977V69ZM45.3066 65.9648L43.8594 66.1641C43.4141 66.2266 43.0781 66.3379 42.8516 66.498C42.625 66.6543 42.5117 66.9336 42.5117 67.3359C42.5117 67.6289 42.6152 67.8691 42.8223 68.0566C43.0332 68.2402 43.3125 68.332 43.6602 68.332C44.1367 68.332 44.5293 68.166 44.8379 67.834C45.1504 67.498 45.3066 67.0742 45.3066 66.5625V65.9648ZM51.043 60.9609C50.8555 60.8555 50.6426 60.8027 50.4043 60.8027C49.7324 60.8027 49.3965 61.2266 49.3965 62.0742V63H50.8027V63.8203H49.3965V69H48.4414V63.8203H47.416V63H48.4414V62.0273C48.4414 61.3984 48.623 60.9023 48.9863 60.5391C49.3496 60.1719 49.8027 59.9883 50.3457 59.9883C50.6387 59.9883 50.8711 60.0234 51.043 60.0938V60.9609ZM56.1348 69H55.1738V68.0625H55.1504C54.7324 68.7812 54.1172 69.1406 53.3047 69.1406C52.707 69.1406 52.2383 68.9824 51.8984 68.666C51.5625 68.3496 51.3945 67.9297 51.3945 67.4062C51.3945 66.2852 52.0547 65.6328 53.375 65.4492L55.1738 65.1973C55.1738 64.1777 54.7617 63.668 53.9375 63.668C53.2148 63.668 52.5625 63.9141 51.9805 64.4062V63.4219C52.5703 63.0469 53.25 62.8594 54.0195 62.8594C55.4297 62.8594 56.1348 63.6055 56.1348 65.0977V69ZM55.1738 65.9648L53.7266 66.1641C53.2812 66.2266 52.9453 66.3379 52.7188 66.498C52.4922 66.6543 52.3789 66.9336 52.3789 67.3359C52.3789 67.6289 52.4824 67.8691 52.6895 68.0566C52.9004 68.2402 53.1797 68.332 53.5273 68.332C54.0039 68.332 54.3965 68.166 54.7051 67.834C55.0176 67.498 55.1738 67.0742 55.1738 66.5625V65.9648ZM65.5332 69H64.5723V68.0625H64.5488C64.1309 68.7812 63.5156 69.1406 62.7031 69.1406C62.1055 69.1406 61.6367 68.9824 61.2969 68.666C60.9609 68.3496 60.793 67.9297 60.793 67.4062C60.793 66.2852 61.4531 65.6328 62.7734 65.4492L64.5723 65.1973C64.5723 64.1777 64.1602 63.668 63.3359 63.668C62.6133 63.668 61.9609 63.9141 61.3789 64.4062V63.4219C61.9688 63.0469 62.6484 62.8594 63.418 62.8594C64.8281 62.8594 65.5332 63.6055 65.5332 65.0977V69ZM64.5723 65.9648L63.125 66.1641C62.6797 66.2266 62.3438 66.3379 62.1172 66.498C61.8906 66.6543 61.7773 66.9336 61.7773 67.3359C61.7773 67.6289 61.8809 67.8691 62.0879 68.0566C62.2988 68.2402 62.5781 68.332 62.9258 68.332C63.4023 68.332 63.7949 68.166 64.1035 67.834C64.416 67.498 64.5723 67.0742 64.5723 66.5625V65.9648ZM67.8359 61.4766C67.6641 61.4766 67.5176 61.418 67.3965 61.3008C67.2754 61.1836 67.2148 61.0352 67.2148 60.8555C67.2148 60.6758 67.2754 60.5273 67.3965 60.4102C67.5176 60.2891 67.6641 60.2285 67.8359 60.2285C68.0117 60.2285 68.1602 60.2891 68.2812 60.4102C68.4062 60.5273 68.4688 60.6758 68.4688 60.8555C68.4688 61.0273 68.4062 61.1738 68.2812 61.2949C68.1602 61.416 68.0117 61.4766 67.8359 61.4766ZM68.3047 69H67.3438V63H68.3047V69ZM73.0332 68.9414C72.8066 69.0664 72.5078 69.1289 72.1367 69.1289C71.0859 69.1289 70.5605 68.543 70.5605 67.3711V63.8203H69.5293V63H70.5605V61.5352L71.5215 61.2246V63H73.0332V63.8203H71.5215V67.2012C71.5215 67.6035 71.5898 67.8906 71.7266 68.0625C71.8633 68.2344 72.0898 68.3203 72.4062 68.3203C72.6484 68.3203 72.8574 68.2539 73.0332 68.1211V68.9414ZM24.1191 77.4766C23.9473 77.4766 23.8008 77.418 23.6797 77.3008C23.5586 77.1836 23.498 77.0352 23.498 76.8555C23.498 76.6758 23.5586 76.5273 23.6797 76.4102C23.8008 76.2891 23.9473 76.2285 24.1191 76.2285C24.2949 76.2285 24.4434 76.2891 24.5645 76.4102C24.6895 76.5273 24.752 76.6758 24.752 76.8555C24.752 77.0273 24.6895 77.1738 24.5645 77.2949C24.4434 77.416 24.2949 77.4766 24.1191 77.4766ZM24.5879 85H23.627V79H24.5879V85ZM30.9277 77.4883H27.6465V80.3945H30.6816V81.2793H27.6465V85H26.6621V76.5977H30.9277V77.4883ZM35.5215 79.9727C35.3535 79.8438 35.1113 79.7793 34.7949 79.7793C34.3848 79.7793 34.041 79.9727 33.7637 80.3594C33.4902 80.7461 33.3535 81.2734 33.3535 81.9414V85H32.3926V79H33.3535V80.2363H33.377C33.5137 79.8145 33.7227 79.4863 34.0039 79.252C34.2852 79.0137 34.5996 78.8945 34.9473 78.8945C35.1973 78.8945 35.3887 78.9219 35.5215 78.9766V79.9727ZM40.8594 85H39.8984V84.0625H39.875C39.457 84.7812 38.8418 85.1406 38.0293 85.1406C37.4316 85.1406 36.9629 84.9824 36.623 84.666C36.2871 84.3496 36.1191 83.9297 36.1191 83.4062C36.1191 82.2852 36.7793 81.6328 38.0996 81.4492L39.8984 81.1973C39.8984 80.1777 39.4863 79.668 38.6621 79.668C37.9395 79.668 37.2871 79.9141 36.7051 80.4062V79.4219C37.2949 79.0469 37.9746 78.8594 38.7441 78.8594C40.1543 78.8594 40.8594 79.6055 40.8594 81.0977V85ZM39.8984 81.9648L38.4512 82.1641C38.0059 82.2266 37.6699 82.3379 37.4434 82.498C37.2168 82.6543 37.1035 82.9336 37.1035 83.3359C37.1035 83.6289 37.207 83.8691 37.4141 84.0566C37.625 84.2402 37.9043 84.332 38.252 84.332C38.7285 84.332 39.1211 84.166 39.4297 83.834C39.7422 83.498 39.8984 83.0742 39.8984 82.5625V81.9648ZM51.1895 85H50.2285V81.5547C50.2285 80.8906 50.125 80.4102 49.918 80.1133C49.7148 79.8164 49.3711 79.668 48.8867 79.668C48.4766 79.668 48.127 79.8555 47.8379 80.2305C47.5527 80.6055 47.4102 81.0547 47.4102 81.5781V85H46.4492V81.4375C46.4492 80.2578 45.9941 79.668 45.084 79.668C44.6621 79.668 44.3145 79.8457 44.041 80.2012C43.7676 80.5527 43.6309 81.0117 43.6309 81.5781V85H42.6699V79H43.6309V79.9492H43.6543C44.0801 79.2227 44.7012 78.8594 45.5176 78.8594C45.9277 78.8594 46.2852 78.9746 46.5898 79.2051C46.8945 79.4316 47.1035 79.7305 47.2168 80.1016C47.6621 79.2734 48.3262 78.8594 49.209 78.8594C50.5293 78.8594 51.1895 79.6738 51.1895 81.3027V85ZM57.8281 82.2402H53.5918C53.6074 82.9082 53.7871 83.4238 54.1309 83.7871C54.4746 84.1504 54.9473 84.332 55.5488 84.332C56.2246 84.332 56.8457 84.1094 57.4121 83.6641V84.5664C56.8848 84.9492 56.1875 85.1406 55.3203 85.1406C54.4727 85.1406 53.8066 84.8691 53.3223 84.3262C52.8379 83.7793 52.5957 83.0117 52.5957 82.0234C52.5957 81.0898 52.8594 80.3301 53.3867 79.7441C53.918 79.1543 54.5762 78.8594 55.3613 78.8594C56.1465 78.8594 56.7539 79.1133 57.1836 79.6211C57.6133 80.1289 57.8281 80.834 57.8281 81.7363V82.2402ZM56.8438 81.4258C56.8398 80.8711 56.7051 80.4395 56.4395 80.1309C56.1777 79.8223 55.8125 79.668 55.3438 79.668C54.8906 79.668 54.5059 79.8301 54.1895 80.1543C53.873 80.4785 53.6777 80.9023 53.6035 81.4258H56.8438ZM60.1191 76.5977V79.2168H59.2695V76.5977H60.1191ZM63.0137 85H62.0527V76.1172H63.0137V85ZM69.7812 82.2402H65.5449C65.5605 82.9082 65.7402 83.4238 66.084 83.7871C66.4277 84.1504 66.9004 84.332 67.502 84.332C68.1777 84.332 68.7988 84.1094 69.3652 83.6641V84.5664C68.8379 84.9492 68.1406 85.1406 67.2734 85.1406C66.4258 85.1406 65.7598 84.8691 65.2754 84.3262C64.791 83.7793 64.5488 83.0117 64.5488 82.0234C64.5488 81.0898 64.8125 80.3301 65.3398 79.7441C65.8711 79.1543 66.5293 78.8594 67.3145 78.8594C68.0996 78.8594 68.707 79.1133 69.1367 79.6211C69.5664 80.1289 69.7812 80.834 69.7812 81.7363V82.2402ZM68.7969 81.4258C68.793 80.8711 68.6582 80.4395 68.3926 80.1309C68.1309 79.8223 67.7656 79.668 67.2969 79.668C66.8438 79.668 66.459 79.8301 66.1426 80.1543C65.8262 80.4785 65.6309 80.9023 65.5566 81.4258H68.7969ZM74.3691 79.9727C74.2012 79.8438 73.959 79.7793 73.6426 79.7793C73.2324 79.7793 72.8887 79.9727 72.6113 80.3594C72.3379 80.7461 72.2012 81.2734 72.2012 81.9414V85H71.2402V79H72.2012V80.2363H72.2246C72.3613 79.8145 72.5703 79.4863 72.8516 79.252C73.1328 79.0137 73.4473 78.8945 73.7949 78.8945C74.0449 78.8945 74.2363 78.9219 74.3691 78.9766V79.9727ZM75.9043 77.4766C75.7324 77.4766 75.5859 77.418 75.4648 77.3008C75.3438 77.1836 75.2832 77.0352 75.2832 76.8555C75.2832 76.6758 75.3438 76.5273 75.4648 76.4102C75.5859 76.2891 75.7324 76.2285 75.9043 76.2285C76.0801 76.2285 76.2285 76.2891 76.3496 76.4102C76.4746 76.5273 76.5371 76.6758 76.5371 76.8555C76.5371 77.0273 76.4746 77.1738 76.3496 77.2949C76.2285 77.416 76.0801 77.4766 75.9043 77.4766ZM76.373 85H75.4121V79H76.373V85ZM26.6914 101.141C25.8047 101.141 25.0957 100.861 24.5645 100.303C24.0371 99.7402 23.7734 98.9961 23.7734 98.0703C23.7734 97.0625 24.0488 96.2754 24.5996 95.709C25.1504 95.1426 25.8945 94.8594 26.832 94.8594C27.7266 94.8594 28.4238 95.1348 28.9238 95.6855C29.4277 96.2363 29.6797 97 29.6797 97.9766C29.6797 98.9336 29.4082 99.7012 28.8652 100.279C28.3262 100.854 27.6016 101.141 26.6914 101.141ZM26.7617 95.668C26.1445 95.668 25.6562 95.8789 25.2969 96.3008C24.9375 96.7188 24.7578 97.2969 24.7578 98.0352C24.7578 98.7461 24.9395 99.3066 25.3027 99.7168C25.666 100.127 26.1523 100.332 26.7617 100.332C27.3828 100.332 27.8594 100.131 28.1914 99.7285C28.5273 99.3262 28.6953 98.7539 28.6953 98.0117C28.6953 97.2617 28.5273 96.6836 28.1914 96.2773C27.8594 95.8711 27.3828 95.668 26.7617 95.668ZM36.1953 101H34.8477L32.1992 98.1172H32.1758V101H31.2148V92.1172H32.1758V97.748H32.1992L34.7188 95H35.9785L33.1953 97.8945L36.1953 101ZM42.0312 101H41.0703V100.051H41.0469C40.6484 100.777 40.0312 101.141 39.1953 101.141C37.7656 101.141 37.0508 100.289 37.0508 98.5859V95H38.0059V98.4336C38.0059 99.6992 38.4902 100.332 39.459 100.332C39.9277 100.332 40.3125 100.16 40.6133 99.8164C40.918 99.4688 41.0703 99.0156 41.0703 98.457V95H42.0312V101ZM48.752 95L45.9922 101.961C45.5 103.203 44.8086 103.824 43.918 103.824C43.668 103.824 43.459 103.799 43.291 103.748V102.887C43.498 102.957 43.6875 102.992 43.8594 102.992C44.3438 102.992 44.707 102.703 44.9492 102.125L45.4297 100.988L43.0859 95H44.1523L45.7754 99.6172C45.7949 99.6758 45.8359 99.8281 45.8984 100.074H45.9336C45.9531 99.9805 45.9922 99.832 46.0508 99.6289L47.7559 95H48.752ZM54.084 101H53.123V100.062H53.0996C52.6816 100.781 52.0664 101.141 51.2539 101.141C50.6562 101.141 50.1875 100.982 49.8477 100.666C49.5117 100.35 49.3438 99.9297 49.3438 99.4062C49.3438 98.2852 50.0039 97.6328 51.3242 97.4492L53.123 97.1973C53.123 96.1777 52.7109 95.668 51.8867 95.668C51.1641 95.668 50.5117 95.9141 49.9297 96.4062V95.4219C50.5195 95.0469 51.1992 94.8594 51.9688 94.8594C53.3789 94.8594 54.084 95.6055 54.084 97.0977V101ZM53.123 97.9648L51.6758 98.1641C51.2305 98.2266 50.8945 98.3379 50.668 98.498C50.4414 98.6543 50.3281 98.9336 50.3281 99.3359C50.3281 99.6289 50.4316 99.8691 50.6387 100.057C50.8496 100.24 51.1289 100.332 51.4766 100.332C51.9531 100.332 52.3457 100.166 52.6543 99.834C52.9668 99.498 53.123 99.0742 53.123 98.5625V97.9648ZM64.4141 101H63.4531V97.5547C63.4531 96.8906 63.3496 96.4102 63.1426 96.1133C62.9395 95.8164 62.5957 95.668 62.1113 95.668C61.7012 95.668 61.3516 95.8555 61.0625 96.2305C60.7773 96.6055 60.6348 97.0547 60.6348 97.5781V101H59.6738V97.4375C59.6738 96.2578 59.2188 95.668 58.3086 95.668C57.8867 95.668 57.5391 95.8457 57.2656 96.2012C56.9922 96.5527 56.8555 97.0117 56.8555 97.5781V101H55.8945V95H56.8555V95.9492H56.8789C57.3047 95.2227 57.9258 94.8594 58.7422 94.8594C59.1523 94.8594 59.5098 94.9746 59.8145 95.2051C60.1191 95.4316 60.3281 95.7305 60.4414 96.1016C60.8867 95.2734 61.5508 94.8594 62.4336 94.8594C63.7539 94.8594 64.4141 95.6738 64.4141 97.3027V101ZM70.5254 101H69.5645V100.062H69.541C69.123 100.781 68.5078 101.141 67.6953 101.141C67.0977 101.141 66.6289 100.982 66.2891 100.666C65.9531 100.35 65.7852 99.9297 65.7852 99.4062C65.7852 98.2852 66.4453 97.6328 67.7656 97.4492L69.5645 97.1973C69.5645 96.1777 69.1523 95.668 68.3281 95.668C67.6055 95.668 66.9531 95.9141 66.3711 96.4062V95.4219C66.9609 95.0469 67.6406 94.8594 68.4102 94.8594C69.8203 94.8594 70.5254 95.6055 70.5254 97.0977V101ZM69.5645 97.9648L68.1172 98.1641C67.6719 98.2266 67.3359 98.3379 67.1094 98.498C66.8828 98.6543 66.7695 98.9336 66.7695 99.3359C66.7695 99.6289 66.873 99.8691 67.0801 100.057C67.291 100.24 67.5703 100.332 67.918 100.332C68.3945 100.332 68.7871 100.166 69.0957 99.834C69.4082 99.498 69.5645 99.0742 69.5645 98.5625V97.9648ZM76.5195 95.2754L72.9688 100.18H76.4844V101H71.5566V100.701L75.1074 95.8203H71.8906V95H76.5195V95.2754Z" fill="#020057"/>
</svg>
