<svg width="100%" viewBox="0 0 148 147" fill="none" xmlns="http://www.w3.org/2000/svg">
<g filter="url(#filter0_dd_3872_63025)">
<rect x="8" y="4" width="132" height="132" fill="#FBFBFE"/>
<rect x="8.5" y="4.5" width="131" height="131" stroke="#827DFF" stroke-dasharray="4 4"/>
<rect width="100" height="112" transform="translate(24 14)" fill="#FBFBFE"/>
<path d="M65.4247 24.5758C65.1903 24.3414 64.8104 24.3414 64.5761 24.5758C64.3418 24.8101 64.3418 25.19 64.5761 25.4243L66.0974 26.9456C65.7833 27.4199 65.6004 27.9886 65.6004 28.6V39.4C65.6004 41.0569 66.9435 42.4 68.6004 42.4H79.4004C80.0118 42.4 80.5806 42.2171 81.0548 41.903L82.5761 43.4243C82.8104 43.6586 83.1903 43.6586 83.4247 43.4243C83.659 43.19 83.659 42.8101 83.4247 42.5758L65.4247 24.5758ZM80.1764 41.0246C79.9415 41.1371 79.6783 41.2 79.4004 41.2H68.6004C67.6063 41.2 66.8004 40.3941 66.8004 39.4V30.4H69.5519L80.1764 41.0246ZM81.2004 30.4V38.6544L82.3706 39.8246C82.3902 39.6859 82.4004 39.5442 82.4004 39.4V28.6C82.4004 26.9432 81.0572 25.6 79.4004 25.6H68.6004C68.4563 25.6 68.3145 25.6102 68.1758 25.6298L72.946 30.4H81.2004Z" fill="#020057"/>
<path d="M43.3379 66.6484C42.7168 66.9766 41.9434 67.1406 41.0176 67.1406C39.8223 67.1406 38.8652 66.7559 38.1465 65.9863C37.4277 65.2168 37.0684 64.207 37.0684 62.957C37.0684 61.6133 37.4727 60.5273 38.2812 59.6992C39.0898 58.8711 40.1152 58.457 41.3574 58.457C42.1543 58.457 42.8145 58.5723 43.3379 58.8027V59.8516C42.7363 59.5156 42.0723 59.3477 41.3457 59.3477C40.3809 59.3477 39.5977 59.6699 38.9961 60.3145C38.3984 60.959 38.0996 61.8203 38.0996 62.8984C38.0996 63.9219 38.3789 64.7383 38.9375 65.3477C39.5 65.9531 40.2363 66.2559 41.1465 66.2559C41.9902 66.2559 42.7207 66.0684 43.3379 65.6934V66.6484ZM45.8809 67H44.9199V58.1172H45.8809V67ZM52.1211 67H51.1602V66.0625H51.1367C50.7188 66.7812 50.1035 67.1406 49.291 67.1406C48.6934 67.1406 48.2246 66.9824 47.8848 66.666C47.5488 66.3496 47.3809 65.9297 47.3809 65.4062C47.3809 64.2852 48.041 63.6328 49.3613 63.4492L51.1602 63.1973C51.1602 62.1777 50.748 61.668 49.9238 61.668C49.2012 61.668 48.5488 61.9141 47.9668 62.4062V61.4219C48.5566 61.0469 49.2363 60.8594 50.0059 60.8594C51.416 60.8594 52.1211 61.6055 52.1211 63.0977V67ZM51.1602 63.9648L49.7129 64.1641C49.2676 64.2266 48.9316 64.3379 48.7051 64.498C48.4785 64.6543 48.3652 64.9336 48.3652 65.3359C48.3652 65.6289 48.4688 65.8691 48.6758 66.0566C48.8867 66.2402 49.166 66.332 49.5137 66.332C49.9902 66.332 50.3828 66.166 50.6914 65.834C51.0039 65.498 51.1602 65.0742 51.1602 64.5625V63.9648ZM57.0605 61.9727C56.8926 61.8438 56.6504 61.7793 56.334 61.7793C55.9238 61.7793 55.5801 61.9727 55.3027 62.3594C55.0293 62.7461 54.8926 63.2734 54.8926 63.9414V67H53.9316V61H54.8926V62.2363H54.916C55.0527 61.8145 55.2617 61.4863 55.543 61.252C55.8242 61.0137 56.1387 60.8945 56.4863 60.8945C56.7363 60.8945 56.9277 60.9219 57.0605 60.9766V61.9727ZM58.5957 59.4766C58.4238 59.4766 58.2773 59.418 58.1562 59.3008C58.0352 59.1836 57.9746 59.0352 57.9746 58.8555C57.9746 58.6758 58.0352 58.5273 58.1562 58.4102C58.2773 58.2891 58.4238 58.2285 58.5957 58.2285C58.7715 58.2285 58.9199 58.2891 59.041 58.4102C59.166 58.5273 59.2285 58.6758 59.2285 58.8555C59.2285 59.0273 59.166 59.1738 59.041 59.2949C58.9199 59.416 58.7715 59.4766 58.5957 59.4766ZM59.0645 67H58.1035V61H59.0645V67ZM63.793 66.9414C63.5664 67.0664 63.2676 67.1289 62.8965 67.1289C61.8457 67.1289 61.3203 66.543 61.3203 65.3711V61.8203H60.2891V61H61.3203V59.5352L62.2812 59.2246V61H63.793V61.8203H62.2812V65.2012C62.2812 65.6035 62.3496 65.8906 62.4863 66.0625C62.623 66.2344 62.8496 66.3203 63.166 66.3203C63.4082 66.3203 63.6172 66.2539 63.793 66.1211V66.9414ZM69.8516 61L67.0918 67.9609C66.5996 69.2031 65.9082 69.8242 65.0176 69.8242C64.7676 69.8242 64.5586 69.7988 64.3906 69.748V68.8867C64.5977 68.957 64.7871 68.9922 64.959 68.9922C65.4434 68.9922 65.8066 68.7031 66.0488 68.125L66.5293 66.9883L64.1855 61H65.252L66.875 65.6172C66.8945 65.6758 66.9355 65.8281 66.998 66.0742H67.0332C67.0527 65.9805 67.0918 65.832 67.1504 65.6289L68.8555 61H69.8516ZM79.0332 67H78.0723V66.0508H78.0488C77.6504 66.7773 77.0332 67.1406 76.1973 67.1406C74.7676 67.1406 74.0527 66.2891 74.0527 64.5859V61H75.0078V64.4336C75.0078 65.6992 75.4922 66.332 76.4609 66.332C76.9297 66.332 77.3145 66.1602 77.6152 65.8164C77.9199 65.4688 78.0723 65.0156 78.0723 64.457V61H79.0332V67ZM77.7207 59.8633C77.5645 59.8633 77.4297 59.8086 77.3164 59.6992C77.2031 59.5898 77.1465 59.4512 77.1465 59.2832C77.1465 59.1191 77.2012 58.9824 77.3105 58.873C77.4199 58.7637 77.5527 58.709 77.709 58.709C77.873 58.709 78.0117 58.7656 78.125 58.8789C78.2383 58.9883 78.2949 59.123 78.2949 59.2832C78.2949 59.4434 78.2402 59.5801 78.1309 59.6934C78.0215 59.8066 77.8848 59.8633 77.7207 59.8633ZM75.4707 59.8633C75.3066 59.8633 75.166 59.8066 75.0488 59.6934C74.9355 59.5762 74.8789 59.4395 74.8789 59.2832C74.8789 59.1191 74.9336 58.9824 75.043 58.873C75.1562 58.7637 75.293 58.709 75.4531 58.709C75.6133 58.709 75.752 58.7656 75.8691 58.8789C75.9863 58.9883 76.0449 59.123 76.0449 59.2832C76.0449 59.4434 75.9883 59.5801 75.875 59.6934C75.7617 59.8066 75.627 59.8633 75.4707 59.8633ZM85.0684 66.7246C84.6074 67.002 84.0605 67.1406 83.4277 67.1406C82.5723 67.1406 81.8809 66.8633 81.3535 66.3086C80.8301 65.75 80.5684 65.0273 80.5684 64.1406C80.5684 63.1523 80.8516 62.3594 81.418 61.7617C81.9844 61.1602 82.7402 60.8594 83.6855 60.8594C84.2129 60.8594 84.6777 60.957 85.0801 61.1523V62.1367C84.6348 61.8242 84.1582 61.668 83.6504 61.668C83.0371 61.668 82.5332 61.8887 82.1387 62.3301C81.748 62.7676 81.5527 63.3438 81.5527 64.0586C81.5527 64.7617 81.7363 65.3164 82.1035 65.7227C82.4746 66.1289 82.9707 66.332 83.5918 66.332C84.1152 66.332 84.6074 66.1582 85.0684 65.8105V66.7246ZM84.5645 68.5C84.5645 69.1875 84.0273 69.5312 82.9531 69.5312C82.8047 69.5312 82.6777 69.5273 82.5723 69.5195V68.9922C82.7402 69.0156 82.877 69.0273 82.9824 69.0273C83.5332 69.0273 83.8086 68.8516 83.8086 68.5C83.8086 68.1953 83.5566 68.043 83.0527 68.043C83.0137 68.043 82.9336 68.0508 82.8125 68.0664V67H83.4453V67.6094C83.7891 67.6094 84.0605 67.6875 84.2598 67.8438C84.4629 68 84.5645 68.2188 84.5645 68.5ZM91.373 67H90.4121V66.0508H90.3887C89.9902 66.7773 89.373 67.1406 88.5371 67.1406C87.1074 67.1406 86.3926 66.2891 86.3926 64.5859V61H87.3477V64.4336C87.3477 65.6992 87.832 66.332 88.8008 66.332C89.2695 66.332 89.6543 66.1602 89.9551 65.8164C90.2598 65.4688 90.4121 65.0156 90.4121 64.457V61H91.373V67ZM90.0605 59.8633C89.9043 59.8633 89.7695 59.8086 89.6562 59.6992C89.543 59.5898 89.4863 59.4512 89.4863 59.2832C89.4863 59.1191 89.541 58.9824 89.6504 58.873C89.7598 58.7637 89.8926 58.709 90.0488 58.709C90.2129 58.709 90.3516 58.7656 90.4648 58.8789C90.5781 58.9883 90.6348 59.123 90.6348 59.2832C90.6348 59.4434 90.5801 59.5801 90.4707 59.6934C90.3613 59.8066 90.2246 59.8633 90.0605 59.8633ZM87.8105 59.8633C87.6465 59.8633 87.5059 59.8066 87.3887 59.6934C87.2754 59.5762 87.2188 59.4395 87.2188 59.2832C87.2188 59.1191 87.2734 58.9824 87.3828 58.873C87.4961 58.7637 87.6328 58.709 87.793 58.709C87.9531 58.709 88.0918 58.7656 88.209 58.8789C88.3262 58.9883 88.3848 59.123 88.3848 59.2832C88.3848 59.4434 88.3281 59.5801 88.2148 59.6934C88.1016 59.8066 87.9668 59.8633 87.8105 59.8633ZM98.2988 67H97.3379V63.5781C97.3379 62.3047 96.873 61.668 95.9434 61.668C95.4629 61.668 95.0645 61.8496 94.748 62.2129C94.4355 62.5723 94.2793 63.0273 94.2793 63.5781V67H93.3184V61H94.2793V61.9961H94.3027C94.7559 61.2383 95.4121 60.8594 96.2715 60.8594C96.9277 60.8594 97.4297 61.0723 97.7773 61.498C98.125 61.9199 98.2988 62.5312 98.2988 63.332V67ZM104.205 66.7246C103.744 67.002 103.197 67.1406 102.564 67.1406C101.709 67.1406 101.018 66.8633 100.49 66.3086C99.9668 65.75 99.7051 65.0273 99.7051 64.1406C99.7051 63.1523 99.9883 62.3594 100.555 61.7617C101.121 61.1602 101.877 60.8594 102.822 60.8594C103.35 60.8594 103.814 60.957 104.217 61.1523V62.1367C103.771 61.8242 103.295 61.668 102.787 61.668C102.174 61.668 101.67 61.8887 101.275 62.3301C100.885 62.7676 100.689 63.3438 100.689 64.0586C100.689 64.7617 100.873 65.3164 101.24 65.7227C101.611 66.1289 102.107 66.332 102.729 66.332C103.252 66.332 103.744 66.1582 104.205 65.8105V66.7246ZM110.51 67H109.549V66.0508H109.525C109.127 66.7773 108.51 67.1406 107.674 67.1406C106.244 67.1406 105.529 66.2891 105.529 64.5859V61H106.484V64.4336C106.484 65.6992 106.969 66.332 107.938 66.332C108.406 66.332 108.791 66.1602 109.092 65.8164C109.396 65.4688 109.549 65.0156 109.549 64.457V61H110.51V67ZM109.197 59.8633C109.041 59.8633 108.906 59.8086 108.793 59.6992C108.68 59.5898 108.623 59.4512 108.623 59.2832C108.623 59.1191 108.678 58.9824 108.787 58.873C108.896 58.7637 109.029 58.709 109.186 58.709C109.35 58.709 109.488 58.7656 109.602 58.8789C109.715 58.9883 109.771 59.123 109.771 59.2832C109.771 59.4434 109.717 59.5801 109.607 59.6934C109.498 59.8066 109.361 59.8633 109.197 59.8633ZM106.947 59.8633C106.783 59.8633 106.643 59.8066 106.525 59.6934C106.412 59.5762 106.355 59.4395 106.355 59.2832C106.355 59.1191 106.41 58.9824 106.52 58.873C106.633 58.7637 106.77 58.709 106.93 58.709C107.09 58.709 107.229 58.7656 107.346 58.8789C107.463 58.9883 107.521 59.123 107.521 59.2832C107.521 59.4434 107.465 59.5801 107.352 59.6934C107.238 59.8066 107.104 59.8633 106.947 59.8633ZM54.4121 82.9414C54.1855 83.0664 53.8867 83.1289 53.5156 83.1289C52.4648 83.1289 51.9395 82.543 51.9395 81.3711V77.8203H50.9082V77H51.9395V75.5352L52.9004 75.2246V77H54.4121V77.8203H52.9004V81.2012C52.9004 81.6035 52.9688 81.8906 53.1055 82.0625C53.2422 82.2344 53.4688 82.3203 53.7852 82.3203C54.0273 82.3203 54.2363 82.2539 54.4121 82.1211V82.9414ZM59.9902 83H59.0293V82.0625H59.0059C58.5879 82.7812 57.9727 83.1406 57.1602 83.1406C56.5625 83.1406 56.0938 82.9824 55.7539 82.666C55.418 82.3496 55.25 81.9297 55.25 81.4062C55.25 80.2852 55.9102 79.6328 57.2305 79.4492L59.0293 79.1973C59.0293 78.1777 58.6172 77.668 57.793 77.668C57.0703 77.668 56.418 77.9141 55.8359 78.4062V77.4219C56.4258 77.0469 57.1055 76.8594 57.875 76.8594C59.2852 76.8594 59.9902 77.6055 59.9902 79.0977V83ZM59.0293 79.9648L57.582 80.1641C57.1367 80.2266 56.8008 80.3379 56.5742 80.498C56.3477 80.6543 56.2344 80.9336 56.2344 81.3359C56.2344 81.6289 56.3379 81.8691 56.5449 82.0566C56.7559 82.2402 57.0352 82.332 57.3828 82.332C57.8594 82.332 58.252 82.166 58.5605 81.834C58.873 81.498 59.0293 81.0742 59.0293 80.5625V79.9648ZM64.9297 77.9727C64.7617 77.8438 64.5195 77.7793 64.2031 77.7793C63.793 77.7793 63.4492 77.9727 63.1719 78.3594C62.8984 78.7461 62.7617 79.2734 62.7617 79.9414V83H61.8008V77H62.7617V78.2363H62.7852C62.9219 77.8145 63.1309 77.4863 63.4121 77.252C63.6934 77.0137 64.0078 76.8945 64.3555 76.8945C64.6055 76.8945 64.7969 76.9219 64.9297 76.9766V77.9727ZM70.2676 83H69.3066V82.0625H69.2832C68.8652 82.7812 68.25 83.1406 67.4375 83.1406C66.8398 83.1406 66.3711 82.9824 66.0312 82.666C65.6953 82.3496 65.5273 81.9297 65.5273 81.4062C65.5273 80.2852 66.1875 79.6328 67.5078 79.4492L69.3066 79.1973C69.3066 78.1777 68.8945 77.668 68.0703 77.668C67.3477 77.668 66.6953 77.9141 66.1133 78.4062V77.4219C66.7031 77.0469 67.3828 76.8594 68.1523 76.8594C69.5625 76.8594 70.2676 77.6055 70.2676 79.0977V83ZM69.3066 79.9648L67.8594 80.1641C67.4141 80.2266 67.0781 80.3379 66.8516 80.498C66.625 80.6543 66.5117 80.9336 66.5117 81.3359C66.5117 81.6289 66.6152 81.8691 66.8223 82.0566C67.0332 82.2402 67.3125 82.332 67.6602 82.332C68.1367 82.332 68.5293 82.166 68.8379 81.834C69.1504 81.498 69.3066 81.0742 69.3066 80.5625V79.9648ZM75.043 74.9609C74.8555 74.8555 74.6426 74.8027 74.4043 74.8027C73.7324 74.8027 73.3965 75.2266 73.3965 76.0742V77H74.8027V77.8203H73.3965V83H72.4414V77.8203H71.416V77H72.4414V76.0273C72.4414 75.3984 72.623 74.9023 72.9863 74.5391C73.3496 74.1719 73.8027 73.9883 74.3457 73.9883C74.6387 73.9883 74.8711 74.0234 75.043 74.0938V74.9609ZM80.1348 83H79.1738V82.0625H79.1504C78.7324 82.7812 78.1172 83.1406 77.3047 83.1406C76.707 83.1406 76.2383 82.9824 75.8984 82.666C75.5625 82.3496 75.3945 81.9297 75.3945 81.4062C75.3945 80.2852 76.0547 79.6328 77.375 79.4492L79.1738 79.1973C79.1738 78.1777 78.7617 77.668 77.9375 77.668C77.2148 77.668 76.5625 77.9141 75.9805 78.4062V77.4219C76.5703 77.0469 77.25 76.8594 78.0195 76.8594C79.4297 76.8594 80.1348 77.6055 80.1348 79.0977V83ZM79.1738 79.9648L77.7266 80.1641C77.2812 80.2266 76.9453 80.3379 76.7188 80.498C76.4922 80.6543 76.3789 80.9336 76.3789 81.3359C76.3789 81.6289 76.4824 81.8691 76.6895 82.0566C76.9004 82.2402 77.1797 82.332 77.5273 82.332C78.0039 82.332 78.3965 82.166 78.7051 81.834C79.0176 81.498 79.1738 81.0742 79.1738 80.5625V79.9648ZM89.5332 83H88.5723V82.0625H88.5488C88.1309 82.7812 87.5156 83.1406 86.7031 83.1406C86.1055 83.1406 85.6367 82.9824 85.2969 82.666C84.9609 82.3496 84.793 81.9297 84.793 81.4062C84.793 80.2852 85.4531 79.6328 86.7734 79.4492L88.5723 79.1973C88.5723 78.1777 88.1602 77.668 87.3359 77.668C86.6133 77.668 85.9609 77.9141 85.3789 78.4062V77.4219C85.9688 77.0469 86.6484 76.8594 87.418 76.8594C88.8281 76.8594 89.5332 77.6055 89.5332 79.0977V83ZM88.5723 79.9648L87.125 80.1641C86.6797 80.2266 86.3438 80.3379 86.1172 80.498C85.8906 80.6543 85.7773 80.9336 85.7773 81.3359C85.7773 81.6289 85.8809 81.8691 86.0879 82.0566C86.2988 82.2402 86.5781 82.332 86.9258 82.332C87.4023 82.332 87.7949 82.166 88.1035 81.834C88.416 81.498 88.5723 81.0742 88.5723 80.5625V79.9648ZM91.8359 75.4766C91.6641 75.4766 91.5176 75.418 91.3965 75.3008C91.2754 75.1836 91.2148 75.0352 91.2148 74.8555C91.2148 74.6758 91.2754 74.5273 91.3965 74.4102C91.5176 74.2891 91.6641 74.2285 91.8359 74.2285C92.0117 74.2285 92.1602 74.2891 92.2812 74.4102C92.4062 74.5273 92.4688 74.6758 92.4688 74.8555C92.4688 75.0273 92.4062 75.1738 92.2812 75.2949C92.1602 75.416 92.0117 75.4766 91.8359 75.4766ZM92.3047 83H91.3438V77H92.3047V83ZM97.0332 82.9414C96.8066 83.0664 96.5078 83.1289 96.1367 83.1289C95.0859 83.1289 94.5605 82.543 94.5605 81.3711V77.8203H93.5293V77H94.5605V75.5352L95.5215 75.2246V77H97.0332V77.8203H95.5215V81.2012C95.5215 81.6035 95.5898 81.8906 95.7266 82.0625C95.8633 82.2344 96.0898 82.3203 96.4062 82.3203C96.6484 82.3203 96.8574 82.2539 97.0332 82.1211V82.9414ZM48.1191 91.4766C47.9473 91.4766 47.8008 91.418 47.6797 91.3008C47.5586 91.1836 47.498 91.0352 47.498 90.8555C47.498 90.6758 47.5586 90.5273 47.6797 90.4102C47.8008 90.2891 47.9473 90.2285 48.1191 90.2285C48.2949 90.2285 48.4434 90.2891 48.5645 90.4102C48.6895 90.5273 48.752 90.6758 48.752 90.8555C48.752 91.0273 48.6895 91.1738 48.5645 91.2949C48.4434 91.416 48.2949 91.4766 48.1191 91.4766ZM48.5879 99H47.627V93H48.5879V99ZM54.9277 91.4883H51.6465V94.3945H54.6816V95.2793H51.6465V99H50.6621V90.5977H54.9277V91.4883ZM59.5215 93.9727C59.3535 93.8438 59.1113 93.7793 58.7949 93.7793C58.3848 93.7793 58.041 93.9727 57.7637 94.3594C57.4902 94.7461 57.3535 95.2734 57.3535 95.9414V99H56.3926V93H57.3535V94.2363H57.377C57.5137 93.8145 57.7227 93.4863 58.0039 93.252C58.2852 93.0137 58.5996 92.8945 58.9473 92.8945C59.1973 92.8945 59.3887 92.9219 59.5215 92.9766V93.9727ZM64.8594 99H63.8984V98.0625H63.875C63.457 98.7812 62.8418 99.1406 62.0293 99.1406C61.4316 99.1406 60.9629 98.9824 60.623 98.666C60.2871 98.3496 60.1191 97.9297 60.1191 97.4062C60.1191 96.2852 60.7793 95.6328 62.0996 95.4492L63.8984 95.1973C63.8984 94.1777 63.4863 93.668 62.6621 93.668C61.9395 93.668 61.2871 93.9141 60.7051 94.4062V93.4219C61.2949 93.0469 61.9746 92.8594 62.7441 92.8594C64.1543 92.8594 64.8594 93.6055 64.8594 95.0977V99ZM63.8984 95.9648L62.4512 96.1641C62.0059 96.2266 61.6699 96.3379 61.4434 96.498C61.2168 96.6543 61.1035 96.9336 61.1035 97.3359C61.1035 97.6289 61.207 97.8691 61.4141 98.0566C61.625 98.2402 61.9043 98.332 62.252 98.332C62.7285 98.332 63.1211 98.166 63.4297 97.834C63.7422 97.498 63.8984 97.0742 63.8984 96.5625V95.9648ZM75.1895 99H74.2285V95.5547C74.2285 94.8906 74.125 94.4102 73.918 94.1133C73.7148 93.8164 73.3711 93.668 72.8867 93.668C72.4766 93.668 72.127 93.8555 71.8379 94.2305C71.5527 94.6055 71.4102 95.0547 71.4102 95.5781V99H70.4492V95.4375C70.4492 94.2578 69.9941 93.668 69.084 93.668C68.6621 93.668 68.3145 93.8457 68.041 94.2012C67.7676 94.5527 67.6309 95.0117 67.6309 95.5781V99H66.6699V93H67.6309V93.9492H67.6543C68.0801 93.2227 68.7012 92.8594 69.5176 92.8594C69.9277 92.8594 70.2852 92.9746 70.5898 93.2051C70.8945 93.4316 71.1035 93.7305 71.2168 94.1016C71.6621 93.2734 72.3262 92.8594 73.209 92.8594C74.5293 92.8594 75.1895 93.6738 75.1895 95.3027V99ZM81.8281 96.2402H77.5918C77.6074 96.9082 77.7871 97.4238 78.1309 97.7871C78.4746 98.1504 78.9473 98.332 79.5488 98.332C80.2246 98.332 80.8457 98.1094 81.4121 97.6641V98.5664C80.8848 98.9492 80.1875 99.1406 79.3203 99.1406C78.4727 99.1406 77.8066 98.8691 77.3223 98.3262C76.8379 97.7793 76.5957 97.0117 76.5957 96.0234C76.5957 95.0898 76.8594 94.3301 77.3867 93.7441C77.918 93.1543 78.5762 92.8594 79.3613 92.8594C80.1465 92.8594 80.7539 93.1133 81.1836 93.6211C81.6133 94.1289 81.8281 94.834 81.8281 95.7363V96.2402ZM80.8438 95.4258C80.8398 94.8711 80.7051 94.4395 80.4395 94.1309C80.1777 93.8223 79.8125 93.668 79.3438 93.668C78.8906 93.668 78.5059 93.8301 78.1895 94.1543C77.873 94.4785 77.6777 94.9023 77.6035 95.4258H80.8438ZM84.1191 90.5977V93.2168H83.2695V90.5977H84.1191ZM87.0137 99H86.0527V90.1172H87.0137V99ZM93.7812 96.2402H89.5449C89.5605 96.9082 89.7402 97.4238 90.084 97.7871C90.4277 98.1504 90.9004 98.332 91.502 98.332C92.1777 98.332 92.7988 98.1094 93.3652 97.6641V98.5664C92.8379 98.9492 92.1406 99.1406 91.2734 99.1406C90.4258 99.1406 89.7598 98.8691 89.2754 98.3262C88.791 97.7793 88.5488 97.0117 88.5488 96.0234C88.5488 95.0898 88.8125 94.3301 89.3398 93.7441C89.8711 93.1543 90.5293 92.8594 91.3145 92.8594C92.0996 92.8594 92.707 93.1133 93.1367 93.6211C93.5664 94.1289 93.7812 94.834 93.7812 95.7363V96.2402ZM92.7969 95.4258C92.793 94.8711 92.6582 94.4395 92.3926 94.1309C92.1309 93.8223 91.7656 93.668 91.2969 93.668C90.8438 93.668 90.459 93.8301 90.1426 94.1543C89.8262 94.4785 89.6309 94.9023 89.5566 95.4258H92.7969ZM98.3691 93.9727C98.2012 93.8438 97.959 93.7793 97.6426 93.7793C97.2324 93.7793 96.8887 93.9727 96.6113 94.3594C96.3379 94.7461 96.2012 95.2734 96.2012 95.9414V99H95.2402V93H96.2012V94.2363H96.2246C96.3613 93.8145 96.5703 93.4863 96.8516 93.252C97.1328 93.0137 97.4473 92.8945 97.7949 92.8945C98.0449 92.8945 98.2363 92.9219 98.3691 92.9766V93.9727ZM99.9043 91.4766C99.7324 91.4766 99.5859 91.418 99.4648 91.3008C99.3438 91.1836 99.2832 91.0352 99.2832 90.8555C99.2832 90.6758 99.3438 90.5273 99.4648 90.4102C99.5859 90.2891 99.7324 90.2285 99.9043 90.2285C100.08 90.2285 100.229 90.2891 100.35 90.4102C100.475 90.5273 100.537 90.6758 100.537 90.8555C100.537 91.0273 100.475 91.1738 100.35 91.2949C100.229 91.416 100.08 91.4766 99.9043 91.4766ZM100.373 99H99.4121V93H100.373V99ZM50.6914 115.141C49.8047 115.141 49.0957 114.861 48.5645 114.303C48.0371 113.74 47.7734 112.996 47.7734 112.07C47.7734 111.062 48.0488 110.275 48.5996 109.709C49.1504 109.143 49.8945 108.859 50.832 108.859C51.7266 108.859 52.4238 109.135 52.9238 109.686C53.4277 110.236 53.6797 111 53.6797 111.977C53.6797 112.934 53.4082 113.701 52.8652 114.279C52.3262 114.854 51.6016 115.141 50.6914 115.141ZM50.7617 109.668C50.1445 109.668 49.6562 109.879 49.2969 110.301C48.9375 110.719 48.7578 111.297 48.7578 112.035C48.7578 112.746 48.9395 113.307 49.3027 113.717C49.666 114.127 50.1523 114.332 50.7617 114.332C51.3828 114.332 51.8594 114.131 52.1914 113.729C52.5273 113.326 52.6953 112.754 52.6953 112.012C52.6953 111.262 52.5273 110.684 52.1914 110.277C51.8594 109.871 51.3828 109.668 50.7617 109.668ZM60.1953 115H58.8477L56.1992 112.117H56.1758V115H55.2148V106.117H56.1758V111.748H56.1992L58.7188 109H59.9785L57.1953 111.895L60.1953 115ZM66.0312 115H65.0703V114.051H65.0469C64.6484 114.777 64.0312 115.141 63.1953 115.141C61.7656 115.141 61.0508 114.289 61.0508 112.586V109H62.0059V112.434C62.0059 113.699 62.4902 114.332 63.459 114.332C63.9277 114.332 64.3125 114.16 64.6133 113.816C64.918 113.469 65.0703 113.016 65.0703 112.457V109H66.0312V115ZM72.752 109L69.9922 115.961C69.5 117.203 68.8086 117.824 67.918 117.824C67.668 117.824 67.459 117.799 67.291 117.748V116.887C67.498 116.957 67.6875 116.992 67.8594 116.992C68.3438 116.992 68.707 116.703 68.9492 116.125L69.4297 114.988L67.0859 109H68.1523L69.7754 113.617C69.7949 113.676 69.8359 113.828 69.8984 114.074H69.9336C69.9531 113.98 69.9922 113.832 70.0508 113.629L71.7559 109H72.752ZM78.084 115H77.123V114.062H77.0996C76.6816 114.781 76.0664 115.141 75.2539 115.141C74.6562 115.141 74.1875 114.982 73.8477 114.666C73.5117 114.35 73.3438 113.93 73.3438 113.406C73.3438 112.285 74.0039 111.633 75.3242 111.449L77.123 111.197C77.123 110.178 76.7109 109.668 75.8867 109.668C75.1641 109.668 74.5117 109.914 73.9297 110.406V109.422C74.5195 109.047 75.1992 108.859 75.9688 108.859C77.3789 108.859 78.084 109.605 78.084 111.098V115ZM77.123 111.965L75.6758 112.164C75.2305 112.227 74.8945 112.338 74.668 112.498C74.4414 112.654 74.3281 112.934 74.3281 113.336C74.3281 113.629 74.4316 113.869 74.6387 114.057C74.8496 114.24 75.1289 114.332 75.4766 114.332C75.9531 114.332 76.3457 114.166 76.6543 113.834C76.9668 113.498 77.123 113.074 77.123 112.562V111.965ZM88.4141 115H87.4531V111.555C87.4531 110.891 87.3496 110.41 87.1426 110.113C86.9395 109.816 86.5957 109.668 86.1113 109.668C85.7012 109.668 85.3516 109.855 85.0625 110.23C84.7773 110.605 84.6348 111.055 84.6348 111.578V115H83.6738V111.438C83.6738 110.258 83.2188 109.668 82.3086 109.668C81.8867 109.668 81.5391 109.846 81.2656 110.201C80.9922 110.553 80.8555 111.012 80.8555 111.578V115H79.8945V109H80.8555V109.949H80.8789C81.3047 109.223 81.9258 108.859 82.7422 108.859C83.1523 108.859 83.5098 108.975 83.8145 109.205C84.1191 109.432 84.3281 109.73 84.4414 110.102C84.8867 109.273 85.5508 108.859 86.4336 108.859C87.7539 108.859 88.4141 109.674 88.4141 111.303V115ZM94.5254 115H93.5645V114.062H93.541C93.123 114.781 92.5078 115.141 91.6953 115.141C91.0977 115.141 90.6289 114.982 90.2891 114.666C89.9531 114.35 89.7852 113.93 89.7852 113.406C89.7852 112.285 90.4453 111.633 91.7656 111.449L93.5645 111.197C93.5645 110.178 93.1523 109.668 92.3281 109.668C91.6055 109.668 90.9531 109.914 90.3711 110.406V109.422C90.9609 109.047 91.6406 108.859 92.4102 108.859C93.8203 108.859 94.5254 109.605 94.5254 111.098V115ZM93.5645 111.965L92.1172 112.164C91.6719 112.227 91.3359 112.338 91.1094 112.498C90.8828 112.654 90.7695 112.934 90.7695 113.336C90.7695 113.629 90.873 113.869 91.0801 114.057C91.291 114.24 91.5703 114.332 91.918 114.332C92.3945 114.332 92.7871 114.166 93.0957 113.834C93.4082 113.498 93.5645 113.074 93.5645 112.562V111.965ZM100.52 109.275L96.9688 114.18H100.484V115H95.5566V114.701L99.1074 109.82H95.8906V109H100.52V109.275Z" fill="#020057"/>
</g>
<defs>
<filter id="filter0_dd_3872_63025" x="0.8" y="2.38419e-07" width="146.4" height="146.4" filterUnits="userSpaceOnUse" color-interpolation-filters="sRGB">
<feFlood flood-opacity="0" result="BackgroundImageFix"/>
<feColorMatrix in="SourceAlpha" type="matrix" values="0 0 0 0 0 0 0 0 0 0 0 0 0 0 0 0 0 0 127 0" result="hardAlpha"/>
<feOffset dy="3.2"/>
<feGaussianBlur stdDeviation="3.6"/>
<feColorMatrix type="matrix" values="0 0 0 0 0.513726 0 0 0 0 0.494118 0 0 0 0 1 0 0 0 0.12 0"/>
<feBlend mode="normal" in2="BackgroundImageFix" result="effect1_dropShadow_3872_63025"/>
<feColorMatrix in="SourceAlpha" type="matrix" values="0 0 0 0 0 0 0 0 0 0 0 0 0 0 0 0 0 0 127 0" result="hardAlpha"/>
<feOffset dy="0.6"/>
<feGaussianBlur stdDeviation="0.9"/>
<feColorMatrix type="matrix" values="0 0 0 0 0.513726 0 0 0 0 0.494118 0 0 0 0 1 0 0 0 0.1 0"/>
<feBlend mode="normal" in2="effect1_dropShadow_3872_63025" result="effect2_dropShadow_3872_63025"/>
<feBlend mode="normal" in="SourceGraphic" in2="effect2_dropShadow_3872_63025" result="shape"/>
</filter>
</defs>
</svg>
