<svg width="100%" viewBox="0 0 148 147" fill="none" xmlns="http://www.w3.org/2000/svg">
<g filter="url(#filter0_dd_3871_164790)">
<rect x="8" y="4" width="132" height="132" fill="#FBFBFE"/>
<rect x="8.5" y="4.5" width="131" height="131" stroke="#827DFF" stroke-dasharray="4 4"/>
<rect width="100" height="64" transform="translate(24 38)" fill="#FBFBFE"/>
<path d="M64.2197 48.2197C63.9534 48.4859 63.9292 48.9026 64.1471 49.1962L64.2197 49.2803L68.2542 53.3149C66.3322 54.6644 64.8958 56.6799 64.2989 59.0644C64.1983 59.4662 64.4425 59.8735 64.8443 59.9741C65.2461 60.0746 65.6534 59.8305 65.754 59.4286C66.2835 57.3135 67.5911 55.5395 69.3342 54.3945L71.1438 56.2043C70.4363 56.9258 70 57.9143 70 59.0046C70 61.2138 71.7909 63.0046 74 63.0046C75.0904 63.0046 76.0788 62.5683 76.8004 61.8608L82.7197 67.7803C83.0126 68.0732 83.4874 68.0732 83.7803 67.7803C84.0466 67.5141 84.0708 67.0974 83.8529 66.8038L83.7803 66.7197L77.6668 60.6055L77.668 60.604L76.4679 59.4061L73.598 56.5368L73.6 56.536L70.7188 53.6578L70.72 53.656L69.5867 52.5255L65.2803 48.2197C64.9874 47.9268 64.5126 47.9268 64.2197 48.2197ZM72.2041 57.2655L75.7392 60.8006C75.2892 61.2364 74.6759 61.5046 74 61.5046C72.6193 61.5046 71.5 60.3853 71.5 59.0046C71.5 58.3287 71.7682 57.7154 72.2041 57.2655ZM74 51.5C72.9997 51.5 72.0291 51.6481 71.1111 51.925L72.3481 53.1612C72.8839 53.0553 73.4364 53 74 53C77.9231 53 81.3099 55.6803 82.2471 59.4332C82.3475 59.835 82.7546 60.0794 83.1565 59.9791C83.5584 59.8787 83.8028 59.4716 83.7024 59.0697C82.5994 54.6527 78.6155 51.5 74 51.5ZM74.1947 55.0093L77.996 58.81C77.8942 56.7531 76.2472 55.1076 74.1947 55.0093Z" fill="#020057"/>
<path d="M44.996 85.756H45.908V90.388C45.908 90.604 45.944 90.744 46.016 90.808C46.088 90.864 46.24 90.892 46.472 90.892C46.528 90.892 46.624 90.892 46.76 90.892C46.904 90.892 47.06 90.892 47.228 90.892C47.396 90.892 47.552 90.892 47.696 90.892C47.848 90.892 47.96 90.892 48.032 90.892C48.2 90.892 48.324 90.84 48.404 90.736C48.484 90.624 48.54 90.416 48.572 90.112C48.612 89.8 48.636 89.336 48.644 88.72C48.724 88.776 48.812 88.832 48.908 88.888C49.004 88.936 49.104 88.98 49.208 89.02C49.32 89.06 49.416 89.092 49.496 89.116C49.464 89.804 49.404 90.34 49.316 90.724C49.236 91.1 49.1 91.364 48.908 91.516C48.724 91.668 48.456 91.744 48.104 91.744C48.048 91.744 47.936 91.744 47.768 91.744C47.6 91.744 47.42 91.744 47.228 91.744C47.036 91.744 46.856 91.744 46.688 91.744C46.528 91.744 46.42 91.744 46.364 91.744C46.012 91.744 45.732 91.704 45.524 91.624C45.324 91.544 45.184 91.404 45.104 91.204C45.032 91.012 44.996 90.744 44.996 90.4V85.756ZM38.708 85.216H49.304V86.104H38.708V85.216ZM39.764 81.856H48.284V82.72H39.764V81.856ZM41.78 85.9H42.74C42.684 86.572 42.6 87.208 42.488 87.808C42.376 88.408 42.192 88.968 41.936 89.488C41.688 90 41.336 90.464 40.88 90.88C40.432 91.296 39.852 91.644 39.14 91.924C39.092 91.82 39.012 91.696 38.9 91.552C38.788 91.416 38.68 91.308 38.576 91.228C39.232 90.98 39.76 90.672 40.16 90.304C40.568 89.936 40.88 89.524 41.096 89.068C41.32 88.604 41.48 88.108 41.576 87.58C41.672 87.044 41.74 86.484 41.78 85.9ZM55.532 88.684H56.42V91.948H55.532V88.684ZM54.956 85L55.772 85.396C55.444 85.7 55.088 86.008 54.704 86.32C54.328 86.632 53.98 86.892 53.66 87.1L53.024 86.752C53.24 86.6 53.464 86.424 53.696 86.224C53.936 86.016 54.168 85.804 54.392 85.588C54.616 85.372 54.804 85.176 54.956 85ZM57.404 85.636L58.208 86.08C57.8 86.408 57.348 86.752 56.852 87.112C56.364 87.464 55.868 87.8 55.364 88.12C54.868 88.44 54.396 88.72 53.948 88.96L53.36 88.552C53.8 88.304 54.268 88.012 54.764 87.676C55.26 87.34 55.74 86.992 56.204 86.632C56.668 86.272 57.068 85.94 57.404 85.636ZM51.848 86.74L52.436 86.224C52.74 86.36 53.06 86.524 53.396 86.716C53.732 86.9 54.052 87.088 54.356 87.28C54.66 87.464 54.912 87.64 55.112 87.808L54.476 88.384C54.292 88.216 54.052 88.036 53.756 87.844C53.46 87.644 53.144 87.448 52.808 87.256C52.48 87.056 52.16 86.884 51.848 86.74ZM57.836 87.496L58.46 87.016C58.812 87.2 59.172 87.416 59.54 87.664C59.908 87.904 60.256 88.152 60.584 88.408C60.912 88.656 61.18 88.888 61.388 89.104L60.728 89.632C60.528 89.424 60.268 89.192 59.948 88.936C59.628 88.68 59.284 88.428 58.916 88.18C58.548 87.924 58.188 87.696 57.836 87.496ZM57.608 89.908L58.28 89.428C58.616 89.58 58.972 89.756 59.348 89.956C59.724 90.156 60.08 90.36 60.416 90.568C60.752 90.776 61.032 90.972 61.256 91.156L60.548 91.696C60.34 91.52 60.072 91.324 59.744 91.108C59.416 90.892 59.064 90.68 58.688 90.472C58.312 90.256 57.952 90.068 57.608 89.908ZM50.78 88.444C51.34 88.444 51.98 88.44 52.7 88.432C53.428 88.416 54.204 88.404 55.028 88.396C55.86 88.38 56.712 88.364 57.584 88.348C58.464 88.332 59.336 88.312 60.2 88.288L60.152 88.996C59.304 89.012 58.452 89.032 57.596 89.056C56.748 89.08 55.916 89.1 55.1 89.116C54.292 89.132 53.524 89.148 52.796 89.164C52.076 89.18 51.428 89.192 50.852 89.2L50.78 88.444ZM53.492 89.44L54.32 89.752C54.048 90.008 53.736 90.26 53.384 90.508C53.04 90.756 52.68 90.988 52.304 91.204C51.936 91.42 51.576 91.604 51.224 91.756C51.176 91.7 51.108 91.632 51.02 91.552C50.94 91.48 50.856 91.404 50.768 91.324C50.68 91.252 50.6 91.192 50.528 91.144C51.064 90.936 51.6 90.684 52.136 90.388C52.672 90.084 53.124 89.768 53.492 89.44ZM55.532 80.908H56.432V85.168H55.532V80.908ZM51.38 81.796H60.752V82.492H51.38V81.796ZM52.04 83.26H60.044V83.944H52.04V83.26ZM50.744 84.724H61.292V85.444H50.744V84.724ZM63.752 83.74H64.664V89.788C64.664 90.044 64.704 90.24 64.784 90.376C64.872 90.512 65.028 90.608 65.252 90.664C65.484 90.712 65.82 90.736 66.26 90.736C66.38 90.736 66.588 90.736 66.884 90.736C67.18 90.736 67.516 90.736 67.892 90.736C68.276 90.736 68.66 90.736 69.044 90.736C69.436 90.736 69.788 90.736 70.1 90.736C70.42 90.736 70.664 90.736 70.832 90.736C71.16 90.736 71.424 90.704 71.624 90.64C71.832 90.576 71.992 90.46 72.104 90.292C72.216 90.116 72.3 89.876 72.356 89.572C72.42 89.26 72.472 88.864 72.512 88.384C72.592 88.44 72.684 88.492 72.788 88.54C72.9 88.588 73.012 88.632 73.124 88.672C73.236 88.712 73.336 88.74 73.424 88.756C73.368 89.308 73.292 89.768 73.196 90.136C73.1 90.504 72.96 90.796 72.776 91.012C72.6 91.228 72.352 91.384 72.032 91.48C71.72 91.576 71.316 91.624 70.82 91.624C70.74 91.624 70.584 91.624 70.352 91.624C70.128 91.624 69.856 91.624 69.536 91.624C69.224 91.624 68.896 91.624 68.552 91.624C68.208 91.624 67.88 91.624 67.568 91.624C67.256 91.624 66.988 91.624 66.764 91.624C66.54 91.624 66.388 91.624 66.308 91.624C65.66 91.624 65.148 91.572 64.772 91.468C64.396 91.364 64.132 91.18 63.98 90.916C63.828 90.652 63.752 90.272 63.752 89.776V83.74ZM64.244 85.72H71.324V86.608H64.244V85.72ZM63.116 81.664H71.9V87.208H70.964V82.564H63.116V81.664ZM79.688 85.66H84.308V86.452H79.688V85.66ZM79.664 82.78H84.86V83.608H79.664V82.78ZM81.884 80.932H82.772V86.128H81.884V80.932ZM79.292 82.78H80.144V85.684C80.144 86.148 80.124 86.652 80.084 87.196C80.044 87.74 79.972 88.296 79.868 88.864C79.772 89.424 79.624 89.972 79.424 90.508C79.232 91.044 78.972 91.532 78.644 91.972C78.596 91.924 78.528 91.868 78.44 91.804C78.352 91.748 78.26 91.692 78.164 91.636C78.068 91.58 77.984 91.536 77.912 91.504C78.232 91.08 78.48 90.62 78.656 90.124C78.84 89.628 78.976 89.124 79.064 88.612C79.16 88.092 79.22 87.58 79.244 87.076C79.276 86.572 79.292 86.104 79.292 85.672V82.78ZM80.936 86.068C81.304 87.308 81.88 88.38 82.664 89.284C83.448 90.188 84.444 90.828 85.652 91.204C85.58 91.268 85.504 91.344 85.424 91.432C85.352 91.528 85.28 91.624 85.208 91.72C85.144 91.816 85.088 91.908 85.04 91.996C83.784 91.532 82.756 90.808 81.956 89.824C81.164 88.84 80.564 87.656 80.156 86.272L80.936 86.068ZM84.596 82.78H84.728L84.884 82.744L85.508 82.888C85.412 83.304 85.296 83.732 85.16 84.172C85.032 84.612 84.904 84.984 84.776 85.288L84.008 85.12C84.112 84.848 84.22 84.504 84.332 84.088C84.444 83.672 84.532 83.284 84.596 82.924V82.78ZM84.116 85.66H84.284L84.44 85.612L85.016 85.828C84.768 86.908 84.4 87.848 83.912 88.648C83.424 89.448 82.848 90.124 82.184 90.676C81.52 91.22 80.804 91.652 80.036 91.972C79.996 91.892 79.944 91.804 79.88 91.708C79.824 91.62 79.764 91.532 79.7 91.444C79.636 91.364 79.568 91.292 79.496 91.228C80.208 90.972 80.872 90.596 81.488 90.1C82.112 89.596 82.652 88.984 83.108 88.264C83.572 87.544 83.908 86.728 84.116 85.816V85.66ZM76.244 86.812L77.096 85.792V91.972H76.244V86.812ZM74.588 83.152H78.116V83.968H74.588V83.152ZM76.208 80.956H77.06V83.608H76.208V80.956ZM77 85.804C77.088 85.884 77.216 86.024 77.384 86.224C77.56 86.416 77.744 86.628 77.936 86.86C78.136 87.092 78.316 87.308 78.476 87.508C78.644 87.708 78.764 87.852 78.836 87.94L78.296 88.552C78.208 88.408 78.084 88.228 77.924 88.012C77.772 87.796 77.604 87.568 77.42 87.328C77.244 87.088 77.072 86.868 76.904 86.668C76.744 86.468 76.616 86.312 76.52 86.2L77 85.804ZM77.9 83.152H78.08L78.236 83.116L78.716 83.44C78.444 84.136 78.096 84.812 77.672 85.468C77.248 86.116 76.784 86.712 76.28 87.256C75.776 87.792 75.272 88.244 74.768 88.612C74.736 88.532 74.692 88.44 74.636 88.336C74.588 88.232 74.532 88.136 74.468 88.048C74.412 87.952 74.356 87.876 74.3 87.82C74.78 87.5 75.252 87.104 75.716 86.632C76.188 86.152 76.616 85.628 77 85.06C77.384 84.492 77.684 83.916 77.9 83.332V83.152ZM78.488 85.3L79.052 85.708C78.868 85.964 78.672 86.224 78.464 86.488C78.256 86.752 78.064 86.976 77.888 87.16L77.432 86.824C77.544 86.688 77.664 86.532 77.792 86.356C77.928 86.172 78.056 85.988 78.176 85.804C78.304 85.612 78.408 85.444 78.488 85.3ZM87.692 81.496H88.592V85.024C88.592 85.528 88.576 86.08 88.544 86.68C88.512 87.28 88.448 87.892 88.352 88.516C88.256 89.14 88.112 89.748 87.92 90.34C87.736 90.932 87.488 91.476 87.176 91.972C87.112 91.924 87.032 91.868 86.936 91.804C86.84 91.748 86.74 91.692 86.636 91.636C86.54 91.58 86.452 91.536 86.372 91.504C86.676 91.032 86.916 90.52 87.092 89.968C87.268 89.416 87.396 88.852 87.476 88.276C87.564 87.692 87.62 87.124 87.644 86.572C87.676 86.02 87.692 85.504 87.692 85.024V81.496ZM88.22 81.496H96.62V84.364H88.22V83.572H95.72V82.276H88.22V81.496ZM88.676 88.372H97.352V89.152H88.676V88.372ZM89.024 85.948H97.028V86.716H89.024V85.948ZM94.112 86.176H94.988V91.972H94.112V86.176ZM90.908 86.2H91.772V87.916C91.772 88.284 91.744 88.656 91.688 89.032C91.632 89.408 91.516 89.776 91.34 90.136C91.164 90.488 90.904 90.82 90.56 91.132C90.216 91.444 89.756 91.732 89.18 91.996C89.14 91.924 89.084 91.848 89.012 91.768C88.94 91.688 88.868 91.604 88.796 91.516C88.724 91.436 88.652 91.376 88.58 91.336C89.108 91.104 89.524 90.852 89.828 90.58C90.14 90.308 90.372 90.024 90.524 89.728C90.684 89.432 90.788 89.132 90.836 88.828C90.884 88.516 90.908 88.208 90.908 87.904V86.2ZM90.176 84.628L90.956 84.376C91.148 84.592 91.328 84.836 91.496 85.108C91.664 85.372 91.784 85.608 91.856 85.816L91.028 86.092C90.972 85.884 90.86 85.644 90.692 85.372C90.532 85.1 90.36 84.852 90.176 84.628ZM94.904 84.292L95.792 84.568C95.632 84.832 95.46 85.1 95.276 85.372C95.092 85.636 94.924 85.86 94.772 86.044L94.004 85.804C94.108 85.668 94.216 85.512 94.328 85.336C94.44 85.152 94.548 84.968 94.652 84.784C94.756 84.6 94.84 84.436 94.904 84.292ZM98.6 81.748H109.424V82.552H98.6V81.748ZM101.528 80.92H102.416V83.416H101.528V80.92ZM105.548 80.92H106.436V83.428H105.548V80.92ZM99.032 85.948H103.808V86.644H99.74V91.96H99.032V85.948ZM103.424 85.948H104.144V91.132C104.144 91.316 104.124 91.464 104.084 91.576C104.052 91.688 103.976 91.776 103.856 91.84C103.736 91.896 103.584 91.928 103.4 91.936C103.224 91.952 103.008 91.96 102.752 91.96C102.744 91.864 102.716 91.748 102.668 91.612C102.628 91.484 102.58 91.368 102.524 91.264C102.7 91.272 102.856 91.276 102.992 91.276C103.136 91.276 103.232 91.276 103.28 91.276C103.376 91.276 103.424 91.228 103.424 91.132V85.948ZM100.316 87.268L100.856 87.352C100.816 87.912 100.748 88.46 100.652 88.996C100.564 89.532 100.436 89.992 100.268 90.376C100.228 90.344 100.156 90.3 100.052 90.244C99.956 90.18 99.868 90.136 99.788 90.112C99.964 89.736 100.088 89.3 100.16 88.804C100.232 88.308 100.284 87.796 100.316 87.268ZM99.848 83.896L100.58 84.088C100.388 84.48 100.152 84.872 99.872 85.264C99.6 85.648 99.324 85.972 99.044 86.236C98.996 86.196 98.932 86.148 98.852 86.092C98.78 86.028 98.7 85.972 98.612 85.924C98.532 85.868 98.464 85.824 98.408 85.792C98.696 85.536 98.964 85.244 99.212 84.916C99.468 84.58 99.68 84.24 99.848 83.896ZM102.536 84.136L103.16 83.824C103.344 84.008 103.528 84.208 103.712 84.424C103.896 84.64 104.064 84.856 104.216 85.072C104.376 85.28 104.496 85.472 104.576 85.648L103.928 86.02C103.792 85.764 103.592 85.46 103.328 85.108C103.072 84.748 102.808 84.424 102.536 84.136ZM102.212 87.376L102.68 87.268C102.76 87.556 102.832 87.86 102.896 88.18C102.968 88.5 103.024 88.804 103.064 89.092C103.112 89.38 103.14 89.632 103.148 89.848L102.644 89.992C102.636 89.776 102.612 89.52 102.572 89.224C102.532 88.92 102.48 88.608 102.416 88.288C102.36 87.96 102.292 87.656 102.212 87.376ZM101.132 83.308H101.96V86.236H101.864V91.864H101.24V86.236H101.132V83.308ZM105.68 84.94H109.376V85.72H105.68V84.94ZM105.764 83.44L106.592 83.62C106.448 84.18 106.276 84.728 106.076 85.264C105.884 85.792 105.668 86.292 105.428 86.764C105.188 87.228 104.928 87.636 104.648 87.988C104.608 87.94 104.544 87.88 104.456 87.808C104.376 87.736 104.292 87.664 104.204 87.592C104.124 87.52 104.048 87.464 103.976 87.424C104.392 86.944 104.748 86.352 105.044 85.648C105.348 84.936 105.588 84.2 105.764 83.44ZM108.056 85.3L108.908 85.432C108.588 86.984 108.088 88.3 107.408 89.38C106.736 90.452 105.836 91.316 104.708 91.972C104.676 91.908 104.624 91.832 104.552 91.744C104.48 91.664 104.404 91.58 104.324 91.492C104.252 91.404 104.184 91.332 104.12 91.276C105.208 90.708 106.068 89.928 106.7 88.936C107.332 87.936 107.784 86.724 108.056 85.3ZM105.8 85.72C106 86.544 106.272 87.32 106.616 88.048C106.968 88.776 107.396 89.416 107.9 89.968C108.412 90.52 109 90.948 109.664 91.252C109.592 91.308 109.516 91.376 109.436 91.456C109.364 91.544 109.292 91.632 109.22 91.72C109.156 91.808 109.1 91.892 109.052 91.972C108.372 91.612 107.776 91.132 107.264 90.532C106.76 89.932 106.324 89.236 105.956 88.444C105.596 87.652 105.304 86.796 105.08 85.876L105.8 85.72Z" fill="#020057"/>
</g>
<defs>
<filter id="filter0_dd_3871_164790" x="0.8" y="2.38419e-07" width="146.4" height="146.4" filterUnits="userSpaceOnUse" color-interpolation-filters="sRGB">
<feFlood flood-opacity="0" result="BackgroundImageFix"/>
<feColorMatrix in="SourceAlpha" type="matrix" values="0 0 0 0 0 0 0 0 0 0 0 0 0 0 0 0 0 0 127 0" result="hardAlpha"/>
<feOffset dy="3.2"/>
<feGaussianBlur stdDeviation="3.6"/>
<feColorMatrix type="matrix" values="0 0 0 0 0.513726 0 0 0 0 0.494118 0 0 0 0 1 0 0 0 0.12 0"/>
<feBlend mode="normal" in2="BackgroundImageFix" result="effect1_dropShadow_3871_164790"/>
<feColorMatrix in="SourceAlpha" type="matrix" values="0 0 0 0 0 0 0 0 0 0 0 0 0 0 0 0 0 0 127 0" result="hardAlpha"/>
<feOffset dy="0.6"/>
<feGaussianBlur stdDeviation="0.9"/>
<feColorMatrix type="matrix" values="0 0 0 0 0.513726 0 0 0 0 0.494118 0 0 0 0 1 0 0 0 0.1 0"/>
<feBlend mode="normal" in2="effect1_dropShadow_3871_164790" result="effect2_dropShadow_3871_164790"/>
<feBlend mode="normal" in="SourceGraphic" in2="effect2_dropShadow_3871_164790" result="shape"/>
</filter>
</defs>
</svg>
