<svg width="100%" viewBox="0 0 148 147" fill="none" xmlns="http://www.w3.org/2000/svg">
<g filter="url(#filter0_dd_3871_164795)">
<rect x="8" y="4" width="132" height="132" fill="#FBFBFE"/>
<rect x="8.5" y="4.5" width="131" height="131" stroke="#827DFF" stroke-dasharray="4 4"/>
<rect width="100" height="64" transform="translate(24 38)" fill="#FBFBFE"/>
<path d="M64.2197 48.2197C63.9534 48.4859 63.9292 48.9026 64.1471 49.1962L64.2197 49.2803L68.2542 53.3149C66.3322 54.6644 64.8958 56.6799 64.2989 59.0644C64.1983 59.4662 64.4425 59.8735 64.8443 59.9741C65.2461 60.0746 65.6534 59.8305 65.754 59.4286C66.2835 57.3135 67.5911 55.5395 69.3342 54.3945L71.1438 56.2043C70.4363 56.9258 70 57.9143 70 59.0046C70 61.2138 71.7909 63.0046 74 63.0046C75.0904 63.0046 76.0788 62.5683 76.8004 61.8608L82.7197 67.7803C83.0126 68.0732 83.4874 68.0732 83.7803 67.7803C84.0466 67.5141 84.0708 67.0974 83.8529 66.8038L83.7803 66.7197L77.6668 60.6055L77.668 60.604L76.4679 59.4061L73.598 56.5368L73.6 56.536L70.7188 53.6578L70.72 53.656L69.5867 52.5255L65.2803 48.2197C64.9874 47.9268 64.5126 47.9268 64.2197 48.2197ZM72.2041 57.2655L75.7392 60.8006C75.2892 61.2364 74.6759 61.5046 74 61.5046C72.6193 61.5046 71.5 60.3853 71.5 59.0046C71.5 58.3287 71.7682 57.7154 72.2041 57.2655ZM74 51.5C72.9997 51.5 72.0291 51.6481 71.1111 51.925L72.3481 53.1612C72.8839 53.0553 73.4364 53 74 53C77.9231 53 81.3099 55.6803 82.2471 59.4332C82.3475 59.835 82.7546 60.0794 83.1565 59.9791C83.5584 59.8787 83.8028 59.4716 83.7024 59.0697C82.5994 54.6527 78.6155 51.5 74 51.5ZM74.1947 55.0093L77.996 58.81C77.8942 56.7531 76.2472 55.1076 74.1947 55.0093Z" fill="#020057"/>
<path d="M50.996 85.756H51.908V90.388C51.908 90.604 51.944 90.744 52.016 90.808C52.088 90.864 52.24 90.892 52.472 90.892C52.528 90.892 52.624 90.892 52.76 90.892C52.904 90.892 53.06 90.892 53.228 90.892C53.396 90.892 53.552 90.892 53.696 90.892C53.848 90.892 53.96 90.892 54.032 90.892C54.2 90.892 54.324 90.84 54.404 90.736C54.484 90.624 54.54 90.416 54.572 90.112C54.612 89.8 54.636 89.336 54.644 88.72C54.724 88.776 54.812 88.832 54.908 88.888C55.004 88.936 55.104 88.98 55.208 89.02C55.32 89.06 55.416 89.092 55.496 89.116C55.464 89.804 55.404 90.34 55.316 90.724C55.236 91.1 55.1 91.364 54.908 91.516C54.724 91.668 54.456 91.744 54.104 91.744C54.048 91.744 53.936 91.744 53.768 91.744C53.6 91.744 53.42 91.744 53.228 91.744C53.036 91.744 52.856 91.744 52.688 91.744C52.528 91.744 52.42 91.744 52.364 91.744C52.012 91.744 51.732 91.704 51.524 91.624C51.324 91.544 51.184 91.404 51.104 91.204C51.032 91.012 50.996 90.744 50.996 90.4V85.756ZM44.708 85.216H55.304V86.104H44.708V85.216ZM45.764 81.856H54.284V82.72H45.764V81.856ZM47.78 85.9H48.74C48.684 86.572 48.6 87.208 48.488 87.808C48.376 88.408 48.192 88.968 47.936 89.488C47.688 90 47.336 90.464 46.88 90.88C46.432 91.296 45.852 91.644 45.14 91.924C45.092 91.82 45.012 91.696 44.9 91.552C44.788 91.416 44.68 91.308 44.576 91.228C45.232 90.98 45.76 90.672 46.16 90.304C46.568 89.936 46.88 89.524 47.096 89.068C47.32 88.604 47.48 88.108 47.576 87.58C47.672 87.044 47.74 86.484 47.78 85.9ZM61.532 88.684H62.42V91.948H61.532V88.684ZM60.956 85L61.772 85.396C61.444 85.7 61.088 86.008 60.704 86.32C60.328 86.632 59.98 86.892 59.66 87.1L59.024 86.752C59.24 86.6 59.464 86.424 59.696 86.224C59.936 86.016 60.168 85.804 60.392 85.588C60.616 85.372 60.804 85.176 60.956 85ZM63.404 85.636L64.208 86.08C63.8 86.408 63.348 86.752 62.852 87.112C62.364 87.464 61.868 87.8 61.364 88.12C60.868 88.44 60.396 88.72 59.948 88.96L59.36 88.552C59.8 88.304 60.268 88.012 60.764 87.676C61.26 87.34 61.74 86.992 62.204 86.632C62.668 86.272 63.068 85.94 63.404 85.636ZM57.848 86.74L58.436 86.224C58.74 86.36 59.06 86.524 59.396 86.716C59.732 86.9 60.052 87.088 60.356 87.28C60.66 87.464 60.912 87.64 61.112 87.808L60.476 88.384C60.292 88.216 60.052 88.036 59.756 87.844C59.46 87.644 59.144 87.448 58.808 87.256C58.48 87.056 58.16 86.884 57.848 86.74ZM63.836 87.496L64.46 87.016C64.812 87.2 65.172 87.416 65.54 87.664C65.908 87.904 66.256 88.152 66.584 88.408C66.912 88.656 67.18 88.888 67.388 89.104L66.728 89.632C66.528 89.424 66.268 89.192 65.948 88.936C65.628 88.68 65.284 88.428 64.916 88.18C64.548 87.924 64.188 87.696 63.836 87.496ZM63.608 89.908L64.28 89.428C64.616 89.58 64.972 89.756 65.348 89.956C65.724 90.156 66.08 90.36 66.416 90.568C66.752 90.776 67.032 90.972 67.256 91.156L66.548 91.696C66.34 91.52 66.072 91.324 65.744 91.108C65.416 90.892 65.064 90.68 64.688 90.472C64.312 90.256 63.952 90.068 63.608 89.908ZM56.78 88.444C57.34 88.444 57.98 88.44 58.7 88.432C59.428 88.416 60.204 88.404 61.028 88.396C61.86 88.38 62.712 88.364 63.584 88.348C64.464 88.332 65.336 88.312 66.2 88.288L66.152 88.996C65.304 89.012 64.452 89.032 63.596 89.056C62.748 89.08 61.916 89.1 61.1 89.116C60.292 89.132 59.524 89.148 58.796 89.164C58.076 89.18 57.428 89.192 56.852 89.2L56.78 88.444ZM59.492 89.44L60.32 89.752C60.048 90.008 59.736 90.26 59.384 90.508C59.04 90.756 58.68 90.988 58.304 91.204C57.936 91.42 57.576 91.604 57.224 91.756C57.176 91.7 57.108 91.632 57.02 91.552C56.94 91.48 56.856 91.404 56.768 91.324C56.68 91.252 56.6 91.192 56.528 91.144C57.064 90.936 57.6 90.684 58.136 90.388C58.672 90.084 59.124 89.768 59.492 89.44ZM61.532 80.908H62.432V85.168H61.532V80.908ZM57.38 81.796H66.752V82.492H57.38V81.796ZM58.04 83.26H66.044V83.944H58.04V83.26ZM56.744 84.724H67.292V85.444H56.744V84.724ZM69.752 83.74H70.664V89.788C70.664 90.044 70.704 90.24 70.784 90.376C70.872 90.512 71.028 90.608 71.252 90.664C71.484 90.712 71.82 90.736 72.26 90.736C72.38 90.736 72.588 90.736 72.884 90.736C73.18 90.736 73.516 90.736 73.892 90.736C74.276 90.736 74.66 90.736 75.044 90.736C75.436 90.736 75.788 90.736 76.1 90.736C76.42 90.736 76.664 90.736 76.832 90.736C77.16 90.736 77.424 90.704 77.624 90.64C77.832 90.576 77.992 90.46 78.104 90.292C78.216 90.116 78.3 89.876 78.356 89.572C78.42 89.26 78.472 88.864 78.512 88.384C78.592 88.44 78.684 88.492 78.788 88.54C78.9 88.588 79.012 88.632 79.124 88.672C79.236 88.712 79.336 88.74 79.424 88.756C79.368 89.308 79.292 89.768 79.196 90.136C79.1 90.504 78.96 90.796 78.776 91.012C78.6 91.228 78.352 91.384 78.032 91.48C77.72 91.576 77.316 91.624 76.82 91.624C76.74 91.624 76.584 91.624 76.352 91.624C76.128 91.624 75.856 91.624 75.536 91.624C75.224 91.624 74.896 91.624 74.552 91.624C74.208 91.624 73.88 91.624 73.568 91.624C73.256 91.624 72.988 91.624 72.764 91.624C72.54 91.624 72.388 91.624 72.308 91.624C71.66 91.624 71.148 91.572 70.772 91.468C70.396 91.364 70.132 91.18 69.98 90.916C69.828 90.652 69.752 90.272 69.752 89.776V83.74ZM70.244 85.72H77.324V86.608H70.244V85.72ZM69.116 81.664H77.9V87.208H76.964V82.564H69.116V81.664ZM82.868 85.66V89.908H82.016V86.5H80.54V85.66H82.868ZM82.868 89.548C83.156 89.996 83.56 90.328 84.08 90.544C84.608 90.76 85.224 90.884 85.928 90.916C86.272 90.924 86.688 90.932 87.176 90.94C87.664 90.94 88.176 90.94 88.712 90.94C89.256 90.932 89.776 90.92 90.272 90.904C90.776 90.88 91.212 90.856 91.58 90.832C91.548 90.896 91.512 90.98 91.472 91.084C91.432 91.188 91.396 91.292 91.364 91.396C91.34 91.508 91.32 91.608 91.304 91.696C90.96 91.712 90.552 91.724 90.08 91.732C89.616 91.74 89.128 91.744 88.616 91.744C88.112 91.752 87.624 91.752 87.152 91.744C86.688 91.744 86.288 91.736 85.952 91.72C85.152 91.688 84.472 91.56 83.912 91.336C83.352 91.112 82.884 90.76 82.508 90.28C82.252 90.536 81.988 90.796 81.716 91.06C81.444 91.324 81.164 91.592 80.876 91.864L80.408 91C80.664 90.8 80.944 90.572 81.248 90.316C81.552 90.06 81.84 89.804 82.112 89.548H82.868ZM80.6 81.652L81.296 81.196C81.536 81.38 81.776 81.592 82.016 81.832C82.264 82.072 82.488 82.312 82.688 82.552C82.888 82.784 83.044 83 83.156 83.2L82.4 83.716C82.288 83.508 82.136 83.284 81.944 83.044C81.752 82.796 81.54 82.552 81.308 82.312C81.076 82.072 80.84 81.852 80.6 81.652ZM84.572 82.096H91.364V82.852H84.572V82.096ZM84.932 84.292H91.352V85.024H84.932V84.292ZM87.188 80.92H88.064V82.528H87.188V80.92ZM84.104 82.096H84.932V84.688C84.932 85.072 84.916 85.484 84.884 85.924C84.852 86.364 84.792 86.812 84.704 87.268C84.624 87.716 84.504 88.16 84.344 88.6C84.184 89.032 83.972 89.428 83.708 89.788C83.66 89.732 83.592 89.676 83.504 89.62C83.424 89.556 83.34 89.496 83.252 89.44C83.164 89.376 83.088 89.332 83.024 89.308C83.352 88.852 83.592 88.356 83.744 87.82C83.896 87.276 83.992 86.732 84.032 86.188C84.08 85.644 84.104 85.14 84.104 84.676V82.096ZM86.348 83.152H87.152V86.548H89.072V83.152H89.9V87.256H86.348V83.152ZM85.652 87.808L86.312 88.036C86.208 88.444 86.06 88.856 85.868 89.272C85.684 89.68 85.424 90.012 85.088 90.268L84.476 89.872C84.772 89.64 85.02 89.336 85.22 88.96C85.42 88.584 85.564 88.2 85.652 87.808ZM86.816 88.012L87.476 87.964C87.548 88.3 87.6 88.664 87.632 89.056C87.664 89.448 87.68 89.784 87.68 90.064L86.972 90.112C86.98 89.832 86.968 89.496 86.936 89.104C86.912 88.712 86.872 88.348 86.816 88.012ZM88.172 88.06L88.82 87.904C88.964 88.232 89.1 88.588 89.228 88.972C89.356 89.356 89.44 89.684 89.48 89.956L88.808 90.136C88.76 89.856 88.672 89.524 88.544 89.14C88.424 88.748 88.3 88.388 88.172 88.06ZM89.612 87.964L90.236 87.712C90.404 87.936 90.572 88.18 90.74 88.444C90.908 88.708 91.056 88.968 91.184 89.224C91.32 89.48 91.424 89.708 91.496 89.908L90.812 90.208C90.748 90 90.652 89.768 90.524 89.512C90.396 89.248 90.252 88.98 90.092 88.708C89.932 88.436 89.772 88.188 89.612 87.964ZM99.776 82.072V83.212H101.792V82.072H99.776ZM96.956 82.072V83.212H98.936V82.072H96.956ZM94.208 82.072V83.212H96.128V82.072H94.208ZM93.344 81.388H102.692V83.896H93.344V81.388ZM94.7 87.808V88.576H101.288V87.808H94.7ZM94.7 86.44V87.184H101.288V86.44H94.7ZM93.824 85.792H102.188V89.212H93.824V85.792ZM97.808 84.508H102.812V85.156H97.808V84.508ZM92.66 89.944H103.34V90.664H92.66V89.944ZM97.412 83.68H98.312V86.14H97.412V83.68ZM97.52 88.72H98.432V91.948H97.52V88.72Z" fill="#020057"/>
</g>
<defs>
<filter id="filter0_dd_3871_164795" x="0.8" y="2.38419e-07" width="146.4" height="146.4" filterUnits="userSpaceOnUse" color-interpolation-filters="sRGB">
<feFlood flood-opacity="0" result="BackgroundImageFix"/>
<feColorMatrix in="SourceAlpha" type="matrix" values="0 0 0 0 0 0 0 0 0 0 0 0 0 0 0 0 0 0 127 0" result="hardAlpha"/>
<feOffset dy="3.2"/>
<feGaussianBlur stdDeviation="3.6"/>
<feColorMatrix type="matrix" values="0 0 0 0 0.513726 0 0 0 0 0.494118 0 0 0 0 1 0 0 0 0.12 0"/>
<feBlend mode="normal" in2="BackgroundImageFix" result="effect1_dropShadow_3871_164795"/>
<feColorMatrix in="SourceAlpha" type="matrix" values="0 0 0 0 0 0 0 0 0 0 0 0 0 0 0 0 0 0 127 0" result="hardAlpha"/>
<feOffset dy="0.6"/>
<feGaussianBlur stdDeviation="0.9"/>
<feColorMatrix type="matrix" values="0 0 0 0 0.513726 0 0 0 0 0.494118 0 0 0 0 1 0 0 0 0.1 0"/>
<feBlend mode="normal" in2="effect1_dropShadow_3871_164795" result="effect2_dropShadow_3871_164795"/>
<feBlend mode="normal" in="SourceGraphic" in2="effect2_dropShadow_3871_164795" result="shape"/>
</filter>
</defs>
</svg>
