<svg width="100%" viewBox="0 0 100 64" fill="none" xmlns="http://www.w3.org/2000/svg">
<rect width="100" height="64" fill="#FBFBFE"/>
<path d="M40.2197 10.2197C39.9534 10.4859 39.9292 10.9026 40.1471 11.1962L40.2197 11.2803L44.2542 15.3149C42.3322 16.6644 40.8958 18.6799 40.2989 21.0644C40.1983 21.4662 40.4425 21.8735 40.8443 21.9741C41.2461 22.0746 41.6534 21.8305 41.754 21.4286C42.2835 19.3135 43.5911 17.5395 45.3342 16.3945L47.1438 18.2043C46.4363 18.9258 46 19.9143 46 21.0046C46 23.2138 47.7909 25.0046 50 25.0046C51.0904 25.0046 52.0788 24.5683 52.8004 23.8608L58.7197 29.7803C59.0126 30.0732 59.4874 30.0732 59.7803 29.7803C60.0466 29.5141 60.0708 29.0974 59.8529 28.8038L59.7803 28.7197L53.6668 22.6055L53.668 22.604L52.4679 21.4061L49.598 18.5368L49.6 18.536L46.7188 15.6578L46.72 15.656L45.5867 14.5255L41.2803 10.2197C40.9874 9.92678 40.5126 9.92678 40.2197 10.2197ZM48.2041 19.2655L51.7392 22.8006C51.2892 23.2364 50.6759 23.5046 50 23.5046C48.6193 23.5046 47.5 22.3853 47.5 21.0046C47.5 20.3287 47.7682 19.7154 48.2041 19.2655ZM50 13.5C48.9997 13.5 48.0291 13.6481 47.1111 13.925L48.3481 15.1612C48.8839 15.0553 49.4364 15 50 15C53.9231 15 57.3099 17.6803 58.2471 21.4332C58.3475 21.835 58.7546 22.0794 59.1565 21.9791C59.5584 21.8787 59.8028 21.4716 59.7024 21.0697C58.5994 16.6527 54.6155 13.5 50 13.5ZM50.1947 17.0093L53.996 20.81C53.8942 18.7531 52.2472 17.1076 50.1947 17.0093Z" fill="#020057"/>
<path d="M26.996 47.756H27.908V52.388C27.908 52.604 27.944 52.744 28.016 52.808C28.088 52.864 28.24 52.892 28.472 52.892C28.528 52.892 28.624 52.892 28.76 52.892C28.904 52.892 29.06 52.892 29.228 52.892C29.396 52.892 29.552 52.892 29.696 52.892C29.848 52.892 29.96 52.892 30.032 52.892C30.2 52.892 30.324 52.84 30.404 52.736C30.484 52.624 30.54 52.416 30.572 52.112C30.612 51.8 30.636 51.336 30.644 50.72C30.724 50.776 30.812 50.832 30.908 50.888C31.004 50.936 31.104 50.98 31.208 51.02C31.32 51.06 31.416 51.092 31.496 51.116C31.464 51.804 31.404 52.34 31.316 52.724C31.236 53.1 31.1 53.364 30.908 53.516C30.724 53.668 30.456 53.744 30.104 53.744C30.048 53.744 29.936 53.744 29.768 53.744C29.6 53.744 29.42 53.744 29.228 53.744C29.036 53.744 28.856 53.744 28.688 53.744C28.528 53.744 28.42 53.744 28.364 53.744C28.012 53.744 27.732 53.704 27.524 53.624C27.324 53.544 27.184 53.404 27.104 53.204C27.032 53.012 26.996 52.744 26.996 52.4V47.756ZM20.708 47.216H31.304V48.104H20.708V47.216ZM21.764 43.856H30.284V44.72H21.764V43.856ZM23.78 47.9H24.74C24.684 48.572 24.6 49.208 24.488 49.808C24.376 50.408 24.192 50.968 23.936 51.488C23.688 52 23.336 52.464 22.88 52.88C22.432 53.296 21.852 53.644 21.14 53.924C21.092 53.82 21.012 53.696 20.9 53.552C20.788 53.416 20.68 53.308 20.576 53.228C21.232 52.98 21.76 52.672 22.16 52.304C22.568 51.936 22.88 51.524 23.096 51.068C23.32 50.604 23.48 50.108 23.576 49.58C23.672 49.044 23.74 48.484 23.78 47.9ZM37.532 50.684H38.42V53.948H37.532V50.684ZM36.956 47L37.772 47.396C37.444 47.7 37.088 48.008 36.704 48.32C36.328 48.632 35.98 48.892 35.66 49.1L35.024 48.752C35.24 48.6 35.464 48.424 35.696 48.224C35.936 48.016 36.168 47.804 36.392 47.588C36.616 47.372 36.804 47.176 36.956 47ZM39.404 47.636L40.208 48.08C39.8 48.408 39.348 48.752 38.852 49.112C38.364 49.464 37.868 49.8 37.364 50.12C36.868 50.44 36.396 50.72 35.948 50.96L35.36 50.552C35.8 50.304 36.268 50.012 36.764 49.676C37.26 49.34 37.74 48.992 38.204 48.632C38.668 48.272 39.068 47.94 39.404 47.636ZM33.848 48.74L34.436 48.224C34.74 48.36 35.06 48.524 35.396 48.716C35.732 48.9 36.052 49.088 36.356 49.28C36.66 49.464 36.912 49.64 37.112 49.808L36.476 50.384C36.292 50.216 36.052 50.036 35.756 49.844C35.46 49.644 35.144 49.448 34.808 49.256C34.48 49.056 34.16 48.884 33.848 48.74ZM39.836 49.496L40.46 49.016C40.812 49.2 41.172 49.416 41.54 49.664C41.908 49.904 42.256 50.152 42.584 50.408C42.912 50.656 43.18 50.888 43.388 51.104L42.728 51.632C42.528 51.424 42.268 51.192 41.948 50.936C41.628 50.68 41.284 50.428 40.916 50.18C40.548 49.924 40.188 49.696 39.836 49.496ZM39.608 51.908L40.28 51.428C40.616 51.58 40.972 51.756 41.348 51.956C41.724 52.156 42.08 52.36 42.416 52.568C42.752 52.776 43.032 52.972 43.256 53.156L42.548 53.696C42.34 53.52 42.072 53.324 41.744 53.108C41.416 52.892 41.064 52.68 40.688 52.472C40.312 52.256 39.952 52.068 39.608 51.908ZM32.78 50.444C33.34 50.444 33.98 50.44 34.7 50.432C35.428 50.416 36.204 50.404 37.028 50.396C37.86 50.38 38.712 50.364 39.584 50.348C40.464 50.332 41.336 50.312 42.2 50.288L42.152 50.996C41.304 51.012 40.452 51.032 39.596 51.056C38.748 51.08 37.916 51.1 37.1 51.116C36.292 51.132 35.524 51.148 34.796 51.164C34.076 51.18 33.428 51.192 32.852 51.2L32.78 50.444ZM35.492 51.44L36.32 51.752C36.048 52.008 35.736 52.26 35.384 52.508C35.04 52.756 34.68 52.988 34.304 53.204C33.936 53.42 33.576 53.604 33.224 53.756C33.176 53.7 33.108 53.632 33.02 53.552C32.94 53.48 32.856 53.404 32.768 53.324C32.68 53.252 32.6 53.192 32.528 53.144C33.064 52.936 33.6 52.684 34.136 52.388C34.672 52.084 35.124 51.768 35.492 51.44ZM37.532 42.908H38.432V47.168H37.532V42.908ZM33.38 43.796H42.752V44.492H33.38V43.796ZM34.04 45.26H42.044V45.944H34.04V45.26ZM32.744 46.724H43.292V47.444H32.744V46.724ZM45.752 45.74H46.664V51.788C46.664 52.044 46.704 52.24 46.784 52.376C46.872 52.512 47.028 52.608 47.252 52.664C47.484 52.712 47.82 52.736 48.26 52.736C48.38 52.736 48.588 52.736 48.884 52.736C49.18 52.736 49.516 52.736 49.892 52.736C50.276 52.736 50.66 52.736 51.044 52.736C51.436 52.736 51.788 52.736 52.1 52.736C52.42 52.736 52.664 52.736 52.832 52.736C53.16 52.736 53.424 52.704 53.624 52.64C53.832 52.576 53.992 52.46 54.104 52.292C54.216 52.116 54.3 51.876 54.356 51.572C54.42 51.26 54.472 50.864 54.512 50.384C54.592 50.44 54.684 50.492 54.788 50.54C54.9 50.588 55.012 50.632 55.124 50.672C55.236 50.712 55.336 50.74 55.424 50.756C55.368 51.308 55.292 51.768 55.196 52.136C55.1 52.504 54.96 52.796 54.776 53.012C54.6 53.228 54.352 53.384 54.032 53.48C53.72 53.576 53.316 53.624 52.82 53.624C52.74 53.624 52.584 53.624 52.352 53.624C52.128 53.624 51.856 53.624 51.536 53.624C51.224 53.624 50.896 53.624 50.552 53.624C50.208 53.624 49.88 53.624 49.568 53.624C49.256 53.624 48.988 53.624 48.764 53.624C48.54 53.624 48.388 53.624 48.308 53.624C47.66 53.624 47.148 53.572 46.772 53.468C46.396 53.364 46.132 53.18 45.98 52.916C45.828 52.652 45.752 52.272 45.752 51.776V45.74ZM46.244 47.72H53.324V48.608H46.244V47.72ZM45.116 43.664H53.9V49.208H52.964V44.564H45.116V43.664ZM58.868 47.66V51.908H58.016V48.5H56.54V47.66H58.868ZM58.868 51.548C59.156 51.996 59.56 52.328 60.08 52.544C60.608 52.76 61.224 52.884 61.928 52.916C62.272 52.924 62.688 52.932 63.176 52.94C63.664 52.94 64.176 52.94 64.712 52.94C65.256 52.932 65.776 52.92 66.272 52.904C66.776 52.88 67.212 52.856 67.58 52.832C67.548 52.896 67.512 52.98 67.472 53.084C67.432 53.188 67.396 53.292 67.364 53.396C67.34 53.508 67.32 53.608 67.304 53.696C66.96 53.712 66.552 53.724 66.08 53.732C65.616 53.74 65.128 53.744 64.616 53.744C64.112 53.752 63.624 53.752 63.152 53.744C62.688 53.744 62.288 53.736 61.952 53.72C61.152 53.688 60.472 53.56 59.912 53.336C59.352 53.112 58.884 52.76 58.508 52.28C58.252 52.536 57.988 52.796 57.716 53.06C57.444 53.324 57.164 53.592 56.876 53.864L56.408 53C56.664 52.8 56.944 52.572 57.248 52.316C57.552 52.06 57.84 51.804 58.112 51.548H58.868ZM56.6 43.652L57.296 43.196C57.536 43.38 57.776 43.592 58.016 43.832C58.264 44.072 58.488 44.312 58.688 44.552C58.888 44.784 59.044 45 59.156 45.2L58.4 45.716C58.288 45.508 58.136 45.284 57.944 45.044C57.752 44.796 57.54 44.552 57.308 44.312C57.076 44.072 56.84 43.852 56.6 43.652ZM60.572 44.096H67.364V44.852H60.572V44.096ZM60.932 46.292H67.352V47.024H60.932V46.292ZM63.188 42.92H64.064V44.528H63.188V42.92ZM60.104 44.096H60.932V46.688C60.932 47.072 60.916 47.484 60.884 47.924C60.852 48.364 60.792 48.812 60.704 49.268C60.624 49.716 60.504 50.16 60.344 50.6C60.184 51.032 59.972 51.428 59.708 51.788C59.66 51.732 59.592 51.676 59.504 51.62C59.424 51.556 59.34 51.496 59.252 51.44C59.164 51.376 59.088 51.332 59.024 51.308C59.352 50.852 59.592 50.356 59.744 49.82C59.896 49.276 59.992 48.732 60.032 48.188C60.08 47.644 60.104 47.14 60.104 46.676V44.096ZM62.348 45.152H63.152V48.548H65.072V45.152H65.9V49.256H62.348V45.152ZM61.652 49.808L62.312 50.036C62.208 50.444 62.06 50.856 61.868 51.272C61.684 51.68 61.424 52.012 61.088 52.268L60.476 51.872C60.772 51.64 61.02 51.336 61.22 50.96C61.42 50.584 61.564 50.2 61.652 49.808ZM62.816 50.012L63.476 49.964C63.548 50.3 63.6 50.664 63.632 51.056C63.664 51.448 63.68 51.784 63.68 52.064L62.972 52.112C62.98 51.832 62.968 51.496 62.936 51.104C62.912 50.712 62.872 50.348 62.816 50.012ZM64.172 50.06L64.82 49.904C64.964 50.232 65.1 50.588 65.228 50.972C65.356 51.356 65.44 51.684 65.48 51.956L64.808 52.136C64.76 51.856 64.672 51.524 64.544 51.14C64.424 50.748 64.3 50.388 64.172 50.06ZM65.612 49.964L66.236 49.712C66.404 49.936 66.572 50.18 66.74 50.444C66.908 50.708 67.056 50.968 67.184 51.224C67.32 51.48 67.424 51.708 67.496 51.908L66.812 52.208C66.748 52 66.652 51.768 66.524 51.512C66.396 51.248 66.252 50.98 66.092 50.708C65.932 50.436 65.772 50.188 65.612 49.964ZM75.776 44.072V45.212H77.792V44.072H75.776ZM72.956 44.072V45.212H74.936V44.072H72.956ZM70.208 44.072V45.212H72.128V44.072H70.208ZM69.344 43.388H78.692V45.896H69.344V43.388ZM70.7 49.808V50.576H77.288V49.808H70.7ZM70.7 48.44V49.184H77.288V48.44H70.7ZM69.824 47.792H78.188V51.212H69.824V47.792ZM73.808 46.508H78.812V47.156H73.808V46.508ZM68.66 51.944H79.34V52.664H68.66V51.944ZM73.412 45.68H74.312V48.14H73.412V45.68ZM73.52 50.72H74.432V53.948H73.52V50.72Z" fill="#020057"/>
</svg>
