<svg width="100%" viewBox="0 0 100 64" fill="none" xmlns="http://www.w3.org/2000/svg">
<rect width="100" height="64" fill="#FBFBFE"/>
<path d="M40.2197 10.2197C39.9534 10.4859 39.9292 10.9026 40.1471 11.1962L40.2197 11.2803L44.2542 15.3149C42.3322 16.6644 40.8958 18.6799 40.2989 21.0644C40.1983 21.4662 40.4425 21.8735 40.8443 21.9741C41.2461 22.0746 41.6534 21.8305 41.754 21.4286C42.2835 19.3135 43.5911 17.5395 45.3342 16.3945L47.1438 18.2043C46.4363 18.9258 46 19.9143 46 21.0046C46 23.2138 47.7909 25.0046 50 25.0046C51.0904 25.0046 52.0788 24.5683 52.8004 23.8608L58.7197 29.7803C59.0126 30.0732 59.4874 30.0732 59.7803 29.7803C60.0466 29.5141 60.0708 29.0974 59.8529 28.8038L59.7803 28.7197L53.6668 22.6055L53.668 22.604L52.4679 21.4061L49.598 18.5368L49.6 18.536L46.7188 15.6578L46.72 15.656L45.5867 14.5255L41.2803 10.2197C40.9874 9.92678 40.5126 9.92678 40.2197 10.2197ZM48.2041 19.2655L51.7392 22.8006C51.2892 23.2364 50.6759 23.5046 50 23.5046C48.6193 23.5046 47.5 22.3853 47.5 21.0046C47.5 20.3287 47.7682 19.7154 48.2041 19.2655ZM50 13.5C48.9997 13.5 48.0291 13.6481 47.1111 13.925L48.3481 15.1612C48.8839 15.0553 49.4364 15 50 15C53.9231 15 57.3099 17.6803 58.2471 21.4332C58.3475 21.835 58.7546 22.0794 59.1565 21.9791C59.5584 21.8787 59.8028 21.4716 59.7024 21.0697C58.5994 16.6527 54.6155 13.5 50 13.5ZM50.1947 17.0093L53.996 20.81C53.8942 18.7531 52.2472 17.1076 50.1947 17.0093Z" fill="#020057"/>
<path d="M20.996 47.756H21.908V52.388C21.908 52.604 21.944 52.744 22.016 52.808C22.088 52.864 22.24 52.892 22.472 52.892C22.528 52.892 22.624 52.892 22.76 52.892C22.904 52.892 23.06 52.892 23.228 52.892C23.396 52.892 23.552 52.892 23.696 52.892C23.848 52.892 23.96 52.892 24.032 52.892C24.2 52.892 24.324 52.84 24.404 52.736C24.484 52.624 24.54 52.416 24.572 52.112C24.612 51.8 24.636 51.336 24.644 50.72C24.724 50.776 24.812 50.832 24.908 50.888C25.004 50.936 25.104 50.98 25.208 51.02C25.32 51.06 25.416 51.092 25.496 51.116C25.464 51.804 25.404 52.34 25.316 52.724C25.236 53.1 25.1 53.364 24.908 53.516C24.724 53.668 24.456 53.744 24.104 53.744C24.048 53.744 23.936 53.744 23.768 53.744C23.6 53.744 23.42 53.744 23.228 53.744C23.036 53.744 22.856 53.744 22.688 53.744C22.528 53.744 22.42 53.744 22.364 53.744C22.012 53.744 21.732 53.704 21.524 53.624C21.324 53.544 21.184 53.404 21.104 53.204C21.032 53.012 20.996 52.744 20.996 52.4V47.756ZM14.708 47.216H25.304V48.104H14.708V47.216ZM15.764 43.856H24.284V44.72H15.764V43.856ZM17.78 47.9H18.74C18.684 48.572 18.6 49.208 18.488 49.808C18.376 50.408 18.192 50.968 17.936 51.488C17.688 52 17.336 52.464 16.88 52.88C16.432 53.296 15.852 53.644 15.14 53.924C15.092 53.82 15.012 53.696 14.9 53.552C14.788 53.416 14.68 53.308 14.576 53.228C15.232 52.98 15.76 52.672 16.16 52.304C16.568 51.936 16.88 51.524 17.096 51.068C17.32 50.604 17.48 50.108 17.576 49.58C17.672 49.044 17.74 48.484 17.78 47.9ZM31.532 50.684H32.42V53.948H31.532V50.684ZM30.956 47L31.772 47.396C31.444 47.7 31.088 48.008 30.704 48.32C30.328 48.632 29.98 48.892 29.66 49.1L29.024 48.752C29.24 48.6 29.464 48.424 29.696 48.224C29.936 48.016 30.168 47.804 30.392 47.588C30.616 47.372 30.804 47.176 30.956 47ZM33.404 47.636L34.208 48.08C33.8 48.408 33.348 48.752 32.852 49.112C32.364 49.464 31.868 49.8 31.364 50.12C30.868 50.44 30.396 50.72 29.948 50.96L29.36 50.552C29.8 50.304 30.268 50.012 30.764 49.676C31.26 49.34 31.74 48.992 32.204 48.632C32.668 48.272 33.068 47.94 33.404 47.636ZM27.848 48.74L28.436 48.224C28.74 48.36 29.06 48.524 29.396 48.716C29.732 48.9 30.052 49.088 30.356 49.28C30.66 49.464 30.912 49.64 31.112 49.808L30.476 50.384C30.292 50.216 30.052 50.036 29.756 49.844C29.46 49.644 29.144 49.448 28.808 49.256C28.48 49.056 28.16 48.884 27.848 48.74ZM33.836 49.496L34.46 49.016C34.812 49.2 35.172 49.416 35.54 49.664C35.908 49.904 36.256 50.152 36.584 50.408C36.912 50.656 37.18 50.888 37.388 51.104L36.728 51.632C36.528 51.424 36.268 51.192 35.948 50.936C35.628 50.68 35.284 50.428 34.916 50.18C34.548 49.924 34.188 49.696 33.836 49.496ZM33.608 51.908L34.28 51.428C34.616 51.58 34.972 51.756 35.348 51.956C35.724 52.156 36.08 52.36 36.416 52.568C36.752 52.776 37.032 52.972 37.256 53.156L36.548 53.696C36.34 53.52 36.072 53.324 35.744 53.108C35.416 52.892 35.064 52.68 34.688 52.472C34.312 52.256 33.952 52.068 33.608 51.908ZM26.78 50.444C27.34 50.444 27.98 50.44 28.7 50.432C29.428 50.416 30.204 50.404 31.028 50.396C31.86 50.38 32.712 50.364 33.584 50.348C34.464 50.332 35.336 50.312 36.2 50.288L36.152 50.996C35.304 51.012 34.452 51.032 33.596 51.056C32.748 51.08 31.916 51.1 31.1 51.116C30.292 51.132 29.524 51.148 28.796 51.164C28.076 51.18 27.428 51.192 26.852 51.2L26.78 50.444ZM29.492 51.44L30.32 51.752C30.048 52.008 29.736 52.26 29.384 52.508C29.04 52.756 28.68 52.988 28.304 53.204C27.936 53.42 27.576 53.604 27.224 53.756C27.176 53.7 27.108 53.632 27.02 53.552C26.94 53.48 26.856 53.404 26.768 53.324C26.68 53.252 26.6 53.192 26.528 53.144C27.064 52.936 27.6 52.684 28.136 52.388C28.672 52.084 29.124 51.768 29.492 51.44ZM31.532 42.908H32.432V47.168H31.532V42.908ZM27.38 43.796H36.752V44.492H27.38V43.796ZM28.04 45.26H36.044V45.944H28.04V45.26ZM26.744 46.724H37.292V47.444H26.744V46.724ZM39.752 45.74H40.664V51.788C40.664 52.044 40.704 52.24 40.784 52.376C40.872 52.512 41.028 52.608 41.252 52.664C41.484 52.712 41.82 52.736 42.26 52.736C42.38 52.736 42.588 52.736 42.884 52.736C43.18 52.736 43.516 52.736 43.892 52.736C44.276 52.736 44.66 52.736 45.044 52.736C45.436 52.736 45.788 52.736 46.1 52.736C46.42 52.736 46.664 52.736 46.832 52.736C47.16 52.736 47.424 52.704 47.624 52.64C47.832 52.576 47.992 52.46 48.104 52.292C48.216 52.116 48.3 51.876 48.356 51.572C48.42 51.26 48.472 50.864 48.512 50.384C48.592 50.44 48.684 50.492 48.788 50.54C48.9 50.588 49.012 50.632 49.124 50.672C49.236 50.712 49.336 50.74 49.424 50.756C49.368 51.308 49.292 51.768 49.196 52.136C49.1 52.504 48.96 52.796 48.776 53.012C48.6 53.228 48.352 53.384 48.032 53.48C47.72 53.576 47.316 53.624 46.82 53.624C46.74 53.624 46.584 53.624 46.352 53.624C46.128 53.624 45.856 53.624 45.536 53.624C45.224 53.624 44.896 53.624 44.552 53.624C44.208 53.624 43.88 53.624 43.568 53.624C43.256 53.624 42.988 53.624 42.764 53.624C42.54 53.624 42.388 53.624 42.308 53.624C41.66 53.624 41.148 53.572 40.772 53.468C40.396 53.364 40.132 53.18 39.98 52.916C39.828 52.652 39.752 52.272 39.752 51.776V45.74ZM40.244 47.72H47.324V48.608H40.244V47.72ZM39.116 43.664H47.9V49.208H46.964V44.564H39.116V43.664ZM55.688 47.66H60.308V48.452H55.688V47.66ZM55.664 44.78H60.86V45.608H55.664V44.78ZM57.884 42.932H58.772V48.128H57.884V42.932ZM55.292 44.78H56.144V47.684C56.144 48.148 56.124 48.652 56.084 49.196C56.044 49.74 55.972 50.296 55.868 50.864C55.772 51.424 55.624 51.972 55.424 52.508C55.232 53.044 54.972 53.532 54.644 53.972C54.596 53.924 54.528 53.868 54.44 53.804C54.352 53.748 54.26 53.692 54.164 53.636C54.068 53.58 53.984 53.536 53.912 53.504C54.232 53.08 54.48 52.62 54.656 52.124C54.84 51.628 54.976 51.124 55.064 50.612C55.16 50.092 55.22 49.58 55.244 49.076C55.276 48.572 55.292 48.104 55.292 47.672V44.78ZM56.936 48.068C57.304 49.308 57.88 50.38 58.664 51.284C59.448 52.188 60.444 52.828 61.652 53.204C61.58 53.268 61.504 53.344 61.424 53.432C61.352 53.528 61.28 53.624 61.208 53.72C61.144 53.816 61.088 53.908 61.04 53.996C59.784 53.532 58.756 52.808 57.956 51.824C57.164 50.84 56.564 49.656 56.156 48.272L56.936 48.068ZM60.596 44.78H60.728L60.884 44.744L61.508 44.888C61.412 45.304 61.296 45.732 61.16 46.172C61.032 46.612 60.904 46.984 60.776 47.288L60.008 47.12C60.112 46.848 60.22 46.504 60.332 46.088C60.444 45.672 60.532 45.284 60.596 44.924V44.78ZM60.116 47.66H60.284L60.44 47.612L61.016 47.828C60.768 48.908 60.4 49.848 59.912 50.648C59.424 51.448 58.848 52.124 58.184 52.676C57.52 53.22 56.804 53.652 56.036 53.972C55.996 53.892 55.944 53.804 55.88 53.708C55.824 53.62 55.764 53.532 55.7 53.444C55.636 53.364 55.568 53.292 55.496 53.228C56.208 52.972 56.872 52.596 57.488 52.1C58.112 51.596 58.652 50.984 59.108 50.264C59.572 49.544 59.908 48.728 60.116 47.816V47.66ZM52.244 48.812L53.096 47.792V53.972H52.244V48.812ZM50.588 45.152H54.116V45.968H50.588V45.152ZM52.208 42.956H53.06V45.608H52.208V42.956ZM53 47.804C53.088 47.884 53.216 48.024 53.384 48.224C53.56 48.416 53.744 48.628 53.936 48.86C54.136 49.092 54.316 49.308 54.476 49.508C54.644 49.708 54.764 49.852 54.836 49.94L54.296 50.552C54.208 50.408 54.084 50.228 53.924 50.012C53.772 49.796 53.604 49.568 53.42 49.328C53.244 49.088 53.072 48.868 52.904 48.668C52.744 48.468 52.616 48.312 52.52 48.2L53 47.804ZM53.9 45.152H54.08L54.236 45.116L54.716 45.44C54.444 46.136 54.096 46.812 53.672 47.468C53.248 48.116 52.784 48.712 52.28 49.256C51.776 49.792 51.272 50.244 50.768 50.612C50.736 50.532 50.692 50.44 50.636 50.336C50.588 50.232 50.532 50.136 50.468 50.048C50.412 49.952 50.356 49.876 50.3 49.82C50.78 49.5 51.252 49.104 51.716 48.632C52.188 48.152 52.616 47.628 53 47.06C53.384 46.492 53.684 45.916 53.9 45.332V45.152ZM54.488 47.3L55.052 47.708C54.868 47.964 54.672 48.224 54.464 48.488C54.256 48.752 54.064 48.976 53.888 49.16L53.432 48.824C53.544 48.688 53.664 48.532 53.792 48.356C53.928 48.172 54.056 47.988 54.176 47.804C54.304 47.612 54.408 47.444 54.488 47.3ZM63.692 43.496H64.592V47.024C64.592 47.528 64.576 48.08 64.544 48.68C64.512 49.28 64.448 49.892 64.352 50.516C64.256 51.14 64.112 51.748 63.92 52.34C63.736 52.932 63.488 53.476 63.176 53.972C63.112 53.924 63.032 53.868 62.936 53.804C62.84 53.748 62.74 53.692 62.636 53.636C62.54 53.58 62.452 53.536 62.372 53.504C62.676 53.032 62.916 52.52 63.092 51.968C63.268 51.416 63.396 50.852 63.476 50.276C63.564 49.692 63.62 49.124 63.644 48.572C63.676 48.02 63.692 47.504 63.692 47.024V43.496ZM64.22 43.496H72.62V46.364H64.22V45.572H71.72V44.276H64.22V43.496ZM64.676 50.372H73.352V51.152H64.676V50.372ZM65.024 47.948H73.028V48.716H65.024V47.948ZM70.112 48.176H70.988V53.972H70.112V48.176ZM66.908 48.2H67.772V49.916C67.772 50.284 67.744 50.656 67.688 51.032C67.632 51.408 67.516 51.776 67.34 52.136C67.164 52.488 66.904 52.82 66.56 53.132C66.216 53.444 65.756 53.732 65.18 53.996C65.14 53.924 65.084 53.848 65.012 53.768C64.94 53.688 64.868 53.604 64.796 53.516C64.724 53.436 64.652 53.376 64.58 53.336C65.108 53.104 65.524 52.852 65.828 52.58C66.14 52.308 66.372 52.024 66.524 51.728C66.684 51.432 66.788 51.132 66.836 50.828C66.884 50.516 66.908 50.208 66.908 49.904V48.2ZM66.176 46.628L66.956 46.376C67.148 46.592 67.328 46.836 67.496 47.108C67.664 47.372 67.784 47.608 67.856 47.816L67.028 48.092C66.972 47.884 66.86 47.644 66.692 47.372C66.532 47.1 66.36 46.852 66.176 46.628ZM70.904 46.292L71.792 46.568C71.632 46.832 71.46 47.1 71.276 47.372C71.092 47.636 70.924 47.86 70.772 48.044L70.004 47.804C70.108 47.668 70.216 47.512 70.328 47.336C70.44 47.152 70.548 46.968 70.652 46.784C70.756 46.6 70.84 46.436 70.904 46.292ZM74.6 43.748H85.424V44.552H74.6V43.748ZM77.528 42.92H78.416V45.416H77.528V42.92ZM81.548 42.92H82.436V45.428H81.548V42.92ZM75.032 47.948H79.808V48.644H75.74V53.96H75.032V47.948ZM79.424 47.948H80.144V53.132C80.144 53.316 80.124 53.464 80.084 53.576C80.052 53.688 79.976 53.776 79.856 53.84C79.736 53.896 79.584 53.928 79.4 53.936C79.224 53.952 79.008 53.96 78.752 53.96C78.744 53.864 78.716 53.748 78.668 53.612C78.628 53.484 78.58 53.368 78.524 53.264C78.7 53.272 78.856 53.276 78.992 53.276C79.136 53.276 79.232 53.276 79.28 53.276C79.376 53.276 79.424 53.228 79.424 53.132V47.948ZM76.316 49.268L76.856 49.352C76.816 49.912 76.748 50.46 76.652 50.996C76.564 51.532 76.436 51.992 76.268 52.376C76.228 52.344 76.156 52.3 76.052 52.244C75.956 52.18 75.868 52.136 75.788 52.112C75.964 51.736 76.088 51.3 76.16 50.804C76.232 50.308 76.284 49.796 76.316 49.268ZM75.848 45.896L76.58 46.088C76.388 46.48 76.152 46.872 75.872 47.264C75.6 47.648 75.324 47.972 75.044 48.236C74.996 48.196 74.932 48.148 74.852 48.092C74.78 48.028 74.7 47.972 74.612 47.924C74.532 47.868 74.464 47.824 74.408 47.792C74.696 47.536 74.964 47.244 75.212 46.916C75.468 46.58 75.68 46.24 75.848 45.896ZM78.536 46.136L79.16 45.824C79.344 46.008 79.528 46.208 79.712 46.424C79.896 46.64 80.064 46.856 80.216 47.072C80.376 47.28 80.496 47.472 80.576 47.648L79.928 48.02C79.792 47.764 79.592 47.46 79.328 47.108C79.072 46.748 78.808 46.424 78.536 46.136ZM78.212 49.376L78.68 49.268C78.76 49.556 78.832 49.86 78.896 50.18C78.968 50.5 79.024 50.804 79.064 51.092C79.112 51.38 79.14 51.632 79.148 51.848L78.644 51.992C78.636 51.776 78.612 51.52 78.572 51.224C78.532 50.92 78.48 50.608 78.416 50.288C78.36 49.96 78.292 49.656 78.212 49.376ZM77.132 45.308H77.96V48.236H77.864V53.864H77.24V48.236H77.132V45.308ZM81.68 46.94H85.376V47.72H81.68V46.94ZM81.764 45.44L82.592 45.62C82.448 46.18 82.276 46.728 82.076 47.264C81.884 47.792 81.668 48.292 81.428 48.764C81.188 49.228 80.928 49.636 80.648 49.988C80.608 49.94 80.544 49.88 80.456 49.808C80.376 49.736 80.292 49.664 80.204 49.592C80.124 49.52 80.048 49.464 79.976 49.424C80.392 48.944 80.748 48.352 81.044 47.648C81.348 46.936 81.588 46.2 81.764 45.44ZM84.056 47.3L84.908 47.432C84.588 48.984 84.088 50.3 83.408 51.38C82.736 52.452 81.836 53.316 80.708 53.972C80.676 53.908 80.624 53.832 80.552 53.744C80.48 53.664 80.404 53.58 80.324 53.492C80.252 53.404 80.184 53.332 80.12 53.276C81.208 52.708 82.068 51.928 82.7 50.936C83.332 49.936 83.784 48.724 84.056 47.3ZM81.8 47.72C82 48.544 82.272 49.32 82.616 50.048C82.968 50.776 83.396 51.416 83.9 51.968C84.412 52.52 85 52.948 85.664 53.252C85.592 53.308 85.516 53.376 85.436 53.456C85.364 53.544 85.292 53.632 85.22 53.72C85.156 53.808 85.1 53.892 85.052 53.972C84.372 53.612 83.776 53.132 83.264 52.532C82.76 51.932 82.324 51.236 81.956 50.444C81.596 49.652 81.304 48.796 81.08 47.876L81.8 47.72Z" fill="#020057"/>
</svg>
