<svg width="100" height="80" viewBox="0 0 100 80" fill="none" xmlns="http://www.w3.org/2000/svg">
<rect width="100" height="80" fill="#FBFBFE"/>
<path d="M40.2197 10.2197C39.9534 10.4859 39.9292 10.9026 40.1471 11.1962L40.2197 11.2803L44.2542 15.3149C42.3322 16.6644 40.8958 18.6799 40.2989 21.0644C40.1983 21.4662 40.4425 21.8735 40.8443 21.9741C41.2461 22.0746 41.6534 21.8305 41.754 21.4286C42.2835 19.3135 43.5911 17.5395 45.3342 16.3945L47.1438 18.2043C46.4363 18.9258 46 19.9143 46 21.0046C46 23.2138 47.7909 25.0046 50 25.0046C51.0904 25.0046 52.0788 24.5683 52.8004 23.8608L58.7197 29.7803C59.0126 30.0732 59.4874 30.0732 59.7803 29.7803C60.0466 29.5141 60.0708 29.0974 59.8529 28.8038L59.7803 28.7197L53.6668 22.6055L53.668 22.604L52.4679 21.4061L49.598 18.5368L49.6 18.536L46.7188 15.6578L46.72 15.656L45.5867 14.5255L41.2803 10.2197C40.9874 9.92678 40.5126 9.92678 40.2197 10.2197ZM48.2041 19.2655L51.7392 22.8006C51.2892 23.2364 50.6759 23.5046 50 23.5046C48.6193 23.5046 47.5 22.3853 47.5 21.0046C47.5 20.3287 47.7682 19.7154 48.2041 19.2655ZM50 13.5C48.9997 13.5 48.0291 13.6481 47.1111 13.925L48.3481 15.1612C48.8839 15.0553 49.4364 15 50 15C53.9231 15 57.3099 17.6803 58.2471 21.4332C58.3475 21.835 58.7546 22.0794 59.1565 21.9791C59.5584 21.8787 59.8028 21.4716 59.7024 21.0697C58.5994 16.6527 54.6155 13.5 50 13.5ZM50.1947 17.0093L53.996 20.81C53.8942 18.7531 52.2472 17.1076 50.1947 17.0093Z" fill="#020057"/>
<path d="M28.5371 53H24.084V44.5977H28.3496V45.4883H25.0684V48.2832H28.1035V49.168H25.0684V52.1094H28.5371V53ZM30.9863 53H30.0254V44.1172H30.9863V53ZM37.7539 50.2402H33.5176C33.5332 50.9082 33.7129 51.4238 34.0566 51.7871C34.4004 52.1504 34.873 52.332 35.4746 52.332C36.1504 52.332 36.7715 52.1094 37.3379 51.6641V52.5664C36.8105 52.9492 36.1133 53.1406 35.2461 53.1406C34.3984 53.1406 33.7324 52.8691 33.248 52.3262C32.7637 51.7793 32.5215 51.0117 32.5215 50.0234C32.5215 49.0898 32.7852 48.3301 33.3125 47.7441C33.8438 47.1543 34.502 46.8594 35.2871 46.8594C36.0723 46.8594 36.6797 47.1133 37.1094 47.6211C37.5391 48.1289 37.7539 48.834 37.7539 49.7363V50.2402ZM36.7695 49.4258C36.7656 48.8711 36.6309 48.4395 36.3652 48.1309C36.1035 47.8223 35.7383 47.668 35.2695 47.668C34.8164 47.668 34.4316 47.8301 34.1152 48.1543C33.7988 48.4785 33.6035 48.9023 33.5293 49.4258H36.7695ZM47.7324 53H46.7715V49.5547C46.7715 48.8906 46.668 48.4102 46.4609 48.1133C46.2578 47.8164 45.9141 47.668 45.4297 47.668C45.0195 47.668 44.6699 47.8555 44.3809 48.2305C44.0957 48.6055 43.9531 49.0547 43.9531 49.5781V53H42.9922V49.4375C42.9922 48.2578 42.5371 47.668 41.627 47.668C41.2051 47.668 40.8574 47.8457 40.584 48.2012C40.3105 48.5527 40.1738 49.0117 40.1738 49.5781V53H39.2129V47H40.1738V47.9492H40.1973C40.623 47.2227 41.2441 46.8594 42.0605 46.8594C42.4707 46.8594 42.8281 46.9746 43.1328 47.2051C43.4375 47.4316 43.6465 47.7305 43.7598 48.1016C44.2051 47.2734 44.8691 46.8594 45.752 46.8594C47.0723 46.8594 47.7324 47.6738 47.7324 49.3027V53ZM54.3711 50.2402H50.1348C50.1504 50.9082 50.3301 51.4238 50.6738 51.7871C51.0176 52.1504 51.4902 52.332 52.0918 52.332C52.7676 52.332 53.3887 52.1094 53.9551 51.6641V52.5664C53.4277 52.9492 52.7305 53.1406 51.8633 53.1406C51.0156 53.1406 50.3496 52.8691 49.8652 52.3262C49.3809 51.7793 49.1387 51.0117 49.1387 50.0234C49.1387 49.0898 49.4023 48.3301 49.9297 47.7441C50.4609 47.1543 51.1191 46.8594 51.9043 46.8594C52.6895 46.8594 53.2969 47.1133 53.7266 47.6211C54.1562 48.1289 54.3711 48.834 54.3711 49.7363V50.2402ZM53.3867 49.4258C53.3828 48.8711 53.248 48.4395 52.9824 48.1309C52.7207 47.8223 52.3555 47.668 51.8867 47.668C51.4336 47.668 51.0488 47.8301 50.7324 48.1543C50.416 48.4785 50.2207 48.9023 50.1465 49.4258H53.3867ZM60.8105 53H59.8496V49.5781C59.8496 48.3047 59.3848 47.668 58.4551 47.668C57.9746 47.668 57.5762 47.8496 57.2598 48.2129C56.9473 48.5723 56.791 49.0273 56.791 49.5781V53H55.8301V47H56.791V47.9961H56.8145C57.2676 47.2383 57.9238 46.8594 58.7832 46.8594C59.4395 46.8594 59.9414 47.0723 60.2891 47.498C60.6367 47.9199 60.8105 48.5312 60.8105 49.332V53ZM65.4102 52.9414C65.1836 53.0664 64.8848 53.1289 64.5137 53.1289C63.4629 53.1289 62.9375 52.543 62.9375 51.3711V47.8203H61.9062V47H62.9375V45.5352L63.8984 45.2246V47H65.4102V47.8203H63.8984V51.2012C63.8984 51.6035 63.9668 51.8906 64.1035 52.0625C64.2402 52.2344 64.4668 52.3203 64.7832 52.3203C65.0254 52.3203 65.2344 52.2539 65.4102 52.1211V52.9414ZM70.4785 45.4766C70.3066 45.4766 70.1602 45.418 70.0391 45.3008C69.918 45.1836 69.8574 45.0352 69.8574 44.8555C69.8574 44.6758 69.918 44.5273 70.0391 44.4102C70.1602 44.2891 70.3066 44.2285 70.4785 44.2285C70.6543 44.2285 70.8027 44.2891 70.9238 44.4102C71.0488 44.5273 71.1113 44.6758 71.1113 44.8555C71.1113 45.0273 71.0488 45.1738 70.9238 45.2949C70.8027 45.416 70.6543 45.4766 70.4785 45.4766ZM70.9473 53H69.9863V47H70.9473V53ZM72.5293 52.7832V51.752C73.0527 52.1387 73.6289 52.332 74.2578 52.332C75.1016 52.332 75.5234 52.0508 75.5234 51.4883C75.5234 51.3281 75.4863 51.1934 75.4121 51.084C75.3418 50.9707 75.2441 50.8711 75.1191 50.7852C74.998 50.6992 74.8535 50.623 74.6855 50.5566C74.5215 50.4863 74.3438 50.4141 74.1523 50.3398C73.8867 50.2344 73.6523 50.1289 73.4492 50.0234C73.25 49.9141 73.082 49.793 72.9453 49.6602C72.8125 49.5234 72.7109 49.3691 72.6406 49.1973C72.5742 49.0254 72.541 48.8242 72.541 48.5938C72.541 48.3125 72.6055 48.0645 72.7344 47.8496C72.8633 47.6309 73.0352 47.4492 73.25 47.3047C73.4648 47.1562 73.709 47.0449 73.9824 46.9707C74.2598 46.8965 74.5449 46.8594 74.8379 46.8594C75.3574 46.8594 75.8223 46.9492 76.2324 47.1289V48.1016C75.791 47.8125 75.2832 47.668 74.709 47.668C74.5293 47.668 74.3672 47.6895 74.2227 47.7324C74.0781 47.7715 73.9531 47.8281 73.8477 47.9023C73.7461 47.9766 73.666 48.0664 73.6074 48.1719C73.5527 48.2734 73.5254 48.3867 73.5254 48.5117C73.5254 48.668 73.5527 48.7988 73.6074 48.9043C73.666 49.0098 73.75 49.1035 73.8594 49.1855C73.9688 49.2676 74.1016 49.3418 74.2578 49.4082C74.4141 49.4746 74.5918 49.5469 74.791 49.625C75.0566 49.7266 75.2949 49.832 75.5059 49.9414C75.7168 50.0469 75.8965 50.168 76.0449 50.3047C76.1934 50.4375 76.3066 50.5918 76.3848 50.7676C76.4668 50.9434 76.5078 51.1523 76.5078 51.3945C76.5078 51.6914 76.4414 51.9492 76.3086 52.168C76.1797 52.3867 76.0059 52.5684 75.7871 52.7129C75.5684 52.8574 75.3164 52.9648 75.0312 53.0352C74.7461 53.1055 74.4473 53.1406 74.1348 53.1406C73.5176 53.1406 72.9824 53.0215 72.5293 52.7832ZM23.7676 68.5195C23.7676 70.7227 22.7129 71.8242 20.6035 71.8242C19.8613 71.8242 19.2129 71.6836 18.6582 71.4023V70.4414C19.334 70.8164 19.9785 71.0039 20.5918 71.0039C22.0684 71.0039 22.8066 70.2188 22.8066 68.6484V67.9922H22.7832C22.3262 68.7578 21.6387 69.1406 20.7207 69.1406C19.9746 69.1406 19.373 68.875 18.916 68.3438C18.4629 67.8086 18.2363 67.0918 18.2363 66.1934C18.2363 65.1738 18.4805 64.3633 18.9688 63.7617C19.4609 63.1602 20.1328 62.8594 20.9844 62.8594C21.793 62.8594 22.3926 63.1836 22.7832 63.832H22.8066V63H23.7676V68.5195ZM22.8066 66.2871V65.4023C22.8066 64.9258 22.6445 64.5176 22.3203 64.1777C22 63.8379 21.5996 63.668 21.1191 63.668C20.5254 63.668 20.0605 63.8848 19.7246 64.3184C19.3887 64.748 19.2207 65.3516 19.2207 66.1289C19.2207 66.7969 19.3809 67.332 19.7012 67.7344C20.0254 68.1328 20.4531 68.332 20.9844 68.332C21.5234 68.332 21.9609 68.1406 22.2969 67.7578C22.6367 67.375 22.8066 66.8848 22.8066 66.2871ZM30.5352 66.2402H26.2988C26.3145 66.9082 26.4941 67.4238 26.8379 67.7871C27.1816 68.1504 27.6543 68.332 28.2559 68.332C28.9316 68.332 29.5527 68.1094 30.1191 67.6641V68.5664C29.5918 68.9492 28.8945 69.1406 28.0273 69.1406C27.1797 69.1406 26.5137 68.8691 26.0293 68.3262C25.5449 67.7793 25.3027 67.0117 25.3027 66.0234C25.3027 65.0898 25.5664 64.3301 26.0938 63.7441C26.625 63.1543 27.2832 62.8594 28.0684 62.8594C28.8535 62.8594 29.4609 63.1133 29.8906 63.6211C30.3203 64.1289 30.5352 64.834 30.5352 65.7363V66.2402ZM29.5508 65.4258C29.5469 64.8711 29.4121 64.4395 29.1465 64.1309C28.8848 63.8223 28.5195 63.668 28.0508 63.668C27.5977 63.668 27.2129 63.8301 26.8965 64.1543C26.5801 64.4785 26.3848 64.9023 26.3105 65.4258H29.5508ZM40.5137 69H39.5527V65.5547C39.5527 64.8906 39.4492 64.4102 39.2422 64.1133C39.0391 63.8164 38.6953 63.668 38.2109 63.668C37.8008 63.668 37.4512 63.8555 37.1621 64.2305C36.877 64.6055 36.7344 65.0547 36.7344 65.5781V69H35.7734V65.4375C35.7734 64.2578 35.3184 63.668 34.4082 63.668C33.9863 63.668 33.6387 63.8457 33.3652 64.2012C33.0918 64.5527 32.9551 65.0117 32.9551 65.5781V69H31.9941V63H32.9551V63.9492H32.9785C33.4043 63.2227 34.0254 62.8594 34.8418 62.8594C35.252 62.8594 35.6094 62.9746 35.9141 63.2051C36.2188 63.4316 36.4277 63.7305 36.541 64.1016C36.9863 63.2734 37.6504 62.8594 38.5332 62.8594C39.8535 62.8594 40.5137 63.6738 40.5137 65.3027V69ZM46.625 69H45.6641V68.0625H45.6406C45.2227 68.7812 44.6074 69.1406 43.7949 69.1406C43.1973 69.1406 42.7285 68.9824 42.3887 68.666C42.0527 68.3496 41.8848 67.9297 41.8848 67.4062C41.8848 66.2852 42.5449 65.6328 43.8652 65.4492L45.6641 65.1973C45.6641 64.1777 45.252 63.668 44.4277 63.668C43.7051 63.668 43.0527 63.9141 42.4707 64.4062V63.4219C43.0605 63.0469 43.7402 62.8594 44.5098 62.8594C45.9199 62.8594 46.625 63.6055 46.625 65.0977V69ZM45.6641 65.9648L44.2168 66.1641C43.7715 66.2266 43.4355 66.3379 43.209 66.498C42.9824 66.6543 42.8691 66.9336 42.8691 67.3359C42.8691 67.6289 42.9727 67.8691 43.1797 68.0566C43.3906 68.2402 43.6699 68.332 44.0176 68.332C44.4941 68.332 44.8867 68.166 45.1953 67.834C45.5078 67.498 45.6641 67.0742 45.6641 66.5625V65.9648ZM48.0723 68.7832V67.752C48.5957 68.1387 49.1719 68.332 49.8008 68.332C50.6445 68.332 51.0664 68.0508 51.0664 67.4883C51.0664 67.3281 51.0293 67.1934 50.9551 67.084C50.8848 66.9707 50.7871 66.8711 50.6621 66.7852C50.541 66.6992 50.3965 66.623 50.2285 66.5566C50.0645 66.4863 49.8867 66.4141 49.6953 66.3398C49.4297 66.2344 49.1953 66.1289 48.9922 66.0234C48.793 65.9141 48.625 65.793 48.4883 65.6602C48.3555 65.5234 48.2539 65.3691 48.1836 65.1973C48.1172 65.0254 48.084 64.8242 48.084 64.5938C48.084 64.3125 48.1484 64.0645 48.2773 63.8496C48.4062 63.6309 48.5781 63.4492 48.793 63.3047C49.0078 63.1562 49.252 63.0449 49.5254 62.9707C49.8027 62.8965 50.0879 62.8594 50.3809 62.8594C50.9004 62.8594 51.3652 62.9492 51.7754 63.1289V64.1016C51.334 63.8125 50.8262 63.668 50.252 63.668C50.0723 63.668 49.9102 63.6895 49.7656 63.7324C49.6211 63.7715 49.4961 63.8281 49.3906 63.9023C49.2891 63.9766 49.209 64.0664 49.1504 64.1719C49.0957 64.2734 49.0684 64.3867 49.0684 64.5117C49.0684 64.668 49.0957 64.7988 49.1504 64.9043C49.209 65.0098 49.293 65.1035 49.4023 65.1855C49.5117 65.2676 49.6445 65.3418 49.8008 65.4082C49.957 65.4746 50.1348 65.5469 50.334 65.625C50.5996 65.7266 50.8379 65.832 51.0488 65.9414C51.2598 66.0469 51.4395 66.168 51.5879 66.3047C51.7363 66.4375 51.8496 66.5918 51.9277 66.7676C52.0098 66.9434 52.0508 67.1523 52.0508 67.3945C52.0508 67.6914 51.9844 67.9492 51.8516 68.168C51.7227 68.3867 51.5488 68.5684 51.3301 68.7129C51.1113 68.8574 50.8594 68.9648 50.5742 69.0352C50.2891 69.1055 49.9902 69.1406 49.6777 69.1406C49.0605 69.1406 48.5254 69.0215 48.0723 68.7832ZM58.5137 69H57.166L54.5176 66.1172H54.4941V69H53.5332V60.1172H54.4941V65.748H54.5176L57.0371 63H58.2969L55.5137 65.8945L58.5137 69ZM64.3203 66.2402H60.084C60.0996 66.9082 60.2793 67.4238 60.623 67.7871C60.9668 68.1504 61.4395 68.332 62.041 68.332C62.7168 68.332 63.3379 68.1094 63.9043 67.6641V68.5664C63.377 68.9492 62.6797 69.1406 61.8125 69.1406C60.9648 69.1406 60.2988 68.8691 59.8145 68.3262C59.3301 67.7793 59.0879 67.0117 59.0879 66.0234C59.0879 65.0898 59.3516 64.3301 59.8789 63.7441C60.4102 63.1543 61.0684 62.8594 61.8535 62.8594C62.6387 62.8594 63.2461 63.1133 63.6758 63.6211C64.1055 64.1289 64.3203 64.834 64.3203 65.7363V66.2402ZM63.3359 65.4258C63.332 64.8711 63.1973 64.4395 62.9316 64.1309C62.6699 63.8223 62.3047 63.668 61.8359 63.668C61.3828 63.668 60.998 63.8301 60.6816 64.1543C60.3652 64.4785 60.1699 64.9023 60.0957 65.4258H63.3359ZM70.6016 66.2402H66.3652C66.3809 66.9082 66.5605 67.4238 66.9043 67.7871C67.248 68.1504 67.7207 68.332 68.3223 68.332C68.998 68.332 69.6191 68.1094 70.1855 67.6641V68.5664C69.6582 68.9492 68.9609 69.1406 68.0938 69.1406C67.2461 69.1406 66.5801 68.8691 66.0957 68.3262C65.6113 67.7793 65.3691 67.0117 65.3691 66.0234C65.3691 65.0898 65.6328 64.3301 66.1602 63.7441C66.6914 63.1543 67.3496 62.8594 68.1348 62.8594C68.9199 62.8594 69.5273 63.1133 69.957 63.6211C70.3867 64.1289 70.6016 64.834 70.6016 65.7363V66.2402ZM69.6172 65.4258C69.6133 64.8711 69.4785 64.4395 69.2129 64.1309C68.9512 63.8223 68.5859 63.668 68.1172 63.668C67.6641 63.668 67.2793 63.8301 66.9629 64.1543C66.6465 64.4785 66.4512 64.9023 66.377 65.4258H69.6172ZM75.1895 63.9727C75.0215 63.8438 74.7793 63.7793 74.4629 63.7793C74.0527 63.7793 73.709 63.9727 73.4316 64.3594C73.1582 64.7461 73.0215 65.2734 73.0215 65.9414V69H72.0605V63H73.0215V64.2363H73.0449C73.1816 63.8145 73.3906 63.4863 73.6719 63.252C73.9531 63.0137 74.2676 62.8945 74.6152 62.8945C74.8652 62.8945 75.0566 62.9219 75.1895 62.9766V63.9727ZM81.3535 69H80.3926V67.9805H80.3691C79.9238 68.7539 79.2363 69.1406 78.3066 69.1406C77.5527 69.1406 76.9492 68.873 76.4961 68.3379C76.0469 67.7988 75.8223 67.0664 75.8223 66.1406C75.8223 65.1484 76.0723 64.3535 76.5723 63.7559C77.0723 63.1582 77.7383 62.8594 78.5703 62.8594C79.3945 62.8594 79.9941 63.1836 80.3691 63.832H80.3926V60.1172H81.3535V69ZM80.3926 66.2871V65.4023C80.3926 64.918 80.2324 64.5078 79.9121 64.1719C79.5918 63.8359 79.1855 63.668 78.6934 63.668C78.1074 63.668 77.6465 63.8828 77.3105 64.3125C76.9746 64.7422 76.8066 65.3359 76.8066 66.0938C76.8066 66.7852 76.9668 67.332 77.2871 67.7344C77.6113 68.1328 78.0449 68.332 78.5879 68.332C79.123 68.332 79.5566 68.1387 79.8887 67.752C80.2246 67.3652 80.3926 66.877 80.3926 66.2871Z" fill="#020057"/>
</svg>
