<svg width="100%" viewBox="0 0 148 147" fill="none" xmlns="http://www.w3.org/2000/svg">
<g filter="url(#filter0_dd_3871_164770)">
<rect x="8" y="4" width="132" height="132" fill="#FBFBFE"/>
<rect x="8.5" y="4.5" width="131" height="131" stroke="#827DFF" stroke-dasharray="4 4"/>
<rect width="100" height="80" transform="translate(24 30)" fill="#FBFBFE"/>
<path d="M64.2197 40.2197C63.9534 40.4859 63.9292 40.9026 64.1471 41.1962L64.2197 41.2803L68.2542 45.3149C66.3322 46.6644 64.8958 48.6799 64.2989 51.0644C64.1983 51.4662 64.4425 51.8735 64.8443 51.9741C65.2461 52.0746 65.6534 51.8305 65.754 51.4286C66.2835 49.3135 67.5911 47.5395 69.3342 46.3945L71.1438 48.2043C70.4363 48.9258 70 49.9143 70 51.0046C70 53.2138 71.7909 55.0046 74 55.0046C75.0904 55.0046 76.0788 54.5683 76.8004 53.8608L82.7197 59.7803C83.0126 60.0732 83.4874 60.0732 83.7803 59.7803C84.0466 59.5141 84.0708 59.0974 83.8529 58.8038L83.7803 58.7197L77.6668 52.6055L77.668 52.604L76.4679 51.4061L73.598 48.5368L73.6 48.536L70.7188 45.6578L70.72 45.656L69.5867 44.5255L65.2803 40.2197C64.9874 39.9268 64.5126 39.9268 64.2197 40.2197ZM72.2041 49.2655L75.7392 52.8006C75.2892 53.2364 74.6759 53.5046 74 53.5046C72.6193 53.5046 71.5 52.3853 71.5 51.0046C71.5 50.3287 71.7682 49.7154 72.2041 49.2655ZM74 43.5C72.9997 43.5 72.0291 43.6481 71.1111 43.925L72.3481 45.1612C72.8839 45.0553 73.4364 45 74 45C77.9231 45 81.3099 47.6803 82.2471 51.4332C82.3475 51.835 82.7546 52.0794 83.1565 51.9791C83.5584 51.8787 83.8028 51.4716 83.7024 51.0697C82.5994 46.6527 78.6155 43.5 74 43.5ZM74.1947 47.0093L77.996 50.81C77.8942 48.7531 76.2472 47.1076 74.1947 47.0093Z" fill="#020057"/>
<path d="M52.5371 83H48.084V74.5977H52.3496V75.4883H49.0684V78.2832H52.1035V79.168H49.0684V82.1094H52.5371V83ZM54.9863 83H54.0254V74.1172H54.9863V83ZM61.7539 80.2402H57.5176C57.5332 80.9082 57.7129 81.4238 58.0566 81.7871C58.4004 82.1504 58.873 82.332 59.4746 82.332C60.1504 82.332 60.7715 82.1094 61.3379 81.6641V82.5664C60.8105 82.9492 60.1133 83.1406 59.2461 83.1406C58.3984 83.1406 57.7324 82.8691 57.248 82.3262C56.7637 81.7793 56.5215 81.0117 56.5215 80.0234C56.5215 79.0898 56.7852 78.3301 57.3125 77.7441C57.8438 77.1543 58.502 76.8594 59.2871 76.8594C60.0723 76.8594 60.6797 77.1133 61.1094 77.6211C61.5391 78.1289 61.7539 78.834 61.7539 79.7363V80.2402ZM60.7695 79.4258C60.7656 78.8711 60.6309 78.4395 60.3652 78.1309C60.1035 77.8223 59.7383 77.668 59.2695 77.668C58.8164 77.668 58.4316 77.8301 58.1152 78.1543C57.7988 78.4785 57.6035 78.9023 57.5293 79.4258H60.7695ZM71.7324 83H70.7715V79.5547C70.7715 78.8906 70.668 78.4102 70.4609 78.1133C70.2578 77.8164 69.9141 77.668 69.4297 77.668C69.0195 77.668 68.6699 77.8555 68.3809 78.2305C68.0957 78.6055 67.9531 79.0547 67.9531 79.5781V83H66.9922V79.4375C66.9922 78.2578 66.5371 77.668 65.627 77.668C65.2051 77.668 64.8574 77.8457 64.584 78.2012C64.3105 78.5527 64.1738 79.0117 64.1738 79.5781V83H63.2129V77H64.1738V77.9492H64.1973C64.623 77.2227 65.2441 76.8594 66.0605 76.8594C66.4707 76.8594 66.8281 76.9746 67.1328 77.2051C67.4375 77.4316 67.6465 77.7305 67.7598 78.1016C68.2051 77.2734 68.8691 76.8594 69.752 76.8594C71.0723 76.8594 71.7324 77.6738 71.7324 79.3027V83ZM78.3711 80.2402H74.1348C74.1504 80.9082 74.3301 81.4238 74.6738 81.7871C75.0176 82.1504 75.4902 82.332 76.0918 82.332C76.7676 82.332 77.3887 82.1094 77.9551 81.6641V82.5664C77.4277 82.9492 76.7305 83.1406 75.8633 83.1406C75.0156 83.1406 74.3496 82.8691 73.8652 82.3262C73.3809 81.7793 73.1387 81.0117 73.1387 80.0234C73.1387 79.0898 73.4023 78.3301 73.9297 77.7441C74.4609 77.1543 75.1191 76.8594 75.9043 76.8594C76.6895 76.8594 77.2969 77.1133 77.7266 77.6211C78.1562 78.1289 78.3711 78.834 78.3711 79.7363V80.2402ZM77.3867 79.4258C77.3828 78.8711 77.248 78.4395 76.9824 78.1309C76.7207 77.8223 76.3555 77.668 75.8867 77.668C75.4336 77.668 75.0488 77.8301 74.7324 78.1543C74.416 78.4785 74.2207 78.9023 74.1465 79.4258H77.3867ZM84.8105 83H83.8496V79.5781C83.8496 78.3047 83.3848 77.668 82.4551 77.668C81.9746 77.668 81.5762 77.8496 81.2598 78.2129C80.9473 78.5723 80.791 79.0273 80.791 79.5781V83H79.8301V77H80.791V77.9961H80.8145C81.2676 77.2383 81.9238 76.8594 82.7832 76.8594C83.4395 76.8594 83.9414 77.0723 84.2891 77.498C84.6367 77.9199 84.8105 78.5312 84.8105 79.332V83ZM89.4102 82.9414C89.1836 83.0664 88.8848 83.1289 88.5137 83.1289C87.4629 83.1289 86.9375 82.543 86.9375 81.3711V77.8203H85.9062V77H86.9375V75.5352L87.8984 75.2246V77H89.4102V77.8203H87.8984V81.2012C87.8984 81.6035 87.9668 81.8906 88.1035 82.0625C88.2402 82.2344 88.4668 82.3203 88.7832 82.3203C89.0254 82.3203 89.2344 82.2539 89.4102 82.1211V82.9414ZM94.4785 75.4766C94.3066 75.4766 94.1602 75.418 94.0391 75.3008C93.918 75.1836 93.8574 75.0352 93.8574 74.8555C93.8574 74.6758 93.918 74.5273 94.0391 74.4102C94.1602 74.2891 94.3066 74.2285 94.4785 74.2285C94.6543 74.2285 94.8027 74.2891 94.9238 74.4102C95.0488 74.5273 95.1113 74.6758 95.1113 74.8555C95.1113 75.0273 95.0488 75.1738 94.9238 75.2949C94.8027 75.416 94.6543 75.4766 94.4785 75.4766ZM94.9473 83H93.9863V77H94.9473V83ZM96.5293 82.7832V81.752C97.0527 82.1387 97.6289 82.332 98.2578 82.332C99.1016 82.332 99.5234 82.0508 99.5234 81.4883C99.5234 81.3281 99.4863 81.1934 99.4121 81.084C99.3418 80.9707 99.2441 80.8711 99.1191 80.7852C98.998 80.6992 98.8535 80.623 98.6855 80.5566C98.5215 80.4863 98.3438 80.4141 98.1523 80.3398C97.8867 80.2344 97.6523 80.1289 97.4492 80.0234C97.25 79.9141 97.082 79.793 96.9453 79.6602C96.8125 79.5234 96.7109 79.3691 96.6406 79.1973C96.5742 79.0254 96.541 78.8242 96.541 78.5938C96.541 78.3125 96.6055 78.0645 96.7344 77.8496C96.8633 77.6309 97.0352 77.4492 97.25 77.3047C97.4648 77.1562 97.709 77.0449 97.9824 76.9707C98.2598 76.8965 98.5449 76.8594 98.8379 76.8594C99.3574 76.8594 99.8223 76.9492 100.232 77.1289V78.1016C99.791 77.8125 99.2832 77.668 98.709 77.668C98.5293 77.668 98.3672 77.6895 98.2227 77.7324C98.0781 77.7715 97.9531 77.8281 97.8477 77.9023C97.7461 77.9766 97.666 78.0664 97.6074 78.1719C97.5527 78.2734 97.5254 78.3867 97.5254 78.5117C97.5254 78.668 97.5527 78.7988 97.6074 78.9043C97.666 79.0098 97.75 79.1035 97.8594 79.1855C97.9688 79.2676 98.1016 79.3418 98.2578 79.4082C98.4141 79.4746 98.5918 79.5469 98.791 79.625C99.0566 79.7266 99.2949 79.832 99.5059 79.9414C99.7168 80.0469 99.8965 80.168 100.045 80.3047C100.193 80.4375 100.307 80.5918 100.385 80.7676C100.467 80.9434 100.508 81.1523 100.508 81.3945C100.508 81.6914 100.441 81.9492 100.309 82.168C100.18 82.3867 100.006 82.5684 99.7871 82.7129C99.5684 82.8574 99.3164 82.9648 99.0312 83.0352C98.7461 83.1055 98.4473 83.1406 98.1348 83.1406C97.5176 83.1406 96.9824 83.0215 96.5293 82.7832ZM47.7676 98.5195C47.7676 100.723 46.7129 101.824 44.6035 101.824C43.8613 101.824 43.2129 101.684 42.6582 101.402V100.441C43.334 100.816 43.9785 101.004 44.5918 101.004C46.0684 101.004 46.8066 100.219 46.8066 98.6484V97.9922H46.7832C46.3262 98.7578 45.6387 99.1406 44.7207 99.1406C43.9746 99.1406 43.373 98.875 42.916 98.3438C42.4629 97.8086 42.2363 97.0918 42.2363 96.1934C42.2363 95.1738 42.4805 94.3633 42.9688 93.7617C43.4609 93.1602 44.1328 92.8594 44.9844 92.8594C45.793 92.8594 46.3926 93.1836 46.7832 93.832H46.8066V93H47.7676V98.5195ZM46.8066 96.2871V95.4023C46.8066 94.9258 46.6445 94.5176 46.3203 94.1777C46 93.8379 45.5996 93.668 45.1191 93.668C44.5254 93.668 44.0605 93.8848 43.7246 94.3184C43.3887 94.748 43.2207 95.3516 43.2207 96.1289C43.2207 96.7969 43.3809 97.332 43.7012 97.7344C44.0254 98.1328 44.4531 98.332 44.9844 98.332C45.5234 98.332 45.9609 98.1406 46.2969 97.7578C46.6367 97.375 46.8066 96.8848 46.8066 96.2871ZM54.5352 96.2402H50.2988C50.3145 96.9082 50.4941 97.4238 50.8379 97.7871C51.1816 98.1504 51.6543 98.332 52.2559 98.332C52.9316 98.332 53.5527 98.1094 54.1191 97.6641V98.5664C53.5918 98.9492 52.8945 99.1406 52.0273 99.1406C51.1797 99.1406 50.5137 98.8691 50.0293 98.3262C49.5449 97.7793 49.3027 97.0117 49.3027 96.0234C49.3027 95.0898 49.5664 94.3301 50.0938 93.7441C50.625 93.1543 51.2832 92.8594 52.0684 92.8594C52.8535 92.8594 53.4609 93.1133 53.8906 93.6211C54.3203 94.1289 54.5352 94.834 54.5352 95.7363V96.2402ZM53.5508 95.4258C53.5469 94.8711 53.4121 94.4395 53.1465 94.1309C52.8848 93.8223 52.5195 93.668 52.0508 93.668C51.5977 93.668 51.2129 93.8301 50.8965 94.1543C50.5801 94.4785 50.3848 94.9023 50.3105 95.4258H53.5508ZM64.5137 99H63.5527V95.5547C63.5527 94.8906 63.4492 94.4102 63.2422 94.1133C63.0391 93.8164 62.6953 93.668 62.2109 93.668C61.8008 93.668 61.4512 93.8555 61.1621 94.2305C60.877 94.6055 60.7344 95.0547 60.7344 95.5781V99H59.7734V95.4375C59.7734 94.2578 59.3184 93.668 58.4082 93.668C57.9863 93.668 57.6387 93.8457 57.3652 94.2012C57.0918 94.5527 56.9551 95.0117 56.9551 95.5781V99H55.9941V93H56.9551V93.9492H56.9785C57.4043 93.2227 58.0254 92.8594 58.8418 92.8594C59.252 92.8594 59.6094 92.9746 59.9141 93.2051C60.2188 93.4316 60.4277 93.7305 60.541 94.1016C60.9863 93.2734 61.6504 92.8594 62.5332 92.8594C63.8535 92.8594 64.5137 93.6738 64.5137 95.3027V99ZM70.625 99H69.6641V98.0625H69.6406C69.2227 98.7812 68.6074 99.1406 67.7949 99.1406C67.1973 99.1406 66.7285 98.9824 66.3887 98.666C66.0527 98.3496 65.8848 97.9297 65.8848 97.4062C65.8848 96.2852 66.5449 95.6328 67.8652 95.4492L69.6641 95.1973C69.6641 94.1777 69.252 93.668 68.4277 93.668C67.7051 93.668 67.0527 93.9141 66.4707 94.4062V93.4219C67.0605 93.0469 67.7402 92.8594 68.5098 92.8594C69.9199 92.8594 70.625 93.6055 70.625 95.0977V99ZM69.6641 95.9648L68.2168 96.1641C67.7715 96.2266 67.4355 96.3379 67.209 96.498C66.9824 96.6543 66.8691 96.9336 66.8691 97.3359C66.8691 97.6289 66.9727 97.8691 67.1797 98.0566C67.3906 98.2402 67.6699 98.332 68.0176 98.332C68.4941 98.332 68.8867 98.166 69.1953 97.834C69.5078 97.498 69.6641 97.0742 69.6641 96.5625V95.9648ZM72.0723 98.7832V97.752C72.5957 98.1387 73.1719 98.332 73.8008 98.332C74.6445 98.332 75.0664 98.0508 75.0664 97.4883C75.0664 97.3281 75.0293 97.1934 74.9551 97.084C74.8848 96.9707 74.7871 96.8711 74.6621 96.7852C74.541 96.6992 74.3965 96.623 74.2285 96.5566C74.0645 96.4863 73.8867 96.4141 73.6953 96.3398C73.4297 96.2344 73.1953 96.1289 72.9922 96.0234C72.793 95.9141 72.625 95.793 72.4883 95.6602C72.3555 95.5234 72.2539 95.3691 72.1836 95.1973C72.1172 95.0254 72.084 94.8242 72.084 94.5938C72.084 94.3125 72.1484 94.0645 72.2773 93.8496C72.4062 93.6309 72.5781 93.4492 72.793 93.3047C73.0078 93.1562 73.252 93.0449 73.5254 92.9707C73.8027 92.8965 74.0879 92.8594 74.3809 92.8594C74.9004 92.8594 75.3652 92.9492 75.7754 93.1289V94.1016C75.334 93.8125 74.8262 93.668 74.252 93.668C74.0723 93.668 73.9102 93.6895 73.7656 93.7324C73.6211 93.7715 73.4961 93.8281 73.3906 93.9023C73.2891 93.9766 73.209 94.0664 73.1504 94.1719C73.0957 94.2734 73.0684 94.3867 73.0684 94.5117C73.0684 94.668 73.0957 94.7988 73.1504 94.9043C73.209 95.0098 73.293 95.1035 73.4023 95.1855C73.5117 95.2676 73.6445 95.3418 73.8008 95.4082C73.957 95.4746 74.1348 95.5469 74.334 95.625C74.5996 95.7266 74.8379 95.832 75.0488 95.9414C75.2598 96.0469 75.4395 96.168 75.5879 96.3047C75.7363 96.4375 75.8496 96.5918 75.9277 96.7676C76.0098 96.9434 76.0508 97.1523 76.0508 97.3945C76.0508 97.6914 75.9844 97.9492 75.8516 98.168C75.7227 98.3867 75.5488 98.5684 75.3301 98.7129C75.1113 98.8574 74.8594 98.9648 74.5742 99.0352C74.2891 99.1055 73.9902 99.1406 73.6777 99.1406C73.0605 99.1406 72.5254 99.0215 72.0723 98.7832ZM82.5137 99H81.166L78.5176 96.1172H78.4941V99H77.5332V90.1172H78.4941V95.748H78.5176L81.0371 93H82.2969L79.5137 95.8945L82.5137 99ZM88.3203 96.2402H84.084C84.0996 96.9082 84.2793 97.4238 84.623 97.7871C84.9668 98.1504 85.4395 98.332 86.041 98.332C86.7168 98.332 87.3379 98.1094 87.9043 97.6641V98.5664C87.377 98.9492 86.6797 99.1406 85.8125 99.1406C84.9648 99.1406 84.2988 98.8691 83.8145 98.3262C83.3301 97.7793 83.0879 97.0117 83.0879 96.0234C83.0879 95.0898 83.3516 94.3301 83.8789 93.7441C84.4102 93.1543 85.0684 92.8594 85.8535 92.8594C86.6387 92.8594 87.2461 93.1133 87.6758 93.6211C88.1055 94.1289 88.3203 94.834 88.3203 95.7363V96.2402ZM87.3359 95.4258C87.332 94.8711 87.1973 94.4395 86.9316 94.1309C86.6699 93.8223 86.3047 93.668 85.8359 93.668C85.3828 93.668 84.998 93.8301 84.6816 94.1543C84.3652 94.4785 84.1699 94.9023 84.0957 95.4258H87.3359ZM94.6016 96.2402H90.3652C90.3809 96.9082 90.5605 97.4238 90.9043 97.7871C91.248 98.1504 91.7207 98.332 92.3223 98.332C92.998 98.332 93.6191 98.1094 94.1855 97.6641V98.5664C93.6582 98.9492 92.9609 99.1406 92.0938 99.1406C91.2461 99.1406 90.5801 98.8691 90.0957 98.3262C89.6113 97.7793 89.3691 97.0117 89.3691 96.0234C89.3691 95.0898 89.6328 94.3301 90.1602 93.7441C90.6914 93.1543 91.3496 92.8594 92.1348 92.8594C92.9199 92.8594 93.5273 93.1133 93.957 93.6211C94.3867 94.1289 94.6016 94.834 94.6016 95.7363V96.2402ZM93.6172 95.4258C93.6133 94.8711 93.4785 94.4395 93.2129 94.1309C92.9512 93.8223 92.5859 93.668 92.1172 93.668C91.6641 93.668 91.2793 93.8301 90.9629 94.1543C90.6465 94.4785 90.4512 94.9023 90.377 95.4258H93.6172ZM99.1895 93.9727C99.0215 93.8438 98.7793 93.7793 98.4629 93.7793C98.0527 93.7793 97.709 93.9727 97.4316 94.3594C97.1582 94.7461 97.0215 95.2734 97.0215 95.9414V99H96.0605V93H97.0215V94.2363H97.0449C97.1816 93.8145 97.3906 93.4863 97.6719 93.252C97.9531 93.0137 98.2676 92.8945 98.6152 92.8945C98.8652 92.8945 99.0566 92.9219 99.1895 92.9766V93.9727ZM105.354 99H104.393V97.9805H104.369C103.924 98.7539 103.236 99.1406 102.307 99.1406C101.553 99.1406 100.949 98.873 100.496 98.3379C100.047 97.7988 99.8223 97.0664 99.8223 96.1406C99.8223 95.1484 100.072 94.3535 100.572 93.7559C101.072 93.1582 101.738 92.8594 102.57 92.8594C103.395 92.8594 103.994 93.1836 104.369 93.832H104.393V90.1172H105.354V99ZM104.393 96.2871V95.4023C104.393 94.918 104.232 94.5078 103.912 94.1719C103.592 93.8359 103.186 93.668 102.693 93.668C102.107 93.668 101.646 93.8828 101.311 94.3125C100.975 94.7422 100.807 95.3359 100.807 96.0938C100.807 96.7852 100.967 97.332 101.287 97.7344C101.611 98.1328 102.045 98.332 102.588 98.332C103.123 98.332 103.557 98.1387 103.889 97.752C104.225 97.3652 104.393 96.877 104.393 96.2871Z" fill="#020057"/>
</g>
<defs>
<filter id="filter0_dd_3871_164770" x="0.8" y="2.38419e-07" width="146.4" height="146.4" filterUnits="userSpaceOnUse" color-interpolation-filters="sRGB">
<feFlood flood-opacity="0" result="BackgroundImageFix"/>
<feColorMatrix in="SourceAlpha" type="matrix" values="0 0 0 0 0 0 0 0 0 0 0 0 0 0 0 0 0 0 127 0" result="hardAlpha"/>
<feOffset dy="3.2"/>
<feGaussianBlur stdDeviation="3.6"/>
<feColorMatrix type="matrix" values="0 0 0 0 0.513726 0 0 0 0 0.494118 0 0 0 0 1 0 0 0 0.12 0"/>
<feBlend mode="normal" in2="BackgroundImageFix" result="effect1_dropShadow_3871_164770"/>
<feColorMatrix in="SourceAlpha" type="matrix" values="0 0 0 0 0 0 0 0 0 0 0 0 0 0 0 0 0 0 127 0" result="hardAlpha"/>
<feOffset dy="0.6"/>
<feGaussianBlur stdDeviation="0.9"/>
<feColorMatrix type="matrix" values="0 0 0 0 0.513726 0 0 0 0 0.494118 0 0 0 0 1 0 0 0 0.1 0"/>
<feBlend mode="normal" in2="effect1_dropShadow_3871_164770" result="effect2_dropShadow_3871_164770"/>
<feBlend mode="normal" in="SourceGraphic" in2="effect2_dropShadow_3871_164770" result="shape"/>
</filter>
</defs>
</svg>
