<svg width="100%" viewBox="0 0 148 147" fill="none" xmlns="http://www.w3.org/2000/svg">
<g filter="url(#filter0_dd_3871_164733)">
<rect x="8" y="4" width="132" height="132" fill="#FBFBFE"/>
<rect x="8.5" y="4.5" width="131" height="131" stroke="#827DFF" stroke-dasharray="4 4"/>
<rect width="100" height="80" transform="translate(24 30)" fill="#FBFBFE"/>
<path d="M64.2197 40.2197C63.9534 40.4859 63.9292 40.9026 64.1471 41.1962L64.2197 41.2803L68.2542 45.3149C66.3322 46.6644 64.8958 48.6799 64.2989 51.0644C64.1983 51.4662 64.4425 51.8735 64.8443 51.9741C65.2461 52.0746 65.6534 51.8305 65.754 51.4286C66.2835 49.3135 67.5911 47.5395 69.3342 46.3945L71.1438 48.2043C70.4363 48.9258 70 49.9143 70 51.0046C70 53.2138 71.7909 55.0046 74 55.0046C75.0904 55.0046 76.0788 54.5683 76.8004 53.8608L82.7197 59.7803C83.0126 60.0732 83.4874 60.0732 83.7803 59.7803C84.0466 59.5141 84.0708 59.0974 83.8529 58.8038L83.7803 58.7197L77.6668 52.6055L77.668 52.604L76.4679 51.4061L73.598 48.5368L73.6 48.536L70.7188 45.6578L70.72 45.656L69.5867 44.5255L65.2803 40.2197C64.9874 39.9268 64.5126 39.9268 64.2197 40.2197ZM72.2041 49.2655L75.7392 52.8006C75.2892 53.2364 74.6759 53.5046 74 53.5046C72.6193 53.5046 71.5 52.3853 71.5 51.0046C71.5 50.3287 71.7682 49.7154 72.2041 49.2655ZM74 43.5C72.9997 43.5 72.0291 43.6481 71.1111 43.925L72.3481 45.1612C72.8839 45.0553 73.4364 45 74 45C77.9231 45 81.3099 47.6803 82.2471 51.4332C82.3475 51.835 82.7546 52.0794 83.1565 51.9791C83.5584 51.8787 83.8028 51.4716 83.7024 51.0697C82.5994 46.6527 78.6155 43.5 74 43.5ZM74.1947 47.0093L77.996 50.81C77.8942 48.7531 76.2472 47.1076 74.1947 47.0093Z" fill="#020057"/>
<path d="M52.5371 83H48.084V74.5977H52.3496V75.4883H49.0684V78.2832H52.1035V79.168H49.0684V82.1094H52.5371V83ZM54.9863 83H54.0254V74.1172H54.9863V83ZM61.7539 80.2402H57.5176C57.5332 80.9082 57.7129 81.4238 58.0566 81.7871C58.4004 82.1504 58.873 82.332 59.4746 82.332C60.1504 82.332 60.7715 82.1094 61.3379 81.6641V82.5664C60.8105 82.9492 60.1133 83.1406 59.2461 83.1406C58.3984 83.1406 57.7324 82.8691 57.248 82.3262C56.7637 81.7793 56.5215 81.0117 56.5215 80.0234C56.5215 79.0898 56.7852 78.3301 57.3125 77.7441C57.8438 77.1543 58.502 76.8594 59.2871 76.8594C60.0723 76.8594 60.6797 77.1133 61.1094 77.6211C61.5391 78.1289 61.7539 78.834 61.7539 79.7363V80.2402ZM60.7695 79.4258C60.7656 78.8711 60.6309 78.4395 60.3652 78.1309C60.1035 77.8223 59.7383 77.668 59.2695 77.668C58.8164 77.668 58.4316 77.8301 58.1152 78.1543C57.7988 78.4785 57.6035 78.9023 57.5293 79.4258H60.7695ZM71.7324 83H70.7715V79.5547C70.7715 78.8906 70.668 78.4102 70.4609 78.1133C70.2578 77.8164 69.9141 77.668 69.4297 77.668C69.0195 77.668 68.6699 77.8555 68.3809 78.2305C68.0957 78.6055 67.9531 79.0547 67.9531 79.5781V83H66.9922V79.4375C66.9922 78.2578 66.5371 77.668 65.627 77.668C65.2051 77.668 64.8574 77.8457 64.584 78.2012C64.3105 78.5527 64.1738 79.0117 64.1738 79.5781V83H63.2129V77H64.1738V77.9492H64.1973C64.623 77.2227 65.2441 76.8594 66.0605 76.8594C66.4707 76.8594 66.8281 76.9746 67.1328 77.2051C67.4375 77.4316 67.6465 77.7305 67.7598 78.1016C68.2051 77.2734 68.8691 76.8594 69.752 76.8594C71.0723 76.8594 71.7324 77.6738 71.7324 79.3027V83ZM78.3711 80.2402H74.1348C74.1504 80.9082 74.3301 81.4238 74.6738 81.7871C75.0176 82.1504 75.4902 82.332 76.0918 82.332C76.7676 82.332 77.3887 82.1094 77.9551 81.6641V82.5664C77.4277 82.9492 76.7305 83.1406 75.8633 83.1406C75.0156 83.1406 74.3496 82.8691 73.8652 82.3262C73.3809 81.7793 73.1387 81.0117 73.1387 80.0234C73.1387 79.0898 73.4023 78.3301 73.9297 77.7441C74.4609 77.1543 75.1191 76.8594 75.9043 76.8594C76.6895 76.8594 77.2969 77.1133 77.7266 77.6211C78.1562 78.1289 78.3711 78.834 78.3711 79.7363V80.2402ZM77.3867 79.4258C77.3828 78.8711 77.248 78.4395 76.9824 78.1309C76.7207 77.8223 76.3555 77.668 75.8867 77.668C75.4336 77.668 75.0488 77.8301 74.7324 78.1543C74.416 78.4785 74.2207 78.9023 74.1465 79.4258H77.3867ZM84.8105 83H83.8496V79.5781C83.8496 78.3047 83.3848 77.668 82.4551 77.668C81.9746 77.668 81.5762 77.8496 81.2598 78.2129C80.9473 78.5723 80.791 79.0273 80.791 79.5781V83H79.8301V77H80.791V77.9961H80.8145C81.2676 77.2383 81.9238 76.8594 82.7832 76.8594C83.4395 76.8594 83.9414 77.0723 84.2891 77.498C84.6367 77.9199 84.8105 78.5312 84.8105 79.332V83ZM89.4102 82.9414C89.1836 83.0664 88.8848 83.1289 88.5137 83.1289C87.4629 83.1289 86.9375 82.543 86.9375 81.3711V77.8203H85.9062V77H86.9375V75.5352L87.8984 75.2246V77H89.4102V77.8203H87.8984V81.2012C87.8984 81.6035 87.9668 81.8906 88.1035 82.0625C88.2402 82.2344 88.4668 82.3203 88.7832 82.3203C89.0254 82.3203 89.2344 82.2539 89.4102 82.1211V82.9414ZM94.4785 75.4766C94.3066 75.4766 94.1602 75.418 94.0391 75.3008C93.918 75.1836 93.8574 75.0352 93.8574 74.8555C93.8574 74.6758 93.918 74.5273 94.0391 74.4102C94.1602 74.2891 94.3066 74.2285 94.4785 74.2285C94.6543 74.2285 94.8027 74.2891 94.9238 74.4102C95.0488 74.5273 95.1113 74.6758 95.1113 74.8555C95.1113 75.0273 95.0488 75.1738 94.9238 75.2949C94.8027 75.416 94.6543 75.4766 94.4785 75.4766ZM94.9473 83H93.9863V77H94.9473V83ZM96.5293 82.7832V81.752C97.0527 82.1387 97.6289 82.332 98.2578 82.332C99.1016 82.332 99.5234 82.0508 99.5234 81.4883C99.5234 81.3281 99.4863 81.1934 99.4121 81.084C99.3418 80.9707 99.2441 80.8711 99.1191 80.7852C98.998 80.6992 98.8535 80.623 98.6855 80.5566C98.5215 80.4863 98.3438 80.4141 98.1523 80.3398C97.8867 80.2344 97.6523 80.1289 97.4492 80.0234C97.25 79.9141 97.082 79.793 96.9453 79.6602C96.8125 79.5234 96.7109 79.3691 96.6406 79.1973C96.5742 79.0254 96.541 78.8242 96.541 78.5938C96.541 78.3125 96.6055 78.0645 96.7344 77.8496C96.8633 77.6309 97.0352 77.4492 97.25 77.3047C97.4648 77.1562 97.709 77.0449 97.9824 76.9707C98.2598 76.8965 98.5449 76.8594 98.8379 76.8594C99.3574 76.8594 99.8223 76.9492 100.232 77.1289V78.1016C99.791 77.8125 99.2832 77.668 98.709 77.668C98.5293 77.668 98.3672 77.6895 98.2227 77.7324C98.0781 77.7715 97.9531 77.8281 97.8477 77.9023C97.7461 77.9766 97.666 78.0664 97.6074 78.1719C97.5527 78.2734 97.5254 78.3867 97.5254 78.5117C97.5254 78.668 97.5527 78.7988 97.6074 78.9043C97.666 79.0098 97.75 79.1035 97.8594 79.1855C97.9688 79.2676 98.1016 79.3418 98.2578 79.4082C98.4141 79.4746 98.5918 79.5469 98.791 79.625C99.0566 79.7266 99.2949 79.832 99.5059 79.9414C99.7168 80.0469 99.8965 80.168 100.045 80.3047C100.193 80.4375 100.307 80.5918 100.385 80.7676C100.467 80.9434 100.508 81.1523 100.508 81.3945C100.508 81.6914 100.441 81.9492 100.309 82.168C100.18 82.3867 100.006 82.5684 99.7871 82.7129C99.5684 82.8574 99.3164 82.9648 99.0312 83.0352C98.7461 83.1055 98.4473 83.1406 98.1348 83.1406C97.5176 83.1406 96.9824 83.0215 96.5293 82.7832ZM63.0664 99H62.1055V95.5547C62.1055 94.8906 62.002 94.4102 61.7949 94.1133C61.5918 93.8164 61.248 93.668 60.7637 93.668C60.3535 93.668 60.0039 93.8555 59.7148 94.2305C59.4297 94.6055 59.2871 95.0547 59.2871 95.5781V99H58.3262V95.4375C58.3262 94.2578 57.8711 93.668 56.9609 93.668C56.5391 93.668 56.1914 93.8457 55.918 94.2012C55.6445 94.5527 55.5078 95.0117 55.5078 95.5781V99H54.5469V93H55.5078V93.9492H55.5312C55.957 93.2227 56.5781 92.8594 57.3945 92.8594C57.8047 92.8594 58.1621 92.9746 58.4668 93.2051C58.7715 93.4316 58.9805 93.7305 59.0938 94.1016C59.5391 93.2734 60.2031 92.8594 61.0859 92.8594C62.4062 92.8594 63.0664 93.6738 63.0664 95.3027V99ZM69.1777 99H68.2168V98.0625H68.1934C67.7754 98.7812 67.1602 99.1406 66.3477 99.1406C65.75 99.1406 65.2812 98.9824 64.9414 98.666C64.6055 98.3496 64.4375 97.9297 64.4375 97.4062C64.4375 96.2852 65.0977 95.6328 66.418 95.4492L68.2168 95.1973C68.2168 94.1777 67.8047 93.668 66.9805 93.668C66.2578 93.668 65.6055 93.9141 65.0234 94.4062V93.4219C65.6133 93.0469 66.293 92.8594 67.0625 92.8594C68.4727 92.8594 69.1777 93.6055 69.1777 95.0977V99ZM68.2168 95.9648L66.7695 96.1641C66.3242 96.2266 65.9883 96.3379 65.7617 96.498C65.5352 96.6543 65.4219 96.9336 65.4219 97.3359C65.4219 97.6289 65.5254 97.8691 65.7324 98.0566C65.9434 98.2402 66.2227 98.332 66.5703 98.332C67.0469 98.332 67.4395 98.166 67.748 97.834C68.0605 97.498 68.2168 97.0742 68.2168 96.5625V95.9648ZM70.625 98.7832V97.752C71.1484 98.1387 71.7246 98.332 72.3535 98.332C73.1973 98.332 73.6191 98.0508 73.6191 97.4883C73.6191 97.3281 73.582 97.1934 73.5078 97.084C73.4375 96.9707 73.3398 96.8711 73.2148 96.7852C73.0938 96.6992 72.9492 96.623 72.7812 96.5566C72.6172 96.4863 72.4395 96.4141 72.248 96.3398C71.9824 96.2344 71.748 96.1289 71.5449 96.0234C71.3457 95.9141 71.1777 95.793 71.041 95.6602C70.9082 95.5234 70.8066 95.3691 70.7363 95.1973C70.6699 95.0254 70.6367 94.8242 70.6367 94.5938C70.6367 94.3125 70.7012 94.0645 70.8301 93.8496C70.959 93.6309 71.1309 93.4492 71.3457 93.3047C71.5605 93.1562 71.8047 93.0449 72.0781 92.9707C72.3555 92.8965 72.6406 92.8594 72.9336 92.8594C73.4531 92.8594 73.918 92.9492 74.3281 93.1289V94.1016C73.8867 93.8125 73.3789 93.668 72.8047 93.668C72.625 93.668 72.4629 93.6895 72.3184 93.7324C72.1738 93.7715 72.0488 93.8281 71.9434 93.9023C71.8418 93.9766 71.7617 94.0664 71.7031 94.1719C71.6484 94.2734 71.6211 94.3867 71.6211 94.5117C71.6211 94.668 71.6484 94.7988 71.7031 94.9043C71.7617 95.0098 71.8457 95.1035 71.9551 95.1855C72.0645 95.2676 72.1973 95.3418 72.3535 95.4082C72.5098 95.4746 72.6875 95.5469 72.8867 95.625C73.1523 95.7266 73.3906 95.832 73.6016 95.9414C73.8125 96.0469 73.9922 96.168 74.1406 96.3047C74.2891 96.4375 74.4023 96.5918 74.4805 96.7676C74.5625 96.9434 74.6035 97.1523 74.6035 97.3945C74.6035 97.6914 74.5371 97.9492 74.4043 98.168C74.2754 98.3867 74.1016 98.5684 73.8828 98.7129C73.6641 98.8574 73.4121 98.9648 73.127 99.0352C72.8418 99.1055 72.543 99.1406 72.2305 99.1406C71.6133 99.1406 71.0781 99.0215 70.625 98.7832ZM81.0664 99H79.7188L77.0703 96.1172H77.0469V99H76.0859V90.1172H77.0469V95.748H77.0703L79.5898 93H80.8496L78.0664 95.8945L81.0664 99ZM86.873 96.2402H82.6367C82.6523 96.9082 82.832 97.4238 83.1758 97.7871C83.5195 98.1504 83.9922 98.332 84.5938 98.332C85.2695 98.332 85.8906 98.1094 86.457 97.6641V98.5664C85.9297 98.9492 85.2324 99.1406 84.3652 99.1406C83.5176 99.1406 82.8516 98.8691 82.3672 98.3262C81.8828 97.7793 81.6406 97.0117 81.6406 96.0234C81.6406 95.0898 81.9043 94.3301 82.4316 93.7441C82.9629 93.1543 83.6211 92.8594 84.4062 92.8594C85.1914 92.8594 85.7988 93.1133 86.2285 93.6211C86.6582 94.1289 86.873 94.834 86.873 95.7363V96.2402ZM85.8887 95.4258C85.8848 94.8711 85.75 94.4395 85.4844 94.1309C85.2227 93.8223 84.8574 93.668 84.3887 93.668C83.9355 93.668 83.5508 93.8301 83.2344 94.1543C82.918 94.4785 82.7227 94.9023 82.6484 95.4258H85.8887ZM93.4531 99H92.4922V97.9805H92.4688C92.0234 98.7539 91.3359 99.1406 90.4062 99.1406C89.6523 99.1406 89.0488 98.873 88.5957 98.3379C88.1465 97.7988 87.9219 97.0664 87.9219 96.1406C87.9219 95.1484 88.1719 94.3535 88.6719 93.7559C89.1719 93.1582 89.8379 92.8594 90.6699 92.8594C91.4941 92.8594 92.0938 93.1836 92.4688 93.832H92.4922V90.1172H93.4531V99ZM92.4922 96.2871V95.4023C92.4922 94.918 92.332 94.5078 92.0117 94.1719C91.6914 93.8359 91.2852 93.668 90.793 93.668C90.207 93.668 89.7461 93.8828 89.4102 94.3125C89.0742 94.7422 88.9062 95.3359 88.9062 96.0938C88.9062 96.7852 89.0664 97.332 89.3867 97.7344C89.7109 98.1328 90.1445 98.332 90.6875 98.332C91.2227 98.332 91.6562 98.1387 91.9883 97.752C92.3242 97.3652 92.4922 96.877 92.4922 96.2871Z" fill="#020057"/>
</g>
<defs>
<filter id="filter0_dd_3871_164733" x="0.8" y="2.38419e-07" width="146.4" height="146.4" filterUnits="userSpaceOnUse" color-interpolation-filters="sRGB">
<feFlood flood-opacity="0" result="BackgroundImageFix"/>
<feColorMatrix in="SourceAlpha" type="matrix" values="0 0 0 0 0 0 0 0 0 0 0 0 0 0 0 0 0 0 127 0" result="hardAlpha"/>
<feOffset dy="3.2"/>
<feGaussianBlur stdDeviation="3.6"/>
<feColorMatrix type="matrix" values="0 0 0 0 0.513726 0 0 0 0 0.494118 0 0 0 0 1 0 0 0 0.12 0"/>
<feBlend mode="normal" in2="BackgroundImageFix" result="effect1_dropShadow_3871_164733"/>
<feColorMatrix in="SourceAlpha" type="matrix" values="0 0 0 0 0 0 0 0 0 0 0 0 0 0 0 0 0 0 127 0" result="hardAlpha"/>
<feOffset dy="0.6"/>
<feGaussianBlur stdDeviation="0.9"/>
<feColorMatrix type="matrix" values="0 0 0 0 0.513726 0 0 0 0 0.494118 0 0 0 0 1 0 0 0 0.1 0"/>
<feBlend mode="normal" in2="effect1_dropShadow_3871_164733" result="effect2_dropShadow_3871_164733"/>
<feBlend mode="normal" in="SourceGraphic" in2="effect2_dropShadow_3871_164733" result="shape"/>
</filter>
</defs>
</svg>
