<svg width="100%" viewBox="0 0 100 80" fill="none" xmlns="http://www.w3.org/2000/svg">
<rect width="100" height="80" fill="#FBFBFE"/>
<path d="M40.2197 10.2197C39.9534 10.4859 39.9292 10.9026 40.1471 11.1962L40.2197 11.2803L44.2542 15.3149C42.3322 16.6644 40.8958 18.6799 40.2989 21.0644C40.1983 21.4662 40.4425 21.8735 40.8443 21.9741C41.2461 22.0746 41.6534 21.8305 41.754 21.4286C42.2835 19.3135 43.5911 17.5395 45.3342 16.3945L47.1438 18.2043C46.4363 18.9258 46 19.9143 46 21.0046C46 23.2138 47.7909 25.0046 50 25.0046C51.0904 25.0046 52.0788 24.5683 52.8004 23.8608L58.7197 29.7803C59.0126 30.0732 59.4874 30.0732 59.7803 29.7803C60.0466 29.5141 60.0708 29.0974 59.8529 28.8038L59.7803 28.7197L53.6668 22.6055L53.668 22.604L52.4679 21.4061L49.598 18.5368L49.6 18.536L46.7188 15.6578L46.72 15.656L45.5867 14.5255L41.2803 10.2197C40.9874 9.92678 40.5126 9.92678 40.2197 10.2197ZM48.2041 19.2655L51.7392 22.8006C51.2892 23.2364 50.6759 23.5046 50 23.5046C48.6193 23.5046 47.5 22.3853 47.5 21.0046C47.5 20.3287 47.7682 19.7154 48.2041 19.2655ZM50 13.5C48.9997 13.5 48.0291 13.6481 47.1111 13.925L48.3481 15.1612C48.8839 15.0553 49.4364 15 50 15C53.9231 15 57.3099 17.6803 58.2471 21.4332C58.3475 21.835 58.7546 22.0794 59.1565 21.9791C59.5584 21.8787 59.8028 21.4716 59.7024 21.0697C58.5994 16.6527 54.6155 13.5 50 13.5ZM50.1947 17.0093L53.996 20.81C53.8942 18.7531 52.2472 17.1076 50.1947 17.0093Z" fill="#020057"/>
<path d="M28.5371 53H24.084V44.5977H28.3496V45.4883H25.0684V48.2832H28.1035V49.168H25.0684V52.1094H28.5371V53ZM30.9863 53H30.0254V44.1172H30.9863V53ZM37.7539 50.2402H33.5176C33.5332 50.9082 33.7129 51.4238 34.0566 51.7871C34.4004 52.1504 34.873 52.332 35.4746 52.332C36.1504 52.332 36.7715 52.1094 37.3379 51.6641V52.5664C36.8105 52.9492 36.1133 53.1406 35.2461 53.1406C34.3984 53.1406 33.7324 52.8691 33.248 52.3262C32.7637 51.7793 32.5215 51.0117 32.5215 50.0234C32.5215 49.0898 32.7852 48.3301 33.3125 47.7441C33.8438 47.1543 34.502 46.8594 35.2871 46.8594C36.0723 46.8594 36.6797 47.1133 37.1094 47.6211C37.5391 48.1289 37.7539 48.834 37.7539 49.7363V50.2402ZM36.7695 49.4258C36.7656 48.8711 36.6309 48.4395 36.3652 48.1309C36.1035 47.8223 35.7383 47.668 35.2695 47.668C34.8164 47.668 34.4316 47.8301 34.1152 48.1543C33.7988 48.4785 33.6035 48.9023 33.5293 49.4258H36.7695ZM47.7324 53H46.7715V49.5547C46.7715 48.8906 46.668 48.4102 46.4609 48.1133C46.2578 47.8164 45.9141 47.668 45.4297 47.668C45.0195 47.668 44.6699 47.8555 44.3809 48.2305C44.0957 48.6055 43.9531 49.0547 43.9531 49.5781V53H42.9922V49.4375C42.9922 48.2578 42.5371 47.668 41.627 47.668C41.2051 47.668 40.8574 47.8457 40.584 48.2012C40.3105 48.5527 40.1738 49.0117 40.1738 49.5781V53H39.2129V47H40.1738V47.9492H40.1973C40.623 47.2227 41.2441 46.8594 42.0605 46.8594C42.4707 46.8594 42.8281 46.9746 43.1328 47.2051C43.4375 47.4316 43.6465 47.7305 43.7598 48.1016C44.2051 47.2734 44.8691 46.8594 45.752 46.8594C47.0723 46.8594 47.7324 47.6738 47.7324 49.3027V53ZM54.3711 50.2402H50.1348C50.1504 50.9082 50.3301 51.4238 50.6738 51.7871C51.0176 52.1504 51.4902 52.332 52.0918 52.332C52.7676 52.332 53.3887 52.1094 53.9551 51.6641V52.5664C53.4277 52.9492 52.7305 53.1406 51.8633 53.1406C51.0156 53.1406 50.3496 52.8691 49.8652 52.3262C49.3809 51.7793 49.1387 51.0117 49.1387 50.0234C49.1387 49.0898 49.4023 48.3301 49.9297 47.7441C50.4609 47.1543 51.1191 46.8594 51.9043 46.8594C52.6895 46.8594 53.2969 47.1133 53.7266 47.6211C54.1562 48.1289 54.3711 48.834 54.3711 49.7363V50.2402ZM53.3867 49.4258C53.3828 48.8711 53.248 48.4395 52.9824 48.1309C52.7207 47.8223 52.3555 47.668 51.8867 47.668C51.4336 47.668 51.0488 47.8301 50.7324 48.1543C50.416 48.4785 50.2207 48.9023 50.1465 49.4258H53.3867ZM60.8105 53H59.8496V49.5781C59.8496 48.3047 59.3848 47.668 58.4551 47.668C57.9746 47.668 57.5762 47.8496 57.2598 48.2129C56.9473 48.5723 56.791 49.0273 56.791 49.5781V53H55.8301V47H56.791V47.9961H56.8145C57.2676 47.2383 57.9238 46.8594 58.7832 46.8594C59.4395 46.8594 59.9414 47.0723 60.2891 47.498C60.6367 47.9199 60.8105 48.5312 60.8105 49.332V53ZM65.4102 52.9414C65.1836 53.0664 64.8848 53.1289 64.5137 53.1289C63.4629 53.1289 62.9375 52.543 62.9375 51.3711V47.8203H61.9062V47H62.9375V45.5352L63.8984 45.2246V47H65.4102V47.8203H63.8984V51.2012C63.8984 51.6035 63.9668 51.8906 64.1035 52.0625C64.2402 52.2344 64.4668 52.3203 64.7832 52.3203C65.0254 52.3203 65.2344 52.2539 65.4102 52.1211V52.9414ZM70.4785 45.4766C70.3066 45.4766 70.1602 45.418 70.0391 45.3008C69.918 45.1836 69.8574 45.0352 69.8574 44.8555C69.8574 44.6758 69.918 44.5273 70.0391 44.4102C70.1602 44.2891 70.3066 44.2285 70.4785 44.2285C70.6543 44.2285 70.8027 44.2891 70.9238 44.4102C71.0488 44.5273 71.1113 44.6758 71.1113 44.8555C71.1113 45.0273 71.0488 45.1738 70.9238 45.2949C70.8027 45.416 70.6543 45.4766 70.4785 45.4766ZM70.9473 53H69.9863V47H70.9473V53ZM72.5293 52.7832V51.752C73.0527 52.1387 73.6289 52.332 74.2578 52.332C75.1016 52.332 75.5234 52.0508 75.5234 51.4883C75.5234 51.3281 75.4863 51.1934 75.4121 51.084C75.3418 50.9707 75.2441 50.8711 75.1191 50.7852C74.998 50.6992 74.8535 50.623 74.6855 50.5566C74.5215 50.4863 74.3438 50.4141 74.1523 50.3398C73.8867 50.2344 73.6523 50.1289 73.4492 50.0234C73.25 49.9141 73.082 49.793 72.9453 49.6602C72.8125 49.5234 72.7109 49.3691 72.6406 49.1973C72.5742 49.0254 72.541 48.8242 72.541 48.5938C72.541 48.3125 72.6055 48.0645 72.7344 47.8496C72.8633 47.6309 73.0352 47.4492 73.25 47.3047C73.4648 47.1562 73.709 47.0449 73.9824 46.9707C74.2598 46.8965 74.5449 46.8594 74.8379 46.8594C75.3574 46.8594 75.8223 46.9492 76.2324 47.1289V48.1016C75.791 47.8125 75.2832 47.668 74.709 47.668C74.5293 47.668 74.3672 47.6895 74.2227 47.7324C74.0781 47.7715 73.9531 47.8281 73.8477 47.9023C73.7461 47.9766 73.666 48.0664 73.6074 48.1719C73.5527 48.2734 73.5254 48.3867 73.5254 48.5117C73.5254 48.668 73.5527 48.7988 73.6074 48.9043C73.666 49.0098 73.75 49.1035 73.8594 49.1855C73.9688 49.2676 74.1016 49.3418 74.2578 49.4082C74.4141 49.4746 74.5918 49.5469 74.791 49.625C75.0566 49.7266 75.2949 49.832 75.5059 49.9414C75.7168 50.0469 75.8965 50.168 76.0449 50.3047C76.1934 50.4375 76.3066 50.5918 76.3848 50.7676C76.4668 50.9434 76.5078 51.1523 76.5078 51.3945C76.5078 51.6914 76.4414 51.9492 76.3086 52.168C76.1797 52.3867 76.0059 52.5684 75.7871 52.7129C75.5684 52.8574 75.3164 52.9648 75.0312 53.0352C74.7461 53.1055 74.4473 53.1406 74.1348 53.1406C73.5176 53.1406 72.9824 53.0215 72.5293 52.7832ZM39.0664 69H38.1055V65.5547C38.1055 64.8906 38.002 64.4102 37.7949 64.1133C37.5918 63.8164 37.248 63.668 36.7637 63.668C36.3535 63.668 36.0039 63.8555 35.7148 64.2305C35.4297 64.6055 35.2871 65.0547 35.2871 65.5781V69H34.3262V65.4375C34.3262 64.2578 33.8711 63.668 32.9609 63.668C32.5391 63.668 32.1914 63.8457 31.918 64.2012C31.6445 64.5527 31.5078 65.0117 31.5078 65.5781V69H30.5469V63H31.5078V63.9492H31.5312C31.957 63.2227 32.5781 62.8594 33.3945 62.8594C33.8047 62.8594 34.1621 62.9746 34.4668 63.2051C34.7715 63.4316 34.9805 63.7305 35.0938 64.1016C35.5391 63.2734 36.2031 62.8594 37.0859 62.8594C38.4062 62.8594 39.0664 63.6738 39.0664 65.3027V69ZM45.1777 69H44.2168V68.0625H44.1934C43.7754 68.7812 43.1602 69.1406 42.3477 69.1406C41.75 69.1406 41.2812 68.9824 40.9414 68.666C40.6055 68.3496 40.4375 67.9297 40.4375 67.4062C40.4375 66.2852 41.0977 65.6328 42.418 65.4492L44.2168 65.1973C44.2168 64.1777 43.8047 63.668 42.9805 63.668C42.2578 63.668 41.6055 63.9141 41.0234 64.4062V63.4219C41.6133 63.0469 42.293 62.8594 43.0625 62.8594C44.4727 62.8594 45.1777 63.6055 45.1777 65.0977V69ZM44.2168 65.9648L42.7695 66.1641C42.3242 66.2266 41.9883 66.3379 41.7617 66.498C41.5352 66.6543 41.4219 66.9336 41.4219 67.3359C41.4219 67.6289 41.5254 67.8691 41.7324 68.0566C41.9434 68.2402 42.2227 68.332 42.5703 68.332C43.0469 68.332 43.4395 68.166 43.748 67.834C44.0605 67.498 44.2168 67.0742 44.2168 66.5625V65.9648ZM46.625 68.7832V67.752C47.1484 68.1387 47.7246 68.332 48.3535 68.332C49.1973 68.332 49.6191 68.0508 49.6191 67.4883C49.6191 67.3281 49.582 67.1934 49.5078 67.084C49.4375 66.9707 49.3398 66.8711 49.2148 66.7852C49.0938 66.6992 48.9492 66.623 48.7812 66.5566C48.6172 66.4863 48.4395 66.4141 48.248 66.3398C47.9824 66.2344 47.748 66.1289 47.5449 66.0234C47.3457 65.9141 47.1777 65.793 47.041 65.6602C46.9082 65.5234 46.8066 65.3691 46.7363 65.1973C46.6699 65.0254 46.6367 64.8242 46.6367 64.5938C46.6367 64.3125 46.7012 64.0645 46.8301 63.8496C46.959 63.6309 47.1309 63.4492 47.3457 63.3047C47.5605 63.1562 47.8047 63.0449 48.0781 62.9707C48.3555 62.8965 48.6406 62.8594 48.9336 62.8594C49.4531 62.8594 49.918 62.9492 50.3281 63.1289V64.1016C49.8867 63.8125 49.3789 63.668 48.8047 63.668C48.625 63.668 48.4629 63.6895 48.3184 63.7324C48.1738 63.7715 48.0488 63.8281 47.9434 63.9023C47.8418 63.9766 47.7617 64.0664 47.7031 64.1719C47.6484 64.2734 47.6211 64.3867 47.6211 64.5117C47.6211 64.668 47.6484 64.7988 47.7031 64.9043C47.7617 65.0098 47.8457 65.1035 47.9551 65.1855C48.0645 65.2676 48.1973 65.3418 48.3535 65.4082C48.5098 65.4746 48.6875 65.5469 48.8867 65.625C49.1523 65.7266 49.3906 65.832 49.6016 65.9414C49.8125 66.0469 49.9922 66.168 50.1406 66.3047C50.2891 66.4375 50.4023 66.5918 50.4805 66.7676C50.5625 66.9434 50.6035 67.1523 50.6035 67.3945C50.6035 67.6914 50.5371 67.9492 50.4043 68.168C50.2754 68.3867 50.1016 68.5684 49.8828 68.7129C49.6641 68.8574 49.4121 68.9648 49.127 69.0352C48.8418 69.1055 48.543 69.1406 48.2305 69.1406C47.6133 69.1406 47.0781 69.0215 46.625 68.7832ZM57.0664 69H55.7188L53.0703 66.1172H53.0469V69H52.0859V60.1172H53.0469V65.748H53.0703L55.5898 63H56.8496L54.0664 65.8945L57.0664 69ZM62.873 66.2402H58.6367C58.6523 66.9082 58.832 67.4238 59.1758 67.7871C59.5195 68.1504 59.9922 68.332 60.5938 68.332C61.2695 68.332 61.8906 68.1094 62.457 67.6641V68.5664C61.9297 68.9492 61.2324 69.1406 60.3652 69.1406C59.5176 69.1406 58.8516 68.8691 58.3672 68.3262C57.8828 67.7793 57.6406 67.0117 57.6406 66.0234C57.6406 65.0898 57.9043 64.3301 58.4316 63.7441C58.9629 63.1543 59.6211 62.8594 60.4062 62.8594C61.1914 62.8594 61.7988 63.1133 62.2285 63.6211C62.6582 64.1289 62.873 64.834 62.873 65.7363V66.2402ZM61.8887 65.4258C61.8848 64.8711 61.75 64.4395 61.4844 64.1309C61.2227 63.8223 60.8574 63.668 60.3887 63.668C59.9355 63.668 59.5508 63.8301 59.2344 64.1543C58.918 64.4785 58.7227 64.9023 58.6484 65.4258H61.8887ZM69.4531 69H68.4922V67.9805H68.4688C68.0234 68.7539 67.3359 69.1406 66.4062 69.1406C65.6523 69.1406 65.0488 68.873 64.5957 68.3379C64.1465 67.7988 63.9219 67.0664 63.9219 66.1406C63.9219 65.1484 64.1719 64.3535 64.6719 63.7559C65.1719 63.1582 65.8379 62.8594 66.6699 62.8594C67.4941 62.8594 68.0938 63.1836 68.4688 63.832H68.4922V60.1172H69.4531V69ZM68.4922 66.2871V65.4023C68.4922 64.918 68.332 64.5078 68.0117 64.1719C67.6914 63.8359 67.2852 63.668 66.793 63.668C66.207 63.668 65.7461 63.8828 65.4102 64.3125C65.0742 64.7422 64.9062 65.3359 64.9062 66.0938C64.9062 66.7852 65.0664 67.332 65.3867 67.7344C65.7109 68.1328 66.1445 68.332 66.6875 68.332C67.2227 68.332 67.6562 68.1387 67.9883 67.752C68.3242 67.3652 68.4922 66.877 68.4922 66.2871Z" fill="#020057"/>
</svg>
