<svg width="100%" viewBox="0 0 148 147" fill="none" xmlns="http://www.w3.org/2000/svg">
<g filter="url(#filter0_dd_3871_164749)">
<rect x="8" y="4" width="132" height="132" fill="#FBFBFE"/>
<rect x="8.5" y="4.5" width="131" height="131" stroke="#827DFF" stroke-dasharray="4 4"/>
<rect width="100" height="80" transform="translate(24 30)" fill="#FBFBFE"/>
<path d="M64.2197 40.2197C63.9534 40.4859 63.9292 40.9026 64.1471 41.1962L64.2197 41.2803L68.2542 45.3149C66.3322 46.6644 64.8958 48.6799 64.2989 51.0644C64.1983 51.4662 64.4425 51.8735 64.8443 51.9741C65.2461 52.0746 65.6534 51.8305 65.754 51.4286C66.2835 49.3135 67.5911 47.5395 69.3342 46.3945L71.1438 48.2043C70.4363 48.9258 70 49.9143 70 51.0046C70 53.2138 71.7909 55.0046 74 55.0046C75.0904 55.0046 76.0788 54.5683 76.8004 53.8608L82.7197 59.7803C83.0126 60.0732 83.4874 60.0732 83.7803 59.7803C84.0466 59.5141 84.0708 59.0974 83.8529 58.8038L83.7803 58.7197L77.6668 52.6055L77.668 52.604L76.4679 51.4061L73.598 48.5368L73.6 48.536L70.7188 45.6578L70.72 45.656L69.5867 44.5255L65.2803 40.2197C64.9874 39.9268 64.5126 39.9268 64.2197 40.2197ZM72.2041 49.2655L75.7392 52.8006C75.2892 53.2364 74.6759 53.5046 74 53.5046C72.6193 53.5046 71.5 52.3853 71.5 51.0046C71.5 50.3287 71.7682 49.7154 72.2041 49.2655ZM74 43.5C72.9997 43.5 72.0291 43.6481 71.1111 43.925L72.3481 45.1612C72.8839 45.0553 73.4364 45 74 45C77.9231 45 81.3099 47.6803 82.2471 51.4332C82.3475 51.835 82.7546 52.0794 83.1565 51.9791C83.5584 51.8787 83.8028 51.4716 83.7024 51.0697C82.5994 46.6527 78.6155 43.5 74 43.5ZM74.1947 47.0093L77.996 50.81C77.8942 48.7531 76.2472 47.1076 74.1947 47.0093Z" fill="#020057"/>
<path d="M44.416 83H40.0566V74.5977H41.041V82.1094H44.416V83ZM46.7598 74.457L45.9395 77.0703H45.248L45.8984 74.457H46.7598ZM53.1523 80.2402H48.916C48.9316 80.9082 49.1113 81.4238 49.4551 81.7871C49.7988 82.1504 50.2715 82.332 50.873 82.332C51.5488 82.332 52.1699 82.1094 52.7363 81.6641V82.5664C52.209 82.9492 51.5117 83.1406 50.6445 83.1406C49.7969 83.1406 49.1309 82.8691 48.6465 82.3262C48.1621 81.7793 47.9199 81.0117 47.9199 80.0234C47.9199 79.0898 48.1836 78.3301 48.7109 77.7441C49.2422 77.1543 49.9004 76.8594 50.6855 76.8594C51.4707 76.8594 52.0781 77.1133 52.5078 77.6211C52.9375 78.1289 53.1523 78.834 53.1523 79.7363V80.2402ZM52.168 79.4258C52.1641 78.8711 52.0293 78.4395 51.7637 78.1309C51.502 77.8223 51.1367 77.668 50.668 77.668C50.2148 77.668 49.8301 77.8301 49.5137 78.1543C49.1973 78.4785 49.002 78.9023 48.9277 79.4258H52.168ZM52.0156 73.9414L50.4805 75.8633H49.7363L51.043 73.9414H52.0156ZM55.5723 83H54.6113V74.1172H55.5723V83ZM62.3398 80.2402H58.1035C58.1191 80.9082 58.2988 81.4238 58.6426 81.7871C58.9863 82.1504 59.459 82.332 60.0605 82.332C60.7363 82.332 61.3574 82.1094 61.9238 81.6641V82.5664C61.3965 82.9492 60.6992 83.1406 59.832 83.1406C58.9844 83.1406 58.3184 82.8691 57.834 82.3262C57.3496 81.7793 57.1074 81.0117 57.1074 80.0234C57.1074 79.0898 57.3711 78.3301 57.8984 77.7441C58.4297 77.1543 59.0879 76.8594 59.873 76.8594C60.6582 76.8594 61.2656 77.1133 61.6953 77.6211C62.125 78.1289 62.3398 78.834 62.3398 79.7363V80.2402ZM61.3555 79.4258C61.3516 78.8711 61.2168 78.4395 60.9512 78.1309C60.6895 77.8223 60.3242 77.668 59.8555 77.668C59.4023 77.668 59.0176 77.8301 58.7012 78.1543C58.3848 78.4785 58.1895 78.9023 58.1152 79.4258H61.3555ZM61.2031 73.9414L59.668 75.8633H58.9238L60.2305 73.9414H61.2031ZM72.3184 83H71.3574V79.5547C71.3574 78.8906 71.2539 78.4102 71.0469 78.1133C70.8438 77.8164 70.5 77.668 70.0156 77.668C69.6055 77.668 69.2559 77.8555 68.9668 78.2305C68.6816 78.6055 68.5391 79.0547 68.5391 79.5781V83H67.5781V79.4375C67.5781 78.2578 67.123 77.668 66.2129 77.668C65.791 77.668 65.4434 77.8457 65.1699 78.2012C64.8965 78.5527 64.7598 79.0117 64.7598 79.5781V83H63.7988V77H64.7598V77.9492H64.7832C65.209 77.2227 65.8301 76.8594 66.6465 76.8594C67.0566 76.8594 67.4141 76.9746 67.7188 77.2051C68.0234 77.4316 68.2324 77.7305 68.3457 78.1016C68.791 77.2734 69.4551 76.8594 70.3379 76.8594C71.6582 76.8594 72.3184 77.6738 72.3184 79.3027V83ZM78.957 80.2402H74.7207C74.7363 80.9082 74.916 81.4238 75.2598 81.7871C75.6035 82.1504 76.0762 82.332 76.6777 82.332C77.3535 82.332 77.9746 82.1094 78.541 81.6641V82.5664C78.0137 82.9492 77.3164 83.1406 76.4492 83.1406C75.6016 83.1406 74.9355 82.8691 74.4512 82.3262C73.9668 81.7793 73.7246 81.0117 73.7246 80.0234C73.7246 79.0898 73.9883 78.3301 74.5156 77.7441C75.0469 77.1543 75.7051 76.8594 76.4902 76.8594C77.2754 76.8594 77.8828 77.1133 78.3125 77.6211C78.7422 78.1289 78.957 78.834 78.957 79.7363V80.2402ZM77.9727 79.4258C77.9688 78.8711 77.834 78.4395 77.5684 78.1309C77.3066 77.8223 76.9414 77.668 76.4727 77.668C76.0195 77.668 75.6348 77.8301 75.3184 78.1543C75.002 78.4785 74.8066 78.9023 74.7324 79.4258H77.9727ZM85.3965 83H84.4355V79.5781C84.4355 78.3047 83.9707 77.668 83.041 77.668C82.5605 77.668 82.1621 77.8496 81.8457 78.2129C81.5332 78.5723 81.377 79.0273 81.377 79.5781V83H80.416V77H81.377V77.9961H81.4004C81.8535 77.2383 82.5098 76.8594 83.3691 76.8594C84.0254 76.8594 84.5273 77.0723 84.875 77.498C85.2227 77.9199 85.3965 78.5312 85.3965 79.332V83ZM89.9961 82.9414C89.7695 83.0664 89.4707 83.1289 89.0996 83.1289C88.0488 83.1289 87.5234 82.543 87.5234 81.3711V77.8203H86.4922V77H87.5234V75.5352L88.4844 75.2246V77H89.9961V77.8203H88.4844V81.2012C88.4844 81.6035 88.5527 81.8906 88.6895 82.0625C88.8262 82.2344 89.0527 82.3203 89.3691 82.3203C89.6113 82.3203 89.8203 82.2539 89.9961 82.1211V82.9414ZM99.3945 80.2402H95.1582C95.1738 80.9082 95.3535 81.4238 95.6973 81.7871C96.041 82.1504 96.5137 82.332 97.1152 82.332C97.791 82.332 98.4121 82.1094 98.9785 81.6641V82.5664C98.4512 82.9492 97.7539 83.1406 96.8867 83.1406C96.0391 83.1406 95.373 82.8691 94.8887 82.3262C94.4043 81.7793 94.1621 81.0117 94.1621 80.0234C94.1621 79.0898 94.4258 78.3301 94.9531 77.7441C95.4844 77.1543 96.1426 76.8594 96.9277 76.8594C97.7129 76.8594 98.3203 77.1133 98.75 77.6211C99.1797 78.1289 99.3945 78.834 99.3945 79.7363V80.2402ZM98.4102 79.4258C98.4062 78.8711 98.2715 78.4395 98.0059 78.1309C97.7441 77.8223 97.3789 77.668 96.9102 77.668C96.457 77.668 96.0723 77.8301 95.7559 78.1543C95.4395 78.4785 95.2441 78.9023 95.1699 79.4258H98.4102ZM100.49 82.7832V81.752C101.014 82.1387 101.59 82.332 102.219 82.332C103.062 82.332 103.484 82.0508 103.484 81.4883C103.484 81.3281 103.447 81.1934 103.373 81.084C103.303 80.9707 103.205 80.8711 103.08 80.7852C102.959 80.6992 102.814 80.623 102.646 80.5566C102.482 80.4863 102.305 80.4141 102.113 80.3398C101.848 80.2344 101.613 80.1289 101.41 80.0234C101.211 79.9141 101.043 79.793 100.906 79.6602C100.773 79.5234 100.672 79.3691 100.602 79.1973C100.535 79.0254 100.502 78.8242 100.502 78.5938C100.502 78.3125 100.566 78.0645 100.695 77.8496C100.824 77.6309 100.996 77.4492 101.211 77.3047C101.426 77.1562 101.67 77.0449 101.943 76.9707C102.221 76.8965 102.506 76.8594 102.799 76.8594C103.318 76.8594 103.783 76.9492 104.193 77.1289V78.1016C103.752 77.8125 103.244 77.668 102.67 77.668C102.49 77.668 102.328 77.6895 102.184 77.7324C102.039 77.7715 101.914 77.8281 101.809 77.9023C101.707 77.9766 101.627 78.0664 101.568 78.1719C101.514 78.2734 101.486 78.3867 101.486 78.5117C101.486 78.668 101.514 78.7988 101.568 78.9043C101.627 79.0098 101.711 79.1035 101.82 79.1855C101.93 79.2676 102.062 79.3418 102.219 79.4082C102.375 79.4746 102.553 79.5469 102.752 79.625C103.018 79.7266 103.256 79.832 103.467 79.9414C103.678 80.0469 103.857 80.168 104.006 80.3047C104.154 80.4375 104.268 80.5918 104.346 80.7676C104.428 80.9434 104.469 81.1523 104.469 81.3945C104.469 81.6914 104.402 81.9492 104.27 82.168C104.141 82.3867 103.967 82.5684 103.748 82.7129C103.529 82.8574 103.277 82.9648 102.992 83.0352C102.707 83.1055 102.408 83.1406 102.096 83.1406C101.479 83.1406 100.943 83.0215 100.49 82.7832ZM108.734 82.9414C108.508 83.0664 108.209 83.1289 107.838 83.1289C106.787 83.1289 106.262 82.543 106.262 81.3711V77.8203H105.23V77H106.262V75.5352L107.223 75.2246V77H108.734V77.8203H107.223V81.2012C107.223 81.6035 107.291 81.8906 107.428 82.0625C107.564 82.2344 107.791 82.3203 108.107 82.3203C108.35 82.3203 108.559 82.2539 108.734 82.1211V82.9414ZM62.6504 99H61.6895V95.5547C61.6895 94.8906 61.5859 94.4102 61.3789 94.1133C61.1758 93.8164 60.832 93.668 60.3477 93.668C59.9375 93.668 59.5879 93.8555 59.2988 94.2305C59.0137 94.6055 58.8711 95.0547 58.8711 95.5781V99H57.9102V95.4375C57.9102 94.2578 57.4551 93.668 56.5449 93.668C56.123 93.668 55.7754 93.8457 55.502 94.2012C55.2285 94.5527 55.0918 95.0117 55.0918 95.5781V99H54.1309V93H55.0918V93.9492H55.1152C55.541 93.2227 56.1621 92.8594 56.9785 92.8594C57.3887 92.8594 57.7461 92.9746 58.0508 93.2051C58.3555 93.4316 58.5645 93.7305 58.6777 94.1016C59.123 93.2734 59.7871 92.8594 60.6699 92.8594C61.9902 92.8594 62.6504 93.6738 62.6504 95.3027V99ZM68.7617 99H67.8008V98.0625H67.7773C67.3594 98.7812 66.7441 99.1406 65.9316 99.1406C65.334 99.1406 64.8652 98.9824 64.5254 98.666C64.1895 98.3496 64.0215 97.9297 64.0215 97.4062C64.0215 96.2852 64.6816 95.6328 66.002 95.4492L67.8008 95.1973C67.8008 94.1777 67.3887 93.668 66.5645 93.668C65.8418 93.668 65.1895 93.9141 64.6074 94.4062V93.4219C65.1973 93.0469 65.877 92.8594 66.6465 92.8594C68.0566 92.8594 68.7617 93.6055 68.7617 95.0977V99ZM67.8008 95.9648L66.3535 96.1641C65.9082 96.2266 65.5723 96.3379 65.3457 96.498C65.1191 96.6543 65.0059 96.9336 65.0059 97.3359C65.0059 97.6289 65.1094 97.8691 65.3164 98.0566C65.5273 98.2402 65.8066 98.332 66.1543 98.332C66.6309 98.332 67.0234 98.166 67.332 97.834C67.6445 97.498 67.8008 97.0742 67.8008 96.5625V95.9648ZM70.209 98.7832V97.752C70.7324 98.1387 71.3086 98.332 71.9375 98.332C72.7812 98.332 73.2031 98.0508 73.2031 97.4883C73.2031 97.3281 73.166 97.1934 73.0918 97.084C73.0215 96.9707 72.9238 96.8711 72.7988 96.7852C72.6777 96.6992 72.5332 96.623 72.3652 96.5566C72.2012 96.4863 72.0234 96.4141 71.832 96.3398C71.5664 96.2344 71.332 96.1289 71.1289 96.0234C70.9297 95.9141 70.7617 95.793 70.625 95.6602C70.4922 95.5234 70.3906 95.3691 70.3203 95.1973C70.2539 95.0254 70.2207 94.8242 70.2207 94.5938C70.2207 94.3125 70.2852 94.0645 70.4141 93.8496C70.543 93.6309 70.7148 93.4492 70.9297 93.3047C71.1445 93.1562 71.3887 93.0449 71.6621 92.9707C71.9395 92.8965 72.2246 92.8594 72.5176 92.8594C73.0371 92.8594 73.502 92.9492 73.9121 93.1289V94.1016C73.4707 93.8125 72.9629 93.668 72.3887 93.668C72.209 93.668 72.0469 93.6895 71.9023 93.7324C71.7578 93.7715 71.6328 93.8281 71.5273 93.9023C71.4258 93.9766 71.3457 94.0664 71.2871 94.1719C71.2324 94.2734 71.2051 94.3867 71.2051 94.5117C71.2051 94.668 71.2324 94.7988 71.2871 94.9043C71.3457 95.0098 71.4297 95.1035 71.5391 95.1855C71.6484 95.2676 71.7812 95.3418 71.9375 95.4082C72.0938 95.4746 72.2715 95.5469 72.4707 95.625C72.7363 95.7266 72.9746 95.832 73.1855 95.9414C73.3965 96.0469 73.5762 96.168 73.7246 96.3047C73.873 96.4375 73.9863 96.5918 74.0645 96.7676C74.1465 96.9434 74.1875 97.1523 74.1875 97.3945C74.1875 97.6914 74.1211 97.9492 73.9883 98.168C73.8594 98.3867 73.6855 98.5684 73.4668 98.7129C73.248 98.8574 72.9961 98.9648 72.7109 99.0352C72.4258 99.1055 72.127 99.1406 71.8145 99.1406C71.1973 99.1406 70.6621 99.0215 70.209 98.7832ZM80.791 101.76H79.8301V97.9688H79.8066C79.3887 98.75 78.7051 99.1406 77.7559 99.1406C77.002 99.1406 76.3965 98.873 75.9395 98.3379C75.4863 97.7988 75.2598 97.0664 75.2598 96.1406C75.2598 95.1445 75.5098 94.3496 76.0098 93.7559C76.5098 93.1582 77.1816 92.8594 78.0254 92.8594C78.8457 92.8594 79.4395 93.1836 79.8066 93.832H79.8301V93H80.791V101.76ZM79.8301 96.2988V95.4258C79.8301 94.9336 79.668 94.5176 79.3438 94.1777C79.0234 93.8379 78.6152 93.668 78.1191 93.668C77.541 93.668 77.084 93.8828 76.748 94.3125C76.4121 94.7383 76.2441 95.3398 76.2441 96.1172C76.2441 96.8086 76.4062 97.3516 76.7305 97.7461C77.0547 98.1367 77.4727 98.332 77.9844 98.332C78.5469 98.332 78.9941 98.1406 79.3262 97.7578C79.6621 97.3711 79.8301 96.8848 79.8301 96.2988ZM87.5879 99H86.627V98.0508H86.6035C86.2051 98.7773 85.5879 99.1406 84.752 99.1406C83.3223 99.1406 82.6074 98.2891 82.6074 96.5859V93H83.5625V96.4336C83.5625 97.6992 84.0469 98.332 85.0156 98.332C85.4844 98.332 85.8691 98.1602 86.1699 97.8164C86.4746 97.4688 86.627 97.0156 86.627 96.457V93H87.5879V99ZM94.3555 96.2402H90.1191C90.1348 96.9082 90.3145 97.4238 90.6582 97.7871C91.002 98.1504 91.4746 98.332 92.0762 98.332C92.752 98.332 93.373 98.1094 93.9395 97.6641V98.5664C93.4121 98.9492 92.7148 99.1406 91.8477 99.1406C91 99.1406 90.334 98.8691 89.8496 98.3262C89.3652 97.7793 89.123 97.0117 89.123 96.0234C89.123 95.0898 89.3867 94.3301 89.9141 93.7441C90.4453 93.1543 91.1035 92.8594 91.8887 92.8594C92.6738 92.8594 93.2812 93.1133 93.7109 93.6211C94.1406 94.1289 94.3555 94.834 94.3555 95.7363V96.2402ZM93.3711 95.4258C93.3672 94.8711 93.2324 94.4395 92.9668 94.1309C92.7051 93.8223 92.3398 93.668 91.8711 93.668C91.418 93.668 91.0332 93.8301 90.7168 94.1543C90.4004 94.4785 90.2051 94.9023 90.1309 95.4258H93.3711Z" fill="#020057"/>
</g>
<defs>
<filter id="filter0_dd_3871_164749" x="0.8" y="2.38419e-07" width="146.4" height="146.4" filterUnits="userSpaceOnUse" color-interpolation-filters="sRGB">
<feFlood flood-opacity="0" result="BackgroundImageFix"/>
<feColorMatrix in="SourceAlpha" type="matrix" values="0 0 0 0 0 0 0 0 0 0 0 0 0 0 0 0 0 0 127 0" result="hardAlpha"/>
<feOffset dy="3.2"/>
<feGaussianBlur stdDeviation="3.6"/>
<feColorMatrix type="matrix" values="0 0 0 0 0.513726 0 0 0 0 0.494118 0 0 0 0 1 0 0 0 0.12 0"/>
<feBlend mode="normal" in2="BackgroundImageFix" result="effect1_dropShadow_3871_164749"/>
<feColorMatrix in="SourceAlpha" type="matrix" values="0 0 0 0 0 0 0 0 0 0 0 0 0 0 0 0 0 0 127 0" result="hardAlpha"/>
<feOffset dy="0.6"/>
<feGaussianBlur stdDeviation="0.9"/>
<feColorMatrix type="matrix" values="0 0 0 0 0.513726 0 0 0 0 0.494118 0 0 0 0 1 0 0 0 0.1 0"/>
<feBlend mode="normal" in2="effect1_dropShadow_3871_164749" result="effect2_dropShadow_3871_164749"/>
<feBlend mode="normal" in="SourceGraphic" in2="effect2_dropShadow_3871_164749" result="shape"/>
</filter>
</defs>
</svg>
