<svg width="100%" viewBox="0 0 100 80" fill="none" xmlns="http://www.w3.org/2000/svg">
<rect width="100" height="80" fill="#FBFBFE"/>
<path d="M40.2197 10.2197C39.9534 10.4859 39.9292 10.9026 40.1471 11.1962L40.2197 11.2803L44.2542 15.3149C42.3322 16.6644 40.8958 18.6799 40.2989 21.0644C40.1983 21.4662 40.4425 21.8735 40.8443 21.9741C41.2461 22.0746 41.6534 21.8305 41.754 21.4286C42.2835 19.3135 43.5911 17.5395 45.3342 16.3945L47.1438 18.2043C46.4363 18.9258 46 19.9143 46 21.0046C46 23.2138 47.7909 25.0046 50 25.0046C51.0904 25.0046 52.0788 24.5683 52.8004 23.8608L58.7197 29.7803C59.0126 30.0732 59.4874 30.0732 59.7803 29.7803C60.0466 29.5141 60.0708 29.0974 59.8529 28.8038L59.7803 28.7197L53.6668 22.6055L53.668 22.604L52.4679 21.4061L49.598 18.5368L49.6 18.536L46.7188 15.6578L46.72 15.656L45.5867 14.5255L41.2803 10.2197C40.9874 9.92678 40.5126 9.92678 40.2197 10.2197ZM48.2041 19.2655L51.7392 22.8006C51.2892 23.2364 50.6759 23.5046 50 23.5046C48.6193 23.5046 47.5 22.3853 47.5 21.0046C47.5 20.3287 47.7682 19.7154 48.2041 19.2655ZM50 13.5C48.9997 13.5 48.0291 13.6481 47.1111 13.925L48.3481 15.1612C48.8839 15.0553 49.4364 15 50 15C53.9231 15 57.3099 17.6803 58.2471 21.4332C58.3475 21.835 58.7546 22.0794 59.1565 21.9791C59.5584 21.8787 59.8028 21.4716 59.7024 21.0697C58.5994 16.6527 54.6155 13.5 50 13.5ZM50.1947 17.0093L53.996 20.81C53.8942 18.7531 52.2472 17.1076 50.1947 17.0093Z" fill="#020057"/>
<path d="M20.416 53H16.0566V44.5977H17.041V52.1094H20.416V53ZM22.7598 44.457L21.9395 47.0703H21.248L21.8984 44.457H22.7598ZM29.1523 50.2402H24.916C24.9316 50.9082 25.1113 51.4238 25.4551 51.7871C25.7988 52.1504 26.2715 52.332 26.873 52.332C27.5488 52.332 28.1699 52.1094 28.7363 51.6641V52.5664C28.209 52.9492 27.5117 53.1406 26.6445 53.1406C25.7969 53.1406 25.1309 52.8691 24.6465 52.3262C24.1621 51.7793 23.9199 51.0117 23.9199 50.0234C23.9199 49.0898 24.1836 48.3301 24.7109 47.7441C25.2422 47.1543 25.9004 46.8594 26.6855 46.8594C27.4707 46.8594 28.0781 47.1133 28.5078 47.6211C28.9375 48.1289 29.1523 48.834 29.1523 49.7363V50.2402ZM28.168 49.4258C28.1641 48.8711 28.0293 48.4395 27.7637 48.1309C27.502 47.8223 27.1367 47.668 26.668 47.668C26.2148 47.668 25.8301 47.8301 25.5137 48.1543C25.1973 48.4785 25.002 48.9023 24.9277 49.4258H28.168ZM28.0156 43.9414L26.4805 45.8633H25.7363L27.043 43.9414H28.0156ZM31.5723 53H30.6113V44.1172H31.5723V53ZM38.3398 50.2402H34.1035C34.1191 50.9082 34.2988 51.4238 34.6426 51.7871C34.9863 52.1504 35.459 52.332 36.0605 52.332C36.7363 52.332 37.3574 52.1094 37.9238 51.6641V52.5664C37.3965 52.9492 36.6992 53.1406 35.832 53.1406C34.9844 53.1406 34.3184 52.8691 33.834 52.3262C33.3496 51.7793 33.1074 51.0117 33.1074 50.0234C33.1074 49.0898 33.3711 48.3301 33.8984 47.7441C34.4297 47.1543 35.0879 46.8594 35.873 46.8594C36.6582 46.8594 37.2656 47.1133 37.6953 47.6211C38.125 48.1289 38.3398 48.834 38.3398 49.7363V50.2402ZM37.3555 49.4258C37.3516 48.8711 37.2168 48.4395 36.9512 48.1309C36.6895 47.8223 36.3242 47.668 35.8555 47.668C35.4023 47.668 35.0176 47.8301 34.7012 48.1543C34.3848 48.4785 34.1895 48.9023 34.1152 49.4258H37.3555ZM37.2031 43.9414L35.668 45.8633H34.9238L36.2305 43.9414H37.2031ZM48.3184 53H47.3574V49.5547C47.3574 48.8906 47.2539 48.4102 47.0469 48.1133C46.8438 47.8164 46.5 47.668 46.0156 47.668C45.6055 47.668 45.2559 47.8555 44.9668 48.2305C44.6816 48.6055 44.5391 49.0547 44.5391 49.5781V53H43.5781V49.4375C43.5781 48.2578 43.123 47.668 42.2129 47.668C41.791 47.668 41.4434 47.8457 41.1699 48.2012C40.8965 48.5527 40.7598 49.0117 40.7598 49.5781V53H39.7988V47H40.7598V47.9492H40.7832C41.209 47.2227 41.8301 46.8594 42.6465 46.8594C43.0566 46.8594 43.4141 46.9746 43.7188 47.2051C44.0234 47.4316 44.2324 47.7305 44.3457 48.1016C44.791 47.2734 45.4551 46.8594 46.3379 46.8594C47.6582 46.8594 48.3184 47.6738 48.3184 49.3027V53ZM54.957 50.2402H50.7207C50.7363 50.9082 50.916 51.4238 51.2598 51.7871C51.6035 52.1504 52.0762 52.332 52.6777 52.332C53.3535 52.332 53.9746 52.1094 54.541 51.6641V52.5664C54.0137 52.9492 53.3164 53.1406 52.4492 53.1406C51.6016 53.1406 50.9355 52.8691 50.4512 52.3262C49.9668 51.7793 49.7246 51.0117 49.7246 50.0234C49.7246 49.0898 49.9883 48.3301 50.5156 47.7441C51.0469 47.1543 51.7051 46.8594 52.4902 46.8594C53.2754 46.8594 53.8828 47.1133 54.3125 47.6211C54.7422 48.1289 54.957 48.834 54.957 49.7363V50.2402ZM53.9727 49.4258C53.9688 48.8711 53.834 48.4395 53.5684 48.1309C53.3066 47.8223 52.9414 47.668 52.4727 47.668C52.0195 47.668 51.6348 47.8301 51.3184 48.1543C51.002 48.4785 50.8066 48.9023 50.7324 49.4258H53.9727ZM61.3965 53H60.4355V49.5781C60.4355 48.3047 59.9707 47.668 59.041 47.668C58.5605 47.668 58.1621 47.8496 57.8457 48.2129C57.5332 48.5723 57.377 49.0273 57.377 49.5781V53H56.416V47H57.377V47.9961H57.4004C57.8535 47.2383 58.5098 46.8594 59.3691 46.8594C60.0254 46.8594 60.5273 47.0723 60.875 47.498C61.2227 47.9199 61.3965 48.5312 61.3965 49.332V53ZM65.9961 52.9414C65.7695 53.0664 65.4707 53.1289 65.0996 53.1289C64.0488 53.1289 63.5234 52.543 63.5234 51.3711V47.8203H62.4922V47H63.5234V45.5352L64.4844 45.2246V47H65.9961V47.8203H64.4844V51.2012C64.4844 51.6035 64.5527 51.8906 64.6895 52.0625C64.8262 52.2344 65.0527 52.3203 65.3691 52.3203C65.6113 52.3203 65.8203 52.2539 65.9961 52.1211V52.9414ZM75.3945 50.2402H71.1582C71.1738 50.9082 71.3535 51.4238 71.6973 51.7871C72.041 52.1504 72.5137 52.332 73.1152 52.332C73.791 52.332 74.4121 52.1094 74.9785 51.6641V52.5664C74.4512 52.9492 73.7539 53.1406 72.8867 53.1406C72.0391 53.1406 71.373 52.8691 70.8887 52.3262C70.4043 51.7793 70.1621 51.0117 70.1621 50.0234C70.1621 49.0898 70.4258 48.3301 70.9531 47.7441C71.4844 47.1543 72.1426 46.8594 72.9277 46.8594C73.7129 46.8594 74.3203 47.1133 74.75 47.6211C75.1797 48.1289 75.3945 48.834 75.3945 49.7363V50.2402ZM74.4102 49.4258C74.4062 48.8711 74.2715 48.4395 74.0059 48.1309C73.7441 47.8223 73.3789 47.668 72.9102 47.668C72.457 47.668 72.0723 47.8301 71.7559 48.1543C71.4395 48.4785 71.2441 48.9023 71.1699 49.4258H74.4102ZM76.4902 52.7832V51.752C77.0137 52.1387 77.5898 52.332 78.2188 52.332C79.0625 52.332 79.4844 52.0508 79.4844 51.4883C79.4844 51.3281 79.4473 51.1934 79.373 51.084C79.3027 50.9707 79.2051 50.8711 79.0801 50.7852C78.959 50.6992 78.8145 50.623 78.6465 50.5566C78.4824 50.4863 78.3047 50.4141 78.1133 50.3398C77.8477 50.2344 77.6133 50.1289 77.4102 50.0234C77.2109 49.9141 77.043 49.793 76.9062 49.6602C76.7734 49.5234 76.6719 49.3691 76.6016 49.1973C76.5352 49.0254 76.502 48.8242 76.502 48.5938C76.502 48.3125 76.5664 48.0645 76.6953 47.8496C76.8242 47.6309 76.9961 47.4492 77.2109 47.3047C77.4258 47.1562 77.6699 47.0449 77.9434 46.9707C78.2207 46.8965 78.5059 46.8594 78.7988 46.8594C79.3184 46.8594 79.7832 46.9492 80.1934 47.1289V48.1016C79.752 47.8125 79.2441 47.668 78.6699 47.668C78.4902 47.668 78.3281 47.6895 78.1836 47.7324C78.0391 47.7715 77.9141 47.8281 77.8086 47.9023C77.707 47.9766 77.627 48.0664 77.5684 48.1719C77.5137 48.2734 77.4863 48.3867 77.4863 48.5117C77.4863 48.668 77.5137 48.7988 77.5684 48.9043C77.627 49.0098 77.7109 49.1035 77.8203 49.1855C77.9297 49.2676 78.0625 49.3418 78.2188 49.4082C78.375 49.4746 78.5527 49.5469 78.752 49.625C79.0176 49.7266 79.2559 49.832 79.4668 49.9414C79.6777 50.0469 79.8574 50.168 80.0059 50.3047C80.1543 50.4375 80.2676 50.5918 80.3457 50.7676C80.4277 50.9434 80.4688 51.1523 80.4688 51.3945C80.4688 51.6914 80.4023 51.9492 80.2695 52.168C80.1406 52.3867 79.9668 52.5684 79.748 52.7129C79.5293 52.8574 79.2773 52.9648 78.9922 53.0352C78.707 53.1055 78.4082 53.1406 78.0957 53.1406C77.4785 53.1406 76.9434 53.0215 76.4902 52.7832ZM84.7344 52.9414C84.5078 53.0664 84.209 53.1289 83.8379 53.1289C82.7871 53.1289 82.2617 52.543 82.2617 51.3711V47.8203H81.2305V47H82.2617V45.5352L83.2227 45.2246V47H84.7344V47.8203H83.2227V51.2012C83.2227 51.6035 83.291 51.8906 83.4277 52.0625C83.5645 52.2344 83.791 52.3203 84.1074 52.3203C84.3496 52.3203 84.5586 52.2539 84.7344 52.1211V52.9414ZM38.6504 69H37.6895V65.5547C37.6895 64.8906 37.5859 64.4102 37.3789 64.1133C37.1758 63.8164 36.832 63.668 36.3477 63.668C35.9375 63.668 35.5879 63.8555 35.2988 64.2305C35.0137 64.6055 34.8711 65.0547 34.8711 65.5781V69H33.9102V65.4375C33.9102 64.2578 33.4551 63.668 32.5449 63.668C32.123 63.668 31.7754 63.8457 31.502 64.2012C31.2285 64.5527 31.0918 65.0117 31.0918 65.5781V69H30.1309V63H31.0918V63.9492H31.1152C31.541 63.2227 32.1621 62.8594 32.9785 62.8594C33.3887 62.8594 33.7461 62.9746 34.0508 63.2051C34.3555 63.4316 34.5645 63.7305 34.6777 64.1016C35.123 63.2734 35.7871 62.8594 36.6699 62.8594C37.9902 62.8594 38.6504 63.6738 38.6504 65.3027V69ZM44.7617 69H43.8008V68.0625H43.7773C43.3594 68.7812 42.7441 69.1406 41.9316 69.1406C41.334 69.1406 40.8652 68.9824 40.5254 68.666C40.1895 68.3496 40.0215 67.9297 40.0215 67.4062C40.0215 66.2852 40.6816 65.6328 42.002 65.4492L43.8008 65.1973C43.8008 64.1777 43.3887 63.668 42.5645 63.668C41.8418 63.668 41.1895 63.9141 40.6074 64.4062V63.4219C41.1973 63.0469 41.877 62.8594 42.6465 62.8594C44.0566 62.8594 44.7617 63.6055 44.7617 65.0977V69ZM43.8008 65.9648L42.3535 66.1641C41.9082 66.2266 41.5723 66.3379 41.3457 66.498C41.1191 66.6543 41.0059 66.9336 41.0059 67.3359C41.0059 67.6289 41.1094 67.8691 41.3164 68.0566C41.5273 68.2402 41.8066 68.332 42.1543 68.332C42.6309 68.332 43.0234 68.166 43.332 67.834C43.6445 67.498 43.8008 67.0742 43.8008 66.5625V65.9648ZM46.209 68.7832V67.752C46.7324 68.1387 47.3086 68.332 47.9375 68.332C48.7812 68.332 49.2031 68.0508 49.2031 67.4883C49.2031 67.3281 49.166 67.1934 49.0918 67.084C49.0215 66.9707 48.9238 66.8711 48.7988 66.7852C48.6777 66.6992 48.5332 66.623 48.3652 66.5566C48.2012 66.4863 48.0234 66.4141 47.832 66.3398C47.5664 66.2344 47.332 66.1289 47.1289 66.0234C46.9297 65.9141 46.7617 65.793 46.625 65.6602C46.4922 65.5234 46.3906 65.3691 46.3203 65.1973C46.2539 65.0254 46.2207 64.8242 46.2207 64.5938C46.2207 64.3125 46.2852 64.0645 46.4141 63.8496C46.543 63.6309 46.7148 63.4492 46.9297 63.3047C47.1445 63.1562 47.3887 63.0449 47.6621 62.9707C47.9395 62.8965 48.2246 62.8594 48.5176 62.8594C49.0371 62.8594 49.502 62.9492 49.9121 63.1289V64.1016C49.4707 63.8125 48.9629 63.668 48.3887 63.668C48.209 63.668 48.0469 63.6895 47.9023 63.7324C47.7578 63.7715 47.6328 63.8281 47.5273 63.9023C47.4258 63.9766 47.3457 64.0664 47.2871 64.1719C47.2324 64.2734 47.2051 64.3867 47.2051 64.5117C47.2051 64.668 47.2324 64.7988 47.2871 64.9043C47.3457 65.0098 47.4297 65.1035 47.5391 65.1855C47.6484 65.2676 47.7812 65.3418 47.9375 65.4082C48.0938 65.4746 48.2715 65.5469 48.4707 65.625C48.7363 65.7266 48.9746 65.832 49.1855 65.9414C49.3965 66.0469 49.5762 66.168 49.7246 66.3047C49.873 66.4375 49.9863 66.5918 50.0645 66.7676C50.1465 66.9434 50.1875 67.1523 50.1875 67.3945C50.1875 67.6914 50.1211 67.9492 49.9883 68.168C49.8594 68.3867 49.6855 68.5684 49.4668 68.7129C49.248 68.8574 48.9961 68.9648 48.7109 69.0352C48.4258 69.1055 48.127 69.1406 47.8145 69.1406C47.1973 69.1406 46.6621 69.0215 46.209 68.7832ZM56.791 71.7598H55.8301V67.9688H55.8066C55.3887 68.75 54.7051 69.1406 53.7559 69.1406C53.002 69.1406 52.3965 68.873 51.9395 68.3379C51.4863 67.7988 51.2598 67.0664 51.2598 66.1406C51.2598 65.1445 51.5098 64.3496 52.0098 63.7559C52.5098 63.1582 53.1816 62.8594 54.0254 62.8594C54.8457 62.8594 55.4395 63.1836 55.8066 63.832H55.8301V63H56.791V71.7598ZM55.8301 66.2988V65.4258C55.8301 64.9336 55.668 64.5176 55.3438 64.1777C55.0234 63.8379 54.6152 63.668 54.1191 63.668C53.541 63.668 53.084 63.8828 52.748 64.3125C52.4121 64.7383 52.2441 65.3398 52.2441 66.1172C52.2441 66.8086 52.4062 67.3516 52.7305 67.7461C53.0547 68.1367 53.4727 68.332 53.9844 68.332C54.5469 68.332 54.9941 68.1406 55.3262 67.7578C55.6621 67.3711 55.8301 66.8848 55.8301 66.2988ZM63.5879 69H62.627V68.0508H62.6035C62.2051 68.7773 61.5879 69.1406 60.752 69.1406C59.3223 69.1406 58.6074 68.2891 58.6074 66.5859V63H59.5625V66.4336C59.5625 67.6992 60.0469 68.332 61.0156 68.332C61.4844 68.332 61.8691 68.1602 62.1699 67.8164C62.4746 67.4688 62.627 67.0156 62.627 66.457V63H63.5879V69ZM70.3555 66.2402H66.1191C66.1348 66.9082 66.3145 67.4238 66.6582 67.7871C67.002 68.1504 67.4746 68.332 68.0762 68.332C68.752 68.332 69.373 68.1094 69.9395 67.6641V68.5664C69.4121 68.9492 68.7148 69.1406 67.8477 69.1406C67 69.1406 66.334 68.8691 65.8496 68.3262C65.3652 67.7793 65.123 67.0117 65.123 66.0234C65.123 65.0898 65.3867 64.3301 65.9141 63.7441C66.4453 63.1543 67.1035 62.8594 67.8887 62.8594C68.6738 62.8594 69.2812 63.1133 69.7109 63.6211C70.1406 64.1289 70.3555 64.834 70.3555 65.7363V66.2402ZM69.3711 65.4258C69.3672 64.8711 69.2324 64.4395 68.9668 64.1309C68.7051 63.8223 68.3398 63.668 67.8711 63.668C67.418 63.668 67.0332 63.8301 66.7168 64.1543C66.4004 64.4785 66.2051 64.9023 66.1309 65.4258H69.3711Z" fill="#020057"/>
</svg>
