<svg width="100%" viewBox="0 0 148 147" fill="none" xmlns="http://www.w3.org/2000/svg">
<g filter="url(#filter0_dd_3871_164739)">
<rect x="8" y="4" width="132" height="132" fill="#FBFBFE"/>
<rect x="8.5" y="4.5" width="131" height="131" stroke="#827DFF" stroke-dasharray="4 4"/>
<rect width="100" height="80" transform="translate(24 30)" fill="#FBFBFE"/>
<path d="M64.2197 40.2197C63.9534 40.4859 63.9292 40.9026 64.1471 41.1962L64.2197 41.2803L68.2542 45.3149C66.3322 46.6644 64.8958 48.6799 64.2989 51.0644C64.1983 51.4662 64.4425 51.8735 64.8443 51.9741C65.2461 52.0746 65.6534 51.8305 65.754 51.4286C66.2835 49.3135 67.5911 47.5395 69.3342 46.3945L71.1438 48.2043C70.4363 48.9258 70 49.9143 70 51.0046C70 53.2138 71.7909 55.0046 74 55.0046C75.0904 55.0046 76.0788 54.5683 76.8004 53.8608L82.7197 59.7803C83.0126 60.0732 83.4874 60.0732 83.7803 59.7803C84.0466 59.5141 84.0708 59.0974 83.8529 58.8038L83.7803 58.7197L77.6668 52.6055L77.668 52.604L76.4679 51.4061L73.598 48.5368L73.6 48.536L70.7188 45.6578L70.72 45.656L69.5867 44.5255L65.2803 40.2197C64.9874 39.9268 64.5126 39.9268 64.2197 40.2197ZM72.2041 49.2655L75.7392 52.8006C75.2892 53.2364 74.6759 53.5046 74 53.5046C72.6193 53.5046 71.5 52.3853 71.5 51.0046C71.5 50.3287 71.7682 49.7154 72.2041 49.2655ZM74 43.5C72.9997 43.5 72.0291 43.6481 71.1111 43.925L72.3481 45.1612C72.8839 45.0553 73.4364 45 74 45C77.9231 45 81.3099 47.6803 82.2471 51.4332C82.3475 51.835 82.7546 52.0794 83.1565 51.9791C83.5584 51.8787 83.8028 51.4716 83.7024 51.0697C82.5994 46.6527 78.6155 43.5 74 43.5ZM74.1947 47.0093L77.996 50.81C77.8942 48.7531 76.2472 47.1076 74.1947 47.0093Z" fill="#020057"/>
<path d="M50.5039 83H46.0508V74.5977H50.3164V75.4883H47.0352V78.2832H50.0703V79.168H47.0352V82.1094H50.5039V83ZM52.9531 83H51.9922V74.1172H52.9531V83ZM59.7207 80.2402H55.4844C55.5 80.9082 55.6797 81.4238 56.0234 81.7871C56.3672 82.1504 56.8398 82.332 57.4414 82.332C58.1172 82.332 58.7383 82.1094 59.3047 81.6641V82.5664C58.7773 82.9492 58.0801 83.1406 57.2129 83.1406C56.3652 83.1406 55.6992 82.8691 55.2148 82.3262C54.7305 81.7793 54.4883 81.0117 54.4883 80.0234C54.4883 79.0898 54.752 78.3301 55.2793 77.7441C55.8105 77.1543 56.4688 76.8594 57.2539 76.8594C58.0391 76.8594 58.6465 77.1133 59.0762 77.6211C59.5059 78.1289 59.7207 78.834 59.7207 79.7363V80.2402ZM58.7363 79.4258C58.7324 78.8711 58.5977 78.4395 58.332 78.1309C58.0703 77.8223 57.7051 77.668 57.2363 77.668C56.7832 77.668 56.3984 77.8301 56.082 78.1543C55.7656 78.4785 55.5703 78.9023 55.4961 79.4258H58.7363ZM69.6992 83H68.7383V79.5547C68.7383 78.8906 68.6348 78.4102 68.4277 78.1133C68.2246 77.8164 67.8809 77.668 67.3965 77.668C66.9863 77.668 66.6367 77.8555 66.3477 78.2305C66.0625 78.6055 65.9199 79.0547 65.9199 79.5781V83H64.959V79.4375C64.959 78.2578 64.5039 77.668 63.5938 77.668C63.1719 77.668 62.8242 77.8457 62.5508 78.2012C62.2773 78.5527 62.1406 79.0117 62.1406 79.5781V83H61.1797V77H62.1406V77.9492H62.1641C62.5898 77.2227 63.2109 76.8594 64.0273 76.8594C64.4375 76.8594 64.7949 76.9746 65.0996 77.2051C65.4043 77.4316 65.6133 77.7305 65.7266 78.1016C66.1719 77.2734 66.8359 76.8594 67.7188 76.8594C69.0391 76.8594 69.6992 77.6738 69.6992 79.3027V83ZM76.3379 80.2402H72.1016C72.1172 80.9082 72.2969 81.4238 72.6406 81.7871C72.9844 82.1504 73.457 82.332 74.0586 82.332C74.7344 82.332 75.3555 82.1094 75.9219 81.6641V82.5664C75.3945 82.9492 74.6973 83.1406 73.8301 83.1406C72.9824 83.1406 72.3164 82.8691 71.832 82.3262C71.3477 81.7793 71.1055 81.0117 71.1055 80.0234C71.1055 79.0898 71.3691 78.3301 71.8965 77.7441C72.4277 77.1543 73.0859 76.8594 73.8711 76.8594C74.6562 76.8594 75.2637 77.1133 75.6934 77.6211C76.123 78.1289 76.3379 78.834 76.3379 79.7363V80.2402ZM75.3535 79.4258C75.3496 78.8711 75.2148 78.4395 74.9492 78.1309C74.6875 77.8223 74.3223 77.668 73.8535 77.668C73.4004 77.668 73.0156 77.8301 72.6992 78.1543C72.3828 78.4785 72.1875 78.9023 72.1133 79.4258H75.3535ZM82.7773 83H81.8164V79.5781C81.8164 78.3047 81.3516 77.668 80.4219 77.668C79.9414 77.668 79.543 77.8496 79.2266 78.2129C78.9141 78.5723 78.7578 79.0273 78.7578 79.5781V83H77.7969V77H78.7578V77.9961H78.7812C79.2344 77.2383 79.8906 76.8594 80.75 76.8594C81.4062 76.8594 81.9082 77.0723 82.2559 77.498C82.6035 77.9199 82.7773 78.5312 82.7773 79.332V83ZM87.377 82.9414C87.1504 83.0664 86.8516 83.1289 86.4805 83.1289C85.4297 83.1289 84.9043 82.543 84.9043 81.3711V77.8203H83.873V77H84.9043V75.5352L85.8652 75.2246V77H87.377V77.8203H85.8652V81.2012C85.8652 81.6035 85.9336 81.8906 86.0703 82.0625C86.207 82.2344 86.4336 82.3203 86.75 82.3203C86.9922 82.3203 87.2012 82.2539 87.377 82.1211V82.9414ZM92.4453 75.4766C92.2734 75.4766 92.127 75.418 92.0059 75.3008C91.8848 75.1836 91.8242 75.0352 91.8242 74.8555C91.8242 74.6758 91.8848 74.5273 92.0059 74.4102C92.127 74.2891 92.2734 74.2285 92.4453 74.2285C92.6211 74.2285 92.7695 74.2891 92.8906 74.4102C93.0156 74.5273 93.0781 74.6758 93.0781 74.8555C93.0781 75.0273 93.0156 75.1738 92.8906 75.2949C92.7695 75.416 92.6211 75.4766 92.4453 75.4766ZM92.9141 83H91.9531V77H92.9141V83ZM94.4961 82.7832V81.752C95.0195 82.1387 95.5957 82.332 96.2246 82.332C97.0684 82.332 97.4902 82.0508 97.4902 81.4883C97.4902 81.3281 97.4531 81.1934 97.3789 81.084C97.3086 80.9707 97.2109 80.8711 97.0859 80.7852C96.9648 80.6992 96.8203 80.623 96.6523 80.5566C96.4883 80.4863 96.3105 80.4141 96.1191 80.3398C95.8535 80.2344 95.6191 80.1289 95.416 80.0234C95.2168 79.9141 95.0488 79.793 94.9121 79.6602C94.7793 79.5234 94.6777 79.3691 94.6074 79.1973C94.541 79.0254 94.5078 78.8242 94.5078 78.5938C94.5078 78.3125 94.5723 78.0645 94.7012 77.8496C94.8301 77.6309 95.002 77.4492 95.2168 77.3047C95.4316 77.1562 95.6758 77.0449 95.9492 76.9707C96.2266 76.8965 96.5117 76.8594 96.8047 76.8594C97.3242 76.8594 97.7891 76.9492 98.1992 77.1289V78.1016C97.7578 77.8125 97.25 77.668 96.6758 77.668C96.4961 77.668 96.334 77.6895 96.1895 77.7324C96.0449 77.7715 95.9199 77.8281 95.8145 77.9023C95.7129 77.9766 95.6328 78.0664 95.5742 78.1719C95.5195 78.2734 95.4922 78.3867 95.4922 78.5117C95.4922 78.668 95.5195 78.7988 95.5742 78.9043C95.6328 79.0098 95.7168 79.1035 95.8262 79.1855C95.9355 79.2676 96.0684 79.3418 96.2246 79.4082C96.3809 79.4746 96.5586 79.5469 96.7578 79.625C97.0234 79.7266 97.2617 79.832 97.4727 79.9414C97.6836 80.0469 97.8633 80.168 98.0117 80.3047C98.1602 80.4375 98.2734 80.5918 98.3516 80.7676C98.4336 80.9434 98.4746 81.1523 98.4746 81.3945C98.4746 81.6914 98.4082 81.9492 98.2754 82.168C98.1465 82.3867 97.9727 82.5684 97.7539 82.7129C97.5352 82.8574 97.2832 82.9648 96.998 83.0352C96.7129 83.1055 96.4141 83.1406 96.1016 83.1406C95.4844 83.1406 94.9492 83.0215 94.4961 82.7832ZM102.74 82.9414C102.514 83.0664 102.215 83.1289 101.844 83.1289C100.793 83.1289 100.268 82.543 100.268 81.3711V77.8203H99.2363V77H100.268V75.5352L101.229 75.2246V77H102.74V77.8203H101.229V81.2012C101.229 81.6035 101.297 81.8906 101.434 82.0625C101.57 82.2344 101.797 82.3203 102.113 82.3203C102.355 82.3203 102.564 82.2539 102.74 82.1211V82.9414ZM57.125 93L54.7344 99H53.791L51.5176 93H52.5723L54.0957 97.3594C54.209 97.6797 54.2793 97.959 54.3066 98.1973H54.3301C54.3691 97.8965 54.4316 97.625 54.5176 97.3828L56.1113 93H57.125ZM62.9844 96.2402H58.748C58.7637 96.9082 58.9434 97.4238 59.2871 97.7871C59.6309 98.1504 60.1035 98.332 60.7051 98.332C61.3809 98.332 62.002 98.1094 62.5684 97.6641V98.5664C62.041 98.9492 61.3438 99.1406 60.4766 99.1406C59.6289 99.1406 58.9629 98.8691 58.4785 98.3262C57.9941 97.7793 57.752 97.0117 57.752 96.0234C57.752 95.0898 58.0156 94.3301 58.543 93.7441C59.0742 93.1543 59.7324 92.8594 60.5176 92.8594C61.3027 92.8594 61.9102 93.1133 62.3398 93.6211C62.7695 94.1289 62.9844 94.834 62.9844 95.7363V96.2402ZM62 95.4258C61.9961 94.8711 61.8613 94.4395 61.5957 94.1309C61.334 93.8223 60.9688 93.668 60.5 93.668C60.0469 93.668 59.6621 93.8301 59.3457 94.1543C59.0293 94.4785 58.834 94.9023 58.7598 95.4258H62ZM67.5723 93.9727C67.4043 93.8438 67.1621 93.7793 66.8457 93.7793C66.4355 93.7793 66.0918 93.9727 65.8145 94.3594C65.541 94.7461 65.4043 95.2734 65.4043 95.9414V99H64.4434V93H65.4043V94.2363H65.4277C65.5645 93.8145 65.7734 93.4863 66.0547 93.252C66.3359 93.0137 66.6504 92.8945 66.998 92.8945C67.248 92.8945 67.4395 92.9219 67.5723 92.9766V93.9727ZM73.7363 99H72.7754V97.9805H72.752C72.3066 98.7539 71.6191 99.1406 70.6895 99.1406C69.9355 99.1406 69.332 98.873 68.8789 98.3379C68.4297 97.7988 68.2051 97.0664 68.2051 96.1406C68.2051 95.1484 68.4551 94.3535 68.9551 93.7559C69.4551 93.1582 70.1211 92.8594 70.9531 92.8594C71.7773 92.8594 72.377 93.1836 72.752 93.832H72.7754V90.1172H73.7363V99ZM72.7754 96.2871V95.4023C72.7754 94.918 72.6152 94.5078 72.2949 94.1719C71.9746 93.8359 71.5684 93.668 71.0762 93.668C70.4902 93.668 70.0293 93.8828 69.6934 94.3125C69.3574 94.7422 69.1895 95.3359 69.1895 96.0938C69.1895 96.7852 69.3496 97.332 69.6699 97.7344C69.9941 98.1328 70.4277 98.332 70.9707 98.332C71.5059 98.332 71.9395 98.1387 72.2715 97.752C72.6074 97.3652 72.7754 96.877 72.7754 96.2871ZM80.5039 96.2402H76.2676C76.2832 96.9082 76.4629 97.4238 76.8066 97.7871C77.1504 98.1504 77.623 98.332 78.2246 98.332C78.9004 98.332 79.5215 98.1094 80.0879 97.6641V98.5664C79.5605 98.9492 78.8633 99.1406 77.9961 99.1406C77.1484 99.1406 76.4824 98.8691 75.998 98.3262C75.5137 97.7793 75.2715 97.0117 75.2715 96.0234C75.2715 95.0898 75.5352 94.3301 76.0625 93.7441C76.5938 93.1543 77.252 92.8594 78.0371 92.8594C78.8223 92.8594 79.4297 93.1133 79.8594 93.6211C80.2891 94.1289 80.5039 94.834 80.5039 95.7363V96.2402ZM79.5195 95.4258C79.5156 94.8711 79.3809 94.4395 79.1152 94.1309C78.8535 93.8223 78.4883 93.668 78.0195 93.668C77.5664 93.668 77.1816 93.8301 76.8652 94.1543C76.5488 94.4785 76.3535 94.9023 76.2793 95.4258H79.5195ZM86.0527 98.7246C85.5918 99.002 85.0449 99.1406 84.4121 99.1406C83.5566 99.1406 82.8652 98.8633 82.3379 98.3086C81.8145 97.75 81.5527 97.0273 81.5527 96.1406C81.5527 95.1523 81.8359 94.3594 82.4023 93.7617C82.9688 93.1602 83.7246 92.8594 84.6699 92.8594C85.1973 92.8594 85.6621 92.957 86.0645 93.1523V94.1367C85.6191 93.8242 85.1426 93.668 84.6348 93.668C84.0215 93.668 83.5176 93.8887 83.123 94.3301C82.7324 94.7676 82.5371 95.3438 82.5371 96.0586C82.5371 96.7617 82.7207 97.3164 83.0879 97.7227C83.459 98.1289 83.9551 98.332 84.5762 98.332C85.0996 98.332 85.5918 98.1582 86.0527 97.8105V98.7246ZM92.4863 99H91.1387L88.4902 96.1172H88.4668V99H87.5059V90.1172H88.4668V95.748H88.4902L91.0098 93H92.2695L89.4863 95.8945L92.4863 99ZM96.2539 98.9414C96.0273 99.0664 95.7285 99.1289 95.3574 99.1289C94.3066 99.1289 93.7812 98.543 93.7812 97.3711V93.8203H92.75V93H93.7812V91.5352L94.7422 91.2246V93H96.2539V93.8203H94.7422V97.2012C94.7422 97.6035 94.8105 97.8906 94.9473 98.0625C95.084 98.2344 95.3105 98.3203 95.627 98.3203C95.8691 98.3203 96.0781 98.2539 96.2539 98.1211V98.9414Z" fill="#020057"/>
</g>
<defs>
<filter id="filter0_dd_3871_164739" x="0.8" y="2.38419e-07" width="146.4" height="146.4" filterUnits="userSpaceOnUse" color-interpolation-filters="sRGB">
<feFlood flood-opacity="0" result="BackgroundImageFix"/>
<feColorMatrix in="SourceAlpha" type="matrix" values="0 0 0 0 0 0 0 0 0 0 0 0 0 0 0 0 0 0 127 0" result="hardAlpha"/>
<feOffset dy="3.2"/>
<feGaussianBlur stdDeviation="3.6"/>
<feColorMatrix type="matrix" values="0 0 0 0 0.513726 0 0 0 0 0.494118 0 0 0 0 1 0 0 0 0.12 0"/>
<feBlend mode="normal" in2="BackgroundImageFix" result="effect1_dropShadow_3871_164739"/>
<feColorMatrix in="SourceAlpha" type="matrix" values="0 0 0 0 0 0 0 0 0 0 0 0 0 0 0 0 0 0 127 0" result="hardAlpha"/>
<feOffset dy="0.6"/>
<feGaussianBlur stdDeviation="0.9"/>
<feColorMatrix type="matrix" values="0 0 0 0 0.513726 0 0 0 0 0.494118 0 0 0 0 1 0 0 0 0.1 0"/>
<feBlend mode="normal" in2="effect1_dropShadow_3871_164739" result="effect2_dropShadow_3871_164739"/>
<feBlend mode="normal" in="SourceGraphic" in2="effect2_dropShadow_3871_164739" result="shape"/>
</filter>
</defs>
</svg>
