<svg width="100%" viewBox="0 0 100 80" fill="none" xmlns="http://www.w3.org/2000/svg">
<rect width="100" height="80" fill="#FBFBFE"/>
<path d="M40.2197 10.2197C39.9534 10.4859 39.9292 10.9026 40.1471 11.1962L40.2197 11.2803L44.2542 15.3149C42.3322 16.6644 40.8958 18.6799 40.2989 21.0644C40.1983 21.4662 40.4425 21.8735 40.8443 21.9741C41.2461 22.0746 41.6534 21.8305 41.754 21.4286C42.2835 19.3135 43.5911 17.5395 45.3342 16.3945L47.1438 18.2043C46.4363 18.9258 46 19.9143 46 21.0046C46 23.2138 47.7909 25.0046 50 25.0046C51.0904 25.0046 52.0788 24.5683 52.8004 23.8608L58.7197 29.7803C59.0126 30.0732 59.4874 30.0732 59.7803 29.7803C60.0466 29.5141 60.0708 29.0974 59.8529 28.8038L59.7803 28.7197L53.6668 22.6055L53.668 22.604L52.4679 21.4061L49.598 18.5368L49.6 18.536L46.7188 15.6578L46.72 15.656L45.5867 14.5255L41.2803 10.2197C40.9874 9.92678 40.5126 9.92678 40.2197 10.2197ZM48.2041 19.2655L51.7392 22.8006C51.2892 23.2364 50.6759 23.5046 50 23.5046C48.6193 23.5046 47.5 22.3853 47.5 21.0046C47.5 20.3287 47.7682 19.7154 48.2041 19.2655ZM50 13.5C48.9997 13.5 48.0291 13.6481 47.1111 13.925L48.3481 15.1612C48.8839 15.0553 49.4364 15 50 15C53.9231 15 57.3099 17.6803 58.2471 21.4332C58.3475 21.835 58.7546 22.0794 59.1565 21.9791C59.5584 21.8787 59.8028 21.4716 59.7024 21.0697C58.5994 16.6527 54.6155 13.5 50 13.5ZM50.1947 17.0093L53.996 20.81C53.8942 18.7531 52.2472 17.1076 50.1947 17.0093Z" fill="#020057"/>
<path d="M26.5039 53H22.0508V44.5977H26.3164V45.4883H23.0352V48.2832H26.0703V49.168H23.0352V52.1094H26.5039V53ZM28.9531 53H27.9922V44.1172H28.9531V53ZM35.7207 50.2402H31.4844C31.5 50.9082 31.6797 51.4238 32.0234 51.7871C32.3672 52.1504 32.8398 52.332 33.4414 52.332C34.1172 52.332 34.7383 52.1094 35.3047 51.6641V52.5664C34.7773 52.9492 34.0801 53.1406 33.2129 53.1406C32.3652 53.1406 31.6992 52.8691 31.2148 52.3262C30.7305 51.7793 30.4883 51.0117 30.4883 50.0234C30.4883 49.0898 30.752 48.3301 31.2793 47.7441C31.8105 47.1543 32.4688 46.8594 33.2539 46.8594C34.0391 46.8594 34.6465 47.1133 35.0762 47.6211C35.5059 48.1289 35.7207 48.834 35.7207 49.7363V50.2402ZM34.7363 49.4258C34.7324 48.8711 34.5977 48.4395 34.332 48.1309C34.0703 47.8223 33.7051 47.668 33.2363 47.668C32.7832 47.668 32.3984 47.8301 32.082 48.1543C31.7656 48.4785 31.5703 48.9023 31.4961 49.4258H34.7363ZM45.6992 53H44.7383V49.5547C44.7383 48.8906 44.6348 48.4102 44.4277 48.1133C44.2246 47.8164 43.8809 47.668 43.3965 47.668C42.9863 47.668 42.6367 47.8555 42.3477 48.2305C42.0625 48.6055 41.9199 49.0547 41.9199 49.5781V53H40.959V49.4375C40.959 48.2578 40.5039 47.668 39.5938 47.668C39.1719 47.668 38.8242 47.8457 38.5508 48.2012C38.2773 48.5527 38.1406 49.0117 38.1406 49.5781V53H37.1797V47H38.1406V47.9492H38.1641C38.5898 47.2227 39.2109 46.8594 40.0273 46.8594C40.4375 46.8594 40.7949 46.9746 41.0996 47.2051C41.4043 47.4316 41.6133 47.7305 41.7266 48.1016C42.1719 47.2734 42.8359 46.8594 43.7188 46.8594C45.0391 46.8594 45.6992 47.6738 45.6992 49.3027V53ZM52.3379 50.2402H48.1016C48.1172 50.9082 48.2969 51.4238 48.6406 51.7871C48.9844 52.1504 49.457 52.332 50.0586 52.332C50.7344 52.332 51.3555 52.1094 51.9219 51.6641V52.5664C51.3945 52.9492 50.6973 53.1406 49.8301 53.1406C48.9824 53.1406 48.3164 52.8691 47.832 52.3262C47.3477 51.7793 47.1055 51.0117 47.1055 50.0234C47.1055 49.0898 47.3691 48.3301 47.8965 47.7441C48.4277 47.1543 49.0859 46.8594 49.8711 46.8594C50.6562 46.8594 51.2637 47.1133 51.6934 47.6211C52.123 48.1289 52.3379 48.834 52.3379 49.7363V50.2402ZM51.3535 49.4258C51.3496 48.8711 51.2148 48.4395 50.9492 48.1309C50.6875 47.8223 50.3223 47.668 49.8535 47.668C49.4004 47.668 49.0156 47.8301 48.6992 48.1543C48.3828 48.4785 48.1875 48.9023 48.1133 49.4258H51.3535ZM58.7773 53H57.8164V49.5781C57.8164 48.3047 57.3516 47.668 56.4219 47.668C55.9414 47.668 55.543 47.8496 55.2266 48.2129C54.9141 48.5723 54.7578 49.0273 54.7578 49.5781V53H53.7969V47H54.7578V47.9961H54.7812C55.2344 47.2383 55.8906 46.8594 56.75 46.8594C57.4062 46.8594 57.9082 47.0723 58.2559 47.498C58.6035 47.9199 58.7773 48.5312 58.7773 49.332V53ZM63.377 52.9414C63.1504 53.0664 62.8516 53.1289 62.4805 53.1289C61.4297 53.1289 60.9043 52.543 60.9043 51.3711V47.8203H59.873V47H60.9043V45.5352L61.8652 45.2246V47H63.377V47.8203H61.8652V51.2012C61.8652 51.6035 61.9336 51.8906 62.0703 52.0625C62.207 52.2344 62.4336 52.3203 62.75 52.3203C62.9922 52.3203 63.2012 52.2539 63.377 52.1211V52.9414ZM68.4453 45.4766C68.2734 45.4766 68.127 45.418 68.0059 45.3008C67.8848 45.1836 67.8242 45.0352 67.8242 44.8555C67.8242 44.6758 67.8848 44.5273 68.0059 44.4102C68.127 44.2891 68.2734 44.2285 68.4453 44.2285C68.6211 44.2285 68.7695 44.2891 68.8906 44.4102C69.0156 44.5273 69.0781 44.6758 69.0781 44.8555C69.0781 45.0273 69.0156 45.1738 68.8906 45.2949C68.7695 45.416 68.6211 45.4766 68.4453 45.4766ZM68.9141 53H67.9531V47H68.9141V53ZM70.4961 52.7832V51.752C71.0195 52.1387 71.5957 52.332 72.2246 52.332C73.0684 52.332 73.4902 52.0508 73.4902 51.4883C73.4902 51.3281 73.4531 51.1934 73.3789 51.084C73.3086 50.9707 73.2109 50.8711 73.0859 50.7852C72.9648 50.6992 72.8203 50.623 72.6523 50.5566C72.4883 50.4863 72.3105 50.4141 72.1191 50.3398C71.8535 50.2344 71.6191 50.1289 71.416 50.0234C71.2168 49.9141 71.0488 49.793 70.9121 49.6602C70.7793 49.5234 70.6777 49.3691 70.6074 49.1973C70.541 49.0254 70.5078 48.8242 70.5078 48.5938C70.5078 48.3125 70.5723 48.0645 70.7012 47.8496C70.8301 47.6309 71.002 47.4492 71.2168 47.3047C71.4316 47.1562 71.6758 47.0449 71.9492 46.9707C72.2266 46.8965 72.5117 46.8594 72.8047 46.8594C73.3242 46.8594 73.7891 46.9492 74.1992 47.1289V48.1016C73.7578 47.8125 73.25 47.668 72.6758 47.668C72.4961 47.668 72.334 47.6895 72.1895 47.7324C72.0449 47.7715 71.9199 47.8281 71.8145 47.9023C71.7129 47.9766 71.6328 48.0664 71.5742 48.1719C71.5195 48.2734 71.4922 48.3867 71.4922 48.5117C71.4922 48.668 71.5195 48.7988 71.5742 48.9043C71.6328 49.0098 71.7168 49.1035 71.8262 49.1855C71.9355 49.2676 72.0684 49.3418 72.2246 49.4082C72.3809 49.4746 72.5586 49.5469 72.7578 49.625C73.0234 49.7266 73.2617 49.832 73.4727 49.9414C73.6836 50.0469 73.8633 50.168 74.0117 50.3047C74.1602 50.4375 74.2734 50.5918 74.3516 50.7676C74.4336 50.9434 74.4746 51.1523 74.4746 51.3945C74.4746 51.6914 74.4082 51.9492 74.2754 52.168C74.1465 52.3867 73.9727 52.5684 73.7539 52.7129C73.5352 52.8574 73.2832 52.9648 72.998 53.0352C72.7129 53.1055 72.4141 53.1406 72.1016 53.1406C71.4844 53.1406 70.9492 53.0215 70.4961 52.7832ZM78.7402 52.9414C78.5137 53.0664 78.2148 53.1289 77.8438 53.1289C76.793 53.1289 76.2676 52.543 76.2676 51.3711V47.8203H75.2363V47H76.2676V45.5352L77.2285 45.2246V47H78.7402V47.8203H77.2285V51.2012C77.2285 51.6035 77.2969 51.8906 77.4336 52.0625C77.5703 52.2344 77.7969 52.3203 78.1133 52.3203C78.3555 52.3203 78.5645 52.2539 78.7402 52.1211V52.9414ZM33.125 63L30.7344 69H29.791L27.5176 63H28.5723L30.0957 67.3594C30.209 67.6797 30.2793 67.959 30.3066 68.1973H30.3301C30.3691 67.8965 30.4316 67.625 30.5176 67.3828L32.1113 63H33.125ZM38.9844 66.2402H34.748C34.7637 66.9082 34.9434 67.4238 35.2871 67.7871C35.6309 68.1504 36.1035 68.332 36.7051 68.332C37.3809 68.332 38.002 68.1094 38.5684 67.6641V68.5664C38.041 68.9492 37.3438 69.1406 36.4766 69.1406C35.6289 69.1406 34.9629 68.8691 34.4785 68.3262C33.9941 67.7793 33.752 67.0117 33.752 66.0234C33.752 65.0898 34.0156 64.3301 34.543 63.7441C35.0742 63.1543 35.7324 62.8594 36.5176 62.8594C37.3027 62.8594 37.9102 63.1133 38.3398 63.6211C38.7695 64.1289 38.9844 64.834 38.9844 65.7363V66.2402ZM38 65.4258C37.9961 64.8711 37.8613 64.4395 37.5957 64.1309C37.334 63.8223 36.9688 63.668 36.5 63.668C36.0469 63.668 35.6621 63.8301 35.3457 64.1543C35.0293 64.4785 34.834 64.9023 34.7598 65.4258H38ZM43.5723 63.9727C43.4043 63.8438 43.1621 63.7793 42.8457 63.7793C42.4355 63.7793 42.0918 63.9727 41.8145 64.3594C41.541 64.7461 41.4043 65.2734 41.4043 65.9414V69H40.4434V63H41.4043V64.2363H41.4277C41.5645 63.8145 41.7734 63.4863 42.0547 63.252C42.3359 63.0137 42.6504 62.8945 42.998 62.8945C43.248 62.8945 43.4395 62.9219 43.5723 62.9766V63.9727ZM49.7363 69H48.7754V67.9805H48.752C48.3066 68.7539 47.6191 69.1406 46.6895 69.1406C45.9355 69.1406 45.332 68.873 44.8789 68.3379C44.4297 67.7988 44.2051 67.0664 44.2051 66.1406C44.2051 65.1484 44.4551 64.3535 44.9551 63.7559C45.4551 63.1582 46.1211 62.8594 46.9531 62.8594C47.7773 62.8594 48.377 63.1836 48.752 63.832H48.7754V60.1172H49.7363V69ZM48.7754 66.2871V65.4023C48.7754 64.918 48.6152 64.5078 48.2949 64.1719C47.9746 63.8359 47.5684 63.668 47.0762 63.668C46.4902 63.668 46.0293 63.8828 45.6934 64.3125C45.3574 64.7422 45.1895 65.3359 45.1895 66.0938C45.1895 66.7852 45.3496 67.332 45.6699 67.7344C45.9941 68.1328 46.4277 68.332 46.9707 68.332C47.5059 68.332 47.9395 68.1387 48.2715 67.752C48.6074 67.3652 48.7754 66.877 48.7754 66.2871ZM56.5039 66.2402H52.2676C52.2832 66.9082 52.4629 67.4238 52.8066 67.7871C53.1504 68.1504 53.623 68.332 54.2246 68.332C54.9004 68.332 55.5215 68.1094 56.0879 67.6641V68.5664C55.5605 68.9492 54.8633 69.1406 53.9961 69.1406C53.1484 69.1406 52.4824 68.8691 51.998 68.3262C51.5137 67.7793 51.2715 67.0117 51.2715 66.0234C51.2715 65.0898 51.5352 64.3301 52.0625 63.7441C52.5938 63.1543 53.252 62.8594 54.0371 62.8594C54.8223 62.8594 55.4297 63.1133 55.8594 63.6211C56.2891 64.1289 56.5039 64.834 56.5039 65.7363V66.2402ZM55.5195 65.4258C55.5156 64.8711 55.3809 64.4395 55.1152 64.1309C54.8535 63.8223 54.4883 63.668 54.0195 63.668C53.5664 63.668 53.1816 63.8301 52.8652 64.1543C52.5488 64.4785 52.3535 64.9023 52.2793 65.4258H55.5195ZM62.0527 68.7246C61.5918 69.002 61.0449 69.1406 60.4121 69.1406C59.5566 69.1406 58.8652 68.8633 58.3379 68.3086C57.8145 67.75 57.5527 67.0273 57.5527 66.1406C57.5527 65.1523 57.8359 64.3594 58.4023 63.7617C58.9688 63.1602 59.7246 62.8594 60.6699 62.8594C61.1973 62.8594 61.6621 62.957 62.0645 63.1523V64.1367C61.6191 63.8242 61.1426 63.668 60.6348 63.668C60.0215 63.668 59.5176 63.8887 59.123 64.3301C58.7324 64.7676 58.5371 65.3438 58.5371 66.0586C58.5371 66.7617 58.7207 67.3164 59.0879 67.7227C59.459 68.1289 59.9551 68.332 60.5762 68.332C61.0996 68.332 61.5918 68.1582 62.0527 67.8105V68.7246ZM68.4863 69H67.1387L64.4902 66.1172H64.4668V69H63.5059V60.1172H64.4668V65.748H64.4902L67.0098 63H68.2695L65.4863 65.8945L68.4863 69ZM72.2539 68.9414C72.0273 69.0664 71.7285 69.1289 71.3574 69.1289C70.3066 69.1289 69.7812 68.543 69.7812 67.3711V63.8203H68.75V63H69.7812V61.5352L70.7422 61.2246V63H72.2539V63.8203H70.7422V67.2012C70.7422 67.6035 70.8105 67.8906 70.9473 68.0625C71.084 68.2344 71.3105 68.3203 71.627 68.3203C71.8691 68.3203 72.0781 68.2539 72.2539 68.1211V68.9414Z" fill="#020057"/>
</svg>
