<svg width="100%" viewBox="0 0 40 40" fill="none" xmlns="http://www.w3.org/2000/svg">
<rect width="40" height="40" fill="#FBFBFE"/>
<path d="M10.2197 10.2197C9.9534 10.4859 9.9292 10.9026 10.1471 11.1962L10.2197 11.2803L14.2542 15.3149C12.3322 16.6644 10.8958 18.6799 10.2989 21.0644C10.1983 21.4662 10.4425 21.8735 10.8443 21.9741C11.2461 22.0746 11.6534 21.8305 11.754 21.4286C12.2835 19.3135 13.5911 17.5395 15.3342 16.3945L17.1438 18.2043C16.4363 18.9258 16 19.9143 16 21.0046C16 23.2138 17.7909 25.0046 20 25.0046C21.0904 25.0046 22.0788 24.5683 22.8004 23.8608L28.7197 29.7803C29.0126 30.0732 29.4874 30.0732 29.7803 29.7803C30.0466 29.5141 30.0708 29.0974 29.8529 28.8038L29.7803 28.7197L23.6668 22.6055L23.668 22.604L22.4679 21.4061L19.598 18.5368L19.6 18.536L16.7188 15.6578L16.72 15.656L15.5867 14.5255L11.2803 10.2197C10.9874 9.92678 10.5126 9.92678 10.2197 10.2197ZM18.2041 19.2655L21.7392 22.8006C21.2892 23.2364 20.6759 23.5046 20 23.5046C18.6193 23.5046 17.5 22.3853 17.5 21.0046C17.5 20.3287 17.7682 19.7154 18.2041 19.2655ZM20 13.5C18.9997 13.5 18.0291 13.6481 17.1111 13.925L18.3481 15.1612C18.8839 15.0553 19.4364 15 20 15C23.9231 15 27.3099 17.6803 28.2471 21.4332C28.3475 21.835 28.7546 22.0794 29.1565 21.9791C29.5584 21.8787 29.8028 21.4716 29.7024 21.0697C28.5994 16.6527 24.6155 13.5 20 13.5ZM20.1947 17.0093L23.996 20.81C23.8942 18.7531 22.2472 17.1076 20.1947 17.0093Z" fill="#020057"/>
</svg>
