<svg width="100%" viewBox="0 0 148 147" fill="none" xmlns="http://www.w3.org/2000/svg">
<g filter="url(#filter0_dd_3871_164755)">
<rect x="8" y="4" width="132" height="132" fill="#FBFBFE"/>
<rect x="8.5" y="4.5" width="131" height="131" stroke="#827DFF" stroke-dasharray="4 4"/>
<rect width="100" height="80" transform="translate(24 30)" fill="#FBFBFE"/>
<path d="M64.2197 40.2197C63.9534 40.4859 63.9292 40.9026 64.1471 41.1962L64.2197 41.2803L68.2542 45.3149C66.3322 46.6644 64.8958 48.6799 64.2989 51.0644C64.1983 51.4662 64.4425 51.8735 64.8443 51.9741C65.2461 52.0746 65.6534 51.8305 65.754 51.4286C66.2835 49.3135 67.5911 47.5395 69.3342 46.3945L71.1438 48.2043C70.4363 48.9258 70 49.9143 70 51.0046C70 53.2138 71.7909 55.0046 74 55.0046C75.0904 55.0046 76.0788 54.5683 76.8004 53.8608L82.7197 59.7803C83.0126 60.0732 83.4874 60.0732 83.7803 59.7803C84.0466 59.5141 84.0708 59.0974 83.8529 58.8038L83.7803 58.7197L77.6668 52.6055L77.668 52.604L76.4679 51.4061L73.598 48.5368L73.6 48.536L70.7188 45.6578L70.72 45.656L69.5867 44.5255L65.2803 40.2197C64.9874 39.9268 64.5126 39.9268 64.2197 40.2197ZM72.2041 49.2655L75.7392 52.8006C75.2892 53.2364 74.6759 53.5046 74 53.5046C72.6193 53.5046 71.5 52.3853 71.5 51.0046C71.5 50.3287 71.7682 49.7154 72.2041 49.2655ZM74 43.5C72.9997 43.5 72.0291 43.6481 71.1111 43.925L72.3481 45.1612C72.8839 45.0553 73.4364 45 74 45C77.9231 45 81.3099 47.6803 82.2471 51.4332C82.3475 51.835 82.7546 52.0794 83.1565 51.9791C83.5584 51.8787 83.8028 51.4716 83.7024 51.0697C82.5994 46.6527 78.6155 43.5 74 43.5ZM74.1947 47.0093L77.996 50.81C77.8942 48.7531 76.2472 47.1076 74.1947 47.0093Z" fill="#020057"/>
<path d="M45.4766 83H41.1172V74.5977H42.1016V82.1094H45.4766V83ZM47.4688 74.5977V77.2168H46.6191V74.5977H47.4688ZM54.2246 80.2402H49.9883C50.0039 80.9082 50.1836 81.4238 50.5273 81.7871C50.8711 82.1504 51.3438 82.332 51.9453 82.332C52.6211 82.332 53.2422 82.1094 53.8086 81.6641V82.5664C53.2812 82.9492 52.584 83.1406 51.7168 83.1406C50.8691 83.1406 50.2031 82.8691 49.7188 82.3262C49.2344 81.7793 48.9922 81.0117 48.9922 80.0234C48.9922 79.0898 49.2559 78.3301 49.7832 77.7441C50.3145 77.1543 50.9727 76.8594 51.7578 76.8594C52.543 76.8594 53.1504 77.1133 53.5801 77.6211C54.0098 78.1289 54.2246 78.834 54.2246 79.7363V80.2402ZM53.2402 79.4258C53.2363 78.8711 53.1016 78.4395 52.8359 78.1309C52.5742 77.8223 52.209 77.668 51.7402 77.668C51.2871 77.668 50.9023 77.8301 50.5859 78.1543C50.2695 78.4785 50.0742 78.9023 50 79.4258H53.2402ZM56.6445 83H55.6836V74.1172H56.6445V83ZM63.4121 80.2402H59.1758C59.1914 80.9082 59.3711 81.4238 59.7148 81.7871C60.0586 82.1504 60.5312 82.332 61.1328 82.332C61.8086 82.332 62.4297 82.1094 62.9961 81.6641V82.5664C62.4688 82.9492 61.7715 83.1406 60.9043 83.1406C60.0566 83.1406 59.3906 82.8691 58.9062 82.3262C58.4219 81.7793 58.1797 81.0117 58.1797 80.0234C58.1797 79.0898 58.4434 78.3301 58.9707 77.7441C59.502 77.1543 60.1602 76.8594 60.9453 76.8594C61.7305 76.8594 62.3379 77.1133 62.7676 77.6211C63.1973 78.1289 63.4121 78.834 63.4121 79.7363V80.2402ZM62.4277 79.4258C62.4238 78.8711 62.2891 78.4395 62.0234 78.1309C61.7617 77.8223 61.3965 77.668 60.9277 77.668C60.4746 77.668 60.0898 77.8301 59.7734 78.1543C59.457 78.4785 59.2617 78.9023 59.1875 79.4258H62.4277ZM73.3906 83H72.4297V79.5547C72.4297 78.8906 72.3262 78.4102 72.1191 78.1133C71.916 77.8164 71.5723 77.668 71.0879 77.668C70.6777 77.668 70.3281 77.8555 70.0391 78.2305C69.7539 78.6055 69.6113 79.0547 69.6113 79.5781V83H68.6504V79.4375C68.6504 78.2578 68.1953 77.668 67.2852 77.668C66.8633 77.668 66.5156 77.8457 66.2422 78.2012C65.9688 78.5527 65.832 79.0117 65.832 79.5781V83H64.8711V77H65.832V77.9492H65.8555C66.2812 77.2227 66.9023 76.8594 67.7188 76.8594C68.1289 76.8594 68.4863 76.9746 68.791 77.2051C69.0957 77.4316 69.3047 77.7305 69.418 78.1016C69.8633 77.2734 70.5273 76.8594 71.4102 76.8594C72.7305 76.8594 73.3906 77.6738 73.3906 79.3027V83ZM80.0293 80.2402H75.793C75.8086 80.9082 75.9883 81.4238 76.332 81.7871C76.6758 82.1504 77.1484 82.332 77.75 82.332C78.4258 82.332 79.0469 82.1094 79.6133 81.6641V82.5664C79.0859 82.9492 78.3887 83.1406 77.5215 83.1406C76.6738 83.1406 76.0078 82.8691 75.5234 82.3262C75.0391 81.7793 74.7969 81.0117 74.7969 80.0234C74.7969 79.0898 75.0605 78.3301 75.5879 77.7441C76.1191 77.1543 76.7773 76.8594 77.5625 76.8594C78.3477 76.8594 78.9551 77.1133 79.3848 77.6211C79.8145 78.1289 80.0293 78.834 80.0293 79.7363V80.2402ZM79.0449 79.4258C79.041 78.8711 78.9062 78.4395 78.6406 78.1309C78.3789 77.8223 78.0137 77.668 77.5449 77.668C77.0918 77.668 76.707 77.8301 76.3906 78.1543C76.0742 78.4785 75.8789 78.9023 75.8047 79.4258H79.0449ZM86.4688 83H85.5078V79.5781C85.5078 78.3047 85.043 77.668 84.1133 77.668C83.6328 77.668 83.2344 77.8496 82.918 78.2129C82.6055 78.5723 82.4492 79.0273 82.4492 79.5781V83H81.4883V77H82.4492V77.9961H82.4727C82.9258 77.2383 83.582 76.8594 84.4414 76.8594C85.0977 76.8594 85.5996 77.0723 85.9473 77.498C86.2949 77.9199 86.4688 78.5312 86.4688 79.332V83ZM91.0684 82.9414C90.8418 83.0664 90.543 83.1289 90.1719 83.1289C89.1211 83.1289 88.5957 82.543 88.5957 81.3711V77.8203H87.5645V77H88.5957V75.5352L89.5566 75.2246V77H91.0684V77.8203H89.5566V81.2012C89.5566 81.6035 89.625 81.8906 89.7617 82.0625C89.8984 82.2344 90.125 82.3203 90.4414 82.3203C90.6836 82.3203 90.8926 82.2539 91.0684 82.1211V82.9414ZM94.8594 83.1406C93.9727 83.1406 93.2637 82.8613 92.7324 82.3027C92.2051 81.7402 91.9414 80.9961 91.9414 80.0703C91.9414 79.0625 92.2168 78.2754 92.7676 77.709C93.3184 77.1426 94.0625 76.8594 95 76.8594C95.8945 76.8594 96.5918 77.1348 97.0918 77.6855C97.5957 78.2363 97.8477 79 97.8477 79.9766C97.8477 80.9336 97.5762 81.7012 97.0332 82.2793C96.4941 82.8535 95.7695 83.1406 94.8594 83.1406ZM94.9297 77.668C94.3125 77.668 93.8242 77.8789 93.4648 78.3008C93.1055 78.7188 92.9258 79.2969 92.9258 80.0352C92.9258 80.7461 93.1074 81.3066 93.4707 81.7168C93.834 82.127 94.3203 82.332 94.9297 82.332C95.5508 82.332 96.0273 82.1309 96.3594 81.7285C96.6953 81.3262 96.8633 80.7539 96.8633 80.0117C96.8633 79.2617 96.6953 78.6836 96.3594 78.2773C96.0273 77.8711 95.5508 77.668 94.9297 77.668ZM107.498 80.2402H103.262C103.277 80.9082 103.457 81.4238 103.801 81.7871C104.145 82.1504 104.617 82.332 105.219 82.332C105.895 82.332 106.516 82.1094 107.082 81.6641V82.5664C106.555 82.9492 105.857 83.1406 104.99 83.1406C104.143 83.1406 103.477 82.8691 102.992 82.3262C102.508 81.7793 102.266 81.0117 102.266 80.0234C102.266 79.0898 102.529 78.3301 103.057 77.7441C103.588 77.1543 104.246 76.8594 105.031 76.8594C105.816 76.8594 106.424 77.1133 106.854 77.6211C107.283 78.1289 107.498 78.834 107.498 79.7363V80.2402ZM106.514 79.4258C106.51 78.8711 106.375 78.4395 106.109 78.1309C105.848 77.8223 105.482 77.668 105.014 77.668C104.561 77.668 104.176 77.8301 103.859 78.1543C103.543 78.4785 103.348 78.9023 103.273 79.4258H106.514ZM105.951 75.8633H105.207L103.672 73.9414H104.656L105.951 75.8633ZM52.7246 99H51.7637V95.5547C51.7637 94.8906 51.6602 94.4102 51.4531 94.1133C51.25 93.8164 50.9062 93.668 50.4219 93.668C50.0117 93.668 49.6621 93.8555 49.373 94.2305C49.0879 94.6055 48.9453 95.0547 48.9453 95.5781V99H47.9844V95.4375C47.9844 94.2578 47.5293 93.668 46.6191 93.668C46.1973 93.668 45.8496 93.8457 45.5762 94.2012C45.3027 94.5527 45.166 95.0117 45.166 95.5781V99H44.2051V93H45.166V93.9492H45.1895C45.6152 93.2227 46.2363 92.8594 47.0527 92.8594C47.4629 92.8594 47.8203 92.9746 48.125 93.2051C48.4297 93.4316 48.6387 93.7305 48.752 94.1016C49.1973 93.2734 49.8613 92.8594 50.7441 92.8594C52.0645 92.8594 52.7246 93.6738 52.7246 95.3027V99ZM58.8359 99H57.875V98.0625H57.8516C57.4336 98.7812 56.8184 99.1406 56.0059 99.1406C55.4082 99.1406 54.9395 98.9824 54.5996 98.666C54.2637 98.3496 54.0957 97.9297 54.0957 97.4062C54.0957 96.2852 54.7559 95.6328 56.0762 95.4492L57.875 95.1973C57.875 94.1777 57.4629 93.668 56.6387 93.668C55.916 93.668 55.2637 93.9141 54.6816 94.4062V93.4219C55.2715 93.0469 55.9512 92.8594 56.7207 92.8594C58.1309 92.8594 58.8359 93.6055 58.8359 95.0977V99ZM57.875 95.9648L56.4277 96.1641C55.9824 96.2266 55.6465 96.3379 55.4199 96.498C55.1934 96.6543 55.0801 96.9336 55.0801 97.3359C55.0801 97.6289 55.1836 97.8691 55.3906 98.0566C55.6016 98.2402 55.8809 98.332 56.2285 98.332C56.7051 98.332 57.0977 98.166 57.4062 97.834C57.7188 97.498 57.875 97.0742 57.875 96.5625V95.9648ZM60.2832 98.7832V97.752C60.8066 98.1387 61.3828 98.332 62.0117 98.332C62.8555 98.332 63.2773 98.0508 63.2773 97.4883C63.2773 97.3281 63.2402 97.1934 63.166 97.084C63.0957 96.9707 62.998 96.8711 62.873 96.7852C62.752 96.6992 62.6074 96.623 62.4395 96.5566C62.2754 96.4863 62.0977 96.4141 61.9062 96.3398C61.6406 96.2344 61.4062 96.1289 61.2031 96.0234C61.0039 95.9141 60.8359 95.793 60.6992 95.6602C60.5664 95.5234 60.4648 95.3691 60.3945 95.1973C60.3281 95.0254 60.2949 94.8242 60.2949 94.5938C60.2949 94.3125 60.3594 94.0645 60.4883 93.8496C60.6172 93.6309 60.7891 93.4492 61.0039 93.3047C61.2188 93.1562 61.4629 93.0449 61.7363 92.9707C62.0137 92.8965 62.2988 92.8594 62.5918 92.8594C63.1113 92.8594 63.5762 92.9492 63.9863 93.1289V94.1016C63.5449 93.8125 63.0371 93.668 62.4629 93.668C62.2832 93.668 62.1211 93.6895 61.9766 93.7324C61.832 93.7715 61.707 93.8281 61.6016 93.9023C61.5 93.9766 61.4199 94.0664 61.3613 94.1719C61.3066 94.2734 61.2793 94.3867 61.2793 94.5117C61.2793 94.668 61.3066 94.7988 61.3613 94.9043C61.4199 95.0098 61.5039 95.1035 61.6133 95.1855C61.7227 95.2676 61.8555 95.3418 62.0117 95.4082C62.168 95.4746 62.3457 95.5469 62.5449 95.625C62.8105 95.7266 63.0488 95.832 63.2598 95.9414C63.4707 96.0469 63.6504 96.168 63.7988 96.3047C63.9473 96.4375 64.0605 96.5918 64.1387 96.7676C64.2207 96.9434 64.2617 97.1523 64.2617 97.3945C64.2617 97.6914 64.1953 97.9492 64.0625 98.168C63.9336 98.3867 63.7598 98.5684 63.541 98.7129C63.3223 98.8574 63.0703 98.9648 62.7852 99.0352C62.5 99.1055 62.2012 99.1406 61.8887 99.1406C61.2715 99.1406 60.7363 99.0215 60.2832 98.7832ZM69.834 98.7246C69.373 99.002 68.8262 99.1406 68.1934 99.1406C67.3379 99.1406 66.6465 98.8633 66.1191 98.3086C65.5957 97.75 65.334 97.0273 65.334 96.1406C65.334 95.1523 65.6172 94.3594 66.1836 93.7617C66.75 93.1602 67.5059 92.8594 68.4512 92.8594C68.9785 92.8594 69.4434 92.957 69.8457 93.1523V94.1367C69.4004 93.8242 68.9238 93.668 68.416 93.668C67.8027 93.668 67.2988 93.8887 66.9043 94.3301C66.5137 94.7676 66.3184 95.3438 66.3184 96.0586C66.3184 96.7617 66.502 97.3164 66.8691 97.7227C67.2402 98.1289 67.7363 98.332 68.3574 98.332C68.8809 98.332 69.373 98.1582 69.834 97.8105V98.7246ZM76.2676 99H75.3066V95.543C75.3066 94.293 74.8418 93.668 73.9121 93.668C73.4434 93.668 73.0488 93.8496 72.7285 94.2129C72.4082 94.5723 72.248 95.0352 72.248 95.6016V99H71.2871V90.1172H72.248V93.9961H72.2715C72.7324 93.2383 73.3887 92.8594 74.2402 92.8594C75.5918 92.8594 76.2676 93.6738 76.2676 95.3027V99ZM82.9062 96.2402H78.6699C78.6855 96.9082 78.8652 97.4238 79.209 97.7871C79.5527 98.1504 80.0254 98.332 80.627 98.332C81.3027 98.332 81.9238 98.1094 82.4902 97.6641V98.5664C81.9629 98.9492 81.2656 99.1406 80.3984 99.1406C79.5508 99.1406 78.8848 98.8691 78.4004 98.3262C77.916 97.7793 77.6738 97.0117 77.6738 96.0234C77.6738 95.0898 77.9375 94.3301 78.4648 93.7441C78.9961 93.1543 79.6543 92.8594 80.4395 92.8594C81.2246 92.8594 81.832 93.1133 82.2617 93.6211C82.6914 94.1289 82.9062 94.834 82.9062 95.7363V96.2402ZM81.9219 95.4258C81.918 94.8711 81.7832 94.4395 81.5176 94.1309C81.2559 93.8223 80.8906 93.668 80.4219 93.668C79.9688 93.668 79.584 93.8301 79.2676 94.1543C78.9512 94.4785 78.7559 94.9023 78.6816 95.4258H81.9219ZM87.4941 93.9727C87.3262 93.8438 87.084 93.7793 86.7676 93.7793C86.3574 93.7793 86.0137 93.9727 85.7363 94.3594C85.4629 94.7461 85.3262 95.2734 85.3262 95.9414V99H84.3652V93H85.3262V94.2363H85.3496C85.4863 93.8145 85.6953 93.4863 85.9766 93.252C86.2578 93.0137 86.5723 92.8945 86.9199 92.8945C87.1699 92.8945 87.3613 92.9219 87.4941 92.9766V93.9727ZM92.832 99H91.8711V98.0625H91.8477C91.4297 98.7812 90.8145 99.1406 90.002 99.1406C89.4043 99.1406 88.9355 98.9824 88.5957 98.666C88.2598 98.3496 88.0918 97.9297 88.0918 97.4062C88.0918 96.2852 88.752 95.6328 90.0723 95.4492L91.8711 95.1973C91.8711 94.1777 91.459 93.668 90.6348 93.668C89.9121 93.668 89.2598 93.9141 88.6777 94.4062V93.4219C89.2676 93.0469 89.9473 92.8594 90.7168 92.8594C92.127 92.8594 92.832 93.6055 92.832 95.0977V99ZM91.8711 95.9648L90.4238 96.1641C89.9785 96.2266 89.6426 96.3379 89.416 96.498C89.1895 96.6543 89.0762 96.9336 89.0762 97.3359C89.0762 97.6289 89.1797 97.8691 89.3867 98.0566C89.5977 98.2402 89.877 98.332 90.2246 98.332C90.7012 98.332 91.0938 98.166 91.4023 97.834C91.7148 97.498 91.8711 97.0742 91.8711 96.5625V95.9648ZM97.4258 98.9414C97.1992 99.0664 96.9004 99.1289 96.5293 99.1289C95.4785 99.1289 94.9531 98.543 94.9531 97.3711V93.8203H93.9219V93H94.9531V91.5352L95.9141 91.2246V93H97.4258V93.8203H95.9141V97.2012C95.9141 97.6035 95.9824 97.8906 96.1191 98.0625C96.2559 98.2344 96.4824 98.3203 96.7988 98.3203C97.041 98.3203 97.25 98.2539 97.4258 98.1211V98.9414ZM101.217 99.1406C100.33 99.1406 99.6211 98.8613 99.0898 98.3027C98.5625 97.7402 98.2988 96.9961 98.2988 96.0703C98.2988 95.0625 98.5742 94.2754 99.125 93.709C99.6758 93.1426 100.42 92.8594 101.357 92.8594C102.252 92.8594 102.949 93.1348 103.449 93.6855C103.953 94.2363 104.205 95 104.205 95.9766C104.205 96.9336 103.934 97.7012 103.391 98.2793C102.852 98.8535 102.127 99.1406 101.217 99.1406ZM101.287 93.668C100.67 93.668 100.182 93.8789 99.8223 94.3008C99.4629 94.7188 99.2832 95.2969 99.2832 96.0352C99.2832 96.7461 99.4648 97.3066 99.8281 97.7168C100.191 98.127 100.678 98.332 101.287 98.332C101.908 98.332 102.385 98.1309 102.717 97.7285C103.053 97.3262 103.221 96.7539 103.221 96.0117C103.221 95.2617 103.053 94.6836 102.717 94.2773C102.385 93.8711 101.908 93.668 101.287 93.668Z" fill="#020057"/>
</g>
<defs>
<filter id="filter0_dd_3871_164755" x="0.8" y="2.38419e-07" width="146.4" height="146.4" filterUnits="userSpaceOnUse" color-interpolation-filters="sRGB">
<feFlood flood-opacity="0" result="BackgroundImageFix"/>
<feColorMatrix in="SourceAlpha" type="matrix" values="0 0 0 0 0 0 0 0 0 0 0 0 0 0 0 0 0 0 127 0" result="hardAlpha"/>
<feOffset dy="3.2"/>
<feGaussianBlur stdDeviation="3.6"/>
<feColorMatrix type="matrix" values="0 0 0 0 0.513726 0 0 0 0 0.494118 0 0 0 0 1 0 0 0 0.12 0"/>
<feBlend mode="normal" in2="BackgroundImageFix" result="effect1_dropShadow_3871_164755"/>
<feColorMatrix in="SourceAlpha" type="matrix" values="0 0 0 0 0 0 0 0 0 0 0 0 0 0 0 0 0 0 127 0" result="hardAlpha"/>
<feOffset dy="0.6"/>
<feGaussianBlur stdDeviation="0.9"/>
<feColorMatrix type="matrix" values="0 0 0 0 0.513726 0 0 0 0 0.494118 0 0 0 0 1 0 0 0 0.1 0"/>
<feBlend mode="normal" in2="effect1_dropShadow_3871_164755" result="effect2_dropShadow_3871_164755"/>
<feBlend mode="normal" in="SourceGraphic" in2="effect2_dropShadow_3871_164755" result="shape"/>
</filter>
</defs>
</svg>
