<svg width="100" height="80" viewBox="0 0 100 80" fill="none" xmlns="http://www.w3.org/2000/svg">
<rect width="100" height="80" fill="#FBFBFE"/>
<path d="M40.2197 10.2197C39.9534 10.4859 39.9292 10.9026 40.1471 11.1962L40.2197 11.2803L44.2542 15.3149C42.3322 16.6644 40.8958 18.6799 40.2989 21.0644C40.1983 21.4662 40.4425 21.8735 40.8443 21.9741C41.2461 22.0746 41.6534 21.8305 41.754 21.4286C42.2835 19.3135 43.5911 17.5395 45.3342 16.3945L47.1438 18.2043C46.4363 18.9258 46 19.9143 46 21.0046C46 23.2138 47.7909 25.0046 50 25.0046C51.0904 25.0046 52.0788 24.5683 52.8004 23.8608L58.7197 29.7803C59.0126 30.0732 59.4874 30.0732 59.7803 29.7803C60.0466 29.5141 60.0708 29.0974 59.8529 28.8038L59.7803 28.7197L53.6668 22.6055L53.668 22.604L52.4679 21.4061L49.598 18.5368L49.6 18.536L46.7188 15.6578L46.72 15.656L45.5867 14.5255L41.2803 10.2197C40.9874 9.92678 40.5126 9.92678 40.2197 10.2197ZM48.2041 19.2655L51.7392 22.8006C51.2892 23.2364 50.6759 23.5046 50 23.5046C48.6193 23.5046 47.5 22.3853 47.5 21.0046C47.5 20.3287 47.7682 19.7154 48.2041 19.2655ZM50 13.5C48.9997 13.5 48.0291 13.6481 47.1111 13.925L48.3481 15.1612C48.8839 15.0553 49.4364 15 50 15C53.9231 15 57.3099 17.6803 58.2471 21.4332C58.3475 21.835 58.7546 22.0794 59.1565 21.9791C59.5584 21.8787 59.8028 21.4716 59.7024 21.0697C58.5994 16.6527 54.6155 13.5 50 13.5ZM50.1947 17.0093L53.996 20.81C53.8942 18.7531 52.2472 17.1076 50.1947 17.0093Z" fill="#020057"/>
<path d="M21.4766 53H17.1172V44.5977H18.1016V52.1094H21.4766V53ZM23.4688 44.5977V47.2168H22.6191V44.5977H23.4688ZM30.2246 50.2402H25.9883C26.0039 50.9082 26.1836 51.4238 26.5273 51.7871C26.8711 52.1504 27.3438 52.332 27.9453 52.332C28.6211 52.332 29.2422 52.1094 29.8086 51.6641V52.5664C29.2812 52.9492 28.584 53.1406 27.7168 53.1406C26.8691 53.1406 26.2031 52.8691 25.7188 52.3262C25.2344 51.7793 24.9922 51.0117 24.9922 50.0234C24.9922 49.0898 25.2559 48.3301 25.7832 47.7441C26.3145 47.1543 26.9727 46.8594 27.7578 46.8594C28.543 46.8594 29.1504 47.1133 29.5801 47.6211C30.0098 48.1289 30.2246 48.834 30.2246 49.7363V50.2402ZM29.2402 49.4258C29.2363 48.8711 29.1016 48.4395 28.8359 48.1309C28.5742 47.8223 28.209 47.668 27.7402 47.668C27.2871 47.668 26.9023 47.8301 26.5859 48.1543C26.2695 48.4785 26.0742 48.9023 26 49.4258H29.2402ZM32.6445 53H31.6836V44.1172H32.6445V53ZM39.4121 50.2402H35.1758C35.1914 50.9082 35.3711 51.4238 35.7148 51.7871C36.0586 52.1504 36.5312 52.332 37.1328 52.332C37.8086 52.332 38.4297 52.1094 38.9961 51.6641V52.5664C38.4688 52.9492 37.7715 53.1406 36.9043 53.1406C36.0566 53.1406 35.3906 52.8691 34.9062 52.3262C34.4219 51.7793 34.1797 51.0117 34.1797 50.0234C34.1797 49.0898 34.4434 48.3301 34.9707 47.7441C35.502 47.1543 36.1602 46.8594 36.9453 46.8594C37.7305 46.8594 38.3379 47.1133 38.7676 47.6211C39.1973 48.1289 39.4121 48.834 39.4121 49.7363V50.2402ZM38.4277 49.4258C38.4238 48.8711 38.2891 48.4395 38.0234 48.1309C37.7617 47.8223 37.3965 47.668 36.9277 47.668C36.4746 47.668 36.0898 47.8301 35.7734 48.1543C35.457 48.4785 35.2617 48.9023 35.1875 49.4258H38.4277ZM49.3906 53H48.4297V49.5547C48.4297 48.8906 48.3262 48.4102 48.1191 48.1133C47.916 47.8164 47.5723 47.668 47.0879 47.668C46.6777 47.668 46.3281 47.8555 46.0391 48.2305C45.7539 48.6055 45.6113 49.0547 45.6113 49.5781V53H44.6504V49.4375C44.6504 48.2578 44.1953 47.668 43.2852 47.668C42.8633 47.668 42.5156 47.8457 42.2422 48.2012C41.9688 48.5527 41.832 49.0117 41.832 49.5781V53H40.8711V47H41.832V47.9492H41.8555C42.2812 47.2227 42.9023 46.8594 43.7188 46.8594C44.1289 46.8594 44.4863 46.9746 44.791 47.2051C45.0957 47.4316 45.3047 47.7305 45.418 48.1016C45.8633 47.2734 46.5273 46.8594 47.4102 46.8594C48.7305 46.8594 49.3906 47.6738 49.3906 49.3027V53ZM56.0293 50.2402H51.793C51.8086 50.9082 51.9883 51.4238 52.332 51.7871C52.6758 52.1504 53.1484 52.332 53.75 52.332C54.4258 52.332 55.0469 52.1094 55.6133 51.6641V52.5664C55.0859 52.9492 54.3887 53.1406 53.5215 53.1406C52.6738 53.1406 52.0078 52.8691 51.5234 52.3262C51.0391 51.7793 50.7969 51.0117 50.7969 50.0234C50.7969 49.0898 51.0605 48.3301 51.5879 47.7441C52.1191 47.1543 52.7773 46.8594 53.5625 46.8594C54.3477 46.8594 54.9551 47.1133 55.3848 47.6211C55.8145 48.1289 56.0293 48.834 56.0293 49.7363V50.2402ZM55.0449 49.4258C55.041 48.8711 54.9062 48.4395 54.6406 48.1309C54.3789 47.8223 54.0137 47.668 53.5449 47.668C53.0918 47.668 52.707 47.8301 52.3906 48.1543C52.0742 48.4785 51.8789 48.9023 51.8047 49.4258H55.0449ZM62.4688 53H61.5078V49.5781C61.5078 48.3047 61.043 47.668 60.1133 47.668C59.6328 47.668 59.2344 47.8496 58.918 48.2129C58.6055 48.5723 58.4492 49.0273 58.4492 49.5781V53H57.4883V47H58.4492V47.9961H58.4727C58.9258 47.2383 59.582 46.8594 60.4414 46.8594C61.0977 46.8594 61.5996 47.0723 61.9473 47.498C62.2949 47.9199 62.4688 48.5312 62.4688 49.332V53ZM67.0684 52.9414C66.8418 53.0664 66.543 53.1289 66.1719 53.1289C65.1211 53.1289 64.5957 52.543 64.5957 51.3711V47.8203H63.5645V47H64.5957V45.5352L65.5566 45.2246V47H67.0684V47.8203H65.5566V51.2012C65.5566 51.6035 65.625 51.8906 65.7617 52.0625C65.8984 52.2344 66.125 52.3203 66.4414 52.3203C66.6836 52.3203 66.8926 52.2539 67.0684 52.1211V52.9414ZM70.8594 53.1406C69.9727 53.1406 69.2637 52.8613 68.7324 52.3027C68.2051 51.7402 67.9414 50.9961 67.9414 50.0703C67.9414 49.0625 68.2168 48.2754 68.7676 47.709C69.3184 47.1426 70.0625 46.8594 71 46.8594C71.8945 46.8594 72.5918 47.1348 73.0918 47.6855C73.5957 48.2363 73.8477 49 73.8477 49.9766C73.8477 50.9336 73.5762 51.7012 73.0332 52.2793C72.4941 52.8535 71.7695 53.1406 70.8594 53.1406ZM70.9297 47.668C70.3125 47.668 69.8242 47.8789 69.4648 48.3008C69.1055 48.7188 68.9258 49.2969 68.9258 50.0352C68.9258 50.7461 69.1074 51.3066 69.4707 51.7168C69.834 52.127 70.3203 52.332 70.9297 52.332C71.5508 52.332 72.0273 52.1309 72.3594 51.7285C72.6953 51.3262 72.8633 50.7539 72.8633 50.0117C72.8633 49.2617 72.6953 48.6836 72.3594 48.2773C72.0273 47.8711 71.5508 47.668 70.9297 47.668ZM83.498 50.2402H79.2617C79.2773 50.9082 79.457 51.4238 79.8008 51.7871C80.1445 52.1504 80.6172 52.332 81.2188 52.332C81.8945 52.332 82.5156 52.1094 83.082 51.6641V52.5664C82.5547 52.9492 81.8574 53.1406 80.9902 53.1406C80.1426 53.1406 79.4766 52.8691 78.9922 52.3262C78.5078 51.7793 78.2656 51.0117 78.2656 50.0234C78.2656 49.0898 78.5293 48.3301 79.0566 47.7441C79.5879 47.1543 80.2461 46.8594 81.0312 46.8594C81.8164 46.8594 82.4238 47.1133 82.8535 47.6211C83.2832 48.1289 83.498 48.834 83.498 49.7363V50.2402ZM82.5137 49.4258C82.5098 48.8711 82.375 48.4395 82.1094 48.1309C81.8477 47.8223 81.4824 47.668 81.0137 47.668C80.5605 47.668 80.1758 47.8301 79.8594 48.1543C79.543 48.4785 79.3477 48.9023 79.2734 49.4258H82.5137ZM81.9512 45.8633H81.207L79.6719 43.9414H80.6562L81.9512 45.8633ZM28.7246 69H27.7637V65.5547C27.7637 64.8906 27.6602 64.4102 27.4531 64.1133C27.25 63.8164 26.9062 63.668 26.4219 63.668C26.0117 63.668 25.6621 63.8555 25.373 64.2305C25.0879 64.6055 24.9453 65.0547 24.9453 65.5781V69H23.9844V65.4375C23.9844 64.2578 23.5293 63.668 22.6191 63.668C22.1973 63.668 21.8496 63.8457 21.5762 64.2012C21.3027 64.5527 21.166 65.0117 21.166 65.5781V69H20.2051V63H21.166V63.9492H21.1895C21.6152 63.2227 22.2363 62.8594 23.0527 62.8594C23.4629 62.8594 23.8203 62.9746 24.125 63.2051C24.4297 63.4316 24.6387 63.7305 24.752 64.1016C25.1973 63.2734 25.8613 62.8594 26.7441 62.8594C28.0645 62.8594 28.7246 63.6738 28.7246 65.3027V69ZM34.8359 69H33.875V68.0625H33.8516C33.4336 68.7812 32.8184 69.1406 32.0059 69.1406C31.4082 69.1406 30.9395 68.9824 30.5996 68.666C30.2637 68.3496 30.0957 67.9297 30.0957 67.4062C30.0957 66.2852 30.7559 65.6328 32.0762 65.4492L33.875 65.1973C33.875 64.1777 33.4629 63.668 32.6387 63.668C31.916 63.668 31.2637 63.9141 30.6816 64.4062V63.4219C31.2715 63.0469 31.9512 62.8594 32.7207 62.8594C34.1309 62.8594 34.8359 63.6055 34.8359 65.0977V69ZM33.875 65.9648L32.4277 66.1641C31.9824 66.2266 31.6465 66.3379 31.4199 66.498C31.1934 66.6543 31.0801 66.9336 31.0801 67.3359C31.0801 67.6289 31.1836 67.8691 31.3906 68.0566C31.6016 68.2402 31.8809 68.332 32.2285 68.332C32.7051 68.332 33.0977 68.166 33.4062 67.834C33.7188 67.498 33.875 67.0742 33.875 66.5625V65.9648ZM36.2832 68.7832V67.752C36.8066 68.1387 37.3828 68.332 38.0117 68.332C38.8555 68.332 39.2773 68.0508 39.2773 67.4883C39.2773 67.3281 39.2402 67.1934 39.166 67.084C39.0957 66.9707 38.998 66.8711 38.873 66.7852C38.752 66.6992 38.6074 66.623 38.4395 66.5566C38.2754 66.4863 38.0977 66.4141 37.9062 66.3398C37.6406 66.2344 37.4062 66.1289 37.2031 66.0234C37.0039 65.9141 36.8359 65.793 36.6992 65.6602C36.5664 65.5234 36.4648 65.3691 36.3945 65.1973C36.3281 65.0254 36.2949 64.8242 36.2949 64.5938C36.2949 64.3125 36.3594 64.0645 36.4883 63.8496C36.6172 63.6309 36.7891 63.4492 37.0039 63.3047C37.2188 63.1562 37.4629 63.0449 37.7363 62.9707C38.0137 62.8965 38.2988 62.8594 38.5918 62.8594C39.1113 62.8594 39.5762 62.9492 39.9863 63.1289V64.1016C39.5449 63.8125 39.0371 63.668 38.4629 63.668C38.2832 63.668 38.1211 63.6895 37.9766 63.7324C37.832 63.7715 37.707 63.8281 37.6016 63.9023C37.5 63.9766 37.4199 64.0664 37.3613 64.1719C37.3066 64.2734 37.2793 64.3867 37.2793 64.5117C37.2793 64.668 37.3066 64.7988 37.3613 64.9043C37.4199 65.0098 37.5039 65.1035 37.6133 65.1855C37.7227 65.2676 37.8555 65.3418 38.0117 65.4082C38.168 65.4746 38.3457 65.5469 38.5449 65.625C38.8105 65.7266 39.0488 65.832 39.2598 65.9414C39.4707 66.0469 39.6504 66.168 39.7988 66.3047C39.9473 66.4375 40.0605 66.5918 40.1387 66.7676C40.2207 66.9434 40.2617 67.1523 40.2617 67.3945C40.2617 67.6914 40.1953 67.9492 40.0625 68.168C39.9336 68.3867 39.7598 68.5684 39.541 68.7129C39.3223 68.8574 39.0703 68.9648 38.7852 69.0352C38.5 69.1055 38.2012 69.1406 37.8887 69.1406C37.2715 69.1406 36.7363 69.0215 36.2832 68.7832ZM45.834 68.7246C45.373 69.002 44.8262 69.1406 44.1934 69.1406C43.3379 69.1406 42.6465 68.8633 42.1191 68.3086C41.5957 67.75 41.334 67.0273 41.334 66.1406C41.334 65.1523 41.6172 64.3594 42.1836 63.7617C42.75 63.1602 43.5059 62.8594 44.4512 62.8594C44.9785 62.8594 45.4434 62.957 45.8457 63.1523V64.1367C45.4004 63.8242 44.9238 63.668 44.416 63.668C43.8027 63.668 43.2988 63.8887 42.9043 64.3301C42.5137 64.7676 42.3184 65.3438 42.3184 66.0586C42.3184 66.7617 42.502 67.3164 42.8691 67.7227C43.2402 68.1289 43.7363 68.332 44.3574 68.332C44.8809 68.332 45.373 68.1582 45.834 67.8105V68.7246ZM52.2676 69H51.3066V65.543C51.3066 64.293 50.8418 63.668 49.9121 63.668C49.4434 63.668 49.0488 63.8496 48.7285 64.2129C48.4082 64.5723 48.248 65.0352 48.248 65.6016V69H47.2871V60.1172H48.248V63.9961H48.2715C48.7324 63.2383 49.3887 62.8594 50.2402 62.8594C51.5918 62.8594 52.2676 63.6738 52.2676 65.3027V69ZM58.9062 66.2402H54.6699C54.6855 66.9082 54.8652 67.4238 55.209 67.7871C55.5527 68.1504 56.0254 68.332 56.627 68.332C57.3027 68.332 57.9238 68.1094 58.4902 67.6641V68.5664C57.9629 68.9492 57.2656 69.1406 56.3984 69.1406C55.5508 69.1406 54.8848 68.8691 54.4004 68.3262C53.916 67.7793 53.6738 67.0117 53.6738 66.0234C53.6738 65.0898 53.9375 64.3301 54.4648 63.7441C54.9961 63.1543 55.6543 62.8594 56.4395 62.8594C57.2246 62.8594 57.832 63.1133 58.2617 63.6211C58.6914 64.1289 58.9062 64.834 58.9062 65.7363V66.2402ZM57.9219 65.4258C57.918 64.8711 57.7832 64.4395 57.5176 64.1309C57.2559 63.8223 56.8906 63.668 56.4219 63.668C55.9688 63.668 55.584 63.8301 55.2676 64.1543C54.9512 64.4785 54.7559 64.9023 54.6816 65.4258H57.9219ZM63.4941 63.9727C63.3262 63.8438 63.084 63.7793 62.7676 63.7793C62.3574 63.7793 62.0137 63.9727 61.7363 64.3594C61.4629 64.7461 61.3262 65.2734 61.3262 65.9414V69H60.3652V63H61.3262V64.2363H61.3496C61.4863 63.8145 61.6953 63.4863 61.9766 63.252C62.2578 63.0137 62.5723 62.8945 62.9199 62.8945C63.1699 62.8945 63.3613 62.9219 63.4941 62.9766V63.9727ZM68.832 69H67.8711V68.0625H67.8477C67.4297 68.7812 66.8145 69.1406 66.002 69.1406C65.4043 69.1406 64.9355 68.9824 64.5957 68.666C64.2598 68.3496 64.0918 67.9297 64.0918 67.4062C64.0918 66.2852 64.752 65.6328 66.0723 65.4492L67.8711 65.1973C67.8711 64.1777 67.459 63.668 66.6348 63.668C65.9121 63.668 65.2598 63.9141 64.6777 64.4062V63.4219C65.2676 63.0469 65.9473 62.8594 66.7168 62.8594C68.127 62.8594 68.832 63.6055 68.832 65.0977V69ZM67.8711 65.9648L66.4238 66.1641C65.9785 66.2266 65.6426 66.3379 65.416 66.498C65.1895 66.6543 65.0762 66.9336 65.0762 67.3359C65.0762 67.6289 65.1797 67.8691 65.3867 68.0566C65.5977 68.2402 65.877 68.332 66.2246 68.332C66.7012 68.332 67.0938 68.166 67.4023 67.834C67.7148 67.498 67.8711 67.0742 67.8711 66.5625V65.9648ZM73.4258 68.9414C73.1992 69.0664 72.9004 69.1289 72.5293 69.1289C71.4785 69.1289 70.9531 68.543 70.9531 67.3711V63.8203H69.9219V63H70.9531V61.5352L71.9141 61.2246V63H73.4258V63.8203H71.9141V67.2012C71.9141 67.6035 71.9824 67.8906 72.1191 68.0625C72.2559 68.2344 72.4824 68.3203 72.7988 68.3203C73.041 68.3203 73.25 68.2539 73.4258 68.1211V68.9414ZM77.2168 69.1406C76.3301 69.1406 75.6211 68.8613 75.0898 68.3027C74.5625 67.7402 74.2988 66.9961 74.2988 66.0703C74.2988 65.0625 74.5742 64.2754 75.125 63.709C75.6758 63.1426 76.4199 62.8594 77.3574 62.8594C78.252 62.8594 78.9492 63.1348 79.4492 63.6855C79.9531 64.2363 80.2051 65 80.2051 65.9766C80.2051 66.9336 79.9336 67.7012 79.3906 68.2793C78.8516 68.8535 78.127 69.1406 77.2168 69.1406ZM77.2871 63.668C76.6699 63.668 76.1816 63.8789 75.8223 64.3008C75.4629 64.7188 75.2832 65.2969 75.2832 66.0352C75.2832 66.7461 75.4648 67.3066 75.8281 67.7168C76.1914 68.127 76.6777 68.332 77.2871 68.332C77.9082 68.332 78.3848 68.1309 78.7168 67.7285C79.0527 67.3262 79.2207 66.7539 79.2207 66.0117C79.2207 65.2617 79.0527 64.6836 78.7168 64.2773C78.3848 63.8711 77.9082 63.668 77.2871 63.668Z" fill="#020057"/>
</svg>
