<svg width="100%" viewBox="0 0 148 147" fill="none" xmlns="http://www.w3.org/2000/svg">
<g filter="url(#filter0_dd_3871_164760)">
<rect x="8" y="4" width="132" height="132" fill="#FBFBFE"/>
<rect x="8.5" y="4.5" width="131" height="131" stroke="#827DFF" stroke-dasharray="4 4"/>
<rect width="100" height="80" transform="translate(24 30)" fill="#FBFBFE"/>
<path d="M64.2197 40.2197C63.9534 40.4859 63.9292 40.9026 64.1471 41.1962L64.2197 41.2803L68.2542 45.3149C66.3322 46.6644 64.8958 48.6799 64.2989 51.0644C64.1983 51.4662 64.4425 51.8735 64.8443 51.9741C65.2461 52.0746 65.6534 51.8305 65.754 51.4286C66.2835 49.3135 67.5911 47.5395 69.3342 46.3945L71.1438 48.2043C70.4363 48.9258 70 49.9143 70 51.0046C70 53.2138 71.7909 55.0046 74 55.0046C75.0904 55.0046 76.0788 54.5683 76.8004 53.8608L82.7197 59.7803C83.0126 60.0732 83.4874 60.0732 83.7803 59.7803C84.0466 59.5141 84.0708 59.0974 83.8529 58.8038L83.7803 58.7197L77.6668 52.6055L77.668 52.604L76.4679 51.4061L73.598 48.5368L73.6 48.536L70.7188 45.6578L70.72 45.656L69.5867 44.5255L65.2803 40.2197C64.9874 39.9268 64.5126 39.9268 64.2197 40.2197ZM72.2041 49.2655L75.7392 52.8006C75.2892 53.2364 74.6759 53.5046 74 53.5046C72.6193 53.5046 71.5 52.3853 71.5 51.0046C71.5 50.3287 71.7682 49.7154 72.2041 49.2655ZM74 43.5C72.9997 43.5 72.0291 43.6481 71.1111 43.925L72.3481 45.1612C72.8839 45.0553 73.4364 45 74 45C77.9231 45 81.3099 47.6803 82.2471 51.4332C82.3475 51.835 82.7546 52.0794 83.1565 51.9791C83.5584 51.8787 83.8028 51.4716 83.7024 51.0697C82.5994 46.6527 78.6155 43.5 74 43.5ZM74.1947 47.0093L77.996 50.81C77.8942 48.7531 76.2472 47.1076 74.1947 47.0093Z" fill="#020057"/>
<path d="M32.552 79.472H43.46V80.228H32.552V79.472ZM32.828 73.436H43.16V74.24H32.828V73.436ZM36.704 78.224L37.592 78.452C37.328 78.868 37.04 79.308 36.728 79.772C36.416 80.236 36.104 80.688 35.792 81.128C35.48 81.56 35.192 81.94 34.928 82.268L34.076 81.968C34.34 81.64 34.628 81.26 34.94 80.828C35.252 80.396 35.564 79.952 35.876 79.496C36.188 79.04 36.464 78.616 36.704 78.224ZM40.304 79.748L41.168 80C40.912 80.656 40.552 81.216 40.088 81.68C39.632 82.144 39.072 82.528 38.408 82.832C37.744 83.136 36.968 83.376 36.08 83.552C35.192 83.736 34.188 83.868 33.068 83.948C33.044 83.82 32.996 83.68 32.924 83.528C32.86 83.384 32.788 83.26 32.708 83.156C34.14 83.076 35.36 82.92 36.368 82.688C37.384 82.448 38.212 82.092 38.852 81.62C39.5 81.148 39.984 80.524 40.304 79.748ZM34.736 81.86L35.18 81.2C36.172 81.368 37.156 81.568 38.132 81.8C39.108 82.024 40.024 82.264 40.88 82.52C41.744 82.768 42.484 83.012 43.1 83.252L42.548 83.984C41.94 83.736 41.22 83.484 40.388 83.228C39.564 82.972 38.668 82.728 37.7 82.496C36.74 82.256 35.752 82.044 34.736 81.86ZM36.104 73.736H36.956V77.936H36.104V73.736ZM38.912 73.736H39.764V77.936H38.912V73.736ZM34.28 76.004V77.636H41.768V76.004H34.28ZM33.428 75.26H42.656V78.368H33.428V75.26ZM49.532 80.684H50.42V83.948H49.532V80.684ZM48.956 77L49.772 77.396C49.444 77.7 49.088 78.008 48.704 78.32C48.328 78.632 47.98 78.892 47.66 79.1L47.024 78.752C47.24 78.6 47.464 78.424 47.696 78.224C47.936 78.016 48.168 77.804 48.392 77.588C48.616 77.372 48.804 77.176 48.956 77ZM51.404 77.636L52.208 78.08C51.8 78.408 51.348 78.752 50.852 79.112C50.364 79.464 49.868 79.8 49.364 80.12C48.868 80.44 48.396 80.72 47.948 80.96L47.36 80.552C47.8 80.304 48.268 80.012 48.764 79.676C49.26 79.34 49.74 78.992 50.204 78.632C50.668 78.272 51.068 77.94 51.404 77.636ZM45.848 78.74L46.436 78.224C46.74 78.36 47.06 78.524 47.396 78.716C47.732 78.9 48.052 79.088 48.356 79.28C48.66 79.464 48.912 79.64 49.112 79.808L48.476 80.384C48.292 80.216 48.052 80.036 47.756 79.844C47.46 79.644 47.144 79.448 46.808 79.256C46.48 79.056 46.16 78.884 45.848 78.74ZM51.836 79.496L52.46 79.016C52.812 79.2 53.172 79.416 53.54 79.664C53.908 79.904 54.256 80.152 54.584 80.408C54.912 80.656 55.18 80.888 55.388 81.104L54.728 81.632C54.528 81.424 54.268 81.192 53.948 80.936C53.628 80.68 53.284 80.428 52.916 80.18C52.548 79.924 52.188 79.696 51.836 79.496ZM51.608 81.908L52.28 81.428C52.616 81.58 52.972 81.756 53.348 81.956C53.724 82.156 54.08 82.36 54.416 82.568C54.752 82.776 55.032 82.972 55.256 83.156L54.548 83.696C54.34 83.52 54.072 83.324 53.744 83.108C53.416 82.892 53.064 82.68 52.688 82.472C52.312 82.256 51.952 82.068 51.608 81.908ZM44.78 80.444C45.34 80.444 45.98 80.44 46.7 80.432C47.428 80.416 48.204 80.404 49.028 80.396C49.86 80.38 50.712 80.364 51.584 80.348C52.464 80.332 53.336 80.312 54.2 80.288L54.152 80.996C53.304 81.012 52.452 81.032 51.596 81.056C50.748 81.08 49.916 81.1 49.1 81.116C48.292 81.132 47.524 81.148 46.796 81.164C46.076 81.18 45.428 81.192 44.852 81.2L44.78 80.444ZM47.492 81.44L48.32 81.752C48.048 82.008 47.736 82.26 47.384 82.508C47.04 82.756 46.68 82.988 46.304 83.204C45.936 83.42 45.576 83.604 45.224 83.756C45.176 83.7 45.108 83.632 45.02 83.552C44.94 83.48 44.856 83.404 44.768 83.324C44.68 83.252 44.6 83.192 44.528 83.144C45.064 82.936 45.6 82.684 46.136 82.388C46.672 82.084 47.124 81.768 47.492 81.44ZM49.532 72.908H50.432V77.168H49.532V72.908ZM45.38 73.796H54.752V74.492H45.38V73.796ZM46.04 75.26H54.044V75.944H46.04V75.26ZM44.744 76.724H55.292V77.444H44.744V76.724ZM60.788 75.908C61.132 75.94 61.468 75.964 61.796 75.98C62.124 75.996 62.468 76.004 62.828 76.004C63.548 76.004 64.264 75.976 64.976 75.92C65.688 75.864 66.348 75.776 66.956 75.656V76.58C66.316 76.684 65.64 76.76 64.928 76.808C64.224 76.856 63.516 76.884 62.804 76.892C62.46 76.892 62.124 76.884 61.796 76.868C61.476 76.852 61.14 76.832 60.788 76.808V75.908ZM64.988 73.76C64.972 73.88 64.956 74 64.94 74.12C64.932 74.24 64.924 74.36 64.916 74.48C64.908 74.624 64.9 74.808 64.892 75.032C64.884 75.256 64.88 75.496 64.88 75.752C64.88 76 64.88 76.244 64.88 76.484C64.88 76.94 64.888 77.396 64.904 77.852C64.92 78.308 64.94 78.752 64.964 79.184C64.988 79.616 65.008 80.024 65.024 80.408C65.048 80.784 65.06 81.128 65.06 81.44C65.06 81.68 65.024 81.916 64.952 82.148C64.888 82.38 64.776 82.588 64.616 82.772C64.464 82.956 64.252 83.1 63.98 83.204C63.716 83.316 63.384 83.372 62.984 83.372C62.176 83.372 61.556 83.22 61.124 82.916C60.7 82.612 60.488 82.192 60.488 81.656C60.488 81.32 60.584 81.016 60.776 80.744C60.976 80.464 61.256 80.244 61.616 80.084C61.984 79.924 62.432 79.844 62.96 79.844C63.472 79.844 63.94 79.904 64.364 80.024C64.796 80.136 65.192 80.288 65.552 80.48C65.92 80.664 66.256 80.872 66.56 81.104C66.864 81.328 67.144 81.552 67.4 81.776L66.872 82.58C66.456 82.18 66.036 81.832 65.612 81.536C65.196 81.24 64.764 81.008 64.316 80.84C63.868 80.672 63.392 80.588 62.888 80.588C62.432 80.588 62.06 80.68 61.772 80.864C61.492 81.04 61.352 81.272 61.352 81.56C61.352 81.864 61.488 82.1 61.76 82.268C62.032 82.428 62.384 82.508 62.816 82.508C63.16 82.508 63.424 82.452 63.608 82.34C63.8 82.228 63.932 82.076 64.004 81.884C64.084 81.692 64.124 81.464 64.124 81.2C64.124 80.984 64.116 80.692 64.1 80.324C64.084 79.956 64.064 79.556 64.04 79.124C64.016 78.684 63.996 78.236 63.98 77.78C63.964 77.324 63.956 76.896 63.956 76.496C63.956 76.088 63.956 75.704 63.956 75.344C63.956 74.984 63.956 74.7 63.956 74.492C63.956 74.388 63.952 74.268 63.944 74.132C63.936 73.988 63.924 73.864 63.908 73.76H64.988ZM59.06 73.832C59.036 73.896 59.008 73.98 58.976 74.084C58.952 74.18 58.928 74.28 58.904 74.384C58.888 74.488 58.872 74.576 58.856 74.648C58.808 74.872 58.756 75.14 58.7 75.452C58.652 75.756 58.6 76.088 58.544 76.448C58.488 76.8 58.436 77.16 58.388 77.528C58.348 77.888 58.316 78.236 58.292 78.572C58.268 78.908 58.256 79.212 58.256 79.484C58.256 79.772 58.264 80.048 58.28 80.312C58.304 80.576 58.336 80.856 58.376 81.152C58.44 80.968 58.512 80.772 58.592 80.564C58.672 80.356 58.752 80.148 58.832 79.94C58.92 79.732 58.996 79.548 59.06 79.388L59.552 79.772C59.456 80.044 59.348 80.352 59.228 80.696C59.116 81.032 59.008 81.356 58.904 81.668C58.808 81.972 58.74 82.224 58.7 82.424C58.684 82.504 58.668 82.596 58.652 82.7C58.644 82.804 58.644 82.892 58.652 82.964C58.652 83.02 58.652 83.088 58.652 83.168C58.66 83.248 58.668 83.32 58.676 83.384L57.836 83.444C57.716 83.012 57.608 82.476 57.512 81.836C57.424 81.188 57.38 80.46 57.38 79.652C57.38 79.204 57.4 78.74 57.44 78.26C57.488 77.772 57.54 77.296 57.596 76.832C57.66 76.368 57.72 75.944 57.776 75.56C57.84 75.168 57.892 74.848 57.932 74.6C57.948 74.464 57.964 74.32 57.98 74.168C57.996 74.016 58.004 73.876 58.004 73.748L59.06 73.832ZM79.148 75.392C79.092 75.456 79.036 75.52 78.98 75.584C78.924 75.64 78.88 75.7 78.848 75.764C78.624 76.132 78.352 76.532 78.032 76.964C77.72 77.396 77.364 77.84 76.964 78.296C76.564 78.752 76.128 79.2 75.656 79.64C75.192 80.08 74.692 80.492 74.156 80.876L73.412 80.216C73.9 79.88 74.356 79.516 74.78 79.124C75.204 78.732 75.592 78.336 75.944 77.936C76.304 77.528 76.616 77.14 76.88 76.772C77.152 76.404 77.364 76.076 77.516 75.788C77.364 75.788 77.136 75.788 76.832 75.788C76.528 75.788 76.176 75.788 75.776 75.788C75.376 75.788 74.952 75.788 74.504 75.788C74.064 75.788 73.624 75.788 73.184 75.788C72.752 75.788 72.348 75.788 71.972 75.788C71.596 75.788 71.272 75.788 71 75.788C70.736 75.788 70.556 75.788 70.46 75.788C70.308 75.788 70.152 75.792 69.992 75.8C69.832 75.808 69.684 75.816 69.548 75.824C69.42 75.832 69.316 75.844 69.236 75.86V74.78C69.348 74.796 69.472 74.812 69.608 74.828C69.744 74.844 69.884 74.856 70.028 74.864C70.18 74.872 70.324 74.876 70.46 74.876C70.548 74.876 70.72 74.876 70.976 74.876C71.24 74.876 71.56 74.876 71.936 74.876C72.312 74.876 72.716 74.876 73.148 74.876C73.588 74.876 74.032 74.876 74.48 74.876C74.936 74.876 75.368 74.876 75.776 74.876C76.192 74.876 76.56 74.876 76.88 74.876C77.2 74.876 77.444 74.876 77.612 74.876C77.956 74.876 78.216 74.844 78.392 74.78L79.148 75.392ZM73.496 81.092C73.312 80.908 73.096 80.704 72.848 80.48C72.608 80.256 72.356 80.032 72.092 79.808C71.828 79.576 71.58 79.368 71.348 79.184C71.116 78.992 70.916 78.84 70.748 78.728L71.528 78.092C71.664 78.196 71.844 78.34 72.068 78.524C72.292 78.7 72.536 78.9 72.8 79.124C73.072 79.348 73.34 79.576 73.604 79.808C73.868 80.04 74.108 80.264 74.324 80.48C74.58 80.72 74.844 80.984 75.116 81.272C75.396 81.56 75.66 81.84 75.908 82.112C76.156 82.384 76.364 82.628 76.532 82.844L75.656 83.54C75.512 83.332 75.316 83.088 75.068 82.808C74.828 82.52 74.568 82.228 74.288 81.932C74.008 81.628 73.744 81.348 73.496 81.092ZM89.6 74.972C89.56 75.02 89.508 75.1 89.444 75.212C89.388 75.316 89.34 75.412 89.3 75.5C89.148 75.892 88.948 76.328 88.7 76.808C88.452 77.28 88.176 77.748 87.872 78.212C87.568 78.676 87.248 79.096 86.912 79.472C86.472 79.968 85.988 80.452 85.46 80.924C84.932 81.388 84.376 81.824 83.792 82.232C83.208 82.632 82.6 82.976 81.968 83.264L81.2 82.46C81.848 82.204 82.468 81.888 83.06 81.512C83.66 81.128 84.22 80.712 84.74 80.264C85.268 79.808 85.736 79.352 86.144 78.896C86.416 78.584 86.684 78.236 86.948 77.852C87.22 77.46 87.46 77.064 87.668 76.664C87.884 76.256 88.04 75.888 88.136 75.56C88.072 75.56 87.92 75.56 87.68 75.56C87.44 75.56 87.156 75.56 86.828 75.56C86.5 75.56 86.156 75.56 85.796 75.56C85.436 75.56 85.092 75.56 84.764 75.56C84.436 75.56 84.152 75.56 83.912 75.56C83.68 75.56 83.528 75.56 83.456 75.56C83.32 75.56 83.164 75.564 82.988 75.572C82.82 75.58 82.664 75.588 82.52 75.596C82.384 75.604 82.292 75.612 82.244 75.62V74.528C82.3 74.536 82.4 74.548 82.544 74.564C82.696 74.572 82.856 74.58 83.024 74.588C83.192 74.596 83.336 74.6 83.456 74.6C83.544 74.6 83.704 74.6 83.936 74.6C84.168 74.6 84.444 74.6 84.764 74.6C85.092 74.6 85.432 74.6 85.784 74.6C86.136 74.6 86.472 74.6 86.792 74.6C87.12 74.6 87.4 74.6 87.632 74.6C87.864 74.6 88.016 74.6 88.088 74.6C88.288 74.6 88.464 74.592 88.616 74.576C88.776 74.56 88.9 74.536 88.988 74.504L89.6 74.972ZM87.068 78.836C87.396 79.108 87.732 79.408 88.076 79.736C88.428 80.064 88.772 80.404 89.108 80.756C89.444 81.1 89.756 81.432 90.044 81.752C90.332 82.064 90.58 82.348 90.788 82.604L89.948 83.324C89.668 82.94 89.332 82.528 88.94 82.088C88.548 81.64 88.132 81.196 87.692 80.756C87.26 80.308 86.824 79.896 86.384 79.52L87.068 78.836ZM102.464 75.5C102.408 75.58 102.356 75.684 102.308 75.812C102.26 75.932 102.22 76.04 102.188 76.136C102.084 76.536 101.932 76.976 101.732 77.456C101.532 77.928 101.292 78.408 101.012 78.896C100.732 79.376 100.412 79.832 100.052 80.264C99.508 80.928 98.856 81.536 98.096 82.088C97.344 82.632 96.404 83.112 95.276 83.528L94.412 82.748C95.148 82.532 95.808 82.272 96.392 81.968C96.976 81.656 97.5 81.312 97.964 80.936C98.428 80.56 98.84 80.16 99.2 79.736C99.512 79.368 99.796 78.964 100.052 78.524C100.316 78.084 100.54 77.644 100.724 77.204C100.908 76.756 101.04 76.352 101.12 75.992H96.668L97.052 75.128C97.148 75.128 97.328 75.128 97.592 75.128C97.856 75.128 98.156 75.128 98.492 75.128C98.836 75.128 99.176 75.128 99.512 75.128C99.848 75.128 100.14 75.128 100.388 75.128C100.644 75.128 100.808 75.128 100.88 75.128C101.04 75.128 101.188 75.12 101.324 75.104C101.46 75.08 101.572 75.048 101.66 75.008L102.464 75.5ZM98.444 73.676C98.34 73.836 98.24 74.008 98.144 74.192C98.048 74.368 97.972 74.512 97.916 74.624C97.676 75.064 97.376 75.54 97.016 76.052C96.656 76.556 96.228 77.056 95.732 77.552C95.236 78.048 94.664 78.512 94.016 78.944L93.188 78.32C93.708 78.016 94.172 77.684 94.58 77.324C94.988 76.964 95.344 76.6 95.648 76.232C95.96 75.864 96.224 75.512 96.44 75.176C96.656 74.84 96.828 74.536 96.956 74.264C97.02 74.16 97.088 74.016 97.16 73.832C97.24 73.64 97.296 73.468 97.328 73.316L98.444 73.676ZM110.288 74.492C110.248 74.364 110.2 74.216 110.144 74.048C110.096 73.88 110.044 73.716 109.988 73.556L111.008 73.424C111.048 73.656 111.104 73.92 111.176 74.216C111.248 74.504 111.332 74.8 111.428 75.104C111.524 75.4 111.62 75.676 111.716 75.932C111.9 76.452 112.132 76.972 112.412 77.492C112.692 78.004 112.956 78.436 113.204 78.788C113.292 78.9 113.38 79.008 113.468 79.112C113.556 79.216 113.644 79.32 113.732 79.424L113.24 80.096C113.096 80.064 112.904 80.032 112.664 80C112.432 79.968 112.176 79.94 111.896 79.916C111.624 79.884 111.352 79.856 111.08 79.832C110.808 79.808 110.564 79.788 110.348 79.772L110.42 78.968C110.644 78.984 110.88 79.004 111.128 79.028C111.384 79.052 111.624 79.076 111.848 79.1C112.08 79.116 112.268 79.132 112.412 79.148C112.244 78.892 112.064 78.6 111.872 78.272C111.68 77.936 111.492 77.584 111.308 77.216C111.132 76.84 110.976 76.472 110.84 76.112C110.712 75.76 110.604 75.448 110.516 75.176C110.428 74.904 110.352 74.676 110.288 74.492ZM105.896 75.428C106.568 75.508 107.216 75.564 107.84 75.596C108.472 75.628 109.068 75.636 109.628 75.62C110.196 75.604 110.708 75.572 111.164 75.524C111.484 75.484 111.82 75.436 112.172 75.38C112.532 75.324 112.888 75.252 113.24 75.164C113.592 75.076 113.924 74.984 114.236 74.888L114.344 75.824C114.064 75.912 113.756 75.988 113.42 76.052C113.084 76.116 112.748 76.176 112.412 76.232C112.076 76.288 111.76 76.332 111.464 76.364C110.704 76.452 109.852 76.5 108.908 76.508C107.972 76.516 106.976 76.476 105.92 76.388L105.896 75.428ZM107.744 79.256C107.568 79.544 107.428 79.824 107.324 80.096C107.228 80.36 107.18 80.636 107.18 80.924C107.18 81.492 107.428 81.908 107.924 82.172C108.42 82.436 109.112 82.572 110 82.58C110.616 82.588 111.18 82.564 111.692 82.508C112.212 82.452 112.68 82.376 113.096 82.28L113.048 83.24C112.68 83.304 112.24 83.364 111.728 83.42C111.216 83.476 110.624 83.504 109.952 83.504C109.192 83.496 108.532 83.4 107.972 83.216C107.42 83.032 106.992 82.76 106.688 82.4C106.384 82.032 106.232 81.576 106.232 81.032C106.232 80.704 106.284 80.38 106.388 80.06C106.5 79.732 106.64 79.392 106.808 79.04L107.744 79.256ZM55.8696 98.088C55.5496 98.408 55.2056 98.656 54.8376 98.832C54.4696 99 54.0776 99.084 53.6616 99.084C53.2696 99.084 52.9496 98.956 52.7016 98.7C52.4536 98.444 52.3296 98.068 52.3296 97.572C52.3296 97.236 52.3536 96.872 52.4016 96.48C52.4496 96.088 52.5016 95.688 52.5576 95.28C52.6136 94.864 52.6656 94.472 52.7136 94.104C52.7616 93.728 52.7856 93.392 52.7856 93.096C52.7856 92.752 52.7016 92.504 52.5336 92.352C52.3656 92.192 52.1256 92.112 51.8136 92.112C51.5336 92.112 51.2216 92.196 50.8776 92.364C50.5336 92.524 50.1816 92.744 49.8216 93.024C49.4616 93.296 49.1096 93.604 48.7656 93.948C48.4216 94.284 48.1056 94.62 47.8176 94.956L47.8416 93.768C47.9936 93.608 48.1856 93.42 48.4176 93.204C48.6576 92.988 48.9216 92.764 49.2096 92.532C49.5056 92.3 49.8176 92.084 50.1456 91.884C50.4736 91.684 50.7976 91.524 51.1176 91.404C51.4456 91.284 51.7576 91.224 52.0536 91.224C52.4296 91.224 52.7416 91.292 52.9896 91.428C53.2376 91.556 53.4216 91.744 53.5416 91.992C53.6616 92.232 53.7216 92.512 53.7216 92.832C53.7216 93.128 53.6976 93.472 53.6496 93.864C53.6096 94.248 53.5576 94.648 53.4936 95.064C53.4376 95.48 53.3856 95.884 53.3376 96.276C53.2976 96.668 53.2776 97.016 53.2776 97.32C53.2776 97.52 53.3256 97.692 53.4216 97.836C53.5256 97.98 53.6856 98.052 53.9016 98.052C54.1896 98.052 54.4856 97.968 54.7896 97.8C55.1016 97.624 55.4096 97.376 55.7136 97.056L55.8696 98.088ZM47.8056 92.352C47.7096 92.36 47.5616 92.38 47.3616 92.412C47.1696 92.436 46.9496 92.464 46.7016 92.496C46.4536 92.528 46.2016 92.564 45.9456 92.604C45.6896 92.636 45.4496 92.668 45.2256 92.7L45.1296 91.716C45.2576 91.724 45.3816 91.728 45.5016 91.728C45.6296 91.72 45.7656 91.712 45.9096 91.704C46.0776 91.696 46.2816 91.68 46.5216 91.656C46.7696 91.624 47.0256 91.592 47.2896 91.56C47.5616 91.52 47.8136 91.48 48.0456 91.44C48.2856 91.392 48.4736 91.344 48.6096 91.296L48.9576 91.716C48.8856 91.812 48.8056 91.932 48.7176 92.076C48.6296 92.212 48.5416 92.352 48.4536 92.496C48.3656 92.64 48.2896 92.768 48.2256 92.88L47.8536 94.512C47.7176 94.728 47.5496 94.984 47.3496 95.28C47.1496 95.576 46.9376 95.888 46.7136 96.216C46.4976 96.536 46.2776 96.856 46.0536 97.176C45.8296 97.488 45.6256 97.776 45.4416 98.04L44.8296 97.212C44.9816 97.028 45.1576 96.804 45.3576 96.54C45.5656 96.268 45.7816 95.976 46.0056 95.664C46.2376 95.352 46.4616 95.048 46.6776 94.752C46.9016 94.448 47.0976 94.168 47.2656 93.912C47.4416 93.656 47.5736 93.448 47.6616 93.288L47.7096 92.676L47.8056 92.352ZM47.6976 90.36C47.6976 90.224 47.6936 90.08 47.6856 89.928C47.6856 89.776 47.6736 89.624 47.6496 89.472L48.7776 89.508C48.7456 89.668 48.7056 89.92 48.6576 90.264C48.6096 90.6 48.5616 91 48.5136 91.464C48.4736 91.928 48.4296 92.416 48.3816 92.928C48.3416 93.44 48.3096 93.948 48.2856 94.452C48.2616 94.948 48.2496 95.408 48.2496 95.832C48.2496 96.192 48.2496 96.528 48.2496 96.84C48.2496 97.144 48.2536 97.448 48.2616 97.752C48.2696 98.048 48.2816 98.372 48.2976 98.724C48.3056 98.828 48.3136 98.948 48.3216 99.084C48.3296 99.22 48.3416 99.344 48.3576 99.456H47.3136C47.3296 99.344 47.3376 99.22 47.3376 99.084C47.3456 98.956 47.3496 98.844 47.3496 98.748C47.3576 98.364 47.3616 98.024 47.3616 97.728C47.3616 97.432 47.3616 97.128 47.3616 96.816C47.3696 96.496 47.3776 96.116 47.3856 95.676C47.3856 95.5 47.3936 95.26 47.4096 94.956C47.4256 94.644 47.4456 94.304 47.4696 93.936C47.4936 93.56 47.5176 93.18 47.5416 92.796C47.5656 92.412 47.5896 92.052 47.6136 91.716C47.6376 91.372 47.6576 91.08 47.6736 90.84C47.6896 90.6 47.6976 90.44 47.6976 90.36ZM56.8384 91.032C57.0704 91.024 57.2784 91.016 57.4624 91.008C57.6464 90.992 57.7944 90.98 57.9064 90.972C58.0984 90.948 58.3744 90.92 58.7344 90.888C59.1024 90.848 59.5224 90.808 59.9944 90.768C60.4664 90.72 60.9744 90.672 61.5184 90.624C62.0624 90.576 62.6104 90.528 63.1624 90.48C63.6024 90.44 64.0184 90.408 64.4104 90.384C64.8024 90.352 65.1664 90.328 65.5024 90.312C65.8384 90.288 66.1384 90.272 66.4024 90.264V91.224C66.1784 91.216 65.9224 91.216 65.6344 91.224C65.3464 91.232 65.0624 91.252 64.7824 91.284C64.5024 91.308 64.2584 91.352 64.0504 91.416C63.6264 91.552 63.2424 91.76 62.8984 92.04C62.5624 92.312 62.2744 92.628 62.0344 92.988C61.7944 93.34 61.6104 93.712 61.4824 94.104C61.3624 94.488 61.3024 94.856 61.3024 95.208C61.3024 95.68 61.3824 96.092 61.5424 96.444C61.7024 96.788 61.9184 97.08 62.1904 97.32C62.4704 97.56 62.7864 97.756 63.1384 97.908C63.4984 98.06 63.8744 98.172 64.2664 98.244C64.6584 98.316 65.0504 98.36 65.4424 98.376L65.0944 99.372C64.6544 99.356 64.2064 99.292 63.7504 99.18C63.3024 99.076 62.8744 98.924 62.4664 98.724C62.0584 98.516 61.6944 98.256 61.3744 97.944C61.0544 97.632 60.8024 97.268 60.6184 96.852C60.4344 96.436 60.3424 95.96 60.3424 95.424C60.3424 94.8 60.4504 94.224 60.6664 93.696C60.8904 93.16 61.1744 92.692 61.5184 92.292C61.8624 91.892 62.2184 91.584 62.5864 91.368C62.3304 91.4 62.0144 91.436 61.6384 91.476C61.2624 91.516 60.8544 91.56 60.4144 91.608C59.9824 91.648 59.5504 91.696 59.1184 91.752C58.6864 91.808 58.2784 91.864 57.8944 91.92C57.5184 91.968 57.2024 92.02 56.9464 92.076L56.8384 91.032ZM70.4944 90.624C70.4784 90.72 70.4624 90.84 70.4464 90.984C70.4384 91.128 70.4264 91.272 70.4104 91.416C70.4024 91.56 70.3984 91.684 70.3984 91.788C70.3904 92.036 70.3864 92.32 70.3864 92.64C70.3944 92.952 70.4024 93.28 70.4104 93.624C70.4264 93.96 70.4504 94.296 70.4824 94.632C70.5464 95.296 70.6544 95.88 70.8064 96.384C70.9584 96.88 71.1424 97.268 71.3584 97.548C71.5824 97.828 71.8344 97.968 72.1144 97.968C72.2664 97.968 72.4144 97.9 72.5584 97.764C72.7024 97.62 72.8384 97.432 72.9664 97.2C73.1024 96.96 73.2224 96.696 73.3264 96.408C73.4384 96.112 73.5304 95.816 73.6024 95.52L74.3584 96.372C74.1184 97.052 73.8744 97.592 73.6264 97.992C73.3864 98.384 73.1384 98.668 72.8824 98.844C72.6344 99.02 72.3744 99.108 72.1024 99.108C71.7264 99.108 71.3624 98.972 71.0104 98.7C70.6584 98.42 70.3544 97.972 70.0984 97.356C69.8424 96.732 69.6584 95.904 69.5464 94.872C69.5064 94.52 69.4744 94.14 69.4504 93.732C69.4344 93.324 69.4224 92.936 69.4144 92.568C69.4144 92.2 69.4144 91.9 69.4144 91.668C69.4144 91.532 69.4104 91.356 69.4024 91.14C69.3944 90.924 69.3704 90.744 69.3304 90.6L70.4944 90.624ZM76.7464 90.96C76.9624 91.232 77.1664 91.552 77.3584 91.92C77.5584 92.28 77.7384 92.668 77.8984 93.084C78.0664 93.492 78.2144 93.916 78.3424 94.356C78.4784 94.796 78.5864 95.236 78.6664 95.676C78.7544 96.108 78.8184 96.524 78.8584 96.924L77.8984 97.32C77.8504 96.776 77.7664 96.224 77.6464 95.664C77.5264 95.096 77.3784 94.548 77.2024 94.02C77.0264 93.484 76.8224 92.98 76.5904 92.508C76.3584 92.036 76.0984 91.628 75.8104 91.284L76.7464 90.96ZM86.6944 89.472C86.6784 89.576 86.6624 89.692 86.6464 89.82C86.6384 89.948 86.6304 90.1 86.6224 90.276C86.6224 90.396 86.6184 90.576 86.6104 90.816C86.6104 91.056 86.6104 91.328 86.6104 91.632C86.6104 91.928 86.6104 92.228 86.6104 92.532C86.6104 92.836 86.6104 93.116 86.6104 93.372C86.6104 93.772 86.6184 94.192 86.6344 94.632C86.6504 95.072 86.6704 95.5 86.6944 95.916C86.7184 96.332 86.7384 96.712 86.7544 97.056C86.7704 97.4 86.7784 97.672 86.7784 97.872C86.7784 98.152 86.7104 98.42 86.5744 98.676C86.4464 98.932 86.2264 99.14 85.9144 99.3C85.6104 99.468 85.1944 99.552 84.6664 99.552C83.8024 99.552 83.1424 99.4 82.6864 99.096C82.2304 98.8 82.0024 98.364 82.0024 97.788C82.0024 97.42 82.1104 97.1 82.3264 96.828C82.5504 96.556 82.8704 96.344 83.2864 96.192C83.7024 96.032 84.1984 95.952 84.7744 95.952C85.4064 95.952 85.9984 96.028 86.5504 96.18C87.1104 96.324 87.6224 96.508 88.0864 96.732C88.5504 96.956 88.9624 97.192 89.3224 97.44C89.6824 97.68 89.9784 97.896 90.2104 98.088L89.6584 98.94C89.3864 98.684 89.0704 98.428 88.7104 98.172C88.3584 97.916 87.9704 97.68 87.5464 97.464C87.1304 97.248 86.6784 97.076 86.1904 96.948C85.7104 96.812 85.1984 96.744 84.6544 96.744C84.0784 96.744 83.6384 96.84 83.3344 97.032C83.0384 97.224 82.8904 97.46 82.8904 97.74C82.8904 97.916 82.9464 98.08 83.0584 98.232C83.1704 98.376 83.3504 98.492 83.5984 98.58C83.8464 98.668 84.1664 98.712 84.5584 98.712C84.7904 98.712 85.0024 98.684 85.1944 98.628C85.3864 98.564 85.5384 98.456 85.6504 98.304C85.7704 98.152 85.8304 97.94 85.8304 97.668C85.8304 97.436 85.8224 97.136 85.8064 96.768C85.7984 96.392 85.7864 95.996 85.7704 95.58C85.7544 95.156 85.7384 94.748 85.7224 94.356C85.7144 93.964 85.7104 93.636 85.7104 93.372C85.7104 93.1 85.7104 92.824 85.7104 92.544C85.7104 92.256 85.7104 91.972 85.7104 91.692C85.7104 91.412 85.7104 91.144 85.7104 90.888C85.7184 90.632 85.7224 90.4 85.7224 90.192C85.7224 90.096 85.7184 89.972 85.7104 89.82C85.7024 89.668 85.6904 89.552 85.6744 89.472H86.6944ZM82.0984 90.78C82.2984 90.812 82.5304 90.844 82.7944 90.876C83.0584 90.908 83.3344 90.94 83.6224 90.972C83.9184 90.996 84.1984 91.016 84.4624 91.032C84.7344 91.04 84.9704 91.044 85.1704 91.044C85.9304 91.044 86.7064 91.016 87.4984 90.96C88.2984 90.904 89.0864 90.812 89.8624 90.684L89.8504 91.56C89.4104 91.608 88.9304 91.656 88.4104 91.704C87.8904 91.752 87.3544 91.792 86.8024 91.824C86.2584 91.856 85.7184 91.872 85.1824 91.872C84.9024 91.872 84.5704 91.86 84.1864 91.836C83.8024 91.812 83.4224 91.784 83.0464 91.752C82.6784 91.72 82.3664 91.692 82.1104 91.668L82.0984 90.78ZM82.0384 93.324C82.2544 93.356 82.4944 93.388 82.7584 93.42C83.0224 93.452 83.2944 93.476 83.5744 93.492C83.8544 93.508 84.1224 93.524 84.3784 93.54C84.6344 93.548 84.8624 93.552 85.0624 93.552C85.6464 93.552 86.2104 93.54 86.7544 93.516C87.3064 93.484 87.8464 93.444 88.3744 93.396C88.9104 93.34 89.4384 93.272 89.9584 93.192L89.9464 94.092C89.5464 94.148 89.1464 94.196 88.7464 94.236C88.3544 94.268 87.9584 94.296 87.5584 94.32C87.1664 94.344 86.7624 94.364 86.3464 94.38C85.9384 94.388 85.5064 94.392 85.0504 94.392C84.7784 94.392 84.4624 94.384 84.1024 94.368C83.7504 94.352 83.3904 94.332 83.0224 94.308C82.6624 94.284 82.3384 94.256 82.0504 94.224L82.0384 93.324ZM99.3424 89.496C99.3424 89.536 99.3344 89.608 99.3184 89.712C99.3104 89.816 99.3024 89.92 99.2944 90.024C99.2944 90.12 99.2904 90.196 99.2824 90.252C99.2744 90.404 99.2704 90.612 99.2704 90.876C99.2704 91.14 99.2704 91.428 99.2704 91.74C99.2704 92.052 99.2704 92.368 99.2704 92.688C99.2784 93.008 99.2824 93.308 99.2824 93.588C99.2904 93.868 99.2944 94.104 99.2944 94.296L98.3704 93.84C98.3704 93.728 98.3704 93.56 98.3704 93.336C98.3704 93.104 98.3704 92.84 98.3704 92.544C98.3704 92.24 98.3664 91.94 98.3584 91.644C98.3584 91.348 98.3544 91.076 98.3464 90.828C98.3384 90.58 98.3304 90.388 98.3224 90.252C98.3144 90.092 98.3024 89.94 98.2864 89.796C98.2704 89.644 98.2584 89.544 98.2504 89.496H99.3424ZM92.9704 91.164C93.2984 91.164 93.6704 91.16 94.0864 91.152C94.5024 91.136 94.9424 91.12 95.4064 91.104C95.8784 91.088 96.3544 91.076 96.8344 91.068C97.3144 91.06 97.7744 91.052 98.2144 91.044C98.6624 91.036 99.0744 91.032 99.4504 91.032C99.8104 91.032 100.17 91.032 100.53 91.032C100.89 91.032 101.226 91.032 101.538 91.032C101.858 91.032 102.138 91.036 102.378 91.044C102.626 91.044 102.822 91.044 102.966 91.044L102.954 91.932C102.618 91.916 102.166 91.904 101.598 91.896C101.038 91.88 100.318 91.872 99.4384 91.872C98.9184 91.872 98.3744 91.88 97.8064 91.896C97.2464 91.904 96.6824 91.916 96.1144 91.932C95.5464 91.948 94.9944 91.972 94.4584 92.004C93.9304 92.028 93.4424 92.056 92.9944 92.088L92.9704 91.164ZM99.2704 94.656C99.2704 95.184 99.1904 95.628 99.0304 95.988C98.8784 96.348 98.6624 96.616 98.3824 96.792C98.1104 96.968 97.7904 97.056 97.4224 97.056C97.1744 97.056 96.9304 97.016 96.6904 96.936C96.4584 96.848 96.2464 96.72 96.0544 96.552C95.8704 96.376 95.7224 96.164 95.6104 95.916C95.5064 95.66 95.4544 95.372 95.4544 95.052C95.4544 94.652 95.5504 94.296 95.7424 93.984C95.9344 93.672 96.1904 93.424 96.5104 93.24C96.8384 93.056 97.1904 92.964 97.5664 92.964C98.0384 92.964 98.4264 93.072 98.7304 93.288C99.0424 93.496 99.2784 93.784 99.4384 94.152C99.5984 94.512 99.6784 94.924 99.6784 95.388C99.6784 95.788 99.6184 96.196 99.4984 96.612C99.3864 97.028 99.1944 97.428 98.9224 97.812C98.6584 98.196 98.2944 98.548 97.8304 98.868C97.3744 99.18 96.7944 99.44 96.0904 99.648L95.2864 98.856C95.8304 98.728 96.3184 98.564 96.7504 98.364C97.1824 98.164 97.5464 97.92 97.8424 97.632C98.1384 97.344 98.3624 97.008 98.5144 96.624C98.6744 96.24 98.7544 95.8 98.7544 95.304C98.7544 94.76 98.6384 94.368 98.4064 94.128C98.1744 93.888 97.8944 93.768 97.5664 93.768C97.3584 93.768 97.1624 93.82 96.9784 93.924C96.7944 94.02 96.6424 94.164 96.5224 94.356C96.4104 94.548 96.3544 94.776 96.3544 95.04C96.3544 95.416 96.4744 95.708 96.7144 95.916C96.9624 96.124 97.2504 96.228 97.5784 96.228C97.8264 96.228 98.0384 96.16 98.2144 96.024C98.3904 95.88 98.5144 95.668 98.5864 95.388C98.6664 95.1 98.6744 94.744 98.6104 94.32L99.2704 94.656Z" fill="#020057"/>
</g>
<defs>
<filter id="filter0_dd_3871_164760" x="0.8" y="2.38419e-07" width="146.4" height="146.4" filterUnits="userSpaceOnUse" color-interpolation-filters="sRGB">
<feFlood flood-opacity="0" result="BackgroundImageFix"/>
<feColorMatrix in="SourceAlpha" type="matrix" values="0 0 0 0 0 0 0 0 0 0 0 0 0 0 0 0 0 0 127 0" result="hardAlpha"/>
<feOffset dy="3.2"/>
<feGaussianBlur stdDeviation="3.6"/>
<feColorMatrix type="matrix" values="0 0 0 0 0.513726 0 0 0 0 0.494118 0 0 0 0 1 0 0 0 0.12 0"/>
<feBlend mode="normal" in2="BackgroundImageFix" result="effect1_dropShadow_3871_164760"/>
<feColorMatrix in="SourceAlpha" type="matrix" values="0 0 0 0 0 0 0 0 0 0 0 0 0 0 0 0 0 0 127 0" result="hardAlpha"/>
<feOffset dy="0.6"/>
<feGaussianBlur stdDeviation="0.9"/>
<feColorMatrix type="matrix" values="0 0 0 0 0.513726 0 0 0 0 0.494118 0 0 0 0 1 0 0 0 0.1 0"/>
<feBlend mode="normal" in2="effect1_dropShadow_3871_164760" result="effect2_dropShadow_3871_164760"/>
<feBlend mode="normal" in="SourceGraphic" in2="effect2_dropShadow_3871_164760" result="shape"/>
</filter>
</defs>
</svg>
