<svg width="100" height="80" viewBox="0 0 100 80" fill="none" xmlns="http://www.w3.org/2000/svg">
<rect width="100" height="80" fill="#FBFBFE"/>
<path d="M40.2197 10.2197C39.9534 10.4859 39.9292 10.9026 40.1471 11.1962L40.2197 11.2803L44.2542 15.3149C42.3322 16.6644 40.8958 18.6799 40.2989 21.0644C40.1983 21.4662 40.4425 21.8735 40.8443 21.9741C41.2461 22.0746 41.6534 21.8305 41.754 21.4286C42.2835 19.3135 43.5911 17.5395 45.3342 16.3945L47.1438 18.2043C46.4363 18.9258 46 19.9143 46 21.0046C46 23.2138 47.7909 25.0046 50 25.0046C51.0904 25.0046 52.0788 24.5683 52.8004 23.8608L58.7197 29.7803C59.0126 30.0732 59.4874 30.0732 59.7803 29.7803C60.0466 29.5141 60.0708 29.0974 59.8529 28.8038L59.7803 28.7197L53.6668 22.6055L53.668 22.604L52.4679 21.4061L49.598 18.5368L49.6 18.536L46.7188 15.6578L46.72 15.656L45.5867 14.5255L41.2803 10.2197C40.9874 9.92678 40.5126 9.92678 40.2197 10.2197ZM48.2041 19.2655L51.7392 22.8006C51.2892 23.2364 50.6759 23.5046 50 23.5046C48.6193 23.5046 47.5 22.3853 47.5 21.0046C47.5 20.3287 47.7682 19.7154 48.2041 19.2655ZM50 13.5C48.9997 13.5 48.0291 13.6481 47.1111 13.925L48.3481 15.1612C48.8839 15.0553 49.4364 15 50 15C53.9231 15 57.3099 17.6803 58.2471 21.4332C58.3475 21.835 58.7546 22.0794 59.1565 21.9791C59.5584 21.8787 59.8028 21.4716 59.7024 21.0697C58.5994 16.6527 54.6155 13.5 50 13.5ZM50.1947 17.0093L53.996 20.81C53.8942 18.7531 52.2472 17.1076 50.1947 17.0093Z" fill="#020057"/>
<path d="M8.552 49.472H19.46V50.228H8.552V49.472ZM8.828 43.436H19.16V44.24H8.828V43.436ZM12.704 48.224L13.592 48.452C13.328 48.868 13.04 49.308 12.728 49.772C12.416 50.236 12.104 50.688 11.792 51.128C11.48 51.56 11.192 51.94 10.928 52.268L10.076 51.968C10.34 51.64 10.628 51.26 10.94 50.828C11.252 50.396 11.564 49.952 11.876 49.496C12.188 49.04 12.464 48.616 12.704 48.224ZM16.304 49.748L17.168 50C16.912 50.656 16.552 51.216 16.088 51.68C15.632 52.144 15.072 52.528 14.408 52.832C13.744 53.136 12.968 53.376 12.08 53.552C11.192 53.736 10.188 53.868 9.068 53.948C9.044 53.82 8.996 53.68 8.924 53.528C8.86 53.384 8.788 53.26 8.708 53.156C10.14 53.076 11.36 52.92 12.368 52.688C13.384 52.448 14.212 52.092 14.852 51.62C15.5 51.148 15.984 50.524 16.304 49.748ZM10.736 51.86L11.18 51.2C12.172 51.368 13.156 51.568 14.132 51.8C15.108 52.024 16.024 52.264 16.88 52.52C17.744 52.768 18.484 53.012 19.1 53.252L18.548 53.984C17.94 53.736 17.22 53.484 16.388 53.228C15.564 52.972 14.668 52.728 13.7 52.496C12.74 52.256 11.752 52.044 10.736 51.86ZM12.104 43.736H12.956V47.936H12.104V43.736ZM14.912 43.736H15.764V47.936H14.912V43.736ZM10.28 46.004V47.636H17.768V46.004H10.28ZM9.428 45.26H18.656V48.368H9.428V45.26ZM25.532 50.684H26.42V53.948H25.532V50.684ZM24.956 47L25.772 47.396C25.444 47.7 25.088 48.008 24.704 48.32C24.328 48.632 23.98 48.892 23.66 49.1L23.024 48.752C23.24 48.6 23.464 48.424 23.696 48.224C23.936 48.016 24.168 47.804 24.392 47.588C24.616 47.372 24.804 47.176 24.956 47ZM27.404 47.636L28.208 48.08C27.8 48.408 27.348 48.752 26.852 49.112C26.364 49.464 25.868 49.8 25.364 50.12C24.868 50.44 24.396 50.72 23.948 50.96L23.36 50.552C23.8 50.304 24.268 50.012 24.764 49.676C25.26 49.34 25.74 48.992 26.204 48.632C26.668 48.272 27.068 47.94 27.404 47.636ZM21.848 48.74L22.436 48.224C22.74 48.36 23.06 48.524 23.396 48.716C23.732 48.9 24.052 49.088 24.356 49.28C24.66 49.464 24.912 49.64 25.112 49.808L24.476 50.384C24.292 50.216 24.052 50.036 23.756 49.844C23.46 49.644 23.144 49.448 22.808 49.256C22.48 49.056 22.16 48.884 21.848 48.74ZM27.836 49.496L28.46 49.016C28.812 49.2 29.172 49.416 29.54 49.664C29.908 49.904 30.256 50.152 30.584 50.408C30.912 50.656 31.18 50.888 31.388 51.104L30.728 51.632C30.528 51.424 30.268 51.192 29.948 50.936C29.628 50.68 29.284 50.428 28.916 50.18C28.548 49.924 28.188 49.696 27.836 49.496ZM27.608 51.908L28.28 51.428C28.616 51.58 28.972 51.756 29.348 51.956C29.724 52.156 30.08 52.36 30.416 52.568C30.752 52.776 31.032 52.972 31.256 53.156L30.548 53.696C30.34 53.52 30.072 53.324 29.744 53.108C29.416 52.892 29.064 52.68 28.688 52.472C28.312 52.256 27.952 52.068 27.608 51.908ZM20.78 50.444C21.34 50.444 21.98 50.44 22.7 50.432C23.428 50.416 24.204 50.404 25.028 50.396C25.86 50.38 26.712 50.364 27.584 50.348C28.464 50.332 29.336 50.312 30.2 50.288L30.152 50.996C29.304 51.012 28.452 51.032 27.596 51.056C26.748 51.08 25.916 51.1 25.1 51.116C24.292 51.132 23.524 51.148 22.796 51.164C22.076 51.18 21.428 51.192 20.852 51.2L20.78 50.444ZM23.492 51.44L24.32 51.752C24.048 52.008 23.736 52.26 23.384 52.508C23.04 52.756 22.68 52.988 22.304 53.204C21.936 53.42 21.576 53.604 21.224 53.756C21.176 53.7 21.108 53.632 21.02 53.552C20.94 53.48 20.856 53.404 20.768 53.324C20.68 53.252 20.6 53.192 20.528 53.144C21.064 52.936 21.6 52.684 22.136 52.388C22.672 52.084 23.124 51.768 23.492 51.44ZM25.532 42.908H26.432V47.168H25.532V42.908ZM21.38 43.796H30.752V44.492H21.38V43.796ZM22.04 45.26H30.044V45.944H22.04V45.26ZM20.744 46.724H31.292V47.444H20.744V46.724ZM36.788 45.908C37.132 45.94 37.468 45.964 37.796 45.98C38.124 45.996 38.468 46.004 38.828 46.004C39.548 46.004 40.264 45.976 40.976 45.92C41.688 45.864 42.348 45.776 42.956 45.656V46.58C42.316 46.684 41.64 46.76 40.928 46.808C40.224 46.856 39.516 46.884 38.804 46.892C38.46 46.892 38.124 46.884 37.796 46.868C37.476 46.852 37.14 46.832 36.788 46.808V45.908ZM40.988 43.76C40.972 43.88 40.956 44 40.94 44.12C40.932 44.24 40.924 44.36 40.916 44.48C40.908 44.624 40.9 44.808 40.892 45.032C40.884 45.256 40.88 45.496 40.88 45.752C40.88 46 40.88 46.244 40.88 46.484C40.88 46.94 40.888 47.396 40.904 47.852C40.92 48.308 40.94 48.752 40.964 49.184C40.988 49.616 41.008 50.024 41.024 50.408C41.048 50.784 41.06 51.128 41.06 51.44C41.06 51.68 41.024 51.916 40.952 52.148C40.888 52.38 40.776 52.588 40.616 52.772C40.464 52.956 40.252 53.1 39.98 53.204C39.716 53.316 39.384 53.372 38.984 53.372C38.176 53.372 37.556 53.22 37.124 52.916C36.7 52.612 36.488 52.192 36.488 51.656C36.488 51.32 36.584 51.016 36.776 50.744C36.976 50.464 37.256 50.244 37.616 50.084C37.984 49.924 38.432 49.844 38.96 49.844C39.472 49.844 39.94 49.904 40.364 50.024C40.796 50.136 41.192 50.288 41.552 50.48C41.92 50.664 42.256 50.872 42.56 51.104C42.864 51.328 43.144 51.552 43.4 51.776L42.872 52.58C42.456 52.18 42.036 51.832 41.612 51.536C41.196 51.24 40.764 51.008 40.316 50.84C39.868 50.672 39.392 50.588 38.888 50.588C38.432 50.588 38.06 50.68 37.772 50.864C37.492 51.04 37.352 51.272 37.352 51.56C37.352 51.864 37.488 52.1 37.76 52.268C38.032 52.428 38.384 52.508 38.816 52.508C39.16 52.508 39.424 52.452 39.608 52.34C39.8 52.228 39.932 52.076 40.004 51.884C40.084 51.692 40.124 51.464 40.124 51.2C40.124 50.984 40.116 50.692 40.1 50.324C40.084 49.956 40.064 49.556 40.04 49.124C40.016 48.684 39.996 48.236 39.98 47.78C39.964 47.324 39.956 46.896 39.956 46.496C39.956 46.088 39.956 45.704 39.956 45.344C39.956 44.984 39.956 44.7 39.956 44.492C39.956 44.388 39.952 44.268 39.944 44.132C39.936 43.988 39.924 43.864 39.908 43.76H40.988ZM35.06 43.832C35.036 43.896 35.008 43.98 34.976 44.084C34.952 44.18 34.928 44.28 34.904 44.384C34.888 44.488 34.872 44.576 34.856 44.648C34.808 44.872 34.756 45.14 34.7 45.452C34.652 45.756 34.6 46.088 34.544 46.448C34.488 46.8 34.436 47.16 34.388 47.528C34.348 47.888 34.316 48.236 34.292 48.572C34.268 48.908 34.256 49.212 34.256 49.484C34.256 49.772 34.264 50.048 34.28 50.312C34.304 50.576 34.336 50.856 34.376 51.152C34.44 50.968 34.512 50.772 34.592 50.564C34.672 50.356 34.752 50.148 34.832 49.94C34.92 49.732 34.996 49.548 35.06 49.388L35.552 49.772C35.456 50.044 35.348 50.352 35.228 50.696C35.116 51.032 35.008 51.356 34.904 51.668C34.808 51.972 34.74 52.224 34.7 52.424C34.684 52.504 34.668 52.596 34.652 52.7C34.644 52.804 34.644 52.892 34.652 52.964C34.652 53.02 34.652 53.088 34.652 53.168C34.66 53.248 34.668 53.32 34.676 53.384L33.836 53.444C33.716 53.012 33.608 52.476 33.512 51.836C33.424 51.188 33.38 50.46 33.38 49.652C33.38 49.204 33.4 48.74 33.44 48.26C33.488 47.772 33.54 47.296 33.596 46.832C33.66 46.368 33.72 45.944 33.776 45.56C33.84 45.168 33.892 44.848 33.932 44.6C33.948 44.464 33.964 44.32 33.98 44.168C33.996 44.016 34.004 43.876 34.004 43.748L35.06 43.832ZM55.148 45.392C55.092 45.456 55.036 45.52 54.98 45.584C54.924 45.64 54.88 45.7 54.848 45.764C54.624 46.132 54.352 46.532 54.032 46.964C53.72 47.396 53.364 47.84 52.964 48.296C52.564 48.752 52.128 49.2 51.656 49.64C51.192 50.08 50.692 50.492 50.156 50.876L49.412 50.216C49.9 49.88 50.356 49.516 50.78 49.124C51.204 48.732 51.592 48.336 51.944 47.936C52.304 47.528 52.616 47.14 52.88 46.772C53.152 46.404 53.364 46.076 53.516 45.788C53.364 45.788 53.136 45.788 52.832 45.788C52.528 45.788 52.176 45.788 51.776 45.788C51.376 45.788 50.952 45.788 50.504 45.788C50.064 45.788 49.624 45.788 49.184 45.788C48.752 45.788 48.348 45.788 47.972 45.788C47.596 45.788 47.272 45.788 47 45.788C46.736 45.788 46.556 45.788 46.46 45.788C46.308 45.788 46.152 45.792 45.992 45.8C45.832 45.808 45.684 45.816 45.548 45.824C45.42 45.832 45.316 45.844 45.236 45.86V44.78C45.348 44.796 45.472 44.812 45.608 44.828C45.744 44.844 45.884 44.856 46.028 44.864C46.18 44.872 46.324 44.876 46.46 44.876C46.548 44.876 46.72 44.876 46.976 44.876C47.24 44.876 47.56 44.876 47.936 44.876C48.312 44.876 48.716 44.876 49.148 44.876C49.588 44.876 50.032 44.876 50.48 44.876C50.936 44.876 51.368 44.876 51.776 44.876C52.192 44.876 52.56 44.876 52.88 44.876C53.2 44.876 53.444 44.876 53.612 44.876C53.956 44.876 54.216 44.844 54.392 44.78L55.148 45.392ZM49.496 51.092C49.312 50.908 49.096 50.704 48.848 50.48C48.608 50.256 48.356 50.032 48.092 49.808C47.828 49.576 47.58 49.368 47.348 49.184C47.116 48.992 46.916 48.84 46.748 48.728L47.528 48.092C47.664 48.196 47.844 48.34 48.068 48.524C48.292 48.7 48.536 48.9 48.8 49.124C49.072 49.348 49.34 49.576 49.604 49.808C49.868 50.04 50.108 50.264 50.324 50.48C50.58 50.72 50.844 50.984 51.116 51.272C51.396 51.56 51.66 51.84 51.908 52.112C52.156 52.384 52.364 52.628 52.532 52.844L51.656 53.54C51.512 53.332 51.316 53.088 51.068 52.808C50.828 52.52 50.568 52.228 50.288 51.932C50.008 51.628 49.744 51.348 49.496 51.092ZM65.6 44.972C65.56 45.02 65.508 45.1 65.444 45.212C65.388 45.316 65.34 45.412 65.3 45.5C65.148 45.892 64.948 46.328 64.7 46.808C64.452 47.28 64.176 47.748 63.872 48.212C63.568 48.676 63.248 49.096 62.912 49.472C62.472 49.968 61.988 50.452 61.46 50.924C60.932 51.388 60.376 51.824 59.792 52.232C59.208 52.632 58.6 52.976 57.968 53.264L57.2 52.46C57.848 52.204 58.468 51.888 59.06 51.512C59.66 51.128 60.22 50.712 60.74 50.264C61.268 49.808 61.736 49.352 62.144 48.896C62.416 48.584 62.684 48.236 62.948 47.852C63.22 47.46 63.46 47.064 63.668 46.664C63.884 46.256 64.04 45.888 64.136 45.56C64.072 45.56 63.92 45.56 63.68 45.56C63.44 45.56 63.156 45.56 62.828 45.56C62.5 45.56 62.156 45.56 61.796 45.56C61.436 45.56 61.092 45.56 60.764 45.56C60.436 45.56 60.152 45.56 59.912 45.56C59.68 45.56 59.528 45.56 59.456 45.56C59.32 45.56 59.164 45.564 58.988 45.572C58.82 45.58 58.664 45.588 58.52 45.596C58.384 45.604 58.292 45.612 58.244 45.62V44.528C58.3 44.536 58.4 44.548 58.544 44.564C58.696 44.572 58.856 44.58 59.024 44.588C59.192 44.596 59.336 44.6 59.456 44.6C59.544 44.6 59.704 44.6 59.936 44.6C60.168 44.6 60.444 44.6 60.764 44.6C61.092 44.6 61.432 44.6 61.784 44.6C62.136 44.6 62.472 44.6 62.792 44.6C63.12 44.6 63.4 44.6 63.632 44.6C63.864 44.6 64.016 44.6 64.088 44.6C64.288 44.6 64.464 44.592 64.616 44.576C64.776 44.56 64.9 44.536 64.988 44.504L65.6 44.972ZM63.068 48.836C63.396 49.108 63.732 49.408 64.076 49.736C64.428 50.064 64.772 50.404 65.108 50.756C65.444 51.1 65.756 51.432 66.044 51.752C66.332 52.064 66.58 52.348 66.788 52.604L65.948 53.324C65.668 52.94 65.332 52.528 64.94 52.088C64.548 51.64 64.132 51.196 63.692 50.756C63.26 50.308 62.824 49.896 62.384 49.52L63.068 48.836ZM78.464 45.5C78.408 45.58 78.356 45.684 78.308 45.812C78.26 45.932 78.22 46.04 78.188 46.136C78.084 46.536 77.932 46.976 77.732 47.456C77.532 47.928 77.292 48.408 77.012 48.896C76.732 49.376 76.412 49.832 76.052 50.264C75.508 50.928 74.856 51.536 74.096 52.088C73.344 52.632 72.404 53.112 71.276 53.528L70.412 52.748C71.148 52.532 71.808 52.272 72.392 51.968C72.976 51.656 73.5 51.312 73.964 50.936C74.428 50.56 74.84 50.16 75.2 49.736C75.512 49.368 75.796 48.964 76.052 48.524C76.316 48.084 76.54 47.644 76.724 47.204C76.908 46.756 77.04 46.352 77.12 45.992H72.668L73.052 45.128C73.148 45.128 73.328 45.128 73.592 45.128C73.856 45.128 74.156 45.128 74.492 45.128C74.836 45.128 75.176 45.128 75.512 45.128C75.848 45.128 76.14 45.128 76.388 45.128C76.644 45.128 76.808 45.128 76.88 45.128C77.04 45.128 77.188 45.12 77.324 45.104C77.46 45.08 77.572 45.048 77.66 45.008L78.464 45.5ZM74.444 43.676C74.34 43.836 74.24 44.008 74.144 44.192C74.048 44.368 73.972 44.512 73.916 44.624C73.676 45.064 73.376 45.54 73.016 46.052C72.656 46.556 72.228 47.056 71.732 47.552C71.236 48.048 70.664 48.512 70.016 48.944L69.188 48.32C69.708 48.016 70.172 47.684 70.58 47.324C70.988 46.964 71.344 46.6 71.648 46.232C71.96 45.864 72.224 45.512 72.44 45.176C72.656 44.84 72.828 44.536 72.956 44.264C73.02 44.16 73.088 44.016 73.16 43.832C73.24 43.64 73.296 43.468 73.328 43.316L74.444 43.676ZM86.288 44.492C86.248 44.364 86.2 44.216 86.144 44.048C86.096 43.88 86.044 43.716 85.988 43.556L87.008 43.424C87.048 43.656 87.104 43.92 87.176 44.216C87.248 44.504 87.332 44.8 87.428 45.104C87.524 45.4 87.62 45.676 87.716 45.932C87.9 46.452 88.132 46.972 88.412 47.492C88.692 48.004 88.956 48.436 89.204 48.788C89.292 48.9 89.38 49.008 89.468 49.112C89.556 49.216 89.644 49.32 89.732 49.424L89.24 50.096C89.096 50.064 88.904 50.032 88.664 50C88.432 49.968 88.176 49.94 87.896 49.916C87.624 49.884 87.352 49.856 87.08 49.832C86.808 49.808 86.564 49.788 86.348 49.772L86.42 48.968C86.644 48.984 86.88 49.004 87.128 49.028C87.384 49.052 87.624 49.076 87.848 49.1C88.08 49.116 88.268 49.132 88.412 49.148C88.244 48.892 88.064 48.6 87.872 48.272C87.68 47.936 87.492 47.584 87.308 47.216C87.132 46.84 86.976 46.472 86.84 46.112C86.712 45.76 86.604 45.448 86.516 45.176C86.428 44.904 86.352 44.676 86.288 44.492ZM81.896 45.428C82.568 45.508 83.216 45.564 83.84 45.596C84.472 45.628 85.068 45.636 85.628 45.62C86.196 45.604 86.708 45.572 87.164 45.524C87.484 45.484 87.82 45.436 88.172 45.38C88.532 45.324 88.888 45.252 89.24 45.164C89.592 45.076 89.924 44.984 90.236 44.888L90.344 45.824C90.064 45.912 89.756 45.988 89.42 46.052C89.084 46.116 88.748 46.176 88.412 46.232C88.076 46.288 87.76 46.332 87.464 46.364C86.704 46.452 85.852 46.5 84.908 46.508C83.972 46.516 82.976 46.476 81.92 46.388L81.896 45.428ZM83.744 49.256C83.568 49.544 83.428 49.824 83.324 50.096C83.228 50.36 83.18 50.636 83.18 50.924C83.18 51.492 83.428 51.908 83.924 52.172C84.42 52.436 85.112 52.572 86 52.58C86.616 52.588 87.18 52.564 87.692 52.508C88.212 52.452 88.68 52.376 89.096 52.28L89.048 53.24C88.68 53.304 88.24 53.364 87.728 53.42C87.216 53.476 86.624 53.504 85.952 53.504C85.192 53.496 84.532 53.4 83.972 53.216C83.42 53.032 82.992 52.76 82.688 52.4C82.384 52.032 82.232 51.576 82.232 51.032C82.232 50.704 82.284 50.38 82.388 50.06C82.5 49.732 82.64 49.392 82.808 49.04L83.744 49.256ZM31.8696 68.088C31.5496 68.408 31.2056 68.656 30.8376 68.832C30.4696 69 30.0776 69.084 29.6616 69.084C29.2696 69.084 28.9496 68.956 28.7016 68.7C28.4536 68.444 28.3296 68.068 28.3296 67.572C28.3296 67.236 28.3536 66.872 28.4016 66.48C28.4496 66.088 28.5016 65.688 28.5576 65.28C28.6136 64.864 28.6656 64.472 28.7136 64.104C28.7616 63.728 28.7856 63.392 28.7856 63.096C28.7856 62.752 28.7016 62.504 28.5336 62.352C28.3656 62.192 28.1256 62.112 27.8136 62.112C27.5336 62.112 27.2216 62.196 26.8776 62.364C26.5336 62.524 26.1816 62.744 25.8216 63.024C25.4616 63.296 25.1096 63.604 24.7656 63.948C24.4216 64.284 24.1056 64.62 23.8176 64.956L23.8416 63.768C23.9936 63.608 24.1856 63.42 24.4176 63.204C24.6576 62.988 24.9216 62.764 25.2096 62.532C25.5056 62.3 25.8176 62.084 26.1456 61.884C26.4736 61.684 26.7976 61.524 27.1176 61.404C27.4456 61.284 27.7576 61.224 28.0536 61.224C28.4296 61.224 28.7416 61.292 28.9896 61.428C29.2376 61.556 29.4216 61.744 29.5416 61.992C29.6616 62.232 29.7216 62.512 29.7216 62.832C29.7216 63.128 29.6976 63.472 29.6496 63.864C29.6096 64.248 29.5576 64.648 29.4936 65.064C29.4376 65.48 29.3856 65.884 29.3376 66.276C29.2976 66.668 29.2776 67.016 29.2776 67.32C29.2776 67.52 29.3256 67.692 29.4216 67.836C29.5256 67.98 29.6856 68.052 29.9016 68.052C30.1896 68.052 30.4856 67.968 30.7896 67.8C31.1016 67.624 31.4096 67.376 31.7136 67.056L31.8696 68.088ZM23.8056 62.352C23.7096 62.36 23.5616 62.38 23.3616 62.412C23.1696 62.436 22.9496 62.464 22.7016 62.496C22.4536 62.528 22.2016 62.564 21.9456 62.604C21.6896 62.636 21.4496 62.668 21.2256 62.7L21.1296 61.716C21.2576 61.724 21.3816 61.728 21.5016 61.728C21.6296 61.72 21.7656 61.712 21.9096 61.704C22.0776 61.696 22.2816 61.68 22.5216 61.656C22.7696 61.624 23.0256 61.592 23.2896 61.56C23.5616 61.52 23.8136 61.48 24.0456 61.44C24.2856 61.392 24.4736 61.344 24.6096 61.296L24.9576 61.716C24.8856 61.812 24.8056 61.932 24.7176 62.076C24.6296 62.212 24.5416 62.352 24.4536 62.496C24.3656 62.64 24.2896 62.768 24.2256 62.88L23.8536 64.512C23.7176 64.728 23.5496 64.984 23.3496 65.28C23.1496 65.576 22.9376 65.888 22.7136 66.216C22.4976 66.536 22.2776 66.856 22.0536 67.176C21.8296 67.488 21.6256 67.776 21.4416 68.04L20.8296 67.212C20.9816 67.028 21.1576 66.804 21.3576 66.54C21.5656 66.268 21.7816 65.976 22.0056 65.664C22.2376 65.352 22.4616 65.048 22.6776 64.752C22.9016 64.448 23.0976 64.168 23.2656 63.912C23.4416 63.656 23.5736 63.448 23.6616 63.288L23.7096 62.676L23.8056 62.352ZM23.6976 60.36C23.6976 60.224 23.6936 60.08 23.6856 59.928C23.6856 59.776 23.6736 59.624 23.6496 59.472L24.7776 59.508C24.7456 59.668 24.7056 59.92 24.6576 60.264C24.6096 60.6 24.5616 61 24.5136 61.464C24.4736 61.928 24.4296 62.416 24.3816 62.928C24.3416 63.44 24.3096 63.948 24.2856 64.452C24.2616 64.948 24.2496 65.408 24.2496 65.832C24.2496 66.192 24.2496 66.528 24.2496 66.84C24.2496 67.144 24.2536 67.448 24.2616 67.752C24.2696 68.048 24.2816 68.372 24.2976 68.724C24.3056 68.828 24.3136 68.948 24.3216 69.084C24.3296 69.22 24.3416 69.344 24.3576 69.456H23.3136C23.3296 69.344 23.3376 69.22 23.3376 69.084C23.3456 68.956 23.3496 68.844 23.3496 68.748C23.3576 68.364 23.3616 68.024 23.3616 67.728C23.3616 67.432 23.3616 67.128 23.3616 66.816C23.3696 66.496 23.3776 66.116 23.3856 65.676C23.3856 65.5 23.3936 65.26 23.4096 64.956C23.4256 64.644 23.4456 64.304 23.4696 63.936C23.4936 63.56 23.5176 63.18 23.5416 62.796C23.5656 62.412 23.5896 62.052 23.6136 61.716C23.6376 61.372 23.6576 61.08 23.6736 60.84C23.6896 60.6 23.6976 60.44 23.6976 60.36ZM32.8384 61.032C33.0704 61.024 33.2784 61.016 33.4624 61.008C33.6464 60.992 33.7944 60.98 33.9064 60.972C34.0984 60.948 34.3744 60.92 34.7344 60.888C35.1024 60.848 35.5224 60.808 35.9944 60.768C36.4664 60.72 36.9744 60.672 37.5184 60.624C38.0624 60.576 38.6104 60.528 39.1624 60.48C39.6024 60.44 40.0184 60.408 40.4104 60.384C40.8024 60.352 41.1664 60.328 41.5024 60.312C41.8384 60.288 42.1384 60.272 42.4024 60.264V61.224C42.1784 61.216 41.9224 61.216 41.6344 61.224C41.3464 61.232 41.0624 61.252 40.7824 61.284C40.5024 61.308 40.2584 61.352 40.0504 61.416C39.6264 61.552 39.2424 61.76 38.8984 62.04C38.5624 62.312 38.2744 62.628 38.0344 62.988C37.7944 63.34 37.6104 63.712 37.4824 64.104C37.3624 64.488 37.3024 64.856 37.3024 65.208C37.3024 65.68 37.3824 66.092 37.5424 66.444C37.7024 66.788 37.9184 67.08 38.1904 67.32C38.4704 67.56 38.7864 67.756 39.1384 67.908C39.4984 68.06 39.8744 68.172 40.2664 68.244C40.6584 68.316 41.0504 68.36 41.4424 68.376L41.0944 69.372C40.6544 69.356 40.2064 69.292 39.7504 69.18C39.3024 69.076 38.8744 68.924 38.4664 68.724C38.0584 68.516 37.6944 68.256 37.3744 67.944C37.0544 67.632 36.8024 67.268 36.6184 66.852C36.4344 66.436 36.3424 65.96 36.3424 65.424C36.3424 64.8 36.4504 64.224 36.6664 63.696C36.8904 63.16 37.1744 62.692 37.5184 62.292C37.8624 61.892 38.2184 61.584 38.5864 61.368C38.3304 61.4 38.0144 61.436 37.6384 61.476C37.2624 61.516 36.8544 61.56 36.4144 61.608C35.9824 61.648 35.5504 61.696 35.1184 61.752C34.6864 61.808 34.2784 61.864 33.8944 61.92C33.5184 61.968 33.2024 62.02 32.9464 62.076L32.8384 61.032ZM46.4944 60.624C46.4784 60.72 46.4624 60.84 46.4464 60.984C46.4384 61.128 46.4264 61.272 46.4104 61.416C46.4024 61.56 46.3984 61.684 46.3984 61.788C46.3904 62.036 46.3864 62.32 46.3864 62.64C46.3944 62.952 46.4024 63.28 46.4104 63.624C46.4264 63.96 46.4504 64.296 46.4824 64.632C46.5464 65.296 46.6544 65.88 46.8064 66.384C46.9584 66.88 47.1424 67.268 47.3584 67.548C47.5824 67.828 47.8344 67.968 48.1144 67.968C48.2664 67.968 48.4144 67.9 48.5584 67.764C48.7024 67.62 48.8384 67.432 48.9664 67.2C49.1024 66.96 49.2224 66.696 49.3264 66.408C49.4384 66.112 49.5304 65.816 49.6024 65.52L50.3584 66.372C50.1184 67.052 49.8744 67.592 49.6264 67.992C49.3864 68.384 49.1384 68.668 48.8824 68.844C48.6344 69.02 48.3744 69.108 48.1024 69.108C47.7264 69.108 47.3624 68.972 47.0104 68.7C46.6584 68.42 46.3544 67.972 46.0984 67.356C45.8424 66.732 45.6584 65.904 45.5464 64.872C45.5064 64.52 45.4744 64.14 45.4504 63.732C45.4344 63.324 45.4224 62.936 45.4144 62.568C45.4144 62.2 45.4144 61.9 45.4144 61.668C45.4144 61.532 45.4104 61.356 45.4024 61.14C45.3944 60.924 45.3704 60.744 45.3304 60.6L46.4944 60.624ZM52.7464 60.96C52.9624 61.232 53.1664 61.552 53.3584 61.92C53.5584 62.28 53.7384 62.668 53.8984 63.084C54.0664 63.492 54.2144 63.916 54.3424 64.356C54.4784 64.796 54.5864 65.236 54.6664 65.676C54.7544 66.108 54.8184 66.524 54.8584 66.924L53.8984 67.32C53.8504 66.776 53.7664 66.224 53.6464 65.664C53.5264 65.096 53.3784 64.548 53.2024 64.02C53.0264 63.484 52.8224 62.98 52.5904 62.508C52.3584 62.036 52.0984 61.628 51.8104 61.284L52.7464 60.96ZM62.6944 59.472C62.6784 59.576 62.6624 59.692 62.6464 59.82C62.6384 59.948 62.6304 60.1 62.6224 60.276C62.6224 60.396 62.6184 60.576 62.6104 60.816C62.6104 61.056 62.6104 61.328 62.6104 61.632C62.6104 61.928 62.6104 62.228 62.6104 62.532C62.6104 62.836 62.6104 63.116 62.6104 63.372C62.6104 63.772 62.6184 64.192 62.6344 64.632C62.6504 65.072 62.6704 65.5 62.6944 65.916C62.7184 66.332 62.7384 66.712 62.7544 67.056C62.7704 67.4 62.7784 67.672 62.7784 67.872C62.7784 68.152 62.7104 68.42 62.5744 68.676C62.4464 68.932 62.2264 69.14 61.9144 69.3C61.6104 69.468 61.1944 69.552 60.6664 69.552C59.8024 69.552 59.1424 69.4 58.6864 69.096C58.2304 68.8 58.0024 68.364 58.0024 67.788C58.0024 67.42 58.1104 67.1 58.3264 66.828C58.5504 66.556 58.8704 66.344 59.2864 66.192C59.7024 66.032 60.1984 65.952 60.7744 65.952C61.4064 65.952 61.9984 66.028 62.5504 66.18C63.1104 66.324 63.6224 66.508 64.0864 66.732C64.5504 66.956 64.9624 67.192 65.3224 67.44C65.6824 67.68 65.9784 67.896 66.2104 68.088L65.6584 68.94C65.3864 68.684 65.0704 68.428 64.7104 68.172C64.3584 67.916 63.9704 67.68 63.5464 67.464C63.1304 67.248 62.6784 67.076 62.1904 66.948C61.7104 66.812 61.1984 66.744 60.6544 66.744C60.0784 66.744 59.6384 66.84 59.3344 67.032C59.0384 67.224 58.8904 67.46 58.8904 67.74C58.8904 67.916 58.9464 68.08 59.0584 68.232C59.1704 68.376 59.3504 68.492 59.5984 68.58C59.8464 68.668 60.1664 68.712 60.5584 68.712C60.7904 68.712 61.0024 68.684 61.1944 68.628C61.3864 68.564 61.5384 68.456 61.6504 68.304C61.7704 68.152 61.8304 67.94 61.8304 67.668C61.8304 67.436 61.8224 67.136 61.8064 66.768C61.7984 66.392 61.7864 65.996 61.7704 65.58C61.7544 65.156 61.7384 64.748 61.7224 64.356C61.7144 63.964 61.7104 63.636 61.7104 63.372C61.7104 63.1 61.7104 62.824 61.7104 62.544C61.7104 62.256 61.7104 61.972 61.7104 61.692C61.7104 61.412 61.7104 61.144 61.7104 60.888C61.7184 60.632 61.7224 60.4 61.7224 60.192C61.7224 60.096 61.7184 59.972 61.7104 59.82C61.7024 59.668 61.6904 59.552 61.6744 59.472H62.6944ZM58.0984 60.78C58.2984 60.812 58.5304 60.844 58.7944 60.876C59.0584 60.908 59.3344 60.94 59.6224 60.972C59.9184 60.996 60.1984 61.016 60.4624 61.032C60.7344 61.04 60.9704 61.044 61.1704 61.044C61.9304 61.044 62.7064 61.016 63.4984 60.96C64.2984 60.904 65.0864 60.812 65.8624 60.684L65.8504 61.56C65.4104 61.608 64.9304 61.656 64.4104 61.704C63.8904 61.752 63.3544 61.792 62.8024 61.824C62.2584 61.856 61.7184 61.872 61.1824 61.872C60.9024 61.872 60.5704 61.86 60.1864 61.836C59.8024 61.812 59.4224 61.784 59.0464 61.752C58.6784 61.72 58.3664 61.692 58.1104 61.668L58.0984 60.78ZM58.0384 63.324C58.2544 63.356 58.4944 63.388 58.7584 63.42C59.0224 63.452 59.2944 63.476 59.5744 63.492C59.8544 63.508 60.1224 63.524 60.3784 63.54C60.6344 63.548 60.8624 63.552 61.0624 63.552C61.6464 63.552 62.2104 63.54 62.7544 63.516C63.3064 63.484 63.8464 63.444 64.3744 63.396C64.9104 63.34 65.4384 63.272 65.9584 63.192L65.9464 64.092C65.5464 64.148 65.1464 64.196 64.7464 64.236C64.3544 64.268 63.9584 64.296 63.5584 64.32C63.1664 64.344 62.7624 64.364 62.3464 64.38C61.9384 64.388 61.5064 64.392 61.0504 64.392C60.7784 64.392 60.4624 64.384 60.1024 64.368C59.7504 64.352 59.3904 64.332 59.0224 64.308C58.6624 64.284 58.3384 64.256 58.0504 64.224L58.0384 63.324ZM75.3424 59.496C75.3424 59.536 75.3344 59.608 75.3184 59.712C75.3104 59.816 75.3024 59.92 75.2944 60.024C75.2944 60.12 75.2904 60.196 75.2824 60.252C75.2744 60.404 75.2704 60.612 75.2704 60.876C75.2704 61.14 75.2704 61.428 75.2704 61.74C75.2704 62.052 75.2704 62.368 75.2704 62.688C75.2784 63.008 75.2824 63.308 75.2824 63.588C75.2904 63.868 75.2944 64.104 75.2944 64.296L74.3704 63.84C74.3704 63.728 74.3704 63.56 74.3704 63.336C74.3704 63.104 74.3704 62.84 74.3704 62.544C74.3704 62.24 74.3664 61.94 74.3584 61.644C74.3584 61.348 74.3544 61.076 74.3464 60.828C74.3384 60.58 74.3304 60.388 74.3224 60.252C74.3144 60.092 74.3024 59.94 74.2864 59.796C74.2704 59.644 74.2584 59.544 74.2504 59.496H75.3424ZM68.9704 61.164C69.2984 61.164 69.6704 61.16 70.0864 61.152C70.5024 61.136 70.9424 61.12 71.4064 61.104C71.8784 61.088 72.3544 61.076 72.8344 61.068C73.3144 61.06 73.7744 61.052 74.2144 61.044C74.6624 61.036 75.0744 61.032 75.4504 61.032C75.8104 61.032 76.1704 61.032 76.5304 61.032C76.8904 61.032 77.2264 61.032 77.5384 61.032C77.8584 61.032 78.1384 61.036 78.3784 61.044C78.6264 61.044 78.8224 61.044 78.9664 61.044L78.9544 61.932C78.6184 61.916 78.1664 61.904 77.5984 61.896C77.0384 61.88 76.3184 61.872 75.4384 61.872C74.9184 61.872 74.3744 61.88 73.8064 61.896C73.2464 61.904 72.6824 61.916 72.1144 61.932C71.5464 61.948 70.9944 61.972 70.4584 62.004C69.9304 62.028 69.4424 62.056 68.9944 62.088L68.9704 61.164ZM75.2704 64.656C75.2704 65.184 75.1904 65.628 75.0304 65.988C74.8784 66.348 74.6624 66.616 74.3824 66.792C74.1104 66.968 73.7904 67.056 73.4224 67.056C73.1744 67.056 72.9304 67.016 72.6904 66.936C72.4584 66.848 72.2464 66.72 72.0544 66.552C71.8704 66.376 71.7224 66.164 71.6104 65.916C71.5064 65.66 71.4544 65.372 71.4544 65.052C71.4544 64.652 71.5504 64.296 71.7424 63.984C71.9344 63.672 72.1904 63.424 72.5104 63.24C72.8384 63.056 73.1904 62.964 73.5664 62.964C74.0384 62.964 74.4264 63.072 74.7304 63.288C75.0424 63.496 75.2784 63.784 75.4384 64.152C75.5984 64.512 75.6784 64.924 75.6784 65.388C75.6784 65.788 75.6184 66.196 75.4984 66.612C75.3864 67.028 75.1944 67.428 74.9224 67.812C74.6584 68.196 74.2944 68.548 73.8304 68.868C73.3744 69.18 72.7944 69.44 72.0904 69.648L71.2864 68.856C71.8304 68.728 72.3184 68.564 72.7504 68.364C73.1824 68.164 73.5464 67.92 73.8424 67.632C74.1384 67.344 74.3624 67.008 74.5144 66.624C74.6744 66.24 74.7544 65.8 74.7544 65.304C74.7544 64.76 74.6384 64.368 74.4064 64.128C74.1744 63.888 73.8944 63.768 73.5664 63.768C73.3584 63.768 73.1624 63.82 72.9784 63.924C72.7944 64.02 72.6424 64.164 72.5224 64.356C72.4104 64.548 72.3544 64.776 72.3544 65.04C72.3544 65.416 72.4744 65.708 72.7144 65.916C72.9624 66.124 73.2504 66.228 73.5784 66.228C73.8264 66.228 74.0384 66.16 74.2144 66.024C74.3904 65.88 74.5144 65.668 74.5864 65.388C74.6664 65.1 74.6744 64.744 74.6104 64.32L75.2704 64.656Z" fill="#020057"/>
</svg>
