<svg width="100%" viewBox="0 0 100 64" fill="none" xmlns="http://www.w3.org/2000/svg">
<rect width="100" height="64" fill="#FBFBFE"/>
<path d="M40.2197 10.2197C39.9534 10.4859 39.9292 10.9026 40.1471 11.1962L40.2197 11.2803L44.2542 15.3149C42.3322 16.6644 40.8958 18.6799 40.2989 21.0644C40.1983 21.4662 40.4425 21.8735 40.8443 21.9741C41.2461 22.0746 41.6534 21.8305 41.754 21.4286C42.2835 19.3135 43.5911 17.5395 45.3342 16.3945L47.1438 18.2043C46.4363 18.9258 46 19.9143 46 21.0046C46 23.2138 47.7909 25.0046 50 25.0046C51.0904 25.0046 52.0788 24.5683 52.8004 23.8608L58.7197 29.7803C59.0126 30.0732 59.4874 30.0732 59.7803 29.7803C60.0466 29.5141 60.0708 29.0974 59.8529 28.8038L59.7803 28.7197L53.6668 22.6055L53.668 22.604L52.4679 21.4061L49.598 18.5368L49.6 18.536L46.7188 15.6578L46.72 15.656L45.5867 14.5255L41.2803 10.2197C40.9874 9.92678 40.5126 9.92678 40.2197 10.2197ZM48.2041 19.2655L51.7392 22.8006C51.2892 23.2364 50.6759 23.5046 50 23.5046C48.6193 23.5046 47.5 22.3853 47.5 21.0046C47.5 20.3287 47.7682 19.7154 48.2041 19.2655ZM50 13.5C48.9997 13.5 48.0291 13.6481 47.1111 13.925L48.3481 15.1612C48.8839 15.0553 49.4364 15 50 15C53.9231 15 57.3099 17.6803 58.2471 21.4332C58.3475 21.835 58.7546 22.0794 59.1565 21.9791C59.5584 21.8787 59.8028 21.4716 59.7024 21.0697C58.5994 16.6527 54.6155 13.5 50 13.5ZM50.1947 17.0093L53.996 20.81C53.8942 18.7531 52.2472 17.1076 50.1947 17.0093Z" fill="#020057"/>
<path d="M12.7288 48.668H13.7128V51.908H12.7288V48.668ZM16.7368 48.668H17.7328V51.908H16.7368V48.668ZM10.3168 51.716H20.1568V52.544H10.3168V51.716ZM15.2128 43.76C15.9808 43.76 16.6608 43.876 17.2528 44.108C17.8448 44.34 18.3088 44.664 18.6448 45.08C18.9888 45.496 19.1608 45.988 19.1608 46.556C19.1608 47.116 18.9888 47.608 18.6448 48.032C18.3088 48.448 17.8448 48.772 17.2528 49.004C16.6608 49.228 15.9808 49.34 15.2128 49.34C14.4528 49.34 13.7728 49.228 13.1728 49.004C12.5808 48.772 12.1168 48.448 11.7808 48.032C11.4448 47.608 11.2768 47.116 11.2768 46.556C11.2768 45.988 11.4448 45.496 11.7808 45.08C12.1168 44.664 12.5808 44.34 13.1728 44.108C13.7728 43.876 14.4528 43.76 15.2128 43.76ZM15.2128 44.552C14.6368 44.552 14.1248 44.636 13.6768 44.804C13.2288 44.972 12.8768 45.208 12.6208 45.512C12.3648 45.808 12.2368 46.156 12.2368 46.556C12.2368 46.956 12.3648 47.308 12.6208 47.612C12.8768 47.908 13.2288 48.14 13.6768 48.308C14.1248 48.476 14.6368 48.56 15.2128 48.56C15.7968 48.56 16.3128 48.476 16.7608 48.308C17.2088 48.14 17.5608 47.908 17.8168 47.612C18.0728 47.308 18.2008 46.956 18.2008 46.556C18.2008 46.156 18.0728 45.808 17.8168 45.512C17.5608 45.208 17.2088 44.972 16.7608 44.804C16.3128 44.636 15.7968 44.552 15.2128 44.552ZM21.3559 51.692H31.1959V52.532H21.3559V51.692ZM25.7359 49.064H26.7199V51.968H25.7359V49.064ZM25.6999 43.796H26.5759V44.636C26.5759 45.108 26.4919 45.552 26.3239 45.968C26.1639 46.376 25.9399 46.76 25.6519 47.12C25.3639 47.472 25.0319 47.788 24.6559 48.068C24.2879 48.348 23.8919 48.584 23.4679 48.776C23.0439 48.968 22.6119 49.108 22.1719 49.196L21.7399 48.368C22.1239 48.304 22.5039 48.192 22.8799 48.032C23.2639 47.864 23.6239 47.664 23.9599 47.432C24.2959 47.192 24.5959 46.928 24.8599 46.64C25.1239 46.344 25.3279 46.028 25.4719 45.692C25.6239 45.348 25.6999 44.996 25.6999 44.636V43.796ZM25.8799 43.796H26.7439V44.636C26.7439 45.004 26.8199 45.356 26.9719 45.692C27.1239 46.028 27.3319 46.344 27.5959 46.64C27.8599 46.928 28.1599 47.192 28.4959 47.432C28.8399 47.672 29.1999 47.872 29.5759 48.032C29.9599 48.192 30.3439 48.304 30.7279 48.368L30.2959 49.196C29.8559 49.108 29.4239 48.968 28.9999 48.776C28.5759 48.584 28.1759 48.348 27.7999 48.068C27.4239 47.788 27.0919 47.472 26.8039 47.12C26.5159 46.76 26.2879 46.372 26.1199 45.956C25.9599 45.54 25.8799 45.1 25.8799 44.636V43.796ZM39.7389 43.076H40.7349V53.924H39.7389V43.076ZM40.4709 47.48H42.4629V48.308H40.4709V47.48ZM36.9669 44.24H37.9389C37.9389 45.272 37.7709 46.26 37.4349 47.204C37.0989 48.14 36.5709 49.008 35.8509 49.808C35.1309 50.6 34.1829 51.288 33.0069 51.872L32.4549 51.104C33.4629 50.6 34.2989 50.012 34.9629 49.34C35.6349 48.66 36.1349 47.908 36.4629 47.084C36.7989 46.252 36.9669 45.356 36.9669 44.396V44.24ZM32.9589 44.24H37.4709V45.068H32.9589V44.24ZM47.159 44.168H52.139V51.176H47.159V44.168ZM51.155 44.96H48.131V50.372H51.155V44.96ZM54.071 43.076H55.067V53.936H54.071V43.076ZM54.839 47.408H56.843V48.248H54.839V47.408ZM62.11 43.82H62.986V44.66C62.986 45.132 62.902 45.58 62.734 46.004C62.574 46.428 62.35 46.824 62.062 47.192C61.782 47.552 61.454 47.876 61.078 48.164C60.71 48.452 60.314 48.696 59.89 48.896C59.474 49.096 59.05 49.248 58.618 49.352L58.174 48.524C58.55 48.444 58.926 48.32 59.302 48.152C59.686 47.984 60.046 47.78 60.382 47.54C60.718 47.292 61.014 47.016 61.27 46.712C61.534 46.408 61.738 46.084 61.882 45.74C62.034 45.388 62.11 45.028 62.11 44.66V43.82ZM62.302 43.82H63.154V44.66C63.154 45.028 63.23 45.388 63.382 45.74C63.534 46.084 63.738 46.408 63.994 46.712C64.258 47.016 64.558 47.292 64.894 47.54C65.23 47.78 65.586 47.988 65.962 48.164C66.346 48.332 66.73 48.452 67.114 48.524L66.658 49.352C66.226 49.248 65.802 49.096 65.386 48.896C64.97 48.696 64.574 48.452 64.198 48.164C63.83 47.876 63.502 47.552 63.214 47.192C62.926 46.824 62.702 46.428 62.542 46.004C62.382 45.58 62.302 45.132 62.302 44.66V43.82ZM57.766 51.644H67.606V52.472H57.766V51.644ZM73.4851 43.82H74.5291C74.5291 44.756 74.3491 45.6 73.9891 46.352C73.6291 47.104 73.0771 47.76 72.3331 48.32C71.5971 48.872 70.6491 49.32 69.4891 49.664L69.1051 48.86C69.8811 48.636 70.5451 48.368 71.0971 48.056C71.6491 47.744 72.1011 47.392 72.4531 47C72.8051 46.6 73.0651 46.168 73.2331 45.704C73.4011 45.24 73.4851 44.744 73.4851 44.216V43.82ZM69.5731 43.82H74.0251V44.624H69.5731V43.82ZM73.3531 45.824V46.52L69.2011 46.832L69.0331 46.016L73.3531 45.824ZM76.7011 43.088H77.6971V49.604H76.7011V43.088ZM74.1211 49.76C74.8731 49.76 75.5171 49.844 76.0531 50.012C76.5971 50.18 77.0171 50.416 77.3131 50.72C77.6091 51.024 77.7571 51.396 77.7571 51.836C77.7571 52.276 77.6091 52.652 77.3131 52.964C77.0171 53.276 76.5971 53.512 76.0531 53.672C75.5171 53.832 74.8731 53.912 74.1211 53.912C73.3691 53.912 72.7211 53.832 72.1771 53.672C71.6331 53.512 71.2131 53.276 70.9171 52.964C70.6211 52.652 70.4731 52.276 70.4731 51.836C70.4731 51.396 70.6211 51.024 70.9171 50.72C71.2131 50.416 71.6331 50.18 72.1771 50.012C72.7211 49.844 73.3691 49.76 74.1211 49.76ZM74.1211 50.552C73.5691 50.552 73.0931 50.604 72.6931 50.708C72.3011 50.812 71.9971 50.96 71.7811 51.152C71.5731 51.336 71.4691 51.564 71.4691 51.836C71.4691 52.1 71.5731 52.332 71.7811 52.532C71.9971 52.724 72.3011 52.872 72.6931 52.976C73.0931 53.08 73.5691 53.132 74.1211 53.132C74.6651 53.132 75.1331 53.08 75.5251 52.976C75.9251 52.872 76.2291 52.724 76.4371 52.532C76.6531 52.332 76.7611 52.1 76.7611 51.836C76.7611 51.564 76.6531 51.336 76.4371 51.152C76.2291 50.96 75.9251 50.812 75.5251 50.708C75.1331 50.604 74.6651 50.552 74.1211 50.552ZM82.9521 46.82H83.9601V48.716H82.9521V46.82ZM87.7521 43.088H88.7361V49.676H87.7521V43.088ZM80.0361 49.22L79.9161 48.428C80.5801 48.428 81.3041 48.424 82.0881 48.416C82.8801 48.4 83.6841 48.368 84.5001 48.32C85.3241 48.272 86.1201 48.192 86.8881 48.08L86.9481 48.788C86.1641 48.924 85.3641 49.024 84.5481 49.088C83.7321 49.144 82.9401 49.18 82.1721 49.196C81.4041 49.212 80.6921 49.22 80.0361 49.22ZM81.6441 50.216H88.7361V53.792H81.6441V50.216ZM87.7761 51.02H82.6161V52.976H87.7761V51.02ZM80.8641 46.292H86.1681V47.108H80.8641V46.292ZM80.8641 43.676H86.0841V44.492H81.8601V46.676H80.8641V43.676Z" fill="#020057"/>
</svg>
