<svg width="100%" viewBox="0 0 148 147" fill="none" xmlns="http://www.w3.org/2000/svg">
<g filter="url(#filter0_dd_3871_164765)">
<rect x="8" y="4" width="132" height="132" fill="#FBFBFE"/>
<rect x="8.5" y="4.5" width="131" height="131" stroke="#827DFF" stroke-dasharray="4 4"/>
<rect width="100" height="64" transform="translate(24 38)" fill="#FBFBFE"/>
<path d="M64.2197 48.2197C63.9534 48.4859 63.9292 48.9026 64.1471 49.1962L64.2197 49.2803L68.2542 53.3149C66.3322 54.6644 64.8958 56.6799 64.2989 59.0644C64.1983 59.4662 64.4425 59.8735 64.8443 59.9741C65.2461 60.0746 65.6534 59.8305 65.754 59.4286C66.2835 57.3135 67.5911 55.5395 69.3342 54.3945L71.1438 56.2043C70.4363 56.9258 70 57.9143 70 59.0046C70 61.2138 71.7909 63.0046 74 63.0046C75.0904 63.0046 76.0788 62.5683 76.8004 61.8608L82.7197 67.7803C83.0126 68.0732 83.4874 68.0732 83.7803 67.7803C84.0466 67.5141 84.0708 67.0974 83.8529 66.8038L83.7803 66.7197L77.6668 60.6055L77.668 60.604L76.4679 59.4061L73.598 56.5368L73.6 56.536L70.7188 53.6578L70.72 53.656L69.5867 52.5255L65.2803 48.2197C64.9874 47.9268 64.5126 47.9268 64.2197 48.2197ZM72.2041 57.2655L75.7392 60.8006C75.2892 61.2364 74.6759 61.5046 74 61.5046C72.6193 61.5046 71.5 60.3853 71.5 59.0046C71.5 58.3287 71.7682 57.7154 72.2041 57.2655ZM74 51.5C72.9997 51.5 72.0291 51.6481 71.1111 51.925L72.3481 53.1612C72.8839 53.0553 73.4364 53 74 53C77.9231 53 81.3099 55.6803 82.2471 59.4332C82.3475 59.835 82.7546 60.0794 83.1565 59.9791C83.5584 59.8787 83.8028 59.4716 83.7024 59.0697C82.5994 54.6527 78.6155 51.5 74 51.5ZM74.1947 55.0093L77.996 58.81C77.8942 56.7531 76.2472 55.1076 74.1947 55.0093Z" fill="#020057"/>
<path d="M36.7288 86.668H37.7128V89.908H36.7288V86.668ZM40.7368 86.668H41.7328V89.908H40.7368V86.668ZM34.3168 89.716H44.1568V90.544H34.3168V89.716ZM39.2128 81.76C39.9808 81.76 40.6608 81.876 41.2528 82.108C41.8448 82.34 42.3088 82.664 42.6448 83.08C42.9888 83.496 43.1608 83.988 43.1608 84.556C43.1608 85.116 42.9888 85.608 42.6448 86.032C42.3088 86.448 41.8448 86.772 41.2528 87.004C40.6608 87.228 39.9808 87.34 39.2128 87.34C38.4528 87.34 37.7728 87.228 37.1728 87.004C36.5808 86.772 36.1168 86.448 35.7808 86.032C35.4448 85.608 35.2768 85.116 35.2768 84.556C35.2768 83.988 35.4448 83.496 35.7808 83.08C36.1168 82.664 36.5808 82.34 37.1728 82.108C37.7728 81.876 38.4528 81.76 39.2128 81.76ZM39.2128 82.552C38.6368 82.552 38.1248 82.636 37.6768 82.804C37.2288 82.972 36.8768 83.208 36.6208 83.512C36.3648 83.808 36.2368 84.156 36.2368 84.556C36.2368 84.956 36.3648 85.308 36.6208 85.612C36.8768 85.908 37.2288 86.14 37.6768 86.308C38.1248 86.476 38.6368 86.56 39.2128 86.56C39.7968 86.56 40.3128 86.476 40.7608 86.308C41.2088 86.14 41.5608 85.908 41.8168 85.612C42.0728 85.308 42.2008 84.956 42.2008 84.556C42.2008 84.156 42.0728 83.808 41.8168 83.512C41.5608 83.208 41.2088 82.972 40.7608 82.804C40.3128 82.636 39.7968 82.552 39.2128 82.552ZM45.3559 89.692H55.1959V90.532H45.3559V89.692ZM49.7359 87.064H50.7199V89.968H49.7359V87.064ZM49.6999 81.796H50.5759V82.636C50.5759 83.108 50.4919 83.552 50.3239 83.968C50.1639 84.376 49.9399 84.76 49.6519 85.12C49.3639 85.472 49.0319 85.788 48.6559 86.068C48.2879 86.348 47.8919 86.584 47.4679 86.776C47.0439 86.968 46.6119 87.108 46.1719 87.196L45.7399 86.368C46.1239 86.304 46.5039 86.192 46.8799 86.032C47.2639 85.864 47.6239 85.664 47.9599 85.432C48.2959 85.192 48.5959 84.928 48.8599 84.64C49.1239 84.344 49.3279 84.028 49.4719 83.692C49.6239 83.348 49.6999 82.996 49.6999 82.636V81.796ZM49.8799 81.796H50.7439V82.636C50.7439 83.004 50.8199 83.356 50.9719 83.692C51.1239 84.028 51.3319 84.344 51.5959 84.64C51.8599 84.928 52.1599 85.192 52.4959 85.432C52.8399 85.672 53.1999 85.872 53.5759 86.032C53.9599 86.192 54.3439 86.304 54.7279 86.368L54.2959 87.196C53.8559 87.108 53.4239 86.968 52.9999 86.776C52.5759 86.584 52.1759 86.348 51.7999 86.068C51.4239 85.788 51.0919 85.472 50.8039 85.12C50.5159 84.76 50.2879 84.372 50.1199 83.956C49.9599 83.54 49.8799 83.1 49.8799 82.636V81.796ZM63.7389 81.076H64.7349V91.924H63.7389V81.076ZM64.4709 85.48H66.4629V86.308H64.4709V85.48ZM60.9669 82.24H61.9389C61.9389 83.272 61.7709 84.26 61.4349 85.204C61.0989 86.14 60.5709 87.008 59.8509 87.808C59.1309 88.6 58.1829 89.288 57.0069 89.872L56.4549 89.104C57.4629 88.6 58.2989 88.012 58.9629 87.34C59.6349 86.66 60.1349 85.908 60.4629 85.084C60.7989 84.252 60.9669 83.356 60.9669 82.396V82.24ZM56.9589 82.24H61.4709V83.068H56.9589V82.24ZM71.159 82.168H76.139V89.176H71.159V82.168ZM75.155 82.96H72.131V88.372H75.155V82.96ZM78.071 81.076H79.067V91.936H78.071V81.076ZM78.839 85.408H80.843V86.248H78.839V85.408ZM86.11 81.82H86.986V82.66C86.986 83.132 86.902 83.58 86.734 84.004C86.574 84.428 86.35 84.824 86.062 85.192C85.782 85.552 85.454 85.876 85.078 86.164C84.71 86.452 84.314 86.696 83.89 86.896C83.474 87.096 83.05 87.248 82.618 87.352L82.174 86.524C82.55 86.444 82.926 86.32 83.302 86.152C83.686 85.984 84.046 85.78 84.382 85.54C84.718 85.292 85.014 85.016 85.27 84.712C85.534 84.408 85.738 84.084 85.882 83.74C86.034 83.388 86.11 83.028 86.11 82.66V81.82ZM86.302 81.82H87.154V82.66C87.154 83.028 87.23 83.388 87.382 83.74C87.534 84.084 87.738 84.408 87.994 84.712C88.258 85.016 88.558 85.292 88.894 85.54C89.23 85.78 89.586 85.988 89.962 86.164C90.346 86.332 90.73 86.452 91.114 86.524L90.658 87.352C90.226 87.248 89.802 87.096 89.386 86.896C88.97 86.696 88.574 86.452 88.198 86.164C87.83 85.876 87.502 85.552 87.214 85.192C86.926 84.824 86.702 84.428 86.542 84.004C86.382 83.58 86.302 83.132 86.302 82.66V81.82ZM81.766 89.644H91.606V90.472H81.766V89.644ZM97.4851 81.82H98.5291C98.5291 82.756 98.3491 83.6 97.9891 84.352C97.6291 85.104 97.0771 85.76 96.3331 86.32C95.5971 86.872 94.6491 87.32 93.4891 87.664L93.1051 86.86C93.8811 86.636 94.5451 86.368 95.0971 86.056C95.6491 85.744 96.1011 85.392 96.4531 85C96.8051 84.6 97.0651 84.168 97.2331 83.704C97.4011 83.24 97.4851 82.744 97.4851 82.216V81.82ZM93.5731 81.82H98.0251V82.624H93.5731V81.82ZM97.3531 83.824V84.52L93.2011 84.832L93.0331 84.016L97.3531 83.824ZM100.701 81.088H101.697V87.604H100.701V81.088ZM98.1211 87.76C98.8731 87.76 99.5171 87.844 100.053 88.012C100.597 88.18 101.017 88.416 101.313 88.72C101.609 89.024 101.757 89.396 101.757 89.836C101.757 90.276 101.609 90.652 101.313 90.964C101.017 91.276 100.597 91.512 100.053 91.672C99.5171 91.832 98.8731 91.912 98.1211 91.912C97.3691 91.912 96.7211 91.832 96.1771 91.672C95.6331 91.512 95.2131 91.276 94.9171 90.964C94.6211 90.652 94.4731 90.276 94.4731 89.836C94.4731 89.396 94.6211 89.024 94.9171 88.72C95.2131 88.416 95.6331 88.18 96.1771 88.012C96.7211 87.844 97.3691 87.76 98.1211 87.76ZM98.1211 88.552C97.5691 88.552 97.0931 88.604 96.6931 88.708C96.3011 88.812 95.9971 88.96 95.7811 89.152C95.5731 89.336 95.4691 89.564 95.4691 89.836C95.4691 90.1 95.5731 90.332 95.7811 90.532C95.9971 90.724 96.3011 90.872 96.6931 90.976C97.0931 91.08 97.5691 91.132 98.1211 91.132C98.6651 91.132 99.1331 91.08 99.5251 90.976C99.9251 90.872 100.229 90.724 100.437 90.532C100.653 90.332 100.761 90.1 100.761 89.836C100.761 89.564 100.653 89.336 100.437 89.152C100.229 88.96 99.9251 88.812 99.5251 88.708C99.1331 88.604 98.6651 88.552 98.1211 88.552ZM106.952 84.82H107.96V86.716H106.952V84.82ZM111.752 81.088H112.736V87.676H111.752V81.088ZM104.036 87.22L103.916 86.428C104.58 86.428 105.304 86.424 106.088 86.416C106.88 86.4 107.684 86.368 108.5 86.32C109.324 86.272 110.12 86.192 110.888 86.08L110.948 86.788C110.164 86.924 109.364 87.024 108.548 87.088C107.732 87.144 106.94 87.18 106.172 87.196C105.404 87.212 104.692 87.22 104.036 87.22ZM105.644 88.216H112.736V91.792H105.644V88.216ZM111.776 89.02H106.616V90.976H111.776V89.02ZM104.864 84.292H110.168V85.108H104.864V84.292ZM104.864 81.676H110.084V82.492H105.86V84.676H104.864V81.676Z" fill="#020057"/>
</g>
<defs>
<filter id="filter0_dd_3871_164765" x="0.8" y="2.38419e-07" width="146.4" height="146.4" filterUnits="userSpaceOnUse" color-interpolation-filters="sRGB">
<feFlood flood-opacity="0" result="BackgroundImageFix"/>
<feColorMatrix in="SourceAlpha" type="matrix" values="0 0 0 0 0 0 0 0 0 0 0 0 0 0 0 0 0 0 127 0" result="hardAlpha"/>
<feOffset dy="3.2"/>
<feGaussianBlur stdDeviation="3.6"/>
<feColorMatrix type="matrix" values="0 0 0 0 0.513726 0 0 0 0 0.494118 0 0 0 0 1 0 0 0 0.12 0"/>
<feBlend mode="normal" in2="BackgroundImageFix" result="effect1_dropShadow_3871_164765"/>
<feColorMatrix in="SourceAlpha" type="matrix" values="0 0 0 0 0 0 0 0 0 0 0 0 0 0 0 0 0 0 127 0" result="hardAlpha"/>
<feOffset dy="0.6"/>
<feGaussianBlur stdDeviation="0.9"/>
<feColorMatrix type="matrix" values="0 0 0 0 0.513726 0 0 0 0 0.494118 0 0 0 0 1 0 0 0 0.1 0"/>
<feBlend mode="normal" in2="effect1_dropShadow_3871_164765" result="effect2_dropShadow_3871_164765"/>
<feBlend mode="normal" in="SourceGraphic" in2="effect2_dropShadow_3871_164765" result="shape"/>
</filter>
</defs>
</svg>
