<svg width="100%" viewBox="0 0 148 147" fill="none" xmlns="http://www.w3.org/2000/svg">
<g filter="url(#filter0_dd_3871_164775)">
<rect x="8" y="4" width="132" height="132" fill="#FBFBFE"/>
<rect x="8.5" y="4.5" width="131" height="131" stroke="#827DFF" stroke-dasharray="4 4"/>
<rect width="100" height="80" transform="translate(24 30)" fill="#FBFBFE"/>
<path d="M64.2197 40.2197C63.9534 40.4859 63.9292 40.9026 64.1471 41.1962L64.2197 41.2803L68.2542 45.3149C66.3322 46.6644 64.8958 48.6799 64.2989 51.0644C64.1983 51.4662 64.4425 51.8735 64.8443 51.9741C65.2461 52.0746 65.6534 51.8305 65.754 51.4286C66.2835 49.3135 67.5911 47.5395 69.3342 46.3945L71.1438 48.2043C70.4363 48.9258 70 49.9143 70 51.0046C70 53.2138 71.7909 55.0046 74 55.0046C75.0904 55.0046 76.0788 54.5683 76.8004 53.8608L82.7197 59.7803C83.0126 60.0732 83.4874 60.0732 83.7803 59.7803C84.0466 59.5141 84.0708 59.0974 83.8529 58.8038L83.7803 58.7197L77.6668 52.6055L77.668 52.604L76.4679 51.4061L73.598 48.5368L73.6 48.536L70.7188 45.6578L70.72 45.656L69.5867 44.5255L65.2803 40.2197C64.9874 39.9268 64.5126 39.9268 64.2197 40.2197ZM72.2041 49.2655L75.7392 52.8006C75.2892 53.2364 74.6759 53.5046 74 53.5046C72.6193 53.5046 71.5 52.3853 71.5 51.0046C71.5 50.3287 71.7682 49.7154 72.2041 49.2655ZM74 43.5C72.9997 43.5 72.0291 43.6481 71.1111 43.925L72.3481 45.1612C72.8839 45.0553 73.4364 45 74 45C77.9231 45 81.3099 47.6803 82.2471 51.4332C82.3475 51.835 82.7546 52.0794 83.1565 51.9791C83.5584 51.8787 83.8028 51.4716 83.7024 51.0697C82.5994 46.6527 78.6155 43.5 74 43.5ZM74.1947 47.0093L77.996 50.81C77.8942 48.7531 76.2472 47.1076 74.1947 47.0093Z" fill="#020057"/>
<path d="M47.3281 83.1406C46.1367 83.1406 45.1816 82.748 44.4629 81.9629C43.748 81.1777 43.3906 80.1562 43.3906 78.8984C43.3906 77.5469 43.7559 76.4688 44.4863 75.6641C45.2168 74.8594 46.2109 74.457 47.4688 74.457C48.6289 74.457 49.5625 74.8477 50.2695 75.6289C50.9805 76.4102 51.3359 77.4316 51.3359 78.6934C51.3359 80.0645 50.9727 81.1484 50.2461 81.9453C49.5195 82.7422 48.5469 83.1406 47.3281 83.1406ZM47.3984 75.3477C46.5156 75.3477 45.7988 75.666 45.248 76.3027C44.6973 76.9395 44.4219 77.7754 44.4219 78.8105C44.4219 79.8457 44.6895 80.6797 45.2246 81.3125C45.7637 81.9414 46.4648 82.2559 47.3281 82.2559C48.25 82.2559 48.9766 81.9551 49.5078 81.3535C50.0391 80.752 50.3047 79.9102 50.3047 78.8281C50.3047 77.7188 50.0469 76.8613 49.5312 76.2559C49.0156 75.6504 48.3047 75.3477 47.3984 75.3477ZM60.9746 80.2402H56.7383C56.7539 80.9082 56.9336 81.4238 57.2773 81.7871C57.6211 82.1504 58.0938 82.332 58.6953 82.332C59.3711 82.332 59.9922 82.1094 60.5586 81.6641V82.5664C60.0312 82.9492 59.334 83.1406 58.4668 83.1406C57.6191 83.1406 56.9531 82.8691 56.4688 82.3262C55.9844 81.7793 55.7422 81.0117 55.7422 80.0234C55.7422 79.0898 56.0059 78.3301 56.5332 77.7441C57.0645 77.1543 57.7227 76.8594 58.5078 76.8594C59.293 76.8594 59.9004 77.1133 60.3301 77.6211C60.7598 78.1289 60.9746 78.834 60.9746 79.7363V80.2402ZM59.9902 79.4258C59.9863 78.8711 59.8516 78.4395 59.5859 78.1309C59.3242 77.8223 58.959 77.668 58.4902 77.668C58.0371 77.668 57.6523 77.8301 57.3359 78.1543C57.0195 78.4785 56.8242 78.9023 56.75 79.4258H59.9902ZM63.3945 83H62.4336V74.1172H63.3945V83ZM70.1621 80.2402H65.9258C65.9414 80.9082 66.1211 81.4238 66.4648 81.7871C66.8086 82.1504 67.2812 82.332 67.8828 82.332C68.5586 82.332 69.1797 82.1094 69.7461 81.6641V82.5664C69.2188 82.9492 68.5215 83.1406 67.6543 83.1406C66.8066 83.1406 66.1406 82.8691 65.6562 82.3262C65.1719 81.7793 64.9297 81.0117 64.9297 80.0234C64.9297 79.0898 65.1934 78.3301 65.7207 77.7441C66.252 77.1543 66.9102 76.8594 67.6953 76.8594C68.4805 76.8594 69.0879 77.1133 69.5176 77.6211C69.9473 78.1289 70.1621 78.834 70.1621 79.7363V80.2402ZM69.1777 79.4258C69.1738 78.8711 69.0391 78.4395 68.7734 78.1309C68.5117 77.8223 68.1465 77.668 67.6777 77.668C67.2246 77.668 66.8398 77.8301 66.5234 78.1543C66.207 78.4785 66.0117 78.9023 65.9375 79.4258H69.1777ZM80.1406 83H79.1797V79.5547C79.1797 78.8906 79.0762 78.4102 78.8691 78.1133C78.666 77.8164 78.3223 77.668 77.8379 77.668C77.4277 77.668 77.0781 77.8555 76.7891 78.2305C76.5039 78.6055 76.3613 79.0547 76.3613 79.5781V83H75.4004V79.4375C75.4004 78.2578 74.9453 77.668 74.0352 77.668C73.6133 77.668 73.2656 77.8457 72.9922 78.2012C72.7188 78.5527 72.582 79.0117 72.582 79.5781V83H71.6211V77H72.582V77.9492H72.6055C73.0312 77.2227 73.6523 76.8594 74.4688 76.8594C74.8789 76.8594 75.2363 76.9746 75.541 77.2051C75.8457 77.4316 76.0547 77.7305 76.168 78.1016C76.6133 77.2734 77.2773 76.8594 78.1602 76.8594C79.4805 76.8594 80.1406 77.6738 80.1406 79.3027V83ZM86.7793 80.2402H82.543C82.5586 80.9082 82.7383 81.4238 83.082 81.7871C83.4258 82.1504 83.8984 82.332 84.5 82.332C85.1758 82.332 85.7969 82.1094 86.3633 81.6641V82.5664C85.8359 82.9492 85.1387 83.1406 84.2715 83.1406C83.4238 83.1406 82.7578 82.8691 82.2734 82.3262C81.7891 81.7793 81.5469 81.0117 81.5469 80.0234C81.5469 79.0898 81.8105 78.3301 82.3379 77.7441C82.8691 77.1543 83.5273 76.8594 84.3125 76.8594C85.0977 76.8594 85.7051 77.1133 86.1348 77.6211C86.5645 78.1289 86.7793 78.834 86.7793 79.7363V80.2402ZM85.7949 79.4258C85.791 78.8711 85.6562 78.4395 85.3906 78.1309C85.1289 77.8223 84.7637 77.668 84.2949 77.668C83.8418 77.668 83.457 77.8301 83.1406 78.1543C82.8242 78.4785 82.6289 78.9023 82.5547 79.4258H85.7949ZM93.2188 83H92.2578V79.5781C92.2578 78.3047 91.793 77.668 90.8633 77.668C90.3828 77.668 89.9844 77.8496 89.668 78.2129C89.3555 78.5723 89.1992 79.0273 89.1992 79.5781V83H88.2383V77H89.1992V77.9961H89.2227C89.6758 77.2383 90.332 76.8594 91.1914 76.8594C91.8477 76.8594 92.3496 77.0723 92.6973 77.498C93.0449 77.9199 93.2188 78.5312 93.2188 79.332V83ZM97.8184 82.9414C97.5918 83.0664 97.293 83.1289 96.9219 83.1289C95.8711 83.1289 95.3457 82.543 95.3457 81.3711V77.8203H94.3145V77H95.3457V75.5352L96.3066 75.2246V77H97.8184V77.8203H96.3066V81.2012C96.3066 81.6035 96.375 81.8906 96.5117 82.0625C96.6484 82.2344 96.875 82.3203 97.1914 82.3203C97.4336 82.3203 97.6426 82.2539 97.8184 82.1211V82.9414ZM101.609 83.1406C100.723 83.1406 100.014 82.8613 99.4824 82.3027C98.9551 81.7402 98.6914 80.9961 98.6914 80.0703C98.6914 79.0625 98.9668 78.2754 99.5176 77.709C100.068 77.1426 100.812 76.8594 101.75 76.8594C102.645 76.8594 103.342 77.1348 103.842 77.6855C104.346 78.2363 104.598 79 104.598 79.9766C104.598 80.9336 104.326 81.7012 103.783 82.2793C103.244 82.8535 102.52 83.1406 101.609 83.1406ZM101.68 77.668C101.062 77.668 100.574 77.8789 100.215 78.3008C99.8555 78.7188 99.6758 79.2969 99.6758 80.0352C99.6758 80.7461 99.8574 81.3066 100.221 81.7168C100.584 82.127 101.07 82.332 101.68 82.332C102.301 82.332 102.777 82.1309 103.109 81.7285C103.445 81.3262 103.613 80.7539 103.613 80.0117C103.613 79.2617 103.445 78.6836 103.109 78.2773C102.777 77.8711 102.301 77.668 101.68 77.668ZM38.5918 96.2402H34.3555C34.3711 96.9082 34.5508 97.4238 34.8945 97.7871C35.2383 98.1504 35.7109 98.332 36.3125 98.332C36.9883 98.332 37.6094 98.1094 38.1758 97.6641V98.5664C37.6484 98.9492 36.9512 99.1406 36.084 99.1406C35.2363 99.1406 34.5703 98.8691 34.0859 98.3262C33.6016 97.7793 33.3594 97.0117 33.3594 96.0234C33.3594 95.0898 33.623 94.3301 34.1504 93.7441C34.6816 93.1543 35.3398 92.8594 36.125 92.8594C36.9102 92.8594 37.5176 93.1133 37.9473 93.6211C38.377 94.1289 38.5918 94.834 38.5918 95.7363V96.2402ZM37.6074 95.4258C37.6035 94.8711 37.4688 94.4395 37.2031 94.1309C36.9414 93.8223 36.5762 93.668 36.1074 93.668C35.6543 93.668 35.2695 93.8301 34.9531 94.1543C34.6367 94.4785 34.4414 94.9023 34.3672 95.4258H37.6074ZM39.6875 98.7832V97.752C40.2109 98.1387 40.7871 98.332 41.416 98.332C42.2598 98.332 42.6816 98.0508 42.6816 97.4883C42.6816 97.3281 42.6445 97.1934 42.5703 97.084C42.5 96.9707 42.4023 96.8711 42.2773 96.7852C42.1562 96.6992 42.0117 96.623 41.8438 96.5566C41.6797 96.4863 41.502 96.4141 41.3105 96.3398C41.0449 96.2344 40.8105 96.1289 40.6074 96.0234C40.4082 95.9141 40.2402 95.793 40.1035 95.6602C39.9707 95.5234 39.8691 95.3691 39.7988 95.1973C39.7324 95.0254 39.6992 94.8242 39.6992 94.5938C39.6992 94.3125 39.7637 94.0645 39.8926 93.8496C40.0215 93.6309 40.1934 93.4492 40.4082 93.3047C40.623 93.1562 40.8672 93.0449 41.1406 92.9707C41.418 92.8965 41.7031 92.8594 41.9961 92.8594C42.5156 92.8594 42.9805 92.9492 43.3906 93.1289V94.1016C42.9492 93.8125 42.4414 93.668 41.8672 93.668C41.6875 93.668 41.5254 93.6895 41.3809 93.7324C41.2363 93.7715 41.1113 93.8281 41.0059 93.9023C40.9043 93.9766 40.8242 94.0664 40.7656 94.1719C40.7109 94.2734 40.6836 94.3867 40.6836 94.5117C40.6836 94.668 40.7109 94.7988 40.7656 94.9043C40.8242 95.0098 40.9082 95.1035 41.0176 95.1855C41.127 95.2676 41.2598 95.3418 41.416 95.4082C41.5723 95.4746 41.75 95.5469 41.9492 95.625C42.2148 95.7266 42.4531 95.832 42.6641 95.9414C42.875 96.0469 43.0547 96.168 43.2031 96.3047C43.3516 96.4375 43.4648 96.5918 43.543 96.7676C43.625 96.9434 43.666 97.1523 43.666 97.3945C43.666 97.6914 43.5996 97.9492 43.4668 98.168C43.3379 98.3867 43.1641 98.5684 42.9453 98.7129C42.7266 98.8574 42.4746 98.9648 42.1895 99.0352C41.9043 99.1055 41.6055 99.1406 41.293 99.1406C40.6758 99.1406 40.1406 99.0215 39.6875 98.7832ZM47.9316 98.9414C47.7051 99.0664 47.4062 99.1289 47.0352 99.1289C45.9844 99.1289 45.459 98.543 45.459 97.3711V93.8203H44.4277V93H45.459V91.5352L46.4199 91.2246V93H47.9316V93.8203H46.4199V97.2012C46.4199 97.6035 46.4883 97.8906 46.625 98.0625C46.7617 98.2344 46.9883 98.3203 47.3047 98.3203C47.5469 98.3203 47.7559 98.2539 47.9316 98.1211V98.9414ZM53.5098 99H52.5488V98.0625H52.5254C52.1074 98.7812 51.4922 99.1406 50.6797 99.1406C50.082 99.1406 49.6133 98.9824 49.2734 98.666C48.9375 98.3496 48.7695 97.9297 48.7695 97.4062C48.7695 96.2852 49.4297 95.6328 50.75 95.4492L52.5488 95.1973C52.5488 94.1777 52.1367 93.668 51.3125 93.668C50.5898 93.668 49.9375 93.9141 49.3555 94.4062V93.4219C49.9453 93.0469 50.625 92.8594 51.3945 92.8594C52.8047 92.8594 53.5098 93.6055 53.5098 95.0977V99ZM52.5488 95.9648L51.1016 96.1641C50.6562 96.2266 50.3203 96.3379 50.0938 96.498C49.8672 96.6543 49.7539 96.9336 49.7539 97.3359C49.7539 97.6289 49.8574 97.8691 50.0645 98.0566C50.2754 98.2402 50.5547 98.332 50.9023 98.332C51.3789 98.332 51.7715 98.166 52.0801 97.834C52.3926 97.498 52.5488 97.0742 52.5488 96.5625V95.9648ZM52.6777 89.9414L51.1426 91.8633H50.3984L51.7051 89.9414H52.6777ZM67.1328 99H66.1719V95.5547C66.1719 94.8906 66.0684 94.4102 65.8613 94.1133C65.6582 93.8164 65.3145 93.668 64.8301 93.668C64.4199 93.668 64.0703 93.8555 63.7812 94.2305C63.4961 94.6055 63.3535 95.0547 63.3535 95.5781V99H62.3926V95.4375C62.3926 94.2578 61.9375 93.668 61.0273 93.668C60.6055 93.668 60.2578 93.8457 59.9844 94.2012C59.7109 94.5527 59.5742 95.0117 59.5742 95.5781V99H58.6133V93H59.5742V93.9492H59.5977C60.0234 93.2227 60.6445 92.8594 61.4609 92.8594C61.8711 92.8594 62.2285 92.9746 62.5332 93.2051C62.8379 93.4316 63.0469 93.7305 63.1602 94.1016C63.6055 93.2734 64.2695 92.8594 65.1523 92.8594C66.4727 92.8594 67.1328 93.6738 67.1328 95.3027V99ZM73.2441 99H72.2832V98.0625H72.2598C71.8418 98.7812 71.2266 99.1406 70.4141 99.1406C69.8164 99.1406 69.3477 98.9824 69.0078 98.666C68.6719 98.3496 68.5039 97.9297 68.5039 97.4062C68.5039 96.2852 69.1641 95.6328 70.4844 95.4492L72.2832 95.1973C72.2832 94.1777 71.8711 93.668 71.0469 93.668C70.3242 93.668 69.6719 93.9141 69.0898 94.4062V93.4219C69.6797 93.0469 70.3594 92.8594 71.1289 92.8594C72.5391 92.8594 73.2441 93.6055 73.2441 95.0977V99ZM72.2832 95.9648L70.8359 96.1641C70.3906 96.2266 70.0547 96.3379 69.8281 96.498C69.6016 96.6543 69.4883 96.9336 69.4883 97.3359C69.4883 97.6289 69.5918 97.8691 69.7988 98.0566C70.0098 98.2402 70.2891 98.332 70.6367 98.332C71.1133 98.332 71.5059 98.166 71.8145 97.834C72.127 97.498 72.2832 97.0742 72.2832 96.5625V95.9648ZM74.6914 98.7832V97.752C75.2148 98.1387 75.791 98.332 76.4199 98.332C77.2637 98.332 77.6855 98.0508 77.6855 97.4883C77.6855 97.3281 77.6484 97.1934 77.5742 97.084C77.5039 96.9707 77.4062 96.8711 77.2812 96.7852C77.1602 96.6992 77.0156 96.623 76.8477 96.5566C76.6836 96.4863 76.5059 96.4141 76.3145 96.3398C76.0488 96.2344 75.8145 96.1289 75.6113 96.0234C75.4121 95.9141 75.2441 95.793 75.1074 95.6602C74.9746 95.5234 74.873 95.3691 74.8027 95.1973C74.7363 95.0254 74.7031 94.8242 74.7031 94.5938C74.7031 94.3125 74.7676 94.0645 74.8965 93.8496C75.0254 93.6309 75.1973 93.4492 75.4121 93.3047C75.627 93.1562 75.8711 93.0449 76.1445 92.9707C76.4219 92.8965 76.707 92.8594 77 92.8594C77.5195 92.8594 77.9844 92.9492 78.3945 93.1289V94.1016C77.9531 93.8125 77.4453 93.668 76.8711 93.668C76.6914 93.668 76.5293 93.6895 76.3848 93.7324C76.2402 93.7715 76.1152 93.8281 76.0098 93.9023C75.9082 93.9766 75.8281 94.0664 75.7695 94.1719C75.7148 94.2734 75.6875 94.3867 75.6875 94.5117C75.6875 94.668 75.7148 94.7988 75.7695 94.9043C75.8281 95.0098 75.9121 95.1035 76.0215 95.1855C76.1309 95.2676 76.2637 95.3418 76.4199 95.4082C76.5762 95.4746 76.7539 95.5469 76.9531 95.625C77.2188 95.7266 77.457 95.832 77.668 95.9414C77.8789 96.0469 78.0586 96.168 78.207 96.3047C78.3555 96.4375 78.4688 96.5918 78.5469 96.7676C78.6289 96.9434 78.6699 97.1523 78.6699 97.3945C78.6699 97.6914 78.6035 97.9492 78.4707 98.168C78.3418 98.3867 78.168 98.5684 77.9492 98.7129C77.7305 98.8574 77.4785 98.9648 77.1934 99.0352C76.9082 99.1055 76.6094 99.1406 76.2969 99.1406C75.6797 99.1406 75.1445 99.0215 74.6914 98.7832ZM84.2422 98.7246C83.7812 99.002 83.2344 99.1406 82.6016 99.1406C81.7461 99.1406 81.0547 98.8633 80.5273 98.3086C80.0039 97.75 79.7422 97.0273 79.7422 96.1406C79.7422 95.1523 80.0254 94.3594 80.5918 93.7617C81.1582 93.1602 81.9141 92.8594 82.8594 92.8594C83.3867 92.8594 83.8516 92.957 84.2539 93.1523V94.1367C83.8086 93.8242 83.332 93.668 82.8242 93.668C82.2109 93.668 81.707 93.8887 81.3125 94.3301C80.9219 94.7676 80.7266 95.3438 80.7266 96.0586C80.7266 96.7617 80.9102 97.3164 81.2773 97.7227C81.6484 98.1289 82.1445 98.332 82.7656 98.332C83.2891 98.332 83.7812 98.1582 84.2422 97.8105V98.7246ZM89.9902 99H89.0293V98.0625H89.0059C88.5879 98.7812 87.9727 99.1406 87.1602 99.1406C86.5625 99.1406 86.0938 98.9824 85.7539 98.666C85.418 98.3496 85.25 97.9297 85.25 97.4062C85.25 96.2852 85.9102 95.6328 87.2305 95.4492L89.0293 95.1973C89.0293 94.1777 88.6172 93.668 87.793 93.668C87.0703 93.668 86.418 93.9141 85.8359 94.4062V93.4219C86.4258 93.0469 87.1055 92.8594 87.875 92.8594C89.2852 92.8594 89.9902 93.6055 89.9902 95.0977V99ZM89.0293 95.9648L87.582 96.1641C87.1367 96.2266 86.8008 96.3379 86.5742 96.498C86.3477 96.6543 86.2344 96.9336 86.2344 97.3359C86.2344 97.6289 86.3379 97.8691 86.5449 98.0566C86.7559 98.2402 87.0352 98.332 87.3828 98.332C87.8594 98.332 88.252 98.166 88.5605 97.834C88.873 97.498 89.0293 97.0742 89.0293 96.5625V95.9648ZM94.9297 93.9727C94.7617 93.8438 94.5195 93.7793 94.2031 93.7793C93.793 93.7793 93.4492 93.9727 93.1719 94.3594C92.8984 94.7461 92.7617 95.2734 92.7617 95.9414V99H91.8008V93H92.7617V94.2363H92.7852C92.9219 93.8145 93.1309 93.4863 93.4121 93.252C93.6934 93.0137 94.0078 92.8945 94.3555 92.8945C94.6055 92.8945 94.7969 92.9219 94.9297 92.9766V93.9727ZM100.268 99H99.3066V98.0625H99.2832C98.8652 98.7812 98.25 99.1406 97.4375 99.1406C96.8398 99.1406 96.3711 98.9824 96.0312 98.666C95.6953 98.3496 95.5273 97.9297 95.5273 97.4062C95.5273 96.2852 96.1875 95.6328 97.5078 95.4492L99.3066 95.1973C99.3066 94.1777 98.8945 93.668 98.0703 93.668C97.3477 93.668 96.6953 93.9141 96.1133 94.4062V93.4219C96.7031 93.0469 97.3828 92.8594 98.1523 92.8594C99.5625 92.8594 100.268 93.6055 100.268 95.0977V99ZM99.3066 95.9648L97.8594 96.1641C97.4141 96.2266 97.0781 96.3379 96.8516 96.498C96.625 96.6543 96.5117 96.9336 96.5117 97.3359C96.5117 97.6289 96.6152 97.8691 96.8223 98.0566C97.0332 98.2402 97.3125 98.332 97.6602 98.332C98.1367 98.332 98.5293 98.166 98.8379 97.834C99.1504 97.498 99.3066 97.0742 99.3066 96.5625V95.9648ZM107.199 99H106.238V97.9805H106.215C105.77 98.7539 105.082 99.1406 104.152 99.1406C103.398 99.1406 102.795 98.873 102.342 98.3379C101.893 97.7988 101.668 97.0664 101.668 96.1406C101.668 95.1484 101.918 94.3535 102.418 93.7559C102.918 93.1582 103.584 92.8594 104.416 92.8594C105.24 92.8594 105.84 93.1836 106.215 93.832H106.238V90.1172H107.199V99ZM106.238 96.2871V95.4023C106.238 94.918 106.078 94.5078 105.758 94.1719C105.438 93.8359 105.031 93.668 104.539 93.668C103.953 93.668 103.492 93.8828 103.156 94.3125C102.82 94.7422 102.652 95.3359 102.652 96.0938C102.652 96.7852 102.812 97.332 103.133 97.7344C103.457 98.1328 103.891 98.332 104.434 98.332C104.969 98.332 105.402 98.1387 105.734 97.752C106.07 97.3652 106.238 96.877 106.238 96.2871ZM111.652 99.1406C110.766 99.1406 110.057 98.8613 109.525 98.3027C108.998 97.7402 108.734 96.9961 108.734 96.0703C108.734 95.0625 109.01 94.2754 109.561 93.709C110.111 93.1426 110.855 92.8594 111.793 92.8594C112.688 92.8594 113.385 93.1348 113.885 93.6855C114.389 94.2363 114.641 95 114.641 95.9766C114.641 96.9336 114.369 97.7012 113.826 98.2793C113.287 98.8535 112.562 99.1406 111.652 99.1406ZM111.723 93.668C111.105 93.668 110.617 93.8789 110.258 94.3008C109.898 94.7188 109.719 95.2969 109.719 96.0352C109.719 96.7461 109.9 97.3066 110.264 97.7168C110.627 98.127 111.113 98.332 111.723 98.332C112.344 98.332 112.82 98.1309 113.152 97.7285C113.488 97.3262 113.656 96.7539 113.656 96.0117C113.656 95.2617 113.488 94.6836 113.152 94.2773C112.82 93.8711 112.344 93.668 111.723 93.668Z" fill="#020057"/>
</g>
<defs>
<filter id="filter0_dd_3871_164775" x="0.8" y="2.38419e-07" width="146.4" height="146.4" filterUnits="userSpaceOnUse" color-interpolation-filters="sRGB">
<feFlood flood-opacity="0" result="BackgroundImageFix"/>
<feColorMatrix in="SourceAlpha" type="matrix" values="0 0 0 0 0 0 0 0 0 0 0 0 0 0 0 0 0 0 127 0" result="hardAlpha"/>
<feOffset dy="3.2"/>
<feGaussianBlur stdDeviation="3.6"/>
<feColorMatrix type="matrix" values="0 0 0 0 0.513726 0 0 0 0 0.494118 0 0 0 0 1 0 0 0 0.12 0"/>
<feBlend mode="normal" in2="BackgroundImageFix" result="effect1_dropShadow_3871_164775"/>
<feColorMatrix in="SourceAlpha" type="matrix" values="0 0 0 0 0 0 0 0 0 0 0 0 0 0 0 0 0 0 127 0" result="hardAlpha"/>
<feOffset dy="0.6"/>
<feGaussianBlur stdDeviation="0.9"/>
<feColorMatrix type="matrix" values="0 0 0 0 0.513726 0 0 0 0 0.494118 0 0 0 0 1 0 0 0 0.1 0"/>
<feBlend mode="normal" in2="effect1_dropShadow_3871_164775" result="effect2_dropShadow_3871_164775"/>
<feBlend mode="normal" in="SourceGraphic" in2="effect2_dropShadow_3871_164775" result="shape"/>
</filter>
</defs>
</svg>
