<svg width="100%" viewBox="0 0 100 80" fill="none" xmlns="http://www.w3.org/2000/svg">
<rect width="100" height="80" fill="#FBFBFE"/>
<path d="M40.2197 10.2197C39.9534 10.4859 39.9292 10.9026 40.1471 11.1962L40.2197 11.2803L44.2542 15.3149C42.3322 16.6644 40.8958 18.6799 40.2989 21.0644C40.1983 21.4662 40.4425 21.8735 40.8443 21.9741C41.2461 22.0746 41.6534 21.8305 41.754 21.4286C42.2835 19.3135 43.5911 17.5395 45.3342 16.3945L47.1438 18.2043C46.4363 18.9258 46 19.9143 46 21.0046C46 23.2138 47.7909 25.0046 50 25.0046C51.0904 25.0046 52.0788 24.5683 52.8004 23.8608L58.7197 29.7803C59.0126 30.0732 59.4874 30.0732 59.7803 29.7803C60.0466 29.5141 60.0708 29.0974 59.8529 28.8038L59.7803 28.7197L53.6668 22.6055L53.668 22.604L52.4679 21.4061L49.598 18.5368L49.6 18.536L46.7188 15.6578L46.72 15.656L45.5867 14.5255L41.2803 10.2197C40.9874 9.92678 40.5126 9.92678 40.2197 10.2197ZM48.2041 19.2655L51.7392 22.8006C51.2892 23.2364 50.6759 23.5046 50 23.5046C48.6193 23.5046 47.5 22.3853 47.5 21.0046C47.5 20.3287 47.7682 19.7154 48.2041 19.2655ZM50 13.5C48.9997 13.5 48.0291 13.6481 47.1111 13.925L48.3481 15.1612C48.8839 15.0553 49.4364 15 50 15C53.9231 15 57.3099 17.6803 58.2471 21.4332C58.3475 21.835 58.7546 22.0794 59.1565 21.9791C59.5584 21.8787 59.8028 21.4716 59.7024 21.0697C58.5994 16.6527 54.6155 13.5 50 13.5ZM50.1947 17.0093L53.996 20.81C53.8942 18.7531 52.2472 17.1076 50.1947 17.0093Z" fill="#020057"/>
<path d="M23.3281 53.1406C22.1367 53.1406 21.1816 52.748 20.4629 51.9629C19.748 51.1777 19.3906 50.1562 19.3906 48.8984C19.3906 47.5469 19.7559 46.4688 20.4863 45.6641C21.2168 44.8594 22.2109 44.457 23.4688 44.457C24.6289 44.457 25.5625 44.8477 26.2695 45.6289C26.9805 46.4102 27.3359 47.4316 27.3359 48.6934C27.3359 50.0645 26.9727 51.1484 26.2461 51.9453C25.5195 52.7422 24.5469 53.1406 23.3281 53.1406ZM23.3984 45.3477C22.5156 45.3477 21.7988 45.666 21.248 46.3027C20.6973 46.9395 20.4219 47.7754 20.4219 48.8105C20.4219 49.8457 20.6895 50.6797 21.2246 51.3125C21.7637 51.9414 22.4648 52.2559 23.3281 52.2559C24.25 52.2559 24.9766 51.9551 25.5078 51.3535C26.0391 50.752 26.3047 49.9102 26.3047 48.8281C26.3047 47.7188 26.0469 46.8613 25.5312 46.2559C25.0156 45.6504 24.3047 45.3477 23.3984 45.3477ZM36.9746 50.2402H32.7383C32.7539 50.9082 32.9336 51.4238 33.2773 51.7871C33.6211 52.1504 34.0938 52.332 34.6953 52.332C35.3711 52.332 35.9922 52.1094 36.5586 51.6641V52.5664C36.0312 52.9492 35.334 53.1406 34.4668 53.1406C33.6191 53.1406 32.9531 52.8691 32.4688 52.3262C31.9844 51.7793 31.7422 51.0117 31.7422 50.0234C31.7422 49.0898 32.0059 48.3301 32.5332 47.7441C33.0645 47.1543 33.7227 46.8594 34.5078 46.8594C35.293 46.8594 35.9004 47.1133 36.3301 47.6211C36.7598 48.1289 36.9746 48.834 36.9746 49.7363V50.2402ZM35.9902 49.4258C35.9863 48.8711 35.8516 48.4395 35.5859 48.1309C35.3242 47.8223 34.959 47.668 34.4902 47.668C34.0371 47.668 33.6523 47.8301 33.3359 48.1543C33.0195 48.4785 32.8242 48.9023 32.75 49.4258H35.9902ZM39.3945 53H38.4336V44.1172H39.3945V53ZM46.1621 50.2402H41.9258C41.9414 50.9082 42.1211 51.4238 42.4648 51.7871C42.8086 52.1504 43.2812 52.332 43.8828 52.332C44.5586 52.332 45.1797 52.1094 45.7461 51.6641V52.5664C45.2188 52.9492 44.5215 53.1406 43.6543 53.1406C42.8066 53.1406 42.1406 52.8691 41.6562 52.3262C41.1719 51.7793 40.9297 51.0117 40.9297 50.0234C40.9297 49.0898 41.1934 48.3301 41.7207 47.7441C42.252 47.1543 42.9102 46.8594 43.6953 46.8594C44.4805 46.8594 45.0879 47.1133 45.5176 47.6211C45.9473 48.1289 46.1621 48.834 46.1621 49.7363V50.2402ZM45.1777 49.4258C45.1738 48.8711 45.0391 48.4395 44.7734 48.1309C44.5117 47.8223 44.1465 47.668 43.6777 47.668C43.2246 47.668 42.8398 47.8301 42.5234 48.1543C42.207 48.4785 42.0117 48.9023 41.9375 49.4258H45.1777ZM56.1406 53H55.1797V49.5547C55.1797 48.8906 55.0762 48.4102 54.8691 48.1133C54.666 47.8164 54.3223 47.668 53.8379 47.668C53.4277 47.668 53.0781 47.8555 52.7891 48.2305C52.5039 48.6055 52.3613 49.0547 52.3613 49.5781V53H51.4004V49.4375C51.4004 48.2578 50.9453 47.668 50.0352 47.668C49.6133 47.668 49.2656 47.8457 48.9922 48.2012C48.7188 48.5527 48.582 49.0117 48.582 49.5781V53H47.6211V47H48.582V47.9492H48.6055C49.0312 47.2227 49.6523 46.8594 50.4688 46.8594C50.8789 46.8594 51.2363 46.9746 51.541 47.2051C51.8457 47.4316 52.0547 47.7305 52.168 48.1016C52.6133 47.2734 53.2773 46.8594 54.1602 46.8594C55.4805 46.8594 56.1406 47.6738 56.1406 49.3027V53ZM62.7793 50.2402H58.543C58.5586 50.9082 58.7383 51.4238 59.082 51.7871C59.4258 52.1504 59.8984 52.332 60.5 52.332C61.1758 52.332 61.7969 52.1094 62.3633 51.6641V52.5664C61.8359 52.9492 61.1387 53.1406 60.2715 53.1406C59.4238 53.1406 58.7578 52.8691 58.2734 52.3262C57.7891 51.7793 57.5469 51.0117 57.5469 50.0234C57.5469 49.0898 57.8105 48.3301 58.3379 47.7441C58.8691 47.1543 59.5273 46.8594 60.3125 46.8594C61.0977 46.8594 61.7051 47.1133 62.1348 47.6211C62.5645 48.1289 62.7793 48.834 62.7793 49.7363V50.2402ZM61.7949 49.4258C61.791 48.8711 61.6562 48.4395 61.3906 48.1309C61.1289 47.8223 60.7637 47.668 60.2949 47.668C59.8418 47.668 59.457 47.8301 59.1406 48.1543C58.8242 48.4785 58.6289 48.9023 58.5547 49.4258H61.7949ZM69.2188 53H68.2578V49.5781C68.2578 48.3047 67.793 47.668 66.8633 47.668C66.3828 47.668 65.9844 47.8496 65.668 48.2129C65.3555 48.5723 65.1992 49.0273 65.1992 49.5781V53H64.2383V47H65.1992V47.9961H65.2227C65.6758 47.2383 66.332 46.8594 67.1914 46.8594C67.8477 46.8594 68.3496 47.0723 68.6973 47.498C69.0449 47.9199 69.2188 48.5312 69.2188 49.332V53ZM73.8184 52.9414C73.5918 53.0664 73.293 53.1289 72.9219 53.1289C71.8711 53.1289 71.3457 52.543 71.3457 51.3711V47.8203H70.3145V47H71.3457V45.5352L72.3066 45.2246V47H73.8184V47.8203H72.3066V51.2012C72.3066 51.6035 72.375 51.8906 72.5117 52.0625C72.6484 52.2344 72.875 52.3203 73.1914 52.3203C73.4336 52.3203 73.6426 52.2539 73.8184 52.1211V52.9414ZM77.6094 53.1406C76.7227 53.1406 76.0137 52.8613 75.4824 52.3027C74.9551 51.7402 74.6914 50.9961 74.6914 50.0703C74.6914 49.0625 74.9668 48.2754 75.5176 47.709C76.0684 47.1426 76.8125 46.8594 77.75 46.8594C78.6445 46.8594 79.3418 47.1348 79.8418 47.6855C80.3457 48.2363 80.5977 49 80.5977 49.9766C80.5977 50.9336 80.3262 51.7012 79.7832 52.2793C79.2441 52.8535 78.5195 53.1406 77.6094 53.1406ZM77.6797 47.668C77.0625 47.668 76.5742 47.8789 76.2148 48.3008C75.8555 48.7188 75.6758 49.2969 75.6758 50.0352C75.6758 50.7461 75.8574 51.3066 76.2207 51.7168C76.584 52.127 77.0703 52.332 77.6797 52.332C78.3008 52.332 78.7773 52.1309 79.1094 51.7285C79.4453 51.3262 79.6133 50.7539 79.6133 50.0117C79.6133 49.2617 79.4453 48.6836 79.1094 48.2773C78.7773 47.8711 78.3008 47.668 77.6797 47.668ZM14.5918 66.2402H10.3555C10.3711 66.9082 10.5508 67.4238 10.8945 67.7871C11.2383 68.1504 11.7109 68.332 12.3125 68.332C12.9883 68.332 13.6094 68.1094 14.1758 67.6641V68.5664C13.6484 68.9492 12.9512 69.1406 12.084 69.1406C11.2363 69.1406 10.5703 68.8691 10.0859 68.3262C9.60156 67.7793 9.35938 67.0117 9.35938 66.0234C9.35938 65.0898 9.62305 64.3301 10.1504 63.7441C10.6816 63.1543 11.3398 62.8594 12.125 62.8594C12.9102 62.8594 13.5176 63.1133 13.9473 63.6211C14.377 64.1289 14.5918 64.834 14.5918 65.7363V66.2402ZM13.6074 65.4258C13.6035 64.8711 13.4688 64.4395 13.2031 64.1309C12.9414 63.8223 12.5762 63.668 12.1074 63.668C11.6543 63.668 11.2695 63.8301 10.9531 64.1543C10.6367 64.4785 10.4414 64.9023 10.3672 65.4258H13.6074ZM15.6875 68.7832V67.752C16.2109 68.1387 16.7871 68.332 17.416 68.332C18.2598 68.332 18.6816 68.0508 18.6816 67.4883C18.6816 67.3281 18.6445 67.1934 18.5703 67.084C18.5 66.9707 18.4023 66.8711 18.2773 66.7852C18.1562 66.6992 18.0117 66.623 17.8438 66.5566C17.6797 66.4863 17.502 66.4141 17.3105 66.3398C17.0449 66.2344 16.8105 66.1289 16.6074 66.0234C16.4082 65.9141 16.2402 65.793 16.1035 65.6602C15.9707 65.5234 15.8691 65.3691 15.7988 65.1973C15.7324 65.0254 15.6992 64.8242 15.6992 64.5938C15.6992 64.3125 15.7637 64.0645 15.8926 63.8496C16.0215 63.6309 16.1934 63.4492 16.4082 63.3047C16.623 63.1562 16.8672 63.0449 17.1406 62.9707C17.418 62.8965 17.7031 62.8594 17.9961 62.8594C18.5156 62.8594 18.9805 62.9492 19.3906 63.1289V64.1016C18.9492 63.8125 18.4414 63.668 17.8672 63.668C17.6875 63.668 17.5254 63.6895 17.3809 63.7324C17.2363 63.7715 17.1113 63.8281 17.0059 63.9023C16.9043 63.9766 16.8242 64.0664 16.7656 64.1719C16.7109 64.2734 16.6836 64.3867 16.6836 64.5117C16.6836 64.668 16.7109 64.7988 16.7656 64.9043C16.8242 65.0098 16.9082 65.1035 17.0176 65.1855C17.127 65.2676 17.2598 65.3418 17.416 65.4082C17.5723 65.4746 17.75 65.5469 17.9492 65.625C18.2148 65.7266 18.4531 65.832 18.6641 65.9414C18.875 66.0469 19.0547 66.168 19.2031 66.3047C19.3516 66.4375 19.4648 66.5918 19.543 66.7676C19.625 66.9434 19.666 67.1523 19.666 67.3945C19.666 67.6914 19.5996 67.9492 19.4668 68.168C19.3379 68.3867 19.1641 68.5684 18.9453 68.7129C18.7266 68.8574 18.4746 68.9648 18.1895 69.0352C17.9043 69.1055 17.6055 69.1406 17.293 69.1406C16.6758 69.1406 16.1406 69.0215 15.6875 68.7832ZM23.9316 68.9414C23.7051 69.0664 23.4062 69.1289 23.0352 69.1289C21.9844 69.1289 21.459 68.543 21.459 67.3711V63.8203H20.4277V63H21.459V61.5352L22.4199 61.2246V63H23.9316V63.8203H22.4199V67.2012C22.4199 67.6035 22.4883 67.8906 22.625 68.0625C22.7617 68.2344 22.9883 68.3203 23.3047 68.3203C23.5469 68.3203 23.7559 68.2539 23.9316 68.1211V68.9414ZM29.5098 69H28.5488V68.0625H28.5254C28.1074 68.7812 27.4922 69.1406 26.6797 69.1406C26.082 69.1406 25.6133 68.9824 25.2734 68.666C24.9375 68.3496 24.7695 67.9297 24.7695 67.4062C24.7695 66.2852 25.4297 65.6328 26.75 65.4492L28.5488 65.1973C28.5488 64.1777 28.1367 63.668 27.3125 63.668C26.5898 63.668 25.9375 63.9141 25.3555 64.4062V63.4219C25.9453 63.0469 26.625 62.8594 27.3945 62.8594C28.8047 62.8594 29.5098 63.6055 29.5098 65.0977V69ZM28.5488 65.9648L27.1016 66.1641C26.6562 66.2266 26.3203 66.3379 26.0938 66.498C25.8672 66.6543 25.7539 66.9336 25.7539 67.3359C25.7539 67.6289 25.8574 67.8691 26.0645 68.0566C26.2754 68.2402 26.5547 68.332 26.9023 68.332C27.3789 68.332 27.7715 68.166 28.0801 67.834C28.3926 67.498 28.5488 67.0742 28.5488 66.5625V65.9648ZM28.6777 59.9414L27.1426 61.8633H26.3984L27.7051 59.9414H28.6777ZM43.1328 69H42.1719V65.5547C42.1719 64.8906 42.0684 64.4102 41.8613 64.1133C41.6582 63.8164 41.3145 63.668 40.8301 63.668C40.4199 63.668 40.0703 63.8555 39.7812 64.2305C39.4961 64.6055 39.3535 65.0547 39.3535 65.5781V69H38.3926V65.4375C38.3926 64.2578 37.9375 63.668 37.0273 63.668C36.6055 63.668 36.2578 63.8457 35.9844 64.2012C35.7109 64.5527 35.5742 65.0117 35.5742 65.5781V69H34.6133V63H35.5742V63.9492H35.5977C36.0234 63.2227 36.6445 62.8594 37.4609 62.8594C37.8711 62.8594 38.2285 62.9746 38.5332 63.2051C38.8379 63.4316 39.0469 63.7305 39.1602 64.1016C39.6055 63.2734 40.2695 62.8594 41.1523 62.8594C42.4727 62.8594 43.1328 63.6738 43.1328 65.3027V69ZM49.2441 69H48.2832V68.0625H48.2598C47.8418 68.7812 47.2266 69.1406 46.4141 69.1406C45.8164 69.1406 45.3477 68.9824 45.0078 68.666C44.6719 68.3496 44.5039 67.9297 44.5039 67.4062C44.5039 66.2852 45.1641 65.6328 46.4844 65.4492L48.2832 65.1973C48.2832 64.1777 47.8711 63.668 47.0469 63.668C46.3242 63.668 45.6719 63.9141 45.0898 64.4062V63.4219C45.6797 63.0469 46.3594 62.8594 47.1289 62.8594C48.5391 62.8594 49.2441 63.6055 49.2441 65.0977V69ZM48.2832 65.9648L46.8359 66.1641C46.3906 66.2266 46.0547 66.3379 45.8281 66.498C45.6016 66.6543 45.4883 66.9336 45.4883 67.3359C45.4883 67.6289 45.5918 67.8691 45.7988 68.0566C46.0098 68.2402 46.2891 68.332 46.6367 68.332C47.1133 68.332 47.5059 68.166 47.8145 67.834C48.127 67.498 48.2832 67.0742 48.2832 66.5625V65.9648ZM50.6914 68.7832V67.752C51.2148 68.1387 51.791 68.332 52.4199 68.332C53.2637 68.332 53.6855 68.0508 53.6855 67.4883C53.6855 67.3281 53.6484 67.1934 53.5742 67.084C53.5039 66.9707 53.4062 66.8711 53.2812 66.7852C53.1602 66.6992 53.0156 66.623 52.8477 66.5566C52.6836 66.4863 52.5059 66.4141 52.3145 66.3398C52.0488 66.2344 51.8145 66.1289 51.6113 66.0234C51.4121 65.9141 51.2441 65.793 51.1074 65.6602C50.9746 65.5234 50.873 65.3691 50.8027 65.1973C50.7363 65.0254 50.7031 64.8242 50.7031 64.5938C50.7031 64.3125 50.7676 64.0645 50.8965 63.8496C51.0254 63.6309 51.1973 63.4492 51.4121 63.3047C51.627 63.1562 51.8711 63.0449 52.1445 62.9707C52.4219 62.8965 52.707 62.8594 53 62.8594C53.5195 62.8594 53.9844 62.9492 54.3945 63.1289V64.1016C53.9531 63.8125 53.4453 63.668 52.8711 63.668C52.6914 63.668 52.5293 63.6895 52.3848 63.7324C52.2402 63.7715 52.1152 63.8281 52.0098 63.9023C51.9082 63.9766 51.8281 64.0664 51.7695 64.1719C51.7148 64.2734 51.6875 64.3867 51.6875 64.5117C51.6875 64.668 51.7148 64.7988 51.7695 64.9043C51.8281 65.0098 51.9121 65.1035 52.0215 65.1855C52.1309 65.2676 52.2637 65.3418 52.4199 65.4082C52.5762 65.4746 52.7539 65.5469 52.9531 65.625C53.2188 65.7266 53.457 65.832 53.668 65.9414C53.8789 66.0469 54.0586 66.168 54.207 66.3047C54.3555 66.4375 54.4688 66.5918 54.5469 66.7676C54.6289 66.9434 54.6699 67.1523 54.6699 67.3945C54.6699 67.6914 54.6035 67.9492 54.4707 68.168C54.3418 68.3867 54.168 68.5684 53.9492 68.7129C53.7305 68.8574 53.4785 68.9648 53.1934 69.0352C52.9082 69.1055 52.6094 69.1406 52.2969 69.1406C51.6797 69.1406 51.1445 69.0215 50.6914 68.7832ZM60.2422 68.7246C59.7812 69.002 59.2344 69.1406 58.6016 69.1406C57.7461 69.1406 57.0547 68.8633 56.5273 68.3086C56.0039 67.75 55.7422 67.0273 55.7422 66.1406C55.7422 65.1523 56.0254 64.3594 56.5918 63.7617C57.1582 63.1602 57.9141 62.8594 58.8594 62.8594C59.3867 62.8594 59.8516 62.957 60.2539 63.1523V64.1367C59.8086 63.8242 59.332 63.668 58.8242 63.668C58.2109 63.668 57.707 63.8887 57.3125 64.3301C56.9219 64.7676 56.7266 65.3438 56.7266 66.0586C56.7266 66.7617 56.9102 67.3164 57.2773 67.7227C57.6484 68.1289 58.1445 68.332 58.7656 68.332C59.2891 68.332 59.7812 68.1582 60.2422 67.8105V68.7246ZM65.9902 69H65.0293V68.0625H65.0059C64.5879 68.7812 63.9727 69.1406 63.1602 69.1406C62.5625 69.1406 62.0938 68.9824 61.7539 68.666C61.418 68.3496 61.25 67.9297 61.25 67.4062C61.25 66.2852 61.9102 65.6328 63.2305 65.4492L65.0293 65.1973C65.0293 64.1777 64.6172 63.668 63.793 63.668C63.0703 63.668 62.418 63.9141 61.8359 64.4062V63.4219C62.4258 63.0469 63.1055 62.8594 63.875 62.8594C65.2852 62.8594 65.9902 63.6055 65.9902 65.0977V69ZM65.0293 65.9648L63.582 66.1641C63.1367 66.2266 62.8008 66.3379 62.5742 66.498C62.3477 66.6543 62.2344 66.9336 62.2344 67.3359C62.2344 67.6289 62.3379 67.8691 62.5449 68.0566C62.7559 68.2402 63.0352 68.332 63.3828 68.332C63.8594 68.332 64.252 68.166 64.5605 67.834C64.873 67.498 65.0293 67.0742 65.0293 66.5625V65.9648ZM70.9297 63.9727C70.7617 63.8438 70.5195 63.7793 70.2031 63.7793C69.793 63.7793 69.4492 63.9727 69.1719 64.3594C68.8984 64.7461 68.7617 65.2734 68.7617 65.9414V69H67.8008V63H68.7617V64.2363H68.7852C68.9219 63.8145 69.1309 63.4863 69.4121 63.252C69.6934 63.0137 70.0078 62.8945 70.3555 62.8945C70.6055 62.8945 70.7969 62.9219 70.9297 62.9766V63.9727ZM76.2676 69H75.3066V68.0625H75.2832C74.8652 68.7812 74.25 69.1406 73.4375 69.1406C72.8398 69.1406 72.3711 68.9824 72.0312 68.666C71.6953 68.3496 71.5273 67.9297 71.5273 67.4062C71.5273 66.2852 72.1875 65.6328 73.5078 65.4492L75.3066 65.1973C75.3066 64.1777 74.8945 63.668 74.0703 63.668C73.3477 63.668 72.6953 63.9141 72.1133 64.4062V63.4219C72.7031 63.0469 73.3828 62.8594 74.1523 62.8594C75.5625 62.8594 76.2676 63.6055 76.2676 65.0977V69ZM75.3066 65.9648L73.8594 66.1641C73.4141 66.2266 73.0781 66.3379 72.8516 66.498C72.625 66.6543 72.5117 66.9336 72.5117 67.3359C72.5117 67.6289 72.6152 67.8691 72.8223 68.0566C73.0332 68.2402 73.3125 68.332 73.6602 68.332C74.1367 68.332 74.5293 68.166 74.8379 67.834C75.1504 67.498 75.3066 67.0742 75.3066 66.5625V65.9648ZM83.1992 69H82.2383V67.9805H82.2148C81.7695 68.7539 81.082 69.1406 80.1523 69.1406C79.3984 69.1406 78.7949 68.873 78.3418 68.3379C77.8926 67.7988 77.668 67.0664 77.668 66.1406C77.668 65.1484 77.918 64.3535 78.418 63.7559C78.918 63.1582 79.584 62.8594 80.416 62.8594C81.2402 62.8594 81.8398 63.1836 82.2148 63.832H82.2383V60.1172H83.1992V69ZM82.2383 66.2871V65.4023C82.2383 64.918 82.0781 64.5078 81.7578 64.1719C81.4375 63.8359 81.0312 63.668 80.5391 63.668C79.9531 63.668 79.4922 63.8828 79.1562 64.3125C78.8203 64.7422 78.6523 65.3359 78.6523 66.0938C78.6523 66.7852 78.8125 67.332 79.1328 67.7344C79.457 68.1328 79.8906 68.332 80.4336 68.332C80.9688 68.332 81.4023 68.1387 81.7344 67.752C82.0703 67.3652 82.2383 66.877 82.2383 66.2871ZM87.6523 69.1406C86.7656 69.1406 86.0566 68.8613 85.5254 68.3027C84.998 67.7402 84.7344 66.9961 84.7344 66.0703C84.7344 65.0625 85.0098 64.2754 85.5605 63.709C86.1113 63.1426 86.8555 62.8594 87.793 62.8594C88.6875 62.8594 89.3848 63.1348 89.8848 63.6855C90.3887 64.2363 90.6406 65 90.6406 65.9766C90.6406 66.9336 90.3691 67.7012 89.8262 68.2793C89.2871 68.8535 88.5625 69.1406 87.6523 69.1406ZM87.7227 63.668C87.1055 63.668 86.6172 63.8789 86.2578 64.3008C85.8984 64.7188 85.7188 65.2969 85.7188 66.0352C85.7188 66.7461 85.9004 67.3066 86.2637 67.7168C86.627 68.127 87.1133 68.332 87.7227 68.332C88.3438 68.332 88.8203 68.1309 89.1523 67.7285C89.4883 67.3262 89.6562 66.7539 89.6562 66.0117C89.6562 65.2617 89.4883 64.6836 89.1523 64.2773C88.8203 63.8711 88.3438 63.668 87.7227 63.668Z" fill="#020057"/>
</svg>
