<svg width="100" height="80" viewBox="0 0 100 80" fill="none" xmlns="http://www.w3.org/2000/svg">
<rect width="100" height="80" fill="#FBFBFE"/>
<path d="M40.2197 10.2197C39.9534 10.4859 39.9292 10.9026 40.1471 11.1962L40.2197 11.2803L44.2542 15.3149C42.3322 16.6644 40.8958 18.6799 40.2989 21.0644C40.1983 21.4662 40.4425 21.8735 40.8443 21.9741C41.2461 22.0746 41.6534 21.8305 41.754 21.4286C42.2835 19.3135 43.5911 17.5395 45.3342 16.3945L47.1438 18.2043C46.4363 18.9258 46 19.9143 46 21.0046C46 23.2138 47.7909 25.0046 50 25.0046C51.0904 25.0046 52.0788 24.5683 52.8004 23.8608L58.7197 29.7803C59.0126 30.0732 59.4874 30.0732 59.7803 29.7803C60.0466 29.5141 60.0708 29.0974 59.8529 28.8038L59.7803 28.7197L53.6668 22.6055L53.668 22.604L52.4679 21.4061L49.598 18.5368L49.6 18.536L46.7188 15.6578L46.72 15.656L45.5867 14.5255L41.2803 10.2197C40.9874 9.92678 40.5126 9.92678 40.2197 10.2197ZM48.2041 19.2655L51.7392 22.8006C51.2892 23.2364 50.6759 23.5046 50 23.5046C48.6193 23.5046 47.5 22.3853 47.5 21.0046C47.5 20.3287 47.7682 19.7154 48.2041 19.2655ZM50 13.5C48.9997 13.5 48.0291 13.6481 47.1111 13.925L48.3481 15.1612C48.8839 15.0553 49.4364 15 50 15C53.9231 15 57.3099 17.6803 58.2471 21.4332C58.3475 21.835 58.7546 22.0794 59.1565 21.9791C59.5584 21.8787 59.8028 21.4716 59.7024 21.0697C58.5994 16.6527 54.6155 13.5 50 13.5ZM50.1947 17.0093L53.996 20.81C53.8942 18.7531 52.2472 17.1076 50.1947 17.0093Z" fill="#020057"/>
<path d="M27.3301 52.6484V51.6934C27.9434 52.0684 28.6895 52.2559 29.5684 52.2559C30.4043 52.2559 31.0879 51.9922 31.6191 51.4648C32.1543 50.9336 32.4531 50.1973 32.5156 49.2559H28.7949V48.3711H32.5039C32.4023 47.4141 32.0859 46.6719 31.5547 46.1445C31.0273 45.6133 30.3398 45.3477 29.4922 45.3477C28.6992 45.3477 27.9785 45.5156 27.3301 45.8516V44.8203C27.9316 44.5781 28.6523 44.457 29.4922 44.457C30.6992 44.457 31.6797 44.8633 32.4336 45.6758C33.1875 46.4844 33.5645 47.5664 33.5645 48.9219C33.5645 50.168 33.2012 51.1836 32.4746 51.9688C31.752 52.75 30.7988 53.1406 29.6152 53.1406C28.7129 53.1406 27.9512 52.9766 27.3301 52.6484ZM39.4648 53H38.5098V47.8145H37.1152C36.9551 49.7559 36.6797 51.1191 36.2891 51.9043C35.9023 52.6895 35.3809 53.082 34.7246 53.082C34.5254 53.082 34.3535 53.0547 34.209 53V52.1738C34.3457 52.2441 34.4941 52.2793 34.6543 52.2793C35.5137 52.2793 36.0664 50.5195 36.3125 47H39.4648V53ZM46.2383 50.2402H42.002C42.0176 50.9082 42.1973 51.4238 42.541 51.7871C42.8848 52.1504 43.3574 52.332 43.959 52.332C44.6348 52.332 45.2559 52.1094 45.8223 51.6641V52.5664C45.2949 52.9492 44.5977 53.1406 43.7305 53.1406C42.8828 53.1406 42.2168 52.8691 41.7324 52.3262C41.248 51.7793 41.0059 51.0117 41.0059 50.0234C41.0059 49.0898 41.2695 48.3301 41.7969 47.7441C42.3281 47.1543 42.9863 46.8594 43.7715 46.8594C44.5566 46.8594 45.1641 47.1133 45.5938 47.6211C46.0234 48.1289 46.2383 48.834 46.2383 49.7363V50.2402ZM45.2539 49.4258C45.25 48.8711 45.1152 48.4395 44.8496 48.1309C44.5879 47.8223 44.2227 47.668 43.7539 47.668C43.3008 47.668 42.916 47.8301 42.5996 48.1543C42.2832 48.4785 42.0879 48.9023 42.0137 49.4258H45.2539ZM54.1777 53H53.2285V48.0547C53.1426 48.3047 53.0098 48.6719 52.8301 49.1562L51.3301 53H50.4688L48.9219 49.1562C48.8398 48.9492 48.707 48.582 48.5234 48.0547V53H47.6973V47H48.9219L50.5039 50.9141C50.6172 51.1992 50.7617 51.5938 50.9375 52.0977L51.3652 50.9375L52.9004 47H54.1777V53ZM60.9453 50.2402H56.709C56.7246 50.9082 56.9043 51.4238 57.248 51.7871C57.5918 52.1504 58.0645 52.332 58.666 52.332C59.3418 52.332 59.9629 52.1094 60.5293 51.6641V52.5664C60.002 52.9492 59.3047 53.1406 58.4375 53.1406C57.5898 53.1406 56.9238 52.8691 56.4395 52.3262C55.9551 51.7793 55.7129 51.0117 55.7129 50.0234C55.7129 49.0898 55.9766 48.3301 56.5039 47.7441C57.0352 47.1543 57.6934 46.8594 58.4785 46.8594C59.2637 46.8594 59.8711 47.1133 60.3008 47.6211C60.7305 48.1289 60.9453 48.834 60.9453 49.7363V50.2402ZM59.9609 49.4258C59.957 48.8711 59.8223 48.4395 59.5566 48.1309C59.2949 47.8223 58.9297 47.668 58.4609 47.668C58.0078 47.668 57.623 47.8301 57.3066 48.1543C56.9902 48.4785 56.7949 48.9023 56.7207 49.4258H59.9609ZM67.3848 53H66.4238V50.2754H63.3652V53H62.4043V47H63.3652V49.4609H66.4238V47H67.3848V53ZM73.0977 47.8203H71.2988V53H70.3379V47.8203H68.5332V47H73.0977V47.8203ZM11.4922 68.8301V67.8867C12.0156 68.1797 12.627 68.3262 13.3262 68.3262C14.3848 68.3262 14.9141 67.9902 14.9141 67.3184C14.9141 66.6543 14.334 66.3223 13.1738 66.3223H12.582V65.5078H13.1445C14.1641 65.5078 14.6738 65.1914 14.6738 64.5586C14.6738 64.2891 14.5566 64.0742 14.3223 63.9141C14.0879 63.7539 13.7676 63.6738 13.3613 63.6738C12.7793 63.6738 12.1953 63.8203 11.6094 64.1133V63.2168C12.2734 62.9746 12.8828 62.8535 13.4375 62.8535C14.8984 62.8535 15.6289 63.3906 15.6289 64.4648C15.6289 64.8125 15.5195 65.1133 15.3008 65.3672C15.0859 65.6172 14.7832 65.7832 14.3926 65.8652V65.8945C14.8379 65.9297 15.1953 66.0801 15.4648 66.3457C15.7344 66.6113 15.8691 66.9473 15.8691 67.3535C15.8691 67.9004 15.6484 68.3359 15.207 68.6602C14.7656 68.9844 14.1582 69.1465 13.3848 69.1465C12.5605 69.1465 11.9297 69.041 11.4922 68.8301ZM21.6465 69H20.6855V68.0625H20.6621C20.2441 68.7812 19.6289 69.1406 18.8164 69.1406C18.2188 69.1406 17.75 68.9824 17.4102 68.666C17.0742 68.3496 16.9062 67.9297 16.9062 67.4062C16.9062 66.2852 17.5664 65.6328 18.8867 65.4492L20.6855 65.1973C20.6855 64.1777 20.2734 63.668 19.4492 63.668C18.7266 63.668 18.0742 63.9141 17.4922 64.4062V63.4219C18.082 63.0469 18.7617 62.8594 19.5312 62.8594C20.9414 62.8594 21.6465 63.6055 21.6465 65.0977V69ZM20.6855 65.9648L19.2383 66.1641C18.793 66.2266 18.457 66.3379 18.2305 66.498C18.0039 66.6543 17.8906 66.9336 17.8906 67.3359C17.8906 67.6289 17.9941 67.8691 18.2012 68.0566C18.4121 68.2402 18.6914 68.332 19.0391 68.332C19.5156 68.332 19.9082 68.166 20.2168 67.834C20.5293 67.498 20.6855 67.0742 20.6855 66.5625V65.9648ZM29.9375 69H28.9883V64.0547C28.9023 64.3047 28.7695 64.6719 28.5898 65.1562L27.0898 69H26.2285L24.6816 65.1562C24.5996 64.9492 24.4668 64.582 24.2832 64.0547V69H23.457V63H24.6816L26.2637 66.9141C26.377 67.1992 26.5215 67.5938 26.6973 68.0977L27.125 66.9375L28.6602 63H29.9375V69ZM36.1777 69H35.2168V68.0625H35.1934C34.7754 68.7812 34.1602 69.1406 33.3477 69.1406C32.75 69.1406 32.2812 68.9824 31.9414 68.666C31.6055 68.3496 31.4375 67.9297 31.4375 67.4062C31.4375 66.2852 32.0977 65.6328 33.418 65.4492L35.2168 65.1973C35.2168 64.1777 34.8047 63.668 33.9805 63.668C33.2578 63.668 32.6055 63.9141 32.0234 64.4062V63.4219C32.6133 63.0469 33.293 62.8594 34.0625 62.8594C35.4727 62.8594 36.1777 63.6055 36.1777 65.0977V69ZM35.2168 65.9648L33.7695 66.1641C33.3242 66.2266 32.9883 66.3379 32.7617 66.498C32.5352 66.6543 32.4219 66.9336 32.4219 67.3359C32.4219 67.6289 32.5254 67.8691 32.7324 68.0566C32.9434 68.2402 33.2227 68.332 33.5703 68.332C34.0469 68.332 34.4395 68.166 34.748 67.834C35.0605 67.498 35.2168 67.0742 35.2168 66.5625V65.9648ZM42.0781 68.7246C41.6172 69.002 41.0703 69.1406 40.4375 69.1406C39.582 69.1406 38.8906 68.8633 38.3633 68.3086C37.8398 67.75 37.5781 67.0273 37.5781 66.1406C37.5781 65.1523 37.8613 64.3594 38.4277 63.7617C38.9941 63.1602 39.75 62.8594 40.6953 62.8594C41.2227 62.8594 41.6875 62.957 42.0898 63.1523V64.1367C41.6445 63.8242 41.168 63.668 40.6602 63.668C40.0469 63.668 39.543 63.8887 39.1484 64.3301C38.7578 64.7676 38.5625 65.3438 38.5625 66.0586C38.5625 66.7617 38.7461 67.3164 39.1133 67.7227C39.4844 68.1289 39.9805 68.332 40.6016 68.332C41.125 68.332 41.6172 68.1582 42.0781 67.8105V68.7246ZM48.5117 69H47.1641L44.5156 66.1172H44.4922V69H43.5312V63H44.4922V65.748H44.5156L47.0352 63H48.2949L45.5117 65.8945L48.5117 69ZM54.5234 69H53.6562V64.2129C53.5703 64.3809 53.4395 64.6172 53.2637 64.9219L50.4922 69H49.4961V63H50.375V67.7285C50.4219 67.6152 50.5234 67.4219 50.6797 67.1484L53.5273 63H54.5234V69ZM57.4531 68.1328H57.4297V71.7598H56.4688V63H57.4297V64.0547H57.4531C57.9258 63.2578 58.6172 62.8594 59.5273 62.8594C60.3008 62.8594 60.9043 63.1289 61.3379 63.668C61.7715 64.2031 61.9883 64.9219 61.9883 65.8242C61.9883 66.8281 61.7441 67.6328 61.2559 68.2383C60.7676 68.8398 60.0996 69.1406 59.252 69.1406C58.4746 69.1406 57.875 68.8047 57.4531 68.1328ZM57.4297 65.7129V66.5508C57.4297 67.0469 57.5898 67.4688 57.9102 67.8164C58.2344 68.1602 58.6445 68.332 59.1406 68.332C59.7227 68.332 60.1777 68.1094 60.5059 67.6641C60.8379 67.2188 61.0039 66.5996 61.0039 65.8066C61.0039 65.1387 60.8496 64.6152 60.541 64.2363C60.2324 63.8574 59.8145 63.668 59.2871 63.668C58.7285 63.668 58.2793 63.8633 57.9395 64.2539C57.5996 64.6406 57.4297 65.127 57.4297 65.7129ZM66.0312 69.1406C65.1445 69.1406 64.4355 68.8613 63.9043 68.3027C63.377 67.7402 63.1133 66.9961 63.1133 66.0703C63.1133 65.0625 63.3887 64.2754 63.9395 63.709C64.4902 63.1426 65.2344 62.8594 66.1719 62.8594C67.0664 62.8594 67.7637 63.1348 68.2637 63.6855C68.7676 64.2363 69.0195 65 69.0195 65.9766C69.0195 66.9336 68.748 67.7012 68.2051 68.2793C67.666 68.8535 66.9414 69.1406 66.0312 69.1406ZM66.1016 63.668C65.4844 63.668 64.9961 63.8789 64.6367 64.3008C64.2773 64.7188 64.0977 65.2969 64.0977 66.0352C64.0977 66.7461 64.2793 67.3066 64.6426 67.7168C65.0059 68.127 65.4922 68.332 66.1016 68.332C66.7227 68.332 67.1992 68.1309 67.5312 67.7285C67.8672 67.3262 68.0352 66.7539 68.0352 66.0117C68.0352 65.2617 67.8672 64.6836 67.5312 64.2773C67.1992 63.8711 66.7227 63.668 66.1016 63.668ZM70.5547 69V63H73.168C73.7578 63 74.2227 63.1309 74.5625 63.3926C74.9062 63.6543 75.0781 64.0117 75.0781 64.4648C75.0781 65.2422 74.6953 65.7148 73.9297 65.8828C74.8477 66 75.3066 66.4629 75.3066 67.2715C75.3066 67.7598 75.1172 68.1699 74.7383 68.502C74.3633 68.834 73.8965 69 73.3379 69H70.5547ZM71.5156 63.8203V65.5078H72.957C73.7305 65.5078 74.1172 65.207 74.1172 64.6055C74.1172 64.082 73.7695 63.8203 73.0742 63.8203H71.5156ZM71.5156 66.3281V68.1797H73.1797C73.957 68.1797 74.3457 67.8652 74.3457 67.2363C74.3457 66.6309 73.9102 66.3281 73.0391 66.3281H71.5156ZM81.2129 69H80.252V68.0625H80.2285C79.8105 68.7812 79.1953 69.1406 78.3828 69.1406C77.7852 69.1406 77.3164 68.9824 76.9766 68.666C76.6406 68.3496 76.4727 67.9297 76.4727 67.4062C76.4727 66.2852 77.1328 65.6328 78.4531 65.4492L80.252 65.1973C80.252 64.1777 79.8398 63.668 79.0156 63.668C78.293 63.668 77.6406 63.9141 77.0586 64.4062V63.4219C77.6484 63.0469 78.3281 62.8594 79.0977 62.8594C80.5078 62.8594 81.2129 63.6055 81.2129 65.0977V69ZM80.252 65.9648L78.8047 66.1641C78.3594 66.2266 78.0234 66.3379 77.7969 66.498C77.5703 66.6543 77.457 66.9336 77.457 67.3359C77.457 67.6289 77.5605 67.8691 77.7676 68.0566C77.9785 68.2402 78.2578 68.332 78.6055 68.332C79.082 68.332 79.4746 68.166 79.7832 67.834C80.0957 67.498 80.252 67.0742 80.252 66.5625V65.9648ZM88.0039 69H87.043V66.2754H83.9844V69H83.0234V63H83.9844V65.4609H87.043V63H88.0039V69Z" fill="#020057"/>
</svg>
