<svg width="100%" viewBox="0 0 148 147" fill="none" xmlns="http://www.w3.org/2000/svg">
<g filter="url(#filter0_dd_3871_164780)">
<rect x="8" y="4" width="132" height="132" fill="#FBFBFE"/>
<rect x="8.5" y="4.5" width="131" height="131" stroke="#827DFF" stroke-dasharray="4 4"/>
<rect width="100" height="80" transform="translate(24 30)" fill="#FBFBFE"/>
<path d="M64.2197 40.2197C63.9534 40.4859 63.9292 40.9026 64.1471 41.1962L64.2197 41.2803L68.2542 45.3149C66.3322 46.6644 64.8958 48.6799 64.2989 51.0644C64.1983 51.4662 64.4425 51.8735 64.8443 51.9741C65.2461 52.0746 65.6534 51.8305 65.754 51.4286C66.2835 49.3135 67.5911 47.5395 69.3342 46.3945L71.1438 48.2043C70.4363 48.9258 70 49.9143 70 51.0046C70 53.2138 71.7909 55.0046 74 55.0046C75.0904 55.0046 76.0788 54.5683 76.8004 53.8608L82.7197 59.7803C83.0126 60.0732 83.4874 60.0732 83.7803 59.7803C84.0466 59.5141 84.0708 59.0974 83.8529 58.8038L83.7803 58.7197L77.6668 52.6055L77.668 52.604L76.4679 51.4061L73.598 48.5368L73.6 48.536L70.7188 45.6578L70.72 45.656L69.5867 44.5255L65.2803 40.2197C64.9874 39.9268 64.5126 39.9268 64.2197 40.2197ZM72.2041 49.2655L75.7392 52.8006C75.2892 53.2364 74.6759 53.5046 74 53.5046C72.6193 53.5046 71.5 52.3853 71.5 51.0046C71.5 50.3287 71.7682 49.7154 72.2041 49.2655ZM74 43.5C72.9997 43.5 72.0291 43.6481 71.1111 43.925L72.3481 45.1612C72.8839 45.0553 73.4364 45 74 45C77.9231 45 81.3099 47.6803 82.2471 51.4332C82.3475 51.835 82.7546 52.0794 83.1565 51.9791C83.5584 51.8787 83.8028 51.4716 83.7024 51.0697C82.5994 46.6527 78.6155 43.5 74 43.5ZM74.1947 47.0093L77.996 50.81C77.8942 48.7531 76.2472 47.1076 74.1947 47.0093Z" fill="#020057"/>
<path d="M51.3301 82.6484V81.6934C51.9434 82.0684 52.6895 82.2559 53.5684 82.2559C54.4043 82.2559 55.0879 81.9922 55.6191 81.4648C56.1543 80.9336 56.4531 80.1973 56.5156 79.2559H52.7949V78.3711H56.5039C56.4023 77.4141 56.0859 76.6719 55.5547 76.1445C55.0273 75.6133 54.3398 75.3477 53.4922 75.3477C52.6992 75.3477 51.9785 75.5156 51.3301 75.8516V74.8203C51.9316 74.5781 52.6523 74.457 53.4922 74.457C54.6992 74.457 55.6797 74.8633 56.4336 75.6758C57.1875 76.4844 57.5645 77.5664 57.5645 78.9219C57.5645 80.168 57.2012 81.1836 56.4746 81.9688C55.752 82.75 54.7988 83.1406 53.6152 83.1406C52.7129 83.1406 51.9512 82.9766 51.3301 82.6484ZM63.4648 83H62.5098V77.8145H61.1152C60.9551 79.7559 60.6797 81.1191 60.2891 81.9043C59.9023 82.6895 59.3809 83.082 58.7246 83.082C58.5254 83.082 58.3535 83.0547 58.209 83V82.1738C58.3457 82.2441 58.4941 82.2793 58.6543 82.2793C59.5137 82.2793 60.0664 80.5195 60.3125 77H63.4648V83ZM70.2383 80.2402H66.002C66.0176 80.9082 66.1973 81.4238 66.541 81.7871C66.8848 82.1504 67.3574 82.332 67.959 82.332C68.6348 82.332 69.2559 82.1094 69.8223 81.6641V82.5664C69.2949 82.9492 68.5977 83.1406 67.7305 83.1406C66.8828 83.1406 66.2168 82.8691 65.7324 82.3262C65.248 81.7793 65.0059 81.0117 65.0059 80.0234C65.0059 79.0898 65.2695 78.3301 65.7969 77.7441C66.3281 77.1543 66.9863 76.8594 67.7715 76.8594C68.5566 76.8594 69.1641 77.1133 69.5938 77.6211C70.0234 78.1289 70.2383 78.834 70.2383 79.7363V80.2402ZM69.2539 79.4258C69.25 78.8711 69.1152 78.4395 68.8496 78.1309C68.5879 77.8223 68.2227 77.668 67.7539 77.668C67.3008 77.668 66.916 77.8301 66.5996 78.1543C66.2832 78.4785 66.0879 78.9023 66.0137 79.4258H69.2539ZM78.1777 83H77.2285V78.0547C77.1426 78.3047 77.0098 78.6719 76.8301 79.1562L75.3301 83H74.4688L72.9219 79.1562C72.8398 78.9492 72.707 78.582 72.5234 78.0547V83H71.6973V77H72.9219L74.5039 80.9141C74.6172 81.1992 74.7617 81.5938 74.9375 82.0977L75.3652 80.9375L76.9004 77H78.1777V83ZM84.9453 80.2402H80.709C80.7246 80.9082 80.9043 81.4238 81.248 81.7871C81.5918 82.1504 82.0645 82.332 82.666 82.332C83.3418 82.332 83.9629 82.1094 84.5293 81.6641V82.5664C84.002 82.9492 83.3047 83.1406 82.4375 83.1406C81.5898 83.1406 80.9238 82.8691 80.4395 82.3262C79.9551 81.7793 79.7129 81.0117 79.7129 80.0234C79.7129 79.0898 79.9766 78.3301 80.5039 77.7441C81.0352 77.1543 81.6934 76.8594 82.4785 76.8594C83.2637 76.8594 83.8711 77.1133 84.3008 77.6211C84.7305 78.1289 84.9453 78.834 84.9453 79.7363V80.2402ZM83.9609 79.4258C83.957 78.8711 83.8223 78.4395 83.5566 78.1309C83.2949 77.8223 82.9297 77.668 82.4609 77.668C82.0078 77.668 81.623 77.8301 81.3066 78.1543C80.9902 78.4785 80.7949 78.9023 80.7207 79.4258H83.9609ZM91.3848 83H90.4238V80.2754H87.3652V83H86.4043V77H87.3652V79.4609H90.4238V77H91.3848V83ZM97.0977 77.8203H95.2988V83H94.3379V77.8203H92.5332V77H97.0977V77.8203ZM35.4922 98.8301V97.8867C36.0156 98.1797 36.627 98.3262 37.3262 98.3262C38.3848 98.3262 38.9141 97.9902 38.9141 97.3184C38.9141 96.6543 38.334 96.3223 37.1738 96.3223H36.582V95.5078H37.1445C38.1641 95.5078 38.6738 95.1914 38.6738 94.5586C38.6738 94.2891 38.5566 94.0742 38.3223 93.9141C38.0879 93.7539 37.7676 93.6738 37.3613 93.6738C36.7793 93.6738 36.1953 93.8203 35.6094 94.1133V93.2168C36.2734 92.9746 36.8828 92.8535 37.4375 92.8535C38.8984 92.8535 39.6289 93.3906 39.6289 94.4648C39.6289 94.8125 39.5195 95.1133 39.3008 95.3672C39.0859 95.6172 38.7832 95.7832 38.3926 95.8652V95.8945C38.8379 95.9297 39.1953 96.0801 39.4648 96.3457C39.7344 96.6113 39.8691 96.9473 39.8691 97.3535C39.8691 97.9004 39.6484 98.3359 39.207 98.6602C38.7656 98.9844 38.1582 99.1465 37.3848 99.1465C36.5605 99.1465 35.9297 99.041 35.4922 98.8301ZM45.6465 99H44.6855V98.0625H44.6621C44.2441 98.7812 43.6289 99.1406 42.8164 99.1406C42.2188 99.1406 41.75 98.9824 41.4102 98.666C41.0742 98.3496 40.9062 97.9297 40.9062 97.4062C40.9062 96.2852 41.5664 95.6328 42.8867 95.4492L44.6855 95.1973C44.6855 94.1777 44.2734 93.668 43.4492 93.668C42.7266 93.668 42.0742 93.9141 41.4922 94.4062V93.4219C42.082 93.0469 42.7617 92.8594 43.5312 92.8594C44.9414 92.8594 45.6465 93.6055 45.6465 95.0977V99ZM44.6855 95.9648L43.2383 96.1641C42.793 96.2266 42.457 96.3379 42.2305 96.498C42.0039 96.6543 41.8906 96.9336 41.8906 97.3359C41.8906 97.6289 41.9941 97.8691 42.2012 98.0566C42.4121 98.2402 42.6914 98.332 43.0391 98.332C43.5156 98.332 43.9082 98.166 44.2168 97.834C44.5293 97.498 44.6855 97.0742 44.6855 96.5625V95.9648ZM53.9375 99H52.9883V94.0547C52.9023 94.3047 52.7695 94.6719 52.5898 95.1562L51.0898 99H50.2285L48.6816 95.1562C48.5996 94.9492 48.4668 94.582 48.2832 94.0547V99H47.457V93H48.6816L50.2637 96.9141C50.377 97.1992 50.5215 97.5938 50.6973 98.0977L51.125 96.9375L52.6602 93H53.9375V99ZM60.1777 99H59.2168V98.0625H59.1934C58.7754 98.7812 58.1602 99.1406 57.3477 99.1406C56.75 99.1406 56.2812 98.9824 55.9414 98.666C55.6055 98.3496 55.4375 97.9297 55.4375 97.4062C55.4375 96.2852 56.0977 95.6328 57.418 95.4492L59.2168 95.1973C59.2168 94.1777 58.8047 93.668 57.9805 93.668C57.2578 93.668 56.6055 93.9141 56.0234 94.4062V93.4219C56.6133 93.0469 57.293 92.8594 58.0625 92.8594C59.4727 92.8594 60.1777 93.6055 60.1777 95.0977V99ZM59.2168 95.9648L57.7695 96.1641C57.3242 96.2266 56.9883 96.3379 56.7617 96.498C56.5352 96.6543 56.4219 96.9336 56.4219 97.3359C56.4219 97.6289 56.5254 97.8691 56.7324 98.0566C56.9434 98.2402 57.2227 98.332 57.5703 98.332C58.0469 98.332 58.4395 98.166 58.748 97.834C59.0605 97.498 59.2168 97.0742 59.2168 96.5625V95.9648ZM66.0781 98.7246C65.6172 99.002 65.0703 99.1406 64.4375 99.1406C63.582 99.1406 62.8906 98.8633 62.3633 98.3086C61.8398 97.75 61.5781 97.0273 61.5781 96.1406C61.5781 95.1523 61.8613 94.3594 62.4277 93.7617C62.9941 93.1602 63.75 92.8594 64.6953 92.8594C65.2227 92.8594 65.6875 92.957 66.0898 93.1523V94.1367C65.6445 93.8242 65.168 93.668 64.6602 93.668C64.0469 93.668 63.543 93.8887 63.1484 94.3301C62.7578 94.7676 62.5625 95.3438 62.5625 96.0586C62.5625 96.7617 62.7461 97.3164 63.1133 97.7227C63.4844 98.1289 63.9805 98.332 64.6016 98.332C65.125 98.332 65.6172 98.1582 66.0781 97.8105V98.7246ZM72.5117 99H71.1641L68.5156 96.1172H68.4922V99H67.5312V93H68.4922V95.748H68.5156L71.0352 93H72.2949L69.5117 95.8945L72.5117 99ZM78.5234 99H77.6562V94.2129C77.5703 94.3809 77.4395 94.6172 77.2637 94.9219L74.4922 99H73.4961V93H74.375V97.7285C74.4219 97.6152 74.5234 97.4219 74.6797 97.1484L77.5273 93H78.5234V99ZM81.4531 98.1328H81.4297V101.76H80.4688V93H81.4297V94.0547H81.4531C81.9258 93.2578 82.6172 92.8594 83.5273 92.8594C84.3008 92.8594 84.9043 93.1289 85.3379 93.668C85.7715 94.2031 85.9883 94.9219 85.9883 95.8242C85.9883 96.8281 85.7441 97.6328 85.2559 98.2383C84.7676 98.8398 84.0996 99.1406 83.252 99.1406C82.4746 99.1406 81.875 98.8047 81.4531 98.1328ZM81.4297 95.7129V96.5508C81.4297 97.0469 81.5898 97.4688 81.9102 97.8164C82.2344 98.1602 82.6445 98.332 83.1406 98.332C83.7227 98.332 84.1777 98.1094 84.5059 97.6641C84.8379 97.2188 85.0039 96.5996 85.0039 95.8066C85.0039 95.1387 84.8496 94.6152 84.541 94.2363C84.2324 93.8574 83.8145 93.668 83.2871 93.668C82.7285 93.668 82.2793 93.8633 81.9395 94.2539C81.5996 94.6406 81.4297 95.127 81.4297 95.7129ZM90.0312 99.1406C89.1445 99.1406 88.4355 98.8613 87.9043 98.3027C87.377 97.7402 87.1133 96.9961 87.1133 96.0703C87.1133 95.0625 87.3887 94.2754 87.9395 93.709C88.4902 93.1426 89.2344 92.8594 90.1719 92.8594C91.0664 92.8594 91.7637 93.1348 92.2637 93.6855C92.7676 94.2363 93.0195 95 93.0195 95.9766C93.0195 96.9336 92.748 97.7012 92.2051 98.2793C91.666 98.8535 90.9414 99.1406 90.0312 99.1406ZM90.1016 93.668C89.4844 93.668 88.9961 93.8789 88.6367 94.3008C88.2773 94.7188 88.0977 95.2969 88.0977 96.0352C88.0977 96.7461 88.2793 97.3066 88.6426 97.7168C89.0059 98.127 89.4922 98.332 90.1016 98.332C90.7227 98.332 91.1992 98.1309 91.5312 97.7285C91.8672 97.3262 92.0352 96.7539 92.0352 96.0117C92.0352 95.2617 91.8672 94.6836 91.5312 94.2773C91.1992 93.8711 90.7227 93.668 90.1016 93.668ZM94.5547 99V93H97.168C97.7578 93 98.2227 93.1309 98.5625 93.3926C98.9062 93.6543 99.0781 94.0117 99.0781 94.4648C99.0781 95.2422 98.6953 95.7148 97.9297 95.8828C98.8477 96 99.3066 96.4629 99.3066 97.2715C99.3066 97.7598 99.1172 98.1699 98.7383 98.502C98.3633 98.834 97.8965 99 97.3379 99H94.5547ZM95.5156 93.8203V95.5078H96.957C97.7305 95.5078 98.1172 95.207 98.1172 94.6055C98.1172 94.082 97.7695 93.8203 97.0742 93.8203H95.5156ZM95.5156 96.3281V98.1797H97.1797C97.957 98.1797 98.3457 97.8652 98.3457 97.2363C98.3457 96.6309 97.9102 96.3281 97.0391 96.3281H95.5156ZM105.213 99H104.252V98.0625H104.229C103.811 98.7812 103.195 99.1406 102.383 99.1406C101.785 99.1406 101.316 98.9824 100.977 98.666C100.641 98.3496 100.473 97.9297 100.473 97.4062C100.473 96.2852 101.133 95.6328 102.453 95.4492L104.252 95.1973C104.252 94.1777 103.84 93.668 103.016 93.668C102.293 93.668 101.641 93.9141 101.059 94.4062V93.4219C101.648 93.0469 102.328 92.8594 103.098 92.8594C104.508 92.8594 105.213 93.6055 105.213 95.0977V99ZM104.252 95.9648L102.805 96.1641C102.359 96.2266 102.023 96.3379 101.797 96.498C101.57 96.6543 101.457 96.9336 101.457 97.3359C101.457 97.6289 101.561 97.8691 101.768 98.0566C101.979 98.2402 102.258 98.332 102.605 98.332C103.082 98.332 103.475 98.166 103.783 97.834C104.096 97.498 104.252 97.0742 104.252 96.5625V95.9648ZM112.004 99H111.043V96.2754H107.984V99H107.023V93H107.984V95.4609H111.043V93H112.004V99Z" fill="#020057"/>
</g>
<defs>
<filter id="filter0_dd_3871_164780" x="0.8" y="2.38419e-07" width="146.4" height="146.4" filterUnits="userSpaceOnUse" color-interpolation-filters="sRGB">
<feFlood flood-opacity="0" result="BackgroundImageFix"/>
<feColorMatrix in="SourceAlpha" type="matrix" values="0 0 0 0 0 0 0 0 0 0 0 0 0 0 0 0 0 0 127 0" result="hardAlpha"/>
<feOffset dy="3.2"/>
<feGaussianBlur stdDeviation="3.6"/>
<feColorMatrix type="matrix" values="0 0 0 0 0.513726 0 0 0 0 0.494118 0 0 0 0 1 0 0 0 0.12 0"/>
<feBlend mode="normal" in2="BackgroundImageFix" result="effect1_dropShadow_3871_164780"/>
<feColorMatrix in="SourceAlpha" type="matrix" values="0 0 0 0 0 0 0 0 0 0 0 0 0 0 0 0 0 0 127 0" result="hardAlpha"/>
<feOffset dy="0.6"/>
<feGaussianBlur stdDeviation="0.9"/>
<feColorMatrix type="matrix" values="0 0 0 0 0.513726 0 0 0 0 0.494118 0 0 0 0 1 0 0 0 0.1 0"/>
<feBlend mode="normal" in2="effect1_dropShadow_3871_164780" result="effect2_dropShadow_3871_164780"/>
<feBlend mode="normal" in="SourceGraphic" in2="effect2_dropShadow_3871_164780" result="shape"/>
</filter>
</defs>
</svg>
