<svg width="100%" viewBox="0 0 100 96" fill="none" xmlns="http://www.w3.org/2000/svg">
<rect width="100" height="96" fill="#FBFBFE"/>
<path d="M40.2197 10.2197C39.9534 10.4859 39.9292 10.9026 40.1471 11.1962L40.2197 11.2803L44.2542 15.3149C42.3322 16.6644 40.8958 18.6799 40.2989 21.0644C40.1983 21.4662 40.4425 21.8735 40.8443 21.9741C41.2461 22.0746 41.6534 21.8305 41.754 21.4286C42.2835 19.3135 43.5911 17.5395 45.3342 16.3945L47.1438 18.2043C46.4363 18.9258 46 19.9143 46 21.0046C46 23.2138 47.7909 25.0046 50 25.0046C51.0904 25.0046 52.0788 24.5683 52.8004 23.8608L58.7197 29.7803C59.0126 30.0732 59.4874 30.0732 59.7803 29.7803C60.0466 29.5141 60.0708 29.0974 59.8529 28.8038L59.7803 28.7197L53.6668 22.6055L53.668 22.604L52.4679 21.4061L49.598 18.5368L49.6 18.536L46.7188 15.6578L46.72 15.656L45.5867 14.5255L41.2803 10.2197C40.9874 9.92678 40.5126 9.92678 40.2197 10.2197ZM48.2041 19.2655L51.7392 22.8006C51.2892 23.2364 50.6759 23.5046 50 23.5046C48.6193 23.5046 47.5 22.3853 47.5 21.0046C47.5 20.3287 47.7682 19.7154 48.2041 19.2655ZM50 13.5C48.9997 13.5 48.0291 13.6481 47.1111 13.925L48.3481 15.1612C48.8839 15.0553 49.4364 15 50 15C53.9231 15 57.3099 17.6803 58.2471 21.4332C58.3475 21.835 58.7546 22.0794 59.1565 21.9791C59.5584 21.8787 59.8028 21.4716 59.7024 21.0697C58.5994 16.6527 54.6155 13.5 50 13.5ZM50.1947 17.0093L53.996 20.81C53.8942 18.7531 52.2472 17.1076 50.1947 17.0093Z" fill="#020057"/>
<path d="M24.4297 53H19.9766V44.5977H24.2422V45.4883H20.9609V48.2832H23.9961V49.168H20.9609V52.1094H24.4297V53ZM26.8789 53H25.918V44.1172H26.8789V53ZM36.9395 50.2402H32.7031C32.7188 50.9082 32.8984 51.4238 33.2422 51.7871C33.5859 52.1504 34.0586 52.332 34.6602 52.332C35.3359 52.332 35.957 52.1094 36.5234 51.6641V52.5664C35.9961 52.9492 35.2988 53.1406 34.4316 53.1406C33.584 53.1406 32.918 52.8691 32.4336 52.3262C31.9492 51.7793 31.707 51.0117 31.707 50.0234C31.707 49.0898 31.9707 48.3301 32.498 47.7441C33.0293 47.1543 33.6875 46.8594 34.4727 46.8594C35.2578 46.8594 35.8652 47.1133 36.2949 47.6211C36.7246 48.1289 36.9395 48.834 36.9395 49.7363V50.2402ZM35.9551 49.4258C35.9512 48.8711 35.8164 48.4395 35.5508 48.1309C35.2891 47.8223 34.9238 47.668 34.4551 47.668C34.002 47.668 33.6172 47.8301 33.3008 48.1543C32.9844 48.4785 32.7891 48.9023 32.7148 49.4258H35.9551ZM39.3594 53H38.3984V44.1172H39.3594V53ZM46.127 50.2402H41.8906C41.9062 50.9082 42.0859 51.4238 42.4297 51.7871C42.7734 52.1504 43.2461 52.332 43.8477 52.332C44.5234 52.332 45.1445 52.1094 45.7109 51.6641V52.5664C45.1836 52.9492 44.4863 53.1406 43.6191 53.1406C42.7715 53.1406 42.1055 52.8691 41.6211 52.3262C41.1367 51.7793 40.8945 51.0117 40.8945 50.0234C40.8945 49.0898 41.1582 48.3301 41.6855 47.7441C42.2168 47.1543 42.875 46.8594 43.6602 46.8594C44.4453 46.8594 45.0527 47.1133 45.4824 47.6211C45.9121 48.1289 46.127 48.834 46.127 49.7363V50.2402ZM45.1426 49.4258C45.1387 48.8711 45.0039 48.4395 44.7383 48.1309C44.4766 47.8223 44.1113 47.668 43.6426 47.668C43.1895 47.668 42.8047 47.8301 42.4883 48.1543C42.1719 48.4785 41.9766 48.9023 41.9023 49.4258H45.1426ZM56.1055 53H55.1445V49.5547C55.1445 48.8906 55.041 48.4102 54.834 48.1133C54.6309 47.8164 54.2871 47.668 53.8027 47.668C53.3926 47.668 53.043 47.8555 52.7539 48.2305C52.4688 48.6055 52.3262 49.0547 52.3262 49.5781V53H51.3652V49.4375C51.3652 48.2578 50.9102 47.668 50 47.668C49.5781 47.668 49.2305 47.8457 48.957 48.2012C48.6836 48.5527 48.5469 49.0117 48.5469 49.5781V53H47.5859V47H48.5469V47.9492H48.5703C48.9961 47.2227 49.6172 46.8594 50.4336 46.8594C50.8438 46.8594 51.2012 46.9746 51.5059 47.2051C51.8105 47.4316 52.0195 47.7305 52.1328 48.1016C52.5781 47.2734 53.2422 46.8594 54.125 46.8594C55.4453 46.8594 56.1055 47.6738 56.1055 49.3027V53ZM62.7441 50.2402H58.5078C58.5234 50.9082 58.7031 51.4238 59.0469 51.7871C59.3906 52.1504 59.8633 52.332 60.4648 52.332C61.1406 52.332 61.7617 52.1094 62.3281 51.6641V52.5664C61.8008 52.9492 61.1035 53.1406 60.2363 53.1406C59.3887 53.1406 58.7227 52.8691 58.2383 52.3262C57.7539 51.7793 57.5117 51.0117 57.5117 50.0234C57.5117 49.0898 57.7754 48.3301 58.3027 47.7441C58.834 47.1543 59.4922 46.8594 60.2773 46.8594C61.0625 46.8594 61.6699 47.1133 62.0996 47.6211C62.5293 48.1289 62.7441 48.834 62.7441 49.7363V50.2402ZM61.7598 49.4258C61.7559 48.8711 61.6211 48.4395 61.3555 48.1309C61.0938 47.8223 60.7285 47.668 60.2598 47.668C59.8066 47.668 59.4219 47.8301 59.1055 48.1543C58.7891 48.4785 58.5938 48.9023 58.5195 49.4258H61.7598ZM69.1836 53H68.2227V49.5781C68.2227 48.3047 67.7578 47.668 66.8281 47.668C66.3477 47.668 65.9492 47.8496 65.6328 48.2129C65.3203 48.5723 65.1641 49.0273 65.1641 49.5781V53H64.2031V47H65.1641V47.9961H65.1875C65.6406 47.2383 66.2969 46.8594 67.1562 46.8594C67.8125 46.8594 68.3145 47.0723 68.6621 47.498C69.0098 47.9199 69.1836 48.5312 69.1836 49.332V53ZM73.7832 52.9414C73.5566 53.0664 73.2578 53.1289 72.8867 53.1289C71.8359 53.1289 71.3105 52.543 71.3105 51.3711V47.8203H70.2793V47H71.3105V45.5352L72.2715 45.2246V47H73.7832V47.8203H72.2715V51.2012C72.2715 51.6035 72.3398 51.8906 72.4766 52.0625C72.6133 52.2344 72.8398 52.3203 73.1562 52.3203C73.3984 52.3203 73.6074 52.2539 73.7832 52.1211V52.9414ZM77.5742 53.1406C76.6875 53.1406 75.9785 52.8613 75.4473 52.3027C74.9199 51.7402 74.6562 50.9961 74.6562 50.0703C74.6562 49.0625 74.9316 48.2754 75.4824 47.709C76.0332 47.1426 76.7773 46.8594 77.7148 46.8594C78.6094 46.8594 79.3066 47.1348 79.8066 47.6855C80.3105 48.2363 80.5625 49 80.5625 49.9766C80.5625 50.9336 80.291 51.7012 79.748 52.2793C79.209 52.8535 78.4844 53.1406 77.5742 53.1406ZM77.6445 47.668C77.0273 47.668 76.5391 47.8789 76.1797 48.3008C75.8203 48.7188 75.6406 49.2969 75.6406 50.0352C75.6406 50.7461 75.8223 51.3066 76.1855 51.7168C76.5488 52.127 77.0352 52.332 77.6445 52.332C78.2656 52.332 78.7422 52.1309 79.0742 51.7285C79.4102 51.3262 79.5781 50.7539 79.5781 50.0117C79.5781 49.2617 79.4102 48.6836 79.0742 48.2773C78.7422 47.8711 78.2656 47.668 77.6445 47.668ZM45.0195 66.2402H40.7832C40.7988 66.9082 40.9785 67.4238 41.3223 67.7871C41.666 68.1504 42.1387 68.332 42.7402 68.332C43.416 68.332 44.0371 68.1094 44.6035 67.6641V68.5664C44.0762 68.9492 43.3789 69.1406 42.5117 69.1406C41.6641 69.1406 40.998 68.8691 40.5137 68.3262C40.0293 67.7793 39.7871 67.0117 39.7871 66.0234C39.7871 65.0898 40.0508 64.3301 40.5781 63.7441C41.1094 63.1543 41.7676 62.8594 42.5527 62.8594C43.3379 62.8594 43.9453 63.1133 44.375 63.6211C44.8047 64.1289 45.0195 64.834 45.0195 65.7363V66.2402ZM44.0352 65.4258C44.0312 64.8711 43.8965 64.4395 43.6309 64.1309C43.3691 63.8223 43.0039 63.668 42.5352 63.668C42.082 63.668 41.6973 63.8301 41.3809 64.1543C41.0645 64.4785 40.8691 64.9023 40.7949 65.4258H44.0352ZM46.1152 68.7832V67.752C46.6387 68.1387 47.2148 68.332 47.8438 68.332C48.6875 68.332 49.1094 68.0508 49.1094 67.4883C49.1094 67.3281 49.0723 67.1934 48.998 67.084C48.9277 66.9707 48.8301 66.8711 48.7051 66.7852C48.584 66.6992 48.4395 66.623 48.2715 66.5566C48.1074 66.4863 47.9297 66.4141 47.7383 66.3398C47.4727 66.2344 47.2383 66.1289 47.0352 66.0234C46.8359 65.9141 46.668 65.793 46.5312 65.6602C46.3984 65.5234 46.2969 65.3691 46.2266 65.1973C46.1602 65.0254 46.127 64.8242 46.127 64.5938C46.127 64.3125 46.1914 64.0645 46.3203 63.8496C46.4492 63.6309 46.6211 63.4492 46.8359 63.3047C47.0508 63.1562 47.2949 63.0449 47.5684 62.9707C47.8457 62.8965 48.1309 62.8594 48.4238 62.8594C48.9434 62.8594 49.4082 62.9492 49.8184 63.1289V64.1016C49.377 63.8125 48.8691 63.668 48.2949 63.668C48.1152 63.668 47.9531 63.6895 47.8086 63.7324C47.6641 63.7715 47.5391 63.8281 47.4336 63.9023C47.332 63.9766 47.252 64.0664 47.1934 64.1719C47.1387 64.2734 47.1113 64.3867 47.1113 64.5117C47.1113 64.668 47.1387 64.7988 47.1934 64.9043C47.252 65.0098 47.3359 65.1035 47.4453 65.1855C47.5547 65.2676 47.6875 65.3418 47.8438 65.4082C48 65.4746 48.1777 65.5469 48.377 65.625C48.6426 65.7266 48.8809 65.832 49.0918 65.9414C49.3027 66.0469 49.4824 66.168 49.6309 66.3047C49.7793 66.4375 49.8926 66.5918 49.9707 66.7676C50.0527 66.9434 50.0938 67.1523 50.0938 67.3945C50.0938 67.6914 50.0273 67.9492 49.8945 68.168C49.7656 68.3867 49.5918 68.5684 49.373 68.7129C49.1543 68.8574 48.9023 68.9648 48.6172 69.0352C48.332 69.1055 48.0332 69.1406 47.7207 69.1406C47.1035 69.1406 46.5684 69.0215 46.1152 68.7832ZM54.3594 68.9414C54.1328 69.0664 53.834 69.1289 53.4629 69.1289C52.4121 69.1289 51.8867 68.543 51.8867 67.3711V63.8203H50.8555V63H51.8867V61.5352L52.8477 61.2246V63H54.3594V63.8203H52.8477V67.2012C52.8477 67.6035 52.916 67.8906 53.0527 68.0625C53.1895 68.2344 53.416 68.3203 53.7324 68.3203C53.9746 68.3203 54.1836 68.2539 54.3594 68.1211V68.9414ZM59.9375 69H58.9766V68.0625H58.9531C58.5352 68.7812 57.9199 69.1406 57.1074 69.1406C56.5098 69.1406 56.041 68.9824 55.7012 68.666C55.3652 68.3496 55.1973 67.9297 55.1973 67.4062C55.1973 66.2852 55.8574 65.6328 57.1777 65.4492L58.9766 65.1973C58.9766 64.1777 58.5645 63.668 57.7402 63.668C57.0176 63.668 56.3652 63.9141 55.7832 64.4062V63.4219C56.373 63.0469 57.0527 62.8594 57.8223 62.8594C59.2324 62.8594 59.9375 63.6055 59.9375 65.0977V69ZM58.9766 65.9648L57.5293 66.1641C57.084 66.2266 56.748 66.3379 56.5215 66.498C56.2949 66.6543 56.1816 66.9336 56.1816 67.3359C56.1816 67.6289 56.2852 67.8691 56.4922 68.0566C56.7031 68.2402 56.9824 68.332 57.3301 68.332C57.8066 68.332 58.1992 68.166 58.5078 67.834C58.8203 67.498 58.9766 67.0742 58.9766 66.5625V65.9648ZM59.1055 59.9414L57.5703 61.8633H56.8262L58.1328 59.9414H59.1055ZM20.4746 82.2402H16.2383C16.2539 82.9082 16.4336 83.4238 16.7773 83.7871C17.1211 84.1504 17.5938 84.332 18.1953 84.332C18.8711 84.332 19.4922 84.1094 20.0586 83.6641V84.5664C19.5312 84.9492 18.834 85.1406 17.9668 85.1406C17.1191 85.1406 16.4531 84.8691 15.9688 84.3262C15.4844 83.7793 15.2422 83.0117 15.2422 82.0234C15.2422 81.0898 15.5059 80.3301 16.0332 79.7441C16.5645 79.1543 17.2227 78.8594 18.0078 78.8594C18.793 78.8594 19.4004 79.1133 19.8301 79.6211C20.2598 80.1289 20.4746 80.834 20.4746 81.7363V82.2402ZM19.4902 81.4258C19.4863 80.8711 19.3516 80.4395 19.0859 80.1309C18.8242 79.8223 18.459 79.668 17.9902 79.668C17.5371 79.668 17.1523 79.8301 16.8359 80.1543C16.5195 80.4785 16.3242 80.9023 16.25 81.4258H19.4902ZM26.9141 85H25.9531V81.5781C25.9531 80.3047 25.4883 79.668 24.5586 79.668C24.0781 79.668 23.6797 79.8496 23.3633 80.2129C23.0508 80.5723 22.8945 81.0273 22.8945 81.5781V85H21.9336V79H22.8945V79.9961H22.918C23.3711 79.2383 24.0273 78.8594 24.8867 78.8594C25.543 78.8594 26.0449 79.0723 26.3926 79.498C26.7402 79.9199 26.9141 80.5312 26.9141 81.332V85ZM37.25 85H36.2891V81.5547C36.2891 80.8906 36.1855 80.4102 35.9785 80.1133C35.7754 79.8164 35.4316 79.668 34.9473 79.668C34.5371 79.668 34.1875 79.8555 33.8984 80.2305C33.6133 80.6055 33.4707 81.0547 33.4707 81.5781V85H32.5098V81.4375C32.5098 80.2578 32.0547 79.668 31.1445 79.668C30.7227 79.668 30.375 79.8457 30.1016 80.2012C29.8281 80.5527 29.6914 81.0117 29.6914 81.5781V85H28.7305V79H29.6914V79.9492H29.7148C30.1406 79.2227 30.7617 78.8594 31.5781 78.8594C31.9883 78.8594 32.3457 78.9746 32.6504 79.2051C32.9551 79.4316 33.1641 79.7305 33.2773 80.1016C33.7227 79.2734 34.3867 78.8594 35.2695 78.8594C36.5898 78.8594 37.25 79.6738 37.25 81.3027V85ZM43.3613 85H42.4004V84.0625H42.377C41.959 84.7812 41.3438 85.1406 40.5312 85.1406C39.9336 85.1406 39.4648 84.9824 39.125 84.666C38.7891 84.3496 38.6211 83.9297 38.6211 83.4062C38.6211 82.2852 39.2812 81.6328 40.6016 81.4492L42.4004 81.1973C42.4004 80.1777 41.9883 79.668 41.1641 79.668C40.4414 79.668 39.7891 79.9141 39.207 80.4062V79.4219C39.7969 79.0469 40.4766 78.8594 41.2461 78.8594C42.6562 78.8594 43.3613 79.6055 43.3613 81.0977V85ZM42.4004 81.9648L40.9531 82.1641C40.5078 82.2266 40.1719 82.3379 39.9453 82.498C39.7188 82.6543 39.6055 82.9336 39.6055 83.3359C39.6055 83.6289 39.709 83.8691 39.916 84.0566C40.127 84.2402 40.4062 84.332 40.7539 84.332C41.2305 84.332 41.623 84.166 41.9316 83.834C42.2441 83.498 42.4004 83.0742 42.4004 82.5625V81.9648ZM44.8086 84.7832V83.752C45.332 84.1387 45.9082 84.332 46.5371 84.332C47.3809 84.332 47.8027 84.0508 47.8027 83.4883C47.8027 83.3281 47.7656 83.1934 47.6914 83.084C47.6211 82.9707 47.5234 82.8711 47.3984 82.7852C47.2773 82.6992 47.1328 82.623 46.9648 82.5566C46.8008 82.4863 46.623 82.4141 46.4316 82.3398C46.166 82.2344 45.9316 82.1289 45.7285 82.0234C45.5293 81.9141 45.3613 81.793 45.2246 81.6602C45.0918 81.5234 44.9902 81.3691 44.9199 81.1973C44.8535 81.0254 44.8203 80.8242 44.8203 80.5938C44.8203 80.3125 44.8848 80.0645 45.0137 79.8496C45.1426 79.6309 45.3145 79.4492 45.5293 79.3047C45.7441 79.1562 45.9883 79.0449 46.2617 78.9707C46.5391 78.8965 46.8242 78.8594 47.1172 78.8594C47.6367 78.8594 48.1016 78.9492 48.5117 79.1289V80.1016C48.0703 79.8125 47.5625 79.668 46.9883 79.668C46.8086 79.668 46.6465 79.6895 46.502 79.7324C46.3574 79.7715 46.2324 79.8281 46.127 79.9023C46.0254 79.9766 45.9453 80.0664 45.8867 80.1719C45.832 80.2734 45.8047 80.3867 45.8047 80.5117C45.8047 80.668 45.832 80.7988 45.8867 80.9043C45.9453 81.0098 46.0293 81.1035 46.1387 81.1855C46.248 81.2676 46.3809 81.3418 46.5371 81.4082C46.6934 81.4746 46.8711 81.5469 47.0703 81.625C47.3359 81.7266 47.5742 81.832 47.7852 81.9414C47.9961 82.0469 48.1758 82.168 48.3242 82.3047C48.4727 82.4375 48.5859 82.5918 48.6641 82.7676C48.7461 82.9434 48.7871 83.1523 48.7871 83.3945C48.7871 83.6914 48.7207 83.9492 48.5879 84.168C48.459 84.3867 48.2852 84.5684 48.0664 84.7129C47.8477 84.8574 47.5957 84.9648 47.3105 85.0352C47.0254 85.1055 46.7266 85.1406 46.4141 85.1406C45.7969 85.1406 45.2617 85.0215 44.8086 84.7832ZM54.3594 84.7246C53.8984 85.002 53.3516 85.1406 52.7188 85.1406C51.8633 85.1406 51.1719 84.8633 50.6445 84.3086C50.1211 83.75 49.8594 83.0273 49.8594 82.1406C49.8594 81.1523 50.1426 80.3594 50.709 79.7617C51.2754 79.1602 52.0312 78.8594 52.9766 78.8594C53.5039 78.8594 53.9688 78.957 54.3711 79.1523V80.1367C53.9258 79.8242 53.4492 79.668 52.9414 79.668C52.3281 79.668 51.8242 79.8887 51.4297 80.3301C51.0391 80.7676 50.8438 81.3438 50.8438 82.0586C50.8438 82.7617 51.0273 83.3164 51.3945 83.7227C51.7656 84.1289 52.2617 84.332 52.8828 84.332C53.4062 84.332 53.8984 84.1582 54.3594 83.8105V84.7246ZM60.1074 85H59.1465V84.0625H59.123C58.7051 84.7812 58.0898 85.1406 57.2773 85.1406C56.6797 85.1406 56.2109 84.9824 55.8711 84.666C55.5352 84.3496 55.3672 83.9297 55.3672 83.4062C55.3672 82.2852 56.0273 81.6328 57.3477 81.4492L59.1465 81.1973C59.1465 80.1777 58.7344 79.668 57.9102 79.668C57.1875 79.668 56.5352 79.9141 55.9531 80.4062V79.4219C56.543 79.0469 57.2227 78.8594 57.9922 78.8594C59.4023 78.8594 60.1074 79.6055 60.1074 81.0977V85ZM59.1465 81.9648L57.6992 82.1641C57.2539 82.2266 56.918 82.3379 56.6914 82.498C56.4648 82.6543 56.3516 82.9336 56.3516 83.3359C56.3516 83.6289 56.4551 83.8691 56.6621 84.0566C56.873 84.2402 57.1523 84.332 57.5 84.332C57.9766 84.332 58.3691 84.166 58.6777 83.834C58.9902 83.498 59.1465 83.0742 59.1465 82.5625V81.9648ZM65.0469 79.9727C64.8789 79.8438 64.6367 79.7793 64.3203 79.7793C63.9102 79.7793 63.5664 79.9727 63.2891 80.3594C63.0156 80.7461 62.8789 81.2734 62.8789 81.9414V85H61.918V79H62.8789V80.2363H62.9023C63.0391 79.8145 63.248 79.4863 63.5293 79.252C63.8105 79.0137 64.125 78.8945 64.4727 78.8945C64.7227 78.8945 64.9141 78.9219 65.0469 78.9766V79.9727ZM70.3848 85H69.4238V84.0625H69.4004C68.9824 84.7812 68.3672 85.1406 67.5547 85.1406C66.957 85.1406 66.4883 84.9824 66.1484 84.666C65.8125 84.3496 65.6445 83.9297 65.6445 83.4062C65.6445 82.2852 66.3047 81.6328 67.625 81.4492L69.4238 81.1973C69.4238 80.1777 69.0117 79.668 68.1875 79.668C67.4648 79.668 66.8125 79.9141 66.2305 80.4062V79.4219C66.8203 79.0469 67.5 78.8594 68.2695 78.8594C69.6797 78.8594 70.3848 79.6055 70.3848 81.0977V85ZM69.4238 81.9648L67.9766 82.1641C67.5312 82.2266 67.1953 82.3379 66.9688 82.498C66.7422 82.6543 66.6289 82.9336 66.6289 83.3359C66.6289 83.6289 66.7324 83.8691 66.9395 84.0566C67.1504 84.2402 67.4297 84.332 67.7773 84.332C68.2539 84.332 68.6465 84.166 68.9551 83.834C69.2676 83.498 69.4238 83.0742 69.4238 82.5625V81.9648ZM77.3164 85H76.3555V83.9805H76.332C75.8867 84.7539 75.1992 85.1406 74.2695 85.1406C73.5156 85.1406 72.9121 84.873 72.459 84.3379C72.0098 83.7988 71.7852 83.0664 71.7852 82.1406C71.7852 81.1484 72.0352 80.3535 72.5352 79.7559C73.0352 79.1582 73.7012 78.8594 74.5332 78.8594C75.3574 78.8594 75.957 79.1836 76.332 79.832H76.3555V76.1172H77.3164V85ZM76.3555 82.2871V81.4023C76.3555 80.918 76.1953 80.5078 75.875 80.1719C75.5547 79.8359 75.1484 79.668 74.6562 79.668C74.0703 79.668 73.6094 79.8828 73.2734 80.3125C72.9375 80.7422 72.7695 81.3359 72.7695 82.0938C72.7695 82.7852 72.9297 83.332 73.25 83.7344C73.5742 84.1328 74.0078 84.332 74.5508 84.332C75.0859 84.332 75.5195 84.1387 75.8516 83.752C76.1875 83.3652 76.3555 82.877 76.3555 82.2871ZM81.7695 85.1406C80.8828 85.1406 80.1738 84.8613 79.6426 84.3027C79.1152 83.7402 78.8516 82.9961 78.8516 82.0703C78.8516 81.0625 79.127 80.2754 79.6777 79.709C80.2285 79.1426 80.9727 78.8594 81.9102 78.8594C82.8047 78.8594 83.502 79.1348 84.002 79.6855C84.5059 80.2363 84.7578 81 84.7578 81.9766C84.7578 82.9336 84.4863 83.7012 83.9434 84.2793C83.4043 84.8535 82.6797 85.1406 81.7695 85.1406ZM81.8398 79.668C81.2227 79.668 80.7344 79.8789 80.375 80.3008C80.0156 80.7188 79.8359 81.2969 79.8359 82.0352C79.8359 82.7461 80.0176 83.3066 80.3809 83.7168C80.7441 84.127 81.2305 84.332 81.8398 84.332C82.4609 84.332 82.9375 84.1309 83.2695 83.7285C83.6055 83.3262 83.7734 82.7539 83.7734 82.0117C83.7734 81.2617 83.6055 80.6836 83.2695 80.2773C82.9375 79.8711 82.4609 79.668 81.8398 79.668Z" fill="#020057"/>
</svg>
