<svg width="100%" viewBox="0 0 148 147" fill="none" xmlns="http://www.w3.org/2000/svg">
<g filter="url(#filter0_dd_3871_164744)">
<rect x="8" y="4" width="132" height="132" fill="#FBFBFE"/>
<rect x="8.5" y="4.5" width="131" height="131" stroke="#827DFF" stroke-dasharray="4 4"/>
<rect width="100" height="96" transform="translate(24 22)" fill="#FBFBFE"/>
<path d="M64.2197 32.2197C63.9534 32.4859 63.9292 32.9026 64.1471 33.1962L64.2197 33.2803L68.2542 37.3149C66.3322 38.6644 64.8958 40.6799 64.2989 43.0644C64.1983 43.4662 64.4425 43.8735 64.8443 43.9741C65.2461 44.0746 65.6534 43.8305 65.754 43.4286C66.2835 41.3135 67.5911 39.5395 69.3342 38.3945L71.1438 40.2043C70.4363 40.9258 70 41.9143 70 43.0046C70 45.2138 71.7909 47.0046 74 47.0046C75.0904 47.0046 76.0788 46.5683 76.8004 45.8608L82.7197 51.7803C83.0126 52.0732 83.4874 52.0732 83.7803 51.7803C84.0466 51.5141 84.0708 51.0974 83.8529 50.8038L83.7803 50.7197L77.6668 44.6055L77.668 44.604L76.4679 43.4061L73.598 40.5368L73.6 40.536L70.7188 37.6578L70.72 37.656L69.5867 36.5255L65.2803 32.2197C64.9874 31.9268 64.5126 31.9268 64.2197 32.2197ZM72.2041 41.2655L75.7392 44.8006C75.2892 45.2364 74.6759 45.5046 74 45.5046C72.6193 45.5046 71.5 44.3853 71.5 43.0046C71.5 42.3287 71.7682 41.7154 72.2041 41.2655ZM74 35.5C72.9997 35.5 72.0291 35.6481 71.1111 35.925L72.3481 37.1612C72.8839 37.0553 73.4364 37 74 37C77.9231 37 81.3099 39.6803 82.2471 43.4332C82.3475 43.835 82.7546 44.0794 83.1565 43.9791C83.5584 43.8787 83.8028 43.4716 83.7024 43.0697C82.5994 38.6527 78.6155 35.5 74 35.5ZM74.1947 39.0093L77.996 42.81C77.8942 40.7531 76.2472 39.1076 74.1947 39.0093Z" fill="#020057"/>
<path d="M48.4297 75H43.9766V66.5977H48.2422V67.4883H44.9609V70.2832H47.9961V71.168H44.9609V74.1094H48.4297V75ZM50.8789 75H49.918V66.1172H50.8789V75ZM60.9395 72.2402H56.7031C56.7188 72.9082 56.8984 73.4238 57.2422 73.7871C57.5859 74.1504 58.0586 74.332 58.6602 74.332C59.3359 74.332 59.957 74.1094 60.5234 73.6641V74.5664C59.9961 74.9492 59.2988 75.1406 58.4316 75.1406C57.584 75.1406 56.918 74.8691 56.4336 74.3262C55.9492 73.7793 55.707 73.0117 55.707 72.0234C55.707 71.0898 55.9707 70.3301 56.498 69.7441C57.0293 69.1543 57.6875 68.8594 58.4727 68.8594C59.2578 68.8594 59.8652 69.1133 60.2949 69.6211C60.7246 70.1289 60.9395 70.834 60.9395 71.7363V72.2402ZM59.9551 71.4258C59.9512 70.8711 59.8164 70.4395 59.5508 70.1309C59.2891 69.8223 58.9238 69.668 58.4551 69.668C58.002 69.668 57.6172 69.8301 57.3008 70.1543C56.9844 70.4785 56.7891 70.9023 56.7148 71.4258H59.9551ZM63.3594 75H62.3984V66.1172H63.3594V75ZM70.127 72.2402H65.8906C65.9062 72.9082 66.0859 73.4238 66.4297 73.7871C66.7734 74.1504 67.2461 74.332 67.8477 74.332C68.5234 74.332 69.1445 74.1094 69.7109 73.6641V74.5664C69.1836 74.9492 68.4863 75.1406 67.6191 75.1406C66.7715 75.1406 66.1055 74.8691 65.6211 74.3262C65.1367 73.7793 64.8945 73.0117 64.8945 72.0234C64.8945 71.0898 65.1582 70.3301 65.6855 69.7441C66.2168 69.1543 66.875 68.8594 67.6602 68.8594C68.4453 68.8594 69.0527 69.1133 69.4824 69.6211C69.9121 70.1289 70.127 70.834 70.127 71.7363V72.2402ZM69.1426 71.4258C69.1387 70.8711 69.0039 70.4395 68.7383 70.1309C68.4766 69.8223 68.1113 69.668 67.6426 69.668C67.1895 69.668 66.8047 69.8301 66.4883 70.1543C66.1719 70.4785 65.9766 70.9023 65.9023 71.4258H69.1426ZM80.1055 75H79.1445V71.5547C79.1445 70.8906 79.041 70.4102 78.834 70.1133C78.6309 69.8164 78.2871 69.668 77.8027 69.668C77.3926 69.668 77.043 69.8555 76.7539 70.2305C76.4688 70.6055 76.3262 71.0547 76.3262 71.5781V75H75.3652V71.4375C75.3652 70.2578 74.9102 69.668 74 69.668C73.5781 69.668 73.2305 69.8457 72.957 70.2012C72.6836 70.5527 72.5469 71.0117 72.5469 71.5781V75H71.5859V69H72.5469V69.9492H72.5703C72.9961 69.2227 73.6172 68.8594 74.4336 68.8594C74.8438 68.8594 75.2012 68.9746 75.5059 69.2051C75.8105 69.4316 76.0195 69.7305 76.1328 70.1016C76.5781 69.2734 77.2422 68.8594 78.125 68.8594C79.4453 68.8594 80.1055 69.6738 80.1055 71.3027V75ZM86.7441 72.2402H82.5078C82.5234 72.9082 82.7031 73.4238 83.0469 73.7871C83.3906 74.1504 83.8633 74.332 84.4648 74.332C85.1406 74.332 85.7617 74.1094 86.3281 73.6641V74.5664C85.8008 74.9492 85.1035 75.1406 84.2363 75.1406C83.3887 75.1406 82.7227 74.8691 82.2383 74.3262C81.7539 73.7793 81.5117 73.0117 81.5117 72.0234C81.5117 71.0898 81.7754 70.3301 82.3027 69.7441C82.834 69.1543 83.4922 68.8594 84.2773 68.8594C85.0625 68.8594 85.6699 69.1133 86.0996 69.6211C86.5293 70.1289 86.7441 70.834 86.7441 71.7363V72.2402ZM85.7598 71.4258C85.7559 70.8711 85.6211 70.4395 85.3555 70.1309C85.0938 69.8223 84.7285 69.668 84.2598 69.668C83.8066 69.668 83.4219 69.8301 83.1055 70.1543C82.7891 70.4785 82.5938 70.9023 82.5195 71.4258H85.7598ZM93.1836 75H92.2227V71.5781C92.2227 70.3047 91.7578 69.668 90.8281 69.668C90.3477 69.668 89.9492 69.8496 89.6328 70.2129C89.3203 70.5723 89.1641 71.0273 89.1641 71.5781V75H88.2031V69H89.1641V69.9961H89.1875C89.6406 69.2383 90.2969 68.8594 91.1562 68.8594C91.8125 68.8594 92.3145 69.0723 92.6621 69.498C93.0098 69.9199 93.1836 70.5312 93.1836 71.332V75ZM97.7832 74.9414C97.5566 75.0664 97.2578 75.1289 96.8867 75.1289C95.8359 75.1289 95.3105 74.543 95.3105 73.3711V69.8203H94.2793V69H95.3105V67.5352L96.2715 67.2246V69H97.7832V69.8203H96.2715V73.2012C96.2715 73.6035 96.3398 73.8906 96.4766 74.0625C96.6133 74.2344 96.8398 74.3203 97.1562 74.3203C97.3984 74.3203 97.6074 74.2539 97.7832 74.1211V74.9414ZM101.574 75.1406C100.688 75.1406 99.9785 74.8613 99.4473 74.3027C98.9199 73.7402 98.6562 72.9961 98.6562 72.0703C98.6562 71.0625 98.9316 70.2754 99.4824 69.709C100.033 69.1426 100.777 68.8594 101.715 68.8594C102.609 68.8594 103.307 69.1348 103.807 69.6855C104.311 70.2363 104.562 71 104.562 71.9766C104.562 72.9336 104.291 73.7012 103.748 74.2793C103.209 74.8535 102.484 75.1406 101.574 75.1406ZM101.645 69.668C101.027 69.668 100.539 69.8789 100.18 70.3008C99.8203 70.7188 99.6406 71.2969 99.6406 72.0352C99.6406 72.7461 99.8223 73.3066 100.186 73.7168C100.549 74.127 101.035 74.332 101.645 74.332C102.266 74.332 102.742 74.1309 103.074 73.7285C103.41 73.3262 103.578 72.7539 103.578 72.0117C103.578 71.2617 103.41 70.6836 103.074 70.2773C102.742 69.8711 102.266 69.668 101.645 69.668ZM69.0195 88.2402H64.7832C64.7988 88.9082 64.9785 89.4238 65.3223 89.7871C65.666 90.1504 66.1387 90.332 66.7402 90.332C67.416 90.332 68.0371 90.1094 68.6035 89.6641V90.5664C68.0762 90.9492 67.3789 91.1406 66.5117 91.1406C65.6641 91.1406 64.998 90.8691 64.5137 90.3262C64.0293 89.7793 63.7871 89.0117 63.7871 88.0234C63.7871 87.0898 64.0508 86.3301 64.5781 85.7441C65.1094 85.1543 65.7676 84.8594 66.5527 84.8594C67.3379 84.8594 67.9453 85.1133 68.375 85.6211C68.8047 86.1289 69.0195 86.834 69.0195 87.7363V88.2402ZM68.0352 87.4258C68.0312 86.8711 67.8965 86.4395 67.6309 86.1309C67.3691 85.8223 67.0039 85.668 66.5352 85.668C66.082 85.668 65.6973 85.8301 65.3809 86.1543C65.0645 86.4785 64.8691 86.9023 64.7949 87.4258H68.0352ZM70.1152 90.7832V89.752C70.6387 90.1387 71.2148 90.332 71.8438 90.332C72.6875 90.332 73.1094 90.0508 73.1094 89.4883C73.1094 89.3281 73.0723 89.1934 72.998 89.084C72.9277 88.9707 72.8301 88.8711 72.7051 88.7852C72.584 88.6992 72.4395 88.623 72.2715 88.5566C72.1074 88.4863 71.9297 88.4141 71.7383 88.3398C71.4727 88.2344 71.2383 88.1289 71.0352 88.0234C70.8359 87.9141 70.668 87.793 70.5312 87.6602C70.3984 87.5234 70.2969 87.3691 70.2266 87.1973C70.1602 87.0254 70.127 86.8242 70.127 86.5938C70.127 86.3125 70.1914 86.0645 70.3203 85.8496C70.4492 85.6309 70.6211 85.4492 70.8359 85.3047C71.0508 85.1562 71.2949 85.0449 71.5684 84.9707C71.8457 84.8965 72.1309 84.8594 72.4238 84.8594C72.9434 84.8594 73.4082 84.9492 73.8184 85.1289V86.1016C73.377 85.8125 72.8691 85.668 72.2949 85.668C72.1152 85.668 71.9531 85.6895 71.8086 85.7324C71.6641 85.7715 71.5391 85.8281 71.4336 85.9023C71.332 85.9766 71.252 86.0664 71.1934 86.1719C71.1387 86.2734 71.1113 86.3867 71.1113 86.5117C71.1113 86.668 71.1387 86.7988 71.1934 86.9043C71.252 87.0098 71.3359 87.1035 71.4453 87.1855C71.5547 87.2676 71.6875 87.3418 71.8438 87.4082C72 87.4746 72.1777 87.5469 72.377 87.625C72.6426 87.7266 72.8809 87.832 73.0918 87.9414C73.3027 88.0469 73.4824 88.168 73.6309 88.3047C73.7793 88.4375 73.8926 88.5918 73.9707 88.7676C74.0527 88.9434 74.0938 89.1523 74.0938 89.3945C74.0938 89.6914 74.0273 89.9492 73.8945 90.168C73.7656 90.3867 73.5918 90.5684 73.373 90.7129C73.1543 90.8574 72.9023 90.9648 72.6172 91.0352C72.332 91.1055 72.0332 91.1406 71.7207 91.1406C71.1035 91.1406 70.5684 91.0215 70.1152 90.7832ZM78.3594 90.9414C78.1328 91.0664 77.834 91.1289 77.4629 91.1289C76.4121 91.1289 75.8867 90.543 75.8867 89.3711V85.8203H74.8555V85H75.8867V83.5352L76.8477 83.2246V85H78.3594V85.8203H76.8477V89.2012C76.8477 89.6035 76.916 89.8906 77.0527 90.0625C77.1895 90.2344 77.416 90.3203 77.7324 90.3203C77.9746 90.3203 78.1836 90.2539 78.3594 90.1211V90.9414ZM83.9375 91H82.9766V90.0625H82.9531C82.5352 90.7812 81.9199 91.1406 81.1074 91.1406C80.5098 91.1406 80.041 90.9824 79.7012 90.666C79.3652 90.3496 79.1973 89.9297 79.1973 89.4062C79.1973 88.2852 79.8574 87.6328 81.1777 87.4492L82.9766 87.1973C82.9766 86.1777 82.5645 85.668 81.7402 85.668C81.0176 85.668 80.3652 85.9141 79.7832 86.4062V85.4219C80.373 85.0469 81.0527 84.8594 81.8223 84.8594C83.2324 84.8594 83.9375 85.6055 83.9375 87.0977V91ZM82.9766 87.9648L81.5293 88.1641C81.084 88.2266 80.748 88.3379 80.5215 88.498C80.2949 88.6543 80.1816 88.9336 80.1816 89.3359C80.1816 89.6289 80.2852 89.8691 80.4922 90.0566C80.7031 90.2402 80.9824 90.332 81.3301 90.332C81.8066 90.332 82.1992 90.166 82.5078 89.834C82.8203 89.498 82.9766 89.0742 82.9766 88.5625V87.9648ZM83.1055 81.9414L81.5703 83.8633H80.8262L82.1328 81.9414H83.1055ZM44.4746 104.24H40.2383C40.2539 104.908 40.4336 105.424 40.7773 105.787C41.1211 106.15 41.5938 106.332 42.1953 106.332C42.8711 106.332 43.4922 106.109 44.0586 105.664V106.566C43.5312 106.949 42.834 107.141 41.9668 107.141C41.1191 107.141 40.4531 106.869 39.9688 106.326C39.4844 105.779 39.2422 105.012 39.2422 104.023C39.2422 103.09 39.5059 102.33 40.0332 101.744C40.5645 101.154 41.2227 100.859 42.0078 100.859C42.793 100.859 43.4004 101.113 43.8301 101.621C44.2598 102.129 44.4746 102.834 44.4746 103.736V104.24ZM43.4902 103.426C43.4863 102.871 43.3516 102.439 43.0859 102.131C42.8242 101.822 42.459 101.668 41.9902 101.668C41.5371 101.668 41.1523 101.83 40.8359 102.154C40.5195 102.479 40.3242 102.902 40.25 103.426H43.4902ZM50.9141 107H49.9531V103.578C49.9531 102.305 49.4883 101.668 48.5586 101.668C48.0781 101.668 47.6797 101.85 47.3633 102.213C47.0508 102.572 46.8945 103.027 46.8945 103.578V107H45.9336V101H46.8945V101.996H46.918C47.3711 101.238 48.0273 100.859 48.8867 100.859C49.543 100.859 50.0449 101.072 50.3926 101.498C50.7402 101.92 50.9141 102.531 50.9141 103.332V107ZM61.25 107H60.2891V103.555C60.2891 102.891 60.1855 102.41 59.9785 102.113C59.7754 101.816 59.4316 101.668 58.9473 101.668C58.5371 101.668 58.1875 101.855 57.8984 102.23C57.6133 102.605 57.4707 103.055 57.4707 103.578V107H56.5098V103.438C56.5098 102.258 56.0547 101.668 55.1445 101.668C54.7227 101.668 54.375 101.846 54.1016 102.201C53.8281 102.553 53.6914 103.012 53.6914 103.578V107H52.7305V101H53.6914V101.949H53.7148C54.1406 101.223 54.7617 100.859 55.5781 100.859C55.9883 100.859 56.3457 100.975 56.6504 101.205C56.9551 101.432 57.1641 101.73 57.2773 102.102C57.7227 101.273 58.3867 100.859 59.2695 100.859C60.5898 100.859 61.25 101.674 61.25 103.303V107ZM67.3613 107H66.4004V106.062H66.377C65.959 106.781 65.3438 107.141 64.5312 107.141C63.9336 107.141 63.4648 106.982 63.125 106.666C62.7891 106.35 62.6211 105.93 62.6211 105.406C62.6211 104.285 63.2812 103.633 64.6016 103.449L66.4004 103.197C66.4004 102.178 65.9883 101.668 65.1641 101.668C64.4414 101.668 63.7891 101.914 63.207 102.406V101.422C63.7969 101.047 64.4766 100.859 65.2461 100.859C66.6562 100.859 67.3613 101.605 67.3613 103.098V107ZM66.4004 103.965L64.9531 104.164C64.5078 104.227 64.1719 104.338 63.9453 104.498C63.7188 104.654 63.6055 104.934 63.6055 105.336C63.6055 105.629 63.709 105.869 63.916 106.057C64.127 106.24 64.4062 106.332 64.7539 106.332C65.2305 106.332 65.623 106.166 65.9316 105.834C66.2441 105.498 66.4004 105.074 66.4004 104.562V103.965ZM68.8086 106.783V105.752C69.332 106.139 69.9082 106.332 70.5371 106.332C71.3809 106.332 71.8027 106.051 71.8027 105.488C71.8027 105.328 71.7656 105.193 71.6914 105.084C71.6211 104.971 71.5234 104.871 71.3984 104.785C71.2773 104.699 71.1328 104.623 70.9648 104.557C70.8008 104.486 70.623 104.414 70.4316 104.34C70.166 104.234 69.9316 104.129 69.7285 104.023C69.5293 103.914 69.3613 103.793 69.2246 103.66C69.0918 103.523 68.9902 103.369 68.9199 103.197C68.8535 103.025 68.8203 102.824 68.8203 102.594C68.8203 102.312 68.8848 102.064 69.0137 101.85C69.1426 101.631 69.3145 101.449 69.5293 101.305C69.7441 101.156 69.9883 101.045 70.2617 100.971C70.5391 100.896 70.8242 100.859 71.1172 100.859C71.6367 100.859 72.1016 100.949 72.5117 101.129V102.102C72.0703 101.812 71.5625 101.668 70.9883 101.668C70.8086 101.668 70.6465 101.689 70.502 101.732C70.3574 101.771 70.2324 101.828 70.127 101.902C70.0254 101.977 69.9453 102.066 69.8867 102.172C69.832 102.273 69.8047 102.387 69.8047 102.512C69.8047 102.668 69.832 102.799 69.8867 102.904C69.9453 103.01 70.0293 103.104 70.1387 103.186C70.248 103.268 70.3809 103.342 70.5371 103.408C70.6934 103.475 70.8711 103.547 71.0703 103.625C71.3359 103.727 71.5742 103.832 71.7852 103.941C71.9961 104.047 72.1758 104.168 72.3242 104.305C72.4727 104.438 72.5859 104.592 72.6641 104.768C72.7461 104.943 72.7871 105.152 72.7871 105.395C72.7871 105.691 72.7207 105.949 72.5879 106.168C72.459 106.387 72.2852 106.568 72.0664 106.713C71.8477 106.857 71.5957 106.965 71.3105 107.035C71.0254 107.105 70.7266 107.141 70.4141 107.141C69.7969 107.141 69.2617 107.021 68.8086 106.783ZM78.3594 106.725C77.8984 107.002 77.3516 107.141 76.7188 107.141C75.8633 107.141 75.1719 106.863 74.6445 106.309C74.1211 105.75 73.8594 105.027 73.8594 104.141C73.8594 103.152 74.1426 102.359 74.709 101.762C75.2754 101.16 76.0312 100.859 76.9766 100.859C77.5039 100.859 77.9688 100.957 78.3711 101.152V102.137C77.9258 101.824 77.4492 101.668 76.9414 101.668C76.3281 101.668 75.8242 101.889 75.4297 102.33C75.0391 102.768 74.8438 103.344 74.8438 104.059C74.8438 104.762 75.0273 105.316 75.3945 105.723C75.7656 106.129 76.2617 106.332 76.8828 106.332C77.4062 106.332 77.8984 106.158 78.3594 105.811V106.725ZM84.1074 107H83.1465V106.062H83.123C82.7051 106.781 82.0898 107.141 81.2773 107.141C80.6797 107.141 80.2109 106.982 79.8711 106.666C79.5352 106.35 79.3672 105.93 79.3672 105.406C79.3672 104.285 80.0273 103.633 81.3477 103.449L83.1465 103.197C83.1465 102.178 82.7344 101.668 81.9102 101.668C81.1875 101.668 80.5352 101.914 79.9531 102.406V101.422C80.543 101.047 81.2227 100.859 81.9922 100.859C83.4023 100.859 84.1074 101.605 84.1074 103.098V107ZM83.1465 103.965L81.6992 104.164C81.2539 104.227 80.918 104.338 80.6914 104.498C80.4648 104.654 80.3516 104.934 80.3516 105.336C80.3516 105.629 80.4551 105.869 80.6621 106.057C80.873 106.24 81.1523 106.332 81.5 106.332C81.9766 106.332 82.3691 106.166 82.6777 105.834C82.9902 105.498 83.1465 105.074 83.1465 104.562V103.965ZM89.0469 101.973C88.8789 101.844 88.6367 101.779 88.3203 101.779C87.9102 101.779 87.5664 101.973 87.2891 102.359C87.0156 102.746 86.8789 103.273 86.8789 103.941V107H85.918V101H86.8789V102.236H86.9023C87.0391 101.814 87.248 101.486 87.5293 101.252C87.8105 101.014 88.125 100.895 88.4727 100.895C88.7227 100.895 88.9141 100.922 89.0469 100.977V101.973ZM94.3848 107H93.4238V106.062H93.4004C92.9824 106.781 92.3672 107.141 91.5547 107.141C90.957 107.141 90.4883 106.982 90.1484 106.666C89.8125 106.35 89.6445 105.93 89.6445 105.406C89.6445 104.285 90.3047 103.633 91.625 103.449L93.4238 103.197C93.4238 102.178 93.0117 101.668 92.1875 101.668C91.4648 101.668 90.8125 101.914 90.2305 102.406V101.422C90.8203 101.047 91.5 100.859 92.2695 100.859C93.6797 100.859 94.3848 101.605 94.3848 103.098V107ZM93.4238 103.965L91.9766 104.164C91.5312 104.227 91.1953 104.338 90.9688 104.498C90.7422 104.654 90.6289 104.934 90.6289 105.336C90.6289 105.629 90.7324 105.869 90.9395 106.057C91.1504 106.24 91.4297 106.332 91.7773 106.332C92.2539 106.332 92.6465 106.166 92.9551 105.834C93.2676 105.498 93.4238 105.074 93.4238 104.562V103.965ZM101.316 107H100.355V105.98H100.332C99.8867 106.754 99.1992 107.141 98.2695 107.141C97.5156 107.141 96.9121 106.873 96.459 106.338C96.0098 105.799 95.7852 105.066 95.7852 104.141C95.7852 103.148 96.0352 102.354 96.5352 101.756C97.0352 101.158 97.7012 100.859 98.5332 100.859C99.3574 100.859 99.957 101.184 100.332 101.832H100.355V98.1172H101.316V107ZM100.355 104.287V103.402C100.355 102.918 100.195 102.508 99.875 102.172C99.5547 101.836 99.1484 101.668 98.6562 101.668C98.0703 101.668 97.6094 101.883 97.2734 102.312C96.9375 102.742 96.7695 103.336 96.7695 104.094C96.7695 104.785 96.9297 105.332 97.25 105.734C97.5742 106.133 98.0078 106.332 98.5508 106.332C99.0859 106.332 99.5195 106.139 99.8516 105.752C100.188 105.365 100.355 104.877 100.355 104.287ZM105.77 107.141C104.883 107.141 104.174 106.861 103.643 106.303C103.115 105.74 102.852 104.996 102.852 104.07C102.852 103.062 103.127 102.275 103.678 101.709C104.229 101.143 104.973 100.859 105.91 100.859C106.805 100.859 107.502 101.135 108.002 101.686C108.506 102.236 108.758 103 108.758 103.977C108.758 104.934 108.486 105.701 107.943 106.279C107.404 106.854 106.68 107.141 105.77 107.141ZM105.84 101.668C105.223 101.668 104.734 101.879 104.375 102.301C104.016 102.719 103.836 103.297 103.836 104.035C103.836 104.746 104.018 105.307 104.381 105.717C104.744 106.127 105.23 106.332 105.84 106.332C106.461 106.332 106.938 106.131 107.27 105.729C107.605 105.326 107.773 104.754 107.773 104.012C107.773 103.262 107.605 102.684 107.27 102.277C106.938 101.871 106.461 101.668 105.84 101.668Z" fill="#020057"/>
</g>
<defs>
<filter id="filter0_dd_3871_164744" x="0.8" y="2.38419e-07" width="146.4" height="146.4" filterUnits="userSpaceOnUse" color-interpolation-filters="sRGB">
<feFlood flood-opacity="0" result="BackgroundImageFix"/>
<feColorMatrix in="SourceAlpha" type="matrix" values="0 0 0 0 0 0 0 0 0 0 0 0 0 0 0 0 0 0 127 0" result="hardAlpha"/>
<feOffset dy="3.2"/>
<feGaussianBlur stdDeviation="3.6"/>
<feColorMatrix type="matrix" values="0 0 0 0 0.513726 0 0 0 0 0.494118 0 0 0 0 1 0 0 0 0.12 0"/>
<feBlend mode="normal" in2="BackgroundImageFix" result="effect1_dropShadow_3871_164744"/>
<feColorMatrix in="SourceAlpha" type="matrix" values="0 0 0 0 0 0 0 0 0 0 0 0 0 0 0 0 0 0 127 0" result="hardAlpha"/>
<feOffset dy="0.6"/>
<feGaussianBlur stdDeviation="0.9"/>
<feColorMatrix type="matrix" values="0 0 0 0 0.513726 0 0 0 0 0.494118 0 0 0 0 1 0 0 0 0.1 0"/>
<feBlend mode="normal" in2="effect1_dropShadow_3871_164744" result="effect2_dropShadow_3871_164744"/>
<feBlend mode="normal" in="SourceGraphic" in2="effect2_dropShadow_3871_164744" result="shape"/>
</filter>
</defs>
</svg>
