<svg width="100" height="64" viewBox="0 0 100 64" fill="none" xmlns="http://www.w3.org/2000/svg">
<rect width="100" height="64" fill="#FBFBFE"/>
<path d="M40.2197 10.2197C39.9534 10.4859 39.9292 10.9026 40.1471 11.1962L40.2197 11.2803L44.2542 15.3149C42.3322 16.6644 40.8958 18.6799 40.2989 21.0644C40.1983 21.4662 40.4425 21.8735 40.8443 21.9741C41.2461 22.0746 41.6534 21.8305 41.754 21.4286C42.2835 19.3135 43.5911 17.5395 45.3342 16.3945L47.1438 18.2043C46.4363 18.9258 46 19.9143 46 21.0046C46 23.2138 47.7909 25.0046 50 25.0046C51.0904 25.0046 52.0788 24.5683 52.8004 23.8608L58.7197 29.7803C59.0126 30.0732 59.4874 30.0732 59.7803 29.7803C60.0466 29.5141 60.0708 29.0974 59.8529 28.8038L59.7803 28.7197L53.6668 22.6055L53.668 22.604L52.4679 21.4061L49.598 18.5368L49.6 18.536L46.7188 15.6578L46.72 15.656L45.5867 14.5255L41.2803 10.2197C40.9874 9.92678 40.5126 9.92678 40.2197 10.2197ZM48.2041 19.2655L51.7392 22.8006C51.2892 23.2364 50.6759 23.5046 50 23.5046C48.6193 23.5046 47.5 22.3853 47.5 21.0046C47.5 20.3287 47.7682 19.7154 48.2041 19.2655ZM50 13.5C48.9997 13.5 48.0291 13.6481 47.1111 13.925L48.3481 15.1612C48.8839 15.0553 49.4364 15 50 15C53.9231 15 57.3099 17.6803 58.2471 21.4332C58.3475 21.835 58.7546 22.0794 59.1565 21.9791C59.5584 21.8787 59.8028 21.4716 59.7024 21.0697C58.5994 16.6527 54.6155 13.5 50 13.5ZM50.1947 17.0093L53.996 20.81C53.8942 18.7531 52.2472 17.1076 50.1947 17.0093Z" fill="#020057"/>
<path d="M20.9668 53.1406C19.7754 53.1406 18.8203 52.748 18.1016 51.9629C17.3867 51.1777 17.0293 50.1562 17.0293 48.8984C17.0293 47.5469 17.3945 46.4688 18.125 45.6641C18.8555 44.8594 19.8496 44.457 21.1074 44.457C22.2676 44.457 23.2012 44.8477 23.9082 45.6289C24.6191 46.4102 24.9746 47.4316 24.9746 48.6934C24.9746 50.0645 24.6113 51.1484 23.8848 51.9453C23.1582 52.7422 22.1855 53.1406 20.9668 53.1406ZM21.0371 45.3477C20.1543 45.3477 19.4375 45.666 18.8867 46.3027C18.3359 46.9395 18.0605 47.7754 18.0605 48.8105C18.0605 49.8457 18.3281 50.6797 18.8633 51.3125C19.4023 51.9414 20.1035 52.2559 20.9668 52.2559C21.8887 52.2559 22.6152 51.9551 23.1465 51.3535C23.6777 50.752 23.9434 49.9102 23.9434 48.8281C23.9434 47.7188 23.6855 46.8613 23.1699 46.2559C22.6543 45.6504 21.9434 45.3477 21.0371 45.3477ZM22.1504 43.8418C21.9941 43.8418 21.8594 43.7871 21.7461 43.6777C21.6328 43.5684 21.5762 43.4297 21.5762 43.2617C21.5762 43.0977 21.6309 42.9609 21.7402 42.8516C21.8496 42.7422 21.9824 42.6875 22.1387 42.6875C22.3027 42.6875 22.4414 42.7441 22.5547 42.8574C22.668 42.9668 22.7246 43.1016 22.7246 43.2617C22.7246 43.4219 22.6699 43.5586 22.5605 43.6719C22.4512 43.7852 22.3145 43.8418 22.1504 43.8418ZM19.9004 43.8418C19.7363 43.8418 19.5957 43.7852 19.4785 43.6719C19.3652 43.5547 19.3086 43.418 19.3086 43.2617C19.3086 43.0977 19.3633 42.9609 19.4727 42.8516C19.5859 42.7422 19.7227 42.6875 19.8828 42.6875C20.043 42.6875 20.1816 42.7441 20.2988 42.8574C20.416 42.9668 20.4746 43.1016 20.4746 43.2617C20.4746 43.4219 20.418 43.5586 20.3047 43.6719C20.1914 43.7852 20.0566 43.8418 19.9004 43.8418ZM31.6191 52.5195C31.6191 54.7227 30.5645 55.8242 28.4551 55.8242C27.7129 55.8242 27.0645 55.6836 26.5098 55.4023V54.4414C27.1855 54.8164 27.8301 55.0039 28.4434 55.0039C29.9199 55.0039 30.6582 54.2188 30.6582 52.6484V51.9922H30.6348C30.1777 52.7578 29.4902 53.1406 28.5723 53.1406C27.8262 53.1406 27.2246 52.875 26.7676 52.3438C26.3145 51.8086 26.0879 51.0918 26.0879 50.1934C26.0879 49.1738 26.332 48.3633 26.8203 47.7617C27.3125 47.1602 27.9844 46.8594 28.8359 46.8594C29.6445 46.8594 30.2441 47.1836 30.6348 47.832H30.6582V47H31.6191V52.5195ZM30.6582 50.2871V49.4023C30.6582 48.9258 30.4961 48.5176 30.1719 48.1777C29.8516 47.8379 29.4512 47.668 28.9707 47.668C28.377 47.668 27.9121 47.8848 27.5762 48.3184C27.2402 48.748 27.0723 49.3516 27.0723 50.1289C27.0723 50.7969 27.2324 51.332 27.5527 51.7344C27.877 52.1328 28.3047 52.332 28.8359 52.332C29.375 52.332 29.8125 52.1406 30.1484 51.7578C30.4883 51.375 30.6582 50.8848 30.6582 50.2871ZM30.6113 44.3867C30.5723 44.8281 30.3984 45.1855 30.0898 45.459C29.7852 45.7285 29.4141 45.8633 28.9766 45.8633C28.5195 45.8633 28.1465 45.7285 27.8574 45.459C27.5684 45.1895 27.4141 44.832 27.3945 44.3867H27.9805C28.0273 44.9922 28.3633 45.2949 28.9883 45.2949C29.2539 45.2949 29.4805 45.2129 29.668 45.0488C29.8594 44.8848 29.9746 44.6641 30.0137 44.3867H30.6113ZM38.3867 50.2402H34.1504C34.166 50.9082 34.3457 51.4238 34.6895 51.7871C35.0332 52.1504 35.5059 52.332 36.1074 52.332C36.7832 52.332 37.4043 52.1094 37.9707 51.6641V52.5664C37.4434 52.9492 36.7461 53.1406 35.8789 53.1406C35.0312 53.1406 34.3652 52.8691 33.8809 52.3262C33.3965 51.7793 33.1543 51.0117 33.1543 50.0234C33.1543 49.0898 33.418 48.3301 33.9453 47.7441C34.4766 47.1543 35.1348 46.8594 35.9199 46.8594C36.7051 46.8594 37.3125 47.1133 37.7422 47.6211C38.1719 48.1289 38.3867 48.834 38.3867 49.7363V50.2402ZM37.4023 49.4258C37.3984 48.8711 37.2637 48.4395 36.998 48.1309C36.7363 47.8223 36.3711 47.668 35.9023 47.668C35.4492 47.668 35.0645 47.8301 34.748 48.1543C34.4316 48.4785 34.2363 48.9023 34.1621 49.4258H37.4023ZM48.2598 52.5195C48.2598 54.7227 47.2051 55.8242 45.0957 55.8242C44.3535 55.8242 43.7051 55.6836 43.1504 55.4023V54.4414C43.8262 54.8164 44.4707 55.0039 45.084 55.0039C46.5605 55.0039 47.2988 54.2188 47.2988 52.6484V51.9922H47.2754C46.8184 52.7578 46.1309 53.1406 45.2129 53.1406C44.4668 53.1406 43.8652 52.875 43.4082 52.3438C42.9551 51.8086 42.7285 51.0918 42.7285 50.1934C42.7285 49.1738 42.9727 48.3633 43.4609 47.7617C43.9531 47.1602 44.625 46.8594 45.4766 46.8594C46.2852 46.8594 46.8848 47.1836 47.2754 47.832H47.2988V47H48.2598V52.5195ZM47.2988 50.2871V49.4023C47.2988 48.9258 47.1367 48.5176 46.8125 48.1777C46.4922 47.8379 46.0918 47.668 45.6113 47.668C45.0176 47.668 44.5527 47.8848 44.2168 48.3184C43.8809 48.748 43.7129 49.3516 43.7129 50.1289C43.7129 50.7969 43.873 51.332 44.1934 51.7344C44.5176 52.1328 44.9453 52.332 45.4766 52.332C46.0156 52.332 46.4531 52.1406 46.7891 51.7578C47.1289 51.375 47.2988 50.8848 47.2988 50.2871ZM50.6973 45.4766C50.5254 45.4766 50.3789 45.418 50.2578 45.3008C50.1367 45.1836 50.0762 45.0352 50.0762 44.8555C50.0762 44.6758 50.1367 44.5273 50.2578 44.4102C50.3789 44.2891 50.5254 44.2285 50.6973 44.2285C50.873 44.2285 51.0215 44.2891 51.1426 44.4102C51.2676 44.5273 51.3301 44.6758 51.3301 44.8555C51.3301 45.0273 51.2676 45.1738 51.1426 45.2949C51.0215 45.416 50.873 45.4766 50.6973 45.4766ZM51.166 53H50.2051V47H51.166V53ZM57.2949 47.2754L53.7441 52.1797H57.2598V53H52.332V52.7012L55.8828 47.8203H52.666V47H57.2949V47.2754ZM59.498 53H58.5371V44.1172H59.498V53ZM66.2656 50.2402H62.0293C62.0449 50.9082 62.2246 51.4238 62.5684 51.7871C62.9121 52.1504 63.3848 52.332 63.9863 52.332C64.6621 52.332 65.2832 52.1094 65.8496 51.6641V52.5664C65.3223 52.9492 64.625 53.1406 63.7578 53.1406C62.9102 53.1406 62.2441 52.8691 61.7598 52.3262C61.2754 51.7793 61.0332 51.0117 61.0332 50.0234C61.0332 49.0898 61.2969 48.3301 61.8242 47.7441C62.3555 47.1543 63.0137 46.8594 63.7988 46.8594C64.584 46.8594 65.1914 47.1133 65.6211 47.6211C66.0508 48.1289 66.2656 48.834 66.2656 49.7363V50.2402ZM65.2812 49.4258C65.2773 48.8711 65.1426 48.4395 64.877 48.1309C64.6152 47.8223 64.25 47.668 63.7812 47.668C63.3281 47.668 62.9434 47.8301 62.627 48.1543C62.3105 48.4785 62.1152 48.9023 62.041 49.4258H65.2812ZM72.7051 53H71.7441V49.5781C71.7441 48.3047 71.2793 47.668 70.3496 47.668C69.8691 47.668 69.4707 47.8496 69.1543 48.2129C68.8418 48.5723 68.6855 49.0273 68.6855 49.5781V53H67.7246V47H68.6855V47.9961H68.709C69.1621 47.2383 69.8184 46.8594 70.6777 46.8594C71.334 46.8594 71.8359 47.0723 72.1836 47.498C72.5312 47.9199 72.7051 48.5312 72.7051 49.332V53ZM79.6426 53H78.6816V51.9805H78.6582C78.2129 52.7539 77.5254 53.1406 76.5957 53.1406C75.8418 53.1406 75.2383 52.873 74.7852 52.3379C74.3359 51.7988 74.1113 51.0664 74.1113 50.1406C74.1113 49.1484 74.3613 48.3535 74.8613 47.7559C75.3613 47.1582 76.0273 46.8594 76.8594 46.8594C77.6836 46.8594 78.2832 47.1836 78.6582 47.832H78.6816V44.1172H79.6426V53ZM78.6816 50.2871V49.4023C78.6816 48.918 78.5215 48.5078 78.2012 48.1719C77.8809 47.8359 77.4746 47.668 76.9824 47.668C76.3965 47.668 75.9355 47.8828 75.5996 48.3125C75.2637 48.7422 75.0957 49.3359 75.0957 50.0938C75.0957 50.7852 75.2559 51.332 75.5762 51.7344C75.9004 52.1328 76.334 52.332 76.877 52.332C77.4121 52.332 77.8457 52.1387 78.1777 51.752C78.5137 51.3652 78.6816 50.877 78.6816 50.2871ZM82.0801 45.4766C81.9082 45.4766 81.7617 45.418 81.6406 45.3008C81.5195 45.1836 81.459 45.0352 81.459 44.8555C81.459 44.6758 81.5195 44.5273 81.6406 44.4102C81.7617 44.2891 81.9082 44.2285 82.0801 44.2285C82.2559 44.2285 82.4043 44.2891 82.5254 44.4102C82.6504 44.5273 82.7129 44.6758 82.7129 44.8555C82.7129 45.0273 82.6504 45.1738 82.5254 45.2949C82.4043 45.416 82.2559 45.4766 82.0801 45.4766ZM82.5488 53H81.5879V47H82.5488V53Z" fill="#020057"/>
</svg>
