<svg width="100%" viewBox="0 0 148 147" fill="none" xmlns="http://www.w3.org/2000/svg">
<g filter="url(#filter0_dd_3871_164785)">
<rect x="8" y="4" width="132" height="132" fill="#FBFBFE"/>
<rect x="8.5" y="4.5" width="131" height="131" stroke="#827DFF" stroke-dasharray="4 4"/>
<rect width="100" height="64" transform="translate(24 38)" fill="#FBFBFE"/>
<path d="M64.2197 48.2197C63.9534 48.4859 63.9292 48.9026 64.1471 49.1962L64.2197 49.2803L68.2542 53.3149C66.3322 54.6644 64.8958 56.6799 64.2989 59.0644C64.1983 59.4662 64.4425 59.8735 64.8443 59.9741C65.2461 60.0746 65.6534 59.8305 65.754 59.4286C66.2835 57.3135 67.5911 55.5395 69.3342 54.3945L71.1438 56.2043C70.4363 56.9258 70 57.9143 70 59.0046C70 61.2138 71.7909 63.0046 74 63.0046C75.0904 63.0046 76.0788 62.5683 76.8004 61.8608L82.7197 67.7803C83.0126 68.0732 83.4874 68.0732 83.7803 67.7803C84.0466 67.5141 84.0708 67.0974 83.8529 66.8038L83.7803 66.7197L77.6668 60.6055L77.668 60.604L76.4679 59.4061L73.598 56.5368L73.6 56.536L70.7188 53.6578L70.72 53.656L69.5867 52.5255L65.2803 48.2197C64.9874 47.9268 64.5126 47.9268 64.2197 48.2197ZM72.2041 57.2655L75.7392 60.8006C75.2892 61.2364 74.6759 61.5046 74 61.5046C72.6193 61.5046 71.5 60.3853 71.5 59.0046C71.5 58.3287 71.7682 57.7154 72.2041 57.2655ZM74 51.5C72.9997 51.5 72.0291 51.6481 71.1111 51.925L72.3481 53.1612C72.8839 53.0553 73.4364 53 74 53C77.9231 53 81.3099 55.6803 82.2471 59.4332C82.3475 59.835 82.7546 60.0794 83.1565 59.9791C83.5584 59.8787 83.8028 59.4716 83.7024 59.0697C82.5994 54.6527 78.6155 51.5 74 51.5ZM74.1947 55.0093L77.996 58.81C77.8942 56.7531 76.2472 55.1076 74.1947 55.0093Z" fill="#020057"/>
<path d="M44.9668 91.1406C43.7754 91.1406 42.8203 90.748 42.1016 89.9629C41.3867 89.1777 41.0293 88.1562 41.0293 86.8984C41.0293 85.5469 41.3945 84.4688 42.125 83.6641C42.8555 82.8594 43.8496 82.457 45.1074 82.457C46.2676 82.457 47.2012 82.8477 47.9082 83.6289C48.6191 84.4102 48.9746 85.4316 48.9746 86.6934C48.9746 88.0645 48.6113 89.1484 47.8848 89.9453C47.1582 90.7422 46.1855 91.1406 44.9668 91.1406ZM45.0371 83.3477C44.1543 83.3477 43.4375 83.666 42.8867 84.3027C42.3359 84.9395 42.0605 85.7754 42.0605 86.8105C42.0605 87.8457 42.3281 88.6797 42.8633 89.3125C43.4023 89.9414 44.1035 90.2559 44.9668 90.2559C45.8887 90.2559 46.6152 89.9551 47.1465 89.3535C47.6777 88.752 47.9434 87.9102 47.9434 86.8281C47.9434 85.7188 47.6855 84.8613 47.1699 84.2559C46.6543 83.6504 45.9434 83.3477 45.0371 83.3477ZM46.1504 81.8418C45.9941 81.8418 45.8594 81.7871 45.7461 81.6777C45.6328 81.5684 45.5762 81.4297 45.5762 81.2617C45.5762 81.0977 45.6309 80.9609 45.7402 80.8516C45.8496 80.7422 45.9824 80.6875 46.1387 80.6875C46.3027 80.6875 46.4414 80.7441 46.5547 80.8574C46.668 80.9668 46.7246 81.1016 46.7246 81.2617C46.7246 81.4219 46.6699 81.5586 46.5605 81.6719C46.4512 81.7852 46.3145 81.8418 46.1504 81.8418ZM43.9004 81.8418C43.7363 81.8418 43.5957 81.7852 43.4785 81.6719C43.3652 81.5547 43.3086 81.418 43.3086 81.2617C43.3086 81.0977 43.3633 80.9609 43.4727 80.8516C43.5859 80.7422 43.7227 80.6875 43.8828 80.6875C44.043 80.6875 44.1816 80.7441 44.2988 80.8574C44.416 80.9668 44.4746 81.1016 44.4746 81.2617C44.4746 81.4219 44.418 81.5586 44.3047 81.6719C44.1914 81.7852 44.0566 81.8418 43.9004 81.8418ZM55.6191 90.5195C55.6191 92.7227 54.5645 93.8242 52.4551 93.8242C51.7129 93.8242 51.0645 93.6836 50.5098 93.4023V92.4414C51.1855 92.8164 51.8301 93.0039 52.4434 93.0039C53.9199 93.0039 54.6582 92.2188 54.6582 90.6484V89.9922H54.6348C54.1777 90.7578 53.4902 91.1406 52.5723 91.1406C51.8262 91.1406 51.2246 90.875 50.7676 90.3438C50.3145 89.8086 50.0879 89.0918 50.0879 88.1934C50.0879 87.1738 50.332 86.3633 50.8203 85.7617C51.3125 85.1602 51.9844 84.8594 52.8359 84.8594C53.6445 84.8594 54.2441 85.1836 54.6348 85.832H54.6582V85H55.6191V90.5195ZM54.6582 88.2871V87.4023C54.6582 86.9258 54.4961 86.5176 54.1719 86.1777C53.8516 85.8379 53.4512 85.668 52.9707 85.668C52.377 85.668 51.9121 85.8848 51.5762 86.3184C51.2402 86.748 51.0723 87.3516 51.0723 88.1289C51.0723 88.7969 51.2324 89.332 51.5527 89.7344C51.877 90.1328 52.3047 90.332 52.8359 90.332C53.375 90.332 53.8125 90.1406 54.1484 89.7578C54.4883 89.375 54.6582 88.8848 54.6582 88.2871ZM54.6113 82.3867C54.5723 82.8281 54.3984 83.1855 54.0898 83.459C53.7852 83.7285 53.4141 83.8633 52.9766 83.8633C52.5195 83.8633 52.1465 83.7285 51.8574 83.459C51.5684 83.1895 51.4141 82.832 51.3945 82.3867H51.9805C52.0273 82.9922 52.3633 83.2949 52.9883 83.2949C53.2539 83.2949 53.4805 83.2129 53.668 83.0488C53.8594 82.8848 53.9746 82.6641 54.0137 82.3867H54.6113ZM62.3867 88.2402H58.1504C58.166 88.9082 58.3457 89.4238 58.6895 89.7871C59.0332 90.1504 59.5059 90.332 60.1074 90.332C60.7832 90.332 61.4043 90.1094 61.9707 89.6641V90.5664C61.4434 90.9492 60.7461 91.1406 59.8789 91.1406C59.0312 91.1406 58.3652 90.8691 57.8809 90.3262C57.3965 89.7793 57.1543 89.0117 57.1543 88.0234C57.1543 87.0898 57.418 86.3301 57.9453 85.7441C58.4766 85.1543 59.1348 84.8594 59.9199 84.8594C60.7051 84.8594 61.3125 85.1133 61.7422 85.6211C62.1719 86.1289 62.3867 86.834 62.3867 87.7363V88.2402ZM61.4023 87.4258C61.3984 86.8711 61.2637 86.4395 60.998 86.1309C60.7363 85.8223 60.3711 85.668 59.9023 85.668C59.4492 85.668 59.0645 85.8301 58.748 86.1543C58.4316 86.4785 58.2363 86.9023 58.1621 87.4258H61.4023ZM72.2598 90.5195C72.2598 92.7227 71.2051 93.8242 69.0957 93.8242C68.3535 93.8242 67.7051 93.6836 67.1504 93.4023V92.4414C67.8262 92.8164 68.4707 93.0039 69.084 93.0039C70.5605 93.0039 71.2988 92.2188 71.2988 90.6484V89.9922H71.2754C70.8184 90.7578 70.1309 91.1406 69.2129 91.1406C68.4668 91.1406 67.8652 90.875 67.4082 90.3438C66.9551 89.8086 66.7285 89.0918 66.7285 88.1934C66.7285 87.1738 66.9727 86.3633 67.4609 85.7617C67.9531 85.1602 68.625 84.8594 69.4766 84.8594C70.2852 84.8594 70.8848 85.1836 71.2754 85.832H71.2988V85H72.2598V90.5195ZM71.2988 88.2871V87.4023C71.2988 86.9258 71.1367 86.5176 70.8125 86.1777C70.4922 85.8379 70.0918 85.668 69.6113 85.668C69.0176 85.668 68.5527 85.8848 68.2168 86.3184C67.8809 86.748 67.7129 87.3516 67.7129 88.1289C67.7129 88.7969 67.873 89.332 68.1934 89.7344C68.5176 90.1328 68.9453 90.332 69.4766 90.332C70.0156 90.332 70.4531 90.1406 70.7891 89.7578C71.1289 89.375 71.2988 88.8848 71.2988 88.2871ZM74.6973 83.4766C74.5254 83.4766 74.3789 83.418 74.2578 83.3008C74.1367 83.1836 74.0762 83.0352 74.0762 82.8555C74.0762 82.6758 74.1367 82.5273 74.2578 82.4102C74.3789 82.2891 74.5254 82.2285 74.6973 82.2285C74.873 82.2285 75.0215 82.2891 75.1426 82.4102C75.2676 82.5273 75.3301 82.6758 75.3301 82.8555C75.3301 83.0273 75.2676 83.1738 75.1426 83.2949C75.0215 83.416 74.873 83.4766 74.6973 83.4766ZM75.166 91H74.2051V85H75.166V91ZM81.2949 85.2754L77.7441 90.1797H81.2598V91H76.332V90.7012L79.8828 85.8203H76.666V85H81.2949V85.2754ZM83.498 91H82.5371V82.1172H83.498V91ZM90.2656 88.2402H86.0293C86.0449 88.9082 86.2246 89.4238 86.5684 89.7871C86.9121 90.1504 87.3848 90.332 87.9863 90.332C88.6621 90.332 89.2832 90.1094 89.8496 89.6641V90.5664C89.3223 90.9492 88.625 91.1406 87.7578 91.1406C86.9102 91.1406 86.2441 90.8691 85.7598 90.3262C85.2754 89.7793 85.0332 89.0117 85.0332 88.0234C85.0332 87.0898 85.2969 86.3301 85.8242 85.7441C86.3555 85.1543 87.0137 84.8594 87.7988 84.8594C88.584 84.8594 89.1914 85.1133 89.6211 85.6211C90.0508 86.1289 90.2656 86.834 90.2656 87.7363V88.2402ZM89.2812 87.4258C89.2773 86.8711 89.1426 86.4395 88.877 86.1309C88.6152 85.8223 88.25 85.668 87.7812 85.668C87.3281 85.668 86.9434 85.8301 86.627 86.1543C86.3105 86.4785 86.1152 86.9023 86.041 87.4258H89.2812ZM96.7051 91H95.7441V87.5781C95.7441 86.3047 95.2793 85.668 94.3496 85.668C93.8691 85.668 93.4707 85.8496 93.1543 86.2129C92.8418 86.5723 92.6855 87.0273 92.6855 87.5781V91H91.7246V85H92.6855V85.9961H92.709C93.1621 85.2383 93.8184 84.8594 94.6777 84.8594C95.334 84.8594 95.8359 85.0723 96.1836 85.498C96.5312 85.9199 96.7051 86.5312 96.7051 87.332V91ZM103.643 91H102.682V89.9805H102.658C102.213 90.7539 101.525 91.1406 100.596 91.1406C99.8418 91.1406 99.2383 90.873 98.7852 90.3379C98.3359 89.7988 98.1113 89.0664 98.1113 88.1406C98.1113 87.1484 98.3613 86.3535 98.8613 85.7559C99.3613 85.1582 100.027 84.8594 100.859 84.8594C101.684 84.8594 102.283 85.1836 102.658 85.832H102.682V82.1172H103.643V91ZM102.682 88.2871V87.4023C102.682 86.918 102.521 86.5078 102.201 86.1719C101.881 85.8359 101.475 85.668 100.982 85.668C100.396 85.668 99.9355 85.8828 99.5996 86.3125C99.2637 86.7422 99.0957 87.3359 99.0957 88.0938C99.0957 88.7852 99.2559 89.332 99.5762 89.7344C99.9004 90.1328 100.334 90.332 100.877 90.332C101.412 90.332 101.846 90.1387 102.178 89.752C102.514 89.3652 102.682 88.877 102.682 88.2871ZM106.08 83.4766C105.908 83.4766 105.762 83.418 105.641 83.3008C105.52 83.1836 105.459 83.0352 105.459 82.8555C105.459 82.6758 105.52 82.5273 105.641 82.4102C105.762 82.2891 105.908 82.2285 106.08 82.2285C106.256 82.2285 106.404 82.2891 106.525 82.4102C106.65 82.5273 106.713 82.6758 106.713 82.8555C106.713 83.0273 106.65 83.1738 106.525 83.2949C106.404 83.416 106.256 83.4766 106.08 83.4766ZM106.549 91H105.588V85H106.549V91Z" fill="#020057"/>
</g>
<defs>
<filter id="filter0_dd_3871_164785" x="0.8" y="2.38419e-07" width="146.4" height="146.4" filterUnits="userSpaceOnUse" color-interpolation-filters="sRGB">
<feFlood flood-opacity="0" result="BackgroundImageFix"/>
<feColorMatrix in="SourceAlpha" type="matrix" values="0 0 0 0 0 0 0 0 0 0 0 0 0 0 0 0 0 0 127 0" result="hardAlpha"/>
<feOffset dy="3.2"/>
<feGaussianBlur stdDeviation="3.6"/>
<feColorMatrix type="matrix" values="0 0 0 0 0.513726 0 0 0 0 0.494118 0 0 0 0 1 0 0 0 0.12 0"/>
<feBlend mode="normal" in2="BackgroundImageFix" result="effect1_dropShadow_3871_164785"/>
<feColorMatrix in="SourceAlpha" type="matrix" values="0 0 0 0 0 0 0 0 0 0 0 0 0 0 0 0 0 0 127 0" result="hardAlpha"/>
<feOffset dy="0.6"/>
<feGaussianBlur stdDeviation="0.9"/>
<feColorMatrix type="matrix" values="0 0 0 0 0.513726 0 0 0 0 0.494118 0 0 0 0 1 0 0 0 0.1 0"/>
<feBlend mode="normal" in2="effect1_dropShadow_3871_164785" result="effect2_dropShadow_3871_164785"/>
<feBlend mode="normal" in="SourceGraphic" in2="effect2_dropShadow_3871_164785" result="shape"/>
</filter>
</defs>
</svg>
